<svg xmlns="http://www.w3.org/2000/svg" width="561" height="252" viewBox="0 0 561 252"><path fill="none" stroke="#CDCCCC" stroke-width=".5" stroke-linejoin="round" stroke-miterlimit="10" d="M48.04 196.713h506.23M48.04 159.977h506.23M48.04 123.24h506.23M48.04 86.505h506.23M48.04 49.77h506.23M48.04 13.03h506.23"/><path fill="none" stroke="#9B9B9B" stroke-linejoin="round" stroke-miterlimit="10" d="M48.04 233.45h506.23m-506.23-1.842v3.68m57.56-3.68v3.68m57.564-3.68v3.68m57.463-3.68v3.68m57.562-3.68v3.68m57.462-3.68v3.68m57.563-3.68v3.68m57.56-3.68v3.68m57.465-3.68v3.68"/><path fill="none" stroke="#E81F64" stroke-width="2.16" stroke-linecap="round" stroke-linejoin="round" stroke-miterlimit="10" d="M48.04 127.23l11.53.458 11.533-2.146 11.532-4.602 11.434-4.68 11.53 1.535 11.532 1.074 11.434-3.146 11.532-3.682 11.53-2.99 11.534 1.84 11.433 4.832 11.532.076 11.53.308 11.435-1.84 11.532-6.213 11.532-2.3 11.53-4.68 11.435-2.99 11.533-5.368 11.532-1.38 11.532-.844 11.433 4.217 11.533-5.138 11.532.69 11.433-2.377 11.533-4.065 11.533-3.374 11.532-3.835 11.434-5.827 11.53-1.917 11.533-5.445 11.434.92 11.53.69 11.533 1.305 11.532-2.224 11.434-1.916 11.533-5.83 11.53-3.68 11.435 3.144 11.53 7.286 11.533 1.074 11.533-2.685 11.434-3.987 11.53-.077"/><path fill="none" stroke="#009688" stroke-width="2.16" stroke-linecap="round" stroke-linejoin="round" stroke-miterlimit="10" d="M48.04 151.848l11.53.69 11.533-3.068 11.532-5.83 11.434-9.356 11.53 3.45 11.532-4.907 11.434 2.225 11.532-.997 11.53-.997 11.534.153 11.433 10.355 11.532-3.22 11.53-.844 11.435 1.534 11.532-7.593 11.532-.765 11.53-.537 11.435.077 11.533.766 11.532-5.213 11.532 2.607 11.433 3.298 11.533-6.825 11.532.767 11.433-2.608 11.533.92 11.533-5.368 11.532-1.917 11.434-1.917 11.53.69 11.533-3.45 11.434-1.15 11.53 1.225 11.533-2.147 11.532-3.757 11.434 3.835 11.533-1.994 11.53-4.985 11.435-4.066 11.53.767 11.533-1.303 11.533-5.83 11.434.692 11.53-8.284"/><path d="M30.832 237.11c-.403-.036-.77-.136-1.103-.296-.334-.162-.62-.37-.86-.62l.27-.407c.028-.037.06-.068.1-.092.04-.02.084-.033.13-.033.064 0 .136.03.216.094.08.064.178.137.295.22.118.08.257.16.418.235s.355.13.582.158l.185-2.656c-.233-.07-.462-.147-.688-.235-.226-.09-.428-.205-.606-.346-.177-.143-.32-.32-.43-.535s-.162-.484-.162-.807c0-.244.05-.482.144-.713.095-.232.234-.438.417-.617.184-.182.41-.328.675-.443.267-.115.57-.18.915-.193l.05-.718c.004-.064.028-.12.073-.17.045-.05.104-.076.178-.076h.33l-.07.99c.35.043.655.135.91.27s.48.302.678.495l-.215.33c-.066.1-.143.15-.23.15-.046 0-.104-.02-.172-.062-.067-.042-.15-.09-.244-.145-.095-.055-.207-.11-.335-.164s-.273-.093-.437-.116l-.165 2.42c.24.073.477.153.71.24.233.087.443.198.63.335s.338.31.453.513c.116.204.173.46.173.767 0 .3-.05.58-.15.844s-.246.497-.438.696c-.19.2-.427.363-.705.488s-.597.197-.953.217l-.06.882c-.003.063-.028.12-.075.166-.046.05-.105.074-.175.074h-.33l.075-1.13zm-.81-5.415c0 .16.027.3.084.418.057.12.135.223.235.313s.22.168.35.236c.135.066.28.125.437.18l.15-2.256c-.217.02-.404.064-.563.13s-.29.15-.39.25-.177.214-.228.34c-.05.124-.074.255-.074.39zm2.774 3.32c0-.165-.03-.308-.093-.43-.062-.118-.146-.222-.252-.31-.104-.086-.23-.16-.373-.225-.143-.063-.296-.12-.46-.174l-.17 2.49c.22-.02.414-.068.58-.143.167-.076.308-.172.422-.29.114-.114.2-.25.26-.405.06-.155.087-.325.087-.512zm6.884-1.545c0 .628-.066 1.17-.202 1.63-.135.457-.32.836-.552 1.137s-.51.523-.828.67-.66.22-1.022.22c-.367 0-.708-.073-1.022-.22s-.59-.37-.823-.67-.415-.68-.55-1.137c-.13-.46-.2-1.002-.2-1.63s.07-1.17.2-1.628c.135-.46.318-.842.55-1.143.235-.305.51-.527.825-.676.315-.146.656-.22 1.022-.22.363 0 .704.073 1.022.22.317.148.593.37.827.674.233.3.417.68.552 1.142.135.46.202 1.002.202 1.63zm-.924 0c0-.546-.046-1.005-.138-1.376s-.215-.67-.37-.898c-.155-.227-.334-.39-.538-.486-.203-.098-.415-.148-.635-.148s-.432.05-.635.148c-.203.098-.38.26-.535.486-.153.23-.276.527-.368.898s-.137.83-.137 1.377.045 1.008.137 1.377c.092.37.214.668.368.896.153.227.332.39.535.486.204.097.415.147.635.147s.432-.05.635-.148c.204-.1.383-.26.538-.487.155-.23.278-.525.37-.896.092-.37.138-.828.138-1.375zM5.332 200.373c-.403-.037-.77-.137-1.103-.297-.334-.162-.62-.37-.86-.62l.27-.407c.028-.04.06-.07.1-.094.04-.02.084-.033.13-.033.064 0 .136.03.216.094.08.064.178.137.295.22.118.08.257.16.418.235s.355.13.582.156l.185-2.657c-.233-.07-.462-.147-.688-.235-.226-.09-.428-.205-.606-.346-.177-.143-.32-.32-.43-.535s-.162-.484-.162-.807c0-.245.05-.483.144-.714.095-.232.234-.438.417-.617.184-.183.41-.33.675-.444.267-.115.57-.18.915-.193l.05-.72c.004-.063.028-.12.073-.17.045-.05.104-.075.178-.075h.33l-.07.99c.35.043.655.135.91.27s.48.302.678.495l-.215.33c-.066.1-.143.15-.23.15-.046 0-.104-.02-.172-.063-.067-.043-.15-.09-.244-.146-.095-.054-.207-.11-.335-.163s-.273-.094-.437-.117l-.165 2.42c.24.072.477.152.71.24.233.086.443.197.63.334s.338.31.453.514c.116.206.173.462.173.77 0 .298-.05.58-.15.843s-.246.497-.438.696c-.19.2-.427.363-.705.488s-.597.197-.953.217l-.06.88c-.003.065-.028.12-.075.168-.046.05-.105.074-.175.074h-.33l.075-1.13zm-.81-5.416c0 .16.028.3.085.418.057.12.135.223.235.313s.217.168.35.236c.133.066.278.125.435.18l.15-2.256c-.217.02-.404.064-.563.13s-.29.15-.39.25-.177.214-.228.34c-.05.123-.074.254-.074.39zm2.775 3.32c0-.166-.03-.31-.093-.43-.062-.12-.146-.223-.252-.31-.106-.087-.23-.16-.375-.226-.143-.06-.296-.12-.46-.172l-.17 2.49c.22-.02.414-.068.58-.143.167-.076.308-.172.422-.29.113-.114.2-.25.26-.405.057-.155.086-.325.086-.513zm2.635 1.356h1.535v-4.885c0-.14.005-.29.015-.445l-1.275 1.096c-.043.035-.086.057-.13.064-.043.01-.083.01-.12.004-.037-.01-.07-.022-.103-.042s-.056-.04-.072-.064l-.28-.385 2.135-1.847h.725v6.5h1.41v.68h-3.84v-.68zm10.048-2.9c0 .626-.066 1.17-.202 1.63-.135.455-.32.834-.552 1.135s-.51.523-.828.67-.66.22-1.022.22c-.367 0-.708-.073-1.022-.22s-.59-.37-.823-.67-.415-.68-.55-1.137c-.13-.457-.2-1-.2-1.627s.07-1.17.2-1.63c.135-.46.318-.84.55-1.142.235-.302.51-.524.825-.673.315-.146.656-.22 1.022-.22.363 0 .704.073 1.022.22.317.148.593.37.827.674.233.3.417.683.552 1.144.135.46.202 1.002.202 1.63zm-.923 0c0-.548-.046-1.007-.138-1.378s-.217-.67-.37-.898c-.157-.227-.336-.39-.54-.486-.203-.096-.415-.146-.635-.146s-.432.05-.635.148c-.202.1-.38.26-.534.487-.153.23-.276.526-.368.897s-.137.83-.137 1.377.047 1.006.14 1.375c.09.37.213.667.367.895.153.227.332.39.535.486.205.098.416.148.636.148s.432-.05.635-.148c.205-.1.384-.26.54-.487.154-.23.277-.525.37-.896.09-.37.137-.828.137-1.375zm1.76 2.964c0-.156.053-.29.16-.398.11-.113.254-.168.434-.168.1 0 .19.018.267.055s.14.088.192.152c.05.065.09.14.117.226.026.084.04.176.04.277 0 .148-.02.305-.063.467-.042.163-.104.323-.185.48s-.18.314-.298.464c-.116.148-.25.287-.4.414l-.15-.145c-.026-.023-.044-.045-.054-.066-.01-.02-.015-.045-.015-.074 0-.023.008-.047.023-.07s.032-.045.052-.064l.128-.15c.05-.06.104-.13.157-.21s.103-.17.147-.267c.045-.098.078-.2.098-.31H21.4c-.173 0-.314-.058-.423-.173-.106-.115-.16-.26-.16-.443zm7.263-2.965c0 .627-.066 1.17-.202 1.63-.135.456-.32.835-.552 1.136s-.51.523-.828.67-.66.22-1.022.22c-.367 0-.708-.073-1.022-.22s-.59-.37-.823-.67-.415-.68-.55-1.137c-.13-.457-.2-1-.2-1.627s.07-1.17.2-1.63c.135-.46.318-.84.55-1.142.235-.302.51-.524.825-.673.315-.146.656-.22 1.022-.22.363 0 .704.073 1.022.22.317.148.593.37.827.674.233.3.417.683.552 1.144.135.46.202 1.002.202 1.63zm-.924 0c0-.547-.046-1.006-.138-1.377s-.215-.67-.37-.898c-.155-.227-.334-.39-.538-.486-.203-.096-.415-.146-.635-.146s-.432.05-.635.148c-.203.1-.38.26-.535.487-.153.23-.276.526-.368.897s-.137.83-.137 1.377.045 1.006.137 1.375c.092.37.214.667.368.895.153.227.332.39.535.486.204.098.415.148.635.148s.432-.05.635-.148c.204-.1.383-.26.538-.487.155-.23.278-.525.37-.896.092-.37.138-.828.138-1.375zm6.724 0c0 .627-.066 1.17-.202 1.63-.135.456-.32.835-.552 1.136s-.51.523-.828.67-.66.22-1.022.22c-.367 0-.708-.073-1.022-.22s-.59-.37-.823-.67-.415-.68-.55-1.137c-.13-.457-.2-1-.2-1.627s.07-1.17.2-1.63c.135-.46.318-.84.55-1.142.235-.302.51-.524.825-.673.315-.146.656-.22 1.022-.22.363 0 .704.073 1.022.22.317.148.593.37.827.674.233.3.417.683.552 1.144.134.46.202 1.002.202 1.63zm-.924 0c0-.547-.046-1.006-.138-1.377s-.215-.67-.37-.898c-.155-.227-.334-.39-.538-.486-.203-.096-.415-.146-.635-.146s-.432.05-.635.148c-.203.1-.38.26-.535.487-.153.23-.276.526-.368.897s-.137.83-.137 1.377.045 1.006.137 1.375c.092.37.214.667.368.895.153.227.332.39.535.486.204.098.415.148.635.148s.432-.05.635-.148c.204-.1.383-.26.538-.487.155-.23.278-.525.37-.896.092-.37.138-.828.138-1.375zm6.724 0c0 .627-.066 1.17-.202 1.63-.135.456-.32.835-.552 1.136s-.51.523-.828.67-.66.22-1.022.22c-.367 0-.708-.073-1.022-.22s-.59-.37-.823-.67-.415-.68-.55-1.137c-.13-.457-.2-1-.2-1.627s.07-1.17.2-1.63c.135-.46.318-.84.55-1.142.235-.302.51-.524.825-.673.315-.146.656-.22 1.022-.22.363 0 .704.073 1.022.22.317.148.593.37.827.674.233.3.417.683.552 1.144.134.46.202 1.002.202 1.63zm-.924 0c0-.547-.046-1.006-.138-1.377s-.215-.67-.37-.898c-.155-.227-.334-.39-.538-.486-.203-.096-.415-.146-.635-.146s-.432.05-.635.148c-.203.1-.38.26-.535.487-.153.23-.276.526-.368.897s-.137.83-.137 1.377.045 1.006.137 1.375c.092.37.214.667.368.895.153.227.332.39.535.486.204.098.415.148.635.148s.432-.05.635-.148c.204-.1.383-.26.538-.487.155-.23.278-.525.37-.896.092-.37.138-.828.138-1.375zM5.332 163.643c-.403-.035-.77-.135-1.103-.297-.334-.162-.62-.367-.86-.617l.27-.41c.028-.04.06-.068.1-.09s.084-.037.13-.037c.064 0 .136.03.216.096.08.062.178.134.295.216s.257.16.418.238c.16.076.355.127.582.154l.185-2.655c-.233-.07-.462-.15-.688-.238s-.428-.203-.606-.346c-.177-.14-.32-.318-.43-.533-.107-.217-.162-.484-.162-.81 0-.24.05-.48.144-.712.095-.23.234-.438.417-.617.184-.18.41-.33.675-.442.267-.115.57-.18.915-.193l.05-.72c.004-.064.028-.12.073-.17.045-.05.104-.075.178-.075h.33l-.07.99c.35.043.655.133.91.27s.48.303.678.494l-.215.33c-.066.102-.143.15-.23.15-.046 0-.104-.02-.172-.063l-.244-.145c-.095-.055-.207-.11-.335-.164-.127-.056-.273-.095-.437-.12l-.165 2.42c.24.076.477.156.71.24.233.09.443.2.63.338.187.136.338.306.453.51.116.206.173.462.173.77 0 .3-.05.58-.15.845s-.246.494-.438.695c-.19.2-.427.36-.705.486s-.597.197-.953.22l-.06.878c-.003.064-.028.12-.075.168-.046.05-.105.072-.175.072h-.33l.075-1.13zm-.81-5.414c0 .16.028.297.085.416.057.117.135.223.235.313s.217.167.35.233.278.127.435.18l.15-2.254c-.217.02-.404.062-.563.13s-.29.15-.39.25-.177.21-.228.336c-.05.124-.074.255-.074.392zm2.775 3.32c0-.168-.03-.313-.093-.43-.062-.123-.146-.227-.252-.313-.106-.086-.23-.162-.375-.225-.143-.064-.296-.123-.46-.176l-.17 2.49c.22-.02.414-.068.58-.143s.308-.17.422-.287c.113-.117.2-.252.26-.408.057-.154.086-.326.086-.51zm4.34-5.212c.303 0 .586.045.85.135.263.092.492.223.685.393.193.172.345.38.455.63.11.245.165.524.165.84 0 .265-.04.513-.12.74-.08.23-.188.446-.325.653s-.294.406-.473.603c-.178.195-.367.395-.567.594l-1.89 1.932c.133-.038.27-.067.405-.09s.268-.032.395-.032h2.4c.097 0 .173.028.23.085s.085.13.085.22v.54h-4.78v-.305c0-.064.013-.13.04-.195.027-.066.068-.13.125-.186l2.295-2.306c.19-.192.363-.38.52-.56.156-.176.29-.355.4-.535s.195-.36.255-.547.09-.382.09-.59c0-.212-.033-.396-.1-.554-.067-.158-.158-.29-.273-.393-.115-.103-.25-.18-.407-.23-.157-.053-.325-.078-.505-.078-.184 0-.352.027-.505.08s-.29.127-.407.223c-.12.096-.218.207-.297.338-.08.13-.137.273-.17.43-.04.117-.094.193-.162.232-.066.04-.163.05-.286.033l-.465-.08c.045-.33.136-.618.27-.87.136-.25.306-.46.51-.63s.44-.302.704-.39c.262-.087.547-.132.854-.132zm8.343 3.666c0 .627-.066 1.168-.202 1.627-.135.46-.32.84-.552 1.14-.233.3-.51.522-.828.67-.318.147-.66.22-1.022.22-.367 0-.708-.072-1.022-.22-.315-.147-.59-.37-.823-.67-.23-.3-.415-.68-.55-1.138s-.2-1-.2-1.626.07-1.17.2-1.63c.135-.46.318-.84.55-1.144.235-.3.51-.525.825-.672s.656-.22 1.022-.22c.363 0 .704.073 1.022.22s.593.37.827.672c.233.303.417.684.552 1.143.135.46.202 1.004.202 1.63zm-.923 0c0-.547-.046-1.006-.138-1.377-.094-.373-.217-.672-.37-.898-.157-.23-.336-.39-.54-.49-.203-.098-.415-.146-.635-.146s-.432.05-.635.146c-.202.1-.38.263-.534.49s-.276.524-.368.897c-.092.37-.137.83-.137 1.377s.047 1.004.14 1.375c.09.367.213.666.367.893s.332.39.535.488c.205.1.416.147.636.147s.432-.05.635-.146c.205-.1.384-.26.54-.487.154-.227.277-.525.37-.895.09-.372.137-.83.137-1.376zm1.76 2.966c0-.157.053-.292.16-.4.11-.11.254-.165.434-.165.1 0 .19.018.267.055s.14.088.192.152.09.14.117.225c.026.086.04.178.04.277 0 .15-.02.307-.063.467-.042.164-.104.324-.185.48s-.18.315-.298.465c-.116.15-.25.29-.4.416l-.15-.145c-.026-.023-.044-.045-.054-.064-.01-.02-.015-.044-.015-.073 0-.023.008-.047.023-.07s.032-.045.052-.066c.034-.034.076-.083.128-.145.05-.063.104-.133.157-.213s.103-.167.147-.265c.045-.096.078-.2.098-.31H21.4c-.173 0-.314-.058-.423-.173-.106-.115-.16-.264-.16-.443zm7.263-2.966c0 .627-.066 1.168-.202 1.627-.135.46-.32.84-.552 1.14-.233.3-.51.522-.828.67-.318.147-.66.22-1.022.22-.367 0-.708-.072-1.022-.22-.315-.147-.59-.37-.823-.67-.23-.3-.415-.68-.55-1.138s-.2-1-.2-1.626.07-1.17.2-1.63c.135-.46.318-.84.55-1.144.235-.3.51-.525.825-.672s.656-.22 1.022-.22c.363 0 .704.073 1.022.22s.593.37.827.672c.233.303.417.684.552 1.143.135.46.202 1.004.202 1.63zm-.924 0c0-.547-.046-1.006-.138-1.377-.092-.373-.215-.672-.37-.898-.155-.23-.334-.39-.538-.49-.203-.098-.415-.146-.635-.146s-.432.05-.635.146c-.203.1-.38.263-.535.49s-.276.524-.368.897c-.092.37-.137.83-.137 1.377s.045 1.004.137 1.375c.092.367.214.666.368.893s.332.39.535.488c.204.1.415.147.635.147s.432-.05.635-.146c.204-.1.383-.26.538-.487.155-.227.278-.525.37-.895.092-.372.138-.83.138-1.376zm6.724 0c0 .627-.066 1.168-.202 1.627-.135.46-.32.84-.552 1.14-.233.3-.51.522-.828.67-.318.147-.66.22-1.022.22-.367 0-.708-.072-1.022-.22-.315-.147-.59-.37-.823-.67-.23-.3-.415-.68-.55-1.138s-.2-1-.2-1.626.07-1.17.2-1.63c.135-.46.318-.84.55-1.144.235-.3.51-.525.825-.672s.656-.22 1.022-.22c.363 0 .704.073 1.022.22s.593.37.827.672c.233.303.417.684.552 1.143.134.46.202 1.004.202 1.63zm-.924 0c0-.547-.046-1.006-.138-1.377-.092-.373-.215-.672-.37-.898-.155-.23-.334-.39-.538-.49-.203-.098-.415-.146-.635-.146s-.432.05-.635.146c-.203.1-.38.263-.535.49s-.276.524-.368.897c-.092.37-.137.83-.137 1.377s.045 1.004.137 1.375c.092.367.214.666.368.893s.332.39.535.488c.204.1.415.147.635.147s.432-.05.635-.146c.204-.1.383-.26.538-.487.155-.227.278-.525.37-.895.092-.372.138-.83.138-1.376zm6.724 0c0 .627-.066 1.168-.202 1.627-.135.46-.32.84-.552 1.14-.233.3-.51.522-.828.67-.318.147-.66.22-1.022.22-.367 0-.708-.072-1.022-.22-.315-.147-.59-.37-.823-.67-.23-.3-.415-.68-.55-1.138s-.2-1-.2-1.626.07-1.17.2-1.63c.135-.46.318-.84.55-1.144.235-.3.51-.525.825-.672s.656-.22 1.022-.22c.363 0 .704.073 1.022.22s.593.37.827.672c.233.303.417.684.552 1.143.134.46.202 1.004.202 1.63zm-.924 0c0-.547-.046-1.006-.138-1.377-.092-.373-.215-.672-.37-.898-.155-.23-.334-.39-.538-.49-.203-.098-.415-.146-.635-.146s-.432.05-.635.146c-.203.1-.38.263-.535.49s-.276.524-.368.897c-.092.37-.137.83-.137 1.377s.045 1.004.137 1.375c.092.367.214.666.368.893s.332.39.535.488c.204.1.415.147.635.147s.432-.05.635-.146c.204-.1.383-.26.538-.487.155-.227.278-.525.37-.895.092-.372.138-.83.138-1.376zM5.332 126.914c-.403-.036-.77-.136-1.103-.297-.334-.16-.62-.368-.86-.618l.27-.41c.028-.04.06-.068.1-.09s.084-.037.13-.037c.064 0 .136.032.216.095s.178.135.295.216c.118.082.257.16.418.238.16.076.355.13.582.154l.185-2.654c-.233-.07-.462-.15-.688-.238s-.428-.203-.606-.345-.32-.32-.43-.535-.162-.484-.162-.808c0-.243.05-.48.144-.712.095-.23.234-.438.417-.618.184-.18.41-.327.675-.442.267-.115.57-.18.915-.192l.05-.72c.004-.063.028-.12.073-.17.045-.05.104-.075.178-.075h.33l-.07.99c.35.042.655.132.91.27s.48.3.678.494l-.215.33c-.066.1-.143.15-.23.15-.046 0-.104-.02-.172-.063s-.15-.09-.244-.145c-.095-.055-.207-.11-.335-.165s-.273-.093-.437-.117l-.165 2.42c.24.073.477.153.71.24.233.087.443.198.63.335s.338.308.453.513c.116.207.173.463.173.77 0 .3-.05.58-.15.845-.1.264-.246.495-.438.695-.19.198-.427.36-.705.486s-.597.197-.953.218l-.06.88c-.003.063-.028.12-.075.166-.046.05-.105.074-.175.074h-.33l.075-1.13zm-.81-5.415c0 .16.028.297.085.415s.135.223.235.313.217.167.35.234c.133.067.278.127.435.18l.15-2.255c-.217.02-.404.062-.563.13s-.29.15-.39.25-.177.21-.228.336c-.05.125-.074.256-.074.393zm2.775 3.32c0-.17-.03-.31-.093-.43-.062-.12-.146-.226-.252-.31-.106-.09-.23-.164-.375-.227-.143-.063-.296-.122-.46-.175l-.17 2.488c.22-.02.414-.066.58-.143.167-.074.308-.17.422-.287.113-.116.2-.252.26-.407.057-.155.086-.325.086-.51zm4.375-5.21c.303 0 .583.042.84.13.256.086.478.21.663.37.185.16.33.353.432.58.104.226.155.478.155.754 0 .227-.03.43-.087.607-.06.18-.142.337-.25.47-.108.137-.24.25-.393.344-.153.094-.325.168-.515.225.467.123.817.33 1.053.62.235.29.353.652.353 1.09 0 .33-.063.626-.188.89s-.296.486-.513.672c-.217.186-.47.327-.757.426-.29.1-.598.147-.928.147-.38 0-.705-.048-.975-.143-.27-.096-.498-.226-.685-.393-.187-.167-.34-.365-.46-.593-.12-.23-.222-.476-.305-.743l.385-.16c.1-.043.198-.055.292-.035.093.02.162.074.206.164.043.093.098.205.163.335.064.13.153.254.267.374.113.12.257.222.433.305.176.082.398.124.668.124.25 0 .47-.04.657-.123.188-.082.345-.19.47-.317s.22-.275.282-.435c.063-.16.095-.318.095-.475 0-.193-.025-.37-.075-.53-.05-.16-.143-.298-.28-.415s-.324-.208-.563-.275c-.238-.066-.544-.1-.917-.1v-.645c.307-.003.567-.037.782-.1.213-.063.39-.15.523-.26.135-.11.233-.242.295-.395.06-.153.09-.323.09-.51 0-.207-.03-.387-.097-.54-.064-.153-.153-.28-.266-.38-.114-.1-.248-.175-.403-.225-.154-.05-.32-.075-.5-.075s-.348.027-.5.08-.294.127-.41.222c-.12.095-.22.208-.3.338-.08.13-.136.273-.17.43-.042.117-.097.194-.162.232-.066.04-.16.05-.283.033l-.465-.08c.047-.327.137-.616.27-.867.133-.25.303-.462.508-.632.205-.17.44-.3.705-.387.264-.086.55-.13.857-.13zm8.308 3.664c0 .627-.066 1.17-.202 1.627-.135.46-.32.84-.552 1.14-.233.3-.51.523-.828.67s-.66.22-1.022.22c-.367 0-.708-.073-1.022-.22s-.59-.37-.823-.67c-.23-.3-.415-.68-.55-1.14-.13-.456-.2-1-.2-1.625 0-.626.07-1.17.2-1.63s.318-.84.55-1.143.51-.525.825-.67c.315-.148.656-.22 1.022-.22.363 0 .704.072 1.022.22.317.145.593.37.827.67s.417.684.552 1.144c.135.46.202 1.003.202 1.63zm-.923 0c0-.546-.046-1.006-.138-1.377s-.217-.67-.37-.897c-.157-.227-.336-.39-.54-.487-.203-.1-.415-.148-.635-.148s-.432.05-.635.148c-.202.098-.38.26-.534.487s-.276.526-.368.897-.137.83-.137 1.377.047 1.005.14 1.375.213.666.367.893.332.39.535.488c.205.1.416.148.636.148s.432-.05.635-.148c.205-.1.384-.26.54-.488.154-.227.277-.525.37-.895s.137-.83.137-1.376zm1.76 2.966c0-.157.053-.29.16-.4.11-.11.254-.166.434-.166.1 0 .19.02.267.055s.14.085.192.15.09.14.117.225c.026.086.04.178.04.277 0 .15-.02.307-.063.47-.042.16-.104.32-.185.48s-.18.312-.298.462c-.116.148-.25.287-.4.414l-.15-.146c-.026-.023-.044-.045-.054-.066-.01-.02-.015-.045-.015-.074 0-.023.008-.047.023-.07s.032-.045.052-.064c.034-.037.076-.086.128-.148.05-.06.104-.13.157-.21s.103-.17.147-.267c.045-.098.078-.2.098-.31H21.4c-.173 0-.314-.058-.423-.172-.106-.115-.16-.264-.16-.443zm7.263-2.966c0 .627-.066 1.17-.202 1.627-.135.46-.32.84-.552 1.14-.233.3-.51.523-.828.67s-.66.22-1.022.22c-.367 0-.708-.073-1.022-.22s-.59-.37-.823-.67c-.23-.3-.415-.68-.55-1.14-.13-.456-.2-1-.2-1.625 0-.626.07-1.17.2-1.63s.318-.84.55-1.143.51-.525.825-.67c.315-.148.656-.22 1.022-.22.363 0 .704.072 1.022.22.317.145.593.37.827.67s.417.684.552 1.144c.135.46.202 1.003.202 1.63zm-.924 0c0-.546-.046-1.006-.138-1.377s-.215-.67-.37-.897c-.155-.227-.334-.39-.538-.487-.203-.1-.415-.148-.635-.148s-.432.05-.635.148c-.203.098-.38.26-.535.487s-.276.526-.368.897-.137.83-.137 1.377.045 1.005.137 1.375.214.666.368.893.332.39.535.488c.204.1.415.148.635.148s.432-.05.635-.148c.204-.1.383-.26.538-.488.155-.227.278-.525.37-.895s.138-.83.138-1.376zm6.724 0c0 .627-.066 1.17-.202 1.627-.135.46-.32.84-.552 1.14-.233.3-.51.523-.828.67s-.66.22-1.022.22c-.367 0-.708-.073-1.022-.22s-.59-.37-.823-.67c-.23-.3-.415-.68-.55-1.14-.13-.456-.2-1-.2-1.625 0-.626.07-1.17.2-1.63s.318-.84.55-1.143.51-.525.825-.67c.315-.148.656-.22 1.022-.22.363 0 .704.072 1.022.22.317.145.593.37.827.67s.417.684.552 1.144c.134.46.202 1.003.202 1.63zm-.924 0c0-.546-.046-1.006-.138-1.377s-.215-.67-.37-.897c-.155-.227-.334-.39-.538-.487-.203-.1-.415-.148-.635-.148s-.432.05-.635.148c-.203.098-.38.26-.535.487s-.276.526-.368.897-.137.83-.137 1.377.045 1.005.137 1.375.214.666.368.893.332.39.535.488c.204.1.415.148.635.148s.432-.05.635-.148c.204-.1.383-.26.538-.488.155-.227.278-.525.37-.895s.138-.83.138-1.376zm6.724 0c0 .627-.066 1.17-.202 1.627-.135.46-.32.84-.552 1.14-.233.3-.51.523-.828.67s-.66.22-1.022.22c-.367 0-.708-.073-1.022-.22s-.59-.37-.823-.67c-.23-.3-.415-.68-.55-1.14-.13-.456-.2-1-.2-1.625 0-.626.07-1.17.2-1.63s.318-.84.55-1.143.51-.525.825-.67c.315-.148.656-.22 1.022-.22.363 0 .704.072 1.022.22.317.145.593.37.827.67s.417.684.552 1.144c.134.46.202 1.003.202 1.63zm-.924 0c0-.546-.046-1.006-.138-1.377s-.215-.67-.37-.897c-.155-.227-.334-.39-.538-.487-.203-.1-.415-.148-.635-.148s-.432.05-.635.148c-.203.098-.38.26-.535.487s-.276.526-.368.897-.137.83-.137 1.377.045 1.005.137 1.375.214.666.368.893.332.39.535.488c.204.1.415.148.635.148s.432-.05.635-.148c.204-.1.383-.26.538-.488.155-.227.278-.525.37-.895s.138-.83.138-1.376zM5.332 90.186c-.403-.037-.77-.136-1.103-.297-.334-.164-.62-.37-.86-.62l.27-.41c.028-.037.06-.066.1-.09s.084-.035.13-.035c.064 0 .136.032.216.095s.178.137.295.218c.118.082.257.16.418.238s.355.128.582.155l.185-2.653c-.233-.07-.462-.15-.688-.238s-.428-.204-.606-.346-.32-.32-.43-.535-.162-.485-.162-.81c0-.242.05-.48.144-.71.095-.23.234-.44.417-.62.184-.18.41-.326.675-.44.267-.116.57-.18.915-.193l.05-.72c.004-.063.028-.12.073-.17.045-.05.104-.075.178-.075h.33l-.07.99c.35.044.655.134.91.27s.48.303.678.496l-.215.33c-.066.1-.143.15-.23.15-.046 0-.104-.02-.172-.063s-.15-.09-.244-.145c-.095-.055-.207-.11-.335-.165s-.273-.094-.437-.118l-.165 2.42c.24.073.477.153.71.24.233.087.443.198.63.335s.338.308.453.513c.116.205.173.46.173.768 0 .3-.05.583-.15.846-.1.263-.246.494-.438.694-.19.2-.427.363-.705.488s-.597.197-.953.217l-.06.88c-.003.062-.028.12-.075.166-.046.048-.105.072-.175.072h-.33l.075-1.128zm-.81-5.415c0 .16.028.3.085.42s.135.222.235.312.217.17.35.236c.133.067.278.127.435.18l.15-2.255c-.217.02-.404.064-.563.13s-.29.15-.39.25-.177.213-.228.338c-.05.126-.074.257-.074.394zm2.775 3.32c0-.166-.03-.31-.093-.43-.062-.12-.146-.223-.252-.31-.106-.086-.23-.16-.375-.224-.143-.063-.296-.122-.46-.175l-.17 2.49c.22-.02.414-.066.58-.142.167-.075.308-.17.422-.288.113-.117.2-.253.26-.408.057-.154.086-.325.086-.512zm5.815-.55h1.085v.51c0 .055-.016.1-.048.136s-.083.055-.15.055h-.89v1.887h-.78V88.24H9.15c-.066 0-.124-.02-.172-.057-.05-.04-.08-.086-.093-.143l-.09-.455 3.485-4.625h.83v4.58zm-.78-2.955c0-.086.002-.18.008-.282.005-.102.016-.206.032-.313l-2.61 3.55h2.57v-2.955zm7.648 1.96c0 .627-.066 1.17-.202 1.627-.135.458-.32.837-.552 1.138-.233.3-.51.523-.828.67s-.66.22-1.022.22c-.367 0-.708-.074-1.022-.22s-.59-.37-.823-.67c-.23-.3-.415-.68-.55-1.138-.13-.458-.2-1-.2-1.627 0-.626.07-1.17.2-1.63s.318-.84.55-1.143.51-.526.825-.672c.315-.147.656-.22 1.022-.22.363 0 .704.073 1.022.22.317.146.593.37.827.672s.417.683.552 1.143c.135.46.202 1.004.202 1.63zm-.923 0c0-.546-.046-1.006-.138-1.377s-.217-.67-.37-.897c-.157-.225-.336-.387-.54-.485-.203-.1-.415-.148-.635-.148s-.432.05-.635.148c-.202.098-.38.26-.534.487s-.276.527-.368.898-.137.83-.137 1.377.047 1.005.14 1.375.213.668.367.895.332.39.535.488c.205.098.416.147.636.147s.432-.05.635-.147c.205-.1.384-.26.54-.488.154-.227.277-.525.37-.895s.137-.828.137-1.375zm1.76 2.965c0-.156.053-.29.16-.4.11-.11.254-.165.434-.165.1 0 .19.02.267.055s.14.087.192.152.09.14.117.225c.026.085.04.178.04.277 0 .15-.02.306-.063.468-.042.162-.104.322-.185.48s-.18.313-.298.462c-.116.15-.25.29-.4.415l-.15-.147c-.026-.023-.044-.045-.054-.065-.01-.02-.015-.046-.015-.076 0-.023.008-.046.023-.07s.032-.045.052-.065l.128-.148c.05-.063.104-.134.157-.213.053-.08.103-.168.147-.265s.078-.2.098-.31H21.4c-.173 0-.314-.058-.423-.172-.106-.115-.16-.263-.16-.443zm7.263-2.965c0 .627-.066 1.17-.202 1.627-.135.458-.32.837-.552 1.138-.233.3-.51.523-.828.67s-.66.22-1.022.22c-.367 0-.708-.074-1.022-.22s-.59-.37-.823-.67c-.23-.3-.415-.68-.55-1.138-.13-.458-.2-1-.2-1.627 0-.626.07-1.17.2-1.63s.318-.84.55-1.143.51-.526.825-.672c.315-.147.656-.22 1.022-.22.363 0 .704.073 1.022.22.317.146.593.37.827.672s.417.683.552 1.143c.135.46.202 1.004.202 1.63zm-.924 0c0-.546-.046-1.006-.138-1.377s-.215-.67-.37-.897c-.155-.225-.334-.387-.538-.485-.203-.1-.415-.148-.635-.148s-.432.05-.635.148c-.203.098-.38.26-.535.487s-.276.527-.368.898-.137.83-.137 1.377.045 1.005.137 1.375.214.668.368.895.332.39.535.488c.204.098.415.147.635.147s.432-.05.635-.147c.204-.1.383-.26.538-.488.155-.227.278-.525.37-.895s.138-.828.138-1.375zm6.724 0c0 .627-.066 1.17-.202 1.627-.135.458-.32.837-.552 1.138-.233.3-.51.523-.828.67s-.66.22-1.022.22c-.367 0-.708-.074-1.022-.22s-.59-.37-.823-.67c-.23-.3-.415-.68-.55-1.138-.13-.458-.2-1-.2-1.627 0-.626.07-1.17.2-1.63s.318-.84.55-1.143.51-.526.825-.672c.315-.147.656-.22 1.022-.22.363 0 .704.073 1.022.22.317.146.593.37.827.672s.417.683.552 1.143c.134.46.202 1.004.202 1.63zm-.924 0c0-.546-.046-1.006-.138-1.377s-.215-.67-.37-.897c-.155-.225-.334-.387-.538-.485-.203-.1-.415-.148-.635-.148s-.432.05-.635.148c-.203.098-.38.26-.535.487s-.276.527-.368.898-.137.83-.137 1.377.045 1.005.137 1.375.214.668.368.895.332.39.535.488c.204.098.415.147.635.147s.432-.05.635-.147c.204-.1.383-.26.538-.488.155-.227.278-.525.37-.895s.138-.828.138-1.375zm6.724 0c0 .627-.066 1.17-.202 1.627-.135.458-.32.837-.552 1.138-.233.3-.51.523-.828.67s-.66.22-1.022.22c-.367 0-.708-.074-1.022-.22s-.59-.37-.823-.67c-.23-.3-.415-.68-.55-1.138-.13-.458-.2-1-.2-1.627 0-.626.07-1.17.2-1.63s.318-.84.55-1.143.51-.526.825-.672c.315-.147.656-.22 1.022-.22.363 0 .704.073 1.022.22.317.146.593.37.827.672s.417.683.552 1.143c.134.46.202 1.004.202 1.63zm-.924 0c0-.546-.046-1.006-.138-1.377s-.215-.67-.37-.897c-.155-.225-.334-.387-.538-.485-.203-.1-.415-.148-.635-.148s-.432.05-.635.148c-.203.098-.38.26-.535.487s-.276.527-.368.898-.137.83-.137 1.377.045 1.005.137 1.375.214.668.368.895.332.39.535.488c.204.098.415.147.635.147s.432-.05.635-.147c.204-.1.383-.26.538-.488.155-.227.278-.525.37-.895s.138-.828.138-1.375zM5.332 53.457c-.403-.037-.77-.136-1.103-.297-.334-.162-.62-.368-.86-.618l.27-.41c.028-.037.06-.066.1-.09s.084-.035.13-.035c.064 0 .136.032.216.095s.178.136.295.217c.118.08.257.16.418.236s.355.128.582.155l.185-2.654c-.233-.07-.462-.15-.688-.238s-.428-.204-.606-.346-.32-.32-.43-.535-.162-.485-.162-.81c0-.242.05-.48.144-.71.095-.232.234-.44.417-.62.184-.18.41-.326.675-.44.267-.116.57-.18.915-.193l.05-.72c.004-.063.028-.12.073-.17.045-.05.104-.075.178-.075h.33l-.07.99c.35.042.655.132.91.27s.48.3.678.494l-.215.33c-.066.1-.143.15-.23.15-.046 0-.104-.02-.172-.063s-.15-.09-.244-.144c-.095-.056-.207-.11-.335-.166s-.273-.094-.437-.118l-.165 2.42c.24.073.477.153.71.24.233.087.443.198.63.335.187.138.338.31.453.514.116.206.173.46.173.77 0 .3-.05.58-.15.844-.1.264-.246.495-.438.695-.19.2-.427.36-.705.486s-.597.196-.953.216l-.06.88c-.003.063-.028.12-.075.167-.046.047-.105.07-.175.07h-.33l.075-1.127zm-.81-5.415c0 .16.028.3.085.417s.135.22.235.31.217.17.35.236c.133.067.278.127.435.18l.15-2.255c-.217.02-.404.064-.563.13s-.29.15-.39.25-.177.213-.228.338c-.05.124-.074.255-.074.392zm2.775 3.32c0-.167-.03-.31-.093-.43-.062-.12-.146-.224-.252-.31-.106-.087-.23-.162-.375-.225-.143-.063-.296-.122-.46-.175l-.17 2.49c.22-.02.414-.067.58-.143.167-.077.308-.17.422-.29.113-.116.2-.25.26-.407.057-.155.086-.325.086-.512zm6.295-4.74c0 .126-.04.23-.118.313s-.212.123-.402.123h-2.25l-.33 1.88c.19-.043.37-.074.538-.093.168-.018.333-.027.492-.027.374 0 .704.055.99.165s.526.262.717.455c.19.193.335.422.433.685s.147.55.147.86c0 .38-.065.724-.196 1.03-.132.307-.313.57-.545.787-.234.22-.506.386-.82.502-.313.117-.65.175-1.015.175-.21 0-.412-.02-.605-.063-.192-.042-.374-.098-.54-.167-.17-.07-.325-.15-.47-.24-.142-.09-.27-.185-.38-.285l.276-.38c.06-.086.138-.13.235-.13.07 0 .144.026.227.078s.185.11.305.172c.12.063.262.12.423.172.162.052.354.078.578.078.25 0 .476-.04.676-.12.2-.08.37-.194.514-.342.144-.148.254-.326.33-.533.078-.207.116-.438.116-.695 0-.223-.032-.425-.097-.605-.066-.18-.165-.333-.296-.46-.13-.126-.295-.225-.492-.295-.197-.07-.427-.105-.69-.105-.18 0-.368.015-.563.045-.196.03-.396.078-.6.145l-.56-.165.576-3.35h3.395v.39zm6.388 3.195c0 .627-.066 1.17-.202 1.627-.135.458-.32.837-.552 1.138-.233.3-.51.523-.828.67s-.66.22-1.022.22c-.367 0-.708-.074-1.022-.22s-.59-.37-.823-.67c-.23-.3-.415-.68-.55-1.138-.13-.458-.2-1-.2-1.627 0-.626.07-1.17.2-1.63s.318-.84.55-1.143.51-.526.825-.672c.315-.147.656-.22 1.022-.22.363 0 .704.073 1.022.22.317.146.593.37.827.672s.417.683.552 1.143c.135.46.202 1.003.202 1.63zm-.923 0c0-.546-.046-1.006-.138-1.377s-.217-.67-.37-.897c-.157-.227-.336-.39-.54-.487-.203-.1-.415-.148-.635-.148s-.432.05-.635.148c-.202.098-.38.26-.534.487s-.276.526-.368.897-.137.83-.137 1.377.047 1.005.14 1.375.213.668.367.895.332.39.535.488c.205.098.416.147.636.147s.432-.05.635-.147c.205-.1.384-.26.54-.488.154-.227.277-.525.37-.895s.137-.828.137-1.375zm1.76 2.965c0-.156.053-.29.16-.4.11-.11.254-.165.434-.165.1 0 .19.02.267.055s.14.087.192.152.09.14.117.225c.026.083.04.176.04.275 0 .15-.02.306-.063.468-.042.162-.104.322-.185.48s-.18.313-.298.462c-.116.15-.25.29-.4.415l-.15-.144c-.026-.023-.044-.045-.054-.065-.01-.02-.015-.043-.015-.073 0-.023.008-.046.023-.07s.032-.045.052-.065c.034-.036.076-.085.128-.146.05-.062.104-.133.157-.212.053-.08.103-.168.147-.265s.078-.2.098-.31H21.4c-.173 0-.314-.06-.423-.173-.106-.116-.16-.263-.16-.443zm7.263-2.965c0 .627-.066 1.17-.202 1.627-.135.458-.32.837-.552 1.138-.233.3-.51.523-.828.67s-.66.22-1.022.22c-.367 0-.708-.074-1.022-.22s-.59-.37-.823-.67c-.23-.3-.415-.68-.55-1.138-.13-.458-.2-1-.2-1.627 0-.626.07-1.17.2-1.63s.318-.84.55-1.143.51-.526.825-.672c.315-.147.656-.22 1.022-.22.363 0 .704.073 1.022.22.317.146.593.37.827.672s.417.683.552 1.143c.135.46.202 1.003.202 1.63zm-.924 0c0-.546-.046-1.006-.138-1.377s-.215-.67-.37-.897c-.155-.227-.334-.39-.538-.487-.203-.1-.415-.148-.635-.148s-.432.05-.635.148c-.203.098-.38.26-.535.487s-.276.526-.368.897-.137.83-.137 1.377.045 1.005.137 1.375.214.668.368.895.332.39.535.488c.204.098.415.147.635.147s.432-.05.635-.147c.204-.1.383-.26.538-.488.155-.227.278-.525.37-.895s.138-.828.138-1.375zm6.724 0c0 .627-.066 1.17-.202 1.627-.135.458-.32.837-.552 1.138-.233.3-.51.523-.828.67s-.66.22-1.022.22c-.367 0-.708-.074-1.022-.22s-.59-.37-.823-.67c-.23-.3-.415-.68-.55-1.138-.13-.458-.2-1-.2-1.627 0-.626.07-1.17.2-1.63s.318-.84.55-1.143.51-.526.825-.672c.315-.147.656-.22 1.022-.22.363 0 .704.073 1.022.22.317.146.593.37.827.672s.417.683.552 1.143c.134.46.202 1.003.202 1.63zm-.924 0c0-.546-.046-1.006-.138-1.377s-.215-.67-.37-.897c-.155-.227-.334-.39-.538-.487-.203-.1-.415-.148-.635-.148s-.432.05-.635.148c-.203.098-.38.26-.535.487s-.276.526-.368.897-.137.83-.137 1.377.045 1.005.137 1.375.214.668.368.895.332.39.535.488c.204.098.415.147.635.147s.432-.05.635-.147c.204-.1.383-.26.538-.488.155-.227.278-.525.37-.895s.138-.828.138-1.375zm6.724 0c0 .627-.066 1.17-.202 1.627-.135.458-.32.837-.552 1.138-.233.3-.51.523-.828.67s-.66.22-1.022.22c-.367 0-.708-.074-1.022-.22s-.59-.37-.823-.67c-.23-.3-.415-.68-.55-1.138-.13-.458-.2-1-.2-1.627 0-.626.07-1.17.2-1.63s.318-.84.55-1.143.51-.526.825-.672c.315-.147.656-.22 1.022-.22.363 0 .704.073 1.022.22.317.146.593.37.827.672s.417.683.552 1.143c.134.46.202 1.003.202 1.63zm-.924 0c0-.546-.046-1.006-.138-1.377s-.215-.67-.37-.897c-.155-.227-.334-.39-.538-.487-.203-.1-.415-.148-.635-.148s-.432.05-.635.148c-.203.098-.38.26-.535.487s-.276.526-.368.897-.137.83-.137 1.377.045 1.005.137 1.375.214.668.368.895.332.39.535.488c.204.098.415.147.635.147s.432-.05.635-.147c.204-.1.383-.26.538-.488.155-.227.278-.525.37-.895s.138-.828.138-1.375zM5.332 16.723c-.403-.037-.77-.136-1.103-.297-.334-.162-.62-.368-.86-.618l.27-.41c.028-.037.06-.066.1-.09s.084-.035.13-.035c.064 0 .136.032.216.095s.178.136.295.217c.118.082.257.16.418.238s.355.128.582.155l.185-2.655c-.233-.07-.462-.15-.688-.238s-.428-.203-.606-.345-.32-.32-.43-.535-.162-.484-.162-.808c0-.243.05-.48.144-.712.095-.23.234-.438.417-.618.184-.18.41-.327.676-.442.267-.115.57-.18.915-.192l.05-.72c.004-.063.028-.12.073-.17.046-.05.105-.075.178-.075h.33l-.07.99c.35.043.654.133.91.27s.48.302.677.495l-.215.33c-.066.1-.143.15-.23.15-.046 0-.104-.02-.172-.063s-.15-.09-.244-.145c-.095-.055-.207-.11-.335-.165s-.272-.094-.436-.118l-.165 2.42c.24.073.476.153.71.24.232.087.442.198.63.335s.337.308.452.513c.116.205.173.46.173.768 0 .3-.05.582-.15.845-.1.264-.246.495-.438.695-.19.2-.427.362-.705.487s-.596.197-.952.217l-.06.88c-.003.063-.028.12-.075.167-.046.046-.105.07-.175.07h-.33l.074-1.128zm-.81-5.415c0 .16.028.3.085.417s.135.223.235.313.217.168.35.235c.133.067.278.127.435.18l.15-2.255c-.217.02-.404.063-.563.13s-.29.15-.39.25-.177.212-.228.337c-.05.125-.074.256-.074.393zm2.775 3.32c0-.168-.03-.31-.093-.43-.062-.12-.146-.225-.252-.31-.106-.088-.23-.163-.375-.226-.143-.063-.296-.122-.46-.175l-.17 2.49c.22-.02.414-.067.58-.143.167-.075.308-.17.422-.288.113-.116.2-.252.26-.407.057-.156.086-.327.086-.514zm3.755-2.445c-.067.08-.128.158-.185.235s-.113.152-.17.225c.17-.117.357-.208.563-.272s.427-.096.667-.096c.29 0 .563.048.82.143.257.095.48.233.672.415.19.183.342.406.456.67s.17.568.17.91c0 .33-.06.636-.18.92s-.288.53-.502.74c-.215.21-.474.374-.775.494-.303.12-.635.18-1 .18-.36 0-.686-.058-.98-.172-.292-.115-.54-.278-.747-.49-.205-.21-.363-.468-.475-.77s-.168-.64-.168-1.013c0-.313.07-.647.208-1.002s.36-.734.663-1.137l1.82-2.444c.048-.06.11-.11.193-.152.082-.042.176-.063.283-.063h.79l-2.126 2.684zm-.975 2.27c0 .23.033.44.1.63.066.19.164.354.292.49s.283.242.47.317.394.112.63.112c.24 0 .46-.038.653-.115s.362-.184.5-.32.245-.298.32-.485c.075-.187.113-.39.113-.61 0-.233-.037-.444-.11-.632-.074-.188-.178-.35-.313-.48s-.296-.232-.483-.302c-.186-.07-.39-.105-.614-.105-.24 0-.457.04-.65.123-.193.082-.358.19-.493.33-.135.138-.238.298-.31.48s-.106.37-.106.567zm9.903-1.37c0 .627-.066 1.17-.202 1.627-.135.458-.32.837-.552 1.138-.233.3-.51.523-.828.67s-.66.22-1.022.22c-.367 0-.708-.074-1.022-.22s-.59-.37-.823-.67c-.23-.3-.415-.68-.55-1.138-.13-.458-.2-1-.2-1.627 0-.626.07-1.17.2-1.63s.318-.84.55-1.143.51-.526.825-.672c.315-.147.656-.22 1.022-.22.363 0 .704.073 1.022.22.317.146.593.37.827.672s.417.683.552 1.143c.135.46.202 1.003.202 1.63zm-.923 0c0-.546-.046-1.006-.138-1.377s-.217-.67-.37-.897c-.157-.23-.336-.39-.54-.49-.203-.1-.415-.147-.635-.147s-.432.05-.635.148c-.202.1-.38.26-.534.488s-.276.525-.368.896-.137.83-.137 1.377.047 1.006.14 1.376.213.668.367.895.332.39.535.49c.205.1.416.147.636.147s.432-.05.635-.147c.205-.098.384-.26.54-.487.154-.227.277-.525.37-.895s.137-.83.137-1.375zm1.76 2.964c0-.156.053-.29.16-.4.11-.11.254-.165.434-.165.1 0 .19.02.267.055s.14.087.192.152.09.14.117.223c.026.085.04.178.04.277 0 .15-.02.307-.063.47-.042.16-.104.32-.185.48s-.18.312-.298.46c-.116.15-.25.29-.4.416l-.15-.145c-.026-.02-.044-.043-.054-.063-.01-.02-.015-.045-.015-.075 0-.022.008-.045.023-.07s.032-.044.052-.064c.034-.037.076-.086.128-.147.05-.062.104-.133.157-.212.053-.08.103-.168.147-.265s.078-.2.098-.31H21.4c-.173 0-.314-.058-.423-.172-.106-.114-.16-.26-.16-.442zm7.263-2.964c0 .627-.066 1.17-.202 1.627-.135.458-.32.837-.552 1.138-.233.3-.51.523-.828.67s-.66.22-1.022.22c-.367 0-.708-.074-1.022-.22s-.59-.37-.823-.67c-.23-.3-.415-.68-.55-1.138-.13-.458-.2-1-.2-1.627 0-.626.07-1.17.2-1.63s.318-.84.55-1.143.51-.526.825-.672c.315-.147.656-.22 1.022-.22.363 0 .704.073 1.022.22.317.146.593.37.827.672s.417.683.552 1.143c.135.46.202 1.003.202 1.63zm-.924 0c0-.546-.046-1.006-.138-1.377s-.215-.67-.37-.897c-.155-.23-.334-.39-.538-.49-.203-.1-.415-.147-.635-.147s-.432.05-.635.148c-.203.1-.38.26-.535.488s-.276.525-.368.896-.137.83-.137 1.377.045 1.006.137 1.376.214.668.368.895.332.39.535.49c.204.1.415.147.635.147s.432-.05.635-.147c.204-.098.383-.26.538-.487.155-.227.278-.525.37-.895s.138-.83.138-1.375zm6.724 0c0 .627-.066 1.17-.202 1.627-.135.458-.32.837-.552 1.138-.233.3-.51.523-.828.67s-.66.22-1.022.22c-.367 0-.708-.074-1.022-.22s-.59-.37-.823-.67c-.23-.3-.415-.68-.55-1.138-.13-.458-.2-1-.2-1.627 0-.626.07-1.17.2-1.63s.318-.84.55-1.143.51-.526.825-.672c.315-.147.656-.22 1.022-.22.363 0 .704.073 1.022.22.317.146.593.37.827.672s.417.683.552 1.143c.134.46.202 1.003.202 1.63zm-.924 0c0-.546-.046-1.006-.138-1.377s-.215-.67-.37-.897c-.155-.23-.334-.39-.538-.49-.203-.1-.415-.147-.635-.147s-.432.05-.635.148c-.203.1-.38.26-.535.488s-.276.525-.368.896-.137.83-.137 1.377.045 1.006.137 1.376.214.668.368.895.332.39.535.49c.204.1.415.147.635.147s.432-.05.635-.147c.204-.098.383-.26.538-.487.155-.227.278-.525.37-.895s.138-.83.138-1.375zm6.724 0c0 .627-.066 1.17-.202 1.627-.135.458-.32.837-.552 1.138-.233.3-.51.523-.828.67s-.66.22-1.022.22c-.367 0-.708-.074-1.022-.22s-.59-.37-.823-.67c-.23-.3-.415-.68-.55-1.138-.13-.458-.2-1-.2-1.627 0-.626.07-1.17.2-1.63s.318-.84.55-1.143.51-.526.825-.672c.315-.147.656-.22 1.022-.22.363 0 .704.073 1.022.22.317.146.593.37.827.672s.417.683.552 1.143c.134.46.202 1.003.202 1.63zm-.924 0c0-.546-.046-1.006-.138-1.377s-.215-.67-.37-.897c-.155-.23-.334-.39-.538-.49-.203-.1-.415-.147-.635-.147s-.432.05-.635.148c-.203.1-.38.26-.535.488s-.276.525-.368.896-.137.83-.137 1.377.045 1.006.137 1.376.214.668.368.895.332.39.535.49c.204.1.415.147.635.147s.432-.05.635-.147c.204-.098.383-.26.538-.487.155-.227.278-.525.37-.895s.138-.83.138-1.375zM36.84 249.85h1.536v-4.885c0-.14.005-.288.015-.444l-1.273 1.097c-.043.037-.086.06-.13.067-.043.01-.083.01-.12.003s-.07-.02-.103-.04c-.032-.02-.056-.042-.072-.065l-.28-.384 2.136-1.845h.725v6.5h1.41v.68h-3.84v-.68zm8.046-2.175c.073-.096.142-.188.205-.274.065-.085.125-.172.18-.26-.18.148-.39.26-.62.337-.23.076-.47.114-.73.114-.27 0-.524-.044-.765-.134-.242-.09-.455-.223-.638-.397-.184-.176-.33-.39-.438-.646s-.164-.548-.164-.878c0-.313.06-.606.175-.88.117-.273.28-.512.49-.715s.46-.362.75-.48c.29-.115.61-.174.956-.174.343 0 .655.057.935.17.28.113.52.27.72.476.2.204.355.447.464.73.108.283.162.597.162.94 0 .206-.02.402-.057.587-.04.185-.095.366-.166.544-.072.18-.16.355-.263.53s-.22.354-.35.537l-1.744 2.52c-.043.064-.105.115-.185.153s-.17.058-.274.058h-.82l2.18-2.854zm.824-2.18c0-.223-.036-.426-.107-.607s-.17-.336-.297-.463c-.127-.126-.277-.224-.453-.292-.175-.068-.367-.103-.578-.103-.22 0-.42.036-.6.107-.18.072-.335.17-.465.298-.13.126-.23.278-.3.455s-.105.37-.105.58c0 .227.032.43.098.607.065.178.158.33.28.452s.27.215.445.28c.175.06.37.093.588.093.24 0 .452-.04.637-.117s.34-.183.468-.313.225-.28.29-.45c.068-.17.1-.345.1-.53zm3.85.555c-.066.08-.127.16-.184.235l-.17.226c.17-.115.357-.206.563-.27.203-.065.425-.098.665-.098.29 0 .563.048.82.144.257.095.48.233.672.415.192.18.344.404.458.67.113.265.17.567.17.907 0 .33-.06.637-.18.92s-.288.53-.502.74c-.215.21-.474.375-.775.495-.303.12-.635.18-1 .18-.36 0-.686-.057-.98-.172-.292-.114-.54-.278-.747-.49-.204-.21-.362-.468-.474-.77s-.167-.64-.167-1.013c0-.313.07-.647.21-1.002.136-.355.357-.734.66-1.138l1.82-2.445c.048-.06.11-.11.193-.152s.176-.063.283-.063h.79l-2.126 2.685zm-.975 2.27c0 .23.033.44.1.63.066.19.164.354.292.49s.285.242.47.317.396.112.633.112c.24 0 .458-.04.652-.117.195-.076.362-.183.5-.32s.245-.298.32-.484c.075-.188.113-.39.113-.61 0-.233-.037-.444-.11-.633-.074-.188-.178-.35-.313-.48-.135-.132-.296-.232-.483-.303-.19-.07-.394-.104-.617-.104-.24 0-.457.042-.65.123-.193.082-.358.192-.493.33-.134.14-.237.3-.31.48s-.105.37-.105.567zm7.9-.645c.073-.096.142-.188.205-.274.063-.085.123-.172.18-.26-.183.148-.39.26-.62.337-.23.076-.473.114-.73.114-.27 0-.526-.044-.767-.134-.242-.09-.455-.223-.638-.397-.184-.176-.33-.39-.438-.646s-.163-.548-.163-.878c0-.313.06-.606.175-.88.114-.273.28-.512.49-.715s.46-.362.75-.48c.29-.115.606-.174.953-.174.343 0 .655.057.935.17.28.113.52.27.72.476.2.204.353.447.462.73.108.283.162.597.162.94 0 .206-.02.402-.057.587-.04.185-.094.366-.165.544-.072.18-.16.355-.263.53s-.22.354-.35.537l-1.746 2.52c-.042.064-.104.115-.184.153s-.173.058-.276.058h-.82l2.18-2.854zm.825-2.18c0-.223-.036-.426-.107-.607s-.17-.336-.297-.463c-.127-.126-.277-.224-.453-.292-.175-.068-.367-.103-.578-.103-.22 0-.42.036-.6.107-.18.072-.335.17-.465.298-.13.126-.23.278-.3.455s-.105.37-.105.58c0 .227.032.43.098.607.065.178.158.33.28.452s.27.215.445.28c.175.06.37.093.588.093.24 0 .452-.04.637-.117s.34-.183.468-.313.225-.28.29-.45c.068-.17.1-.345.1-.53zM94.363 249.85h1.535v-4.885c0-.14.005-.288.015-.444l-1.275 1.097c-.043.037-.086.06-.13.067-.043.01-.083.01-.12.003s-.07-.02-.103-.04c-.032-.02-.056-.042-.072-.065l-.28-.384 2.135-1.845h.725v6.5h1.41v.68h-3.84v-.68zm8.045-2.175c.073-.096.142-.188.205-.274.063-.085.123-.172.18-.26-.183.148-.39.26-.62.337-.23.076-.473.114-.73.114-.27 0-.526-.044-.767-.134-.242-.09-.455-.223-.638-.397-.184-.176-.33-.39-.438-.646s-.163-.548-.163-.878c0-.313.06-.606.175-.88.116-.273.28-.512.49-.715s.46-.362.75-.48c.29-.115.608-.174.955-.174.343 0 .655.057.935.17.28.113.52.27.72.476.2.204.354.447.463.73.108.283.162.597.162.94 0 .206-.02.402-.057.587-.04.185-.094.366-.165.544-.072.18-.16.355-.263.53s-.22.354-.35.537l-1.745 2.52c-.043.064-.105.115-.185.153s-.172.058-.275.058h-.82l2.18-2.854zm.824-2.18c0-.223-.036-.426-.107-.607s-.17-.336-.297-.463c-.127-.126-.277-.224-.453-.292-.175-.068-.367-.103-.578-.103-.22 0-.42.036-.6.107-.18.072-.335.17-.465.298-.13.126-.23.278-.3.455s-.105.37-.105.58c0 .227.032.43.098.607.065.178.158.33.28.452s.27.215.445.28c.175.06.37.093.588.093.24 0 .452-.04.637-.117s.34-.183.468-.313c.126-.13.223-.28.29-.45.066-.17.1-.345.1-.53zm6.885-2.13v.4c0 .113-.012.206-.037.28-.025.072-.05.135-.073.185l-2.97 5.984c-.043.087-.104.16-.18.223s-.178.093-.305.093h-.64l3.01-5.91c.043-.083.087-.16.132-.23.045-.07.096-.136.153-.2h-3.74c-.057 0-.106-.02-.15-.066s-.065-.096-.065-.152v-.605h4.865zm4.825 4.58h1.085v.51c0 .054-.016.1-.048.135-.034.037-.083.056-.15.056h-.89v1.885h-.78v-1.883h-3.18c-.066 0-.124-.02-.172-.058s-.08-.087-.093-.144l-.09-.455 3.485-4.624h.83v4.58zm-.78-2.955c0-.087.002-.18.008-.282.005-.102.016-.206.032-.313l-2.61 3.55h2.57v-2.955zM151.885 249.85h1.535v-4.885c0-.14.005-.288.015-.444l-1.275 1.097c-.043.037-.086.06-.13.067-.043.01-.083.01-.12.003s-.07-.02-.103-.04c-.032-.02-.056-.042-.072-.065l-.28-.384 2.135-1.845h.725v6.5h1.41v.68h-3.84v-.68zm8.045-2.175c.073-.096.142-.188.205-.274.063-.085.123-.172.18-.26-.183.148-.39.26-.62.337-.23.076-.473.114-.73.114-.27 0-.526-.044-.767-.134-.242-.09-.455-.223-.638-.397-.184-.176-.33-.39-.438-.646s-.163-.548-.163-.878c0-.313.057-.606.173-.88.116-.273.28-.512.49-.715s.46-.362.75-.48c.29-.115.608-.174.955-.174.342 0 .654.057.934.17.28.113.52.27.72.476.2.204.354.447.463.73.108.283.162.597.162.94 0 .206-.02.402-.058.587-.04.185-.095.366-.166.544-.072.18-.16.355-.263.53s-.22.354-.35.537l-1.744 2.52c-.044.064-.106.115-.186.153s-.172.058-.275.058h-.82l2.18-2.854zm.825-2.18c0-.223-.036-.426-.107-.607s-.17-.336-.297-.463c-.125-.126-.275-.224-.45-.292-.176-.068-.368-.103-.58-.103-.22 0-.42.036-.6.107-.18.072-.334.17-.464.298-.13.126-.23.278-.3.455s-.105.37-.105.58c0 .227.033.43.1.607.064.178.157.33.28.452s.27.215.444.28c.175.06.37.093.588.093.24 0 .453-.04.638-.117s.34-.183.468-.313c.126-.13.223-.28.29-.45.066-.17.1-.345.1-.53zm6.885-2.13v.4c0 .113-.012.206-.037.28-.025.072-.05.135-.073.185l-2.97 5.984c-.043.087-.104.16-.18.223s-.178.093-.305.093h-.64l3.01-5.91c.043-.083.087-.16.132-.23.045-.07.096-.136.153-.2h-3.74c-.057 0-.106-.02-.15-.066s-.065-.096-.065-.152v-.605h4.865zm3.89 4.31c.073-.096.142-.188.205-.274.063-.085.123-.172.18-.26-.183.148-.39.26-.62.337-.23.076-.473.114-.73.114-.27 0-.526-.044-.767-.134-.242-.09-.455-.223-.638-.397-.184-.176-.33-.39-.438-.646s-.163-.548-.163-.878c0-.313.057-.606.173-.88.116-.273.28-.512.49-.715s.46-.362.75-.48c.29-.115.608-.174.955-.174.342 0 .654.057.934.17.28.113.52.27.72.476.2.204.354.447.463.73.108.283.162.597.162.94 0 .206-.02.402-.058.587-.04.185-.095.366-.166.544-.072.18-.16.355-.263.53s-.22.354-.35.537l-1.744 2.52c-.044.064-.106.115-.186.153s-.172.058-.275.058h-.82l2.18-2.854zm.824-2.18c0-.223-.036-.426-.107-.607s-.17-.336-.297-.463c-.127-.126-.277-.224-.453-.292-.175-.068-.367-.103-.578-.103-.22 0-.42.036-.6.107-.18.072-.337.17-.467.298-.13.126-.23.278-.3.455s-.105.37-.105.58c0 .227.03.43.097.607.065.178.158.33.28.452s.27.215.445.28c.175.06.37.093.588.093.24 0 .452-.04.637-.117s.34-.183.468-.313c.126-.13.223-.28.29-.45.066-.17.1-.345.1-.53zM209.407 249.85h1.535v-4.885c0-.14.005-.288.015-.444l-1.275 1.097c-.043.037-.086.06-.13.067-.043.01-.083.01-.12.003s-.07-.02-.103-.04c-.034-.02-.058-.042-.074-.065l-.28-.384 2.135-1.845h.726v6.5h1.41v.68h-3.84v-.68zm8.045-2.175c.073-.096.142-.188.205-.274.063-.085.123-.172.18-.26-.183.148-.39.26-.62.337-.23.076-.473.114-.73.114-.27 0-.526-.044-.767-.134-.242-.09-.455-.223-.638-.397-.184-.176-.33-.39-.438-.646s-.163-.548-.163-.878c0-.313.06-.606.177-.88.116-.273.28-.512.49-.715s.46-.362.75-.48c.29-.115.608-.174.955-.174.344 0 .656.057.936.17.28.113.52.27.72.476.2.204.354.447.463.73.108.283.16.597.16.94 0 .206-.017.402-.055.587-.04.185-.094.366-.165.544-.073.18-.16.355-.264.53s-.22.354-.35.537l-1.745 2.52c-.04.064-.103.115-.183.153s-.172.058-.275.058h-.82l2.182-2.854zm.825-2.18c0-.223-.036-.426-.107-.607s-.17-.336-.297-.463c-.127-.126-.277-.224-.453-.292-.175-.068-.367-.103-.578-.103-.22 0-.42.036-.6.107-.18.072-.335.17-.465.298-.13.126-.23.278-.3.455s-.105.37-.105.58c0 .227.032.43.098.607.065.178.158.33.28.452s.27.215.445.28c.175.06.37.093.588.093.24 0 .452-.04.637-.117s.34-.183.468-.313c.126-.13.223-.28.29-.45.066-.17.1-.345.1-.53zm4.38 5.115c-.356 0-.683-.048-.98-.143s-.552-.23-.765-.407-.378-.39-.495-.643-.175-.534-.175-.848c0-.46.12-.84.36-1.14.24-.298.583-.51 1.03-.638-.377-.14-.66-.35-.853-.627s-.29-.61-.29-.998c0-.263.052-.51.155-.74.103-.23.25-.43.44-.6s.417-.303.683-.4c.264-.096.56-.145.886-.145.323 0 .618.05.885.146.267.096.495.228.685.398.19.17.336.37.44.6.103.23.155.478.155.74 0 .387-.096.72-.29.998s-.476.487-.85.627c.448.128.79.34 1.03.64s.36.68.36 1.14c0 .31-.058.594-.176.846-.12.252-.284.466-.495.643-.214.176-.468.312-.765.406-.296.096-.622.143-.98.143zm0-.71c.233 0 .442-.032.627-.098s.342-.156.47-.275c.128-.118.227-.26.295-.425s.1-.348.1-.547c0-.247-.04-.458-.122-.633s-.193-.317-.33-.428c-.14-.11-.298-.19-.48-.242-.18-.052-.367-.078-.564-.078s-.385.026-.565.078-.34.133-.478.242c-.138.11-.248.253-.33.428-.082.175-.123.386-.123.633 0 .2.033.382.102.547s.167.307.295.425c.128.12.285.21.47.275s.395.098.63.098zm0-3.44c.233 0 .433-.035.598-.107.165-.07.3-.166.402-.285.104-.118.178-.254.225-.407s.07-.31.07-.473c0-.167-.027-.323-.083-.47-.057-.147-.14-.275-.247-.386-.108-.11-.244-.195-.405-.26s-.35-.094-.564-.094-.4.03-.563.095-.295.15-.404.26c-.108.11-.19.24-.245.386-.054.147-.082.304-.082.47 0 .164.023.322.07.476.047.154.122.29.225.408.104.12.238.214.403.285.166.072.365.107.6.107zm7.33 1.485h1.085v.51c0 .054-.016.1-.048.135-.032.037-.08.056-.147.056h-.89v1.885h-.78v-1.883h-3.18c-.067 0-.125-.02-.173-.058s-.08-.087-.092-.144l-.09-.455 3.485-4.624h.83v4.58zm-.78-2.955c0-.087.002-.18.008-.282.005-.102.016-.206.032-.313l-2.61 3.55h2.57v-2.955zM266.93 249.85h1.535v-4.885c0-.14.005-.288.015-.444l-1.275 1.097c-.043.037-.086.06-.13.067-.043.01-.083.01-.12.003s-.07-.02-.103-.04c-.032-.02-.056-.042-.072-.065l-.28-.384 2.135-1.845h.725v6.5h1.41v.68h-3.84v-.68zm8.045-2.175c.073-.096.142-.188.205-.274.063-.085.123-.172.18-.26-.183.148-.39.26-.62.337-.23.076-.473.114-.73.114-.27 0-.526-.044-.767-.134-.242-.09-.455-.223-.638-.397-.184-.176-.33-.39-.438-.646s-.163-.548-.163-.878c0-.313.06-.606.175-.88.114-.273.28-.512.49-.715s.46-.362.75-.48c.29-.115.606-.174.953-.174.343 0 .655.057.935.17.28.113.52.27.72.476.2.204.353.447.462.73.108.283.162.597.162.94 0 .206-.02.402-.057.587-.04.185-.094.366-.165.544-.072.18-.16.355-.263.53s-.22.354-.35.537l-1.746 2.52c-.042.064-.104.115-.184.153s-.173.058-.276.058h-.82l2.18-2.854zm.824-2.18c0-.223-.038-.426-.11-.607s-.17-.336-.296-.463c-.127-.126-.277-.224-.453-.292-.174-.068-.366-.103-.577-.103-.22 0-.42.036-.6.107-.18.072-.335.17-.465.298-.13.126-.23.278-.3.455s-.106.37-.106.58c0 .227.032.43.098.607.065.178.158.33.28.452s.27.215.445.28c.175.06.37.093.588.093.24 0 .452-.04.637-.117s.34-.183.468-.313c.126-.13.223-.28.29-.45.066-.17.1-.345.1-.53zm4.38 5.115c-.357 0-.684-.048-.98-.143s-.552-.23-.765-.407-.378-.39-.495-.643-.175-.534-.175-.848c0-.46.12-.84.36-1.14.24-.298.583-.51 1.03-.638-.377-.14-.66-.35-.853-.627s-.288-.61-.288-.998c0-.263.052-.51.155-.74.1-.23.25-.43.44-.6s.415-.303.68-.4c.266-.096.56-.145.89-.145.322 0 .617.05.884.146s.495.228.685.398c.19.17.336.37.44.6.103.23.154.478.154.74 0 .387-.097.72-.29.998s-.478.487-.85.627c.446.128.79.34 1.03.64s.36.68.36 1.14c0 .31-.06.594-.18.846s-.282.466-.494.643-.465.312-.762.406-.622.143-.978.143zm0-.71c.232 0 .442-.032.627-.098.186-.065.342-.156.47-.275.13-.118.228-.26.296-.425.067-.165.102-.348.102-.547 0-.247-.04-.458-.122-.633s-.19-.317-.33-.428c-.14-.11-.298-.19-.478-.242s-.368-.078-.564-.078c-.195 0-.383.026-.563.078-.18.052-.34.133-.478.242-.14.11-.25.253-.33.428-.083.175-.124.386-.124.633 0 .2.034.382.103.547s.166.307.294.425c.128.12.285.21.47.275.183.066.392.098.627.098zm0-3.44c.232 0 .432-.035.597-.107.165-.07.3-.166.403-.285.103-.118.178-.254.225-.407s.07-.31.07-.473c0-.167-.027-.323-.083-.47-.055-.147-.137-.275-.245-.386-.108-.11-.243-.195-.404-.26-.162-.062-.35-.094-.563-.094-.214 0-.4.03-.563.095-.162.064-.297.15-.405.26-.108.11-.19.24-.245.386-.055.147-.083.304-.083.47 0 .164.023.322.07.476.047.154.122.29.225.408.102.12.236.214.4.285.165.072.364.107.6.107zm6.394 1.215c.073-.096.142-.188.205-.274s.12-.172.18-.26c-.186.148-.39.26-.62.337-.23.076-.475.114-.73.114-.27 0-.527-.044-.77-.134-.24-.09-.453-.223-.637-.397s-.33-.39-.438-.646-.162-.548-.162-.878c0-.313.058-.606.175-.88.115-.273.28-.512.49-.715s.46-.362.75-.48c.29-.115.606-.174.953-.174.345 0 .656.057.937.17s.52.27.72.476c.2.204.353.447.462.73s.16.597.16.94c0 .206-.02.402-.057.587-.038.185-.093.366-.165.544-.07.18-.158.355-.26.53-.105.175-.222.354-.352.537l-1.745 2.52c-.042.064-.103.115-.184.153s-.172.058-.275.058h-.82l2.18-2.854zm.825-2.18c0-.223-.038-.426-.11-.607-.07-.182-.17-.336-.297-.463-.127-.126-.277-.224-.452-.292-.175-.068-.367-.103-.577-.103-.22 0-.42.036-.6.107-.18.072-.335.17-.465.298-.13.126-.23.278-.302.455-.07.177-.104.37-.104.58 0 .227.032.43.098.607.064.178.158.33.28.452.12.12.27.215.444.28s.37.093.588.093c.24 0 .452-.04.638-.117.185-.078.34-.183.467-.313.126-.13.223-.28.29-.45.066-.17.1-.345.1-.53zM324.445 249.85h1.535v-4.885c0-.14.005-.288.015-.444l-1.274 1.097c-.042.037-.085.06-.13.067-.042.01-.082.01-.12.003-.035-.007-.07-.02-.1-.04-.033-.02-.058-.042-.074-.065l-.28-.384 2.136-1.845h.726v6.5h1.41v.68h-3.84v-.68zm8.045-2.175c.073-.096.142-.188.205-.274s.123-.172.18-.26c-.184.148-.39.26-.62.337-.23.076-.473.114-.73.114-.27 0-.525-.044-.767-.134-.242-.09-.454-.223-.638-.397s-.33-.39-.438-.646-.162-.548-.162-.878c0-.313.058-.606.175-.88.116-.273.28-.512.49-.715s.46-.362.75-.48c.29-.115.607-.174.954-.174.342 0 .653.057.934.17s.52.27.72.476c.2.204.354.447.463.73s.162.597.162.94c0 .206-.02.402-.06.587-.037.185-.092.366-.164.544-.07.18-.16.355-.262.53-.104.175-.22.354-.35.537l-1.746 2.52c-.044.064-.105.115-.186.153s-.172.058-.275.058h-.82l2.18-2.854zm.825-2.18c0-.223-.036-.426-.107-.607-.072-.182-.17-.336-.298-.463-.127-.126-.277-.224-.452-.292-.176-.068-.368-.103-.578-.103-.22 0-.42.036-.6.107-.18.072-.335.17-.465.298-.13.126-.23.278-.3.455-.07.177-.105.37-.105.58 0 .227.032.43.098.607.064.178.158.33.28.452.12.12.27.215.444.28s.37.093.588.093c.24 0 .452-.04.638-.117.185-.078.34-.183.467-.313s.224-.28.29-.45c.067-.17.1-.345.1-.53zm4.975 2.18c.073-.096.142-.188.205-.274s.123-.172.18-.26c-.184.148-.39.26-.62.337-.23.076-.473.114-.73.114-.27 0-.525-.044-.767-.134-.242-.09-.454-.223-.638-.397s-.33-.39-.438-.646-.162-.548-.162-.878c0-.313.058-.606.175-.88.116-.273.28-.512.49-.715s.46-.362.75-.48c.29-.115.607-.174.954-.174.342 0 .653.057.934.17s.52.27.72.476c.2.204.354.447.463.73s.162.597.162.94c0 .206-.02.402-.06.587-.037.185-.092.366-.164.544-.07.18-.16.355-.262.53-.104.175-.22.354-.35.537l-1.746 2.52c-.044.064-.105.115-.186.153s-.172.058-.275.058h-.82l2.18-2.854zm.825-2.18c0-.223-.036-.426-.107-.607-.072-.182-.17-.336-.298-.463-.127-.126-.277-.224-.452-.292-.176-.068-.368-.103-.578-.103-.22 0-.42.036-.6.107-.18.072-.335.17-.465.298-.13.126-.23.278-.3.455-.07.177-.105.37-.105.58 0 .227.032.43.098.607.064.178.158.33.28.452.12.12.27.215.444.28s.37.093.588.093c.24 0 .452-.04.638-.117.185-.078.34-.183.467-.313s.224-.28.29-.45c.067-.17.1-.345.1-.53zm5.91 2.45h1.084v.51c0 .054-.018.1-.05.135-.03.037-.08.056-.146.056h-.89v1.885h-.78v-1.883h-3.18c-.067 0-.125-.02-.173-.058-.05-.04-.08-.087-.092-.144l-.09-.455 3.483-4.624h.83v4.58zm-.78-2.955c0-.087.002-.18.007-.282s.016-.206.033-.313l-2.61 3.55h2.57v-2.955zM381.968 249.85h1.535v-4.885c0-.14.005-.288.015-.444l-1.274 1.097c-.044.037-.087.06-.13.067-.044.01-.084.01-.12.003-.037-.007-.07-.02-.103-.04-.03-.02-.055-.042-.07-.065l-.28-.384 2.135-1.845h.725v6.5h1.41v.68h-3.84v-.68zm8.045-2.175c.073-.096.142-.188.205-.274s.123-.172.18-.26c-.184.148-.39.26-.62.337-.23.076-.473.114-.73.114-.27 0-.525-.044-.767-.134-.24-.09-.452-.223-.636-.397s-.33-.39-.438-.646-.162-.548-.162-.878c0-.313.058-.606.175-.88.115-.273.28-.512.49-.715s.46-.362.75-.48c.29-.115.606-.174.953-.174.344 0 .655.057.936.17s.52.27.72.476c.2.204.353.447.462.73s.163.597.163.94c0 .206-.02.402-.058.587-.038.185-.093.366-.165.544-.07.18-.16.355-.262.53-.104.175-.22.354-.35.537l-1.746 2.52c-.043.064-.104.115-.185.153s-.173.058-.276.058h-.82l2.18-2.854zm.825-2.18c0-.223-.036-.426-.107-.607-.07-.182-.17-.336-.296-.463-.127-.126-.277-.224-.452-.292-.175-.068-.367-.103-.577-.103-.22 0-.42.036-.6.107-.18.072-.335.17-.465.298-.13.126-.23.278-.3.455-.07.177-.105.37-.105.58 0 .227.032.43.098.607.065.178.16.33.28.452.122.12.27.215.445.28s.37.093.588.093c.24 0 .452-.04.638-.117.186-.078.342-.183.468-.313.127-.13.224-.28.29-.45.067-.17.1-.345.1-.53zm4.975 2.18c.073-.096.142-.188.205-.274s.123-.172.18-.26c-.184.148-.39.26-.62.337-.23.076-.473.114-.73.114-.27 0-.525-.044-.767-.134-.24-.09-.452-.223-.636-.397s-.33-.39-.438-.646-.162-.548-.162-.878c0-.313.058-.606.175-.88.115-.273.28-.512.49-.715s.46-.362.75-.48c.29-.115.606-.174.953-.174.344 0 .655.057.936.17s.52.27.72.476c.2.204.353.447.462.73s.163.597.163.94c0 .206-.02.402-.058.587-.038.185-.093.366-.165.544-.07.18-.16.355-.262.53-.104.175-.22.354-.35.537l-1.746 2.52c-.043.064-.104.115-.185.153s-.173.058-.276.058h-.82l2.18-2.854zm.825-2.18c0-.223-.036-.426-.107-.607-.07-.182-.17-.336-.296-.463-.127-.126-.277-.224-.452-.292-.175-.068-.367-.103-.577-.103-.22 0-.42.036-.6.107-.18.072-.335.17-.465.298-.13.126-.23.278-.3.455-.07.177-.105.37-.105.58 0 .227.032.43.098.607.065.178.16.33.28.452.122.12.27.215.445.28s.37.093.588.093c.24 0 .452-.04.638-.117.186-.078.342-.183.468-.313.127-.13.224-.28.29-.45.066-.17.1-.345.1-.53zm4.974 2.18c.073-.096.142-.188.205-.274s.123-.172.18-.26c-.184.148-.39.26-.62.337-.23.076-.473.114-.73.114-.27 0-.525-.044-.767-.134-.242-.09-.454-.223-.638-.397s-.33-.39-.438-.646-.162-.548-.162-.878c0-.313.058-.606.175-.88.116-.273.28-.512.49-.715s.46-.362.75-.48c.29-.115.607-.174.954-.174.346 0 .657.057.938.17s.52.27.72.476c.2.204.354.447.463.73s.163.597.163.94c0 .206-.02.402-.058.587-.038.185-.093.366-.165.544-.072.18-.16.355-.263.53-.104.175-.22.354-.35.537l-1.746 2.52c-.04.064-.102.115-.183.153s-.172.058-.275.058h-.818l2.18-2.854zm.826-2.18c0-.223-.036-.426-.107-.607-.07-.182-.17-.336-.296-.463-.127-.126-.277-.224-.452-.292-.175-.068-.367-.103-.577-.103-.22 0-.42.036-.6.107-.18.072-.335.17-.465.298-.13.126-.23.278-.3.455-.07.177-.105.37-.105.58 0 .227.032.43.098.607.065.178.16.33.28.452.122.12.27.215.445.28s.37.093.588.093c.24 0 .452-.04.638-.117.186-.078.342-.183.468-.313.127-.13.224-.28.29-.45.066-.17.1-.345.1-.53zM441.195 243.285c.303 0 .587.045.85.135.264.09.492.222.686.393.195.172.347.38.457.628.11.248.165.528.165.84 0 .27-.04.517-.12.744-.08.23-.187.446-.324.652-.137.207-.294.41-.473.605s-.367.396-.567.596l-1.89 1.93c.133-.036.268-.065.404-.087s.27-.033.396-.033h2.4c.096 0 .173.028.23.085s.084.13.084.22v.54h-4.78v-.304c0-.063.014-.13.04-.195.027-.065.068-.127.125-.184l2.295-2.307c.19-.193.363-.38.52-.558.157-.178.29-.357.4-.537.11-.18.195-.362.256-.548.06-.185.09-.382.09-.592s-.033-.395-.1-.553c-.067-.158-.158-.29-.273-.393s-.25-.182-.407-.233c-.157-.053-.325-.08-.505-.08-.183 0-.35.027-.504.08-.154.054-.29.128-.41.223-.117.096-.216.208-.296.338s-.136.274-.17.43c-.04.118-.094.195-.162.233-.068.04-.164.05-.287.033l-.464-.08c.048-.327.14-.616.273-.868.135-.25.305-.462.51-.632s.44-.3.702-.388c.264-.088.55-.132.855-.132zm8.345 3.665c0 .627-.067 1.17-.202 1.628-.136.458-.32.837-.553 1.137-.233.3-.51.523-.827.67-.318.147-.66.22-1.023.22-.366 0-.707-.072-1.022-.22-.314-.146-.59-.37-.822-.67-.23-.3-.415-.68-.55-1.137-.132-.46-.2-1-.2-1.628s.068-1.17.2-1.63c.135-.46.318-.84.55-1.143s.51-.525.824-.673c.315-.146.656-.22 1.022-.22.363 0 .705.073 1.023.22.316.147.593.37.826.673s.417.683.553 1.143c.134.46.2 1.003.2 1.63zm-.925 0c0-.547-.046-1.006-.138-1.377-.092-.372-.215-.67-.37-.898-.155-.227-.334-.39-.537-.487-.204-.098-.415-.147-.636-.147-.22 0-.432.05-.635.15-.205.1-.384.26-.537.486-.153.228-.275.526-.367.898-.092.37-.138.83-.138 1.377s.045 1.006.137 1.376.214.668.367.896c.153.228.332.39.535.488.202.098.414.147.634.147.22 0 .433-.05.637-.147.203-.1.382-.26.537-.487.155-.227.278-.524.37-.895s.138-.828.138-1.375zm6.725 0c0 .627-.067 1.17-.202 1.628-.136.458-.32.837-.553 1.137-.233.3-.51.523-.827.67-.318.147-.66.22-1.023.22-.366 0-.707-.072-1.022-.22-.314-.146-.59-.37-.822-.67-.23-.3-.415-.68-.55-1.137-.132-.46-.2-1-.2-1.628s.068-1.17.2-1.63c.135-.46.318-.84.55-1.143s.51-.525.824-.673c.315-.146.656-.22 1.022-.22.363 0 .705.073 1.023.22.316.147.593.37.826.673s.417.683.553 1.143c.133.46.2 1.003.2 1.63zm-.925 0c0-.547-.046-1.006-.138-1.377-.092-.372-.215-.67-.37-.898-.155-.227-.334-.39-.537-.487-.204-.098-.415-.147-.636-.147-.22 0-.432.05-.635.15-.205.1-.384.26-.537.486-.153.228-.275.526-.367.898-.092.37-.138.83-.138 1.377s.045 1.006.137 1.376.214.668.367.896c.153.228.332.39.535.488.202.098.414.147.634.147.22 0 .433-.05.637-.147.203-.1.382-.26.537-.487.155-.227.278-.524.37-.895s.138-.828.138-1.375zm5.655.995h1.084v.51c0 .054-.016.1-.047.135-.032.037-.08.056-.147.056h-.89v1.885h-.78v-1.883h-3.18c-.067 0-.125-.02-.173-.058-.05-.04-.08-.087-.093-.144l-.09-.455 3.484-4.624h.83v4.58zm-.78-2.955c0-.087.002-.18.007-.282s.016-.206.033-.313l-2.61 3.55h2.57v-2.955zM498.717 243.285c.303 0 .587.045.85.135.264.09.492.222.686.393.193.172.345.38.455.628.11.248.165.528.165.84 0 .27-.04.517-.12.744-.08.23-.188.446-.325.652-.137.207-.294.41-.473.605s-.367.396-.567.596l-1.89 1.93c.133-.036.268-.065.404-.087s.27-.033.396-.033h2.4c.096 0 .173.028.23.085s.084.13.084.22v.54h-4.78v-.304c0-.063.014-.13.04-.195.027-.065.068-.127.125-.184l2.295-2.307c.19-.193.363-.38.52-.558.157-.178.29-.357.4-.537.11-.18.195-.362.256-.548.06-.185.09-.382.09-.592s-.033-.395-.1-.553c-.067-.158-.158-.29-.273-.393s-.25-.182-.407-.233c-.157-.053-.325-.08-.505-.08-.184 0-.352.027-.505.08-.153.054-.29.128-.408.223-.118.096-.217.208-.297.338s-.137.274-.17.43c-.04.118-.095.195-.163.233-.068.04-.164.05-.287.033l-.465-.08c.047-.327.138-.616.272-.868.135-.25.305-.462.51-.632s.44-.3.702-.388c.263-.088.548-.132.855-.132zm8.345 3.665c0 .627-.067 1.17-.202 1.628-.136.458-.32.837-.553 1.137-.233.3-.51.523-.827.67-.318.147-.66.22-1.023.22-.366 0-.707-.072-1.022-.22-.314-.146-.59-.37-.822-.67-.233-.3-.417-.68-.55-1.137-.134-.46-.2-1-.2-1.628s.066-1.17.2-1.63c.133-.46.316-.84.55-1.143s.508-.525.822-.673c.315-.146.656-.22 1.022-.22.363 0 .705.073 1.023.22.317.147.594.37.827.673s.417.683.553 1.143c.134.46.202 1.003.202 1.63zm-.925 0c0-.547-.046-1.006-.138-1.377-.094-.372-.217-.67-.37-.898-.157-.227-.336-.39-.54-.487-.203-.098-.414-.147-.635-.147-.22 0-.432.05-.635.15-.202.1-.38.26-.534.486-.153.228-.275.526-.367.898-.094.37-.14.83-.14 1.377s.046 1.006.14 1.376.212.668.365.896c.153.228.332.39.535.488.204.098.416.147.636.147.22 0 .432-.05.636-.147.203-.1.382-.26.537-.487.153-.227.276-.524.37-.895s.136-.828.136-1.375zm6.723 0c0 .627-.066 1.17-.2 1.628-.137.458-.32.837-.554 1.137-.233.3-.51.523-.827.67-.32.147-.66.22-1.025.22-.366 0-.707-.072-1.022-.22-.314-.146-.59-.37-.822-.67-.232-.3-.416-.68-.55-1.137-.133-.46-.2-1-.2-1.628s.067-1.17.2-1.63c.134-.46.317-.84.55-1.143s.51-.525.823-.673c.315-.146.656-.22 1.022-.22.363 0 .705.073 1.023.22.316.147.593.37.826.673s.417.683.553 1.143c.134.46.2 1.003.2 1.63zm-.923 0c0-.547-.046-1.006-.138-1.377-.094-.372-.217-.67-.37-.898-.157-.227-.336-.39-.54-.487-.203-.098-.414-.147-.635-.147-.22 0-.432.05-.635.15-.202.1-.38.26-.534.486-.153.228-.275.526-.367.898-.094.37-.14.83-.14 1.377s.046 1.006.14 1.376.212.668.365.896c.153.228.332.39.535.488.204.098.416.147.636.147.22 0 .432-.05.636-.147.203-.1.382-.26.537-.487.153-.227.276-.524.37-.895s.136-.828.136-1.375zm4.72.725l.204-.274s.125-.172.18-.26c-.182.148-.39.26-.62.337-.227.076-.47.114-.727.114-.27 0-.526-.044-.768-.134-.242-.09-.454-.223-.638-.397s-.33-.39-.438-.646-.163-.548-.163-.878c0-.313.058-.606.175-.88.117-.273.28-.512.49-.715s.46-.362.75-.48c.29-.115.608-.174.955-.174.344 0 .655.057.936.17s.52.27.72.476c.2.204.355.447.464.73s.162.597.162.94c0 .206-.02.402-.06.587-.037.185-.092.366-.164.544-.07.18-.16.355-.262.53-.103.175-.22.354-.35.537l-1.745 2.52c-.044.064-.105.115-.186.153s-.172.058-.275.058h-.82l2.18-2.854zm.824-2.18c0-.223-.034-.426-.105-.607-.072-.182-.17-.336-.298-.463-.127-.126-.277-.224-.452-.292-.176-.068-.368-.103-.578-.103-.22 0-.42.036-.6.107-.18.072-.335.17-.465.298-.13.126-.23.278-.3.455-.07.177-.104.37-.104.58 0 .227.032.43.098.607.064.178.158.33.28.452.12.12.27.215.444.28s.37.093.588.093c.24 0 .452-.04.638-.117.185-.078.34-.183.467-.313.128-.13.225-.28.29-.45.068-.17.1-.345.1-.53z" fill="#4E4E4E"/><path d="M347.254 65.578c.06.138.115.277.172.417.055-.147.113-.29.174-.43.06-.137.124-.27.19-.398l2.564-4.806c.03-.06.065-.106.102-.142.036-.036.075-.063.117-.078.042-.018.09-.027.14-.03s.115-.007.188-.007h1.22v8.676H350.7v-5.606c0-.104.003-.22.01-.343s.014-.25.026-.377l-2.622 4.92c-.123.236-.313.354-.57.354h-.228c-.256 0-.445-.118-.57-.354l-2.65-4.938c.012.132.02.26.03.387s.01.243.01.352v5.604h-1.42V60.1h1.218c.07 0 .133.003.186.007.052.003.1.013.14.03.044.015.08.04.115.077.035.035.068.084.1.144l2.598 4.82c.066.127.13.26.187.398zm9.17-3.05c.39 0 .747.062 1.075.185.326.124.61.306.845.543.235.238.42.53.555.876.135.347.202.74.202 1.186 0 .224-.024.375-.072.453s-.14.12-.276.12h-3.81c.024.314.08.59.168.817.088.23.204.42.348.57.145.15.315.262.514.336.197.074.417.11.656.11.24 0 .447-.027.62-.083.175-.058.327-.12.457-.188.13-.067.244-.13.342-.186.097-.057.19-.084.283-.084.124 0 .216.046.276.138l.425.54c-.164.192-.348.354-.552.483s-.417.233-.64.312c-.222.078-.447.133-.678.165-.23.032-.453.048-.67.048-.427 0-.825-.07-1.192-.213-.368-.142-.688-.352-.96-.63s-.486-.622-.643-1.032-.232-.885-.232-1.425c0-.42.067-.815.203-1.185.14-.37.333-.692.587-.967.255-.273.564-.49.93-.65s.78-.24 1.24-.24zm.03 1.06c-.43 0-.77.122-1.013.366s-.4.59-.466 1.038h2.796c0-.19-.028-.373-.082-.543s-.135-.32-.243-.45c-.108-.127-.245-.23-.41-.302s-.36-.112-.58-.112zm5.762 5.287c-.536 0-.947-.15-1.233-.453-.286-.302-.43-.72-.43-1.25v-3.44h-.63c-.08 0-.147-.025-.203-.077s-.084-.13-.084-.234v-.586l.99-.162.312-1.68c.02-.08.058-.14.114-.185.056-.044.128-.066.216-.066h.768v1.938h1.645v1.056h-1.643v3.336c0 .19.048.34.142.45.093.106.222.16.386.16.092 0 .17-.01.23-.032.063-.022.116-.045.163-.07.045-.022.086-.046.122-.067.036-.02.072-.03.108-.03.044 0 .08.01.108.032.027.022.058.056.09.1l.444.72c-.217.18-.465.316-.744.408-.28.09-.57.137-.87.137zm2.544-.095v-6.157h.87c.15 0 .258.027.317.08.06.055.1.152.12.292l.084.696c.198-.366.428-.655.69-.865.266-.21.577-.314.938-.314.284 0 .512.063.684.187l-.095 1.11c-.02.07-.05.123-.087.152-.038.03-.09.044-.153.044-.06 0-.148-.01-.267-.03-.118-.02-.233-.03-.345-.03-.164 0-.31.025-.438.073s-.243.116-.345.207c-.103.09-.192.198-.27.326-.078.128-.15.273-.22.437v3.792h-1.48zm7.186-6.253c.456 0 .87.074 1.245.222.376.146.695.356.96.63.268.27.473.602.617.994.144.393.216.83.216 1.314 0 .487-.072.927-.216 1.32-.145.39-.35.725-.615 1-.266.276-.585.488-.96.637-.373.147-.788.222-1.244.222-.46 0-.878-.075-1.254-.223-.376-.148-.697-.36-.963-.636-.267-.275-.473-.61-.62-1-.144-.394-.217-.833-.217-1.32 0-.485.072-.923.22-1.315.145-.392.35-.724.617-.996.265-.272.586-.482.962-.63.376-.15.794-.223 1.254-.223zm0 5.202c.512 0 .89-.174 1.137-.52.246-.343.37-.847.37-1.51s-.124-1.17-.37-1.52c-.246-.35-.625-.52-1.137-.52-.52 0-.905.174-1.155.524-.25.35-.373.854-.373 1.515s.125 1.162.375 1.51c.25.345.636.52 1.156.52z" fill="#E81F64"/><path d="M338.833 135.204c.05.006.094.018.132.036.038.018.075.044.11.078.036.034.076.08.12.135l4.55 5.808c-.014-.14-.023-.275-.03-.412-.01-.136-.013-.262-.013-.378v-5.274h1.422v8.676h-.828c-.128 0-.235-.02-.32-.063s-.17-.114-.25-.215l-4.53-5.777c.013.127.02.254.027.38s.01.24.01.345v5.328h-1.423v-8.675h.846c.068-.002.126 0 .177.007zm10.653 2.416c.456 0 .87.073 1.245.22.376.15.695.36.96.63.268.273.473.605.617.997.144.393.216.83.216 1.314 0 .49-.072.93-.216 1.32-.145.394-.35.728-.615 1.004-.266.275-.585.487-.96.636-.373.146-.788.22-1.244.22-.46 0-.878-.073-1.254-.22-.376-.15-.697-.36-.963-.637-.267-.276-.473-.61-.62-1.002-.144-.39-.217-.83-.217-1.32 0-.482.072-.92.22-1.312.145-.392.35-.724.617-.996.265-.27.586-.48.962-.63.376-.147.794-.22 1.254-.22zm0 5.2c.512 0 .89-.17 1.137-.516.246-.344.37-.848.37-1.512s-.124-1.17-.37-1.518c-.246-.35-.625-.522-1.137-.522-.52 0-.905.175-1.155.525-.25.35-.373.854-.373 1.515s.125 1.163.375 1.51c.25.346.636.52 1.156.52zm4.23 1.05v-6.155h.905c.194 0 .32.09.38.27l.103.486c.124-.126.255-.24.393-.346.14-.104.284-.194.438-.27.153-.076.318-.135.495-.175.175-.04.366-.06.574-.06.337 0 .635.056.895.17s.476.274.65.48c.174.206.306.45.396.737s.135.602.135.945v3.92h-1.48v-3.92c0-.375-.086-.666-.26-.872-.17-.206-.433-.31-.784-.31-.256 0-.496.06-.72.175-.225.116-.437.273-.637.474v4.45h-1.483zm6.66-4.24h3.107v1.235h-3.108v-1.236zm9.302 1.04c.06.138.115.277.17.417.058-.147.115-.29.176-.43.06-.137.123-.27.19-.398l2.564-4.808c.03-.06.065-.108.102-.144.036-.037.075-.064.117-.08.042-.016.09-.025.14-.03s.115-.005.188-.005h1.218v8.676h-1.422v-5.604c0-.104.005-.22.01-.343s.016-.25.028-.378l-2.622 4.92c-.124.236-.314.354-.57.354h-.228c-.257 0-.446-.12-.57-.355l-2.652-4.938c.013.132.022.26.03.387s.012.243.012.352v5.604h-1.422v-8.675h1.218c.072 0 .135.002.187.006s.1.016.14.03c.044.018.08.044.116.08.034.035.067.084.1.144l2.598 4.818c.064.13.127.262.185.4zm9.182-3.05c.39 0 .746.062 1.074.185.328.124.61.306.847.543.237.238.423.53.557.876.134.347.2.74.2 1.186 0 .224-.023.375-.07.453s-.14.117-.277.117h-3.81c.023.315.08.59.167.818.088.23.204.42.348.57.145.15.315.262.514.336.195.074.415.11.654.11.24 0 .447-.027.62-.083.175-.055.327-.116.457-.185.13-.067.245-.13.343-.186.1-.058.193-.085.285-.085.123 0 .215.046.275.138l.426.54c-.164.192-.348.354-.55.483s-.42.233-.64.312c-.224.078-.45.133-.68.165-.23.032-.453.048-.67.048-.427 0-.825-.07-1.192-.212-.37-.142-.69-.352-.96-.63-.273-.278-.487-.622-.644-1.032s-.233-.885-.233-1.425c0-.42.068-.814.204-1.184.137-.37.33-.692.585-.967.255-.274.564-.49.93-.65s.78-.24 1.24-.24zm.03 1.06c-.43 0-.77.123-1.013.367s-.4.59-.468 1.038h2.794c0-.19-.027-.373-.08-.543s-.136-.318-.244-.447c-.107-.128-.244-.23-.41-.303s-.36-.11-.58-.11zm5.917 5.287c-.536 0-.947-.15-1.233-.453-.286-.302-.43-.72-.43-1.25v-3.44h-.63c-.08 0-.147-.025-.203-.077s-.082-.13-.082-.234v-.588l.99-.162.312-1.68c.02-.08.057-.142.113-.186.056-.044.128-.066.216-.066h.766v1.94h1.645v1.056h-1.644v3.336c0 .193.048.343.142.45.093.108.222.163.386.163.092 0 .17-.012.23-.033.063-.022.116-.045.163-.07.045-.022.086-.046.122-.067.034-.022.07-.033.106-.033.043 0 .08.01.107.033.027.02.058.055.09.1l.444.72c-.216.18-.464.315-.743.407-.28.09-.57.137-.87.137zm2.4-.097v-6.155h.87c.15 0 .258.027.317.08.06.055.1.152.12.292l.084.696c.196-.368.426-.657.69-.867.264-.21.575-.314.936-.314.284 0 .512.062.684.186l-.096 1.11c-.02.07-.05.123-.087.152-.038.03-.09.045-.153.045-.06 0-.148-.01-.267-.03-.118-.02-.233-.03-.345-.03-.164 0-.31.025-.438.073s-.243.116-.345.207c-.103.09-.192.198-.27.326-.078.13-.15.276-.22.44v3.79h-1.48zm7.188-6.25c.456 0 .87.073 1.245.22.374.15.693.36.96.63.266.273.47.605.615.997.144.393.216.83.216 1.314 0 .49-.07.93-.214 1.32-.145.394-.35.728-.615 1.004-.266.275-.585.487-.96.636-.373.146-.79.22-1.244.22-.46 0-.878-.073-1.254-.22-.375-.15-.696-.36-.962-.637-.267-.276-.473-.61-.618-1.002-.146-.39-.22-.83-.22-1.32 0-.482.073-.92.22-1.312.146-.392.352-.724.618-.996.266-.27.587-.48.963-.63.377-.147.795-.22 1.255-.22zm0 5.2c.512 0 .89-.17 1.137-.516.246-.344.37-.848.37-1.512s-.124-1.17-.37-1.518c-.246-.35-.625-.522-1.137-.522-.52 0-.905.175-1.155.525-.25.35-.375.854-.375 1.515s.125 1.163.375 1.51c.25.346.634.52 1.155.52z" fill="#009688"/></svg>