<svg xmlns="http://www.w3.org/2000/svg" width="561" height="252" viewBox="0 0 561 252"><path fill="none" stroke="#CDCCCC" stroke-width=".5" stroke-linejoin="round" stroke-miterlimit="10" d="M40.404 210.805h502.57m-502.57-25.033h502.57m-502.57-24.96h502.57m-502.57-25.03h502.57m-502.57-25.034h502.57m-502.57-24.96h502.57m-502.57-25.03h502.57M40.403 35.723h502.57m-502.57-24.96h502.57"/><path fill="none" stroke="#9B9B9B" stroke-linejoin="round" stroke-miterlimit="10" d="M40.404 235.764h502.57m-502.57-2.154v4.382m50.237-4.383v4.38m50.24-4.382v4.382m50.335-4.383v4.382m50.237-4.384v4.382m50.238-4.383v4.382m50.237-4.383v4.382m50.237-4.383v4.382m50.237-4.383v4.382m50.237-4.383v4.383m50.337-4.383v4.382"/><path fill="none" stroke="#903F98" stroke-width="2.16" stroke-linecap="round" stroke-linejoin="round" stroke-miterlimit="10" d="M40.404 138.38l10.087-1.188 9.99-2.75 10.087-1.707 10.087 4.16 9.988 1.04 10.088 1.114 9.988 4.9 10.087 2.23 10.087-.743 9.988-2.377 10.087 2.674 10.087 1.784 9.988 1.04 10.087.296 10.086-.148 9.988.297 10.087 5.423 9.988 1.782 10.087 6.537 10.087 5.497 9.99-1.114 10.086 1.708 10.087 2.006 9.99-.298 10.085.298 9.988-.074 10.087 1.485 10.087 3.12 9.988.89 10.087.818 10.087-3.415 9.988 2.823 10.087.965 10.086-2.08 9.988 2.304 10.087 1.262 9.988.742 10.087 1.784 10.087 2.303 9.99-.82 10.086-1.04 10.087 1.783 9.99.668 10.085.076 9.988 1.486 10.088.595 10.087.372 9.988-3.196 10.088.966 10.088.074"/><path fill="none" stroke="#4DAF4E" stroke-width="2.16" stroke-linecap="round" stroke-linejoin="round" stroke-miterlimit="10" d="M40.404 83.19l10.087 1.188 9.99 2.748 10.087 1.71L80.653 84.6l9.988-.965 10.09-1.114 9.987-4.9 10.087-2.23 10.087.67 9.99 2.45 10.086-2.674 10.087-1.856 9.988-.967 10.088-.297 10.087.148 9.988-.297 10.087-5.422 9.987-1.857 10.087-6.537 10.087-5.42 9.99 1.113 10.087-1.708 10.087-2.005 9.99.22 10.085-.296 9.987.15 10.087-1.487 10.087-3.194 9.99-.892 10.086-.74 10.087 3.417L362 45.01l10.087-.893 10.087 2.08 9.988-2.302 10.087-1.263 9.986-.818 10.087-1.782 10.087-2.303 9.99.89 10.086.965 10.087-1.783 9.99-.594 10.085-.15 9.988-1.41 10.088-.67 10.087-.296 9.99 3.193 10.086-.965 10.088-.148"/><path d="M24.186 235.895c0 .627-.067 1.17-.203 1.628-.135.458-.32.837-.552 1.137-.23.3-.507.523-.826.67-.318.147-.66.22-1.022.22-.366 0-.707-.072-1.02-.22-.316-.146-.59-.37-.824-.67-.233-.3-.417-.68-.55-1.137-.133-.46-.2-1-.2-1.628s.067-1.17.2-1.63.316-.84.55-1.143.508-.525.823-.673c.315-.148.656-.22 1.02-.22.365 0 .706.07 1.024.22.318.145.594.37.828.67s.418.684.553 1.144c.135.46.203 1.003.203 1.63zm-.925 0c0-.547-.044-1.006-.136-1.377-.092-.372-.215-.67-.37-.898-.155-.227-.334-.39-.538-.487-.203-.098-.415-.147-.635-.147s-.43.05-.634.147c-.203.1-.38.26-.535.487-.152.228-.275.526-.367.898-.092.37-.137.83-.137 1.377s.045 1.005.137 1.375.214.668.368.896c.154.227.333.39.536.487.204.098.415.147.635.147s.433-.05.636-.147c.204-.1.383-.26.538-.487.155-.228.278-.525.37-.896s.138-.83.138-1.375zm4.835-1.855c0 .28-.043.53-.13.752-.087.222-.203.408-.348.56-.145.152-.313.268-.505.348s-.394.12-.607.12c-.223 0-.432-.04-.625-.12s-.36-.195-.502-.347c-.142-.152-.252-.34-.333-.56s-.12-.474-.12-.753c0-.287.04-.542.12-.766.08-.223.19-.41.333-.564s.31-.27.502-.35.402-.12.625-.12c.227 0 .437.04.63.12s.362.196.505.35c.144.153.255.342.335.564.08.224.12.48.12.766zm2.535-1.58c.033-.04.072-.075.118-.105.045-.03.105-.045.182-.045h.645l-5.24 7.02c-.03.044-.068.08-.115.105-.046.026-.103.04-.17.04h-.655l5.235-7.015zm-3.225 1.58c0-.22-.023-.407-.07-.56-.047-.154-.11-.28-.192-.378-.082-.1-.178-.17-.288-.213-.11-.045-.227-.067-.35-.067-.124 0-.238.022-.345.065-.106.042-.2.113-.28.212-.08.098-.144.224-.19.377-.047.152-.07.34-.07.56 0 .216.023.4.07.552.046.15.11.274.19.37s.173.162.28.204c.107.042.222.063.345.063.123 0 .24-.02.35-.063.11-.042.206-.11.288-.205.082-.096.146-.22.192-.37.047-.153.07-.337.07-.553zm4.656 3.744c0 .28-.04.53-.13.75-.084.22-.2.406-.345.558-.145.152-.313.268-.505.348-.192.08-.395.12-.608.12-.227 0-.436-.04-.627-.12-.19-.08-.358-.195-.5-.348-.142-.15-.252-.337-.333-.558-.08-.22-.12-.47-.12-.75 0-.286.04-.542.12-.767.08-.226.19-.415.333-.568s.31-.27.5-.35c.192-.08.4-.12.627-.12.224 0 .433.04.627.12.193.08.36.194.503.35.142.15.253.34.335.566.08.225.12.48.12.767zm-.69 0c0-.22-.022-.407-.07-.563-.046-.152-.11-.28-.19-.375s-.18-.167-.29-.21-.226-.065-.35-.065c-.122 0-.24.02-.346.064-.108.043-.203.113-.283.21s-.142.223-.187.377c-.045.157-.067.345-.067.565 0 .217.022.4.067.55.045.15.107.273.188.368s.175.163.284.205c.108.042.224.063.347.063.125 0 .24-.02.35-.062s.207-.11.29-.205.145-.218.19-.367c.048-.15.07-.334.07-.55zM14.136 213.792h1.535v-4.886c0-.14.007-.288.017-.444l-1.275 1.095c-.042.037-.085.06-.13.067-.042.01-.082.01-.12.003s-.07-.02-.102-.04c-.032-.02-.056-.042-.072-.065l-.28-.385 2.135-1.845h.726v6.5h1.41v.68h-3.84v-.68zm10.05-2.9c0 .627-.067 1.17-.203 1.628-.135.458-.32.837-.552 1.137-.23.3-.507.523-.826.67-.318.147-.66.22-1.022.22-.366 0-.707-.072-1.02-.22-.316-.146-.59-.37-.824-.67-.233-.3-.417-.68-.55-1.137-.133-.46-.2-1-.2-1.628s.067-1.17.2-1.63.316-.84.55-1.143.508-.527.823-.675c.315-.146.656-.22 1.02-.22.365 0 .706.073 1.024.22.318.147.594.37.828.673s.418.682.553 1.142c.135.46.203 1.003.203 1.63zm-.925 0c0-.547-.044-1.006-.136-1.377-.092-.372-.215-.67-.37-.898-.155-.227-.334-.39-.538-.487-.203-.098-.415-.147-.635-.147s-.43.05-.634.147c-.203.1-.38.26-.535.487-.152.228-.275.526-.367.898-.092.37-.137.83-.137 1.377s.045 1.005.137 1.375.214.668.368.896c.154.227.333.39.536.487.204.098.415.147.635.147s.433-.05.636-.147c.204-.1.383-.26.538-.487.155-.228.278-.525.37-.896s.138-.83.138-1.375zm4.835-1.855c0 .28-.043.53-.13.752-.087.22-.203.406-.348.56-.145.15-.313.266-.505.346s-.394.12-.607.12c-.223 0-.432-.04-.625-.12s-.36-.195-.502-.347c-.142-.153-.252-.34-.333-.56s-.12-.475-.12-.754c0-.287.04-.542.12-.766.08-.222.19-.41.333-.563s.31-.27.502-.35.402-.12.625-.12c.227 0 .437.04.63.12s.362.196.505.35c.144.153.255.342.335.564.08.226.12.48.12.768zm2.535-1.58c.033-.04.072-.075.118-.105.045-.03.105-.045.182-.045h.645l-5.24 7.02c-.03.044-.068.08-.115.105-.046.026-.103.04-.17.04h-.655l5.235-7.015zm-3.225 1.58c0-.22-.023-.407-.07-.56-.047-.154-.11-.28-.192-.378-.082-.1-.178-.17-.288-.215-.11-.043-.227-.065-.35-.065-.124 0-.238.023-.345.066-.106.043-.2.114-.28.213-.08.096-.144.222-.19.375-.047.153-.07.34-.07.56 0 .217.023.4.07.553.046.15.11.274.19.37s.173.162.28.204c.107.042.222.063.345.063.123 0 .24-.02.35-.063.11-.042.206-.11.288-.205.082-.096.146-.22.192-.37.047-.152.07-.337.07-.553zm4.656 3.744c0 .28-.04.53-.13.75-.084.223-.2.408-.345.56-.145.15-.313.268-.505.348-.192.08-.395.12-.608.12-.227 0-.436-.04-.627-.12-.19-.08-.358-.195-.5-.348-.142-.152-.252-.338-.333-.56-.08-.22-.12-.47-.12-.75 0-.285.04-.54.12-.766.08-.226.19-.415.333-.568s.31-.27.5-.35c.192-.08.4-.12.627-.12.224 0 .433.04.627.12.193.08.36.196.503.35.142.153.253.343.335.568.08.225.12.48.12.767zm-.69 0c0-.22-.022-.405-.07-.56-.046-.155-.11-.28-.19-.378s-.18-.166-.29-.21-.226-.064-.35-.064c-.122 0-.24.022-.346.065-.108.044-.203.114-.283.21s-.142.224-.187.378c-.045.156-.067.344-.067.564 0 .218.022.4.067.552.045.15.107.272.188.367s.175.162.284.204c.108.042.224.063.347.063.125 0 .24-.02.35-.063s.207-.11.29-.205.145-.22.19-.368c.048-.15.07-.334.07-.55zM15.84 182.22c.304 0 .587.045.85.135.264.09.493.222.686.393.193.172.345.38.455.628.11.246.167.526.167.84 0 .267-.04.515-.12.742-.08.23-.188.446-.325.652-.136.207-.293.41-.472.605s-.367.395-.567.595l-1.89 1.93c.134-.036.27-.065.406-.087s.267-.032.394-.032h2.4c.098 0 .174.03.23.087s.086.13.086.22v.54h-4.78v-.305c0-.062.013-.128.04-.194.027-.066.068-.128.125-.185l2.296-2.305c.19-.193.364-.38.52-.558.157-.178.29-.357.4-.537s.196-.362.256-.548c.06-.185.09-.382.09-.592s-.032-.395-.1-.553c-.066-.158-.157-.29-.272-.393-.115-.104-.25-.18-.407-.232s-.324-.078-.504-.078c-.184 0-.352.027-.505.08-.152.054-.288.128-.406.223-.12.096-.218.208-.297.338-.08.13-.137.273-.17.43-.04.117-.094.194-.162.232-.068.04-.165.05-.288.033l-.465-.08c.046-.327.137-.616.272-.868.135-.25.305-.462.51-.632s.44-.3.703-.388c.262-.088.547-.132.854-.132zm8.346 3.665c0 .627-.067 1.17-.203 1.628-.135.458-.32.837-.552 1.137-.23.3-.507.523-.826.67-.318.147-.66.22-1.022.22-.366 0-.707-.072-1.02-.22-.316-.146-.59-.37-.824-.67-.233-.3-.417-.68-.55-1.137-.133-.46-.2-1-.2-1.628s.067-1.17.2-1.63.316-.84.55-1.143.508-.525.823-.673c.315-.148.656-.22 1.02-.22.365 0 .706.07 1.024.22.318.145.594.37.828.67s.418.684.553 1.144c.135.46.203 1.003.203 1.63zm-.925 0c0-.547-.044-1.006-.136-1.377-.092-.372-.215-.67-.37-.898-.155-.227-.334-.39-.538-.487-.203-.098-.415-.147-.635-.147s-.43.05-.634.147c-.203.1-.38.26-.535.487-.152.228-.275.526-.367.898-.092.37-.137.83-.137 1.377s.045 1.005.137 1.375.214.668.368.896c.154.227.333.39.536.487.204.098.415.147.635.147s.433-.05.636-.147c.204-.1.383-.26.538-.487.155-.228.278-.525.37-.896s.138-.828.138-1.375zm4.835-1.855c0 .28-.043.53-.13.752-.087.222-.203.408-.348.56-.145.152-.313.268-.505.348s-.394.12-.607.12c-.223 0-.432-.04-.625-.12s-.36-.195-.502-.347c-.142-.152-.252-.34-.333-.56s-.12-.474-.12-.753c0-.287.04-.542.12-.766.08-.223.19-.41.333-.564s.31-.27.502-.35.402-.12.625-.12c.227 0 .437.04.63.12s.362.196.505.35c.144.153.255.342.335.564.08.224.12.48.12.766zm2.535-1.58c.033-.04.072-.075.118-.105.045-.03.105-.045.182-.045h.645l-5.24 7.02c-.03.044-.068.08-.115.105-.046.026-.103.04-.17.04h-.655l5.235-7.015zm-3.225 1.58c0-.22-.023-.407-.07-.56-.047-.154-.11-.28-.192-.378-.082-.1-.178-.17-.288-.213-.11-.045-.227-.067-.35-.067-.124 0-.238.022-.345.065-.106.042-.2.113-.28.212-.08.098-.144.224-.19.377-.047.152-.07.34-.07.56 0 .216.023.4.07.552.046.15.11.274.19.37s.173.162.28.204c.107.042.222.063.345.063.123 0 .24-.02.35-.063.11-.042.206-.11.288-.205.082-.096.146-.22.192-.37.047-.15.07-.337.07-.553zm4.656 3.744c0 .28-.04.53-.13.75-.084.22-.2.406-.345.558-.145.152-.313.268-.505.348-.192.08-.395.12-.608.12-.227 0-.436-.04-.627-.12-.19-.08-.358-.195-.5-.348-.142-.15-.252-.337-.333-.558-.08-.22-.12-.47-.12-.75 0-.286.04-.542.12-.767.08-.226.19-.415.333-.568s.31-.27.5-.35c.192-.08.4-.12.627-.12.224 0 .433.04.627.12.193.08.36.194.503.35.142.15.253.34.335.566.08.225.12.48.12.767zm-.69 0c0-.22-.022-.407-.07-.563-.046-.152-.11-.28-.19-.375s-.18-.167-.29-.21-.226-.065-.35-.065c-.122 0-.24.02-.346.064-.108.043-.203.113-.283.21s-.142.223-.187.377c-.045.157-.067.345-.067.565 0 .217.022.4.067.55.045.15.107.273.188.368s.175.163.284.205c.108.042.224.063.347.063.125 0 .24-.02.35-.062s.207-.11.29-.205.145-.218.19-.367c.048-.15.07-.334.07-.55zM15.876 157.217c.303 0 .583.044.84.13.256.087.478.21.663.37s.327.354.43.58c.104.227.155.48.155.755 0 .227-.03.43-.087.607-.06.177-.143.333-.25.47-.11.134-.24.25-.394.34-.153.095-.325.17-.515.227.467.123.817.33 1.053.62.235.29.353.653.353 1.09 0 .33-.063.626-.188.89s-.297.487-.514.673c-.217.186-.47.327-.757.426-.29.1-.6.147-.93.147-.38 0-.704-.048-.974-.143s-.498-.226-.685-.393c-.186-.167-.34-.364-.46-.593-.12-.228-.22-.476-.304-.742l.385-.16c.1-.043.2-.055.292-.035.095.02.164.075.208.165.044.094.1.205.164.335s.154.255.268.375.257.222.433.306c.175.083.397.125.667.125.25 0 .47-.04.657-.123.186-.08.343-.188.47-.317s.217-.274.28-.435.095-.318.095-.476c0-.193-.025-.37-.075-.53-.05-.16-.142-.298-.28-.414-.136-.117-.323-.21-.562-.275s-.544-.1-.917-.1v-.646c.31-.003.57-.036.784-.1.215-.063.39-.15.525-.26.134-.11.232-.242.294-.396.062-.15.092-.32.092-.51 0-.205-.032-.385-.098-.54-.065-.15-.154-.28-.267-.38-.113-.1-.247-.174-.402-.224-.155-.05-.322-.075-.502-.075s-.348.028-.502.08c-.155.055-.292.13-.41.224-.118.096-.217.208-.297.338s-.137.274-.17.43c-.043.118-.098.195-.163.233-.065.04-.16.05-.282.033l-.464-.08c.047-.327.137-.616.27-.868.133-.25.303-.462.508-.632.205-.17.44-.3.705-.388.264-.087.55-.13.857-.13zm8.31 3.665c0 .627-.067 1.17-.203 1.628-.135.458-.32.837-.552 1.137-.23.3-.507.523-.826.67-.318.147-.66.22-1.022.22-.366 0-.707-.072-1.02-.22-.316-.146-.59-.37-.824-.67-.233-.3-.417-.68-.55-1.137-.133-.46-.2-1-.2-1.628s.067-1.17.2-1.63.316-.84.55-1.143.508-.527.823-.675c.315-.146.656-.22 1.02-.22.365 0 .706.073 1.024.22.318.147.594.37.828.673s.418.682.553 1.142c.135.46.203 1.003.203 1.63zm-.925 0c0-.547-.044-1.006-.136-1.377-.092-.372-.215-.67-.37-.898-.155-.227-.334-.39-.538-.487-.203-.098-.415-.147-.635-.147s-.43.05-.634.147c-.203.1-.38.26-.535.487-.152.228-.275.526-.367.898-.092.37-.137.83-.137 1.377s.045 1.005.137 1.375.214.668.368.896c.154.227.333.39.536.487.204.098.415.147.635.147s.433-.05.636-.147c.204-.1.383-.26.538-.487.155-.228.278-.525.37-.896s.138-.828.138-1.375zm4.835-1.855c0 .28-.043.53-.13.752-.087.22-.203.406-.348.56-.145.15-.313.266-.505.346s-.394.12-.607.12c-.223 0-.432-.04-.625-.12s-.36-.195-.502-.347c-.142-.153-.252-.34-.333-.56s-.12-.475-.12-.754c0-.287.04-.542.12-.766.08-.222.19-.41.333-.563s.31-.27.502-.35.402-.12.625-.12c.227 0 .437.04.63.12s.362.196.505.35c.144.153.255.342.335.564.08.226.12.48.12.768zm2.535-1.58c.033-.04.072-.075.118-.105.045-.03.105-.045.182-.045h.645l-5.24 7.02c-.03.044-.068.08-.115.105-.046.026-.103.04-.17.04h-.655l5.235-7.015zm-3.225 1.58c0-.22-.023-.407-.07-.56-.047-.154-.11-.28-.192-.378-.082-.1-.178-.17-.288-.215-.11-.043-.227-.065-.35-.065-.124 0-.238.023-.345.066-.106.043-.2.114-.28.213-.08.096-.144.222-.19.375-.047.153-.07.34-.07.56 0 .217.023.4.07.553.046.15.11.274.19.37s.173.162.28.204c.107.042.222.063.345.063.123 0 .24-.02.35-.063.11-.042.206-.11.288-.205.082-.096.146-.22.192-.37.047-.152.07-.337.07-.553zm4.656 3.744c0 .28-.04.53-.13.75-.084.223-.2.408-.345.56-.145.15-.313.268-.505.348-.192.08-.395.12-.608.12-.227 0-.436-.04-.627-.12-.19-.08-.358-.195-.5-.348-.142-.152-.252-.338-.333-.56-.08-.22-.12-.47-.12-.75 0-.285.04-.54.12-.766.08-.226.19-.415.333-.568s.31-.27.5-.35c.192-.08.4-.12.627-.12.224 0 .433.04.627.12.193.08.36.196.503.35.142.153.253.343.335.568.08.225.12.48.12.767zm-.69 0c0-.22-.022-.405-.07-.56-.046-.155-.11-.28-.19-.378s-.18-.166-.29-.21-.226-.064-.35-.064c-.122 0-.24.022-.346.065-.108.044-.203.114-.283.21s-.142.224-.187.378c-.045.156-.067.344-.067.564 0 .218.022.4.067.552.045.15.107.272.188.367s.175.162.284.204c.108.042.224.063.347.063.125 0 .24-.02.35-.063s.207-.11.29-.205.145-.22.19-.368c.048-.15.07-.334.07-.55zM17.316 136.865H18.4v.51c0 .054-.015.1-.047.135-.032.037-.08.056-.147.056h-.89v1.885h-.78v-1.883h-3.18c-.067 0-.125-.02-.173-.058s-.08-.087-.092-.144l-.09-.455 3.487-4.624h.83v4.58zm-.78-2.955c0-.087.002-.18.008-.282.005-.102.016-.206.032-.313l-2.61 3.55h2.57v-2.955zm7.65 1.96c0 .627-.067 1.17-.203 1.628-.135.458-.32.837-.552 1.137-.23.3-.507.523-.826.67-.318.147-.66.22-1.022.22-.366 0-.707-.072-1.02-.22-.316-.146-.59-.37-.824-.67-.233-.3-.417-.68-.55-1.137-.133-.46-.2-1-.2-1.628s.067-1.17.2-1.63.316-.84.55-1.143.508-.525.823-.673c.315-.146.656-.22 1.02-.22.365 0 .706.073 1.024.22.318.147.594.37.828.673s.418.683.553 1.143c.135.46.203 1.003.203 1.63zm-.925 0c0-.547-.044-1.006-.136-1.377-.092-.372-.215-.67-.37-.898-.155-.227-.334-.39-.538-.487-.203-.098-.415-.147-.635-.147s-.43.05-.634.15c-.203.1-.38.26-.535.486-.152.228-.275.526-.367.898-.092.37-.137.83-.137 1.377s.045 1.006.137 1.376.214.668.368.896c.154.228.333.39.536.488.204.098.415.147.635.147s.433-.05.636-.147c.204-.1.383-.26.538-.487.155-.227.278-.524.37-.895s.138-.828.138-1.375zm4.835-1.854c0 .28-.043.53-.13.752-.087.222-.203.408-.348.56-.145.152-.313.268-.505.348s-.394.12-.607.12c-.223 0-.432-.04-.625-.12s-.36-.195-.502-.347c-.142-.154-.252-.34-.333-.563s-.12-.473-.12-.752c0-.287.04-.542.12-.766.08-.224.19-.41.333-.565s.31-.27.502-.35.402-.12.625-.12c.227 0 .437.04.63.12s.362.196.505.35c.144.153.255.342.335.564.08.223.12.48.12.765zm2.535-1.58c.033-.04.072-.075.118-.105.045-.03.105-.043.182-.043h.645l-5.24 7.02c-.03.044-.068.08-.115.105-.046.027-.103.04-.17.04h-.655l5.235-7.014zm-3.225 1.58c0-.22-.023-.407-.07-.56-.047-.154-.11-.28-.192-.378-.082-.1-.178-.17-.288-.213-.11-.043-.227-.065-.35-.065-.124 0-.238.022-.345.065-.106.043-.2.114-.28.213-.08.098-.144.224-.19.377-.047.153-.07.34-.07.56 0 .217.023.4.07.553.046.152.11.275.19.37s.173.163.28.205c.107.042.222.063.345.063.123 0 .24-.02.35-.063.11-.042.206-.11.288-.205.082-.095.146-.218.192-.37.047-.152.07-.337.07-.552zm4.656 3.744c0 .28-.04.53-.13.75-.084.22-.2.406-.345.558-.145.152-.313.268-.505.348-.192.08-.395.12-.608.12-.227 0-.436-.04-.627-.12-.19-.08-.358-.195-.5-.348-.142-.15-.252-.337-.333-.558-.08-.22-.12-.47-.12-.75 0-.286.04-.542.12-.767.08-.226.19-.415.333-.568s.31-.27.5-.35c.192-.08.4-.12.627-.12.224 0 .433.04.627.12.193.08.36.196.503.35.142.153.253.343.335.568.08.225.12.48.12.767zm-.69 0c0-.22-.022-.407-.07-.563-.046-.154-.11-.28-.19-.377s-.18-.167-.29-.21-.226-.065-.35-.065c-.122 0-.24.022-.346.065-.108.043-.203.113-.283.21s-.142.223-.187.377c-.045.155-.067.343-.067.563 0 .217.022.4.067.55.045.15.107.273.188.368s.175.163.284.205c.108.042.224.063.347.063.125 0 .24-.02.35-.063s.207-.11.29-.205.145-.218.19-.367c.048-.15.07-.332.07-.55zM17.796 107.673c0 .126-.04.23-.118.313s-.212.123-.402.123h-2.25l-.33 1.88c.19-.045.37-.076.538-.095.168-.018.333-.027.492-.027.374 0 .704.054.99.164s.526.262.717.455c.192.192.337.42.435.684s.147.55.147.86c0 .38-.066.725-.197 1.03-.132.308-.313.57-.545.788-.232.22-.504.387-.818.503-.313.118-.65.176-1.015.176-.21 0-.412-.02-.605-.063-.193-.042-.375-.098-.542-.167-.168-.07-.324-.15-.468-.24-.143-.09-.27-.185-.38-.285l.275-.38c.06-.085.138-.13.235-.13.067 0 .142.027.225.08s.185.11.305.172c.12.063.26.12.422.172.162.052.354.078.578.078.25 0 .475-.04.675-.12.2-.08.372-.194.515-.342.143-.147.253-.325.33-.532.077-.207.115-.438.115-.695 0-.223-.032-.425-.097-.605s-.164-.333-.295-.46c-.13-.126-.295-.225-.492-.295-.197-.07-.427-.105-.69-.105-.18 0-.368.015-.563.045-.195.03-.395.078-.598.145l-.56-.165.575-3.35h3.395v.39zm6.39 3.195c0 .627-.067 1.17-.203 1.627-.135.458-.32.837-.552 1.138-.23.3-.507.523-.826.67s-.66.22-1.022.22c-.366 0-.707-.074-1.02-.22s-.59-.37-.824-.67c-.233-.3-.417-.68-.55-1.138-.133-.458-.2-1-.2-1.627 0-.626.067-1.17.2-1.63s.316-.84.55-1.143.508-.526.823-.672c.315-.147.656-.22 1.02-.22.365 0 .706.073 1.024.22.318.146.594.37.828.672s.418.683.553 1.143c.135.46.203 1.003.203 1.63zm-.925 0c0-.546-.044-1.006-.136-1.377s-.215-.67-.37-.895c-.155-.227-.334-.39-.538-.487-.203-.1-.415-.148-.635-.148s-.43.048-.634.147c-.203.098-.38.26-.535.487s-.275.526-.367.897-.137.833-.137 1.38c0 .546.045 1.004.137 1.374s.214.668.368.895.333.39.536.487c.204.098.415.147.635.147s.433-.05.636-.147c.204-.1.383-.26.538-.488.155-.228.278-.526.37-.896s.138-.828.138-1.375zm4.835-1.855c0 .28-.043.53-.13.752-.087.222-.203.41-.348.56-.145.152-.313.268-.505.348s-.394.12-.607.12c-.223 0-.432-.04-.625-.12s-.36-.196-.502-.348c-.142-.15-.252-.338-.333-.56s-.12-.472-.12-.752c0-.287.04-.542.12-.765.08-.223.19-.412.333-.565s.31-.27.502-.35c.193-.08.402-.12.625-.12.227 0 .437.04.63.12.193.08.362.197.505.35.144.153.255.342.335.565.08.223.12.478.12.765zm2.535-1.58c.033-.04.072-.075.118-.105.045-.03.105-.045.182-.045h.645l-5.24 7.02c-.03.043-.068.08-.115.105-.046.027-.103.04-.17.04h-.655l5.235-7.015zm-3.225 1.58c0-.22-.023-.407-.07-.56-.047-.153-.11-.28-.192-.377-.082-.098-.178-.17-.288-.212-.11-.043-.227-.065-.35-.065-.124 0-.238.02-.345.063-.106.043-.2.114-.28.212-.08.1-.144.224-.19.377-.047.153-.07.34-.07.56 0 .217.023.4.07.553.046.15.11.275.19.37.08.095.173.164.28.205.107.043.222.064.345.064.123 0 .24-.02.35-.063.11-.04.206-.11.288-.203.082-.095.146-.218.192-.37.047-.152.07-.337.07-.553zm4.656 3.745c0 .28-.04.53-.13.75-.084.22-.2.406-.345.558-.145.15-.313.267-.505.347-.192.08-.395.12-.608.12-.227 0-.436-.04-.627-.12-.19-.08-.358-.196-.5-.347-.142-.152-.252-.338-.333-.558-.08-.22-.12-.47-.12-.75 0-.287.04-.542.12-.768s.19-.414.333-.567.31-.27.5-.35c.192-.08.4-.12.627-.12.224 0 .433.04.627.12.193.08.36.197.503.35.142.153.253.342.335.567.08.225.12.48.12.768zm-.69 0c0-.22-.022-.408-.07-.563-.046-.155-.11-.28-.19-.377s-.18-.167-.29-.21c-.11-.043-.226-.065-.35-.065-.122 0-.24.02-.346.065-.108.043-.203.113-.283.21s-.142.222-.187.377c-.045.155-.067.342-.067.563 0 .217.022.4.067.55s.107.272.188.368c.08.095.175.163.284.205.108.044.224.065.347.065.125 0 .24-.02.35-.063.11-.04.207-.11.29-.204.08-.095.145-.218.19-.368s.07-.333.07-.55zM15.256 84.967c-.067.08-.128.158-.185.235s-.11.152-.17.225c.17-.117.36-.208.565-.272s.427-.098.667-.098c.29 0 .564.048.82.143.258.095.482.233.673.415.192.182.344.405.458.67s.17.567.17.908c0 .33-.06.637-.18.92s-.287.53-.5.74c-.216.21-.475.375-.776.495-.302.12-.634.18-.998.18-.36 0-.688-.058-.98-.172-.294-.115-.543-.278-.75-.49-.204-.21-.362-.468-.474-.77s-.167-.64-.167-1.013c0-.313.07-.647.207-1.002s.36-.732.663-1.135l1.82-2.445c.047-.06.11-.11.192-.153.08-.042.175-.063.282-.063h.79l-2.126 2.683zm-.975 2.27c0 .23.035.44.1.63.068.19.166.354.294.49s.285.242.47.317.396.112.633.112c.24 0 .458-.038.652-.115s.36-.182.5-.32c.137-.134.244-.296.32-.483.074-.187.112-.39.112-.61 0-.233-.036-.444-.11-.632-.073-.188-.177-.35-.312-.48s-.296-.232-.483-.302c-.187-.07-.392-.105-.615-.105-.24 0-.457.04-.65.123-.193.083-.358.19-.493.33-.136.14-.24.3-.31.48s-.107.37-.107.568zm9.906-1.37c0 .627-.067 1.17-.203 1.627-.135.458-.32.837-.552 1.138-.23.3-.507.523-.826.67s-.66.22-1.022.22c-.366 0-.707-.074-1.02-.22s-.59-.37-.824-.67c-.233-.3-.417-.68-.55-1.138-.133-.458-.2-1-.2-1.627 0-.626.067-1.17.2-1.63s.316-.84.55-1.143.508-.526.823-.672c.315-.147.656-.22 1.02-.22.365 0 .706.073 1.024.22.318.146.594.37.828.672s.418.683.553 1.143c.135.46.203 1.003.203 1.63zm-.925 0c0-.546-.044-1.006-.136-1.377s-.215-.67-.37-.897c-.155-.227-.334-.39-.538-.487-.203-.1-.415-.148-.635-.148s-.43.05-.634.148c-.203.098-.38.26-.535.487s-.275.526-.367.897-.137.83-.137 1.377.045 1.005.137 1.375.214.668.368.895.333.39.536.488c.204.098.415.147.635.147s.433-.05.636-.147c.204-.1.383-.26.538-.488.155-.227.278-.525.37-.895s.138-.828.138-1.375zm4.835-1.855c0 .28-.043.53-.13.752-.087.222-.203.41-.348.56-.145.152-.313.268-.505.348s-.394.12-.607.12c-.223 0-.432-.04-.625-.12s-.36-.196-.502-.348c-.142-.15-.252-.338-.333-.56s-.12-.472-.12-.752c0-.287.04-.542.12-.765.08-.223.19-.412.333-.565s.31-.27.502-.35c.193-.08.402-.12.625-.12.227 0 .437.04.63.12.193.08.362.197.505.35.144.153.255.342.335.565.08.223.12.478.12.765zm2.535-1.58c.033-.04.072-.075.118-.105.045-.03.105-.045.182-.045h.645l-5.24 7.02c-.03.043-.068.08-.115.105-.046.027-.103.04-.17.04h-.655l5.235-7.015zm-3.225 1.58c0-.22-.023-.407-.07-.56-.047-.153-.11-.28-.192-.377-.082-.098-.178-.17-.288-.212-.11-.043-.227-.065-.35-.065-.124 0-.238.02-.345.065-.106.043-.2.114-.28.212-.08.1-.144.224-.19.377-.047.153-.07.34-.07.56 0 .217.023.4.07.553.046.15.11.275.19.37.08.095.173.164.28.205.107.042.222.063.345.063.123 0 .24-.02.35-.063.11-.042.206-.11.288-.205.082-.095.146-.218.192-.37.047-.152.07-.336.07-.553zm4.656 3.745c0 .28-.04.53-.13.75-.084.22-.2.406-.345.558-.145.15-.313.267-.505.347-.192.08-.395.12-.608.12-.227 0-.436-.04-.627-.12-.19-.08-.358-.196-.5-.347-.142-.152-.252-.338-.333-.558-.08-.22-.12-.47-.12-.75 0-.287.04-.542.12-.768s.19-.416.333-.57.31-.27.5-.35c.192-.08.4-.12.627-.12.224 0 .433.04.627.12.193.08.36.198.503.35.142.154.253.343.335.568.08.224.12.48.12.767zm-.69 0c0-.22-.022-.408-.07-.563-.046-.155-.11-.28-.19-.377s-.18-.167-.29-.21c-.11-.043-.226-.065-.35-.065-.122 0-.24.02-.346.065-.108.043-.203.113-.283.21s-.142.222-.187.377c-.045.155-.067.342-.067.563 0 .217.022.4.067.55s.107.272.188.368c.08.095.175.163.284.205.108.042.224.063.347.063.125 0 .24-.02.35-.063.11-.042.207-.11.29-.205.08-.095.145-.218.19-.368s.07-.333.07-.55zM18.29 57.275v.4c0 .113-.01.207-.036.28-.025.073-.05.135-.073.185l-2.97 5.985c-.04.086-.102.16-.18.223-.075.062-.176.092-.303.092h-.64l3.01-5.91c.043-.083.087-.16.132-.23.044-.07.095-.137.152-.2h-3.74c-.056 0-.105-.022-.15-.068-.042-.045-.064-.096-.064-.152v-.605h4.865zm5.896 3.585c0 .627-.067 1.17-.203 1.627-.135.458-.32.837-.552 1.138-.23.3-.507.523-.826.67s-.66.22-1.022.22c-.366 0-.707-.074-1.02-.22s-.59-.37-.824-.67c-.233-.3-.417-.68-.55-1.138-.133-.458-.2-1-.2-1.627 0-.626.067-1.17.2-1.63s.316-.84.55-1.143.508-.526.823-.672c.315-.147.656-.22 1.02-.22.365 0 .706.073 1.024.22.318.146.594.37.828.672s.418.683.553 1.143c.135.46.203 1.003.203 1.63zm-.925 0c0-.546-.044-1.006-.136-1.377s-.215-.67-.37-.897c-.155-.227-.334-.39-.538-.487-.203-.1-.415-.15-.635-.15s-.43.05-.634.15c-.203.096-.38.26-.535.485s-.275.526-.367.897-.137.83-.137 1.377.045 1.004.137 1.374.214.668.368.895.333.39.536.487c.204.098.415.147.635.147s.433-.05.636-.147c.204-.1.383-.26.538-.488.155-.228.278-.526.37-.896s.138-.828.138-1.375zm4.835-1.855c0 .28-.043.53-.13.752-.087.222-.203.41-.348.56-.145.152-.313.268-.505.348s-.394.12-.607.12c-.223 0-.432-.04-.625-.12s-.36-.196-.502-.348c-.142-.15-.252-.338-.333-.56s-.12-.472-.12-.752c0-.287.04-.542.12-.765.08-.223.19-.412.333-.565s.31-.27.502-.35c.193-.08.402-.12.625-.12.227 0 .437.04.63.12.193.08.362.197.505.35.144.153.255.342.335.565.08.223.12.478.12.765zm2.535-1.58c.033-.04.072-.075.118-.105.045-.03.105-.045.182-.045h.645l-5.24 7.02c-.03.043-.068.08-.115.105-.046.027-.103.04-.17.04h-.655l5.235-7.015zm-3.225 1.58c0-.22-.023-.407-.07-.56-.047-.153-.11-.28-.192-.377-.082-.098-.178-.17-.288-.212-.11-.043-.227-.065-.35-.065-.124 0-.238.023-.345.067-.106.043-.2.114-.28.212-.08.1-.144.223-.19.376-.047.153-.07.34-.07.56 0 .217.023.4.07.553.046.15.11.274.19.37.08.094.173.163.28.204.107.042.222.063.345.063.123 0 .24-.02.35-.063.11-.042.206-.11.288-.205.082-.096.146-.22.192-.37.047-.153.07-.337.07-.554zm4.656 3.745c0 .28-.04.53-.13.75-.084.22-.2.406-.345.558-.145.15-.313.267-.505.347-.192.08-.395.12-.608.12-.227 0-.436-.04-.627-.12-.19-.08-.358-.196-.5-.347-.142-.152-.252-.338-.333-.558-.08-.22-.12-.47-.12-.75 0-.287.04-.542.12-.768s.19-.414.333-.567.31-.27.5-.35c.192-.08.4-.12.627-.12.224 0 .433.04.627.12.193.08.36.197.503.35.142.153.253.342.335.567.08.226.12.48.12.768zm-.69 0c0-.22-.022-.408-.07-.563-.046-.155-.11-.28-.19-.377s-.18-.167-.29-.21c-.11-.043-.226-.065-.35-.065-.122 0-.24.02-.346.065-.108.043-.203.113-.283.21s-.142.222-.187.377c-.045.155-.067.342-.067.563 0 .217.022.4.067.55s.107.272.188.368c.08.095.175.163.284.205.108.042.224.063.347.063.125 0 .24-.02.35-.063.11-.042.207-.11.29-.205.08-.095.145-.218.19-.368s.07-.333.07-.55zM15.786 39.517c-.356 0-.683-.047-.98-.143s-.552-.23-.765-.408c-.21-.176-.376-.39-.493-.642-.117-.252-.175-.534-.175-.848 0-.46.12-.84.36-1.138.24-.298.584-.51 1.03-.637-.376-.14-.66-.347-.852-.625s-.288-.61-.288-.998c0-.263.052-.51.155-.74.103-.23.25-.43.44-.6.19-.17.417-.303.683-.4.265-.097.56-.145.887-.145.323 0 .618.05.885.146.267.097.495.23.685.4.19.17.336.37.44.6.103.23.155.477.155.74 0 .387-.097.72-.29.998s-.477.487-.85.627c.447.127.79.34 1.03.638s.36.68.36 1.14c0 .312-.06.595-.177.847-.12.25-.284.466-.495.642-.212.176-.466.312-.763.407-.296.096-.622.143-.98.143zm0-.71c.233 0 .442-.033.627-.098s.342-.16.47-.277.227-.26.295-.425c.068-.166.103-.348.103-.548 0-.247-.04-.458-.12-.632-.083-.175-.193-.317-.33-.428-.14-.11-.298-.19-.48-.242-.18-.052-.367-.078-.564-.078s-.385.026-.565.078-.34.132-.477.242c-.138.11-.248.252-.33.428-.082.175-.123.386-.123.632 0 .2.033.383.102.547.068.164.167.306.295.424.128.12.285.21.47.276s.395.097.63.097zm0-3.44c.233 0 .433-.036.598-.108.165-.073.3-.17.402-.287.104-.118.178-.254.225-.408s.07-.312.07-.475c0-.166-.025-.322-.08-.47-.056-.145-.138-.274-.246-.384-.108-.11-.244-.196-.405-.26s-.35-.095-.564-.095-.4.034-.563.097-.296.15-.405.26c-.108.11-.19.24-.245.385s-.083.304-.083.47c0 .165.022.323.07.476.046.153.12.29.224.408.104.118.238.213.403.285.166.07.365.108.6.108zm8.4.49c0 .627-.067 1.17-.203 1.627-.135.458-.32.837-.552 1.138-.23.3-.507.523-.826.67s-.66.22-1.022.22c-.366 0-.707-.074-1.02-.22s-.59-.37-.824-.67c-.233-.3-.417-.68-.55-1.138-.133-.458-.2-1-.2-1.627 0-.626.067-1.17.2-1.63s.316-.84.55-1.143.508-.526.823-.672c.315-.147.656-.22 1.02-.22.365 0 .706.073 1.024.22.318.146.594.37.828.672s.418.683.553 1.143c.135.46.203 1.003.203 1.63zm-.925 0c0-.546-.044-1.006-.136-1.377s-.215-.67-.37-.897c-.155-.227-.334-.39-.538-.487-.203-.1-.415-.148-.635-.148s-.43.05-.634.148c-.203.098-.38.26-.535.487s-.275.526-.367.897-.137.83-.137 1.377.045 1.005.137 1.375.214.668.368.895.333.39.536.488c.204.098.415.147.635.147s.433-.05.636-.147c.204-.1.383-.26.538-.488.155-.227.278-.525.37-.895s.138-.828.138-1.375zm4.835-1.855c0 .28-.043.53-.13.752-.087.222-.203.41-.348.56-.145.152-.313.268-.505.348s-.394.12-.607.12c-.223 0-.432-.04-.625-.12s-.36-.196-.502-.348c-.142-.15-.252-.338-.333-.56s-.12-.472-.12-.752c0-.287.04-.542.12-.765.08-.223.19-.412.333-.565s.31-.27.502-.35c.193-.08.402-.12.625-.12.227 0 .437.04.63.12.193.08.362.197.505.35.144.153.255.342.335.565.08.223.12.478.12.765zm2.535-1.58c.033-.04.072-.075.118-.105.045-.03.105-.045.182-.045h.645l-5.24 7.02c-.03.043-.068.08-.115.105-.046.027-.103.04-.17.04h-.655l5.235-7.015zm-3.225 1.58c0-.22-.023-.407-.07-.56-.047-.153-.11-.28-.192-.377-.082-.098-.178-.17-.288-.212-.11-.043-.227-.065-.35-.065-.124 0-.238.02-.345.065-.106.043-.2.114-.28.212-.08.1-.144.224-.19.377-.047.153-.07.34-.07.56 0 .217.023.4.07.553.046.15.11.275.19.37.08.095.173.164.28.205.107.042.222.063.345.063.123 0 .24-.02.35-.063.11-.042.206-.11.288-.205.082-.095.146-.218.192-.37.047-.152.07-.336.07-.553zm4.656 3.745c0 .28-.04.53-.13.75-.084.22-.2.406-.345.558-.145.15-.313.267-.505.347-.192.08-.395.12-.608.12-.227 0-.436-.04-.627-.12-.19-.08-.358-.196-.5-.347-.142-.152-.252-.338-.333-.558-.08-.22-.12-.47-.12-.75 0-.287.04-.542.12-.768s.19-.416.333-.57.31-.27.5-.35c.192-.08.4-.12.627-.12.224 0 .433.04.627.12.193.08.36.198.503.35.142.154.253.343.335.568.08.225.12.48.12.767zm-.69 0c0-.22-.022-.408-.07-.563-.046-.155-.11-.28-.19-.377s-.18-.167-.29-.21c-.11-.043-.226-.065-.35-.065-.122 0-.24.02-.346.065-.108.043-.203.113-.283.21s-.142.222-.187.377c-.045.155-.067.342-.067.563 0 .217.022.4.067.55s.107.272.188.368c.08.095.175.163.284.205.108.042.224.063.347.063.125 0 .24-.02.35-.063.11-.042.207-.11.29-.205.08-.095.145-.218.19-.368s.07-.333.07-.55zM16.38 11.575c.074-.097.143-.188.206-.275.063-.087.123-.173.18-.26-.183.147-.39.258-.62.335-.23.077-.473.115-.73.115-.27 0-.526-.045-.767-.135-.244-.09-.457-.222-.64-.397-.184-.175-.33-.39-.438-.645-.108-.255-.163-.547-.163-.877 0-.313.06-.606.174-.88.116-.273.28-.512.49-.715.21-.202.46-.36.75-.48s.608-.173.955-.173c.342 0 .654.057.934.17.28.114.52.272.72.475.2.205.354.448.463.73.108.285.162.598.162.94 0 .208-.02.404-.058.59-.04.184-.094.366-.165.544-.072.178-.16.355-.263.53-.104.175-.22.354-.35.538l-1.745 2.52c-.044.063-.106.114-.186.152-.08.04-.172.058-.275.058h-.82l2.18-2.857zm.826-2.18c0-.223-.036-.426-.107-.607s-.173-.336-.3-.462c-.126-.126-.276-.224-.452-.292-.176-.068-.368-.103-.58-.103-.22 0-.42.038-.6.11-.18.07-.334.17-.464.296-.13.127-.23.28-.3.455-.07.178-.105.37-.105.58 0 .228.032.43.1.608.063.18.156.33.28.453.12.125.27.218.443.28.175.064.37.096.588.096.24 0 .453-.04.638-.118.184-.078.34-.182.467-.313.126-.13.223-.28.29-.45.065-.17.1-.345.1-.53zm6.98 1.455c0 .627-.067 1.17-.203 1.627-.135.458-.32.837-.552 1.138-.23.3-.507.523-.826.67s-.66.22-1.022.22c-.366 0-.707-.074-1.02-.22s-.59-.37-.824-.67c-.233-.3-.417-.68-.55-1.138-.133-.458-.2-1-.2-1.627 0-.626.067-1.17.2-1.63s.316-.84.55-1.143.508-.526.823-.672c.315-.147.656-.22 1.02-.22.365 0 .706.073 1.024.22.318.146.594.37.828.672s.418.683.553 1.143c.135.46.203 1.004.203 1.63zm-.925 0c0-.546-.044-1.006-.136-1.377s-.215-.67-.37-.897c-.155-.227-.334-.39-.538-.487-.203-.1-.415-.15-.635-.15s-.43.05-.634.15c-.203.096-.38.26-.535.485s-.275.526-.367.897-.137.83-.137 1.377.045 1.004.137 1.374.214.668.368.895.333.39.536.487c.204.098.415.147.635.147s.433-.05.636-.147c.204-.1.383-.26.538-.488.155-.228.278-.526.37-.896s.138-.828.138-1.375zm4.835-1.855c0 .28-.043.53-.13.752-.087.222-.203.41-.348.56-.145.152-.313.268-.505.348s-.394.12-.607.12c-.223 0-.432-.04-.625-.12s-.36-.196-.502-.348c-.142-.15-.252-.338-.333-.56s-.12-.472-.12-.752c0-.287.04-.542.12-.765.08-.223.19-.412.333-.565s.31-.27.502-.35c.193-.08.402-.12.625-.12.227 0 .437.04.63.12.193.08.362.197.505.35.144.153.255.342.335.565.08.224.12.478.12.765zm2.535-1.58c.033-.04.072-.075.118-.105.045-.03.105-.045.182-.045h.645l-5.24 7.02c-.03.043-.068.08-.115.105-.046.027-.103.04-.17.04h-.655l5.235-7.015zm-3.225 1.58c0-.22-.023-.407-.07-.56-.047-.153-.11-.28-.192-.377-.082-.098-.178-.17-.288-.212-.11-.043-.227-.065-.35-.065-.124 0-.238.023-.345.067-.106.043-.2.114-.28.212-.08.1-.144.223-.19.376-.047.153-.07.34-.07.56 0 .217.023.4.07.553.046.15.11.274.19.37.08.094.173.163.28.204.107.042.222.063.345.063.123 0 .24-.02.35-.063.11-.042.206-.11.288-.205.082-.096.146-.22.192-.37.047-.153.07-.337.07-.554zm4.656 3.745c0 .28-.04.53-.13.75-.084.22-.2.406-.345.558-.145.15-.313.267-.505.347-.192.08-.395.12-.608.12-.227 0-.436-.04-.627-.12-.19-.08-.358-.196-.5-.347-.142-.152-.252-.338-.333-.558-.08-.22-.12-.47-.12-.75 0-.287.04-.542.12-.768s.19-.414.333-.567.31-.27.5-.35c.192-.08.4-.12.627-.12.224 0 .433.04.627.12.193.08.36.197.503.35.142.153.253.342.335.567.08.226.12.482.12.768zm-.69 0c0-.22-.022-.408-.07-.563-.046-.155-.11-.28-.19-.377s-.18-.167-.29-.21c-.11-.043-.226-.065-.35-.065-.122 0-.24.02-.346.065-.108.043-.203.113-.283.21s-.142.222-.187.377c-.045.155-.067.342-.067.563 0 .217.022.4.067.55s.107.272.188.368c.08.095.175.163.284.205.108.042.224.063.347.063.125 0 .24-.02.35-.063.11-.042.207-.11.29-.205.08-.095.145-.218.19-.368s.07-.333.07-.55zM30.082 249.01h1.535v-4.885c0-.14.005-.288.015-.444l-1.275 1.097c-.043.037-.086.06-.13.067-.043.01-.083.01-.12.003s-.07-.02-.103-.04c-.032-.02-.056-.042-.072-.065l-.28-.384 2.135-1.845h.725v6.5h1.41v.68h-3.84v-.68zm8.045-2.175c.073-.096.142-.188.205-.274.063-.085.123-.172.18-.26-.183.148-.39.26-.62.337-.23.076-.473.114-.73.114-.27 0-.526-.044-.767-.134-.242-.09-.455-.223-.638-.397-.184-.176-.33-.39-.438-.646s-.165-.548-.165-.878c0-.313.06-.606.175-.88.117-.273.28-.512.49-.715s.46-.362.75-.48c.29-.115.61-.174.956-.174.343 0 .655.057.935.17.28.113.52.27.72.476.2.204.356.447.465.73.108.283.162.597.162.94 0 .206-.02.402-.057.587-.04.185-.095.366-.166.544-.072.18-.16.355-.263.53s-.22.354-.35.537l-1.743 2.52c-.043.064-.105.115-.185.153s-.17.058-.274.058h-.82l2.18-2.854zm.825-2.18c0-.223-.036-.426-.107-.607s-.17-.336-.297-.463c-.127-.126-.277-.224-.453-.292-.175-.068-.367-.103-.578-.103-.22 0-.42.036-.6.107-.18.072-.335.17-.465.298-.13.126-.23.278-.3.455s-.105.37-.105.58c0 .227.032.43.098.607.065.178.158.33.28.452s.27.215.445.28c.175.06.37.093.588.093.24 0 .452-.04.637-.117s.34-.183.468-.313c.126-.13.223-.28.29-.45.065-.168.1-.345.1-.53zm3.85.555c-.067.08-.128.16-.185.235l-.17.226c.17-.115.357-.206.563-.27.205-.065.427-.098.667-.098.29 0 .563.048.82.144.257.095.48.233.672.415.19.18.342.404.456.67.113.265.17.567.17.907 0 .33-.06.637-.18.92s-.288.53-.502.74c-.215.21-.474.375-.775.495-.303.12-.635.18-1 .18-.36 0-.686-.057-.98-.172-.292-.114-.54-.278-.747-.49-.205-.21-.363-.468-.475-.77s-.168-.64-.168-1.013c0-.313.07-.647.208-1.002.138-.355.36-.734.663-1.138l1.82-2.445c.048-.06.11-.11.193-.152s.176-.063.283-.063h.79l-2.126 2.685zm-.975 2.27c0 .23.033.44.1.63.066.19.164.354.292.49s.283.242.47.317.394.112.63.112c.24 0 .46-.04.653-.117.195-.076.362-.183.5-.32s.245-.298.32-.484c.075-.188.113-.39.113-.61 0-.233-.037-.444-.11-.633-.074-.188-.178-.35-.313-.48-.135-.132-.296-.232-.483-.303-.186-.07-.39-.104-.614-.104-.24 0-.457.042-.65.123-.193.082-.358.192-.493.33-.135.14-.238.3-.31.48s-.106.37-.106.567zm7.285-5.035c.303 0 .583.044.84.13.256.087.478.21.663.37s.33.354.432.58c.104.227.155.48.155.755 0 .227-.03.43-.087.607-.06.18-.142.335-.25.47-.108.136-.24.25-.393.343-.153.094-.325.17-.515.226.467.123.817.33 1.053.62.235.29.353.653.353 1.09 0 .33-.063.626-.188.89s-.296.487-.513.673c-.217.183-.47.324-.757.423-.29.1-.598.147-.928.147-.38 0-.705-.047-.975-.142s-.498-.226-.685-.393c-.187-.167-.34-.364-.46-.593-.12-.228-.222-.476-.305-.742l.385-.16c.1-.043.198-.055.292-.035.093.02.162.075.206.165.043.094.098.205.163.335s.153.255.267.375.257.222.433.306c.176.083.398.125.668.125.25 0 .47-.04.657-.12.188-.08.345-.19.47-.318s.22-.273.282-.434.095-.318.095-.476c0-.193-.025-.37-.075-.53-.05-.16-.143-.298-.28-.414-.137-.117-.324-.21-.563-.275s-.544-.1-.917-.1v-.645c.307-.003.567-.036.782-.1.213-.063.39-.15.523-.26.135-.11.233-.242.295-.396.06-.154.09-.324.09-.51 0-.208-.03-.388-.097-.54-.064-.154-.153-.28-.266-.38-.114-.102-.248-.177-.403-.227-.154-.05-.32-.075-.5-.075s-.348.027-.5.08c-.157.054-.294.128-.41.223-.12.097-.22.21-.3.34s-.136.272-.17.43c-.042.116-.097.193-.162.23-.066.04-.16.05-.283.034l-.465-.08c.047-.327.137-.616.27-.868.133-.25.303-.463.508-.633.205-.17.44-.3.705-.388.264-.088.55-.13.857-.13zM80.34 249.01h1.534v-4.885c0-.14.005-.288.015-.444l-1.277 1.097c-.043.037-.086.06-.13.067-.043.01-.083.01-.12.003s-.07-.02-.103-.04c-.03-.02-.055-.042-.07-.065l-.28-.384 2.134-1.845h.725v6.5h1.41v.68h-3.84v-.68zm8.044-2.175c.073-.096.142-.188.205-.274l.18-.26c-.185.148-.39.26-.62.337-.23.076-.475.114-.73.114-.27 0-.528-.044-.77-.134-.24-.09-.454-.223-.637-.397-.184-.176-.33-.39-.438-.646s-.163-.548-.163-.878c0-.313.06-.606.175-.88.116-.273.28-.512.49-.715s.46-.362.75-.48c.29-.115.608-.174.955-.174.343 0 .655.057.935.17.28.113.52.27.72.476.2.204.354.447.463.73.11.283.163.597.163.94 0 .206-.02.402-.057.587-.04.185-.094.366-.165.544-.07.18-.157.355-.26.53s-.22.354-.35.537l-1.746 2.52c-.043.064-.105.115-.185.153s-.173.058-.276.058h-.82l2.18-2.854zm.825-2.18c0-.223-.038-.426-.11-.607s-.17-.336-.296-.463c-.127-.126-.277-.224-.453-.292-.174-.068-.366-.103-.577-.103-.22 0-.42.036-.6.107-.18.072-.335.17-.465.298-.13.126-.23.278-.3.455s-.106.37-.106.58c0 .227.032.43.098.607.065.178.158.33.28.452s.27.215.445.28c.175.06.37.093.588.093.24 0 .452-.04.637-.117s.34-.183.468-.313c.126-.13.223-.28.29-.45.066-.168.1-.345.1-.53zm3.85.555c-.068.08-.13.16-.186.235l-.17.226c.17-.115.357-.206.563-.27.205-.065.427-.098.667-.098.29 0 .563.048.82.144.257.095.48.233.672.415.192.18.344.404.458.67.113.265.17.567.17.907 0 .33-.06.637-.18.92s-.288.53-.502.74c-.215.21-.474.375-.775.495-.302.12-.634.18-.998.18-.36 0-.69-.057-.98-.172-.295-.114-.544-.278-.75-.49-.205-.21-.363-.468-.475-.77s-.167-.64-.167-1.013c0-.313.068-.647.207-1.002.138-.355.36-.734.663-1.138l1.82-2.445c.047-.06.11-.11.192-.152s.176-.063.283-.063h.79l-2.126 2.685zm-.976 2.27c0 .23.033.44.1.63.066.19.164.354.292.49s.285.242.47.317.396.112.633.112c.24 0 .456-.04.65-.117.195-.076.362-.183.5-.32s.245-.298.32-.484c.075-.188.113-.39.113-.61 0-.233-.037-.444-.11-.633-.074-.188-.178-.35-.313-.48-.134-.132-.295-.232-.482-.303-.187-.07-.392-.104-.615-.104-.24 0-.457.042-.65.123-.193.082-.358.192-.493.33-.135.14-.238.3-.31.48s-.106.37-.106.567zm7.196 2.29c-.357 0-.684-.047-.98-.142s-.553-.23-.766-.407-.378-.39-.495-.64-.177-.535-.177-.85c0-.46.12-.84.36-1.137.24-.298.583-.51 1.03-.638-.377-.14-.66-.35-.853-.627s-.287-.61-.287-.998c0-.264.052-.51.155-.74.103-.23.25-.43.44-.6s.417-.304.683-.4c.267-.097.563-.146.89-.146.322 0 .617.05.884.146.267.097.495.23.685.4.19.17.335.37.44.6.102.23.154.477.154.74 0 .386-.097.72-.29.997s-.477.487-.85.627c.447.127.79.34 1.03.638.24.3.36.678.36 1.138 0 .313-.06.596-.177.848-.12.252-.284.466-.495.643-.21.18-.465.315-.762.41-.296.094-.622.142-.98.142zm0-.71c.232 0 .44-.03.626-.097s.342-.156.47-.275c.128-.118.227-.26.295-.425s.105-.348.105-.547c0-.247-.04-.458-.123-.633s-.19-.317-.33-.428c-.137-.11-.296-.19-.477-.242-.18-.052-.368-.078-.565-.078s-.385.026-.565.078-.34.133-.478.242c-.138.11-.248.253-.33.428-.082.175-.123.386-.123.633 0 .2.034.382.103.547s.167.307.295.425c.128.12.285.21.47.275s.395.098.63.098zm0-3.44c.232 0 .432-.035.597-.107.165-.07.3-.166.402-.285.102-.118.176-.254.223-.407s.07-.31.07-.473c0-.167-.027-.323-.083-.47-.054-.147-.136-.275-.244-.386-.108-.11-.244-.195-.405-.26s-.347-.094-.56-.094-.4.03-.564.095-.296.15-.405.26c-.107.11-.19.24-.244.386-.055.147-.083.304-.083.47 0 .164.023.322.07.476.047.154.122.29.225.408.104.12.238.214.403.285.167.072.366.107.6.107zM130.59 249.01h1.535v-4.885c0-.14.005-.288.015-.444l-1.275 1.097c-.043.037-.086.06-.13.067-.043.01-.083.01-.12.003s-.07-.02-.103-.04c-.032-.02-.056-.042-.072-.065l-.28-.384 2.135-1.845h.725v6.5h1.41v.68h-3.84v-.68zm8.045-2.175c.073-.096.142-.188.205-.274.063-.085.123-.172.18-.26-.183.148-.39.26-.62.337-.23.076-.473.114-.73.114-.27 0-.526-.044-.767-.134-.242-.09-.455-.223-.638-.397-.184-.176-.33-.39-.438-.646s-.163-.548-.163-.878c0-.313.06-.606.175-.88.114-.273.28-.512.49-.715s.46-.362.75-.48c.29-.115.606-.174.953-.174.343 0 .655.057.935.17.28.113.52.27.72.476.2.204.353.447.462.73.108.283.162.597.162.94 0 .206-.02.402-.057.587-.04.185-.094.366-.165.544-.072.18-.16.355-.263.53s-.22.354-.35.537l-1.746 2.52c-.042.064-.104.115-.184.153s-.173.058-.276.058h-.82l2.18-2.854zm.824-2.18c0-.223-.038-.426-.11-.607s-.17-.336-.296-.463c-.127-.126-.277-.224-.453-.292-.174-.068-.366-.103-.577-.103-.22 0-.42.036-.6.107-.18.072-.335.17-.465.298-.13.126-.23.278-.3.455s-.106.37-.106.58c0 .227.032.43.098.607.065.178.158.33.28.452s.27.215.445.28c.175.06.37.093.588.093.24 0 .452-.04.637-.117s.34-.183.468-.313c.126-.13.223-.28.29-.45.066-.168.1-.345.1-.53zm6.884-2.13v.4c0 .113-.012.206-.037.28-.025.072-.05.135-.073.185l-2.97 5.984c-.043.087-.104.16-.18.223s-.178.093-.305.093h-.64l3.01-5.91c.04-.083.085-.16.13-.23s.096-.136.153-.2h-3.74c-.057 0-.106-.02-.15-.066s-.065-.096-.065-.152v-.605h4.864zm3.276-.08c.303 0 .583.044.84.13.256.087.478.21.663.37s.33.354.432.58c.104.227.155.48.155.755 0 .227-.03.43-.087.607-.06.18-.142.335-.25.47-.108.136-.24.25-.393.343-.153.094-.325.17-.515.226.467.123.817.33 1.053.62.235.29.353.653.353 1.09 0 .33-.06.626-.186.89s-.296.487-.513.673c-.216.183-.47.324-.756.423-.29.1-.598.147-.928.147-.38 0-.705-.047-.975-.142s-.497-.226-.684-.393c-.187-.167-.34-.364-.46-.593-.12-.228-.222-.476-.305-.742l.386-.16c.1-.043.198-.055.292-.035.095.02.164.075.208.165.043.094.098.205.163.335s.153.255.267.375.257.222.433.306c.174.083.396.125.666.125.25 0 .47-.04.657-.12.188-.08.345-.19.47-.318s.22-.273.282-.434.095-.318.095-.476c0-.193-.025-.37-.075-.53-.05-.16-.143-.298-.28-.414-.137-.117-.324-.21-.563-.275s-.544-.1-.917-.1v-.645c.307-.003.567-.036.782-.1.215-.063.39-.15.525-.26.135-.11.233-.242.295-.396.062-.154.092-.324.092-.51 0-.208-.034-.388-.1-.54-.065-.154-.154-.28-.267-.38-.114-.102-.248-.177-.403-.227-.154-.05-.32-.075-.5-.075s-.35.027-.503.08c-.155.054-.292.128-.41.223-.118.097-.217.21-.297.34s-.137.272-.17.43c-.043.116-.098.193-.163.23-.065.04-.16.05-.282.034l-.465-.08c.047-.327.137-.616.27-.868.133-.25.303-.463.508-.633.205-.17.44-.3.705-.388.264-.088.55-.13.857-.13zM180.84 249.01h1.536v-4.885c0-.14.005-.288.015-.444l-1.273 1.097c-.043.037-.086.06-.13.067-.043.01-.083.01-.12.003s-.07-.02-.103-.04c-.032-.02-.056-.042-.072-.065l-.28-.384 2.136-1.845h.725v6.5h1.41v.68h-3.84v-.68zm8.046-2.175c.073-.096.142-.188.205-.274.065-.085.125-.172.18-.26-.18.148-.39.26-.62.337-.23.076-.47.114-.73.114-.27 0-.524-.044-.765-.134-.242-.09-.455-.223-.638-.397-.184-.176-.33-.39-.438-.646s-.164-.548-.164-.878c0-.313.06-.606.175-.88.117-.273.28-.512.49-.715s.46-.362.75-.48c.29-.115.61-.174.956-.174.343 0 .655.057.935.17.28.113.52.27.72.476.2.204.355.447.464.73.108.283.162.597.162.94 0 .206-.02.402-.057.587-.04.185-.095.366-.166.544-.072.18-.16.355-.263.53s-.22.354-.35.537l-1.744 2.52c-.043.064-.105.115-.185.153s-.17.058-.274.058h-.82l2.18-2.854zm.824-2.18c0-.223-.036-.426-.107-.607s-.17-.336-.297-.463c-.127-.126-.277-.224-.453-.292-.175-.068-.367-.103-.578-.103-.22 0-.42.036-.6.107-.18.072-.335.17-.465.298-.13.126-.23.278-.3.455s-.105.37-.105.58c0 .227.032.43.098.607.065.178.158.33.28.452s.27.215.445.28c.175.06.37.093.588.093.24 0 .452-.04.637-.117s.34-.183.468-.313.225-.28.29-.45c.068-.168.1-.345.1-.53zm6.885-2.13v.4c0 .113-.012.206-.037.28-.025.072-.05.135-.073.185l-2.97 5.984c-.043.087-.104.16-.18.223s-.178.093-.305.093h-.64l3.01-5.91c.043-.083.087-.16.132-.23.045-.07.096-.136.153-.2h-3.74c-.057 0-.106-.02-.15-.066s-.065-.096-.065-.152v-.605h4.865zm3.185 7.245c-.356 0-.683-.047-.98-.142s-.552-.23-.765-.407-.378-.39-.495-.64-.175-.535-.175-.85c0-.46.12-.84.36-1.137.24-.298.583-.51 1.03-.638-.377-.14-.66-.35-.853-.627s-.288-.61-.288-.998c0-.264.052-.51.155-.74.1-.23.25-.43.44-.6s.415-.304.68-.4c.266-.097.56-.146.888-.146.322 0 .617.05.884.146.267.097.495.23.685.4.19.17.335.37.44.6.102.23.154.477.154.74 0 .386-.096.72-.29.997s-.476.487-.85.627c.448.127.79.34 1.03.638.24.3.36.678.36 1.138 0 .313-.06.596-.176.848-.12.252-.284.466-.495.643-.213.18-.467.315-.764.41-.296.094-.623.142-.98.142zm0-.71c.233 0 .442-.03.627-.097s.342-.156.47-.275c.128-.118.227-.26.295-.425s.103-.348.103-.547c0-.247-.04-.458-.123-.633s-.192-.317-.33-.428c-.138-.11-.297-.19-.478-.242-.18-.052-.368-.078-.565-.078s-.387.026-.567.078-.34.133-.478.242c-.138.11-.248.253-.33.428-.082.175-.123.386-.123.633 0 .2.034.382.103.547s.167.307.295.425c.13.12.286.21.47.275s.397.098.63.098zm0-3.44c.233 0 .433-.035.598-.107.165-.07.3-.166.402-.285.104-.118.178-.254.225-.407s.07-.31.07-.473c0-.167-.027-.323-.083-.47-.055-.147-.137-.275-.245-.386-.108-.11-.244-.195-.405-.26s-.35-.094-.563-.094-.403.03-.565.095-.296.15-.405.26c-.107.11-.19.24-.244.386-.055.147-.083.304-.083.47 0 .164.023.322.07.476.047.154.122.29.225.408.104.12.238.214.403.285.17.072.368.107.6.107zM231.09 249.01h1.536v-4.885c0-.14.005-.288.015-.444l-1.273 1.097c-.043.037-.086.06-.13.067-.043.01-.083.01-.12.003s-.07-.02-.103-.04c-.032-.02-.056-.042-.072-.065l-.28-.384 2.136-1.845h.725v6.5h1.41v.68h-3.84v-.68zm8.046-2.175c.073-.096.142-.188.205-.274.065-.085.125-.172.18-.26-.18.148-.39.26-.62.337-.23.076-.47.114-.73.114-.27 0-.524-.044-.765-.134-.242-.09-.455-.223-.638-.397-.184-.176-.33-.39-.438-.646s-.164-.548-.164-.878c0-.313.06-.606.175-.88.117-.273.28-.512.49-.715s.46-.362.75-.48c.29-.115.61-.174.956-.174.343 0 .655.057.935.17.28.113.52.27.72.476.2.204.355.447.464.73.108.283.162.597.162.94 0 .206-.02.402-.057.587-.04.185-.095.366-.166.544-.072.18-.16.355-.263.53s-.22.354-.35.537l-1.744 2.52c-.043.064-.105.115-.185.153s-.17.058-.274.058h-.82l2.18-2.854zm.825-2.18c0-.223-.034-.426-.105-.607s-.17-.336-.297-.463c-.127-.126-.277-.224-.453-.292-.175-.068-.367-.103-.578-.103-.22 0-.42.036-.6.107-.18.072-.335.17-.465.298-.13.126-.23.278-.3.455s-.104.37-.104.58c0 .227.032.43.098.607.065.178.158.33.28.452s.27.215.445.28c.175.06.37.093.588.093.24 0 .452-.04.637-.117s.34-.183.468-.313c.126-.13.223-.28.29-.45.066-.168.1-.345.1-.53zm4.38 5.115c-.355 0-.682-.047-.98-.142s-.55-.23-.764-.407-.378-.39-.495-.64-.173-.535-.173-.85c0-.46.12-.84.36-1.137.24-.298.583-.51 1.03-.638-.377-.14-.66-.35-.853-.627s-.288-.61-.288-.998c0-.264.052-.51.155-.74.104-.23.25-.43.44-.6s.418-.304.684-.4c.265-.097.56-.146.887-.146.324 0 .62.05.886.146.267.097.495.23.685.4.19.17.337.37.44.6.104.23.156.477.156.74 0 .386-.097.72-.29.997s-.477.487-.85.627c.447.127.79.34 1.03.638.24.3.36.678.36 1.138 0 .313-.06.596-.177.848-.12.252-.285.466-.496.643-.212.18-.466.315-.763.41-.295.094-.62.142-.98.142zm0-.71c.234 0 .443-.03.628-.097s.342-.156.47-.275c.128-.118.227-.26.295-.425s.103-.348.103-.547c0-.247-.04-.458-.123-.633s-.192-.317-.33-.428c-.138-.11-.297-.19-.478-.242-.18-.052-.368-.078-.565-.078s-.385.026-.565.078-.34.133-.478.242c-.138.11-.248.253-.33.428-.082.175-.123.386-.123.633 0 .2.034.382.103.547s.167.307.295.425c.128.12.285.21.47.275s.395.098.63.098zm0-3.44c.234 0 .434-.035.6-.107.164-.07.298-.166.4-.285.105-.118.18-.254.226-.407s.07-.31.07-.473c0-.167-.027-.323-.083-.47-.055-.147-.137-.275-.245-.386-.108-.11-.244-.195-.405-.26s-.35-.094-.563-.094-.4.03-.563.095-.296.15-.405.26c-.108.11-.19.24-.245.386-.055.147-.083.304-.083.47 0 .164.023.322.07.476.047.154.122.29.225.408.102.12.236.214.4.285.167.072.366.107.6.107zm5.78-3.175c.304 0 .584.044.84.13.257.087.48.21.664.37s.33.354.432.58c.104.227.155.48.155.755 0 .227-.027.43-.085.607-.06.18-.142.335-.25.47-.108.136-.24.25-.393.343-.152.094-.324.17-.514.226.467.123.817.33 1.053.62.235.29.353.653.353 1.09 0 .33-.063.626-.188.89s-.296.487-.513.673c-.216.183-.468.324-.756.423-.29.1-.598.147-.928.147-.38 0-.705-.047-.975-.142s-.497-.226-.684-.393c-.188-.167-.34-.364-.46-.593-.12-.228-.223-.476-.306-.742l.386-.16c.1-.043.198-.055.292-.035.095.02.164.075.208.165.043.094.098.205.163.335s.153.255.267.375.257.222.433.306c.175.083.397.125.667.125.25 0 .47-.04.657-.12.188-.08.345-.19.47-.318s.22-.273.282-.434.094-.318.094-.476c0-.193-.024-.37-.074-.53-.05-.16-.143-.298-.28-.414-.137-.117-.324-.21-.563-.275s-.544-.1-.917-.1v-.645c.307-.003.567-.036.782-.1.215-.063.39-.15.525-.26.135-.11.233-.242.295-.396.062-.154.092-.324.092-.51 0-.208-.032-.388-.098-.54-.065-.154-.154-.28-.267-.38-.115-.102-.25-.177-.404-.227-.155-.05-.322-.075-.502-.075s-.348.027-.502.08c-.155.054-.292.128-.41.223-.118.097-.217.21-.297.34s-.136.272-.17.43c-.042.116-.097.193-.162.23-.065.04-.16.05-.282.034l-.464-.08c.048-.327.138-.616.27-.868.134-.25.304-.463.51-.633.204-.17.44-.3.704-.388.264-.088.55-.13.857-.13zM281.342 249.01h1.535v-4.885c0-.14.005-.288.015-.444l-1.274 1.097c-.044.037-.087.06-.13.067-.043.01-.083.01-.12.003s-.07-.02-.103-.04c-.032-.02-.056-.042-.072-.065l-.28-.384 2.135-1.845h.725v6.5h1.41v.68h-3.84v-.68zm8.045-2.175c.073-.096.142-.188.205-.274s.123-.172.18-.26c-.184.148-.39.26-.62.337-.23.076-.473.114-.73.114-.27 0-.525-.044-.767-.134-.242-.09-.454-.223-.638-.397s-.33-.39-.438-.646-.164-.548-.164-.878c0-.313.058-.606.175-.88.117-.273.28-.512.49-.715s.46-.362.75-.48c.29-.115.608-.174.955-.174.344 0 .655.057.936.17s.52.27.72.476c.2.204.355.447.464.73s.162.597.162.94c0 .206-.02.402-.058.587-.04.185-.094.366-.166.544-.07.18-.16.355-.262.53-.104.175-.22.354-.35.537l-1.746 2.52c-.043.064-.104.115-.185.153s-.17.058-.275.058h-.82l2.18-2.854zm.825-2.18c0-.223-.036-.426-.107-.607-.072-.182-.17-.336-.298-.463-.127-.126-.277-.224-.452-.292-.176-.068-.368-.103-.578-.103-.22 0-.42.036-.6.107-.18.072-.335.17-.465.298-.13.126-.23.278-.3.455-.07.177-.105.37-.105.58 0 .227.032.43.098.607.064.178.158.33.28.452.12.12.27.215.444.28s.37.093.586.093c.24 0 .452-.04.638-.117.185-.078.34-.183.467-.313s.225-.28.29-.45c.068-.168.1-.345.1-.53zm4.38 5.115c-.357 0-.684-.047-.98-.142s-.552-.23-.765-.407c-.214-.175-.38-.39-.495-.64-.117-.253-.175-.535-.175-.85 0-.46.12-.84.36-1.137.24-.298.583-.51 1.03-.638-.378-.14-.662-.35-.854-.627s-.287-.61-.287-.998c0-.264.052-.51.154-.74.104-.23.25-.43.44-.6.19-.17.417-.304.683-.4.265-.097.56-.146.888-.146.325 0 .62.05.887.146s.495.23.685.4c.19.17.338.37.44.6.105.23.156.477.156.74 0 .386-.097.72-.29.997s-.478.487-.85.627c.446.127.79.34 1.03.638.24.3.36.678.36 1.138 0 .313-.06.596-.18.848s-.282.466-.494.643-.466.315-.763.41-.62.142-.977.142zm0-.71c.232 0 .442-.03.627-.097.184-.065.34-.156.47-.275.127-.118.226-.26.294-.425.067-.165.102-.348.102-.547 0-.247-.04-.458-.122-.633s-.19-.317-.33-.428c-.14-.11-.298-.19-.478-.242s-.368-.078-.564-.078c-.197 0-.386.026-.565.078s-.34.133-.478.242c-.14.11-.25.253-.33.428s-.123.386-.123.633c0 .2.034.382.103.547s.167.307.296.425c.128.12.285.21.47.275s.392.098.626.098zm0-3.44c.232 0 .432-.035.597-.107.163-.07.3-.166.4-.285.104-.118.18-.254.226-.407s.07-.31.07-.473c0-.167-.027-.323-.083-.47-.055-.147-.137-.275-.245-.386-.11-.11-.244-.195-.405-.26-.162-.062-.35-.094-.563-.094-.214 0-.4.03-.563.095-.163.064-.298.15-.406.26-.107.11-.19.24-.244.386-.056.147-.083.304-.083.47 0 .164.022.322.07.476s.12.29.225.408c.103.12.237.214.402.285.165.072.364.107.598.107zm5.688 4.15c-.356 0-.683-.047-.98-.142s-.55-.23-.764-.407c-.214-.175-.38-.39-.495-.64-.115-.253-.173-.535-.173-.85 0-.46.12-.84.36-1.137.24-.298.583-.51 1.03-.638-.378-.14-.662-.35-.854-.627s-.287-.61-.287-.998c0-.264.052-.51.154-.74.103-.23.25-.43.44-.6.188-.17.416-.304.682-.4.265-.097.56-.146.888-.146.323 0 .618.05.885.146s.495.23.685.4c.19.17.337.37.44.6.104.23.155.477.155.74 0 .386-.097.72-.29.997s-.478.487-.85.627c.446.127.79.34 1.03.638.24.3.36.678.36 1.138 0 .313-.06.596-.18.848s-.282.466-.494.643-.464.315-.76.41-.62.142-.978.142zm0-.71c.233 0 .443-.03.628-.097.186-.065.342-.156.47-.275.13-.118.228-.26.296-.425.067-.165.102-.348.102-.547 0-.247-.04-.458-.122-.633s-.19-.317-.33-.428c-.14-.11-.298-.19-.478-.242s-.368-.078-.564-.078c-.197 0-.386.026-.565.078s-.34.133-.478.242c-.14.11-.25.253-.33.428s-.124.386-.124.633c0 .2.034.382.103.547s.165.307.294.425c.128.12.285.21.47.275s.393.098.626.098zm0-3.44c.233 0 .433-.035.598-.107.165-.07.3-.166.403-.285.105-.118.18-.254.227-.407s.07-.31.07-.473c0-.167-.027-.323-.083-.47-.055-.147-.137-.275-.245-.386-.11-.11-.244-.195-.405-.26-.162-.062-.35-.094-.563-.094-.213 0-.4.03-.562.095-.162.064-.297.15-.405.26-.108.11-.19.24-.245.386-.055.147-.082.304-.082.47 0 .164.022.322.07.476s.12.29.225.408c.104.12.238.214.403.285.166.072.365.107.598.107zM331.593 249.01h1.535v-4.885c0-.14.005-.288.015-.444l-1.274 1.097c-.046.037-.09.06-.133.067-.043.01-.083.01-.12.003-.036-.007-.07-.02-.102-.04-.032-.02-.057-.042-.073-.065l-.28-.384 2.136-1.845h.724v6.5h1.41v.68h-3.84v-.68zm8.045-2.175c.073-.096.142-.188.205-.274s.123-.172.18-.26c-.184.148-.39.26-.62.337-.23.076-.473.114-.73.114-.27 0-.525-.044-.767-.134-.242-.09-.454-.223-.638-.397s-.33-.39-.438-.646-.162-.548-.162-.878c0-.313.058-.606.175-.88.116-.273.28-.512.49-.715s.46-.362.75-.48c.29-.115.607-.174.954-.174.344 0 .655.057.936.17s.52.27.72.476c.2.204.354.447.463.73s.162.597.162.94c0 .206-.02.402-.058.587-.038.185-.093.366-.165.544-.07.18-.16.355-.262.53-.104.175-.22.354-.35.537l-1.746 2.52c-.043.064-.104.115-.185.153s-.172.058-.275.058h-.82l2.18-2.854zm.825-2.18c0-.223-.036-.426-.107-.607-.072-.182-.17-.336-.298-.463-.127-.126-.277-.224-.452-.292-.176-.068-.368-.103-.578-.103-.22 0-.42.036-.6.107-.18.072-.335.17-.465.298-.13.126-.23.278-.3.455-.07.177-.105.37-.105.58 0 .227.032.43.098.607.064.178.158.33.28.452.12.12.27.215.444.28s.37.093.588.093c.24 0 .452-.04.638-.117.185-.078.34-.183.467-.313s.224-.28.29-.45c.067-.168.1-.345.1-.53zm4.975 2.18c.073-.096.142-.188.205-.274s.123-.172.18-.26c-.184.148-.39.26-.62.337-.23.076-.473.114-.73.114-.27 0-.525-.044-.767-.134-.242-.09-.454-.223-.638-.397s-.33-.39-.438-.646-.162-.548-.162-.878c0-.313.058-.606.175-.88.116-.273.28-.512.49-.715s.46-.362.75-.48c.29-.115.607-.174.954-.174.344 0 .655.057.936.17s.52.27.72.476c.2.204.354.447.463.73s.162.597.162.94c0 .206-.02.402-.058.587-.038.185-.093.366-.165.544-.07.18-.16.355-.262.53-.104.175-.22.354-.35.537l-1.746 2.52c-.043.064-.104.115-.185.153s-.172.058-.275.058h-.82l2.18-2.854zm.825-2.18c0-.223-.036-.426-.107-.607-.072-.182-.17-.336-.298-.463-.127-.126-.277-.224-.452-.292-.176-.068-.368-.103-.578-.103-.22 0-.42.036-.6.107-.18.072-.335.17-.465.298-.13.126-.23.278-.3.455-.07.177-.105.37-.105.58 0 .227.032.43.098.607.064.178.158.33.28.452.12.12.27.215.444.28s.37.093.588.093c.24 0 .452-.04.638-.117.185-.078.34-.183.467-.313s.224-.28.29-.45c.066-.168.1-.345.1-.53zm4.36-2.21c.302 0 .582.044.84.13.256.087.477.21.66.37.187.16.33.354.434.58s.155.48.155.755c0 .227-.03.43-.088.607-.058.18-.142.335-.25.47-.108.136-.24.25-.393.343-.15.094-.322.17-.513.226.467.123.817.33 1.053.62.233.29.352.653.352 1.09 0 .33-.063.626-.188.89s-.296.487-.513.673c-.215.183-.47.324-.756.423s-.598.147-.927.147c-.38 0-.705-.047-.976-.142-.27-.095-.497-.226-.684-.393-.188-.167-.34-.364-.46-.593-.12-.228-.222-.476-.306-.742l.385-.16c.1-.043.197-.055.292-.035.095.02.164.075.208.165.043.094.097.205.162.335s.154.255.268.375.258.222.433.306c.175.083.397.125.667.125.25 0 .47-.04.658-.12.188-.08.345-.19.47-.318s.22-.273.282-.434.095-.318.095-.476c0-.193-.024-.37-.074-.53-.05-.16-.144-.298-.28-.414-.137-.117-.324-.21-.563-.275s-.544-.1-.918-.1v-.645c.307-.003.567-.036.783-.1.215-.063.39-.15.524-.26.135-.11.233-.242.295-.396s.093-.324.093-.51c0-.208-.032-.388-.098-.54-.064-.154-.154-.28-.268-.38-.113-.102-.247-.177-.402-.227s-.322-.075-.502-.075-.348.027-.503.08c-.155.054-.292.128-.41.223-.118.097-.218.21-.297.34-.08.13-.137.272-.17.43-.044.116-.098.193-.163.23-.065.04-.16.05-.282.034l-.465-.08c.046-.327.137-.616.27-.868.134-.25.303-.463.508-.633s.44-.3.705-.388c.266-.088.552-.13.86-.13zM381.85 249.01h1.535v-4.885c0-.14.005-.288.015-.444l-1.274 1.097c-.044.037-.087.06-.13.067-.044.01-.084.01-.12.003-.037-.007-.07-.02-.103-.04-.032-.02-.057-.042-.073-.065l-.28-.384 2.136-1.845h.725v6.5h1.41v.68h-3.84v-.68zm8.045-2.175c.073-.096.142-.188.205-.274s.123-.172.18-.26c-.184.148-.39.26-.62.337-.23.076-.473.114-.73.114-.27 0-.525-.044-.767-.134-.242-.09-.454-.223-.638-.397s-.33-.39-.438-.646-.162-.548-.162-.878c0-.313.058-.606.175-.88.116-.273.28-.512.49-.715s.46-.362.75-.48c.29-.115.607-.174.954-.174.344 0 .655.057.936.17s.52.27.72.476c.2.204.354.447.463.73s.162.597.162.94c0 .206-.02.402-.058.587-.038.185-.093.366-.165.544-.07.18-.16.355-.262.53-.104.175-.22.354-.35.537l-1.746 2.52c-.043.064-.104.115-.185.153s-.174.058-.277.058h-.82l2.18-2.854zm.825-2.18c0-.223-.036-.426-.107-.607-.072-.182-.17-.336-.298-.463-.127-.126-.277-.224-.452-.292-.176-.068-.368-.103-.578-.103-.22 0-.42.036-.6.107-.18.072-.335.17-.465.298-.13.126-.23.278-.3.455-.07.177-.105.37-.105.58 0 .227.032.43.098.607.064.178.158.33.28.452.12.12.27.215.444.28s.37.093.588.093c.24 0 .452-.04.638-.117.185-.078.34-.183.467-.313s.224-.28.29-.45c.067-.168.1-.345.1-.53zm4.974 2.18c.073-.096.142-.188.205-.274s.12-.172.18-.26c-.186.148-.39.26-.62.337-.23.076-.475.114-.73.114-.27 0-.527-.044-.77-.134-.24-.09-.453-.223-.637-.397s-.33-.39-.438-.646-.162-.548-.162-.878c0-.313.058-.606.175-.88.115-.273.28-.512.49-.715s.46-.362.75-.48c.29-.115.606-.174.953-.174.345 0 .656.057.937.17s.52.27.72.476c.2.204.353.447.462.73s.16.597.16.94c0 .206-.02.402-.057.587-.038.185-.093.366-.165.544-.07.18-.158.355-.26.53-.105.175-.222.354-.352.537l-1.745 2.52c-.042.064-.103.115-.184.153s-.172.058-.275.058h-.82l2.18-2.854zm.826-2.18c0-.223-.036-.426-.107-.607-.072-.182-.17-.336-.298-.463-.127-.126-.277-.224-.452-.292-.176-.068-.368-.103-.578-.103-.22 0-.42.036-.6.107-.18.072-.335.17-.465.298-.13.126-.23.278-.3.455-.07.177-.105.37-.105.58 0 .227.032.43.098.607.064.178.158.33.28.452.12.12.27.215.444.28s.37.093.588.093c.24 0 .452-.04.638-.117.185-.078.34-.183.467-.313s.224-.28.29-.45c.066-.168.1-.345.1-.53zm4.27 5.115c-.358 0-.685-.047-.98-.142s-.553-.23-.766-.407c-.214-.175-.38-.39-.495-.64-.12-.253-.177-.535-.177-.85 0-.46.12-.84.36-1.137.24-.298.583-.51 1.03-.638-.378-.14-.662-.35-.854-.627s-.288-.61-.288-.998c0-.264.052-.51.154-.74.104-.23.25-.43.44-.6.19-.17.417-.304.683-.4.264-.097.56-.146.887-.146.323 0 .618.05.885.146s.495.23.685.4c.19.17.337.37.44.6.104.23.155.477.155.74 0 .386-.097.72-.29.997s-.478.487-.85.627c.446.127.79.34 1.03.638.24.3.36.678.36 1.138 0 .313-.06.596-.18.848s-.282.466-.494.643-.467.315-.764.41-.62.142-.977.142zm0-.71c.23 0 .44-.03.626-.097.186-.065.342-.156.47-.275.13-.118.228-.26.296-.425.067-.165.102-.348.102-.547 0-.247-.04-.458-.122-.633s-.19-.317-.33-.428c-.14-.11-.298-.19-.478-.242s-.368-.078-.564-.078c-.197 0-.386.026-.565.078s-.34.133-.478.242c-.14.11-.248.253-.33.428s-.122.386-.122.633c0 .2.034.382.103.547s.166.307.295.425c.128.12.285.21.47.275s.393.098.626.098zm0-3.44c.23 0 .43-.035.596-.107.165-.07.3-.166.403-.285.1-.118.176-.254.223-.407s.07-.31.07-.473c0-.167-.027-.323-.083-.47-.054-.147-.136-.275-.244-.386-.108-.11-.243-.195-.404-.26-.162-.062-.35-.094-.563-.094-.216 0-.403.03-.565.095-.162.064-.297.15-.405.26-.107.11-.19.24-.244.386-.055.147-.082.304-.082.47 0 .164.022.322.07.476s.12.29.225.408c.1.12.235.214.4.285.165.072.365.107.6.107zM433.806 242.445c.303 0 .587.045.85.135.264.09.492.222.686.393.193.172.345.38.455.628.11.248.165.528.165.84 0 .27-.04.517-.12.744-.08.23-.188.446-.325.652-.137.207-.294.41-.473.605s-.367.396-.567.596l-1.89 1.93c.133-.036.268-.065.404-.087s.27-.033.398-.033h2.4c.096 0 .173.028.23.085s.084.13.084.22v.54h-4.78v-.304c0-.063.015-.13.04-.195.028-.065.07-.127.126-.184l2.295-2.307c.19-.193.364-.38.522-.558.156-.178.29-.357.4-.537.11-.18.194-.362.255-.548.06-.185.09-.382.09-.592s-.033-.395-.1-.553c-.067-.158-.158-.29-.273-.393s-.25-.182-.407-.233c-.157-.053-.325-.08-.505-.08-.184 0-.352.027-.505.08-.153.054-.29.128-.408.223-.12.096-.218.208-.298.338s-.137.274-.17.43c-.04.118-.095.195-.163.233-.07.04-.164.05-.287.033l-.465-.08c.047-.327.138-.616.272-.868.134-.25.304-.462.51-.632s.438-.3.7-.388c.264-.088.55-.132.856-.132zm8.344 3.665c0 .627-.067 1.17-.202 1.628-.136.458-.32.837-.553 1.137-.233.3-.51.523-.827.67-.318.147-.66.22-1.023.22-.366 0-.707-.072-1.022-.22-.314-.146-.59-.37-.822-.67-.23-.3-.415-.68-.55-1.137-.132-.46-.2-1-.2-1.628s.068-1.17.2-1.63c.135-.46.318-.84.55-1.143s.51-.525.824-.673c.315-.146.656-.22 1.022-.22.363 0 .705.073 1.023.22.316.147.593.37.826.673s.417.683.553 1.143c.134.46.2 1.003.2 1.63zm-.924 0c0-.547-.046-1.006-.138-1.377-.092-.372-.215-.67-.37-.898-.155-.227-.334-.39-.537-.487-.202-.098-.413-.147-.634-.147-.22 0-.432.05-.635.15-.202.1-.38.26-.534.486-.153.228-.275.526-.367.898-.093.37-.14.83-.14 1.377s.047 1.006.14 1.376.213.668.366.896c.153.228.332.39.535.488.204.098.416.147.636.147.22 0 .432-.05.636-.147.204-.1.383-.26.538-.487.155-.227.278-.524.37-.895s.138-.828.138-1.375zm6.724 0c0 .627-.067 1.17-.202 1.628-.136.458-.32.837-.553 1.137-.233.3-.51.523-.827.67-.318.147-.66.22-1.023.22-.366 0-.707-.072-1.022-.22-.314-.146-.59-.37-.822-.67-.23-.3-.415-.68-.55-1.137-.132-.46-.2-1-.2-1.628s.068-1.17.2-1.63c.135-.46.318-.84.55-1.143s.51-.525.824-.673c.315-.146.656-.22 1.022-.22.363 0 .705.073 1.023.22.316.147.593.37.826.673s.417.683.553 1.143c.134.46.2 1.003.2 1.63zm-.925 0c0-.547-.046-1.006-.138-1.377-.092-.372-.215-.67-.37-.898-.155-.227-.334-.39-.537-.487-.204-.098-.415-.147-.636-.147-.22 0-.432.05-.635.15-.205.1-.384.26-.537.486-.153.228-.275.526-.367.898-.092.37-.138.83-.138 1.377s.045 1.006.137 1.376.214.668.367.896c.153.228.332.39.535.488.202.098.414.147.634.147.22 0 .433-.05.637-.147.203-.1.382-.26.537-.487.155-.227.278-.524.37-.895s.138-.828.138-1.375zm4.105-3.665c.303 0 .583.044.84.13.257.087.478.21.662.37.186.16.33.354.433.58s.155.48.155.755c0 .227-.03.43-.088.607-.058.18-.142.335-.25.47-.108.136-.24.25-.393.343-.155.094-.326.17-.517.226.467.123.817.33 1.053.62.234.29.353.653.353 1.09 0 .33-.064.626-.19.89s-.295.487-.512.673c-.218.183-.47.324-.76.423s-.597.147-.926.147c-.38 0-.705-.047-.976-.142-.27-.095-.498-.226-.685-.393-.187-.167-.34-.364-.46-.593-.12-.228-.22-.476-.305-.742l.386-.16c.1-.043.198-.055.293-.035.095.02.164.075.208.165.044.094.098.205.163.335s.154.255.268.375.26.222.434.306c.175.083.397.125.667.125.25 0 .47-.04.66-.12.19-.08.345-.19.47-.318s.22-.273.282-.434.095-.318.095-.476c0-.193-.024-.37-.074-.53-.05-.16-.144-.298-.28-.414-.137-.117-.324-.21-.563-.275s-.543-.1-.917-.1v-.645c.307-.003.567-.036.783-.1.215-.063.39-.15.524-.26.135-.11.233-.242.295-.396s.093-.324.093-.51c0-.208-.032-.388-.098-.54-.064-.154-.154-.28-.268-.38-.113-.102-.247-.177-.402-.227s-.322-.075-.502-.075-.348.027-.503.08c-.155.054-.292.128-.41.223-.118.097-.218.21-.297.34-.08.13-.137.272-.17.43-.044.116-.098.193-.163.23-.065.04-.16.05-.282.034l-.465-.08c.046-.327.137-.616.27-.868.134-.25.303-.463.508-.633s.44-.3.705-.388c.268-.088.554-.13.86-.13zM484.063 242.445c.303 0 .587.045.85.135.264.09.492.222.686.393.19.172.343.38.453.628.11.248.165.528.165.84 0 .27-.04.517-.12.744-.08.23-.19.446-.326.652-.137.207-.294.41-.473.605s-.367.396-.567.596l-1.89 1.93c.133-.036.268-.065.404-.087s.27-.033.396-.033h2.4c.096 0 .173.028.23.085s.084.13.084.22v.54h-4.78v-.304c0-.063.014-.13.04-.195.027-.065.068-.127.125-.184l2.295-2.307c.19-.193.363-.38.52-.558.157-.178.29-.357.4-.537.11-.18.195-.362.256-.548.06-.185.09-.382.09-.592s-.033-.395-.1-.553c-.067-.158-.158-.29-.273-.393s-.25-.182-.406-.233c-.157-.053-.325-.08-.505-.08-.186 0-.354.027-.507.08-.153.054-.29.128-.408.223-.118.096-.217.208-.297.338s-.138.274-.17.43c-.04.118-.096.195-.164.233-.068.04-.164.05-.287.033l-.466-.08c.048-.327.14-.616.273-.868.135-.25.305-.462.51-.632s.44-.3.702-.388c.263-.088.548-.132.855-.132zm8.344 3.665c0 .627-.067 1.17-.202 1.628-.136.458-.32.837-.553 1.137-.233.3-.51.523-.827.67-.318.147-.66.22-1.023.22-.366 0-.707-.072-1.022-.22-.314-.146-.59-.37-.822-.67-.233-.3-.417-.68-.55-1.137-.134-.46-.2-1-.2-1.628s.066-1.17.2-1.63c.133-.46.316-.84.55-1.143s.508-.525.822-.673c.315-.146.656-.22 1.022-.22.363 0 .705.073 1.023.22.317.147.594.37.827.673s.417.683.553 1.143c.135.46.202 1.003.202 1.63zm-.925 0c0-.547-.046-1.006-.138-1.377-.092-.372-.215-.67-.37-.898-.155-.227-.334-.39-.537-.487-.204-.098-.415-.147-.636-.147-.22 0-.43.05-.633.15-.203.1-.382.26-.535.486-.152.228-.274.526-.366.898-.092.37-.138.83-.138 1.377s.046 1.006.138 1.376.214.668.367.896c.154.228.333.39.536.488.202.098.414.147.634.147.222 0 .433-.05.637-.147.204-.1.383-.26.538-.487.155-.227.278-.524.37-.895s.138-.828.138-1.375zm6.725 0c0 .627-.067 1.17-.202 1.628-.136.458-.32.837-.553 1.137-.233.3-.51.523-.827.67-.318.147-.66.22-1.023.22-.366 0-.707-.072-1.022-.22-.314-.146-.59-.37-.822-.67-.233-.3-.417-.68-.55-1.137-.134-.46-.2-1-.2-1.628s.066-1.17.2-1.63c.133-.46.316-.84.55-1.143s.508-.525.822-.673c.315-.146.656-.22 1.022-.22.363 0 .705.073 1.023.22.317.147.594.37.827.673s.417.683.553 1.143c.135.46.202 1.003.202 1.63zm-.925 0c0-.547-.046-1.006-.138-1.377-.092-.372-.215-.67-.37-.898-.155-.227-.334-.39-.537-.487-.204-.098-.415-.147-.636-.147-.22 0-.43.05-.633.15-.203.1-.382.26-.535.486-.152.228-.274.526-.366.898-.092.37-.138.83-.138 1.377s.046 1.006.138 1.376.214.668.367.896c.154.228.333.39.536.488.202.098.414.147.634.147.222 0 .433-.05.637-.147.204-.1.383-.26.538-.487.155-.227.278-.524.37-.895s.138-.828.138-1.375zm4.015 3.66c-.357 0-.684-.047-.98-.142s-.552-.23-.765-.407c-.214-.175-.38-.39-.495-.64-.117-.253-.175-.535-.175-.85 0-.46.12-.84.36-1.137.24-.298.583-.51 1.03-.638-.378-.14-.662-.35-.854-.627s-.287-.61-.287-.998c0-.264.054-.51.156-.74.104-.23.25-.43.44-.6.19-.17.417-.304.683-.4.264-.097.56-.146.887-.146.323 0 .618.05.885.146s.496.23.686.4c.19.17.337.37.44.6.104.23.155.477.155.74 0 .386-.096.72-.29.997s-.477.487-.85.627c.447.127.79.34 1.03.638.24.3.36.678.36 1.138 0 .313-.06.596-.178.848s-.283.466-.495.643-.466.315-.763.41-.62.142-.977.142zm0-.71c.232 0 .442-.03.627-.097.186-.065.342-.156.47-.275.13-.118.228-.26.296-.425.067-.165.102-.348.102-.547 0-.247-.04-.458-.122-.633s-.19-.317-.33-.428c-.14-.11-.298-.19-.478-.242s-.368-.078-.564-.078c-.197 0-.386.026-.565.078s-.34.133-.478.242c-.14.11-.248.253-.33.428s-.122.386-.122.633c0 .2.034.382.103.547s.166.307.295.425c.13.12.287.21.47.275s.394.098.628.098zm0-3.44c.232 0 .432-.035.597-.107.165-.07.3-.166.403-.285.103-.118.178-.254.225-.407s.07-.31.07-.473c0-.167-.027-.323-.083-.47-.057-.147-.14-.275-.247-.386-.108-.11-.243-.195-.404-.26-.163-.062-.35-.094-.564-.094-.214 0-.4.03-.563.095-.162.064-.297.15-.405.26-.11.11-.19.24-.246.386-.055.147-.082.304-.082.47 0 .164.022.322.07.476s.12.29.225.408c.103.12.237.214.402.285.164.072.363.107.597.107zM534.307 242.445c.303 0 .587.045.85.135.264.09.492.222.686.393.193.172.345.38.455.628.11.248.165.528.165.84 0 .27-.04.517-.12.744-.08.23-.188.446-.325.652-.137.207-.294.41-.473.605s-.367.396-.567.596l-1.89 1.93c.133-.036.268-.065.404-.087s.27-.033.396-.033h2.4c.096 0 .173.028.23.085s.084.13.084.22v.54h-4.78v-.304c0-.063.014-.13.04-.195.027-.065.068-.127.125-.184l2.295-2.307c.19-.193.363-.38.52-.558.157-.178.29-.357.4-.537.11-.18.195-.362.256-.548.06-.185.09-.382.09-.592s-.033-.395-.1-.553c-.067-.158-.158-.29-.273-.393s-.25-.182-.407-.233c-.157-.053-.325-.08-.505-.08-.184 0-.352.027-.505.08-.153.054-.29.128-.408.223-.118.096-.217.208-.297.338s-.137.274-.17.43c-.04.118-.095.195-.163.233-.068.04-.164.05-.287.033l-.465-.08c.047-.327.138-.616.272-.868.135-.25.305-.462.51-.632s.44-.3.702-.388c.263-.088.548-.132.855-.132zm8.343 3.665c0 .627-.066 1.17-.2 1.628-.137.458-.32.837-.554 1.137-.233.3-.51.523-.827.67-.32.147-.66.22-1.025.22-.366 0-.707-.072-1.022-.22-.314-.146-.59-.37-.822-.67-.232-.3-.416-.68-.55-1.137-.133-.46-.2-1-.2-1.628s.067-1.17.2-1.63c.134-.46.317-.84.55-1.143s.51-.525.823-.673c.315-.146.656-.22 1.022-.22.363 0 .705.073 1.023.22.316.147.593.37.826.673s.417.683.553 1.143c.134.46.2 1.003.2 1.63zm-.923 0c0-.547-.046-1.006-.138-1.377-.094-.372-.217-.67-.37-.898-.157-.227-.336-.39-.54-.487-.203-.098-.414-.147-.635-.147-.22 0-.432.05-.635.15-.202.1-.38.26-.534.486-.153.228-.275.526-.367.898-.094.37-.14.83-.14 1.377s.046 1.006.14 1.376.212.668.365.896c.153.228.332.39.535.488.204.098.416.147.636.147.22 0 .432-.05.636-.147.203-.1.382-.26.537-.487.153-.227.276-.524.37-.895s.136-.828.136-1.375zm2.473 2.9h1.536v-4.885c0-.14.005-.288.015-.444l-1.272 1.097c-.044.037-.087.06-.13.067-.044.01-.084.01-.12.003-.037-.007-.07-.02-.103-.04-.032-.02-.057-.042-.073-.065l-.278-.384 2.135-1.845h.724v6.5h1.41v.68h-3.84v-.68zm7.43-6.565c.304 0 .584.044.84.13.258.087.48.21.663.37.186.16.33.354.433.58s.155.48.155.755c0 .227-.027.43-.086.607-.058.18-.142.335-.25.47-.108.136-.24.25-.393.343-.152.094-.323.17-.514.226.467.123.817.33 1.053.62.233.29.352.653.352 1.09 0 .33-.062.626-.187.89s-.296.487-.513.673c-.217.183-.47.324-.758.423s-.598.147-.927.147c-.38 0-.705-.047-.976-.142-.27-.095-.5-.226-.685-.393-.188-.167-.34-.364-.46-.593-.12-.228-.222-.476-.306-.742l.385-.16c.1-.043.197-.055.292-.035.095.02.164.075.208.165.043.094.097.205.162.335s.154.255.268.375.258.222.433.306c.175.083.397.125.667.125.25 0 .47-.04.658-.12.188-.08.345-.19.47-.318s.22-.273.282-.434.095-.318.095-.476c0-.193-.025-.37-.075-.53-.05-.16-.144-.298-.28-.414-.137-.117-.324-.21-.563-.275s-.544-.1-.918-.1v-.645c.307-.003.567-.036.783-.1.215-.063.39-.15.524-.26.137-.11.235-.242.297-.396s.093-.324.093-.51c0-.208-.033-.388-.1-.54-.063-.154-.153-.28-.267-.38-.113-.102-.247-.177-.402-.227s-.32-.075-.5-.075-.35.027-.503.08c-.155.054-.292.128-.41.223-.118.097-.218.21-.297.34-.08.13-.138.272-.172.43-.043.116-.097.193-.162.23-.065.04-.16.05-.282.034l-.465-.08c.044-.327.135-.616.27-.868.132-.25.3-.463.506-.633s.44-.3.705-.388c.267-.088.553-.13.86-.13z" fill="#4E4E4E"/><path d="M232.53 154.68c-.497.15-1.03.225-1.598.225-.708 0-1.35-.11-1.923-.33-.576-.22-1.066-.525-1.473-.918s-.72-.86-.938-1.404c-.22-.543-.33-1.14-.33-1.78 0-.653.104-1.25.316-1.796.212-.543.514-1.012.903-1.404.39-.39.862-.695 1.42-.912.554-.213 1.18-.322 1.87-.322.352 0 .68.03.987.084.306.058.59.136.852.233s.5.217.716.357c.217.14.414.293.595.46l-.46.733c-.073.115-.167.188-.283.213s-.242-.004-.378-.088c-.133-.074-.266-.15-.397-.227s-.278-.142-.44-.198c-.162-.055-.345-.102-.546-.137-.202-.037-.436-.055-.7-.055-.428 0-.814.072-1.16.217-.346.143-.642.35-.885.617-.244.268-.433.59-.564.967-.133.376-.2.796-.2 1.26 0 .497.072.94.215 1.33.142.39.342.72.6.99s.57.476.933.616c.364.143.77.213 1.22.213.318 0 .604-.032.856-.1s.498-.157.738-.272v-1.577h-1.092c-.104 0-.186-.03-.243-.086-.06-.06-.087-.13-.087-.215v-.91h2.88v3.51c-.442.323-.91.56-1.41.71zm5.422-6.123c.456 0 .87.074 1.245.22.374.15.693.36.96.632.266.27.47.602.615.994.144.393.216.83.216 1.314 0 .487-.072.927-.216 1.32-.145.39-.35.724-.615 1-.267.276-.586.487-.96.636s-.79.223-1.245.223c-.46 0-.878-.075-1.254-.224s-.697-.36-.963-.635c-.267-.276-.473-.61-.618-1-.146-.394-.22-.833-.22-1.32 0-.485.073-.923.22-1.315.146-.393.352-.725.618-.996.266-.272.587-.483.963-.632.376-.147.794-.22 1.254-.22zm0 5.2c.512 0 .89-.17 1.137-.515s.367-.848.367-1.512-.123-1.17-.37-1.518c-.245-.35-.624-.523-1.136-.523-.52 0-.904.174-1.154.523s-.375.855-.375 1.516.126 1.16.376 1.507c.25.348.635.52 1.155.52zm6.905-5.2c.456 0 .87.074 1.245.22.374.15.693.36.96.632.266.27.47.602.615.994.144.393.216.83.216 1.314 0 .487-.072.927-.216 1.32-.145.39-.35.724-.615 1-.267.276-.586.487-.96.636s-.79.223-1.245.223c-.46 0-.878-.075-1.254-.224s-.697-.36-.963-.635c-.267-.276-.473-.61-.618-1-.146-.394-.22-.833-.22-1.32 0-.485.073-.923.22-1.315.146-.393.352-.725.618-.996.266-.272.587-.483.963-.632.376-.147.794-.22 1.254-.22zm0 5.2c.512 0 .89-.17 1.137-.515s.37-.848.37-1.512-.124-1.17-.37-1.518c-.246-.35-.625-.523-1.137-.523-.52 0-.905.174-1.155.523s-.375.855-.375 1.516.125 1.16.375 1.507c.25.348.635.52 1.155.52zm8.49 1.053c-.195 0-.32-.09-.37-.27l-.127-.597c-.128.145-.262.275-.4.39-.142.116-.292.218-.454.302s-.336.148-.522.195c-.186.045-.387.068-.603.068-.334 0-.643-.07-.923-.21-.28-.14-.52-.343-.723-.608-.202-.268-.357-.596-.468-.988s-.165-.84-.165-1.344c0-.455.063-.88.187-1.27s.303-.733.534-1.02c.233-.29.51-.515.835-.677s.688-.24 1.092-.24c.345 0 .64.055.883.164.242.11.46.258.652.44v-3.25h1.482v8.915h-.906zm-1.973-1.087c.308 0 .57-.064.786-.193.216-.127.42-.31.61-.545v-2.76c-.167-.205-.35-.348-.548-.432s-.41-.127-.64-.127c-.224 0-.425.043-.605.127s-.334.21-.462.38-.226.386-.294.647c-.066.264-.1.572-.1.928 0 .36.028.666.087.916.058.25.14.453.25.61.106.16.238.272.395.343s.332.106.524.106zm8.064-3.87c-.04.063-.082.11-.126.134-.044.027-.1.04-.168.04-.072 0-.15-.02-.23-.06-.083-.04-.178-.086-.286-.135-.107-.05-.23-.096-.37-.137-.137-.04-.3-.06-.487-.06-.29 0-.52.062-.686.187-.166.123-.25.285-.25.486 0 .13.044.242.13.332s.2.17.343.238c.142.066.303.13.482.182.18.055.362.113.55.178.185.064.367.137.547.22.18.08.342.185.483.312.14.125.255.277.34.453s.13.387.13.635c0 .297-.053.57-.158.82-.106.25-.264.465-.472.646-.208.184-.465.324-.77.428-.308.102-.66.152-1.06.152-.213 0-.42-.02-.622-.057-.2-.04-.396-.092-.582-.16-.186-.066-.357-.146-.516-.24-.158-.092-.297-.19-.417-.3l.342-.563c.044-.068.097-.12.156-.156.06-.035.138-.053.23-.053.093 0 .18.025.26.076.084.055.18.11.287.17.107.06.234.117.38.17.147.05.332.076.556.076.176 0 .327-.02.453-.063.126-.04.23-.096.312-.164s.143-.15.18-.24.058-.18.058-.276c0-.145-.043-.264-.13-.355s-.2-.173-.34-.24c-.144-.067-.306-.13-.487-.183-.183-.055-.37-.113-.56-.178-.19-.065-.375-.14-.56-.226-.18-.086-.342-.195-.483-.328-.143-.13-.256-.293-.343-.484-.086-.192-.13-.423-.13-.696 0-.252.052-.492.15-.72.1-.228.248-.427.442-.597.193-.17.436-.308.726-.41s.626-.152 1.006-.152c.424 0 .81.07 1.158.21.348.14.638.323.87.552l-.336.532z" fill="#903F98"/><path d="M196.722 43.05c-.048.083-.1.144-.153.182-.056.038-.123.057-.2.057-.086 0-.178-.03-.275-.095-.098-.062-.215-.13-.35-.207-.138-.077-.297-.146-.48-.208-.18-.062-.395-.093-.644-.093-.224 0-.42.026-.587.08s-.31.13-.424.225c-.114.097-.2.21-.256.346-.056.135-.084.28-.084.44 0 .205.06.375.172.51.114.138.266.254.453.35.188.096.402.182.643.258.24.076.485.157.737.243s.498.186.738.3.454.26.642.432c.188.175.34.388.453.64.114.252.17.558.17.918 0 .393-.065.76-.2 1.102-.134.342-.33.64-.587.895-.257.254-.57.454-.943.6-.372.146-.798.22-1.278.22-.276 0-.55-.027-.816-.082-.27-.054-.525-.13-.77-.23-.247-.1-.478-.22-.694-.36-.217-.14-.408-.296-.576-.468l.474-.774c.04-.056.092-.103.156-.14.063-.04.132-.058.204-.058.1 0 .208.04.323.123.118.082.256.173.416.272.16.1.348.19.562.273s.47.123.77.123c.46 0 .817-.11 1.07-.327s.377-.533.377-.94c0-.23-.057-.415-.17-.56-.115-.144-.266-.264-.454-.362-.187-.1-.4-.182-.64-.25-.24-.067-.485-.142-.733-.222s-.492-.176-.73-.288c-.24-.112-.455-.258-.644-.438-.188-.18-.34-.404-.453-.675-.115-.27-.172-.603-.172-1 0-.314.063-.623.19-.923s.308-.565.548-.798.536-.418.888-.558c.353-.14.756-.21 1.212-.21.512 0 .984.08 1.416.24.433.16.8.383 1.104.67l-.404.76zm4.254.845c.39 0 .746.063 1.074.186.328.126.61.308.847.545.235.238.42.53.555.876.134.348.2.74.2 1.187 0 .224-.023.375-.07.453s-.14.116-.277.116h-3.81c.024.315.08.59.168.818.088.23.204.42.348.57.147.15.317.262.516.336.197.074.417.11.656.11.24 0 .448-.027.622-.083.174-.057.326-.118.456-.187.13-.067.244-.13.342-.186.1-.057.193-.084.285-.084.124 0 .216.046.276.138l.427.54c-.164.192-.348.354-.552.483s-.417.235-.64.314c-.222.078-.447.133-.678.165-.23.03-.453.047-.67.047-.427 0-.825-.07-1.192-.213-.368-.142-.688-.352-.96-.63s-.486-.622-.643-1.032-.233-.884-.233-1.424c0-.42.066-.815.202-1.185.137-.37.33-.69.585-.966.254-.273.563-.49.93-.65s.78-.24 1.24-.24zm.03 1.06c-.432 0-.77.123-1.014.367s-.4.59-.468 1.038h2.796c0-.19-.027-.373-.08-.543s-.136-.318-.244-.447c-.108-.128-.245-.23-.41-.303s-.36-.11-.58-.11zm3.828 5.19V43.99h.87c.15 0 .258.027.317.08.063.055.1.152.12.292l.086.696c.196-.368.426-.657.69-.867.264-.21.575-.312.936-.312.285 0 .513.062.685.186l-.096 1.11c-.02.07-.05.123-.087.152-.038.03-.09.045-.153.045-.06 0-.15-.01-.268-.03-.118-.02-.233-.03-.345-.03-.164 0-.31.026-.438.074s-.245.116-.347.207c-.103.09-.192.2-.27.327-.078.13-.15.274-.22.438v3.792h-1.48zm3.796-6.155h1.226c.11 0 .205.026.278.078.074.052.123.118.147.198l1.19 3.288c.064.19.12.38.165.563.046.185.09.368.13.553.04-.185.083-.368.132-.553.048-.184.105-.372.174-.563l1.213-3.288c.028-.08.078-.146.15-.198.07-.052.157-.078.258-.078h1.17l-2.44 6.156h-1.345l-2.443-6.156zm8.707-1.794c0 .128-.025.248-.078.36-.054.112-.12.21-.21.294-.085.084-.186.15-.302.2s-.24.076-.373.076c-.128 0-.25-.025-.362-.075-.114-.05-.214-.115-.298-.2s-.15-.18-.2-.293c-.05-.112-.075-.232-.075-.36 0-.132.024-.256.075-.372.05-.115.116-.216.2-.3s.184-.15.298-.2c.113-.05.234-.076.362-.076.132 0 .256.024.372.074.115.05.216.117.302.2.086.085.154.186.206.3.052.117.077.24.077.373zm-.204 1.794v6.156h-1.487V43.99h1.487zm5.91 1.303c-.044.056-.087.1-.13.132s-.102.048-.182.048c-.074 0-.15-.023-.22-.07-.072-.045-.16-.097-.26-.155-.1-.058-.22-.11-.355-.155s-.31-.07-.513-.07c-.26 0-.487.048-.684.142-.196.095-.36.23-.49.405s-.226.39-.29.64c-.063.25-.096.532-.096.85 0 .327.035.62.105.875.07.256.17.47.303.645.132.175.292.307.48.396.187.09.4.135.636.135.235 0 .427-.027.572-.085.146-.058.27-.122.37-.192.1-.07.187-.134.26-.19.074-.06.157-.088.25-.088.12 0 .21.046.27.138l.426.54c-.164.192-.342.354-.534.483-.19.13-.39.233-.597.312s-.417.133-.635.165-.436.048-.65.048c-.38 0-.74-.07-1.075-.212s-.63-.35-.882-.62c-.25-.272-.45-.605-.596-1-.145-.394-.218-.843-.218-1.347 0-.45.064-.87.194-1.256.13-.387.32-.72.573-1.002.25-.28.563-.502.936-.662.37-.16.8-.24 1.282-.24.46 0 .862.074 1.208.222.347.148.657.36.934.637l-.39.535zm3.864-1.398c.39 0 .746.063 1.074.186.33.126.61.308.85.545.234.238.42.53.554.876.134.348.2.74.2 1.187 0 .224-.023.375-.07.453s-.14.116-.277.116h-3.81c.024.315.08.59.168.818.088.23.204.42.348.57.145.15.315.262.514.336.197.074.417.11.656.11.24 0 .447-.027.62-.083.175-.057.327-.118.457-.187.13-.067.243-.13.34-.186.1-.057.194-.084.286-.084.124 0 .216.046.276.138l.426.54c-.164.192-.348.354-.552.483s-.417.235-.64.314c-.222.078-.447.133-.678.165-.23.03-.453.047-.67.047-.427 0-.825-.07-1.192-.213-.368-.142-.688-.352-.96-.63s-.486-.622-.643-1.032-.233-.884-.233-1.424c0-.42.067-.815.203-1.185.137-.37.33-.69.585-.966.255-.273.564-.49.93-.65s.78-.24 1.24-.24zm.03 1.06c-.43 0-.77.123-1.013.367s-.4.59-.468 1.038h2.796c0-.19-.027-.373-.08-.543s-.136-.318-.244-.447c-.108-.128-.245-.23-.41-.303s-.36-.11-.58-.11zm7.585.235c-.04.064-.082.11-.126.135-.044.026-.1.04-.168.04-.072 0-.15-.02-.23-.06s-.178-.086-.286-.136c-.107-.053-.23-.098-.37-.138-.137-.04-.3-.06-.487-.06-.292 0-.52.062-.688.186s-.25.285-.25.485c0 .132.044.243.13.333s.2.17.343.237c.142.067.303.13.482.183s.363.113.55.177c.186.064.368.138.548.22.18.082.342.186.483.312s.256.277.342.453.13.388.13.636c0 .296-.054.57-.16.82-.105.25-.263.465-.47.646-.21.183-.466.324-.772.427-.307.1-.66.15-1.06.15-.212 0-.42-.018-.62-.056-.202-.037-.397-.09-.583-.16-.186-.065-.357-.145-.516-.24-.158-.09-.297-.19-.417-.3l.342-.56c.042-.07.095-.12.154-.157s.136-.054.228-.054c.093 0 .18.024.262.076.082.052.177.107.285.167.106.06.233.116.38.17.146.05.33.076.555.076.176 0 .327-.02.453-.064s.228-.097.31-.165.144-.146.182-.236.057-.183.057-.278c0-.145-.044-.263-.13-.354s-.2-.172-.342-.24c-.143-.067-.305-.13-.486-.183s-.37-.114-.56-.178c-.19-.064-.375-.14-.56-.226-.18-.086-.342-.194-.483-.327-.143-.133-.256-.295-.343-.486-.086-.192-.13-.424-.13-.696 0-.252.052-.492.15-.72.1-.23.248-.427.442-.598.192-.17.435-.306.725-.407.29-.103.626-.153 1.006-.153.424 0 .81.07 1.158.21s.638.324.87.552l-.336.534z" fill="#4DAF4E"/></svg>