<svg xmlns="http://www.w3.org/2000/svg" width="561" height="252" viewBox="0 0 561 252"><path fill="none" stroke="#CDCCCC" stroke-width=".5" stroke-linejoin="round" stroke-miterlimit="10" d="M35.286 203.255H548.8M35.285 171.59H548.8M35.285 139.93H548.8M35.285 108.19H548.8M35.285 76.53H548.8M35.285 44.864H548.8M35.285 13.128H548.8"/><path fill="none" stroke="#9B9B9B" stroke-linejoin="round" stroke-miterlimit="10" d="M35.286 234.99H548.8m-513.514-1.758v3.518m65.938-3.518v3.518m66.04-3.518v3.518m65.937-3.518v3.518m65.94-3.518v3.518m66.04-3.518v3.518m65.938-3.518v3.518m66.038-3.518v3.518"/><path fill="none" stroke="#FFC30D" stroke-width="2.16" stroke-linecap="round" stroke-linejoin="round" stroke-miterlimit="10" d="M35.286 133.55h3.22l1.108-1.538 1.108-1.613 1.107-1.614 1.106-1.54h1.107l1.107 1.54 1.11 3.225 1.106 3.153 1.108 3.15 1.107 3.153h2.116l1.107-1.54 1.108-3.224 1.108-3.152 1.107-1.538h2.217l1.106 1.54 1.108 1.612 1.107 1.54h1.11l1.106 1.61h4.325l1.107 1.614h1.107l1.105 1.54 1.108 1.612 1.107 3.15 1.11 1.614 1.106 1.54h1.107l1.108 1.61h3.223l1.108-3.15 1.108-3.152 1.107-3.225 1.108-3.152 1.107-1.612 1.106-3.152 1.108-4.762 1.107-6.304 1.11-7.915 1.107-7.917 1.107-7.916 1.108-4.764 1.007-1.613h2.214l1.107 1.612h1.108l1.107 1.54 1.108 1.612 1.106 3.15 1.107 1.614 1.107 1.54 1.108 1.612h1.108l1.108-1.613 1.006-3.152 1.108-1.54 1.107-4.763 1.106-3.152 1.108-4.764 1.107-4.764 1.107-6.377 1.108-6.303 1.107-6.377 1.11-4.69 1.106-6.378 1.107-4.763 1.108-4.764 1.007-4.765 1.108-3.15 1.107-3.153h2.214l1.106 1.612 1.107 1.54 1.11 4.764 1.106 4.764 1.107 6.303 1.107 6.377 1.108 6.303 1.107 6.377 1.006 4.764 1.108 3.152 1.107 1.612 1.11 3.152 1.1 3.152 1.11 3.15 1.106 3.226 1.108 3.152 1.107 1.54 1.11 1.612h1.107l1.107-1.613h3.22l1.108-1.537h1.107l1.106-1.613 1.107-1.54 1.107-1.612 1.11-1.613h1.106l1.107 1.613 1.108 1.612 1.11 1.54 1.107 1.612 1.107 1.54 1.007 1.612h1.108l1.107 1.612 1.108 1.54 1.107 1.612 1.107 1.54 1.107 3.224 1.107 1.54 1.11 1.612 1.107 1.612h5.436l1.107 1.54 1.107 3.15 1.107 3.226 1.108 3.15 1.107 1.614h2.213l1.107-1.613 1.108-1.612h2.215l1.007 1.614 1.107 3.152 1.107 3.152 1.108 1.612 1.107 1.612h2.213l1.107 1.54 1.11 1.612 1.106 1.54 1.107 3.224 1.108 1.54h1.11l1.106 1.612h1.007l1.108-1.613 1.108-1.54 1.107-3.224 1.107-1.54 1.11-1.612 1.106-1.537 1.108 1.54 1.107 1.612 1.11 1.54 1.106 1.61h2.213l1.007-1.61 1.108-1.54h1.107l1.107-1.613h1.106l1.108-1.538 1.107-1.613 1.11-1.612 1.106-1.54 1.106-1.612h1.108l1.108-1.54 1.107-1.612 1.006-1.612 1.107-4.763 1.107-4.69 1.107-4.766 1.107-3.225 1.11-3.153h2.21l1.106 1.613 1.108 1.54 1.108 3.224 1.107 4.764 1.108 4.69 1.008 4.765M255.147 120.87l1.107 1.613h1.108l1.107-1.612 1.106-4.762 1.107-1.54 1.108-3.15h1.107l1.108 1.538 1.107 1.613 1.108 1.54 1.108 3.223 1.108 1.54 1.006 3.224 1.107 1.54 1.106 1.612 1.107 1.54 1.108 3.223 1.108 1.54 1.106 4.763 1.108 3.152 1.107 1.613 1.107 3.15 1.108 1.615 1.107 1.54 1.107 1.61 1.107 3.153 1.007 1.613h1.107l1.11-1.612 1.106-1.54h1.106l1.108-1.612 1.108 1.612h4.43l1.108-1.612h1.108l1.007-1.612h2.215l1.108-1.54h1.107l1.107 1.54h1.106l1.108 1.612 1.11 1.612h4.43l1.006 1.54 1.107 1.613 1.107 3.15 1.107 1.614 1.107 1.54h2.215l1.106-1.54 1.106-1.612 1.107-1.538h1.107l1.107 1.54 1.108 1.61 1.006 3.154 1.107 3.15h3.322l1.107-3.15 1.107-1.613h1.108l1.108 1.613 1.107 1.612 1.108 1.54 1.108 1.61 1.108-1.61 1.107-1.54 1.007-1.612 1.107-1.613 1.107-1.54h1.107l1.11 1.54h1.106l1.106 1.613 1.108 1.612h4.43l1.107-1.612h5.435l1.108-1.613 1.107-3.152 1.11-1.538 1.106-3.225 1.108-1.54h2.215l1.108-1.612h1.007l1.107-3.15 1.107-1.614 1.107-3.15 1.108-3.152 1.11-3.225 1.106-1.54 1.108-1.612 1.107-1.538 1.107-1.613 1.108-1.613h1.107l1.108 1.613h8.762l1.106-1.613 1.107-1.54 1.108-1.612h1.108l1.11-1.54 1.006 1.54 1.106 1.613 1.106 3.15 1.108 1.615 1.107 1.54 1.11 1.612h3.32l1.11 1.54h4.43l1.007 1.61h1.106l1.11 1.614h3.314l1.108 1.54h1.108l1.107 1.613h1.108l1.11 1.612 1.107 1.54 1.107 1.612 1.007 3.15 1.108 1.613 1.107 3.153 1.107 3.15 1.108 1.613h1.108l1.107 1.54h1.108l1.108 1.613 1.11 1.61h2.213l1.108-1.61h1.008l1.107-1.614 1.108-1.54 1.107-1.612 1.107-1.538 1.107-3.225 1.108-1.54 1.108-1.61h1.107l1.108-1.613h1.108l1.107-1.54h2.115l1.107-1.612 1.107-3.15 1.107-4.765 1.107-3.15 1.106-4.766 1.107-1.613 1.108-1.54 1.108-3.15 1.107-3.225 1.108-6.302 1.107-6.377 1.108-7.915 1.007-7.915 1.107-7.916 1.107-4.765m-.004-.005l1.107-4.765 1.107-4.764 1.108-3.15 1.107-3.15 1.105-3.153 1.107-3.152 1.107-1.612 1.107-1.613 1.107 1.612 1.108 3.15 1.107 3.153 1.006 3.225 1.107 3.152 1.108 3.152 1.108 3.15 1.107 1.614 1.107 3.152 1.107 3.15 1.107 1.614 1.107 1.612 1.108 1.54h1.107l1.107-3.152 1.107-3.152 1.007-3.152 1.108-3.225 1.107-1.54 1.107 1.54 1.107 3.225 1.11 3.152 1.105 4.764 1.108 4.764 1.107 3.152 1.11 1.54h1.105l1.107-1.54 1.108-1.613h5.435l1.108-1.54 1.107-1.613h7.654l1.107 1.612h1.107l1.108 1.54 1.107 1.61 1.11 3.153h1.106l1.108 4.764 1.107 7.916 1.108 6.303 1.11 6.376 1.106 4.765 1.108 1.54 1.107 1.61h1.008l1.107 3.153 1.11 3.153"/><g fill="none" stroke="#09BCD4" stroke-width="2.16" stroke-linecap="round" stroke-linejoin="round" stroke-miterlimit="10"><path d="M35.286 109.804l1.107 3.15 1.007 1.614 1.107-1.613 1.107 4.765 1.108-3.152 1.107-3.152h1.106l1.107 3.152 1.107-1.613 1.11-1.54h1.106l1.108 4.692 1.107-1.54 1.11 3.153 1.006 3.15 1.107 3.226 1.108-3.225 1.108 4.766 1.107-1.54 1.107 3.153h2.216l1.108 6.302h1.107l1.11 1.614h1.106l1.106 3.15 1.007 1.614 1.107 1.54 1.108-4.765 1.107 4.764 1.107-1.54 1.106 3.152 1.108-1.613 1.107-1.54 1.11 1.54h1.106l1.106 1.612h1.108l1.108 3.15 1.108-1.538h1.006l1.108-4.764 1.107 1.54 1.108-1.54 1.108 1.54 1.107-1.54 1.106-4.764h2.214l1.108-9.53 1.108-9.527 1.107-1.54 1.108-3.15 1.007 1.537 1.107 3.152h2.214l1.107 4.763 1.108-4.763 1.108 1.613h1.106l1.108 3.15 1.107-4.763h1.108l1.108 4.764 1.108-3.15 1.007-3.152 1.108-4.764 1.107-6.377 1.107-3.15 1.107-1.54 1.107-4.764 1.106-1.613 1.108-4.765 1.107-1.54 1.11-3.224 1.106-3.15h1.108l1.108-4.765 1.007-4.765 1.108-6.302h1.108l1.107 6.303h1.107l1.107 1.614 1.106 1.612 1.11 1.54h1.106l1.108 11.14 1.107-1.612 1.108 4.764 1.107 6.303 1.007 4.765 1.107 3.152 1.107 4.764 1.108 3.226H143l1.11 1.54 1.106 4.764 1.108 3.15 1.107-4.763h1.11l1.107 3.225 1.107-1.612 1.107 3.15 1.11-1.538h1.006l1.107 1.54h1.107l1.107-1.54 1.107 1.54 1.107-3.152h1.11l1.107 4.763h2.215l1.108 1.614h1.108l1.107 4.69 1.007-7.915h1.107l1.106 1.612 1.108-1.612h1.107l1.108 3.226 1.107 1.54 1.107-1.54h1.108l1.108 1.54 1.107 4.763h3.22l1.108 4.763h1.107l1.107 1.54 1.107 1.61 1.108 1.614 1.107 1.54 1.105-1.54 1.108 3.152 1.107 1.61h3.324l1.007 4.69 1.108-3.15 1.107 3.15h1.108l1.107-3.15 1.106 3.15h1.108l1.107 1.614h1.11l1.107-1.612 1.107 3.224 1.108 3.153 1.108-3.154h1.107l1.007-1.612 1.108 1.612h1.107l1.106-1.612h1.107l1.11-1.612h2.21l1.107 1.612 1.11 1.612 1.106-3.224h1.107l1.107 3.224 1.007-4.763 1.108-3.152 1.107-3.224h1.107l1.105-4.764 1.108-1.54 1.107-1.612 1.11-3.15 1.106-3.152 1.107 1.54 1.108-3.153h1.11l1.106 1.613 1.007-1.613h1.107l1.107-1.54h1.107l1.107-4.763h1.11l1.107-1.612h2.215l1.108-3.152 1.108-3.152 1.107 1.54 1.108 1.612h1.007"/><path d="M255.147 114.568l1.107 4.764 1.108-1.612h1.107l1.106 1.612 1.107 3.15 1.108 1.614 1.107-1.613h1.108l1.107 1.613 1.108 1.54 1.108 1.612 1.108 1.54 1.006-1.54 1.107 3.15 1.106 1.614 1.107-1.613h1.108l1.108 1.61 1.106 1.54 1.108 4.764h2.215l1.108 1.613 1.107 1.54 1.107 1.612 1.107 3.15 1.007 1.613 1.107-1.613 1.11 3.153h1.106l1.106-6.303 1.108 3.15h1.108l1.108-1.538h1.107l1.108 1.54 1.11 1.612 1.106-1.613h2.115l1.108 1.615h1.107l1.108-1.613h1.107l1.107 4.765 1.106-3.15 1.108 6.302 1.11-1.54h1.106l1.108-3.225h1.107l1.11 1.612 1.006 1.612h1.107l1.107 1.54 1.107 3.224 1.107-1.612 1.108 1.612 1.107 1.54 1.106-1.54 1.106 3.15 1.107 1.54 1.107-1.54 1.107 1.54h1.108l1.006-1.54 1.107 6.305 1.107-1.54 1.108-1.61h2.214l1.107-1.615 1.108 1.613 1.108 1.612h1.107l1.108 1.54 1.108-1.54 1.108 3.15 1.107-1.61 1.007 1.61 1.107-1.61h1.107l1.107 1.61h1.11l1.106 1.54h1.106l1.108 1.613h1.107l1.11-1.61 1.105 1.61 1.108 3.153 1.107-3.152h2.114l1.11-1.61 1.106 3.224h3.324l1.11-4.765h1.106l1.108-1.613 1.107-1.54 1.108 1.54 1.108-3.15 1.007-1.614 1.107-4.69 1.107-1.613 1.107-4.765 1.107-3.15 1.11-3.153h3.32l1.108-3.225 1.108 1.613h2.215l1.008 1.612h2.214l1.11-3.225 1.106-1.54 1.108 3.153 1.107-1.613h1.11l1.106-1.54 1.106-1.612 1.108-3.15 1.108 1.538 1.108 1.612h1.007l1.106 1.613 1.106 3.153 1.107 1.612h1.107l1.11 1.54 1.106-3.152 1.107 3.15h2.216l1.108 1.614 1.108 1.54h1.108l1.108-1.54 1.007 1.54h1.107l1.11 1.61 1.106-1.61 1.108 3.223h1.108l1.108 1.54 1.108 1.613h1.107l1.11 1.612 1.107-1.612h2.215l1.007 1.612 1.106 3.15 1.107-1.61 1.107 1.61h1.108l1.108 1.54h1.107l1.108-1.54h1.11l1.107 3.154 1.107 1.61 1.107-1.61 1.11 1.61 1.006-3.224 1.107 1.613 1.108 1.61 1.108-1.61 1.107 1.61 1.107-3.224 1.108-1.54 1.108 1.54 1.107-1.54h2.216l1.108-4.763h1.108l1.007 1.612 1.107-3.225 1.107 1.613 1.108-6.377 1.107-3.152 1.106-3.15 1.107-4.765h1.108l1.108-6.304 1.108-4.764 1.108-7.916 1.107-7.916 1.108-7.99 1.008-6.302 1.107-4.765 1.107-6.304"/><path d="M475.11 86.056l1.107-1.612h1.107l1.108-1.613 1.107-3.15 1.105-3.15 1.107 1.61h1.107l1.107 1.54h1.107l1.108-1.54h1.107l1.006 4.69 1.107 3.227h1.108l1.108-1.612h1.107l1.107 1.612 1.107-6.376 1.107 7.916 1.107 1.613 1.108 3.15h1.107l1.107-1.54 1.107 1.54 1.007-1.54 1.108 1.54h2.214l1.107 3.15 1.11 3.227 1.105 1.54 1.108 3.15h1.107l1.11 1.614h4.327l1.107 3.15 1.108 3.227h1.107l1.105 1.54 1.108-3.152 1.107-1.613 1.11 4.765 1.106 3.152 1.108-1.54 1.107 1.54h1.108l1.108 3.224 1.007 1.54h2.213l1.108 3.224 1.107 4.69 1.11 1.613 1.107-1.612 1.108 1.612 1.107 6.303 1.108-1.54 1.108 3.152 1.107-1.612 1.108 1.612 1.107 3.152 1.007 3.225 1.107-1.612 1.11 3.15"/></g><path d="M19.065 234.95c0 .626-.067 1.168-.203 1.627-.135.458-.32.837-.552 1.137-.233.3-.51.523-.828.67-.318.147-.66.22-1.022.22-.367 0-.708-.072-1.022-.22-.315-.146-.59-.37-.823-.67-.233-.3-.417-.68-.55-1.137-.133-.46-.2-1-.2-1.628s.067-1.17.2-1.63.316-.843.55-1.145.508-.525.823-.673c.315-.146.656-.22 1.022-.22.363 0 .704.073 1.022.22.318.147.594.37.828.673s.417.683.552 1.143c.136.46.203 1.002.203 1.63zm-.924 0c0-.548-.044-1.007-.136-1.378-.092-.372-.215-.67-.37-.898-.155-.227-.334-.39-.538-.487-.203-.098-.415-.147-.635-.147s-.43.05-.634.147c-.203.1-.38.26-.535.487-.152.228-.275.526-.367.898-.092.37-.137.83-.137 1.377s.045 1.003.137 1.373.214.668.368.896c.154.226.333.39.536.486.204.098.415.147.635.147s.433-.05.636-.147c.204-.1.383-.26.538-.487.155-.23.278-.526.37-.897s.138-.828.138-1.375zm4.835-1.855c0 .28-.043.53-.13.752-.087.222-.203.408-.348.56-.145.152-.313.268-.505.348s-.394.12-.607.12c-.223 0-.432-.04-.625-.12s-.36-.195-.502-.347c-.142-.152-.252-.34-.333-.56s-.12-.474-.12-.753c0-.287.04-.542.12-.766.08-.225.19-.413.333-.566s.31-.27.502-.35.402-.12.625-.12c.227 0 .437.04.63.12s.362.196.505.35c.144.153.255.342.335.564.08.223.12.478.12.765zm2.535-1.58c.033-.04.072-.075.118-.105.045-.03.105-.045.182-.045h.645l-5.24 7.02c-.03.044-.068.08-.115.105-.046.026-.103.04-.17.04h-.655l5.235-7.015zm-3.225 1.58c0-.22-.023-.407-.07-.56-.047-.154-.11-.28-.192-.378-.082-.1-.178-.17-.288-.213-.11-.043-.227-.065-.35-.065-.124 0-.238.02-.345.063-.106.043-.2.114-.28.213-.08.098-.144.224-.19.377-.047.153-.07.34-.07.56 0 .217.023.4.07.553.046.152.11.275.19.37s.173.163.28.205c.107.043.222.064.345.064.123 0 .24-.02.35-.063.11-.04.206-.11.288-.204.082-.095.146-.218.192-.37.047-.152.07-.336.07-.552zm4.655 3.744c0 .28-.043.53-.13.75-.086.22-.202.404-.347.556-.145.152-.313.268-.505.348-.19.08-.394.12-.607.12-.225 0-.434-.04-.625-.12-.19-.08-.358-.195-.5-.348-.142-.15-.252-.337-.333-.558-.08-.22-.12-.47-.12-.75 0-.287.04-.543.12-.768.08-.226.192-.415.334-.568s.31-.27.5-.35c.192-.08.4-.12.627-.12.225 0 .434.04.628.12.196.08.364.196.506.35.142.153.253.343.335.568.08.225.123.48.123.767zm-.69 0c0-.22-.023-.41-.07-.565-.047-.154-.11-.28-.192-.377s-.178-.168-.288-.21-.227-.066-.35-.066c-.123 0-.24.022-.347.065-.108.042-.203.112-.283.21s-.143.222-.188.376c-.045.155-.067.343-.067.563 0 .216.022.4.067.55.045.15.107.272.188.367s.174.163.283.205c.108.042.224.063.347.063.124 0 .24-.02.35-.062s.206-.11.288-.205.146-.218.192-.367c.047-.15.07-.334.07-.55zM16.52 199.585c.304 0 .587.045.85.135.264.09.493.222.686.393.193.172.345.38.455.628.11.248.167.528.167.84 0 .27-.04.517-.12.744-.08.23-.188.446-.325.652-.136.207-.293.41-.472.605s-.367.396-.567.596l-1.89 1.93c.134-.036.27-.065.406-.087s.267-.033.394-.033h2.4c.098 0 .174.028.23.085s.086.13.086.22v.54h-4.78v-.304c0-.063.013-.13.04-.195.027-.065.068-.127.125-.184l2.296-2.307c.19-.193.364-.38.52-.558.157-.178.29-.357.4-.537s.196-.362.256-.548c.06-.185.09-.382.09-.592s-.032-.395-.1-.553c-.066-.158-.157-.29-.272-.393-.115-.105-.25-.182-.407-.233s-.324-.08-.504-.08c-.184 0-.352.027-.505.08-.152.054-.288.128-.406.223-.12.096-.218.208-.297.338-.08.13-.137.274-.17.43-.04.118-.094.195-.162.233-.068.04-.165.05-.288.033l-.465-.08c.046-.327.137-.616.272-.868.135-.25.305-.462.51-.632s.44-.3.703-.388c.262-.088.547-.132.854-.132zm6.455 1.81c0 .28-.043.53-.13.753-.087.222-.203.408-.348.56-.145.152-.313.268-.505.348s-.394.12-.607.12c-.223 0-.432-.04-.625-.12s-.36-.195-.502-.347c-.142-.154-.252-.34-.333-.563s-.12-.473-.12-.752c0-.287.04-.542.12-.766.08-.224.19-.41.333-.565s.31-.27.502-.35.402-.12.625-.12c.227 0 .437.04.63.12s.362.196.505.35c.144.153.255.342.335.564.08.223.12.477.12.765zm2.535-1.58c.033-.04.072-.075.118-.105.045-.03.105-.045.182-.045h.645l-5.24 7.02c-.03.044-.068.08-.115.105-.046.026-.103.04-.17.04h-.655l5.235-7.015zm-3.225 1.58c0-.22-.023-.406-.07-.56-.047-.153-.11-.28-.192-.377-.082-.1-.178-.17-.288-.213-.11-.043-.227-.065-.35-.065-.124 0-.238.022-.345.065-.106.043-.2.114-.28.213-.08.098-.144.224-.19.377-.047.153-.07.34-.07.56 0 .217.023.4.07.553.046.152.11.275.19.37s.173.163.28.205c.107.042.222.063.345.063.123 0 .24-.02.35-.063.11-.042.206-.11.288-.205.082-.095.146-.218.192-.37.047-.152.07-.337.07-.552zm4.655 3.745c0 .28-.043.53-.13.75-.086.22-.202.406-.347.558-.145.152-.313.268-.505.348-.19.08-.394.12-.607.12-.225 0-.434-.04-.625-.12-.19-.08-.358-.195-.5-.348-.142-.15-.252-.337-.333-.558-.08-.22-.12-.47-.12-.75 0-.286.04-.542.12-.767.08-.226.192-.415.334-.568s.31-.27.5-.35c.192-.08.4-.12.627-.12.225 0 .434.04.628.12.196.08.364.196.506.35.142.153.253.343.335.568.08.225.123.48.123.767zm-.69 0c0-.22-.023-.407-.07-.563-.047-.154-.11-.28-.192-.377s-.178-.167-.288-.21-.227-.065-.35-.065c-.123 0-.24.022-.347.065-.108.043-.203.113-.283.21s-.143.223-.188.377c-.045.155-.067.343-.067.563 0 .217.022.4.067.55.045.15.107.273.188.368s.174.163.283.205c.108.042.224.063.347.063.124 0 .24-.02.35-.063s.206-.11.288-.205.146-.218.192-.367c.047-.15.07-.333.07-.55zM17.996 172.556h1.085v.51c0 .054-.014.1-.046.135-.032.04-.08.058-.147.058h-.89v1.885h-.78v-1.885h-3.18c-.067 0-.125-.02-.173-.058s-.08-.087-.092-.144l-.09-.455 3.486-4.623h.83v4.58zm-.78-2.955c0-.085 0-.18.007-.28.005-.102.016-.206.032-.313l-2.61 3.55h2.57V169.6zm5.76.106c0 .28-.044.53-.13.752-.088.222-.204.408-.35.56-.144.152-.312.268-.504.348s-.394.12-.607.12c-.223 0-.432-.04-.625-.12s-.36-.195-.502-.347c-.142-.154-.252-.34-.333-.563s-.12-.473-.12-.752c0-.287.04-.542.12-.766.08-.224.19-.41.333-.565s.31-.27.502-.35.402-.12.625-.12c.227 0 .437.04.63.12s.362.196.505.35c.144.153.255.342.335.564.08.223.12.48.12.765zm2.534-1.58c.033-.04.072-.075.118-.105.045-.03.105-.043.182-.043h.645l-5.24 7.02c-.03.044-.068.08-.115.105-.046.027-.103.04-.17.04h-.655l5.235-7.014zm-3.225 1.58c0-.22-.023-.407-.07-.56-.047-.154-.11-.28-.192-.378-.082-.1-.178-.17-.288-.213-.11-.043-.227-.065-.35-.065-.124 0-.238.022-.345.065-.106.043-.2.114-.28.213-.08.098-.144.224-.19.377-.047.153-.07.34-.07.56 0 .217.023.4.07.553.046.152.11.275.19.37s.173.163.28.205c.107.042.222.063.345.063.123 0 .24-.02.35-.063.11-.042.206-.11.288-.205.082-.095.146-.218.192-.37.047-.152.07-.336.07-.552zm4.655 3.744c0 .28-.043.53-.13.75-.086.22-.202.406-.347.558-.145.152-.313.268-.505.348-.19.08-.394.12-.607.12-.225 0-.434-.04-.625-.12-.19-.08-.358-.195-.5-.348-.142-.15-.252-.337-.333-.558-.08-.22-.12-.47-.12-.75 0-.286.04-.542.12-.767.08-.226.192-.415.334-.568s.31-.27.5-.35c.192-.08.4-.12.627-.12.225 0 .434.04.628.12.196.08.364.196.506.35.142.153.253.343.335.568.08.225.123.48.123.767zm-.69 0c0-.22-.023-.407-.07-.563-.047-.154-.11-.28-.192-.377s-.178-.167-.288-.21-.227-.065-.35-.065c-.123 0-.24.022-.347.065-.108.043-.203.113-.283.21s-.143.223-.188.377c-.045.155-.067.343-.067.563 0 .217.022.4.067.55.045.15.107.273.188.368s.174.163.283.205c.108.042.224.063.347.063.124 0 .24-.02.35-.063s.206-.11.288-.205.146-.218.192-.367c.047-.15.07-.332.07-.55zM15.936 138.97c-.067.08-.128.16-.185.236l-.17.226c.17-.117.36-.208.565-.273.205-.066.427-.1.667-.1.29 0 .564.05.82.143.258.096.482.234.673.416.192.18.344.403.458.67.114.264.17.566.17.906 0 .33-.06.637-.18.92s-.287.53-.5.74c-.216.21-.475.375-.776.495-.302.12-.634.18-.998.18-.36 0-.688-.057-.98-.172-.294-.115-.543-.28-.75-.49-.204-.212-.362-.47-.474-.77s-.167-.64-.167-1.014c0-.313.07-.647.207-1.002.138-.355.36-.734.663-1.138l1.82-2.445c.047-.06.11-.11.192-.15s.175-.065.282-.065h.79l-2.126 2.685zm-.976 2.27c0 .23.033.44.1.63.066.19.164.355.292.49s.285.243.47.318.396.112.633.112c.24 0 .458-.038.652-.115.195-.076.362-.183.5-.32s.245-.298.32-.484c.075-.185.113-.39.113-.61 0-.23-.037-.44-.11-.63-.074-.19-.178-.35-.313-.48-.135-.132-.296-.232-.483-.303-.187-.07-.392-.104-.615-.104-.24 0-.46.04-.65.122-.195.082-.36.192-.495.33-.135.14-.238.3-.31.48s-.106.37-.106.567zm8.015-3.224c0 .28-.043.53-.13.753-.087.22-.203.407-.348.56-.145.15-.313.266-.505.346s-.394.12-.607.12c-.223 0-.432-.04-.625-.12s-.36-.195-.502-.348c-.142-.15-.252-.34-.333-.56s-.12-.473-.12-.754c0-.286.04-.54.12-.765s.19-.41.333-.565c.142-.152.31-.27.502-.35s.402-.12.625-.12c.227 0 .437.04.63.12s.362.197.505.35c.144.154.255.342.335.565.08.225.12.48.12.766zm2.535-1.58c.033-.04.072-.074.118-.104.045-.03.105-.045.182-.045h.645l-5.24 7.02c-.03.044-.068.08-.115.105-.046.026-.103.04-.17.04h-.655l5.235-7.016zm-3.225 1.58c0-.22-.023-.406-.07-.56-.047-.153-.11-.278-.192-.378-.082-.098-.178-.168-.288-.212-.11-.044-.227-.065-.35-.065-.124 0-.238.023-.345.067-.106.044-.2.114-.28.212-.08.1-.144.224-.19.377-.047.153-.07.34-.07.56 0 .217.023.4.07.553.046.15.11.274.19.37s.173.162.28.204c.107.042.222.063.345.063.123 0 .24-.02.35-.063.11-.042.206-.11.288-.205.082-.097.146-.22.192-.37.047-.154.07-.34.07-.555zm4.655 3.745c0 .28-.043.53-.13.75-.086.223-.202.408-.347.56-.145.15-.313.268-.505.348-.19.08-.394.12-.607.12-.225 0-.434-.04-.625-.12-.19-.08-.358-.195-.5-.348-.142-.152-.252-.338-.333-.56-.08-.22-.12-.47-.12-.75 0-.285.04-.54.12-.766.08-.226.192-.415.334-.568s.31-.27.5-.35c.192-.08.4-.12.627-.12.225 0 .434.04.628.12.196.08.364.196.506.35.142.153.253.343.335.568.08.225.123.48.123.767zm-.69 0c0-.22-.023-.405-.07-.56-.047-.155-.11-.28-.192-.378s-.178-.166-.288-.21-.227-.064-.35-.064c-.123 0-.24.022-.347.065-.108.044-.203.114-.283.21s-.143.224-.188.378c-.045.156-.067.344-.067.564 0 .218.022.4.067.552.045.15.107.272.188.367s.174.162.283.204c.108.042.224.063.347.063.124 0 .24-.02.35-.063s.206-.11.288-.205.146-.22.192-.368c.047-.15.07-.334.07-.55zM16.465 111.842c-.356 0-.683-.047-.98-.143s-.552-.233-.765-.41c-.213-.176-.378-.39-.495-.64-.117-.254-.175-.536-.175-.85 0-.46.12-.84.36-1.138.24-.298.583-.51 1.03-.637-.377-.14-.66-.35-.853-.627s-.288-.612-.288-1c0-.262.05-.51.153-.74.103-.23.25-.43.44-.6.19-.17.417-.302.683-.4.265-.096.56-.144.887-.144.323 0 .618.048.885.145.266.097.494.23.684.4.19.17.336.37.44.6.103.23.155.477.155.74 0 .387-.098.72-.29 1s-.478.485-.85.625c.446.126.79.34 1.03.637.24.298.36.678.36 1.138 0 .314-.06.597-.178.85-.12.25-.285.465-.496.64-.212.178-.466.314-.763.41-.294.095-.62.142-.98.142zm0-.71c.233 0 .442-.033.627-.098s.342-.157.47-.275.227-.26.295-.427c.068-.165.103-.347.103-.547 0-.247-.04-.458-.123-.632-.082-.175-.192-.317-.33-.428-.138-.11-.297-.19-.478-.242-.18-.052-.37-.078-.567-.078s-.385.026-.565.078-.34.132-.48.242c-.137.11-.247.252-.33.428-.08.175-.122.386-.122.632 0 .2.034.383.103.547.07.165.167.307.295.425.128.117.285.21.47.274s.396.098.63.098zm0-3.44c.233 0 .433-.036.598-.108.165-.07.3-.167.402-.285.104-.12.178-.256.225-.41s.07-.31.07-.475c0-.167-.027-.323-.083-.47-.055-.146-.137-.275-.245-.385-.108-.11-.244-.195-.405-.26s-.35-.094-.563-.094-.4.032-.563.095-.294.15-.403.26c-.108.11-.19.24-.245.387s-.082.303-.082.47c0 .164.023.322.07.475.047.154.122.29.225.41.104.117.238.212.403.284.167.072.366.108.6.108zm6.51-1.365c0 .28-.043.53-.13.752-.087.22-.203.407-.348.56-.145.15-.313.266-.505.346s-.394.12-.607.12c-.223 0-.432-.04-.625-.12s-.36-.196-.502-.348c-.142-.152-.252-.34-.333-.56s-.12-.473-.12-.753c0-.287.04-.542.12-.765.08-.223.19-.412.333-.565s.31-.27.502-.35c.193-.08.402-.12.625-.12.227 0 .437.04.63.12.193.08.362.197.505.35.144.153.255.342.335.565.08.224.12.48.12.765zm2.535-1.58c.033-.04.072-.075.118-.105.045-.03.105-.045.182-.045h.645l-5.24 7.02c-.03.043-.068.08-.115.105-.046.027-.103.04-.17.04h-.655l5.235-7.015zm-3.225 1.58c0-.22-.023-.407-.07-.56-.047-.153-.11-.28-.192-.377-.082-.098-.178-.17-.288-.212-.11-.043-.227-.065-.35-.065-.124 0-.238.02-.345.065-.106.043-.2.114-.28.212-.08.1-.144.224-.19.377-.047.153-.07.34-.07.56 0 .217.023.4.07.553.046.15.11.275.19.37.08.095.173.164.28.205.107.042.222.063.345.063.123 0 .24-.02.35-.063.11-.042.206-.11.288-.205.082-.095.146-.218.192-.37.047-.152.07-.336.07-.553zm4.655 3.745c0 .28-.043.53-.13.75-.086.22-.202.406-.347.558-.145.15-.313.267-.505.347-.19.08-.394.12-.607.12-.225 0-.434-.04-.625-.12-.19-.08-.358-.196-.5-.347-.142-.152-.252-.338-.333-.558-.08-.22-.12-.47-.12-.75 0-.287.04-.542.12-.768s.192-.414.334-.567.31-.27.5-.35c.192-.08.4-.12.627-.12.225 0 .434.04.628.12.196.08.364.197.506.35.142.153.253.342.335.567.08.226.123.482.123.768zm-.69 0c0-.22-.023-.408-.07-.563-.047-.157-.11-.283-.192-.38s-.178-.166-.288-.21c-.11-.042-.227-.064-.35-.064-.123 0-.24.02-.347.065-.108.044-.203.114-.283.21s-.143.223-.188.378c-.045.154-.067.34-.067.562 0 .217.022.4.067.55s.107.272.188.368c.08.095.174.163.283.205.108.042.224.063.347.063.124 0 .24-.02.35-.063.11-.042.206-.11.288-.205.082-.095.146-.218.192-.368s.07-.333.07-.55zM9.016 79.392h1.535v-4.885c0-.14.007-.29.017-.445L9.29 75.157c-.042.037-.085.06-.13.067s-.082.01-.12.002c-.036-.006-.07-.02-.102-.04-.032-.02-.056-.042-.072-.065l-.28-.383 2.135-1.845h.727v6.5h1.41v.68h-3.84v-.678zm10.05-2.9c0 .627-.068 1.17-.204 1.627-.135.456-.32.835-.552 1.136-.233.3-.51.523-.828.67s-.66.22-1.022.22c-.367 0-.708-.074-1.022-.22s-.59-.37-.823-.67c-.233-.3-.417-.68-.55-1.138-.133-.46-.2-1-.2-1.628 0-.626.067-1.17.2-1.63s.316-.84.55-1.143.508-.527.823-.673c.315-.147.656-.22 1.022-.22.363 0 .704.073 1.022.22.318.146.594.37.828.672s.417.682.552 1.142c.136.46.203 1.004.203 1.63zm-.925 0c0-.546-.044-1.006-.136-1.377s-.215-.67-.37-.897c-.155-.227-.334-.39-.538-.487-.203-.097-.415-.146-.635-.146s-.43.05-.634.148c-.203.1-.38.262-.535.488s-.275.526-.367.897-.137.83-.137 1.377.045 1.005.137 1.375.214.667.368.894.333.39.536.488c.204.098.415.147.635.147s.433-.05.636-.148c.204-.1.383-.26.538-.488.155-.227.278-.525.37-.895s.138-.83.138-1.376zm4.835-1.855c0 .28-.043.53-.13.752-.087.22-.203.407-.348.56-.145.15-.313.266-.505.346s-.394.12-.607.12c-.223 0-.432-.04-.625-.12s-.36-.196-.502-.348c-.142-.152-.252-.34-.333-.56s-.12-.473-.12-.753c0-.287.04-.542.12-.765.08-.223.19-.412.333-.565s.31-.27.502-.35c.193-.08.402-.12.625-.12.227 0 .437.04.63.12.193.08.362.197.505.35.144.153.255.342.335.565.08.224.12.48.12.765zm2.535-1.58c.033-.04.072-.075.118-.105.045-.03.105-.045.182-.045h.645l-5.24 7.02c-.03.043-.068.08-.115.105-.046.027-.103.04-.17.04h-.655l5.235-7.015zm-3.225 1.58c0-.22-.023-.407-.07-.56-.047-.153-.11-.28-.192-.377-.082-.098-.178-.17-.288-.212-.11-.043-.227-.065-.35-.065-.124 0-.238.02-.345.065-.106.043-.2.114-.28.212-.08.1-.144.224-.19.377-.047.153-.07.34-.07.56 0 .217.023.4.07.553.046.15.11.275.19.37.08.095.173.164.28.205.107.042.222.063.345.063.123 0 .24-.02.35-.063.11-.042.206-.11.288-.205.082-.095.146-.218.192-.37.047-.152.07-.336.07-.553zm4.655 3.745c0 .28-.043.53-.13.75-.086.22-.202.406-.347.558-.145.15-.313.267-.505.347-.19.08-.394.12-.607.12-.225 0-.434-.04-.625-.12-.19-.08-.358-.196-.5-.347-.142-.152-.252-.338-.333-.558-.08-.22-.12-.47-.12-.75 0-.287.04-.542.12-.768s.192-.414.334-.567.31-.27.5-.35c.192-.08.4-.12.627-.12.225 0 .434.04.628.12.196.08.364.197.506.35.142.153.253.342.335.567.08.226.123.482.123.768zm-.69 0c0-.22-.023-.408-.07-.563-.047-.157-.11-.283-.192-.38s-.178-.166-.288-.21c-.11-.042-.227-.064-.35-.064-.123 0-.24.02-.347.065-.108.044-.203.114-.283.21s-.143.223-.188.378c-.045.154-.067.34-.067.562 0 .217.022.4.067.55s.107.272.188.368c.08.095.174.163.283.205.108.042.224.063.347.063.124 0 .24-.02.35-.063.11-.042.206-.11.288-.205.082-.095.146-.218.192-.368s.07-.333.07-.55zM9.016 47.698h1.535v-4.885c0-.14.007-.29.017-.445L9.29 43.463c-.042.037-.085.06-.13.067s-.082.01-.12.002c-.036-.006-.07-.02-.102-.04-.032-.02-.056-.042-.072-.065l-.28-.385 2.135-1.845h.727v6.5h1.41v.68h-3.84v-.68zm7.504-6.565c.304 0 .587.045.85.135.264.09.493.22.686.393.193.173.345.383.455.63.11.246.167.525.167.84 0 .266-.04.513-.12.742-.08.23-.188.447-.325.653s-.293.408-.472.605-.367.395-.567.595l-1.89 1.93c.134-.037.27-.066.406-.087s.267-.033.394-.033h2.4c.098 0 .174.03.23.085s.086.13.086.22v.54h-4.78v-.305c0-.063.013-.128.04-.195.027-.066.068-.128.125-.185L16.5 45.39c.19-.193.364-.38.52-.557.157-.177.29-.356.4-.537s.196-.362.256-.547.09-.384.09-.594-.032-.394-.1-.552c-.066-.157-.157-.288-.272-.392-.115-.104-.25-.18-.407-.232s-.324-.078-.504-.078c-.184 0-.352.027-.505.08s-.288.127-.406.222c-.12.095-.218.208-.297.338-.08.13-.137.273-.17.43-.04.117-.094.194-.162.232-.068.04-.165.05-.288.033l-.465-.08c.046-.327.137-.616.272-.867.135-.252.305-.463.51-.633s.44-.3.703-.387c.262-.09.547-.133.854-.133zm6.455 1.81c0 .28-.043.53-.13.752-.087.222-.203.41-.348.56-.145.152-.313.268-.505.348s-.394.12-.607.12c-.223 0-.432-.04-.625-.12s-.36-.196-.502-.348c-.142-.15-.252-.338-.333-.56s-.12-.472-.12-.752c0-.287.04-.542.12-.765.08-.223.19-.412.333-.565s.31-.27.502-.35c.193-.08.402-.12.625-.12.227 0 .437.04.63.12.193.08.362.197.505.35.144.153.255.342.335.565.08.223.12.478.12.765zm2.535-1.58c.033-.04.072-.075.118-.105.045-.03.105-.045.182-.045h.645l-5.24 7.02c-.03.043-.068.08-.115.105-.046.027-.103.04-.17.04h-.655l5.235-7.015zm-3.225 1.58c0-.22-.023-.407-.07-.56-.047-.153-.11-.28-.192-.377-.082-.098-.178-.17-.288-.212-.11-.043-.227-.065-.35-.065-.124 0-.238.02-.345.063-.106.043-.2.114-.28.212-.08.1-.144.224-.19.377-.047.153-.07.34-.07.56 0 .217.023.4.07.553.046.15.11.275.19.37.08.095.173.164.28.205.107.043.222.064.345.064.123 0 .24-.02.35-.063.11-.04.206-.11.288-.203.082-.095.146-.218.192-.37.047-.152.07-.336.07-.553zm4.655 3.745c0 .28-.043.53-.13.75-.086.22-.202.406-.347.558-.145.15-.313.267-.505.347-.19.08-.394.12-.607.12-.225 0-.434-.04-.625-.12-.19-.08-.358-.196-.5-.347-.142-.152-.252-.338-.333-.558-.08-.22-.12-.47-.12-.75 0-.287.04-.542.12-.768s.192-.414.334-.567.31-.27.5-.35c.192-.08.4-.12.627-.12.225 0 .434.04.628.12.196.08.364.197.506.35.142.153.253.342.335.567.08.226.123.48.123.768zm-.69 0c0-.22-.023-.408-.07-.563-.047-.155-.11-.28-.192-.377s-.178-.167-.288-.21c-.11-.043-.227-.065-.35-.065-.123 0-.24.02-.347.065-.108.043-.203.113-.283.21s-.143.222-.188.377c-.045.155-.067.342-.067.563 0 .217.022.4.067.55s.107.272.188.368c.08.095.174.163.283.205.108.044.224.065.347.065.124 0 .24-.02.35-.063.11-.04.206-.11.288-.204.082-.095.146-.218.192-.368s.07-.333.07-.55zM9.016 16.008h1.535v-4.885c0-.14.007-.29.017-.445L9.29 11.773c-.042.037-.085.06-.13.067s-.082.01-.12.002c-.036-.006-.07-.02-.102-.04-.032-.02-.056-.042-.072-.065l-.28-.385 2.135-1.845h.727v6.5h1.41v.68h-3.84v-.68zm8.98-1.904h1.085v.51c0 .054-.014.1-.046.135s-.08.053-.147.053h-.89v1.885h-.78v-1.886h-3.18c-.067 0-.125-.02-.173-.058-.048-.04-.08-.086-.092-.143l-.09-.454 3.486-4.625h.83v4.58zm-.78-2.956c0-.086 0-.18.007-.282.005-.102.016-.206.032-.313l-2.61 3.55h2.57v-2.955zm5.76.105c0 .28-.044.53-.13.752-.088.222-.204.41-.35.56-.144.152-.312.268-.504.348s-.394.12-.607.12c-.223 0-.432-.04-.625-.12s-.36-.196-.502-.348c-.142-.15-.252-.338-.333-.56s-.12-.472-.12-.752c0-.287.04-.542.12-.765.08-.223.19-.412.333-.565s.31-.27.502-.35c.193-.08.402-.12.625-.12.227 0 .437.04.63.12.193.08.362.197.505.35.144.153.255.342.335.565.08.224.12.48.12.765zm2.534-1.58c.033-.04.072-.075.118-.105.045-.03.105-.045.182-.045h.645l-5.24 7.02c-.03.043-.068.08-.115.105-.046.027-.103.04-.17.04h-.655l5.235-7.015zm-3.225 1.58c0-.22-.023-.407-.07-.56-.047-.153-.11-.28-.192-.377-.082-.098-.178-.17-.288-.212-.11-.043-.227-.065-.35-.065-.124 0-.238.02-.345.063-.106.043-.2.114-.28.212-.08.1-.144.224-.19.377-.047.153-.07.34-.07.56 0 .217.023.4.07.553.046.15.11.275.19.37.08.095.173.164.28.205.107.043.222.064.345.064.123 0 .24-.02.35-.063.11-.04.206-.11.288-.203.082-.095.146-.218.192-.37.047-.152.07-.336.07-.553zM26.94 15c0 .28-.043.53-.13.75-.086.22-.202.405-.347.557-.145.15-.313.267-.505.347-.19.08-.394.12-.607.12-.225 0-.434-.04-.625-.12-.19-.08-.358-.196-.5-.347-.142-.152-.252-.338-.333-.558-.08-.22-.12-.47-.12-.75 0-.29.04-.544.12-.77s.192-.414.334-.567.31-.27.5-.35c.192-.08.4-.12.627-.12.225 0 .434.04.628.12.196.08.364.197.506.35.142.153.253.342.335.567.08.226.123.482.123.77zm-.69 0c0-.22-.023-.41-.07-.564-.047-.155-.11-.28-.192-.377s-.178-.17-.288-.21c-.11-.045-.227-.067-.35-.067-.123 0-.24.02-.347.065-.108.042-.203.112-.283.21s-.143.22-.188.376c-.045.155-.067.342-.067.563 0 .216.022.4.067.55s.107.27.188.367c.08.095.174.163.283.205.108.04.224.062.347.062.124 0 .24-.02.35-.063.11-.043.206-.11.288-.206.082-.095.146-.218.192-.368s.07-.335.07-.55zM25.844 248.994h1.535v-4.886c0-.14.003-.288.013-.444l-1.275 1.095c-.044.035-.087.06-.13.065-.044.01-.084.01-.12.003s-.072-.022-.104-.04c-.032-.022-.056-.043-.072-.066l-.28-.385 2.135-1.846h.724v6.5h1.41v.68h-3.84v-.68zm8.046-2.176l.204-.274c.063-.087.123-.174.18-.26-.183.146-.39.258-.62.335-.23.074-.473.112-.73.112-.27 0-.526-.045-.767-.135-.242-.09-.455-.223-.638-.397-.186-.174-.33-.39-.44-.644s-.163-.548-.163-.878c0-.313.06-.606.175-.88.116-.273.28-.512.49-.715s.46-.363.75-.48c.29-.116.608-.175.955-.175.343 0 .655.057.935.17.28.113.52.27.72.476.2.203.354.446.463.73.108.282.162.596.162.94 0 .205-.02.4-.057.586-.038.186-.093.367-.164.545-.072.18-.16.355-.263.53s-.22.354-.35.537l-1.745 2.52c-.043.064-.105.115-.185.153s-.172.058-.275.058h-.82l2.18-2.855zm.824-2.18c0-.222-.036-.425-.107-.606s-.17-.336-.297-.463c-.127-.128-.277-.226-.453-.294-.175-.068-.367-.103-.578-.103-.22 0-.42.036-.6.107-.18.073-.337.172-.467.3-.13.125-.23.277-.3.454s-.105.37-.105.58c0 .227.03.43.097.607.065.18.158.33.28.454s.27.217.445.28c.175.063.37.095.588.095.24 0 .452-.04.637-.118s.34-.182.468-.312c.126-.13.223-.28.29-.45.066-.17.1-.346.1-.53zm6.886-2.128v.4c0 .112-.013.205-.038.278-.025.073-.05.136-.073.186l-2.97 5.984c-.045.087-.106.16-.18.223s-.18.095-.307.095h-.64l3.01-5.91c.043-.083.087-.16.132-.23.045-.07.096-.136.153-.2h-3.74c-.058 0-.107-.02-.15-.066s-.066-.097-.066-.153v-.605H41.6zm2.764 2.683c-.067.08-.128.16-.185.235l-.17.226c.17-.117.355-.208.56-.273.206-.062.428-.095.668-.095.29 0 .562.047.82.143.256.095.48.233.67.415.193.182.345.404.46.67.112.265.17.567.17.907 0 .33-.06.636-.18.92s-.29.53-.503.74c-.215.21-.474.374-.775.494-.302.12-.634.18-.998.18-.36 0-.687-.058-.98-.173-.293-.112-.542-.276-.748-.487-.205-.212-.363-.47-.475-.77s-.167-.64-.167-1.014c0-.314.07-.648.208-1.003.14-.355.36-.734.664-1.138l1.82-2.446c.047-.06.11-.11.192-.152s.176-.062.283-.062h.79l-2.127 2.685zm-.975 2.27c0 .23.03.44.1.63.064.19.162.355.29.49s.285.243.47.318.396.114.633.114c.24 0 .458-.038.652-.115.195-.077.362-.184.5-.32s.245-.3.32-.485c.075-.187.113-.39.113-.61 0-.232-.038-.443-.11-.632-.075-.188-.18-.35-.314-.48-.135-.132-.296-.232-.483-.303-.186-.07-.39-.105-.614-.105-.24 0-.457.04-.65.122-.193.082-.358.192-.493.33-.135.14-.238.3-.31.48s-.106.37-.106.567zM91.83 248.994h1.535v-4.886c0-.14.005-.288.015-.444l-1.275 1.095c-.043.035-.086.06-.13.065-.043.01-.083.01-.12.003s-.07-.022-.103-.04c-.032-.022-.056-.043-.072-.066l-.28-.385 2.135-1.846h.725v6.5h1.41v.68h-3.84v-.68zm8.045-2.176c.073-.096.142-.188.205-.274.063-.087.123-.174.18-.26-.183.146-.39.258-.62.335-.23.074-.473.112-.73.112-.27 0-.526-.045-.767-.135-.242-.09-.455-.223-.638-.397-.184-.174-.33-.39-.438-.644s-.163-.548-.163-.878c0-.313.06-.606.175-.88.114-.273.28-.512.49-.715s.46-.363.75-.48c.29-.116.606-.175.953-.175.343 0 .655.057.935.17.28.113.52.27.72.476.2.203.353.446.462.73.108.282.162.596.162.94 0 .205-.02.4-.057.586-.04.186-.094.367-.165.545-.072.18-.16.355-.263.53s-.22.354-.35.537l-1.746 2.52c-.042.064-.104.115-.184.153s-.173.058-.276.058h-.82l2.18-2.855zm.824-2.18c0-.222-.038-.425-.11-.606s-.17-.336-.296-.463c-.127-.128-.277-.226-.453-.294-.174-.068-.366-.103-.577-.103-.22 0-.42.036-.6.107-.18.073-.335.172-.465.3-.13.125-.23.277-.3.454s-.106.37-.106.58c0 .227.032.43.098.607.065.18.158.33.28.454s.27.217.445.28c.175.063.37.095.588.095.24 0 .452-.04.637-.118s.34-.182.468-.312c.126-.13.223-.28.29-.45.066-.17.1-.346.1-.53zm4.38 5.116c-.357 0-.684-.048-.98-.143s-.553-.23-.766-.405-.378-.39-.495-.643-.177-.533-.177-.847c0-.46.12-.84.36-1.138.24-.298.583-.51 1.03-.638-.377-.14-.66-.35-.853-.628s-.287-.61-.287-.998c0-.263.052-.51.155-.74.103-.23.25-.43.44-.6s.417-.303.683-.4c.267-.096.563-.145.89-.145.322 0 .617.05.884.145.267.097.495.23.685.4.19.17.335.37.44.6.102.23.154.477.154.74 0 .386-.097.72-.29.997s-.477.487-.85.627c.447.126.79.34 1.03.637.24.3.36.678.36 1.138 0 .313-.06.596-.177.848-.12.253-.284.467-.495.644-.21.177-.465.313-.762.407-.295.096-.622.144-.98.144zm0-.71c.232 0 .44-.032.626-.098s.342-.156.47-.275c.128-.116.227-.26.295-.423s.105-.348.105-.547c0-.248-.04-.46-.123-.634s-.19-.317-.33-.428c-.137-.11-.296-.19-.477-.242-.18-.052-.368-.078-.565-.078s-.385.026-.565.078-.34.133-.478.242c-.138.11-.248.253-.33.428-.082.175-.123.386-.123.633 0 .197.034.38.103.545s.167.307.295.425c.128.12.285.21.47.276s.396.098.63.098zm0-3.44c.232 0 .432-.035.597-.107.165-.07.3-.166.402-.285.102-.118.176-.254.223-.407s.07-.312.07-.475c0-.167-.027-.323-.083-.47-.054-.147-.136-.275-.244-.386-.108-.11-.244-.196-.405-.26s-.347-.095-.56-.095-.4.03-.564.093-.296.15-.405.26c-.107.11-.19.238-.244.385-.055.146-.083.303-.083.47 0 .163.023.32.07.475.047.153.122.29.225.407.104.12.238.214.403.285.167.07.367.107.6.107zm4.15 3.39h1.534v-4.886c0-.14.005-.288.015-.444l-1.277 1.095c-.043.035-.086.06-.13.065-.043.01-.083.01-.12.003s-.07-.022-.103-.04c-.03-.022-.055-.043-.07-.066l-.28-.385 2.134-1.846h.725v6.5h1.41v.68h-3.84v-.68zM157.81 248.994h1.534v-4.886c0-.14.005-.288.015-.444l-1.277 1.095c-.043.035-.086.06-.13.065-.043.01-.083.01-.12.003s-.07-.022-.103-.04c-.03-.022-.055-.043-.07-.066l-.28-.385 2.134-1.846h.725v6.5h1.41v.68h-3.84v-.68zm8.044-2.176c.073-.096.142-.188.205-.274l.18-.26c-.185.146-.39.258-.62.335-.23.074-.475.112-.73.112-.27 0-.528-.045-.77-.135-.24-.09-.454-.223-.637-.397-.184-.174-.33-.39-.438-.644s-.163-.548-.163-.878c0-.313.06-.606.175-.88.116-.273.28-.512.49-.715s.46-.363.75-.48c.29-.116.608-.175.955-.175.343 0 .655.057.935.17.28.113.52.27.72.476.2.203.354.446.463.73.11.282.163.596.163.94 0 .205-.02.4-.057.586-.04.186-.094.367-.165.545-.07.18-.157.355-.26.53s-.22.354-.35.537l-1.746 2.52c-.043.064-.105.115-.185.153s-.173.058-.276.058h-.82l2.18-2.855zm.824-2.18c0-.222-.036-.425-.107-.606s-.17-.336-.295-.463c-.127-.128-.277-.226-.453-.294-.174-.068-.366-.103-.577-.103-.22 0-.42.036-.6.107-.18.073-.335.172-.465.3-.13.125-.23.277-.3.454s-.105.37-.105.58c0 .227.032.43.098.607.066.18.16.33.28.454s.27.217.446.28c.174.063.37.095.587.095.24 0 .452-.04.637-.118s.342-.182.47-.312c.125-.13.222-.28.29-.45.065-.17.098-.346.098-.53zm4.38 5.116c-.356 0-.683-.048-.98-.143s-.552-.23-.765-.405-.378-.39-.495-.643-.175-.533-.175-.847c0-.46.12-.84.36-1.138.24-.298.583-.51 1.03-.638-.377-.14-.66-.35-.853-.628s-.288-.61-.288-.998c0-.263.052-.51.155-.74.103-.23.25-.43.44-.6s.417-.303.683-.4c.265-.096.56-.145.887-.145.323 0 .618.05.885.145.267.097.495.23.685.4.19.17.336.37.44.6.103.23.155.477.155.74 0 .386-.097.72-.29.997s-.477.487-.85.627c.447.126.79.34 1.03.637.24.3.36.678.36 1.138 0 .313-.06.596-.177.848-.12.253-.284.467-.495.644-.212.177-.466.313-.763.407-.295.096-.622.144-.98.144zm0-.71c.233 0 .442-.032.627-.098s.342-.156.47-.275c.128-.116.227-.26.295-.423s.103-.348.103-.547c0-.248-.04-.46-.123-.634s-.192-.317-.33-.428c-.138-.11-.297-.19-.478-.242-.18-.052-.368-.078-.565-.078s-.385.026-.565.078-.34.133-.478.242c-.138.11-.248.253-.33.428-.082.175-.123.386-.123.633 0 .197.036.38.105.545s.167.307.295.425c.127.12.284.21.47.276s.395.098.628.098zm0-3.44c.233 0 .433-.035.598-.107.165-.07.3-.166.402-.285.104-.118.178-.254.225-.407s.07-.312.07-.475c0-.167-.027-.323-.083-.47-.055-.147-.137-.275-.245-.386-.108-.11-.244-.196-.405-.26s-.35-.095-.563-.095-.4.03-.563.093-.296.15-.405.26c-.11.11-.19.238-.247.385-.055.146-.083.303-.083.47 0 .163.024.32.07.475.048.153.123.29.226.407.104.12.238.214.403.285.164.07.364.107.597.107zm5.27-.41c-.067.08-.128.16-.185.234l-.17.226c.17-.117.357-.208.563-.273.205-.062.427-.095.667-.095.29 0 .563.047.82.143.257.095.48.233.672.415.192.182.344.404.458.67.113.265.17.567.17.907 0 .33-.06.636-.18.92s-.288.53-.502.74c-.213.21-.472.374-.773.494-.302.12-.634.18-.998.18-.36 0-.688-.058-.98-.173-.294-.112-.543-.276-.75-.487-.204-.212-.362-.47-.474-.77s-.167-.64-.167-1.014c0-.314.07-.648.207-1.003.138-.355.36-.734.663-1.138l1.82-2.446c.046-.06.11-.11.19-.152s.177-.062.284-.062h.79l-2.126 2.685zm-.975 2.27c0 .23.033.44.1.63.066.19.164.354.292.49s.285.242.47.317.396.114.633.114c.24 0 .458-.038.652-.115.195-.077.362-.184.5-.32s.245-.3.32-.485c.075-.187.113-.39.113-.61 0-.232-.037-.443-.11-.632-.074-.188-.178-.35-.313-.48-.135-.132-.296-.232-.483-.303-.187-.07-.392-.105-.615-.105-.24 0-.457.04-.65.122-.193.082-.358.192-.493.33-.137.14-.24.3-.31.48s-.108.37-.108.567zM223.8 248.994h1.535v-4.886c0-.14.005-.288.015-.444l-1.275 1.095c-.043.035-.086.06-.13.065-.043.01-.083.01-.12.003s-.07-.022-.103-.04c-.032-.022-.056-.043-.072-.066l-.28-.385 2.135-1.846h.725v6.5h1.41v.68h-3.84v-.68zm8.045-2.176c.073-.096.142-.188.205-.274.063-.087.123-.174.18-.26-.183.146-.39.258-.62.335-.23.074-.473.112-.73.112-.27 0-.526-.045-.767-.135-.242-.09-.455-.223-.638-.397-.184-.174-.33-.39-.438-.644s-.163-.548-.163-.878c0-.313.06-.606.175-.88.114-.273.28-.512.49-.715s.46-.363.75-.48c.29-.116.606-.175.953-.175.343 0 .655.057.935.17.28.113.52.27.72.476.2.203.353.446.462.73.108.282.162.596.162.94 0 .205-.02.4-.057.586-.04.186-.094.367-.165.545-.072.18-.16.355-.263.53s-.22.354-.35.537l-1.746 2.52c-.042.064-.104.115-.184.153s-.173.058-.276.058h-.82l2.18-2.855zm.825-2.18c0-.222-.036-.425-.107-.606s-.17-.336-.297-.463c-.127-.128-.277-.226-.453-.294-.175-.068-.367-.103-.578-.103-.22 0-.42.036-.6.107-.18.073-.335.172-.465.3-.13.125-.23.277-.3.454s-.105.37-.105.58c0 .227.032.43.098.607.065.18.158.33.28.454s.27.217.445.28c.175.063.37.095.588.095.24 0 .452-.04.637-.118s.34-.182.468-.312.225-.28.29-.45c.068-.17.1-.346.1-.53zm4.975 2.18c.073-.096.142-.188.205-.274.063-.087.123-.174.18-.26-.183.146-.39.258-.62.335-.23.074-.473.112-.73.112-.27 0-.526-.045-.767-.135-.242-.09-.455-.223-.638-.397-.184-.174-.33-.39-.438-.644s-.163-.548-.163-.878c0-.313.06-.606.175-.88.114-.273.28-.512.49-.715s.46-.363.75-.48c.29-.116.606-.175.953-.175.343 0 .655.057.935.17.28.113.52.27.72.476.2.203.353.446.462.73.108.282.162.596.162.94 0 .205-.02.4-.057.586-.04.186-.094.367-.165.545-.072.18-.16.355-.263.53s-.22.354-.35.537l-1.746 2.52c-.042.064-.104.115-.184.153s-.173.058-.276.058h-.82l2.18-2.855zm.825-2.18c0-.222-.036-.425-.107-.606s-.17-.336-.297-.463c-.127-.128-.277-.226-.453-.294-.175-.068-.367-.103-.578-.103-.22 0-.42.036-.6.107-.18.073-.335.172-.465.3-.13.125-.23.277-.3.454s-.105.37-.105.58c0 .227.032.43.098.607.065.18.158.33.28.454s.27.217.445.28c.175.063.37.095.588.095.24 0 .452-.04.637-.118s.34-.182.468-.312.225-.28.29-.45c.068-.17.1-.346.1-.53zm2.73 4.356h1.535v-4.886c0-.14.005-.288.015-.444l-1.275 1.095c-.043.035-.086.06-.13.065-.043.01-.083.01-.12.003s-.07-.022-.103-.04c-.032-.022-.056-.043-.072-.066l-.28-.385 2.135-1.846h.725v6.5h1.41v.68h-3.84v-.68zM289.787 248.994h1.535v-4.886c0-.14.005-.288.015-.444l-1.274 1.095c-.044.035-.087.06-.13.065-.044.01-.084.01-.12.003-.037-.008-.07-.022-.103-.04-.032-.022-.057-.043-.073-.066l-.28-.385 2.136-1.846h.725v6.5h1.41v.68h-3.84v-.68zm8.045-2.176c.073-.096.142-.188.205-.274s.123-.174.18-.26c-.184.146-.39.258-.62.335-.23.074-.473.112-.73.112-.27 0-.525-.045-.767-.135-.242-.09-.454-.223-.638-.397s-.33-.39-.438-.644-.162-.548-.162-.878c0-.313.058-.606.175-.88.116-.273.28-.512.49-.715s.46-.363.75-.48c.29-.116.607-.175.954-.175.346 0 .657.057.938.17s.52.27.72.476c.2.203.354.446.463.73s.163.596.163.94c0 .205-.02.4-.058.586-.038.186-.093.367-.165.545-.072.18-.16.355-.263.53-.104.175-.22.354-.35.537l-1.746 2.52c-.04.064-.102.115-.183.153s-.172.058-.275.058h-.818l2.18-2.855zm.825-2.18c0-.222-.036-.425-.107-.606-.072-.182-.17-.336-.298-.463-.127-.128-.277-.226-.452-.294-.176-.068-.368-.103-.578-.103-.22 0-.42.036-.6.107-.18.073-.335.172-.465.3-.13.125-.23.277-.3.454-.07.177-.105.37-.105.58 0 .227.032.43.098.607.064.18.158.33.28.454.12.123.27.217.444.28s.37.095.588.095c.24 0 .452-.04.638-.118.185-.077.34-.182.467-.312s.224-.28.29-.45c.067-.17.1-.346.1-.53zm4.975 2.18c.073-.096.142-.188.205-.274s.123-.174.18-.26c-.184.146-.39.258-.62.335-.23.074-.473.112-.73.112-.27 0-.525-.045-.767-.135-.242-.09-.454-.223-.638-.397s-.33-.39-.438-.644-.162-.548-.162-.878c0-.313.058-.606.175-.88.116-.273.28-.512.49-.715s.46-.363.75-.48c.29-.116.607-.175.954-.175.346 0 .657.057.938.17s.52.27.72.476c.2.203.354.446.463.73s.163.596.163.94c0 .205-.02.4-.058.586-.038.186-.093.367-.165.545-.072.18-.16.355-.263.53-.104.175-.22.354-.35.537l-1.746 2.52c-.04.064-.102.115-.183.153s-.172.058-.275.058h-.818l2.18-2.855zm.825-2.18c0-.222-.036-.425-.107-.606-.072-.182-.17-.336-.298-.463-.127-.128-.277-.226-.452-.294-.176-.068-.368-.103-.578-.103-.22 0-.42.036-.6.107-.18.073-.335.172-.465.3-.13.125-.23.277-.3.454-.07.177-.105.37-.105.58 0 .227.032.43.098.607.064.18.158.33.28.454.12.123.27.217.444.28s.37.095.588.095c.24 0 .452-.04.638-.118.185-.077.34-.182.467-.312s.224-.28.29-.45c.067-.17.1-.346.1-.53zm3.85.555c-.066.08-.13.16-.186.235-.055.077-.11.15-.17.226.17-.117.36-.208.565-.273.205-.062.428-.095.668-.095.29 0 .563.047.82.143.256.095.48.233.672.415s.345.404.458.67c.113.265.17.567.17.907 0 .33-.06.636-.18.92-.12.282-.288.53-.503.74s-.475.374-.776.494c-.302.12-.634.18-.997.18-.36 0-.687-.058-.98-.173-.293-.112-.542-.276-.747-.487-.205-.212-.363-.47-.476-.77-.11-.303-.167-.64-.167-1.014 0-.314.07-.648.207-1.003.14-.355.36-.734.663-1.138l1.82-2.446c.046-.06.11-.11.192-.152.08-.04.174-.062.28-.062h.79l-2.124 2.685zm-.976 2.27c0 .23.036.44.103.63.066.19.164.355.292.49.13.138.285.243.47.318.186.077.397.114.633.114.24 0 .458-.038.653-.115.195-.077.36-.184.5-.32.14-.137.245-.3.32-.485s.11-.39.11-.61c0-.232-.034-.443-.107-.632s-.178-.35-.313-.48-.297-.232-.483-.303c-.188-.07-.392-.105-.615-.105-.24 0-.457.04-.65.122-.193.082-.357.192-.492.33-.135.14-.238.3-.31.48-.073.18-.11.37-.11.567zM357.47 242.43c.304 0 .588.044.85.134.265.09.493.222.687.393.193.172.345.38.455.628.11.246.165.526.165.84 0 .267-.04.515-.12.742-.08.23-.188.446-.325.652-.137.205-.294.407-.473.603s-.37.395-.57.595l-1.89 1.93c.134-.037.27-.066.405-.088s.27-.032.396-.032h2.4c.097 0 .174.028.23.085s.085.13.085.22v.54h-4.78v-.305c0-.063.014-.13.04-.195.027-.066.068-.128.125-.185l2.296-2.306c.19-.193.363-.38.52-.558.157-.178.29-.357.4-.537.11-.18.195-.363.256-.55.06-.184.09-.38.09-.59s-.033-.396-.1-.554c-.067-.158-.158-.29-.273-.393s-.253-.18-.41-.232c-.156-.05-.324-.077-.504-.077-.184 0-.352.028-.505.08-.152.055-.29.13-.407.224-.118.096-.217.208-.297.338s-.137.273-.17.43c-.04.117-.095.194-.163.232-.068.04-.164.05-.287.033l-.465-.08c.048-.328.14-.617.273-.87.135-.25.305-.46.51-.63s.44-.3.702-.39c.263-.087.548-.13.855-.13zm8.345 3.664c0 .627-.067 1.17-.202 1.628-.136.458-.32.837-.553 1.137-.233.3-.51.52-.827.67-.318.145-.66.22-1.023.22-.366 0-.707-.074-1.022-.22-.314-.148-.59-.37-.822-.67-.233-.3-.417-.68-.55-1.14-.134-.46-.2-1-.2-1.627s.066-1.17.2-1.63c.133-.46.316-.84.55-1.143s.508-.524.822-.672c.315-.146.656-.22 1.022-.22.363 0 .705.073 1.023.22.317.147.594.37.827.673s.417.685.553 1.145c.135.46.202 1.003.202 1.63zm-.924 0c0-.547-.044-1.006-.136-1.377-.092-.372-.215-.67-.37-.898-.155-.23-.334-.39-.537-.49-.204-.097-.415-.146-.636-.146-.22 0-.43.05-.634.147-.203.1-.382.26-.535.488-.152.227-.274.525-.366.897-.092.37-.138.83-.138 1.377s.046 1.005.138 1.375.214.667.367.895c.154.227.333.39.536.487.203.097.415.146.635.146.22 0 .433-.05.637-.148.203-.1.382-.26.537-.487.155-.227.278-.524.37-.895s.138-.83.138-1.376zm6.725 0c0 .627-.067 1.17-.202 1.628-.136.458-.32.837-.553 1.137-.233.3-.51.52-.827.67-.318.145-.66.22-1.023.22-.366 0-.707-.074-1.022-.22-.314-.148-.59-.37-.822-.67-.233-.3-.417-.68-.55-1.14-.134-.46-.2-1-.2-1.627s.066-1.17.2-1.63c.133-.46.316-.84.55-1.143s.508-.524.822-.672c.315-.146.656-.22 1.022-.22.363 0 .705.073 1.023.22.317.147.594.37.827.673s.417.685.553 1.145c.135.46.202 1.003.202 1.63zm-.925 0c0-.547-.046-1.006-.138-1.377-.092-.372-.215-.67-.37-.898-.155-.23-.334-.39-.537-.49-.204-.097-.415-.146-.636-.146-.22 0-.434.05-.637.147-.203.1-.382.26-.535.488-.154.227-.276.525-.368.897-.092.37-.138.83-.138 1.377s.046 1.005.138 1.375.214.667.367.895c.152.227.33.39.534.487.204.097.416.146.636.146.22 0 .43-.05.635-.148.204-.1.383-.26.538-.487.155-.227.278-.524.37-.895s.138-.83.138-1.376zm2.475 2.9h1.535v-4.886c0-.14.005-.288.015-.444l-1.274 1.095c-.042.035-.085.06-.13.065-.042.01-.082.01-.12.003-.035-.008-.07-.022-.1-.04-.033-.022-.058-.043-.074-.066l-.28-.385 2.136-1.846h.726v6.5h1.41v.68h-3.84v-.68zM423.456 242.43c.303 0 .587.044.85.134.264.09.492.222.686.393.193.172.345.38.455.628.11.246.165.526.165.84 0 .267-.04.515-.12.742-.08.23-.188.446-.325.652-.137.205-.294.407-.473.603s-.367.395-.567.595l-1.89 1.93c.133-.037.268-.066.404-.088s.27-.032.398-.032h2.4c.096 0 .173.028.23.085s.084.13.084.22v.54h-4.78v-.305c0-.063.015-.13.04-.195.028-.066.07-.128.126-.185l2.295-2.306c.19-.193.364-.38.522-.558.156-.178.29-.357.4-.537.11-.18.194-.363.255-.55.06-.184.09-.38.09-.59s-.033-.396-.1-.554c-.067-.158-.158-.29-.273-.393s-.25-.18-.407-.232c-.157-.05-.325-.077-.505-.077-.184 0-.352.028-.505.08-.153.055-.29.13-.408.224-.12.096-.218.208-.298.338s-.137.273-.17.43c-.04.117-.095.194-.163.232-.07.04-.164.05-.287.033l-.465-.08c.047-.328.138-.617.272-.87.134-.25.304-.46.51-.63s.438-.3.7-.39c.264-.087.55-.13.856-.13zm8.344 3.664c0 .627-.066 1.17-.2 1.628-.137.458-.32.837-.554 1.137-.233.3-.51.52-.827.67-.32.145-.66.22-1.025.22-.366 0-.707-.074-1.022-.22-.314-.148-.59-.37-.822-.67-.232-.3-.416-.68-.55-1.14-.133-.46-.2-1-.2-1.627s.067-1.17.2-1.63c.134-.46.317-.84.55-1.143s.51-.524.823-.672c.315-.146.656-.22 1.022-.22.363 0 .705.073 1.023.22.316.147.593.37.826.673s.417.685.553 1.145c.133.46.2 1.003.2 1.63zm-.924 0c0-.547-.046-1.006-.138-1.377-.092-.372-.215-.67-.37-.898-.155-.23-.334-.39-.537-.49-.202-.097-.413-.146-.634-.146-.22 0-.432.05-.635.147-.202.1-.38.26-.534.488-.153.227-.275.525-.367.897-.093.37-.14.83-.14 1.377s.047 1.005.14 1.375.213.667.366.895c.153.227.332.39.535.487.204.097.416.146.636.146.22 0 .432-.05.636-.148.204-.1.383-.26.538-.487.155-.227.278-.524.37-.895s.138-.83.138-1.376zm6.724 0c0 .627-.066 1.17-.2 1.628-.137.458-.32.837-.554 1.137-.233.3-.51.52-.827.67-.32.145-.66.22-1.025.22-.366 0-.707-.074-1.022-.22-.314-.148-.59-.37-.822-.67-.232-.3-.416-.68-.55-1.14-.133-.46-.2-1-.2-1.627s.067-1.17.2-1.63c.134-.46.317-.84.55-1.143s.51-.524.823-.672c.315-.146.656-.22 1.022-.22.363 0 .705.073 1.023.22.316.147.593.37.826.673s.417.685.553 1.145c.133.46.2 1.003.2 1.63zm-.924 0c0-.547-.046-1.006-.138-1.377-.092-.372-.215-.67-.37-.898-.155-.23-.334-.39-.537-.49-.202-.097-.413-.146-.634-.146-.22 0-.432.05-.635.147-.202.1-.38.26-.534.488-.153.227-.275.525-.367.897-.093.37-.14.83-.14 1.377s.047 1.005.14 1.375.213.667.366.895c.153.227.332.39.535.487.204.097.416.146.636.146.22 0 .432-.05.636-.148.204-.1.383-.26.538-.487.155-.227.278-.524.37-.895s.138-.83.138-1.376zm3.594-.9c-.065.08-.128.16-.185.234l-.17.226c.17-.117.357-.208.563-.273.205-.062.428-.095.668-.095.29 0 .563.047.82.143.256.095.48.233.672.415s.345.404.458.67c.113.265.17.567.17.907 0 .33-.06.636-.18.92-.12.282-.288.53-.503.74s-.474.374-.775.494c-.302.12-.634.18-.997.18-.36 0-.685-.058-.98-.173-.29-.112-.54-.276-.745-.487-.205-.212-.363-.47-.476-.77-.11-.303-.168-.64-.168-1.014 0-.314.07-.648.208-1.003.14-.355.36-.734.663-1.138l1.82-2.446c.047-.06.11-.11.193-.152.08-.04.176-.062.282-.062h.79l-2.124 2.685zm-.975 2.27c0 .23.034.44.1.63.067.19.165.354.293.49.13.137.285.242.47.317.186.077.397.114.633.114.24 0 .46-.038.655-.115.194-.077.36-.184.5-.32.138-.137.244-.3.32-.485s.11-.39.11-.61c0-.232-.035-.443-.108-.632s-.178-.35-.313-.48-.296-.232-.482-.303c-.187-.07-.39-.105-.614-.105-.24 0-.457.04-.65.122-.193.082-.357.192-.492.33-.135.14-.238.3-.31.48-.073.18-.11.37-.11.567zM489.44 242.43c.304 0 .588.044.85.134.265.09.493.222.687.393.193.172.345.38.455.628.11.246.165.526.165.84 0 .267-.04.515-.12.742-.08.23-.188.446-.325.652-.137.205-.294.407-.473.603s-.37.395-.57.595l-1.89 1.93c.134-.037.27-.066.405-.088s.27-.032.396-.032h2.4c.097 0 .174.028.23.085s.085.13.085.22v.54h-4.78v-.305c0-.063.014-.13.04-.195.027-.066.068-.128.125-.185l2.296-2.306c.19-.193.363-.38.52-.558.157-.178.29-.357.4-.537.11-.18.195-.363.256-.55.06-.184.09-.38.09-.59s-.033-.396-.1-.554c-.067-.158-.158-.29-.273-.393s-.253-.18-.41-.232c-.156-.05-.324-.077-.504-.077-.184 0-.352.028-.505.08-.152.055-.29.13-.407.224-.118.096-.217.208-.297.338s-.137.273-.17.43c-.04.117-.095.194-.163.232-.068.04-.164.05-.287.033l-.465-.08c.048-.328.14-.617.273-.87.135-.25.305-.46.51-.63s.44-.3.702-.39c.264-.087.55-.13.855-.13zm8.346 3.664c0 .627-.067 1.17-.202 1.628-.136.458-.32.837-.553 1.137-.23.3-.51.52-.825.67-.318.145-.66.22-1.023.22-.365 0-.706-.074-1.02-.22-.315-.148-.59-.37-.823-.67-.234-.3-.418-.68-.55-1.14-.135-.46-.2-1-.2-1.627s.065-1.17.2-1.63c.132-.46.315-.84.55-1.143s.507-.524.82-.672c.315-.146.656-.22 1.02-.22.365 0 .707.073 1.025.22.317.147.594.37.827.673s.418.685.554 1.145c.135.46.202 1.003.202 1.63zm-.925 0c0-.547-.044-1.006-.136-1.377-.092-.372-.215-.67-.37-.898-.155-.23-.334-.39-.537-.49-.204-.097-.415-.146-.636-.146-.22 0-.43.05-.634.147-.203.1-.382.26-.535.488-.152.227-.274.525-.366.897-.092.37-.138.83-.138 1.377s.046 1.005.138 1.375.214.667.367.895c.154.227.333.39.536.487.203.097.415.146.635.146.22 0 .433-.05.637-.148.203-.1.382-.26.537-.487.155-.227.278-.524.37-.895s.138-.83.138-1.376zm2.476 2.9h1.535v-4.886c0-.14.007-.288.017-.444l-1.274 1.095c-.044.035-.087.06-.13.065-.044.01-.084.01-.12.003-.037-.008-.07-.022-.103-.04-.033-.022-.058-.043-.074-.066l-.28-.385 2.136-1.846h.725v6.5h1.41v.68h-3.84v-.68zm5.8 0h1.535v-4.886c0-.14.007-.288.017-.444l-1.274 1.095c-.044.035-.087.06-.13.065-.044.01-.084.01-.12.003-.037-.008-.07-.022-.103-.04-.033-.022-.058-.043-.074-.066l-.28-.385 2.136-1.846h.725v6.5h1.41v.68h-3.84v-.68z" fill="#4E4E4E"/><path d="M146.4 55.61h-1.62v-8.677h1.62v8.676zm3.216-8.917v8.916h-1.482V46.69h1.482zm2.957 0v8.916h-1.482V46.69h1.484zm3.197.967c0 .127-.025.247-.077.36-.052.11-.12.21-.207.293s-.187.15-.303.2c-.116.05-.24.076-.372.076-.126 0-.247-.027-.36-.077-.115-.05-.214-.117-.298-.2s-.15-.183-.2-.295c-.05-.113-.075-.233-.075-.36 0-.133.025-.257.075-.373.05-.115.117-.216.2-.3s.184-.15.298-.2c.114-.05.235-.076.363-.076.133 0 .257.025.373.075.116.05.217.117.303.2s.154.186.206.3c.052.117.078.24.078.373zm-.203 1.793v6.156h-1.488V49.45h1.486zm1.633 6.157v-6.157h.905c.192 0 .318.09.378.27l.102.486c.124-.13.255-.245.393-.35.138-.104.284-.194.438-.27.154-.076.32-.135.495-.175.178-.04.37-.06.578-.06.336 0 .634.057.894.17.26.115.478.275.652.48s.306.452.396.738.135.602.135.945v3.917h-1.482V51.69c0-.377-.085-.668-.257-.874s-.434-.31-.786-.31c-.256 0-.496.06-.72.175-.224.118-.436.275-.636.476v4.452h-1.48zm9.43-6.253c.458 0 .872.074 1.247.222.373.146.693.356.96.63.265.27.47.602.614.994.147.393.22.83.22 1.314 0 .487-.073.927-.218 1.32-.144.39-.35.725-.614 1-.266.276-.586.488-.96.637-.374.147-.788.222-1.245.222-.458 0-.876-.075-1.252-.223-.375-.148-.696-.36-.962-.636-.266-.275-.472-.61-.618-1-.146-.394-.22-.833-.22-1.32 0-.485.074-.923.22-1.315.146-.392.352-.724.618-.996s.587-.482.963-.63c.376-.15.794-.223 1.254-.223zm0 5.202c.513 0 .892-.174 1.138-.52.246-.343.37-.847.37-1.51s-.124-1.17-.37-1.52c-.246-.35-.625-.52-1.137-.52-.52 0-.903.174-1.153.524-.25.35-.375.854-.375 1.515s.126 1.162.376 1.51c.25.345.635.52 1.155.52zm5.827-6.9c0 .127-.025.247-.078.36-.054.11-.12.21-.21.293-.085.084-.186.15-.302.2s-.24.076-.373.076c-.128 0-.25-.027-.362-.077-.114-.05-.214-.117-.298-.2s-.15-.183-.2-.295c-.05-.113-.075-.233-.075-.36 0-.133.024-.257.075-.373.05-.115.116-.216.2-.3s.184-.15.298-.2c.113-.05.234-.076.362-.076.132 0 .256.025.372.075.115.05.216.117.302.2.086.085.154.186.206.3.052.117.077.24.077.373zm-.204 1.793v6.156h-1.487V49.45h1.487zm5.387 1.2c-.04.064-.08.11-.125.135-.044.026-.1.04-.168.04-.072 0-.15-.02-.23-.06s-.178-.086-.286-.136c-.105-.05-.23-.096-.367-.136-.138-.04-.3-.06-.488-.06-.292 0-.52.062-.688.186s-.25.286-.25.486c0 .132.044.243.13.333s.2.17.343.24c.14.066.302.13.48.182s.364.114.55.178c.187.064.37.138.55.22.18.082.34.186.482.312s.256.277.342.453.13.388.13.636c0 .296-.054.57-.16.82-.105.25-.263.465-.47.646-.21.183-.466.324-.772.427-.307.102-.66.152-1.06.152-.212 0-.42-.02-.62-.057-.202-.038-.397-.09-.583-.16-.188-.066-.36-.146-.518-.24-.158-.09-.297-.19-.417-.3l.342-.562c.044-.068.097-.12.156-.156s.136-.055.228-.055c.094 0 .18.025.263.077.082.053.177.108.285.168.106.06.233.116.38.17.146.05.33.076.555.076.176 0 .327-.02.453-.063s.23-.097.312-.165.143-.147.18-.237.058-.18.058-.276c0-.145-.043-.263-.13-.354s-.2-.173-.34-.24c-.144-.068-.306-.13-.487-.184s-.368-.113-.558-.177c-.19-.066-.376-.14-.56-.228-.18-.086-.343-.194-.484-.327-.144-.132-.257-.294-.344-.485-.086-.19-.13-.423-.13-.695 0-.252.052-.492.15-.72.1-.23.248-.427.442-.598.193-.17.436-.306.726-.407.29-.103.625-.153 1.005-.153.423 0 .81.07 1.157.21s.638.324.87.552l-.336.532z" fill="#FFC30D"/><path d="M122.694 133.73c.312 0 .59-.053.837-.157.248-.104.455-.25.623-.438.168-.188.297-.415.387-.684.09-.266.135-.565.135-.9v-5.193h1.613v5.195c0 .518-.083.994-.25 1.433-.165.438-.402.815-.713 1.134-.31.317-.687.565-1.13.743s-.945.268-1.5.268c-.562 0-1.063-.09-1.507-.266s-.82-.425-1.13-.743c-.312-.317-.55-.695-.715-1.133-.166-.438-.25-.915-.25-1.432v-5.194h1.614v5.19c0 .33.045.633.136.9.09.268.22.497.39.687.17.19.378.338.624.44.247.105.526.157.837.157zm4.956.484c0-.123.023-.24.07-.354s.108-.208.188-.288c.08-.08.176-.144.287-.192.112-.048.232-.07.36-.07s.247.022.357.07c.11.05.206.112.288.192s.146.176.194.288.072.23.072.354c0 .13-.024.247-.072.357s-.112.207-.194.287-.18.143-.288.188c-.11.046-.23.07-.357.07s-.248-.024-.36-.07c-.11-.046-.208-.108-.287-.188-.08-.08-.144-.175-.19-.285s-.068-.227-.068-.356zm7.92-6.28c-.048.083-.1.144-.153.182-.054.038-.12.057-.2.057-.084 0-.176-.03-.273-.093-.098-.062-.215-.13-.35-.207-.138-.076-.297-.145-.48-.207-.18-.062-.395-.093-.644-.093-.225 0-.42.027-.588.08s-.31.13-.424.226c-.113.095-.198.21-.255.344-.056.134-.084.28-.084.44 0 .204.056.374.17.51.113.137.265.253.452.35.188.095.402.18.643.257.24.077.485.158.737.244s.498.186.738.3.455.258.643.432c.188.175.34.388.453.64.114.252.17.558.17.918 0 .392-.065.76-.2 1.1-.134.343-.33.642-.587.896-.26.255-.575.455-.947.6-.372.147-.798.22-1.278.22-.275 0-.548-.026-.815-.08-.268-.055-.524-.132-.77-.23-.246-.102-.477-.22-.693-.36-.216-.14-.407-.297-.575-.47l.474-.773c.04-.056.092-.103.156-.14.063-.04.132-.058.204-.058.1 0 .208.04.323.12.114.083.252.174.412.273.16.1.348.19.562.273s.47.123.77.123c.46 0 .817-.11 1.07-.328s.377-.53.377-.94c0-.227-.056-.413-.17-.557-.114-.145-.265-.265-.453-.363-.188-.098-.402-.18-.642-.25-.24-.066-.484-.14-.732-.22s-.492-.177-.73-.29c-.24-.11-.455-.257-.644-.437-.19-.18-.34-.404-.454-.675-.114-.27-.17-.602-.17-.998 0-.315.062-.624.188-.924s.31-.565.55-.798.535-.418.887-.558c.354-.14.757-.21 1.213-.21.512 0 .984.08 1.416.24.432.16.8.383 1.103.67l-.404.76zm1.512 6.28c0-.123.023-.24.07-.354s.108-.208.188-.288c.08-.08.176-.144.287-.192.112-.048.232-.07.36-.07s.247.022.357.07c.11.05.206.112.288.192s.146.176.194.288.072.23.072.354c0 .13-.024.247-.072.357s-.112.207-.194.287-.18.143-.288.188c-.11.046-.23.07-.357.07s-.248-.024-.36-.07c-.11-.046-.208-.108-.287-.188-.08-.08-.144-.175-.19-.285s-.068-.227-.068-.356z" fill="#09BCD4"/></svg>