<svg xmlns="http://www.w3.org/2000/svg" width="561" height="252" viewBox="0 0 561 252"><style>text, tspan { font-family: &apos;Lato&apos;; } .heavy { font-weight: 700; }</style><path stroke="#CDCCCC" stroke-linejoin="round" stroke-miterlimit="10" d="M49.69 196.437h505.224M49.69 166.18h505.224M49.69 135.92h505.224M49.69 105.79h505.224M49.69 75.53h505.224M49.69 45.275h505.224M49.69 15.14h505.224" fill="none"/><path stroke="#9B9B9B" stroke-linejoin="round" stroke-miterlimit="10" fill="none" d="M49.69 226.57h505.224M49.69 223.458v6.226m46.762-6.226v6.226m46.762-6.226v6.226m46.9-6.226v6.226m46.76-6.226v6.226m46.764-6.226v6.226m46.762-6.226v6.226m46.763-6.226v6.226m46.762-6.226v6.226m46.763-6.226v6.226m46.76-6.226v6.226"/><path stroke="#29AAE2" stroke-width="3" stroke-linecap="round" stroke-linejoin="round" stroke-miterlimit="10" fill="none" d="M54.407 199.114L63.704 196l9.435 2.615 9.297-.995 9.434-1.37 9.3-1.37 9.433-3.112 9.298-4.98 9.3-2.866 9.433 1.247 9.298-2.492 9.436 2.74 9.298 6.475 9.297-2.99 9.436-4.233 9.297-6.1 9.435-3.86 9.298 3.734 9.297-10.46 9.436-2.49 9.296-2.365 9.435-3.985 9.298 12.95 9.434 14.567 9.298 14.194 9.298-4.855 9.434-4.605 9.3 1.866 9.433-.495 9.298-9.837 9.297-13.45 9.435 4.61 9.298 2.24 9.433 3.61 9.3-7.22 9.297-8.84 9.435-8.22 9.298-9.587 9.433-9.837 9.297-6.225 9.435 3.113 9.298-3.61 9.298-1.37 9.434 21.417 9.298 2.863 9.434-19.176 9.298-30.133L494 34.38l9.434 2.863 9.298 16.436 9.435 74.46 9.298 6.6 9.433-39.1 9.298 3.238"/><path clip-rule="evenodd" fill="none" d="M49.69 227.316h505.908v-212.3H49.688v212.3z"/><text transform="translate(34.04 225.879)" fill="#4E4E4E" font-size="12">0</text><text transform="translate(20.121 195.666)"><tspan x="0" y="0" fill="#4E4E4E" font-size="12">500</tspan></text><text transform="translate(10.509 165.445)"><tspan x="0" y="0" fill="#4E4E4E" font-size="12">1,000</tspan></text><text transform="translate(10.509 135.232)"><tspan x="0" y="0" fill="#4E4E4E" font-size="12">1,500</tspan></text><text transform="translate(10.509 105.011)"><tspan x="0" y="0" fill="#4E4E4E" font-size="12">2,000</tspan></text><text transform="translate(10.509 74.798)"><tspan x="0" y="0" fill="#4E4E4E" font-size="12">2,500</tspan></text><text transform="translate(10.509 44.577)"><tspan x="0" y="0" fill="#4E4E4E" font-size="12">3,000</tspan></text><text transform="translate(3.477 14.364)"><tspan x="0" y="0" fill="#4E4E4E" font-size="12">$3,500</tspan></text><text transform="translate(36.602 244)"><tspan x="0" y="0" fill="#4E4E4E" font-size="12">1958</tspan></text><text transform="translate(83.373 244)"><tspan x="0" y="0" fill="#4E4E4E" font-size="12">1963</tspan></text><text transform="translate(130.144 244)"><tspan x="0" y="0" fill="#4E4E4E" font-size="12">1968</tspan></text><text transform="translate(176.922 244)"><tspan x="0" y="0" fill="#4E4E4E" font-size="12">1973</tspan></text><text transform="translate(223.692 244)"><tspan x="0" y="0" fill="#4E4E4E" font-size="12">1978</tspan></text><text transform="translate(270.463 244)"><tspan x="0" y="0" fill="#4E4E4E" font-size="12">1983</tspan></text><text transform="translate(317.232 244)"><tspan x="0" y="0" fill="#4E4E4E" font-size="12">1988</tspan></text><text transform="translate(364.003 244)"><tspan x="0" y="0" fill="#4E4E4E" font-size="12">1993</tspan></text><text transform="translate(410.773 244)"><tspan x="0" y="0" fill="#4E4E4E" font-size="12">1998</tspan></text><text transform="translate(457.543 244)"><tspan x="0" y="0" fill="#4E4E4E" font-size="12">2003</tspan></text><text transform="translate(504.322 244)"><tspan x="0" y="0" fill="#4E4E4E" font-size="12">2008</tspan></text><path fill="none" d="M20-323.946h610v38.612H20z"/><path stroke="#CDCCCC" stroke-linejoin="round" stroke-miterlimit="10" d="M89.166-235.05h539.092M89.166-215.082h539.092m-539.092 19.97h539.092M89.166-175.144h539.092m-539.092 19.97h539.092M89.166-135.207h539.092m-539.092 19.97h539.092M89.166-95.27h539.092M89.166-75.298h539.092M89.166-55.33h539.092" fill="none"/><path stroke="#9B9B9B" stroke-linejoin="round" stroke-miterlimit="10" fill="none" d="M89.3-35.406h538.958"/><path stroke="#6DAADC" stroke-width="3" stroke-linecap="round" stroke-linejoin="round" stroke-miterlimit="10" d="M586.17-203.987l27.733-18.86m-56.58 19.97l28.846-1.11m-57.69 4.437l28.844-3.328m-56.578 22.188l27.734-18.86m-56.578-14.422l28.844 33.282m-56.578 34.39l27.734-67.672m-56.578 82.095l28.844-14.422m-56.58 33.282l27.736-18.86m-56.58 15.532l28.845 3.328m-57.69-22.188l28.845 18.86m-56.578-5.547l27.734-13.313m-56.577 21.08l28.844-7.767m-56.58 1.11l27.735 6.655m-56.578-4.437l28.844-2.22m-56.578 16.642l27.734-14.422m-56.578 23.297l28.844-8.875M131.322-91.94l28.844-3.327m-56.58 5.546l27.735-2.22" fill="none"/><path stroke="#F19240" stroke-width="3" stroke-linecap="round" stroke-linejoin="round" stroke-miterlimit="10" d="M586.17-77.518l27.733-8.875m-56.58 2.22l28.846 6.655m-57.69 0l28.844-6.656M500.746-71.97l27.734-5.547m-56.578-7.766l28.844 13.313m-56.578 8.875l27.734-22.188m-56.578 25.515l28.844-3.328m-56.58 7.766l27.736-4.438m-56.58 2.22l28.845 2.218m-57.69-6.656l28.845 4.437m-56.578 1.11l27.734-5.545m-56.577 4.436l28.844 1.11m-56.58-3.328l27.735 2.22m-56.578-1.11l28.844-1.11M189.01-53.11l27.734-5.548m-56.578 7.765l28.844-2.22m-57.688 3.33l28.844-1.11m-56.58 1.11h27.735" fill="none"/><path stroke="#9B9B9B" stroke-linejoin="round" stroke-miterlimit="10" d="M668.25-38.165v5.52m-57.035-5.52v5.52m-56.264-5.52v5.52m-57.078-5.52v5.52m-56.26-5.52v5.52m-57.08-5.52v5.52m-56.263-5.52v5.52m-57.078-5.52v5.52m-56.263-5.52v5.52m-57.08-5.52v5.52m-56.263-5.52v5.52" fill="none"/><path fill="none" d="M19.726-285.333h608.258v86H19.726z"/></svg>