<svg xmlns="http://www.w3.org/2000/svg" width="366.75" height="350" viewBox="0 0 366.75 350"><style>text, tspan { font-family: &apos;Lato&apos;; } .heavy { font-weight: 700; }</style><path stroke="#CDCCCC" stroke-width=".75" stroke-linejoin="round" stroke-miterlimit="10" d="M46.53 10.857h306.762m-306.762 64h306.762m-306.762 64h306.762m-306.762 64h306.762m-306.762 64h306.762" fill="none"/><path stroke="#9B9B9B" stroke-linejoin="round" stroke-miterlimit="10" fill="none" d="M46.693 330.652h306.6M353.292 327.83v6.027m-61.084-6.027v6.027m-61.42-6.027v6.027m-61.42-6.027v6.027m-61.42-6.027v6.027M46.53 327.83v6.027"/><path stroke="#4584A6" stroke-width="3" stroke-linecap="round" stroke-linejoin="round" stroke-miterlimit="10" d="M193.667 197.857l12.147-4m-24.296 9l12.15-5m-24.3 8l12.15-3m-24.298 7l12.15-4m-24.3-1l12.15 5m-24.973-6l12.824 1m-24.97 3l12.147-4m-24.298 9l12.148-5m-24.297 11l12.15-6m-24.298 12l12.15-6m-24.3 11l12.15-5m-24.973 8l12.823-3m-24.973 4l12.148-1" fill="none"/><path fill="#21B573" d="M118.055 207.1l2.62-1.46 1.47 2.61-2.62 1.47-1.47-2.62zm4.36-2.45l2.62-1.46 1.46 2.61-2.61 1.47-1.47-2.62zm4.36-2.44l2.62-1.47 1.46 2.61-2.61 1.47-1.47-2.61zm3.48-2.08l2.72-1.27 1.26 2.72-2.71 1.27-1.27-2.72zm4.53-2.12l2.71-1.27 1.28 2.72-2.72 1.27-1.27-2.72zm4.52-2.11l2.72-1.28 1.27 2.72-2.71 1.27-1.28-2.71zm3.72-1.59l2.6-1.5 1.49 2.6-2.59 1.49-1.5-2.59zm4.33-2.5l2.6-1.5 1.5 2.6-2.6 1.5-1.5-2.6zm4.33-2.5l2.6-1.5 1.5 2.6-2.6 1.5-1.5-2.6zm3.49-2l2.6-1.5 1.49 2.6-2.6 1.49-1.49-2.59zm4.33-2.5l2.6-1.5 1.49 2.6-2.59 1.5-1.5-2.6zm4.33-2.5l2.6-1.49 1.5 2.59-2.6 1.5-1.5-2.6zm3.49-2l2.59-1.5 1.5 2.6-2.6 1.49-1.49-2.59zm4.33-2.5l2.6-1.5 1.49 2.6-2.59 1.5-1.5-2.6zm4.33-2.5l2.6-1.49 1.5 2.59-2.6 1.5-1.5-2.6zm3.45-1.88l2.51-1.65 1.65 2.5-2.5 1.65-1.66-2.5zm4.18-2.75l2.5-1.65 1.66 2.5-2.51 1.65-1.65-2.5zm4.18-2.75l2.5-1.65 1.65 2.5-2.5 1.65-1.65-2.5zm3.79-2.5l2.51-1.65 1.65 2.5-2.51 1.65-1.65-2.5zm4.18-2.75l2.5-1.65 1.66 2.5-2.51 1.65-1.65-2.5zm4.18-2.75l2.5-1.65 1.65 2.5-2.5 1.65-1.65-2.5zm3.8-2.55l2.55-1.59 1.59 2.55-2.55 1.58-1.59-2.54zm4.24-2.65l2.55-1.59 1.59 2.55-2.55 1.59-1.59-2.55zm4.25-2.64l2.54-1.59 1.59 2.54-2.55 1.59-1.58-2.54zm4.24-2.65l2.59-1.66 1.65 2.5-.13.09.02.03-2.39 1.53-.03-.03-.12.08-1.59-2.54zm4.26-2.76l2.51-1.65 1.65 2.5-2.51 1.65-1.65-2.5zm4.18-2.75l2.5-1.65 1.65 2.5-2.5 1.65-1.65-2.5zm3.77-2.39l2.42-1.78 1.78 2.41-2.41 1.79-1.79-2.42zm4.02-2.97l2.41-1.79 1.79 2.41-2.41 1.79-1.79-2.41zm4.02-2.98l2.41-1.78 1.78 2.41-2.4 1.78-1.79-2.41zm4.02-2.97l.09-.08 2.32-1.71.1-.07 1.78 2.41-2.51 1.86-1.78-2.41zm4.11-3.05l2.41-1.79 1.79 2.41-2.41 1.79-1.79-2.41zm4.02-2.98l2.41-1.79 1.78 2.42-2.41 1.78-1.78-2.41zm4.02-2.98l2.5-1.85 1.79 2.41-.1.07-2.41 1.79-1.78-2.42zm4.11-3.04l2.41-1.79 1.79 2.41-2.42 1.79-1.78-2.41zm4.02-2.98l2.41-1.79 1.78 2.42-2.41 1.78-1.78-2.41zm4.01-2.98l1.28-.94 1.12-.92 1.91 2.31-.15.12.04.06-1.09.81-1.12.92-.04-.06-.16.12-1.79-2.42zm3.95-3.13l2.31-1.91 1.91 2.31-2.32 1.91-1.9-2.31zm3.86-3.18l2.31-1.91 1.91 2.32-2.32 1.9-1.9-2.31zm3.86-3.18l.6-.49-.03-.03 1.74-1.39.02.02.61-.48 1.84 2.37-1.19.93-1.68 1.39-1.91-2.32zm4.52-3.6l2.36-1.84 1.85 2.36-2.37 1.85-1.84-2.37zm3.94-3.07l2.36-1.85 1.85 2.37-2.37 1.84-1.84-2.36zm3.94-3.08l3.31-2.62 1.9 2.31-1 .83-1.31 1.08-.03-.03-1.02.8-1.85-2.37zm4.85-3.9l2.32-1.9 1.9 2.31-2.31 1.91-1.91-2.32zm3.86-3.17l2.32-1.91 1.9 2.32-2.312 1.9c-1.91-2.31.002 0-1.91-2.31zm3.86-3.18l2.88-2.38 1.91 2.32-2.31 1.91h-.01l-.56.46-1.91-2.31zm4.43-3.65l2.31-1.9 1.91 2.31-2.31 1.91-1.91-2.32zm3.86-3.17l2.31-1.91 1.91 2.32-2.31 1.9-1.91-2.31zm3.86-3.18l1.74-1.43 1.04-.95 2.02 2.22-.6.54.02.03-.54.45-1.11 1-.04-.06-.62.51-1.91-2.31zm4.27-3.72l2.22-2.02 2.01 2.22-2.22 2.02-2.01-2.22zm3.7-3.36l2.23-2.02 2.01 2.23-2.22 2.01-2.02-2.22zm3.71-3.36l2.12-1.91 1.04-1.03 2.11 2.13-1.04 1.02h.01l-.02.02-1.08 1.07-.05-.05-1.08.98-2.01-2.23zm4.58-4.35l2.14-2.11 2.11 2.14-2.14 2.1-2.11-2.13zm3.56-3.52l2.13-2.1 2.11 2.13-2.13 2.11-2.11-2.14zm3.56-3.51l2.13-2.11 2.11 2.14-2.13 2.11-2.11-2.14z"/><path fill="#F47C20" stroke="#CF7178" stroke-width="3" stroke-linecap="round" stroke-linejoin="round" stroke-miterlimit="10" d="M328.654 137.857l12.147-6m-24.294 11l12.148-5m-24.3 10l12.15-5m-24.296 10l12.147-5m-24.97 11l12.823-6m-24.974 11l12.15-5m-24.298 11l12.148-6m-24.296 12l12.148-6m-24.298 14l12.15-8m-24.297 14l12.148-6m-24.974 9.793l12.824-3.793"/><text transform="translate(30.342 329.652)" fill="#4E4E4E" font-family="'Lato-Regular'" font-size="12">5</text><text transform="translate(23.382 265.695)" fill="#4E4E4E" font-family="'Lato-Regular'" font-size="12">10</text><text transform="translate(23.382 201.736)" fill="#4E4E4E" font-family="'Lato-Regular'" font-size="12">15</text><text transform="translate(23.382 137.779)" fill="#4E4E4E" font-family="'Lato-Regular'" font-size="12">20</text><text transform="translate(23.382 73.82)" fill="#4E4E4E" font-family="'Lato-Regular'" font-size="12">25</text><text transform="translate(16.422 9.863)" fill="#4E4E4E" font-family="'Lato-Regular'" font-size="12">$30</text><text transform="translate(32.545 348.318)" fill="#4E4E4E" font-family="'Lato-Regular'" font-size="12">2000</text><text transform="translate(93.864 348.318)" fill="#4E4E4E" font-family="'Lato-Regular'" font-size="12">2005</text><text transform="translate(155.184 348.318)" fill="#4E4E4E" font-family="'Lato-Regular'" font-size="12">2010</text><text transform="translate(216.504 348.318)" fill="#4E4E4E" font-family="'Lato-Regular'" font-size="12">2015</text><text transform="translate(277.824 348.318)" fill="#4E4E4E" font-family="'Lato-Regular'" font-size="12">2020</text><text transform="translate(339.144 348.318)" fill="#4E4E4E" font-family="'Lato-Regular'" font-size="12">2025</text><text transform="translate(47.938 214.18)" fill="#4584A6" font-family="'Lato-Heavy'" font-size="12">Actual</text><text transform="translate(225.994 109.289)" fill="#21B573" font-family="'Lato-Heavy'" font-size="12">Trend</text><text transform="translate(261.575 187.424)" fill="#CF7178" font-family="'Lato-Heavy'" font-size="12">CBO Projected</text><text transform="matrix(0 -1 1 0 10.084 222.06)" fill="#666766" font-family="'Lato-Semibold'" font-size="12">Trillions of Dollars</text></svg>