<svg xmlns="http://www.w3.org/2000/svg" width="368.5" height="361.833" viewBox="0 0 368.5 361.833"><style>text, tspan { font-family: &apos;Lato&apos;; } .heavy { font-weight: 700; }</style><path stroke="#CDCCCC" stroke-width=".75" stroke-linejoin="round" stroke-miterlimit="10" d="M47.28 11.94h306.762m-306.762 64h306.762m-306.762 64h306.762m-306.762 64h306.762m-306.762 64h306.762" fill="none"/><path stroke="#9B9B9B" stroke-linejoin="round" stroke-miterlimit="10" fill="none" d="M47.443 331.736h306.6M354.042 328.914v6.027m-61.084-6.026v6.027m-61.42-6.026v6.027m-61.42-6.026v6.027m-61.42-6.026v6.027m-61.418-6.026v6.027"/><path stroke="#4584A6" stroke-width="3" stroke-linecap="round" stroke-linejoin="round" stroke-miterlimit="10" d="M194.417 198.94l12.148-4m-24.297 9l12.15-5m-24.3 8l12.15-3m-24.298 7l12.15-4m-24.3-1l12.15 5m-24.973-6l12.824 1m-24.97 3l12.147-4m-24.298 9l12.148-5m-24.297 11l12.15-6m-24.298 12l12.15-6m-24.3 11l12.15-5m-24.973 8l12.823-3m-24.973 4l12.148-1m-12.148 1-36.447 20 0 0" fill="none"/><path fill="#21B573" d="M118.81 208.183l2.61-1.47 1.47 2.62-2.61 1.47-1.47-2.62zm4.36-2.45l2.61-1.46 1.47 2.61-2.62 1.47-1.46-2.62zm4.36-2.44l2.61-1.47 1.47 2.61-2.62 1.47-1.46-2.61zm3.47-2.08l2.72-1.27 1.27 2.72-2.72 1.27-1.27-2.72zm4.53-2.12l2.72-1.27 1.27 2.72-2.72 1.27-1.27-2.72zm4.53-2.11l2.72-1.28 1.27 2.72-2.72 1.27-1.27-2.71zm3.71-1.59l2.6-1.5 1.5 2.6-2.6 1.49-1.5-2.59zm4.33-2.5l2.6-1.5 1.5 2.6-2.6 1.5-1.5-2.6zm4.34-2.5l2.6-1.5 1.49 2.6-2.59 1.5-1.5-2.6zm3.48-2l2.6-1.5 1.5 2.6-2.6 1.49-1.5-2.59zm4.33-2.5l2.6-1.5 1.5 2.6-2.6 1.5-1.5-2.6zm4.34-2.5l2.6-1.49 1.49 2.59-2.6 1.5-1.49-2.6zm3.48-2l2.6-1.5 1.5 2.6-2.6 1.49-1.5-2.59zm4.33-2.5l2.6-1.5 1.5 2.6-2.6 1.5-1.5-2.6zm4.33-2.5l2.6-1.5 1.5 2.6-2.6 1.5-1.5-2.6zm3.46-1.88l2.5-1.65 1.65 2.5-2.5 1.65-1.65-2.5zm4.17-2.75l2.51-1.65 1.65 2.5-2.51 1.65-1.65-2.5zm4.18-2.75l2.51-1.65 1.64 2.5-2.5 1.65-1.65-2.5zm3.8-2.5l2.5-1.65 1.65 2.5-2.5 1.66-1.65-2.51zm4.18-2.75l2.5-1.65 1.65 2.51-2.51 1.65-1.64-2.51zm4.17-2.75l2.51-1.65 1.65 2.51-2.51 1.65-1.65-2.51zm3.81-2.55l2.54-1.59 1.59 2.54-2.55 1.59-1.58-2.54zm4.24-2.65l2.55-1.59 1.58 2.55-2.54 1.59-1.59-2.55zm4.24-2.65l2.55-1.58 1.58 2.54-2.54 1.59-1.59-2.55zm4.25-2.64l2.59-1.66 1.65 2.5-.13.09.02.03-2.4 1.53-.02-.03-.13.08-1.58-2.54zm4.26-2.76l2.5-1.65 1.65 2.5-2.5 1.66-1.65-2.51zm4.17-2.75l2.51-1.65 1.65 2.5-2.51 1.66-1.65-2.51zm3.78-2.39l2.41-1.78 1.79 2.41-2.41 1.79-1.79-2.42zm4.02-2.97l2.41-1.79 1.78 2.41-2.41 1.79-1.78-2.41zm4.01-2.98l2.41-1.78 1.79 2.41-2.41 1.78-1.79-2.41zm4.02-2.97l2.51-1.86 1.78 2.41-2.5 1.86-1.79-2.41zm4.11-3.05l2.42-1.79 1.78 2.41-2.41 1.79-1.79-2.41zm4.02-2.98l2.41-1.78 1.79 2.41-2.41 1.78-1.79-2.41zm4.02-2.98l.1-.07 2.31-1.71.1-.07 1.78 2.41-2.5 1.86-1.79-2.42zm4.11-3.04l2.41-1.79 1.79 2.41-2.41 1.79-1.79-2.41zm4.02-2.98l2.41-1.78 1.79 2.41-2.41 1.78-1.79-2.41zm4.02-2.97l1.27-.94 1.13-.93 1.91 2.31-.15.12.04.06-1.09.8-1.12.93-.05-.06-.16.12-1.78-2.41zm3.94-3.15l2.32-1.9 1.91 2.31-2.32 1.91-1.91-2.32zm3.86-3.17l2.32-1.91 1.91 2.32-2.32 1.9-1.91-2.31zm3.86-3.18l.6-.49-.02-.03 1.74-1.39.01.02.61-.48 1.85 2.37-1.16.9-1.72 1.41-1.91-2.31zm4.52-3.6l2.37-1.84 1.84 2.36-2.37 1.85-1.84-2.37zm3.94-3.07l2.37-1.85 1.84 2.37-2.36 1.84-1.85-2.36zm3.95-3.08l3.3-2.62 1.91 2.31-1.01.83h.01l-1.32 1.08-.02-.03-1.03.8-1.84-2.37zm4.85-3.9l2.31-1.9 1.91 2.31-2.32 1.91-1.9-2.32zm3.86-3.17l2.31-1.91 1.91 2.32-2.32 1.9-1.9-2.31zm3.86-3.18l2.88-2.38 1.91 2.32-2.32 1.91-.57.47-1.9-2.32zm4.42-3.65l2.32-1.9 1.91 2.31-2.32 1.91-1.91-2.32zm3.86-3.17l2.32-1.91 1.91 2.32-2.32 1.9-1.91-2.31zm3.87-3.18l1.71-1.41 1.07-.97 2.01 2.22-.59.54.02.03-.54.44-1.11 1.01-.05-.06-.62.52-1.9-2.32zm4.26-3.73l2.23-2.01 2.01 2.23-2.22 2.01-2.02-2.23zm3.71-3.35l2.22-2.01 2.02 2.22-2.23 2.01-2.01-2.22zm3.71-3.36l2.11-1.91 1.05-1.04 2.1 2.14-1.03 1.02-.04.05-1.06 1.04-.04-.05-1.08.98-2.01-2.23zm4.58-4.35l2.13-2.11 2.11 2.14-2.13 2.1-2.11-2.13zm3.56-3.51l2.13-2.11 2.11 2.13-2.13 2.11-2.11-2.13zm3.55-3.52l2.14-2.11 2.1 2.14-2.13 2.11-2.11-2.14z"/><path fill="#F47C20" stroke="#CF7178" stroke-width="3" stroke-linecap="round" stroke-linejoin="round" stroke-miterlimit="10" d="M329.404 138.94l12.148-6m-24.296 11l12.148-5m-24.298 10l12.15-5m-24.298 10l12.148-5m-24.97 11l12.822-6m-24.973 11l12.15-5m-24.3 11l12.15-6m-24.297 12l12.148-6m-24.298 14l12.15-8m-24.298 14l12.148-6m-24.973 9.794l12.824-3.793"/><text transform="translate(31.092 330.736)" fill="#4E4E4E" font-size="12">5</text><text transform="translate(24.132 266.779)" fill="#4E4E4E" font-size="12">10</text><text transform="translate(24.132 202.82)" fill="#4E4E4E" font-size="12">15</text><text transform="translate(24.132 138.862)" fill="#4E4E4E" font-size="12">20</text><text transform="translate(24.132 74.904)" fill="#4E4E4E" font-size="12">25</text><text transform="translate(17.172 10.946)" fill="#4E4E4E" font-size="12">$30</text><text transform="translate(33.295 349.402)" fill="#4E4E4E" font-size="12">2000</text><text transform="translate(94.614 349.402)" fill="#4E4E4E" font-size="12">2005</text><text transform="translate(155.934 349.402)" fill="#4E4E4E" font-size="12">2010</text><text transform="translate(217.254 349.402)" fill="#4E4E4E" font-size="12">2015</text><text transform="translate(278.574 349.402)" fill="#4E4E4E" font-size="12">2020</text><text transform="translate(339.894 349.402)" fill="#4E4E4E" font-size="12">2025</text><text transform="translate(48.688 215.263)" fill="#4584A6" class="heavy" font-size="12">Actual</text><text transform="translate(226.744 110.372)" fill="#21B573" class="heavy" font-size="12">Trend</text><text transform="translate(262.325 188.507)" fill="#CF7178" class="heavy" font-size="12">CBO Projected</text><text transform="matrix(0 -1 1 0 10.834 223.144)" fill="#666766" class="heavy" font-size="12">Trillions of Dollars</text></svg>