<svg xmlns="http://www.w3.org/2000/svg" width="561" height="252" viewBox="0 0 561 252"><style>text, tspan { font-family: &apos;Lato&apos;; } .heavy { font-weight: 700; }</style><path stroke="#CDCCCC" stroke-linejoin="round" stroke-miterlimit="10" d="M66.87 12.042h482.514M66.87 43.287h482.514M66.87 75.354h482.514M66.87 106.598h482.514M66.87 137.843h482.514M66.87 169.088h482.514M66.87 201.155h482.514" fill="none"/><path fill="#29AAE2" d="M66.87 225.822h9.046l9.866-.822h9.045l9.044-.822h9.046l9.044-.823h18.089l9.044-.822h9.045l9.043-.822h18.088l9.046-.82 9.045 1.643 9.045-.822h18.911l9.045-.82 9.046-.824 9.044-.822 9.045-.822h9.044l9.044-.822h9.044l9.045-.823 9.045-.822h9.044l9.045.822 9.045.823 9.044.822 9.044.822h27.956l9.044-1.644h18.089l9.044.822H449.207l9.044.822h27.134l9.045.822h9.867l9.045.823h9.045l9.044.82h17.954v10.624H66.87z"/><path fill="none" d="M66.734 12.042h482.65V232.4H66.734z"/><path fill="#F8B668" d="M66.87 164.154l9.046-2.466h9.866l9.045-1.645h18.09l9.044-.822h18.089l9.044-.822 9.045-.822 9.043-2.466h9.044l9.044-2.466 9.046-4.112 9.045-1.644 9.045-1.645 9.045-.822 9.866-3.288 9.045-1.645 9.046-5.755 9.044-3.29 9.045-3.288 9.044 18.09 9.044-4.112 9.044-4.933 9.045-4.934 9.045-4.934 9.044-4.11 9.045-4.935 9.045-4.11 9.044-4.112 9.044-2.467 9.867-3.288 9.045-1.645 9.044-3.29 9.044-4.11 9.045-3.29 9.044-4.933 9.044-2.466 9.045-2.467 9.043-2.467 9.045-3.29 9.044-4.11 9.045-4.934 9.045-6.58 9.044-7.4 9.045-8.22 9.867-5.757 9.045-7.4 9.045 2.467h9.044l9.046-2.467 8.908-3.29v194.048H531.43l-9.043-.82h-9.045l-9.045-.824h-9.866l-9.044-.822h-27.134l-9.044-.822H422.073l-9.045-.822h-18.09l-9.044 1.644H357.94l-9.044-.822-9.044-.822-9.045-.823-9.045-.822h-9.044l-9.045.822-9.045.823h-9.044l-9.045.822h-9.045l-9.045.822-9.044.822-9.045.823-9.044.82h-18.911l-9.044.823-9.044-1.644-9.045.82h-18.087l-9.044.823h-9.046l-9.045.822h-18.09l-9.044.823h-9.045l-9.043.822h-9.045l-9.866.822H66.87z"/><path fill="none" d="M66.734 12.042h482.65V232.4H66.734z"/><path stroke="#9B9B9B" stroke-linejoin="round" stroke-miterlimit="10" fill="none" d="M67.19 232.334h482.194M522.09 232.4v2.466M476.34 232.4v2.466M431.12 232.4v2.466m-45.224-2.467v2.466m-46.044-2.467v2.466m-45.224-2.467v2.466m-45.222-2.467v2.466M203.36 232.4v2.466m-45.22-2.467v2.466m-45.224-2.467v2.466M66.87 232.4v2.466"/><text transform="translate(53.544 232.622)" fill="#4E4E4E" font-size="10">0</text><text transform="translate(14.205 201.181)" fill="#4E4E4E" font-size="10">5,000,000</text><text transform="translate(8.405 169.74)" fill="#4E4E4E" font-size="10">10,000,000</text><text transform="translate(8.405 138.299)" fill="#4E4E4E" font-size="10">15,000,000</text><text transform="translate(8.405 106.857)" fill="#4E4E4E" font-size="10">20,000,000</text><text transform="translate(8.405 75.416)" fill="#4E4E4E" font-size="10">25,000,000</text><text transform="translate(8.405 43.975)" fill="#4E4E4E" font-size="10">30,000,000</text><text transform="translate(8.405 12.533)" fill="#4E4E4E" font-size="10">35,000,000</text><text transform="translate(56.252 246.036)" fill="#4E4E4E" font-size="10">1958</text><text transform="translate(102.153 246.036)" fill="#4E4E4E" font-size="10">1963</text><text transform="translate(147.232 246.036)" fill="#4E4E4E" font-size="10">1968</text><text transform="translate(193.133 246.036)" fill="#4E4E4E" font-size="10">1973</text><text transform="translate(238.211 246.036)" fill="#4E4E4E" font-size="10">1978</text><text transform="translate(284.112 246.036)" fill="#4E4E4E" font-size="10">1983</text><text transform="translate(329.19 246.036)" fill="#4E4E4E" font-size="10">1988</text><text transform="translate(375.092 246.036)" fill="#4E4E4E" font-size="10">1993</text><text transform="translate(420.17 246.036)" fill="#4E4E4E" font-size="10">1998</text><text transform="translate(466.169 246.036)" fill="#4E4E4E" font-size="10">2003</text><text transform="translate(511.248 246.036)" fill="#4E4E4E" font-size="10">2008</text><text transform="translate(264.738 229.822)" fill="#fff" class="heavy" font-size="14">C Corporation</text><text transform="translate(351.508 173.49)" fill="#fff" class="heavy" font-size="14">Pass-through</text></svg>