<svg xmlns="http://www.w3.org/2000/svg" width="535.531" height="246.667" viewBox="0 0 535.531 246.667"><style>text, tspan { font-family: &apos;Lato&apos;; } .heavy { font-weight: 700; }</style><path stroke="#CDCCCC" stroke-width=".75" stroke-linejoin="round" stroke-miterlimit="10" d="M30.088 10.186h505.296M30.088 29.802h505.296M30.088 49.42h505.296M30.088 69.853h505.296M30.088 89.47h505.296M30.088 109.087h505.296M30.088 128.705h505.296M30.088 148.322h505.296M30.088 168.755h505.296M30.088 188.373h505.296M30.088 207.99h505.296" fill="none"/><path stroke="#9B9B9B" stroke-linejoin="round" stroke-miterlimit="10" fill="none" d="M29.772 227.673h505.76M492.95 225.155v4.903m-46.35-4.903v4.903m-46.353-4.903v4.903m-46.35-4.903v4.903m-46.353-4.903v4.903m-46.35-4.903v4.903m-46.352-4.903v4.903m-46.352-4.903v4.903m-46.352-4.903v4.903m-46.35-4.903v4.903m-45.7-4.903v4.903"/><path stroke="#36B885" stroke-width="2" stroke-linecap="round" stroke-linejoin="round" stroke-miterlimit="10" d="M534.73 128.705h.654m-1.304 0h.65m-1.303 2.452l.653-2.452m-1.96 2.452h1.307m-1.958 0h.65m-1.305 1.635l.653-1.635m-1.306 1.635h.653m-1.306 4.085l.652-4.086m-1.306 4.087h.652m-1.957 8.174l1.307-8.173m-1.96 0l.653 8.174m-1.306-8.173h.653m-1.304-2.45l.65 2.45m-1.305-2.45h.654m-1.958 0h1.305m-1.96 2.45l.653-2.45m-1.305 4.085l.652-1.635m-1.304 0l.652 1.635m-1.306-1.635h.653m-1.305 0h.652m-1.957-2.45l1.305 2.45m-1.96-4.085l.655 1.635m-1.308 2.45l.654-4.086m-1.304 8.175l.65-4.088m-1.305 1.635l.656 2.453m-1.96-4.088l1.305 1.635m-1.956-1.635h.652m-1.305 1.635l.654-1.635m-1.306 0l.652 1.635m-1.305 0l.653-1.635m-1.305 1.635h.652m-1.957 0h1.305m-1.96 0h.655m-1.307 2.453l.653-2.453m-1.304 2.453h.65m-1.305 1.635l.654-1.635m-1.96 4.086l1.305-2.45m-1.958 2.45h.653m-1.306-4.085l.652 4.086m-1.304-4.085h.652m-1.305 0h.652m-1.306 0h.653m-1.96 0h1.306m-1.96 1.635l.654-1.635m-1.307 4.086l.653-2.45m-1.304 0l.65 2.45m-1.304-6.538l.654 4.088m-1.96-5.723l1.306 1.635m-1.958 0l.653-1.635m-1.306 1.635h.652m-1.305-1.635l.652 1.635m-1.305-4.086l.653 2.45m-1.306 1.636l.65-4.086m-1.956 4.086h1.305m-1.96 0h.654M492.3 142.6l.65-4.088m-1.304-1.635l.653 5.723m-1.31-4.088l.655-1.635m-1.958-2.45l1.305 4.085m-1.96-11.442l.654 7.356m-1.306-11.443l.652 4.087m-1.304-5.722l.652 1.635m-1.306-5.722l.653 4.088m-1.305-8.174l.652 4.087m-1.958-6.538l1.306 2.452m-1.96-9.808l.654 7.356m-1.305-13.895l.653 6.54m-1.305-13.897l.652 7.356m-1.305-15.53l.653 8.174m-1.96-13.895l1.307 5.72m-1.96-9.807l.654 4.087m-1.306-5.72l.652 1.634m-1.305-5.723l.653 4.087m-1.305-8.174l.653 4.087m-1.304-5.722l.652 1.634m-1.958-5.722l1.306 4.087m-1.96-4.087h.654m-1.305-2.452l.65 2.453m-1.305-4.088l.655 1.634m-1.307 2.452l.652-4.087m-1.958.002l1.306 4.087m-1.958-.002l.652-4.087m-1.306.002l.653 4.087m-1.306-.002l.652-4.087m-1.305.002l.654 4.087m-1.306-6.54l.652 2.45m-1.957-2.45h1.306m-1.96 0h.652m-1.304-5.722l.65 5.722m-1.304-5.722h.654m-1.307 0h.653m-1.957-1.635l1.306 1.635m-1.96 0l.653-1.635m-1.304 1.635h.653m-1.305 4.087l.653-4.087m-1.306 4.087h.653m-1.96 1.634l1.308-1.636m-1.96 0l.652 1.636m-1.305-1.635h.653m-1.304 1.634l.652-1.636m-1.306 0l.654 1.636m-1.306 0l.652-1.636m-1.958 4.088l1.306-2.452m-1.958 4.086l.652-1.634m-1.304 4.086l.652-2.453m-1.306 0l.653 2.454m-1.305-2.454h.652m-1.958-1.634l1.306 1.634m-1.96 0l.654-1.634m-1.306 4.086l.653-2.453m-1.306 0l.65 2.454m-1.304-.002l.654-2.453m-1.306 8.175l.652-5.72m-1.96 5.72h1.308m-1.96 0h.653m-1.304 0h.652m-1.306-1.635l.654 1.634m-1.305 1.634l.652-3.27m-1.958 3.27h1.307m-1.958-1.634l.652 1.635m-1.306-3.27l.653 1.634m-1.303 0l.65-1.634m-1.304 3.268l.654-1.635m-1.306 1.634h.652m-1.957 2.453l1.307-2.452m-1.96 0l.652 2.45m-1.304-2.45h.652m-1.306 2.452l.654-2.452m-1.306 0l.65 2.45m-1.955 1.636l1.305-4.086m-1.96 6.54l.653-2.452m-1.307 0l.655 2.45m-1.305-2.45h.65m-1.305-4.088l.654 4.087m-1.306-4.086h.65m-1.957-1.634l1.307 1.635m-1.96-1.635h.653m-1.304-1.635l.652 1.634m-1.307-1.635h.654m-1.305 1.635l.65-1.634m-1.956 0l1.307 1.633m-1.96-5.722l.654 4.087m-1.305-10.626l.653 6.538m-1.306 0l.652-6.54m-1.305 6.54h.652m-1.304 0h.65m-1.957-4.086l1.308 4.087m-1.96-.002l.653-4.087m-1.304 1.636l.652 2.453m-1.305-6.54l.653 4.085m-1.306 2.453l.653-6.54m-1.96 2.454l1.307 4.087m-1.96-6.54l.654 2.45m-1.306-5.72l.652 3.27m-1.305-9.81l.653 6.54m-1.306 0l.653-6.54m-1.305-3.27l.65 9.81m-1.956-9.81h1.307m-1.96-2.45l.653 2.45M412 29.803l.65 4.087m-1.304-9.81l.653 5.723m-1.307-5.722h.652m-1.957-1.634l1.306 1.635m-1.96-1.634h.653m-1.304 1.635l.65-1.634m-1.304 3.27l.653-1.636m-1.307 1.635h.652m-1.304 0h.652m-1.96 0h1.308m-1.96-5.72l.652 5.72m-1.305-3.27l.654-2.45m-1.306-4.088l.652 6.54m-1.304-4.088l.652-2.454M400.9 18.36h1.306m-1.96 0h.654m-1.304 4.086l.65-4.086m-1.305 4.086h.655m-1.306 1.635l.65-1.634m-1.303 3.27l.652-1.636m-1.96 1.635h1.307m-1.96 0h.653m-1.306 0h.653m-1.305-1.634l.652 1.636m-1.304 0l.652-1.636m-1.958 1.635h1.306m-1.96 0h.654m-1.306-3.27l.65 3.27m-1.304-1.634l.654-1.634m-1.306 3.27l.652-1.636m-1.958 4.087l1.306-2.452m-1.958 0l.652 2.452m-1.306 4.087l.653-6.54m-1.306 4.088l.653 2.452m-1.305-2.452h.652m-1.305-1.635l.652 1.635m-1.957-1.635h1.306m-1.96 1.635l.653-1.635m-1.305 1.635h.653m-1.305 0h.653m-1.305 0h.652m-1.957-1.635l1.306 1.635m-1.96 2.452l.653-4.087m-1.306 4.087h.653m-1.307 0h.654m-1.307 0h.652m-1.305 4.087l.652-4.086m-1.958 1.635l1.305 2.45m-1.96 0l.654-2.45m-1.306 4.086l.652-1.634m-1.306 5.72l.653-4.086m-1.305 4.087h.652m-1.958 0h1.306m-1.958 0h.652m-1.304-2.452l.652 2.453m-1.307 0l.654-2.452M368.91 43.7l.653-1.635m-1.304 1.635h.65m-1.957 2.45l1.306-2.45m-1.96 5.72l.653-3.27m-1.306 3.27h.652m-1.306 0h.653m-1.305 2.454l.652-2.452m-1.96 6.538l1.308-4.087m-1.96 4.088h.653m-1.306-2.452l.652 2.453m-1.306-4.088l.653 1.634m-1.305-1.634h.65m-1.304 1.634l.654-1.634m-1.958 1.634h1.306m-1.96 2.452l.654-2.453m-1.306 2.453h.652m-1.305-8.173l.653 8.174m-1.305-8.175h.65m-1.956 0h1.306m-1.96 1.634l.652-1.636m-1.305 0l.653 1.636m-1.305 0l.653-1.636m-1.305 4.088l.652-2.452m-1.305 6.538l.653-4.087m-1.96 5.723l1.307-1.634m-1.96 7.354l.654-5.722m-1.307 5.722h.652m-1.305-3.27l.653 3.27m-1.305 0l.65-3.27m-1.956 7.357l1.307-4.086m-1.96 0l.65 4.087m-1.304-1.633l.653-2.452m-1.306 6.54l.652-4.088m-1.305 5.72l.653-1.634m-1.305 3.27l.653-1.635m-1.958 4.087l1.306-2.452m-1.96-3.27l.654 5.723m-1.305-2.453l.652-3.27m-1.307 3.27h.653m-1.304 2.452l.65-2.452m-1.957 6.54l1.307-4.088m-1.96 4.087h.653m-1.306 1.634l.653-1.634m-1.307 1.634h.652m-1.304 0h.652m-1.306 0h.654m-1.96 2.453l1.306-2.454m-1.958 0l.653 2.453m-1.306-6.54l.65 4.086m-1.304-4.086h.653m-1.305 2.452l.65-2.452m-1.957 2.452h1.307m-1.96-2.452l.653 2.452m-1.306 0l.653-2.452m-1.305 6.54l.652-4.088m-1.304 0l.652 4.087m-1.307 1.633l.654-5.72m-1.958 1.633l1.304 4.087m-1.958-5.72l.652 1.633m-1.305-4.086l.653 2.452m-1.306 0l.653-2.452m-1.306 0l.652 2.452m-1.958-4.087l1.306 1.635m-1.96 0l.653-1.635m-1.305-5.72l.653 7.355m-1.305-4.087l.652-3.27m-1.305 1.635l.652 1.635m-1.306-3.27l.654 1.636m-1.96-5.723l1.306 4.087m-1.957-6.54l.65 2.452m-1.304-5.72l.653 3.268m-1.307-3.27h.652m-1.305-4.086l.653 4.087m-1.958-6.54l1.305 2.454m-1.958-4.088l.653 1.634m-1.306-5.72l.652 4.086m-1.306-2.453l.652-1.636m-1.304-1.635l.652 3.27m-1.958-3.27h1.306m-1.96 0h.654m-1.306 3.27l.652-3.27m-1.306 3.27h.653m-1.304 2.452l.652-2.452m-1.305 4.086l.653-1.634m-1.958-4.087l1.305 5.72m-1.96-4.086l.655-1.636m-1.307 1.635h.653m-1.304 2.452l.65-2.452m-1.303 2.452h.652m-1.96 0h1.307m-1.96 0h.654m-1.305 0h.652m-1.305 5.72l.653-5.72m-1.305 4.086l.652 1.634m-1.306 2.453l.653-4.087m-1.958 5.722l1.305-1.634m-1.96 1.634h.654m-1.306 1.634l.653-1.635m-1.305 1.634h.652m-1.306 6.54l.653-6.54m-1.956 2.453l1.305 4.087m-1.96 1.634l.653-5.722m-1.305 1.635l.652 4.088m-1.305-1.634l.653-2.452m-1.305 2.452h.65m-1.304 1.634l.653-1.635m-1.96 3.27l1.306-1.635M286 77.21l.654-4.087m-1.306 0L286 77.21m-1.305 0l.652-4.087m-1.305 8.173l.653-4.086m-1.958 0l1.305 4.086m-1.958 2.453l.653-6.54m-1.305 8.173l.652-1.634m-1.306 3.27l.653-1.636m-1.304 4.086l.652-2.452m-1.306 2.452h.654m-1.96 1.635l1.306-1.635m-1.957 1.635h.652m-1.307 2.452l.654-2.452m-1.306 2.452h.652m-1.304 0h.652m-1.958 1.635l1.306-1.635m-1.96 5.722l.654-4.088m-1.306 4.087h.65m-1.302 0h.652m-1.305 4.086l.652-4.087m-1.307-2.453l.653 6.54m-1.958-2.453l1.306-4.087m-1.96 4.087h.653m-1.305 2.452l.652-2.453m-1.306 2.453h.655m-1.307 5.72l.652-5.72m-1.957 7.356l1.306-1.635m-1.96 4.087l.652-2.452m-1.304-3.27l.653 5.723m-1.305-5.722h.652M263.15 105l.655 2.452m-1.306 1.635l.652-4.087m-1.96 5.722l1.307-1.635m-1.96 1.635h.653m-1.306 2.452l.652-2.452m-1.306 4.087l.653-1.636m-1.305 1.635h.652m-1.958 2.45l1.306-2.45m-1.958-1.636l.652 4.087m-1.305-6.538l.654 2.452m-1.307 1.635l.653-4.088m-1.305 12.26l.653-8.173m-1.306 12.26l.653-4.087m-1.96 4.087h1.307m-1.96 5.722l.654-5.722m-1.306 5.722h.653m-1.305 1.634l.653-1.635m-1.305 8.175l.653-6.54m-1.96 6.54h1.307m-1.96 4.086l.653-4.085m-1.305 5.72l.653-1.634m-1.305 7.36l.654-5.724m-1.306 15.53l.653-9.808m-1.305 9.808h.653m-1.958 4.088l1.305-4.088m-1.958 4.088h.653m-1.306-1.636l.653 1.636m-1.306-1.636h.654m-1.307-2.452l.653 2.452m-1.958-4.086l1.306 1.635m-1.96-5.72l.654 4.085m-1.305-8.173l.652 4.086m-1.306-1.636l.653-2.45m-1.306 0l.653 2.45m-1.958-9.81l1.306 7.358m-1.957-1.634l.652-5.723m-1.305 1.636l.653 4.088m-1.307-5.723l.654 1.636m-1.307-1.635h.652m-1.304 0h.654m-1.96-8.173l1.306 8.174m-1.958-12.258l.653 4.086m-1.305-2.452l.652-1.635m-1.305-5.72l.653 7.356m-1.306-7.356h.653m-1.96 1.635l1.307-1.635m-1.958-8.174l.652 9.81m-1.305-11.445l.653 1.636m-1.307 2.452l.652-4.087m-1.305 7.358l.652-3.27m-1.306 5.722l.653-2.452m-1.958 4.087l1.304-1.635m-1.96 1.635h.654m-1.305 2.452l.652-2.452m-1.305 2.452h.653m-1.306 1.635l.653-1.635m-1.96 1.635h1.307m-1.958-1.635l.65 1.635m-1.304-5.722l.653 4.087m-1.307-9.81l.653 5.723m-1.306-12.26l.653 6.538m-1.306-12.26l.653 5.72m-1.958-5.72h1.306m-1.96-1.635l.654 1.635m-1.306 0l.652-1.636m-1.305 3.27l.653-1.635m-1.306 0l.653 1.635m-1.96 2.452l1.307-4.087m-1.96 0l.654 4.087m-1.305-2.452l.65-1.635m-1.304 4.087l.653-2.452m-1.307 2.452h.653m-1.306-4.087l.653 4.087m-1.96-5.72l1.307 1.634m-1.958 1.634l.653-3.27m-1.307 5.722l.653-2.452m-1.304 2.452h.652m-1.305 1.635l.653-1.636m-1.958 5.722l1.306-4.087m-1.96 6.538l.654-2.452m-1.306 4.087l.652-1.635m-1.305-2.452l.652 4.087m-1.306 0l.653-4.087m-1.307 5.722l.653-1.635m-1.958 9.81l1.306-8.175m-1.96 8.174h.653m-1.305 0h.654m-1.307 1.634l.65-1.635m-1.304 4.087l.653-2.45m-1.96 10.624l1.306-8.173m-1.96 9.81l.655-1.636m-1.305 3.272l.652-1.636m-1.305 5.723l.653-4.088m-1.306 2.452l.652 1.635m-1.305 0l.653-1.636m-1.96 5.722l1.307-4.087m-1.958 8.172l.65-4.086m-1.304 8.172l.653-4.087m-1.308 8.175l.653-4.087m-1.306 4.087h.652m-1.958 0h1.305m-1.96 1.635l.654-1.635m-1.306 1.635h.653m-1.305-1.635l.652 1.635m-1.304-1.635h.653m-1.306 3.27l.653-3.27m-1.96 0l1.307 3.27m-1.958 0l.652-3.27m-1.306 5.723l.653-2.453m-1.305 6.54l.653-4.087m-1.306 5.72l.653-1.634m-1.958 7.356l1.305-5.722m-1.958 8.175l.653-2.452m-1.306 0l.654 2.452m-1.305-2.452h.65m-1.304 0h.653m-1.307 2.453l.653-2.452m-1.96 6.54l1.307-4.088m-1.96 0l.653 4.088m-1.304-2.453l.653-1.635m-1.307 0l.653 1.636m-1.304-4.088l.652 2.452m-1.958-8.173l1.306 5.72m-1.96-15.53l.653 9.81m-1.306-17.984l.653 8.174m-1.305-13.894l.652 5.72m-1.306-7.356l.653 1.636m-1.957-4.087l1.306 2.45m-1.96-6.538l.653 4.087m-1.306-4.088h.653m-1.305 0h.652m-1.305 0h.653m-1.306-3.27l.652 3.27m-1.96-3.27h1.307m-1.96 0h.654m-1.307 0h.654m-1.306 0h.652m-1.304 1.634l.653-1.635m-1.96 5.724l1.306-4.088m-1.957 5.723l.653-1.636m-1.306 0l.653 1.635m-1.305-4.088l.652 2.452m-1.305 4.086l.653-6.538m-1.306 6.538h.653m-1.96-2.45l1.307 2.45m-1.958 3.27l.652-5.722m-1.306 13.896l.653-8.174m-1.306 4.086l.653 4.088m-1.305-1.636l.652-2.452m-1.957 6.54l1.305-4.088m-1.96 4.087h.654m-1.307-2.45l.653 2.45m-1.305 0l.653-2.45m-1.305 2.45h.653m-1.305 0h.653m-1.96 1.635l1.307-1.635m-1.96 1.635h.654m-1.306 4.088l.652-4.088m-1.305 4.088h.654m-1.306-2.453l.653 2.453m-1.958-2.453h1.306m-1.96 4.087l.654-4.087m-1.306 4.087h.653m-1.306 0h.652m-1.305 2.452l.654-2.452m-1.306 8.174l.653-5.722m-1.958-2.452l1.306 8.174m-1.958-8.174h.653m-1.306 4.087l.652-4.088m-1.306 0l.653 4.087m-1.305-8.175l.652 4.087m-1.96-1.634l1.308-2.453m-1.96-1.635l.653 4.088m-1.306-5.723l.652 1.635m-1.305-1.635h.653m-1.306-4.087l.652 4.087m-1.305-8.173l.654 4.087m-1.958-2.454l1.306-1.635m-1.96-2.45l.654 4.086m-1.306-11.442l.652 7.356m-1.304-7.356h.653m-1.306 0h.654m-1.96-2.452l1.306 2.452m-1.958-4.088l.652 1.636m-1.305-1.636h.653m-1.306 0h.653m-1.306 0h.652m-1.305 0h.653m-1.96 1.636l1.307-1.636m-1.96 1.636h.654m-1.307 4.087l.652-4.088m-1.305 2.452l.653 1.635m-1.306-1.636h.653m-1.958 0h1.305M113 156.496l.652-5.722m-1.306 4.086l.653 1.636m-1.307 0l.653-1.636m-1.305 3.27l.653-1.635m-1.305 1.635h.653m-1.958 0h1.306m-1.96-1.634l.654 1.635m-1.306-5.72l.653 4.086m-1.306-4.087h.652m-1.306 8.172l.653-8.173m-1.958 8.172h1.305m-1.958 1.634l.653-1.635m-1.306 8.175l.652-6.54m-1.306-5.72l.654 12.26m-1.307-10.625l.652-1.635m-1.305 1.635h.653m-1.958 2.452l1.306-2.45m-1.958 2.45h.653m-1.306 0h.652m-1.305 1.634l.652-1.635m-1.306 8.175l.653-6.54m-1.96 4.09l1.307 2.45m-1.96 3.27l.654-5.72m-1.305 2.45l.652 3.27m-1.306-5.72l.652 2.45m-1.306-6.54l.653 4.09m-1.306-5.723l.652 1.635m-1.958 4.087l1.305-5.723m-1.958 5.724h.653m-1.306 2.45l.653-2.45m-1.305 4.086l.652-1.635m-1.305 1.635h.653m-1.96 4.088l1.307-4.088m-1.96 1.635l.654 2.453m-1.305 1.634l.653-4.087m-1.305 4.087h.652m-1.305-1.634l.653 1.634m-1.96 0l1.307-1.634m-1.96 5.72l.654-4.086m-1.306 4.087h.653m-1.305 4.086l.653-4.087m-1.305 1.634l.652 2.45m-1.305-5.72l.653 3.27m-1.96 4.086l1.307-7.356m-1.96 5.722l.654 1.635m-1.306 2.453l.653-4.087m-1.304 5.72l.652-1.634m-1.305 5.722l.653-4.087m-1.96 4.087h1.307m-1.96 1.635l.654-1.636m-1.306 0l.653 1.635m-1.305 0l.653-1.636m-1.305 0l.653 1.635m-1.305-1.636h.652m-1.958 0h1.306m-1.96 1.635l.654-1.636m-1.305-8.174l.653 9.81m-1.306-5.723l.65-4.087m-1.305 12.26l.654-8.173m-1.96 5.722l1.305 2.45m-1.958 4.088l.653-6.54m-1.305 6.54h.653m-1.307-2.452l.654 2.452m-1.306-4.087l.653 1.636m-1.304-1.635h.652m-1.958 1.636l1.306-1.635m-1.958 1.636h.652m-1.306 2.452l.653-2.452m-1.305 2.452h.652m-1.305-4.087l.652 4.088m-1.96 0l1.307-4.087m-1.96 7.358l.654-3.27m-1.306 1.635l.653 1.635m-1.306-1.635h.653m-1.305 0h.653m-1.306-5.722l.65 5.723m-1.957-9.81l1.306 4.088m-1.96-4.086h.653m-1.305 8.174l.653-8.174m-1.305 1.635l.653 6.538m-1.306-8.174l.652 1.635m-1.957 4.086l1.306-5.722m-1.96 0l.654 5.722m-1.306-5.722h.654m-1.305 5.722l.65-5.722m-1.306 8.174l.654-2.452m-1.306-1.635l.652 4.088m-1.958 0l1.306-4.087m-1.958 9.73l.653-5.642m-1.306 0l.654 5.642m-1.306-4.007l.653-1.635m-1.304-6.54l.652 8.175m-1.96 0l1.307-8.174m-1.958 8.173h.652m-1.306-8.174l.653 8.173m-1.306-5.722l.653-2.45m-1.305-1.636l.653 4.087m-1.305-4.086h.653m-1.958-8.174l1.306 8.174m-1.96-1.635l.654-6.54m-1.306-5.72l.653 12.26m-1.306-6.54l.654-5.722m-1.305 4.088l.65 1.635m-1.958-7.356l1.307 5.722M32.7 180.2l.652-1.636m-1.305 1.635h.653m-1.306 19.616l.653-19.617m-1.306 4.086l.654 15.53m-1.306-11.443l.653-4.087" fill="none"/><text transform="translate(0 227.065)" fill="#4E4E4E" font-size="12">54</text><text transform="translate(0 207.302)" fill="#4E4E4E" font-size="12">55</text><text transform="translate(0 187.538)" fill="#4E4E4E" font-size="12">56</text><text transform="translate(0 167.775)" fill="#4E4E4E" font-size="12">57</text><text transform="translate(0 148.011)" fill="#4E4E4E" font-size="12">58</text><text transform="translate(0 128.249)" fill="#4E4E4E" font-size="12">59</text><text transform="translate(0 108.486)" fill="#4E4E4E" font-size="12">60</text><text transform="translate(0 88.723)" fill="#4E4E4E" font-size="12">61</text><text transform="translate(0 68.959)" fill="#4E4E4E" font-size="12">62</text><text transform="translate(0 49.196)" fill="#4E4E4E" font-size="12">63</text><text transform="translate(0 29.433)" fill="#4E4E4E" font-size="12">64</text><text transform="translate(0 9.668)" fill="#4E4E4E" font-size="12">65%</text><text transform="translate(14.278 244.295)" fill="#4E4E4E" font-size="12">1960</text><text transform="translate(60.607 244.295)" fill="#4E4E4E" font-size="12">1965</text><text transform="translate(106.936 244.295)" fill="#4E4E4E" font-size="12">1970</text><text transform="translate(153.266 244.295)" fill="#4E4E4E" font-size="12">1975</text><text transform="translate(199.596 244.295)" fill="#4E4E4E" font-size="12">1980</text><text transform="translate(245.925 244.295)" fill="#4E4E4E" font-size="12">1985</text><text transform="translate(292.253 244.295)" fill="#4E4E4E" font-size="12">1990</text><text transform="translate(338.583 244.295)" fill="#4E4E4E" font-size="12">1995</text><text transform="translate(384.911 244.295)" fill="#4E4E4E" font-size="12">2000</text><text transform="translate(431.24 244.295)" fill="#4E4E4E" font-size="12">2005</text><text transform="translate(477.569 244.295)" fill="#4E4E4E" font-size="12">2010</text><text transform="translate(93.304 82.958)" fill="#21B573" class="heavy" font-size="12">Employment to Population Ratio</text></svg>