<svg xmlns="http://www.w3.org/2000/svg" width="561" height="252" viewBox="0 0 561 252"><style>text, tspan { font-family: &apos;Lato&apos;; } .heavy { font-weight: 700; }</style><path stroke="#E0E1E0" stroke-linejoin="round" stroke-miterlimit="10" d="M44.762 14.972h508.242M44.762 36.16h508.242M44.762 56.424h508.242M44.762 77.612h508.242M44.762 97.878h508.242M44.762 119.065h508.242M44.762 139.332h508.242M44.762 160.518h508.242M44.762 181.705h508.242M44.762 201.97h508.242" fill="none"/><path stroke="#9B9B9B" stroke-linejoin="round" stroke-miterlimit="10" fill="none" d="M44.908 222.988h508.29M515.547 219.475v6.447m-47.25-6.447v6.447m-46.453-6.447v6.447m-47.363-6.447v6.447m-47.36-6.447v6.447m-46.453-6.447v6.447m-47.364-6.447v6.447m-47.363-6.447v6.447m-46.452-6.447v6.447m-47.363-6.447v6.447m-47.363-6.447v6.447"/><path stroke="#29AAE2" stroke-width="3" stroke-linecap="round" stroke-linejoin="round" stroke-miterlimit="10" d="M539.34 131.96l9.11 8.292m-19.128 31.32l10.02-39.61m-19.128 44.216l9.108-4.605M511.105 91.43l9.108 84.748M501.086 63.794l10.02 27.636m-19.128-47.9l9.108 20.265M482.87 129.2l9.107-85.67M472.85 161.44l10.02-32.24m-19.127 58.032l9.107-25.793m-18.215 23.95l9.108 1.843m-19.127-37.768l10.02 35.926m-19.128-39.61l9.108 3.685m-18.218-4.608l9.11.922m-19.128-13.82l10.02 12.897m-19.13-10.132l9.11-2.764m-18.217 10.136l9.108-7.37m-19.125 20.266l10.02-12.896m-19.13 19.343l9.11-6.448m-18.217 17.502l9.108-11.055m-19.128 17.5l10.02-6.446m-19.128 0l9.108 6.447m-18.217-11.05l9.11 4.604m-19.127-12.896l10.02 8.29m-19.13 5.526l9.11-13.816m-18.217 21.187l9.108-7.37m-19.127 8.29l10.02-.92m-19.13-2.764l9.11 3.685m-18.217 2.764l9.108-6.448M275.2 189.996l10.02-5.527m-19.127-15.66l9.108 21.187m-18.215-41.454l9.108 20.266m-19.127-36.85l10.02 16.583m-19.13-8.29l9.11-8.292m-18.217 10.136l9.107-1.844m-19.127 6.45l10.02-4.606M209.62 163.28l9.108-16.58M200.513 159.6l9.108 3.684m-19.126 4.607l10.02-8.292m-19.128 16.58l9.108-8.29m-18.216 13.817l9.108-5.527m-19.128 11.054l10.02-5.527m-19.128-3.684l9.108 9.212m-18.216-13.818l9.108 4.607m-19.127-.92l10.02-3.686m-19.128 1.844l9.108 1.842m-18.217.92l9.108-2.763m-19.127 10.134l10.02-7.368m-19.128 11.052l9.107-3.684m-18.217 6.448l9.108-2.764m-19.126 4.608l10.02-1.844m-19.13 1.844h9.11m-18.217-2.764l9.108 2.764m-19.127 1.84l10.02-4.604" fill="none"/><path stroke="#F8B668" stroke-width="3" stroke-linecap="round" stroke-linejoin="round" stroke-miterlimit="10" d="M539.34 88.667l9.11-3.685m-19.128 31.32l10.02-27.636m-19.128 11.976l9.108 15.66m-18.217-58.956l9.108 43.295m-19.127-44.215l10.02.92m-19.128 14.74l9.108-15.66m-18.216 47.902l9.107-32.24M472.85 123.67l10.02-19.344m-19.127 26.715l9.107-7.37m-18.215 4.607l9.108 2.764m-19.127-3.685l10.02.922m-19.128 4.606l9.108-5.527m-18.218 12.896l9.11-7.37m-19.128 14.74l10.02-7.37m-19.13 15.66l9.11-8.29m-18.217 17.503l9.108-9.213m-19.125 12.897l10.02-3.685m-19.13 11.053l9.11-7.37m-18.217 11.977l9.108-4.607m-19.128 11.054l10.02-6.447M350.8 186.31l9.108.923m-18.217 0l9.11-.923m-19.127 1.844l10.02-.922m-19.13 10.133l9.11-9.21m-18.217 18.423l9.108-9.213m-19.127 9.213h10.02m-19.13 0h9.11m-18.217 1.842l9.108-1.842m-19.127 4.606l10.02-2.764m-19.127 0l9.108 2.764m-18.215-7.37l9.108 4.605m-19.127-10.133l10.02 5.527m-19.13-7.37l9.11 1.843m-18.217 0l9.107-1.844m-19.127 1.844h10.02m-19.128.92l9.108-.92m-18.217-.922l9.108 1.842m-19.126-3.684l10.02 1.842m-19.128.922l9.108-2.764m-18.216 3.684l9.108-.92m-19.128.92h10.02m-19.128-1.842l9.108 1.842m-18.216-1.842h9.108m-19.127 0h10.02m-19.128 0h9.108m-18.217 1.842l9.108-1.842m-19.127 3.686l10.02-1.843m-19.128 2.764l9.107-.92m-18.217.92h9.108m-19.126.923l10.02-.922m-19.13 1.844l9.11-.922m-18.217 0l9.108.923m-19.127-.922h10.02" fill="none"/><text transform="translate(31.363 222.674)" fill="#4E4E4E" font-size="10">0</text><text transform="translate(19.764 201.871)" fill="#4E4E4E" font-size="10">200</text><text transform="translate(19.764 181.07)" fill="#4E4E4E" font-size="10">400</text><text transform="translate(19.764 160.268)" fill="#4E4E4E" font-size="10">600</text><text transform="translate(19.764 139.467)" fill="#4E4E4E" font-size="10">800</text><text transform="translate(11.694 118.665)" fill="#4E4E4E" font-size="10">1,000</text><text transform="translate(11.694 97.864)" fill="#4E4E4E" font-size="10">1,200</text><text transform="translate(11.694 77.061)" fill="#4E4E4E" font-size="10">1,400</text><text transform="translate(11.694 56.26)" fill="#4E4E4E" font-size="10">1,600</text><text transform="translate(11.694 35.458)" fill="#4E4E4E" font-size="10">1,800</text><text transform="translate(5.894 14.657)" fill="#4E4E4E" font-size="10">$2,000</text><text transform="translate(33.618 237.342)" fill="#4E4E4E" font-size="10">1958</text><text transform="translate(81.137 237.342)" fill="#4E4E4E" font-size="10">1963</text><text transform="translate(127.745 237.342)" fill="#4E4E4E" font-size="10">1968</text><text transform="translate(175.264 237.342)" fill="#4E4E4E" font-size="10">1973</text><text transform="translate(221.873 237.342)" fill="#4E4E4E" font-size="10">1978</text><text transform="translate(269.393 237.342)" fill="#4E4E4E" font-size="10">1983</text><text transform="translate(316 237.342)" fill="#4E4E4E" font-size="10">1988</text><text transform="translate(363.519 237.342)" fill="#4E4E4E" font-size="10">1993</text><text transform="translate(410.128 237.342)" fill="#4E4E4E" font-size="10">1998</text><text transform="translate(457.795 237.342)" fill="#4E4E4E" font-size="10">2003</text><text transform="translate(504.403 237.342)" fill="#4E4E4E" font-size="10">2008</text><text transform="translate(114.547 152.465)" fill="#29AAE2" class="heavy" font-size="14">C Corporation</text><text transform="translate(380.906 112.189)" fill="#F8B668" class="heavy" font-size="14">Pass-through</text><path stroke="#CDCCCC" stroke-linejoin="round" stroke-miterlimit="10" d="M35.005-71.917H540.23M35.005-102.175H540.23M35.005-132.432H540.23M35.005-162.565H540.23M35.005-192.822H540.23M35.005-223.08H540.23M35.005-253.212H540.23" fill="none"/><path stroke="#9B9B9B" stroke-linejoin="round" stroke-miterlimit="10" fill="none" d="M35.005-41.783H540.23M35.005-44.896v6.226m46.763-6.226v6.226m46.762-6.226v6.226m46.9-6.226v6.226m46.76-6.226v6.226m46.764-6.226v6.226m46.763-6.226v6.226m46.762-6.226v6.226m46.76-6.226v6.226m46.764-6.226v6.226m46.762-6.226v6.226"/><path stroke="#29AAE2" stroke-width="3" stroke-linecap="round" stroke-linejoin="round" stroke-miterlimit="10" fill="none" d="M39.723-69.24l9.298-3.113 9.435 2.615 9.298-.995 9.435-1.37 9.297-1.37 9.434-3.113 9.298-4.98 9.297-2.866 9.434 1.247 9.298-2.49 9.434 2.74 9.298 6.474 9.297-2.99 9.436-4.234 9.297-6.1 9.434-3.86 9.298 3.735 9.297-10.458 9.435-2.49 9.296-2.367 9.437-3.984 9.298 12.95 9.433 14.57 9.298 14.193 9.298-4.856 9.435-4.606 9.298 1.867 9.433-.496 9.3-9.836 9.297-13.45 9.434 4.61 9.3 2.24 9.433 3.61 9.3-7.22 9.297-8.84 9.434-8.218 9.298-9.588 9.434-9.838 9.297-6.226 9.435 3.114 9.3-3.613 9.297-1.37 9.433 21.418 9.298 2.863 9.435-19.175 9.3-30.132 9.296-68.733 9.434 2.865 9.3 16.435 9.433 74.46 9.298 6.602 9.435-39.1 9.298 3.237"/><path clip-rule="evenodd" fill="none" d="M35.005-41.037h505.91v-212.3H35.004v212.3z"/><text transform="translate(20.517 -42.475)" fill="#4E4E4E" font-size="10">0</text><text transform="translate(8.917 -72.688)"><tspan x="0" y="0" fill="#4E4E4E" font-size="10">5</tspan><tspan x="5.74" y="0" fill="#4E4E4E" font-size="10">0</tspan><tspan x="11.6" y="0" fill="#4E4E4E" font-size="10">0</tspan></text><text transform="translate(.907 -102.908)"><tspan x="0" y="0" fill="#4E4E4E" font-size="10">1</tspan><tspan x="5.74" y="0" fill="#4E4E4E" font-size="10">,</tspan><tspan x="8.01" y="0" fill="#4E4E4E" font-size="10">0</tspan><tspan x="13.87" y="0" fill="#4E4E4E" font-size="10">0</tspan><tspan x="19.609" y="0" fill="#4E4E4E" font-size="10">0</tspan></text><text transform="translate(.907 -133.121)"><tspan x="0" y="0" fill="#4E4E4E" font-size="10">1</tspan><tspan x="5.74" y="0" fill="#4E4E4E" font-size="10">,</tspan><tspan x="8.01" y="0" fill="#4E4E4E" font-size="10">5</tspan><tspan x="13.87" y="0" fill="#4E4E4E" font-size="10">0</tspan><tspan x="19.609" y="0" fill="#4E4E4E" font-size="10">0</tspan></text><text transform="translate(.907 -163.343)"><tspan x="0" y="0" fill="#4E4E4E" font-size="10">2</tspan><tspan x="5.74" y="0" fill="#4E4E4E" font-size="10">,</tspan><tspan x="8.01" y="0" fill="#4E4E4E" font-size="10">0</tspan><tspan x="13.87" y="0" fill="#4E4E4E" font-size="10">0</tspan><tspan x="19.609" y="0" fill="#4E4E4E" font-size="10">0</tspan></text><text transform="translate(.907 -193.556)"><tspan x="0" y="0" fill="#4E4E4E" font-size="10">2</tspan><tspan x="5.74" y="0" fill="#4E4E4E" font-size="10">,</tspan><tspan x="8.01" y="0" fill="#4E4E4E" font-size="10">5</tspan><tspan x="13.87" y="0" fill="#4E4E4E" font-size="10">0</tspan><tspan x="19.609" y="0" fill="#4E4E4E" font-size="10">0</tspan></text><text transform="translate(.907 -223.776)"><tspan x="0" y="0" fill="#4E4E4E" font-size="10">3</tspan><tspan x="5.74" y="0" fill="#4E4E4E" font-size="10">,</tspan><tspan x="8.01" y="0" fill="#4E4E4E" font-size="10">0</tspan><tspan x="13.87" y="0" fill="#4E4E4E" font-size="10">0</tspan><tspan x="19.609" y="0" fill="#4E4E4E" font-size="10">0</tspan></text><text transform="translate(-4.953 -253.989)"><tspan x="0" y="0" fill="#4E4E4E" font-size="10">$</tspan><tspan x="5.86" y="0" fill="#4E4E4E" font-size="10">3</tspan><tspan x="11.6" y="0" fill="#4E4E4E" font-size="10">,</tspan><tspan x="13.87" y="0" fill="#4E4E4E" font-size="10">5</tspan><tspan x="19.729" y="0" fill="#4E4E4E" font-size="10">0</tspan><tspan x="25.469" y="0" fill="#4E4E4E" font-size="10">0</tspan></text><text transform="translate(26.571 -24.354)"><tspan x="0" y="0" fill="#4E4E4E" font-size="10">1</tspan><tspan x="5.86" y="0" fill="#4E4E4E" font-size="10">9</tspan><tspan x="11.6" y="0" fill="#4E4E4E" font-size="10">5</tspan><tspan x="17.459" y="0" fill="#4E4E4E" font-size="10">8</tspan></text><text transform="translate(73.341 -24.354)"><tspan x="0" y="0" fill="#4E4E4E" font-size="10">1</tspan><tspan x="5.86" y="0" fill="#4E4E4E" font-size="10">9</tspan><tspan x="11.6" y="0" fill="#4E4E4E" font-size="10">6</tspan><tspan x="17.459" y="0" fill="#4E4E4E" font-size="10">3</tspan></text><text transform="translate(120.112 -24.354)"><tspan x="0" y="0" fill="#4E4E4E" font-size="10">1</tspan><tspan x="5.86" y="0" fill="#4E4E4E" font-size="10">9</tspan><tspan x="11.6" y="0" fill="#4E4E4E" font-size="10">6</tspan><tspan x="17.459" y="0" fill="#4E4E4E" font-size="10">8</tspan></text><text transform="translate(166.89 -24.354)"><tspan x="0" y="0" fill="#4E4E4E" font-size="10">1</tspan><tspan x="5.86" y="0" fill="#4E4E4E" font-size="10">9</tspan><tspan x="11.6" y="0" fill="#4E4E4E" font-size="10">7</tspan><tspan x="17.459" y="0" fill="#4E4E4E" font-size="10">3</tspan></text><text transform="translate(213.661 -24.354)"><tspan x="0" y="0" fill="#4E4E4E" font-size="10">1</tspan><tspan x="5.86" y="0" fill="#4E4E4E" font-size="10">9</tspan><tspan x="11.6" y="0" fill="#4E4E4E" font-size="10">7</tspan><tspan x="17.459" y="0" fill="#4E4E4E" font-size="10">8</tspan></text><text transform="translate(260.431 -24.354)"><tspan x="0" y="0" fill="#4E4E4E" font-size="10">1</tspan><tspan x="5.86" y="0" fill="#4E4E4E" font-size="10">9</tspan><tspan x="11.6" y="0" fill="#4E4E4E" font-size="10">8</tspan><tspan x="17.459" y="0" fill="#4E4E4E" font-size="10">3</tspan></text><text transform="translate(307.2 -24.354)"><tspan x="0" y="0" fill="#4E4E4E" font-size="10">1</tspan><tspan x="5.86" y="0" fill="#4E4E4E" font-size="10">9</tspan><tspan x="11.6" y="0" fill="#4E4E4E" font-size="10">8</tspan><tspan x="17.46" y="0" fill="#4E4E4E" font-size="10">8</tspan></text><text transform="translate(353.971 -24.354)"><tspan x="0" y="0" fill="#4E4E4E" font-size="10">1</tspan><tspan x="5.86" y="0" fill="#4E4E4E" font-size="10">9</tspan><tspan x="11.6" y="0" fill="#4E4E4E" font-size="10">9</tspan><tspan x="17.46" y="0" fill="#4E4E4E" font-size="10">3</tspan></text><text transform="translate(400.741 -24.354)"><tspan x="0" y="0" fill="#4E4E4E" font-size="10">1</tspan><tspan x="5.86" y="0" fill="#4E4E4E" font-size="10">9</tspan><tspan x="11.6" y="0" fill="#4E4E4E" font-size="10">9</tspan><tspan x="17.46" y="0" fill="#4E4E4E" font-size="10">8</tspan></text><text transform="translate(447.511 -24.354)"><tspan x="0" y="0" fill="#4E4E4E" font-size="10">2</tspan><tspan x="5.86" y="0" fill="#4E4E4E" font-size="10">0</tspan><tspan x="11.6" y="0" fill="#4E4E4E" font-size="10">0</tspan><tspan x="17.46" y="0" fill="#4E4E4E" font-size="10">3</tspan></text><text transform="translate(494.29 -24.354)"><tspan x="0" y="0" fill="#4E4E4E" font-size="10">2</tspan><tspan x="5.86" y="0" fill="#4E4E4E" font-size="10">0</tspan><tspan x="11.6" y="0" fill="#4E4E4E" font-size="10">0</tspan><tspan x="17.46" y="0" fill="#4E4E4E" font-size="10">8</tspan></text><text transform="matrix(1 -.011 .011 1 615.341 33.444)" fill="#6DAADC" class="heavy" font-size="14">Foreign Taxable Income</text></svg>