<svg xmlns="http://www.w3.org/2000/svg" width="375" height="367" viewBox="0 0 375 367"><style>text, tspan { font-family: &apos;Lato&apos;; } .heavy { font-weight: 700; }</style><path stroke="#CDCCCC" stroke-linejoin="round" stroke-miterlimit="10" d="M42.758 305.826h315.718M42.758 273.863h315.718M42.758 242.037h315.718M42.758 210.212h315.718M42.758 178.248h315.718M42.758 146.42h315.718M42.758 114.596h315.718M42.758 82.77h315.718M42.758 50.805h315.718M42.758 18.98h315.718" fill="none"/><path fill="#7C273F" d="M74.154 321.534h41.86v16.12h-41.86v-16.12zM232.012 35.1h41.86v302.554h-41.86V35.1z"/><path clip-rule="evenodd" fill="none" d="M42.758 338.48h316.474V18.98H42.758v319.5z"/><path fill="#36699A" d="M127.362 140.772h41.86v196.88h-41.86v-196.88zm157.86 75.087h41.86v121.793h-41.86V215.86z"/><path clip-rule="evenodd" fill="none" d="M42.758 338.48h316.474V18.98H42.758v319.5z"/><path stroke="#9B9B9B" stroke-linejoin="round" stroke-miterlimit="10" fill="none" d="M42.758 337.653h315.72"/><text transform="translate(83.467 318.26)"><tspan x="0" y="0" fill="#4E4E4E" font-size="10">5.1%</tspan></text><text transform="translate(239.352 31.91)"><tspan x="0" y="0" fill="#4E4E4E" font-size="10">94.9%</tspan></text><text transform="translate(133.342 134.99)"><tspan x="0" y="0" fill="#4E4E4E" font-size="10">61.8%</tspan></text><text transform="translate(292.528 212.561)"><tspan x="0" y="0" fill="#4E4E4E" font-size="10">38.2%</tspan></text><text transform="translate(20.693 335.269)" fill="#4E4E4E" font-size="10">0</text><text transform="translate(14.954 303.399)"><tspan x="0" y="0" fill="#4E4E4E" font-size="10">10</tspan></text><text transform="translate(14.954 271.529)"><tspan x="0" y="0" fill="#4E4E4E" font-size="10">20</tspan></text><text transform="translate(14.954 239.66)"><tspan x="0" y="0" fill="#4E4E4E" font-size="10">30</tspan></text><text transform="translate(14.954 207.8)"><tspan x="0" y="0" fill="#4E4E4E" font-size="10">40</tspan></text><text transform="translate(14.954 175.93)"><tspan x="0" y="0" fill="#4E4E4E" font-size="10">50</tspan></text><text transform="translate(14.954 144.069)"><tspan x="0" y="0" fill="#4E4E4E" font-size="10">60</tspan></text><text transform="translate(14.954 112.191)"><tspan x="0" y="0" fill="#4E4E4E" font-size="10">70</tspan></text><text transform="translate(14.954 80.321)"><tspan x="0" y="0" fill="#4E4E4E" font-size="10">80</tspan></text><text transform="translate(14.954 48.461)"><tspan x="0" y="0" fill="#4E4E4E" font-size="10">90</tspan></text><text transform="translate(9.412 16.592)"><tspan x="0" y="0" fill="#4E4E4E" font-size="10">100%</tspan></text><text transform="translate(100.132 348.902)"><tspan x="0" y="0" fill="#4E4E4E" font-size="10">Corporate</tspan></text><text transform="translate(243.477 348.902)"><tspan x="0" y="0" fill="#4E4E4E" font-size="10">Pass-through</tspan></text><text transform="translate(57.768 41.563)"><tspan x="0" y="0" fill="#7C273F" class="heavy" font-size="14">Share of Returns</tspan></text><text transform="translate(56.676 67.564)"><tspan x="0" y="0" fill="#36699A" class="heavy" font-size="14">Share of Receipts</tspan></text></svg>