<svg xmlns="http://www.w3.org/2000/svg" width="375" height="345.529" viewBox="0 0 375 345.529"><style>text, tspan { font-family: &apos;Lato&apos;; } .heavy { font-weight: 700; }</style><path stroke="#E0E1E0" stroke-width=".75" stroke-linejoin="round" stroke-miterlimit="10" d="M49.003 7.955H372.32M49.002 60.675H372.32M49.002 113.39H372.32m-323.317 53.66H372.32M49.002 219.77H372.32M49.002 272.488H372.32" fill="none"/><path stroke="#9B9B9B" stroke-linejoin="round" stroke-miterlimit="10" fill="none" d="M48.856 325.838H372.32"/><path stroke="#E0E1E0" stroke-linejoin="round" stroke-miterlimit="10" d="M333.91 322.384v6.59m-46.97-6.59v6.59m-47.742-6.59v6.59m-47.74-6.59v6.59m-47.742-6.59v6.59m-46.97-6.59v6.59m-47.743-6.59v6.59" fill="none"/><path stroke="#BE8697" stroke-width="3" stroke-linecap="round" stroke-linejoin="round" stroke-miterlimit="10" d="M357.782 51.26l9.78-.942m-19.02.94h9.24m-18.48-4.705l9.24 4.707m-19.25-12.24l10.01 7.533m-19.25-9.414l9.24 1.88m-18.48-12.237l9.24 10.356m-19.25-6.59l10.01-3.767m-19.25 5.65l9.24-1.884m-18.482 5.647l9.24-3.766m-19.25 2.826l10.01.94m-19.25-1.882l9.24.94m-19.25-3.764l10.01 2.824M243.818 24.9l9.24 6.59m-18.48-7.53l9.24.94m-19.25 6.59l10.01-7.53m-19.25 17.886l9.24-10.355m-18.48 16.004l9.24-5.648m-19.25 9.413l10.01-3.766m-19.25 12.238l9.24-8.473m-18.48 11.297l9.24-2.824m-19.25 1.882l10.01.94m-19.25-2.823l9.24 1.883M149.105 51.26l9.24 8.472m-19.25-12.238l10.01 3.765m-19.25.94l9.24-4.706m-19.25 7.53l10.01-2.823m-19.25 5.65l9.24-2.825m-18.48 12.238l9.24-9.414M91.353 71.97l10.01-4.707M82.115 79.5l9.24-7.53m-18.48 5.65l9.24 1.882m-19.25-1.883h10.01m-19.25-4.708l9.24 4.707" fill="none"/><text transform="translate(27.633 327.161)" fill="#4E4E4E" font-size="10">$0</text><text transform="translate(2.164 274.118)" fill="#4E4E4E" font-size="10">$10,000</text><text transform="translate(2.164 221.078)" fill="#4E4E4E" font-size="10">$20,000</text><text transform="translate(2.164 168.038)" fill="#4E4E4E" font-size="10">$30,000</text><text transform="translate(2.164 114.996)" fill="#4E4E4E" font-size="10">$40,000</text><text transform="translate(2.164 61.955)" fill="#4E4E4E" font-size="10">$50,000</text><text transform="translate(2.164 8.915)" fill="#4E4E4E" font-size="10">$60,000</text><text transform="translate(37.828 345.529)" fill="#4E4E4E" font-size="10">1980</text><text transform="translate(85.396 345.529)" fill="#4E4E4E" font-size="10">1985</text><text transform="translate(132.964 345.529)" fill="#4E4E4E" font-size="10">1990</text><text transform="translate(180.532 345.529)" fill="#4E4E4E" font-size="10">1995</text><text transform="translate(228.1 345.529)" fill="#4E4E4E" font-size="10">2000</text><text transform="translate(275.668 345.529)" fill="#4E4E4E" font-size="10">2005</text><text transform="translate(323.236 345.529)" fill="#4E4E4E" font-size="10">2010</text><text transform="translate(53.623 41.75)" fill="#BE8697" class="heavy" font-size="12">Median Household Income</text></svg>