<svg xmlns="http://www.w3.org/2000/svg" width="375" height="367" viewBox="0 0 375 367"><style>text, tspan { font-family: &apos;Lato&apos;; } .heavy { font-weight: 700; }</style><path stroke="#D9D9D8" stroke-width=".72" stroke-linejoin="round" stroke-miterlimit="10" d="M73.702 287.9H361.41M73.702 243.74H361.41M73.702 199.46H361.41M73.702 155.3H361.41M73.702 111.02H361.41M73.702 66.86H361.41M73.702 22.58H361.41" fill="none"/><path fill-rule="evenodd" clip-rule="evenodd" fill="#06A0B0" d="M123.162 76.1h64.92v256.08h-64.92V76.1z"/><path fill-rule="evenodd" clip-rule="evenodd" fill="#CC3440" d="M249.29 323.66h64.92v8.52h-64.92v-8.52z"/><path stroke="#D9D9D8" stroke-width=".72" stroke-linejoin="round" stroke-miterlimit="10" fill="none" d="M73.702 332.18H361.41"/><text transform="translate(127.073 64.762)"><tspan x="0" y="0" fill="#4E4E4E" font-size="10">$11,583,305</tspan></text><text transform="translate(260.137 317.402)"><tspan x="0" y="0" fill="#4E4E4E" font-size="10">$382,972</tspan></text><text transform="translate(61.029 331.332)" fill="#4E4E4E" font-size="10">0</text><text transform="translate(21.69 287.106)"><tspan x="0" y="0" fill="#4E4E4E" font-size="10">2,000,000</tspan></text><text transform="translate(21.69 242.887)"><tspan x="0" y="0" fill="#4E4E4E" font-size="10">4,000,000</tspan></text><text transform="translate(21.69 198.652)"><tspan x="0" y="0" fill="#4E4E4E" font-size="10">6,000,000</tspan></text><text transform="translate(21.69 154.434)"><tspan x="0" y="0" fill="#4E4E4E" font-size="10">8,000,000</tspan></text><text transform="translate(15.95 110.215)"><tspan x="0" y="0" fill="#4E4E4E" font-size="10">10,000,000</tspan></text><text transform="translate(15.95 65.996)"><tspan x="0" y="0" fill="#4E4E4E" font-size="10">12,000,000</tspan></text><text transform="translate(10.09 21.777)"><tspan x="0" y="0" fill="#4E4E4E" font-size="10">$14,000,000</tspan></text><text transform="translate(132.849 347.207)"><tspan x="0" y="0" fill="#4E4E4E" font-size="10">Corporate</tspan></text><text transform="translate(252.627 347.207)"><tspan x="0" y="0" fill="#4E4E4E" font-size="10">Pass-through</tspan></text></svg>