<svg xmlns="http://www.w3.org/2000/svg" width="546.063" height="252" viewBox="0 0 546.063 252"><style>text, tspan { font-family: &apos;Lato&apos;; } .heavy { font-weight: 700; }</style><path stroke="#CDCCCC" stroke-linejoin="round" stroke-miterlimit="10" d="M28.627 7.513h516.655M28.627 36.098h516.655M28.627 64.682h516.655M28.627 94.22h516.655M28.627 122.802h516.655M28.627 151.388h516.655M28.627 179.972h516.655M28.627 208.557h516.655m-516.655 29.2h516.655" fill="none"/><path stroke="#9B9B9B" stroke-linejoin="round" stroke-miterlimit="10" fill="none" d="M28.417 194.585H545.62M545.282 191.406v6.355m-57.29-6.354v6.355m-57.29-6.354v6.355m-57.29-6.354v6.355m-57.29-6.354v6.355m-58.333-6.354v6.355m-57.29-6.354v6.355m-57.292-6.354v6.355m-57.29-6.354v6.355m-57.29-6.354v6.355"/><path stroke="#32BBE8" stroke-width="3" stroke-linecap="round" stroke-linejoin="round" stroke-miterlimit="10" d="M528.616 143.766l11.256-1.906m-22.714 13.34l11.458-11.435M505.7 159.01l11.458-3.81m-22.916 23.737L505.7 159.01m-22.916-32.396l11.458 52.322M471.325 98.03l11.46 28.584M459.866 80.88l11.458 17.15M448.41 78.02l11.457 2.86m-22.916 3.81l11.46-6.668m-23.958 20.96l12.5-14.29m-23.958 17.15l11.458-2.86m-22.916-4.763l11.458 7.62m-22.917-34.3l11.46 26.68m-22.918-26.68h11.457m-22.916 5.717l11.46-5.717m-22.917 12.387l11.458-6.67m-22.915 19.056l11.458-12.387m-22.916 20.01l11.458-7.623m-22.916 4.765l11.457 2.858m-22.916 12.386l11.46-15.245m-22.917 20.963l11.458-5.717m-22.915 10.48l11.458-4.764m-22.916-19.057l11.458 23.82M264.04 83.738l11.457 15.245m-22.916-17.15l11.46 1.906M241.122 70.4l11.458 11.433M229.666 67.54l11.458 2.86M218.207 58.01l11.458 9.528M206.75 45.625l11.457 12.387M195.29 96.125l11.46-50.5m-22.917 60.98l11.458-10.48m-22.915-33.35l11.458 43.83M160.916 74.21l11.458-11.434M149.458 37.05l11.458 37.16M138 36.098l11.458.953m-22.916 19.056L138 36.098m-22.916 40.97l11.458-20.962m-22.916 49.547l11.458-28.584M91.126 59.917l12.5 45.735M79.668 38.956l11.458 20.962M68.21 51.342l11.458-12.386M56.752 63.73L68.21 51.34M45.294 70.4l11.458-6.67M33.836 41.813l11.458 28.584" fill="none"/><path fill="none" d="M28.367 7.037h517.696v230.58H28.367z"/><path stroke="#CC333F" stroke-width="3" stroke-linecap="round" stroke-linejoin="round" stroke-miterlimit="10" d="M528.616 168.538l11.256-8.575m-22.714 36.207l11.458-27.632M505.7 206.65l11.458-10.48m-22.916 27.632L505.7 206.65m-22.916-2.858l11.458 20.01m-22.917-52.406l11.46 32.396m-22.918-61.933l11.458 29.536M448.41 156.15l11.457-14.29m-22.916 16.198l11.46-1.906m-23.958 5.717l12.5-3.813m-23.958-6.67l11.458 10.482m-22.916-30.49l11.458 20.008m-22.917-41.924l11.46 21.915m-22.918-26.68l11.457 4.764m-22.916-13.34l11.46 8.577m-22.917-.953l11.458-7.623m-22.915 26.68l11.458-19.057m-22.916 33.35l11.458-14.293m-22.916 23.82l11.457-9.528m-22.916 22.867l11.46-13.34m-22.917 5.718l11.458 7.623m-22.915-18.104l11.458 10.48M275.497 139l11.458 2.86m-22.916-18.104L275.496 139m-22.916-25.725l11.46 10.48m-22.917 4.766l11.458-15.244m-22.915 22.867l11.458-7.622m-22.916-16.198l11.458 23.82M206.75 91.36l11.457 20.962M195.29 131.38l11.46-40.02m-22.917 20.01l11.458 20.01m-22.915-53.36l11.458 33.35m-22.917-20.01l11.458-13.34m-22.916-16.197l11.458 29.537M138 58.012l11.458 3.81m-22.916 14.294L138 58.012m-22.916 28.585l11.458-10.48m-22.916 23.82l11.458-13.34M91.126 61.823l12.5 38.113M79.668 36.098l11.458 25.726M68.21 63.73l11.458-27.632M56.752 74.21L68.21 63.73m-22.916 8.574l11.458 1.906M33.836 41.814l11.458 30.49" fill="none"/><path fill="none" d="M28.367 7.037h517.696v230.58H28.367z"/><text transform="translate(2.781 237.568)" fill="#4E4E4E" font-size="10">-3</text><text transform="translate(2.781 208.788)" fill="#4E4E4E" font-size="10">-1</text><text transform="translate(6.114 180.007)" fill="#4E4E4E" font-size="10">1</text><text transform="translate(6.114 151.227)" fill="#4E4E4E" font-size="10">3</text><text transform="translate(6.114 122.446)" fill="#4E4E4E" font-size="10">5</text><text transform="translate(6.114 93.664)" fill="#4E4E4E" font-size="10">7</text><text transform="translate(6.114 64.884)" fill="#4E4E4E" font-size="10">9</text><text transform="translate(0 36.103)" fill="#4E4E4E" font-size="10">11</text><text transform="translate(0 7.322)" fill="#4E4E4E" font-size="10">13%</text><text transform="translate(17.547 251.75)" fill="#4E4E4E" font-size="10">1969</text><text transform="translate(75.536 251.75)" fill="#4E4E4E" font-size="10">1974</text><text transform="translate(132.481 251.75)" fill="#4E4E4E" font-size="10">1979</text><text transform="translate(190.469 251.75)" fill="#4E4E4E" font-size="10">1984</text><text transform="translate(247.415 251.75)" fill="#4E4E4E" font-size="10">1989</text><text transform="translate(305.402 251.75)" fill="#4E4E4E" font-size="10">1994</text><text transform="translate(362.348 251.75)" fill="#4E4E4E" font-size="10">1999</text><text transform="translate(420.458 251.75)" fill="#4E4E4E" font-size="10">2004</text><text transform="translate(477.404 251.75)" fill="#4E4E4E" font-size="10">2009</text><text transform="translate(234.635 55.205)" fill="#29AAE2" class="heavy" font-size="14">Investment</text><text transform="translate(350.369 145.272)" fill="#CC333F" class="heavy" font-size="14">Saving</text></svg>