<svg xmlns="http://www.w3.org/2000/svg" width="375" height="367" viewBox="0 0 375 367"><style>text, tspan { font-family: &apos;Lato&apos;; } .heavy { font-weight: 700; }</style><path stroke="#E0E1E0" stroke-linejoin="round" stroke-miterlimit="10" d="M50.533 14.554h314.79m-314.79 53.95h314.79m-314.79 53.953h314.79M50.532 176.41h314.79m-314.79 53.95h314.79m-314.79 53.952h314.79" fill="none"/><path fill="#32BBE8" d="M302.363 133.247h46.92v205.59h-46.92v-205.59zm-78.517-45.123h46.92v250.712h-46.92V88.124zM145.33 49.867h46.917v288.97H145.33V49.866z"/><path stroke="#E0E1E0" stroke-linejoin="round" stroke-miterlimit="10" fill="none" d="M50.686 338.836H365.32"/><text transform="translate(149.069 42.629)" fill="#4E4E4E" font-size="10">$53,444</text><text transform="translate(227.249 80.386)" fill="#4E4E4E" font-size="10">$46,458</text><text transform="translate(306.566 126.173)" fill="#4E4E4E" font-size="10">$37,987</text><text transform="translate(32.308 337.119)" fill="#4E4E4E" font-size="10">$0</text><text transform="translate(6.838 283.071)" fill="#4E4E4E" font-size="10">$10,000</text><text transform="translate(6.838 229.024)" fill="#4E4E4E" font-size="10">$20,000</text><text transform="translate(6.838 174.977)" fill="#4E4E4E" font-size="10">$30,000</text><text transform="translate(6.838 120.93)" fill="#4E4E4E" font-size="10">$40,000</text><text transform="translate(6.838 66.883)" fill="#4E4E4E" font-size="10">$50,000</text><text transform="translate(6.838 12.836)" fill="#4E4E4E" font-size="10">$60,000</text><path fill-rule="evenodd" clip-rule="evenodd" fill="#903750" d="M67.43 48.814h46.544v290.02H67.43z"/><text transform="translate(70.887 41.458)" fill="#4E4E4E" font-size="10">$53,661</text><text transform="translate(60.077 350.28)" fill="#4E4E4E" class="heavy" font-size="10">Government</text><text transform="translate(143.181 350.28)" fill="#4E4E4E" class="heavy" font-size="10">Corporate</text><text transform="translate(214.32 350.28)" fill="#4E4E4E" class="heavy" font-size="10">Private Sector</text><text transform="translate(229.388 362.052)" fill="#4E4E4E" class="heavy" font-size="10">Average</text><text transform="translate(294.084 350.28)" fill="#4E4E4E" class="heavy" font-size="10">Pass-through</text></svg>