<svg xmlns="http://www.w3.org/2000/svg" width="548.309" height="252" viewBox="0 0 548.309 252"><style>text, tspan { font-family: &apos;Lato&apos;; } .heavy { font-weight: 700; }</style><path stroke="#CDCCCC" stroke-linejoin="round" stroke-miterlimit="10" d="M34.405 11.824h513.183M34.405 44.074h513.183M34.405 75.28h513.183m-513.183 32.25h513.183M34.405 139.78h513.183M34.405 172.03h513.183M34.405 235.486h513.183" fill="none"/><path stroke="#9B9B9B" stroke-linejoin="round" stroke-miterlimit="10" fill="none" d="M34.56 203.742h513.268M481.277 200.117v7.092m-112.438-7.093v7.092m-111.48-7.093v7.092m-111.477-7.093v7.092m-111.478-7.093v7.092m502.266-6.053v2.08m-111.13-2.08v2.08m-112.44-2.08v2.08m-111.478-2.08v2.08m-111.478-2.08v2.08"/><path stroke="#32BBE8" stroke-width="3" stroke-linecap="round" stroke-linejoin="round" stroke-miterlimit="10" d="M525.484 178.27l22.104 1.04m-44.207 13.525l22.105-14.563m-44.208 16.644l22.104-2.08m-45.166-20.807l23.063 22.886M436.11 137.7l22.103 34.33m-44.207-26.01l22.104-8.32m-44.207 26.007l22.103-17.686m-45.167 26.01l23.063-8.323m-45.168 10.403l22.104-2.08m-44.208 1.04l22.104 1.04m-44.208-7.282l22.104 6.24m-44.207-37.45l22.104 31.21m-45.17-35.37l23.065 4.16m-45.168 6.242l22.104-10.402m-44.206 9.362l22.103 1.04m-44.207 4.16l22.104-5.2m-45.168 14.565l23.064-9.363m-45.167 15.604l22.103-6.24m-44.207 13.522l22.103-7.282m-44.207 8.322l22.104-1.04m-44.208 0l22.104 1.04m-45.168-9.362l23.064 8.322M34.405 141.86l22.103 18.726" fill="none"/><path fill="none" d="M34.165 11.564H548.31v224.704H34.164z"/><path stroke="#FAA526" stroke-width="3" stroke-linecap="round" stroke-linejoin="round" stroke-miterlimit="10" d="M525.484 148.103l22.104-6.242m-44.207 18.726l22.105-12.483m-44.208 41.61l22.104-29.127m-45.166 63.275l23.063-34.146m-45.168-27.047l22.103 61.194m-44.207-89.28l22.104 28.087m-44.207-30.17l22.103 2.082m-45.167 10.4l23.063-12.482m-45.168 26.008l22.104-13.524m-44.208 23.926l22.104-10.402m-44.208 11.442l22.104-1.04m-44.207-17.684l22.104 18.725m-45.17-38.492l23.065 19.766m-45.168-11.444l22.104-8.322m-44.206 19.766l22.103-11.443m-44.207 22.887l22.104-11.443m-45.168 18.724l23.064-7.28m-45.167 13.522l22.103-6.242m-44.207 13.525l22.103-7.282m-44.207 15.605l22.104-8.322m-44.208 17.684l22.104-9.362m-45.168 13.523l23.064-4.16m-45.167-2.08l22.103 6.24" fill="none"/><path fill="none" d="M34.165 11.564H548.31v224.704H34.164z"/><path stroke="#065296" stroke-width="3" stroke-linecap="round" stroke-linejoin="round" stroke-miterlimit="10" d="M525.484 181.392h22.104m-44.207 2.08l22.105-2.08m-44.208 5.202l22.104-3.12m-45.166 3.12h23.063m-45.168-7.282l22.103 7.282m-44.207-8.323l22.104 1.04m-44.207 1.042l22.103-2.08m-45.167 3.12l23.063-1.04m-45.168 4.16l22.104-3.12m-44.208 5.202l22.104-2.08m-44.208 2.08h22.104m-44.207-6.242l22.104 6.242m-45.17-13.525l23.065 7.28m-45.168-6.24l22.104-1.04m-44.206 5.2l22.103-4.16m-44.207 7.282l22.104-3.12m-45.168 8.322l23.064-5.202m-45.167 9.363l22.103-4.16m-44.207 5.2l22.103-1.04m-44.207 1.04h22.104m-44.208-1.04l22.104 1.04m-45.168-1.04h23.064m-45.167 0h22.103" fill="none"/><path fill="none" d="M34.165 11.564H548.31v224.704H34.164z"/><path stroke="#21B573" stroke-width="3" stroke-linecap="round" stroke-linejoin="round" stroke-miterlimit="10" d="M525.484 184.513l22.104-15.604m-44.207 32.247l22.105-16.645m-44.208 18.302l22.104-1.657m-45.166 0l23.063 1.657m-45.168-34.946l22.103 33.29m-44.207-84.264l22.104 50.975M391.903 65.92l22.103 50.973m-45.167-76.98l23.063 26.006m-45.168-14.565l22.104-11.443m-44.208 30.17l22.104-18.726m-44.208 34.33l22.104-15.605m-44.207 23.927l22.104-8.322m-45.17 7.282l23.065 1.04m-45.168-3.12l22.104 2.08m-44.206 6.242l22.103-8.324m-44.207 20.806l22.104-12.483m-45.168 13.522l23.064-1.04m-45.167 12.484l22.103-11.443m-44.207 4.16l22.103 7.283m-44.207 4.16l22.104-11.442M79.572 137.7l22.104-9.363m-45.168 24.967L79.572 137.7m-45.167 2.08l22.103 13.523" fill="none"/><path fill="none" d="M34.165 11.564H548.31v224.704H34.164z"/><text transform="translate(2.587 235.89)" fill="#4E4E4E" font-size="10">-100</text><text transform="translate(17.902 203.903)" fill="#4E4E4E" font-size="10">0</text><text transform="translate(6.302 171.916)" fill="#4E4E4E" font-size="10">100</text><text transform="translate(6.302 139.931)" fill="#4E4E4E" font-size="10">200</text><text transform="translate(6.302 107.944)" fill="#4E4E4E" font-size="10">300</text><text transform="translate(6.302 75.958)" fill="#4E4E4E" font-size="10">400</text><text transform="translate(6.302 43.972)" fill="#4E4E4E" font-size="10">500</text><text transform="translate(.502 11.985)" fill="#4E4E4E" font-size="10">$600</text><text transform="translate(23.271 250)" fill="#4E4E4E" font-size="10">1990</text><text transform="translate(134.851 250)" fill="#4E4E4E" font-size="10">1995</text><text transform="translate(246.556 250)" fill="#4E4E4E" font-size="10">2000</text><text transform="translate(358.136 250)" fill="#4E4E4E" font-size="10">2005</text><text transform="translate(469.717 250)" fill="#4E4E4E" font-size="10">2010</text><text transform="translate(109.482 136.092)" fill="#29AAE2" class="heavy" font-size="12">Commercial Structures</text><text transform="translate(332.71 128.843)" fill="#F79420" class="heavy" font-size="12">Equipment</text><text transform="translate(181.61 195.166)" fill="#065296" class="heavy" font-size="12">Intellectual Property</text><text transform="translate(181.649 58.88)" fill="#21B573" class="heavy" font-size="12">Residential Structures</text></svg>