<svg xmlns="http://www.w3.org/2000/svg" width="561" height="252" viewBox="0 0 561 252"><style>text, tspan { font-family: &apos;Lato&apos;; } .heavy { font-weight: 700; }</style><path stroke="#CDCCCC" stroke-linejoin="round" stroke-miterlimit="10" d="M43.66 11.65H542.5M43.66 34.79H542.5M43.66 57.933H542.5M43.66 80.146H542.5m-498.84 23.14H542.5m-498.84 23.14H542.5M43.66 148.643H542.5m-498.84 23.14H542.5m-498.84 23.14H542.5" fill="none"/><path fill="#CC333F" d="M437.596 216.212h40.644v.926h-40.644v-.926zm-124.017-1.85h39.6v2.775h-39.6v-2.776zM188.52 174.56h40.644v42.578H188.52V174.56zM64.503 35.717h39.602v181.42H64.503V35.718z"/><path fill="#21B573" d="M482.408 99.584h39.602v117.553h-39.602V99.584zM357.35 185.667h40.644v31.47H357.35v-31.47zm-124.017-22.215h39.602v53.686h-39.602v-53.686zm-125.06 29.62h40.645v24.065h-40.644V193.07z"/><path stroke="#9B9B9B" stroke-linejoin="round" stroke-miterlimit="10" fill="none" d="M44.134 217.562H542.5"/><text transform="translate(69.21 29.228)" fill="#4E4E4E" font-size="10">79.4%</text><text transform="translate(193.801 167.415)" fill="#4E4E4E" font-size="10">18.9%</text><text transform="translate(321.233 207.353)" fill="#4E4E4E" font-size="10">1.4%</text><text transform="translate(451.826 209.91)" fill="#4E4E4E" font-size="10">0.3%</text><text transform="translate(113.42 185.855)" fill="#4E4E4E" font-size="10">10.8%</text><text transform="translate(238.011 156.53)" fill="#4E4E4E" font-size="10">23.7%</text><text transform="translate(365.602 178.644)" fill="#4E4E4E" font-size="10">14.0%</text><text transform="translate(487.195 92.878)" fill="#4E4E4E" font-size="10">51.5%</text><text transform="translate(22.444 217.265)" fill="#4E4E4E" font-size="10">0</text><text transform="translate(16.645 194.407)" fill="#4E4E4E" font-size="10">10</text><text transform="translate(16.645 171.55)" fill="#4E4E4E" font-size="10">20</text><text transform="translate(16.645 148.692)" fill="#4E4E4E" font-size="10">30</text><text transform="translate(16.645 125.835)" fill="#4E4E4E" font-size="10">40</text><text transform="translate(16.645 102.977)" fill="#4E4E4E" font-size="10">50</text><text transform="translate(16.645 80.12)" fill="#4E4E4E" font-size="10">60</text><text transform="translate(16.645 57.262)" fill="#4E4E4E" font-size="10">70</text><text transform="translate(16.645 34.405)" fill="#4E4E4E" font-size="10">80</text><text transform="translate(16.645 11.548)" fill="#4E4E4E" font-size="10">90%</text><text transform="translate(92.551 229.989)" fill="#4E4E4E" class="heavy" font-size="10">0 to 9</text><text transform="translate(210.894 229.989)" fill="#4E4E4E" class="heavy" font-size="10">10 to 99</text><text transform="translate(328.237 229.989)" fill="#4E4E4E" class="heavy" font-size="10">100 to 499</text><text transform="translate(453.681 229.989)" fill="#4E4E4E" class="heavy" font-size="10">500 and up</text><text transform="translate(196.138 247.337)" fill="#808285" class="heavy" font-size="10">Size of Firm by Number of Employees</text><text transform="translate(387.066 31.133)" fill="#CC333F" class="heavy" font-size="14">Share of Firms</text><text transform="translate(387.066 50.068)" fill="#21B573" class="heavy" font-size="14">Share of Employment</text><text transform="translate(84.681 276.78)" fill="#4E4E4E" class="heavy" font-size="10">Corporate</text></svg>