<svg xmlns="http://www.w3.org/2000/svg" width="561" height="252" viewBox="0 0 561 252"><style>text, tspan { font-family: &apos;Lato&apos;; } .heavy { font-weight: 700; }</style><path fill-rule="evenodd" clip-rule="evenodd" fill="#F79420" d="M167.85 218.017h28.507v9.896H167.85zM167.85 173.49h47.602v9.895H167.85zM167.85 143.805h64.766v9.895H167.85zM167.85 39.907h220.292v9.896H167.85z"/><path fill="#60C8D5" d="M516.987 19.718H167.654v-9h349.333v9zm-117.324 15h-232.01v-10h232.01v10zm-19.113 30H167.654v-10H380.55v10zm-65.913 15H167.654v-10h146.982v10zm-40.865 15H167.654v-10h106.118v10zm-4.613 14H167.653v-9h101.504v9zm-16.48 15h-85.025v-10h85.026v10zm-19.114 15h-65.912v-10h65.912v10zm-13.84 30h-52.07v-10h52.07v10zm-13.843 30h-38.23v-10h38.23v10zm-7.91 14h-30.318v-10h30.32v10z"/><text transform="translate(203.811 225.964)" fill="#808285" class="heavy" font-size="8">$269</text><text transform="translate(203.615 211.122)" fill="#808285" class="heavy" font-size="8">$287</text><text transform="translate(213.507 196.279)" fill="#808285" class="heavy" font-size="8">$361</text><text transform="translate(222.906 181.438)" fill="#808285" class="heavy" font-size="8">$449</text><text transform="translate(227.239 166.595)" fill="#808285" class="heavy" font-size="8">$490</text><text transform="translate(240.07 151.752)" fill="#808285" class="heavy" font-size="8">$611</text><text transform="translate(241.259 136.91)" fill="#808285" class="heavy" font-size="8">$623</text><text transform="translate(258.204 122.067)" fill="#808285" class="heavy" font-size="8">$802</text><text transform="translate(276.609 107.225)" fill="#808285" class="heavy" font-size="8">$956</text><text transform="translate(281.099 92.383)" fill="#808285" class="heavy" font-size="8">$999</text><text transform="translate(325.412 77.54)" fill="#808285" class="heavy" font-size="8">$1,388</text><text transform="translate(390.807 62.697)" fill="#808285" class="heavy" font-size="8">$2,005</text><text transform="translate(398.664 47.855)" fill="#808285" class="heavy" font-size="8">$2,080</text><text transform="translate(409.933 33.013)" fill="#808285" class="heavy" font-size="8">$2,186</text><text transform="translate(519.482 18.17)" fill="#808285" class="heavy" font-size="8">$3,293</text><text transform="translate(18.141 225.964)" fill="#4E4E4E" font-size="8">Agriculture, forestry, ﬁshing, and hunting</text><text transform="translate(134.339 211.122)" fill="#4E4E4E" font-size="8">Utilities</text><text transform="translate(38.424 196.279)" fill="#4E4E4E" font-size="8">Other services, except government</text><text transform="translate(137.219 181.436)" fill="#4E4E4E" font-size="8">Mining</text><text transform="translate(47.452 166.595)" fill="#4E4E4E" font-size="8">Transportation and warehousing</text><text transform="translate(115.78 151.752)" fill="#4E4E4E" font-size="8">Construction</text><text transform="translate(25.909 136.91)" fill="#4E4E4E" font-size="8">Arts, entertainment, food services, etc.</text><text transform="translate(120.136 122.067)" fill="#4E4E4E" font-size="8">Information</text><text transform="translate(121.18 107.225)" fill="#4E4E4E" font-size="8">Retail trade</text><text transform="translate(104.12 92.383)" fill="#4E4E4E" font-size="8">Wholesale trade</text><text transform="translate(30.832 77.54)" fill="#4E4E4E" font-size="8">Educational services, health care, etc.</text><text transform="translate(41.424 62.697)" fill="#4E4E4E" font-size="8">Professional and business services</text><text transform="translate(109.864 47.855)" fill="#4E4E4E" font-size="8">Manufacturing</text><text transform="translate(117.332 33.013)" fill="#4E4E4E" font-size="8">Government</text><text transform="translate(39.416 18.17)" fill="#4E4E4E" font-size="8">Finance, insurance, real estate, etc.</text><text transform="translate(417.948 202.148)" fill="#60C8D5" class="heavy" font-size="14">Service Industry</text><text transform="translate(417.948 220.148)" fill="#F79420" class="heavy" font-size="14">Production Industry</text><text transform="translate(297.789 245.218)" fill="#808285" class="heavy" font-size="10">Billions of Dollars</text></svg>