<svg xmlns="http://www.w3.org/2000/svg" width="561" height="252" viewBox="0 0 561 252"><style>text, tspan { font-family: &apos;Lato&apos;; } .heavy { font-weight: 700; }</style><text transform="translate(424 211.328)" fill="#60C8D5" class="heavy" font-size="14">Service Industry</text><text transform="translate(424 229.328)" fill="#F79420" class="heavy" font-size="14">Production Industry</text><text transform="translate(267.972 245.834)" fill="#808285" class="heavy" font-size="10">Millions of People</text><path fill-rule="evenodd" clip-rule="evenodd" fill="#F79420" d="M169.16 204.813h11.978v10.008h-11.98zM169.16 189.802h19.908v10.008h-19.91zM169.16 129.757h87.554v10.008H169.16zM169.16 84.724h180.457V94.73H169.16z"/><path fill="#60C8D5" d="M537.296 19.75h-368.5v-10h368.5v10zm-59.78 15h-308.72v-10h308.72v10zm-34.8 15h-273.92v-10h273.92v10zm-46.396 15H168.796v-10H396.32v10zm-17.845 15h-209.68v-10h209.68v10zm-91.01 30h-118.67v-10h118.67v10zm-15.168 15h-103.5v-10h103.5v10zm-16.953 30h-86.548v-10h86.548v10zm-18.737 15h-67.81v-10h67.81v10zm-26.768 15h-41.044v-10h41.043v10zm-32.122 45h-8.922v-10h8.922v10z"/><text transform="translate(182.948 227.828)" fill="#808285" class="heavy" font-size="8">0.6</text><text transform="translate(187.045 212.816)" fill="#808285" class="heavy" font-size="8">0.8</text><text transform="translate(195.934 197.806)" fill="#808285" class="heavy" font-size="8">1.3</text><text transform="translate(219.371 182.794)" fill="#808285" class="heavy" font-size="8">2.7</text><text transform="translate(248.728 167.783)" fill="#808285" class="heavy" font-size="8">4.4</text><text transform="translate(261.942 152.772)" fill="#808285" class="heavy" font-size="8">5.7</text><text transform="translate(263.753 137.761)" fill="#808285" class="heavy" font-size="8">5.8</text><text transform="translate(281.44 122.749)" fill="#808285" class="heavy" font-size="8">6.8</text><text transform="translate(298.709 107.738)" fill="#808285" class="heavy" font-size="8">7.9</text><text transform="translate(355.029 92.728)" fill="#808285" class="heavy" font-size="8">11.9</text><text transform="translate(387.553 77.716)" fill="#808285" class="heavy" font-size="8">13.9</text><text transform="translate(404.193 62.705)" fill="#808285" class="heavy" font-size="8">15.0</text><text transform="translate(452.05 47.693)" fill="#808285" class="heavy" font-size="8">18.1</text><text transform="translate(486.84 32.683)" fill="#808285" class="heavy" font-size="8">20.4</text><text transform="translate(542.083 17.671)" fill="#808285" class="heavy" font-size="8">24.4</text><text transform="translate(132.959 227.339)" fill="#4E4E4E" font-size="8">Utilities</text><text transform="translate(135.839 212.327)" fill="#4E4E4E" font-size="8">Mining</text><text transform="translate(16.76 197.316)" fill="#4E4E4E" font-size="8">Agriculture, forestry, ﬁshing, and hunting</text><text transform="translate(118.755 182.305)" fill="#4E4E4E" font-size="8">Information</text><text transform="translate(46.072 167.294)" fill="#4E4E4E" font-size="8">Transportation and warehousing</text><text transform="translate(102.739 152.282)" fill="#4E4E4E" font-size="8">Wholesale trade</text><text transform="translate(114.399 137.272)" fill="#4E4E4E" font-size="8">Construction</text><text transform="translate(37.044 122.26)" fill="#4E4E4E" font-size="8">Other services, except government</text><text transform="translate(38.036 107.249)" fill="#4E4E4E" font-size="8">Finance, insurance, real estate, etc.</text><text transform="translate(108.483 92.237)" fill="#4E4E4E" font-size="8">Manufacturing</text><text transform="translate(24.528 77.227)" fill="#4E4E4E" font-size="8">Arts, entertainment, food services, etc.</text><text transform="translate(119.799 62.216)" fill="#4E4E4E" font-size="8">Retail trade</text><text transform="translate(40.044 47.204)" fill="#4E4E4E" font-size="8">Professional and business services</text><text transform="translate(6.061 32.193)" fill="#4E4E4E" font-size="8">Education, health care, and social assistance</text><text transform="translate(115.951 17.182)" fill="#4E4E4E" font-size="8">Government</text></svg>