<svg xmlns="http://www.w3.org/2000/svg" width="561" height="252" viewBox="0 0 561 252"><path fill="none" stroke="#D9D9D8" stroke-width=".5" stroke-miterlimit="10" d="M35.307 234h520.166M35.307 205.996h520.166M35.307 177.992h520.166M35.307 149.988h520.166M35.307 93.537h520.166M35.307 65.534h520.166M35.307 37.53h520.166M35.307 10h520.166"/><path fill="none" stroke="#9B9B9B" stroke-width=".5" stroke-linejoin="round" stroke-miterlimit="10" d="M35.307 121.542h520.166"/><g fill="#4E4E4E"><path d="M6.577 234.254H8.86v.755H6.576v-.756zM12.258 237.71c-.33 0-.63-.05-.905-.144s-.51-.23-.707-.407-.35-.392-.457-.644c-.11-.252-.163-.534-.163-.848 0-.46.11-.84.333-1.138.222-.298.54-.51.95-.638-.347-.14-.61-.35-.787-.627-.177-.278-.266-.61-.266-.998 0-.263.048-.51.144-.74.096-.23.232-.43.407-.6.176-.17.386-.303.63-.4.245-.096.518-.145.82-.145.3 0 .57.05.818.146.246.097.457.23.632.4.176.17.31.37.407.6.095.23.143.477.143.74 0 .386-.09.72-.268.997-.18.278-.44.487-.786.627.413.127.73.34.952.638.222.3.333.678.333 1.138 0 .313-.056.596-.165.848s-.262.466-.457.643c-.196.176-.43.312-.705.406s-.575.143-.905.143zm0-.71c.216 0 .41-.033.58-.1s.316-.155.435-.274c.118-.118.21-.26.272-.425.063-.164.095-.347.095-.546 0-.247-.038-.458-.113-.633-.076-.174-.177-.316-.305-.427-.127-.11-.274-.19-.44-.242-.167-.05-.34-.077-.523-.077s-.356.026-.523.078c-.166.053-.313.134-.44.243-.13.11-.23.253-.306.428-.075.176-.112.387-.112.634 0 .2.032.382.095.547s.154.308.272.426c.12.12.263.21.434.275s.363.1.578.1zm0-3.44c.216 0 .4-.036.552-.108.152-.07.276-.166.372-.285.095-.118.165-.254.208-.407.043-.153.064-.312.064-.475 0-.167-.025-.323-.076-.47-.05-.147-.126-.275-.226-.386-.1-.11-.225-.197-.375-.26s-.322-.096-.52-.096c-.197 0-.37.03-.52.095s-.274.15-.374.26c-.1.11-.176.237-.227.384-.05.147-.076.304-.076.47 0 .164.02.322.065.476.043.153.112.29.208.407.096.12.22.214.372.285.154.07.338.107.553.107zM19.86 234.05c0 .626-.063 1.168-.187 1.627-.125.458-.295.837-.51 1.137-.216.3-.47.523-.765.67-.294.147-.61.22-.944.22-.34 0-.654-.072-.945-.22-.292-.146-.545-.37-.76-.67-.216-.3-.386-.68-.51-1.137-.122-.46-.184-1-.184-1.628s.062-1.17.185-1.63.293-.842.51-1.144c.215-.302.468-.525.76-.673.29-.146.605-.22.944-.22.335 0 .65.073.944.22.294.147.55.37.765.673.215.302.386.683.51 1.143s.187 1.002.187 1.63zm-.854 0c0-.548-.042-1.007-.127-1.378-.086-.372-.2-.67-.343-.898-.143-.227-.31-.39-.497-.487-.188-.098-.383-.147-.586-.147s-.4.05-.586.147c-.188.1-.353.26-.495.487-.142.228-.254.526-.34.898-.083.37-.126.83-.126 1.377s.042 1.004.127 1.374c.085.37.198.668.34.896.14.227.306.39.494.487.188.098.383.147.586.147s.398-.05.586-.147c.188-.1.354-.26.497-.487.143-.228.257-.525.342-.896.083-.37.126-.828.126-1.375zM23.314 232.194c0 .28-.04.53-.12.752-.08.222-.188.408-.32.56-.135.152-.29.268-.467.348-.177.08-.364.12-.562.12-.206 0-.398-.04-.577-.12s-.333-.195-.464-.347c-.13-.152-.233-.34-.307-.56-.074-.223-.11-.474-.11-.753 0-.287.036-.542.11-.766.074-.223.176-.41.307-.564s.286-.27.464-.35.37-.12.577-.12c.21 0 .404.04.582.12.18.08.334.196.467.35.132.153.235.342.31.564.074.224.11.48.11.766zm2.342-1.58c.03-.04.067-.075.11-.105.04-.03.097-.046.167-.046h.596l-4.84 7.02c-.03.044-.064.08-.107.105-.043.025-.095.04-.157.04h-.605l4.836-7.016zm-2.98 1.58c0-.22-.02-.407-.063-.56-.043-.154-.103-.28-.178-.378-.076-.1-.164-.17-.266-.213s-.21-.065-.325-.065c-.114 0-.22.022-.318.065s-.185.114-.26.213c-.073.098-.13.224-.174.377-.043.153-.065.34-.065.56 0 .217.02.4.065.553.043.152.102.275.175.37s.16.163.26.205.204.064.317.064c.114 0 .222-.02.324-.063s.19-.11.265-.204c.075-.095.134-.218.178-.37.043-.15.064-.336.064-.552zm4.302 3.744c0 .28-.04.53-.12.75-.08.22-.187.406-.32.558-.135.152-.29.268-.467.348-.176.08-.363.12-.56.12-.21 0-.403-.04-.58-.12-.177-.08-.33-.195-.46-.348-.132-.15-.234-.337-.31-.558-.073-.22-.11-.47-.11-.75 0-.286.037-.542.11-.767.075-.225.177-.414.31-.567.13-.153.284-.27.46-.35.177-.08.37-.12.58-.12.206 0 .4.04.58.12s.335.196.466.35.234.343.31.568c.073.226.112.482.112.768zm-.638 0c0-.22-.02-.407-.064-.563-.043-.154-.103-.28-.178-.377-.076-.097-.164-.167-.266-.21s-.21-.065-.323-.065c-.115 0-.222.022-.322.065s-.187.113-.26.21c-.075.097-.133.223-.174.377-.042.155-.063.343-.063.563 0 .217.022.4.064.55.042.15.1.273.173.368.074.095.16.163.26.205s.208.064.322.064c.113 0 .22-.02.322-.063s.19-.11.266-.204c.075-.095.134-.218.178-.367.042-.15.064-.335.064-.552z"/></g><g fill="#4E4E4E"><path d="M6.577 206.254H8.86v.756H6.576v-.756zM11.77 205.148c-.063.08-.12.16-.172.236l-.157.225c.158-.118.33-.208.52-.274.19-.064.396-.096.618-.096.268 0 .52.047.757.143.237.094.444.232.62.414.178.182.32.404.424.67s.156.568.156.908c0 .33-.056.637-.167.92s-.267.53-.465.74c-.198.21-.437.375-.716.494s-.587.18-.922.18c-.333 0-.634-.058-.905-.173s-.5-.28-.69-.49-.335-.47-.44-.77c-.102-.303-.153-.64-.153-1.014 0-.313.063-.646.19-1.002s.333-.733.613-1.136l1.682-2.445c.043-.062.102-.112.178-.153.075-.043.162-.063.26-.063h.73l-1.964 2.684zm-.902 2.272c0 .23.03.44.092.63s.152.353.27.49c.12.136.264.24.435.317.17.074.366.11.584.11.22 0 .422-.036.602-.114.18-.076.334-.182.462-.318.127-.137.226-.3.295-.486.068-.187.103-.39.103-.61 0-.232-.034-.443-.102-.633-.067-.188-.163-.348-.288-.48-.125-.13-.273-.232-.446-.303-.172-.068-.362-.104-.568-.104-.222 0-.422.04-.6.12-.18.083-.33.194-.455.33-.125.14-.22.3-.287.48-.065.183-.098.373-.098.57zM19.86 206.05c0 .626-.063 1.17-.187 1.628-.125.457-.295.836-.51 1.137-.216.3-.47.523-.765.67s-.61.22-.944.22c-.34 0-.654-.073-.945-.22-.292-.146-.545-.37-.76-.67-.216-.3-.386-.68-.51-1.137-.122-.46-.184-1.002-.184-1.63s.062-1.17.185-1.628c.124-.46.293-.842.51-1.143.215-.303.468-.525.76-.674.29-.146.605-.22.944-.22.335 0 .65.073.944.22.294.148.55.37.765.674.215.3.386.682.51 1.143.125.46.187 1.002.187 1.63zm-.854 0c0-.548-.042-1.007-.127-1.378-.086-.37-.2-.67-.343-.898-.143-.227-.31-.39-.497-.486s-.383-.148-.586-.148-.4.05-.586.148c-.188.098-.353.26-.495.486-.142.23-.254.527-.34.898-.083.37-.126.83-.126 1.377s.042 1.005.127 1.374c.085.37.198.668.34.896.14.227.306.39.494.486.188.098.383.148.586.148s.398-.05.586-.148.354-.26.497-.486c.143-.23.257-.525.342-.896.083-.37.126-.828.126-1.375zM23.314 204.195c0 .28-.04.53-.12.752-.08.22-.188.408-.32.56-.135.15-.29.267-.467.347-.177.08-.364.12-.562.12-.206 0-.398-.04-.577-.12s-.333-.195-.464-.346c-.13-.152-.233-.34-.307-.56-.074-.224-.11-.474-.11-.753 0-.287.036-.543.11-.766.074-.224.176-.413.307-.565.13-.154.286-.27.464-.352s.37-.12.577-.12c.21 0 .404.04.582.12.18.08.334.197.467.352.132.152.235.342.31.564.074.222.11.478.11.765zm2.342-1.58c.03-.04.067-.076.11-.105.04-.03.097-.045.167-.045h.596l-4.84 7.02c-.03.043-.064.078-.107.105-.043.025-.095.04-.157.04h-.605l4.836-7.015zm-2.98 1.58c0-.22-.02-.408-.063-.56-.043-.155-.103-.28-.178-.378-.076-.1-.164-.17-.266-.213s-.21-.066-.325-.066c-.114 0-.22.023-.318.066s-.185.113-.26.213c-.073.098-.13.223-.174.377-.043.152-.065.34-.065.56 0 .216.02.4.065.552.043.152.102.275.175.37.074.095.16.163.26.206.098.04.204.063.317.063.114 0 .222-.02.324-.063.1-.043.19-.11.265-.205.075-.096.134-.22.178-.37.043-.15.064-.337.064-.552zm4.302 3.744c0 .278-.04.528-.12.75s-.187.405-.32.556c-.135.152-.29.268-.467.348-.176.08-.363.12-.56.12-.21 0-.403-.04-.58-.12-.177-.08-.33-.195-.46-.348-.132-.15-.234-.336-.31-.557-.073-.222-.11-.472-.11-.75 0-.288.037-.544.11-.77.075-.224.177-.413.31-.567.13-.152.284-.27.46-.35.177-.08.37-.12.58-.12.206 0 .4.04.58.12s.335.197.466.35c.13.154.234.344.31.568.073.226.112.482.112.77zm-.638 0c0-.222-.02-.41-.064-.564-.043-.154-.103-.28-.178-.377-.076-.1-.164-.17-.266-.212s-.21-.064-.323-.064c-.115 0-.222.02-.322.064s-.188.114-.26.212c-.075.096-.133.223-.174.377s-.063.342-.063.563c0 .217.022.4.064.55.042.15.1.272.173.368.074.094.16.162.26.205.1.04.208.063.322.063.113 0 .22-.02.322-.063.102-.043.19-.11.266-.205.075-.096.134-.22.178-.367.042-.15.064-.334.064-.55z"/></g><g fill="#4E4E4E"><path d="M6.577 178.254H8.86v.755H6.576v-.756zM13.672 179.044h1.002v.51c0 .054-.015.1-.043.135-.028.036-.074.055-.136.055h-.822v1.885h-.72v-1.885h-2.94c-.06 0-.114-.02-.158-.058-.045-.038-.073-.086-.085-.143l-.084-.455 3.22-4.626h.766v4.58zm-.72-2.955c0-.088 0-.182.006-.283.005-.102.015-.206.03-.313l-2.41 3.55h2.373v-2.955zM19.86 178.05c0 .626-.063 1.168-.187 1.627-.125.458-.295.837-.51 1.137-.216.3-.47.523-.765.67-.294.147-.61.22-.944.22-.34 0-.654-.072-.945-.22-.292-.146-.545-.37-.76-.67-.216-.3-.386-.68-.51-1.137-.122-.46-.184-1-.184-1.628s.062-1.17.185-1.63.293-.842.51-1.144c.215-.302.468-.525.76-.673.29-.146.605-.22.944-.22.335 0 .65.073.944.22.294.147.55.37.765.673.215.302.386.683.51 1.143s.187 1.002.187 1.63zm-.854 0c0-.548-.042-1.007-.127-1.378-.086-.372-.2-.67-.343-.898-.143-.227-.31-.39-.497-.487-.188-.098-.383-.147-.586-.147s-.4.05-.586.147c-.188.1-.353.26-.495.487-.142.228-.254.526-.34.898-.083.37-.126.83-.126 1.377s.042 1.004.127 1.374c.085.37.198.668.34.896.14.227.306.39.494.487.188.098.383.147.586.147s.398-.05.586-.147c.188-.1.354-.26.497-.487.143-.228.257-.525.342-.896.083-.37.126-.828.126-1.375zM23.314 176.194c0 .28-.04.53-.12.752-.08.222-.188.408-.32.56-.135.152-.29.268-.467.348-.177.08-.364.12-.562.12-.206 0-.398-.04-.577-.12s-.333-.195-.464-.347c-.13-.152-.233-.34-.307-.56-.074-.223-.11-.474-.11-.753 0-.287.036-.542.11-.766.074-.223.176-.41.307-.564s.286-.27.464-.35.37-.12.577-.12c.21 0 .404.04.582.12.18.08.334.196.467.35.132.153.235.342.31.564.074.224.11.48.11.766zm2.342-1.58c.03-.04.067-.075.11-.105.04-.03.097-.046.167-.046h.596l-4.84 7.02c-.03.044-.064.08-.107.105-.043.025-.095.04-.157.04h-.605l4.836-7.016zm-2.98 1.58c0-.22-.02-.407-.063-.56-.043-.154-.103-.28-.178-.378-.076-.1-.164-.17-.266-.213s-.21-.065-.325-.065c-.114 0-.22.022-.318.065s-.185.114-.26.213c-.073.098-.13.224-.174.377-.043.153-.065.34-.065.56 0 .217.02.4.065.553.043.152.102.275.175.37s.16.163.26.205.204.064.317.064c.114 0 .222-.02.324-.063s.19-.11.265-.204c.075-.095.134-.218.178-.37.043-.15.064-.336.064-.552zm4.302 3.744c0 .28-.04.53-.12.75-.08.22-.187.406-.32.558-.135.152-.29.268-.467.348-.176.08-.363.12-.56.12-.21 0-.403-.04-.58-.12-.177-.08-.33-.195-.46-.348-.132-.15-.234-.337-.31-.558-.073-.22-.11-.47-.11-.75 0-.286.037-.542.11-.767.075-.225.177-.414.31-.567.13-.153.284-.27.46-.35.177-.08.37-.12.58-.12.206 0 .4.04.58.12s.335.196.466.35.234.343.31.568c.073.226.112.482.112.768zm-.638 0c0-.22-.02-.407-.064-.563-.043-.154-.103-.28-.178-.377-.076-.097-.164-.167-.266-.21s-.21-.065-.323-.065c-.115 0-.222.022-.322.065s-.187.113-.26.21c-.075.097-.133.223-.174.377-.042.155-.063.343-.063.563 0 .217.022.4.064.55.042.15.1.273.173.368.074.095.16.163.26.205s.208.064.322.064c.113 0 .22-.02.322-.063s.19-.11.266-.204c.075-.095.134-.218.178-.367.042-.15.064-.335.064-.552z"/></g><g fill="#4E4E4E"><path d="M6.577 150.254H8.86v.755H6.576v-.756zM12.31 146.384c.28 0 .54.045.784.135.243.09.454.22.633.392.18.172.32.38.42.628.102.246.152.526.152.84 0 .267-.038.515-.112.742-.074.23-.174.446-.3.652-.126.207-.27.41-.437.605-.164.195-.338.394-.523.594l-1.746 1.93c.124-.036.25-.065.375-.087.126-.02.248-.032.365-.032h2.217c.09 0 .16.028.212.085s.078.13.078.22v.54h-4.416v-.305c0-.063.012-.13.037-.195.023-.066.062-.128.114-.185l2.12-2.306c.175-.194.335-.38.48-.56.145-.177.268-.356.37-.536.102-.18.18-.362.235-.548.054-.185.082-.382.082-.592s-.03-.395-.092-.553-.146-.288-.252-.392c-.106-.104-.23-.18-.376-.232-.145-.052-.3-.078-.467-.078-.17 0-.325.027-.466.08-.143.054-.268.128-.377.223-.11.097-.2.21-.275.34s-.126.272-.157.43c-.036.116-.086.193-.15.23-.062.04-.15.05-.265.034l-.43-.08c.043-.327.127-.616.252-.868.125-.25.282-.462.47-.632s.407-.3.65-.388c.246-.088.51-.132.792-.132zM19.86 150.05c0 .626-.063 1.168-.187 1.627-.125.458-.295.837-.51 1.137-.216.3-.47.523-.765.67-.294.147-.61.22-.944.22-.34 0-.654-.072-.945-.22-.292-.146-.545-.37-.76-.67-.216-.3-.386-.68-.51-1.137-.122-.46-.184-1-.184-1.628s.062-1.17.185-1.63.293-.842.51-1.144c.215-.302.468-.525.76-.673.29-.146.605-.22.944-.22.335 0 .65.073.944.22.294.147.55.37.765.673.215.302.386.683.51 1.143s.187 1.002.187 1.63zm-.854 0c0-.548-.042-1.007-.127-1.378-.086-.372-.2-.67-.343-.898-.143-.227-.31-.39-.497-.487-.188-.098-.383-.147-.586-.147s-.4.05-.586.147c-.188.1-.353.26-.495.487-.142.228-.254.526-.34.898-.083.37-.126.83-.126 1.377s.042 1.004.127 1.374c.085.37.198.668.34.896.14.227.306.39.494.487.188.098.383.147.586.147s.398-.05.586-.147c.188-.1.354-.26.497-.487.143-.228.257-.525.342-.896.083-.37.126-.828.126-1.375zM23.314 148.194c0 .28-.04.53-.12.752-.08.222-.188.408-.32.56-.135.152-.29.268-.467.348-.177.08-.364.12-.562.12-.206 0-.398-.04-.577-.12s-.333-.195-.464-.347c-.13-.152-.233-.34-.307-.56-.074-.223-.11-.474-.11-.753 0-.287.036-.542.11-.766.074-.223.176-.41.307-.564s.286-.27.464-.35.37-.12.577-.12c.21 0 .404.04.582.12.18.08.334.196.467.35.132.153.235.342.31.564.074.224.11.48.11.766zm2.342-1.58c.03-.04.067-.075.11-.105.04-.03.097-.046.167-.046h.596l-4.84 7.02c-.03.044-.064.08-.107.105-.043.025-.095.04-.157.04h-.605l4.836-7.016zm-2.98 1.58c0-.22-.02-.407-.063-.56-.043-.154-.103-.28-.178-.378-.076-.1-.164-.17-.266-.213s-.21-.065-.325-.065c-.114 0-.22.022-.318.065s-.185.114-.26.213c-.073.098-.13.224-.174.377-.043.153-.065.34-.065.56 0 .217.02.4.065.553.043.152.102.275.175.37s.16.163.26.205.204.064.317.064c.114 0 .222-.02.324-.063s.19-.11.265-.204c.075-.095.134-.218.178-.37.043-.15.064-.336.064-.552zm4.302 3.744c0 .28-.04.53-.12.75-.08.22-.187.406-.32.558-.135.152-.29.268-.467.348-.176.08-.363.12-.56.12-.21 0-.403-.04-.58-.12-.177-.08-.33-.195-.46-.348-.132-.15-.234-.337-.31-.558-.073-.22-.11-.47-.11-.75 0-.286.037-.542.11-.767.075-.225.177-.414.31-.567.13-.153.284-.27.46-.35.177-.08.37-.12.58-.12.206 0 .4.04.58.12s.335.196.466.35.234.343.31.568c.073.226.112.482.112.768zm-.638 0c0-.22-.02-.407-.064-.563-.043-.154-.103-.28-.178-.377-.076-.097-.164-.167-.266-.21s-.21-.065-.323-.065c-.115 0-.222.022-.322.065s-.187.113-.26.21c-.075.097-.133.223-.174.377-.042.155-.063.343-.063.563 0 .217.022.4.064.55.042.15.1.273.173.368.074.095.16.163.26.205s.208.064.322.064c.113 0 .22-.02.322-.063s.19-.11.266-.204c.075-.095.134-.218.178-.367.042-.15.064-.335.064-.552z"/></g><g fill="#4E4E4E"><path d="M19.86 122.05c0 .626-.063 1.168-.187 1.627-.125.458-.295.837-.51 1.137-.216.3-.47.523-.765.67-.294.147-.61.22-.944.22-.34 0-.654-.072-.945-.22-.292-.146-.545-.37-.76-.67-.216-.3-.386-.68-.51-1.137-.122-.46-.184-1-.184-1.628s.062-1.17.185-1.63.293-.842.51-1.144c.215-.302.468-.525.76-.673.29-.146.605-.22.944-.22.335 0 .65.073.944.22.294.147.55.37.765.673.215.302.386.683.51 1.143s.187 1.002.187 1.63zm-.854 0c0-.548-.042-1.007-.127-1.378-.086-.372-.2-.67-.343-.898-.143-.227-.31-.39-.497-.487-.188-.098-.383-.147-.586-.147s-.4.05-.586.147c-.188.1-.353.26-.495.487-.142.228-.254.526-.34.898-.083.37-.126.83-.126 1.377s.042 1.004.127 1.374c.085.37.198.668.34.896.14.227.306.39.494.487.188.098.383.147.586.147s.398-.05.586-.147c.188-.1.354-.26.497-.487.143-.228.257-.525.342-.896.083-.37.126-.828.126-1.375zM23.314 120.195c0 .28-.04.53-.12.752-.08.222-.188.408-.32.56-.135.152-.29.268-.467.348-.177.08-.364.12-.562.12-.206 0-.398-.04-.577-.12s-.333-.195-.464-.347c-.13-.152-.233-.34-.307-.56-.074-.223-.11-.474-.11-.753 0-.287.036-.542.11-.766.074-.224.176-.412.307-.565s.286-.27.464-.35.37-.12.577-.12c.21 0 .404.04.582.12.18.08.334.196.467.35.132.153.235.342.31.564.074.223.11.478.11.765zm2.342-1.58c.03-.04.067-.075.11-.105.04-.03.097-.045.167-.045h.596l-4.84 7.02c-.03.044-.064.08-.107.105-.043.026-.095.04-.157.04h-.605l4.836-7.015zm-2.98 1.58c0-.22-.02-.407-.063-.56-.043-.154-.103-.28-.178-.378-.076-.1-.164-.17-.266-.213s-.21-.065-.325-.065c-.114 0-.22.02-.318.064s-.185.114-.26.213c-.073.098-.13.224-.174.377-.043.153-.065.34-.065.56 0 .217.02.4.065.553.043.152.102.275.175.37s.16.163.26.205.204.063.317.063c.114 0 .222-.02.324-.063s.19-.11.265-.205c.075-.095.134-.218.178-.37.043-.152.064-.336.064-.552zm4.302 3.744c0 .28-.04.53-.12.75-.08.22-.187.405-.32.557-.135.152-.29.268-.467.348-.176.08-.363.12-.56.12-.21 0-.403-.04-.58-.12-.177-.08-.33-.195-.46-.348-.132-.15-.234-.337-.31-.558-.073-.22-.11-.47-.11-.75 0-.287.037-.543.11-.768.075-.226.177-.415.31-.568.13-.153.284-.27.46-.35.177-.08.37-.12.58-.12.206 0 .4.04.58.12s.335.196.466.35.234.343.31.568c.073.225.112.48.112.767zm-.638 0c0-.22-.02-.408-.064-.564-.043-.154-.103-.28-.178-.377-.076-.098-.164-.168-.266-.21s-.21-.066-.323-.066c-.115 0-.222.022-.322.065s-.188.113-.26.21c-.075.097-.133.223-.174.377-.042.155-.063.343-.063.563 0 .217.022.4.064.55.042.15.1.273.173.368.074.095.16.163.26.205s.208.063.322.063c.113 0 .22-.02.322-.063s.19-.11.266-.205c.075-.095.134-.218.178-.367.042-.15.064-.334.064-.55z"/></g><g fill="#4E4E4E"><path d="M11.736 90.384c.28 0 .542.045.785.135.244.09.455.22.634.392.18.172.32.38.42.628.102.246.152.526.152.84 0 .267-.037.515-.11.742-.075.23-.175.446-.3.652-.127.207-.272.41-.438.605-.165.195-.34.394-.524.594l-1.746 1.93c.123-.036.248-.065.374-.087.126-.02.248-.032.365-.032h2.217c.09 0 .16.028.212.085s.08.13.08.22v.54H9.44v-.305c0-.063.013-.13.038-.195.024-.066.063-.128.115-.185l2.12-2.306c.175-.194.335-.38.48-.56.145-.177.268-.356.37-.536.102-.18.18-.362.235-.548.055-.185.083-.382.083-.592s-.03-.395-.09-.553-.147-.288-.253-.392c-.106-.104-.23-.18-.376-.232-.144-.052-.3-.078-.466-.078-.17 0-.325.027-.466.08-.142.054-.267.128-.376.223-.11.097-.2.21-.275.34s-.126.272-.157.43c-.037.116-.087.193-.15.23-.063.04-.152.05-.266.034l-.43-.08c.043-.327.127-.616.252-.868.125-.25.282-.462.47-.632s.407-.3.65-.388c.244-.088.507-.132.79-.132zM19.288 94.05c0 .626-.063 1.168-.187 1.627-.124.458-.294.837-.51 1.137-.215.3-.47.523-.764.67-.294.147-.61.22-.944.22-.34 0-.654-.072-.945-.22-.29-.146-.544-.37-.76-.67-.215-.3-.385-.68-.508-1.137-.124-.46-.186-1-.186-1.628s.062-1.17.185-1.63.29-.842.507-1.144c.216-.302.47-.525.76-.673.29-.146.606-.22.945-.22.335 0 .65.073.944.22.294.147.55.37.765.673.216.302.387.683.51 1.143s.188 1.002.188 1.63zm-.855 0c0-.548-.042-1.007-.127-1.378-.085-.372-.2-.67-.342-.898-.143-.227-.31-.39-.497-.487-.188-.098-.383-.147-.586-.147s-.398.05-.585.147c-.188.1-.353.26-.495.487-.142.228-.254.526-.34.898-.083.37-.126.83-.126 1.377s.042 1.004.127 1.374c.086.37.2.668.34.896.142.227.307.39.495.487.188.098.383.147.586.147s.4-.05.587-.147c.188-.1.354-.26.497-.487.143-.228.257-.525.342-.896.085-.37.127-.828.127-1.375zM23.315 92.194c0 .28-.04.53-.12.752-.08.222-.188.408-.32.56-.135.152-.29.268-.467.348-.177.08-.364.12-.562.12-.206 0-.398-.04-.577-.12s-.334-.195-.465-.347c-.13-.152-.233-.34-.307-.56-.074-.223-.11-.474-.11-.753 0-.287.036-.542.11-.766.074-.223.176-.41.307-.564s.286-.27.464-.35.37-.12.576-.12c.21 0 .404.04.582.12.18.08.334.196.467.35.132.153.235.342.31.564.073.224.11.48.11.766zm2.342-1.58c.03-.04.067-.075.11-.105.04-.03.097-.046.167-.046h.596l-4.84 7.02c-.028.044-.063.08-.106.105-.043.025-.095.04-.157.04h-.605l4.835-7.016zm-2.98 1.58c0-.22-.02-.407-.063-.56-.043-.154-.103-.28-.178-.378-.076-.1-.164-.17-.266-.213s-.21-.065-.324-.065c-.114 0-.22.022-.318.065s-.185.114-.26.213c-.073.098-.13.224-.174.377-.043.153-.065.34-.065.56 0 .217.02.4.064.553.043.152.102.275.175.37s.16.163.258.205.205.064.318.064c.114 0 .222-.02.324-.063s.19-.11.266-.204c.075-.095.134-.218.178-.37.042-.15.064-.336.064-.552zm4.3 3.744c0 .28-.04.53-.12.75-.08.22-.186.406-.32.558-.134.152-.29.268-.466.348-.176.08-.363.12-.56.12-.21 0-.403-.04-.58-.12-.177-.08-.33-.195-.46-.348-.132-.15-.234-.337-.31-.558-.073-.22-.11-.47-.11-.75 0-.286.037-.542.11-.767.075-.225.177-.414.31-.567.13-.153.284-.27.46-.35.177-.08.37-.12.58-.12.206 0 .4.04.58.12s.335.196.466.35.234.343.31.568c.074.226.112.482.112.768zm-.637 0c0-.22-.02-.407-.064-.563-.043-.154-.103-.28-.178-.377-.076-.097-.164-.167-.266-.21s-.21-.065-.323-.065c-.115 0-.222.022-.322.065s-.187.113-.26.21c-.075.097-.133.223-.174.377-.042.155-.063.343-.063.563 0 .217.022.4.064.55.042.15.1.273.173.368.074.095.16.163.26.205s.208.064.322.064c.113 0 .22-.02.322-.063s.19-.11.266-.204c.075-.095.134-.218.178-.367.043-.15.064-.335.064-.552z"/></g><g fill="#4E4E4E"><path d="M13.1 67.044h1v.51c0 .054-.014.1-.042.135-.03.036-.075.055-.137.055h-.82v1.885h-.722v-1.885H9.44c-.06 0-.114-.02-.158-.058-.045-.038-.073-.086-.085-.143l-.083-.455 3.22-4.626h.766v4.58zm-.722-2.955c0-.088.002-.182.007-.283.005-.102.015-.206.03-.313l-2.41 3.55h2.373V64.09zM19.288 66.05c0 .626-.063 1.168-.187 1.627-.124.458-.294.837-.51 1.137-.215.3-.47.523-.764.67-.294.147-.61.22-.944.22-.34 0-.654-.072-.945-.22-.29-.146-.544-.37-.76-.67-.215-.3-.385-.68-.508-1.137-.124-.46-.186-1-.186-1.628s.062-1.17.185-1.63.29-.842.507-1.144c.216-.302.47-.525.76-.673.29-.146.606-.22.945-.22.335 0 .65.073.944.22.294.147.55.37.765.673.216.302.387.683.51 1.143s.188 1.002.188 1.63zm-.855 0c0-.548-.042-1.007-.127-1.378-.085-.372-.2-.67-.342-.898-.143-.227-.31-.39-.497-.487-.188-.098-.383-.147-.586-.147s-.398.05-.585.147c-.188.1-.353.26-.495.487-.142.228-.254.526-.34.898-.083.37-.126.83-.126 1.377s.042 1.004.127 1.374c.086.37.2.668.34.896.142.227.307.39.495.487.188.098.383.147.586.147s.4-.05.587-.147c.188-.1.354-.26.497-.487.143-.228.257-.525.342-.896.085-.37.127-.828.127-1.375zM23.315 64.194c0 .28-.04.53-.12.752-.08.222-.188.408-.32.56-.135.152-.29.268-.467.348-.177.08-.364.12-.562.12-.206 0-.398-.04-.577-.12s-.334-.195-.465-.347c-.13-.152-.233-.34-.307-.56-.074-.223-.11-.474-.11-.753 0-.287.036-.542.11-.766.074-.223.176-.41.307-.564s.286-.27.464-.35.37-.12.576-.12c.21 0 .404.04.582.12.18.08.334.196.467.35.132.153.235.342.31.564.073.224.11.48.11.766zm2.342-1.58c.03-.04.067-.075.11-.105.04-.03.097-.046.167-.046h.596l-4.84 7.02c-.028.044-.063.08-.106.105-.043.025-.095.04-.157.04h-.605l4.835-7.016zm-2.98 1.58c0-.22-.02-.407-.063-.56-.043-.154-.103-.28-.178-.378-.076-.1-.164-.17-.266-.213s-.21-.065-.324-.065c-.114 0-.22.022-.318.065s-.185.114-.26.213c-.073.098-.13.224-.174.377-.043.153-.065.34-.065.56 0 .217.02.4.064.553.043.152.102.275.175.37s.16.163.258.205.205.064.318.064c.114 0 .222-.02.324-.063s.19-.11.266-.204c.075-.095.134-.218.178-.37.042-.15.064-.336.064-.552zm4.3 3.744c0 .28-.04.53-.12.75-.08.22-.186.406-.32.558-.134.152-.29.268-.466.348-.176.08-.363.12-.56.12-.21 0-.403-.04-.58-.12-.177-.08-.33-.195-.46-.348-.132-.15-.234-.337-.31-.558-.073-.22-.11-.47-.11-.75 0-.286.037-.542.11-.767.075-.225.177-.414.31-.567.13-.153.284-.27.46-.35.177-.08.37-.12.58-.12.206 0 .4.04.58.12s.335.196.466.35.234.343.31.568c.074.226.112.482.112.768zm-.637 0c0-.22-.02-.407-.064-.563-.043-.154-.103-.28-.178-.377-.076-.097-.164-.167-.266-.21s-.21-.065-.323-.065c-.115 0-.222.022-.322.065s-.187.113-.26.21c-.075.097-.133.223-.174.377-.042.155-.063.343-.063.563 0 .217.022.4.064.55.042.15.1.273.173.368.074.095.16.163.26.205s.208.064.322.064c.113 0 .22-.02.322-.063s.19-.11.266-.204c.075-.095.134-.218.178-.367.043-.15.064-.335.064-.552z"/></g><g fill="#4E4E4E"><path d="M11.196 37.15c-.062.08-.12.158-.17.234l-.158.226c.157-.117.33-.208.52-.273.19-.064.395-.097.617-.097.268 0 .52.047.757.143.237.095.444.233.62.415.178.182.32.404.424.67.104.265.157.567.157.907 0 .33-.056.637-.167.92s-.266.53-.464.74c-.198.21-.437.375-.716.495-.28.12-.586.18-.92.18-.334 0-.635-.058-.906-.173-.27-.114-.5-.278-.69-.49-.19-.21-.335-.468-.44-.77-.102-.302-.153-.64-.153-1.013 0-.313.063-.647.19-1.002.13-.355.333-.734.613-1.138l1.682-2.445c.043-.06.102-.11.178-.153.075-.042.162-.063.26-.063h.73l-1.964 2.685zm-.9 2.27c0 .228.03.44.09.63.063.19.153.353.272.49.118.136.263.24.434.316s.366.112.584.112c.222 0 .423-.038.603-.115.18-.076.333-.183.46-.32.128-.136.227-.298.296-.484s.104-.39.104-.61c0-.233-.034-.444-.102-.633-.068-.188-.164-.35-.29-.48-.124-.132-.272-.232-.445-.303-.172-.07-.362-.104-.568-.104-.222 0-.422.04-.6.122-.18.082-.33.192-.455.33-.125.14-.22.3-.287.48-.064.182-.098.37-.098.567zM19.288 38.05c0 .626-.063 1.168-.187 1.627-.124.458-.294.837-.51 1.137-.215.3-.47.523-.764.67-.294.147-.61.22-.944.22-.34 0-.654-.072-.945-.22-.29-.146-.544-.37-.76-.67-.215-.3-.385-.68-.508-1.137-.124-.46-.186-1-.186-1.628s.062-1.17.185-1.63.29-.842.507-1.144c.216-.302.47-.525.76-.673.29-.146.606-.22.945-.22.335 0 .65.073.944.22.294.147.55.37.765.673.216.302.387.683.51 1.143s.188 1.002.188 1.63zm-.855 0c0-.548-.042-1.007-.127-1.378-.085-.372-.2-.67-.342-.898-.143-.227-.31-.39-.497-.487-.188-.098-.383-.147-.586-.147s-.398.05-.585.147c-.188.1-.353.26-.495.487-.142.228-.254.526-.34.898-.083.37-.126.83-.126 1.377s.042 1.004.127 1.374c.086.37.2.668.34.896.142.227.307.39.495.487.188.098.383.147.586.147s.4-.05.587-.147c.188-.1.354-.26.497-.487.143-.228.257-.525.342-.896.085-.37.127-.828.127-1.375zM23.315 36.195c0 .28-.04.53-.12.752-.08.222-.188.408-.32.56-.135.152-.29.268-.467.348-.177.08-.364.12-.562.12-.206 0-.398-.04-.577-.12s-.334-.195-.465-.347c-.13-.152-.233-.34-.307-.56-.074-.223-.11-.474-.11-.753 0-.287.036-.542.11-.766.074-.224.176-.412.307-.565s.286-.27.464-.35.37-.12.576-.12c.21 0 .404.04.582.12.18.08.334.196.467.35.132.153.235.342.31.564.073.223.11.478.11.765zm2.342-1.58c.03-.04.067-.075.11-.105.04-.03.097-.045.167-.045h.596l-4.84 7.02c-.028.044-.063.08-.106.105-.043.026-.095.04-.157.04h-.605l4.835-7.015zm-2.98 1.58c0-.22-.02-.407-.063-.56-.043-.154-.103-.28-.178-.378-.076-.1-.164-.17-.266-.213s-.21-.065-.324-.065c-.114 0-.22.02-.318.064s-.185.114-.26.213c-.073.098-.13.224-.174.377-.043.153-.065.34-.065.56 0 .217.02.4.064.553.043.152.102.275.175.37s.16.163.258.205.205.063.318.063c.114 0 .222-.02.324-.063s.19-.11.266-.205c.075-.095.134-.218.178-.37.042-.152.064-.336.064-.552zm4.3 3.744c0 .28-.04.53-.12.75-.08.22-.186.405-.32.557-.134.152-.29.268-.466.348-.176.08-.363.12-.56.12-.21 0-.403-.04-.58-.12-.177-.08-.33-.195-.46-.348-.132-.15-.234-.337-.31-.558-.073-.22-.11-.47-.11-.75 0-.287.037-.543.11-.768.075-.226.177-.415.31-.568.13-.153.284-.27.46-.35.177-.08.37-.12.58-.12.206 0 .4.04.58.12s.335.196.466.35.234.343.31.568c.074.225.112.48.112.767zm-.637 0c0-.22-.02-.408-.064-.564-.043-.154-.103-.28-.178-.377-.076-.098-.164-.168-.266-.21s-.21-.066-.323-.066c-.115 0-.222.022-.322.065s-.187.112-.26.21c-.075.096-.133.222-.174.376-.042.155-.063.343-.063.563 0 .216.022.4.064.55.042.15.1.272.173.367.074.095.16.163.26.205s.208.063.322.063c.113 0 .22-.02.322-.063s.19-.11.266-.205c.075-.095.134-.218.178-.367.043-.15.064-.334.064-.55z"/></g><g fill="#4E4E4E"><path d="M11.686 13.71c-.33 0-.63-.05-.905-.144s-.508-.23-.706-.407-.35-.392-.457-.644c-.108-.252-.162-.534-.162-.848 0-.46.11-.84.333-1.138.222-.298.54-.51.95-.638-.347-.14-.61-.35-.787-.627-.176-.277-.264-.61-.264-.996 0-.264.048-.51.144-.74.095-.23.23-.43.406-.6.176-.17.386-.304.63-.4.245-.097.518-.146.82-.146.3 0 .57.05.818.146.246.097.457.23.632.4.176.17.31.37.407.6.095.23.143.477.143.74 0 .386-.09.72-.268.997-.178.278-.44.487-.785.627.413.127.73.34.952.638.222.3.333.678.333 1.138 0 .313-.055.596-.164.848s-.262.466-.457.643c-.196.178-.43.314-.705.408s-.577.14-.906.14zm0-.71c.216 0 .41-.033.58-.1s.316-.155.435-.274c.12-.118.21-.26.273-.425.063-.164.095-.347.095-.546 0-.247-.038-.458-.113-.633-.076-.174-.177-.316-.305-.427-.127-.11-.274-.19-.44-.242-.167-.05-.34-.077-.523-.077s-.355.026-.522.078c-.166.053-.313.134-.44.243-.13.11-.23.253-.306.428-.077.176-.114.387-.114.634 0 .2.032.382.095.547s.155.308.273.426c.12.12.263.21.434.275s.363.1.58.1zm0-3.44c.216 0 .4-.036.552-.108.152-.07.276-.166.372-.285.095-.118.165-.254.208-.407.043-.153.064-.312.064-.475 0-.167-.025-.323-.076-.47-.05-.147-.126-.275-.226-.386-.1-.11-.225-.197-.375-.26s-.322-.096-.52-.096c-.197 0-.37.03-.52.095s-.274.15-.374.26c-.1.11-.175.237-.226.384-.05.147-.076.304-.076.47 0 .164.02.322.065.476.043.153.112.29.208.407.097.12.22.214.373.285.153.07.337.107.553.107zM19.288 10.05c0 .626-.063 1.168-.187 1.627-.124.458-.294.837-.51 1.137-.215.3-.47.523-.764.67-.294.147-.61.22-.944.22-.34 0-.654-.072-.945-.22-.29-.146-.544-.37-.76-.67-.215-.3-.385-.68-.508-1.137-.124-.46-.186-1-.186-1.628s.062-1.17.185-1.63.29-.842.507-1.144c.216-.302.47-.525.76-.673.29-.146.606-.22.945-.22.335 0 .65.073.944.22.294.147.55.37.765.673.216.302.387.683.51 1.143s.188 1.002.188 1.63zm-.855 0c0-.548-.042-1.007-.127-1.378-.085-.372-.2-.67-.342-.898-.143-.227-.31-.39-.497-.487-.188-.098-.383-.147-.586-.147s-.398.05-.585.147c-.188.1-.353.26-.495.487-.142.228-.254.526-.34.898-.083.37-.126.83-.126 1.377s.042 1.004.127 1.374c.086.37.2.668.34.896.142.227.307.39.495.487.188.098.383.147.586.147s.4-.05.587-.147c.188-.1.354-.26.497-.487.143-.228.257-.525.342-.896.085-.37.127-.828.127-1.375zM23.315 8.194c0 .28-.04.53-.12.752-.08.222-.188.408-.32.56-.135.152-.29.268-.467.348-.177.08-.364.12-.562.12-.206 0-.398-.04-.577-.12s-.334-.195-.465-.347c-.13-.152-.233-.34-.307-.56-.074-.223-.11-.474-.11-.753 0-.287.036-.542.11-.766.074-.223.176-.41.307-.564s.286-.27.464-.35.37-.12.576-.12c.21 0 .404.04.582.12.18.08.334.196.467.35.132.153.235.342.31.564.073.224.11.48.11.766zm2.342-1.58c.03-.04.067-.075.11-.105.04-.03.097-.046.167-.046h.596l-4.84 7.02c-.028.044-.063.08-.106.105-.043.025-.095.04-.157.04h-.605l4.835-7.016zm-2.98 1.58c0-.22-.02-.407-.063-.56-.043-.154-.103-.28-.178-.378-.076-.1-.164-.17-.266-.213s-.21-.065-.324-.065c-.114 0-.22.022-.318.065s-.185.114-.26.213c-.073.098-.13.224-.174.377-.043.153-.065.34-.065.56 0 .217.02.4.064.553.043.152.102.275.175.37s.16.163.258.205.205.064.318.064c.114 0 .222-.02.324-.063s.19-.11.266-.204c.075-.095.134-.218.178-.37.042-.15.064-.336.064-.552zm4.3 3.744c0 .28-.04.53-.12.75-.08.22-.186.406-.32.558-.134.152-.29.268-.466.348-.176.08-.363.12-.56.12-.21 0-.403-.04-.58-.12-.177-.08-.33-.195-.46-.348-.132-.15-.234-.337-.31-.558-.073-.22-.11-.47-.11-.75 0-.286.037-.542.11-.767.075-.225.177-.414.31-.567.13-.153.284-.27.46-.35.177-.08.37-.12.58-.12.206 0 .4.04.58.12s.335.196.466.35.234.343.31.568c.074.226.112.482.112.768zm-.637 0c0-.22-.02-.407-.064-.563-.043-.154-.103-.28-.178-.377-.076-.097-.164-.167-.266-.21s-.21-.065-.323-.065c-.115 0-.222.022-.322.065s-.187.113-.26.21c-.075.097-.133.223-.174.377-.042.155-.063.343-.063.563 0 .217.022.4.064.55.042.15.1.273.173.368.074.095.16.163.26.205s.208.064.322.064c.113 0 .22-.02.322-.063s.19-.11.266-.204c.075-.095.134-.218.178-.367.043-.15.064-.335.064-.552z"/></g><g fill="#4E4E4E"><path d="M24.504 247.823h1.577v-4.886c0-.14.006-.288.017-.444l-1.31 1.095c-.045.037-.09.06-.134.067-.044.01-.086.01-.124.003s-.074-.02-.106-.04c-.033-.02-.058-.042-.075-.065l-.29-.385 2.195-1.845H27v6.5h1.45v.68h-3.947v-.68zM32.873 245.647c.076-.096.146-.188.21-.274s.127-.174.186-.26c-.19.146-.402.258-.638.335-.236.076-.486.114-.75.114-.278 0-.54-.045-.79-.135-.247-.09-.466-.223-.654-.397-.188-.175-.338-.39-.45-.645s-.167-.548-.167-.878c0-.313.06-.606.18-.88.12-.273.29-.512.504-.715s.473-.363.77-.48c.3-.116.626-.175.982-.175.353 0 .673.057.96.17.288.113.535.27.74.476.206.203.364.446.475.73s.168.596.168.94c0 .205-.02.4-.06.586-.04.185-.095.366-.168.544-.074.18-.164.355-.27.53-.106.175-.226.354-.36.537l-1.792 2.522c-.044.063-.108.114-.19.152s-.176.058-.283.058h-.842l2.24-2.855zm.848-2.18c0-.222-.036-.425-.11-.606-.073-.18-.175-.335-.306-.462-.13-.126-.285-.224-.465-.292s-.378-.103-.594-.103c-.226 0-.432.036-.617.107-.186.072-.345.17-.48.298-.132.126-.235.278-.307.455s-.108.37-.108.58c0 .227.033.43.1.607.067.178.163.33.288.452s.278.217.458.28.382.095.605.095c.247 0 .465-.04.655-.117s.35-.183.48-.313.23-.28.298-.45c.07-.17.103-.346.103-.53zM40.22 241.338v.4c0 .113-.012.206-.038.28-.025.072-.05.135-.074.185l-3.052 5.984c-.044.087-.106.16-.185.223-.078.062-.182.093-.312.093H35.9l3.093-5.91c.044-.083.09-.16.136-.23.045-.07.098-.136.156-.2h-3.843c-.058 0-.11-.02-.154-.066s-.068-.096-.068-.152v-.605h5zM43.71 248.583c-.367 0-.703-.048-1.008-.143-.305-.095-.567-.23-.786-.407s-.39-.39-.51-.643c-.12-.252-.18-.534-.18-.848 0-.46.124-.84.37-1.138.248-.298.6-.51 1.06-.638-.387-.14-.68-.35-.876-.627-.197-.28-.295-.612-.295-1 0-.262.053-.51.16-.738.105-.23.256-.43.45-.6s.43-.304.702-.4c.272-.097.577-.146.912-.146.332 0 .634.05.91.146.273.097.508.23.703.4.195.17.346.37.452.6.106.23.16.477.16.74 0 .386-.1.72-.298.997s-.49.486-.874.626c.46.127.812.34 1.06.638.246.3.37.678.37 1.138 0 .313-.062.596-.184.848s-.292.466-.51.643c-.217.177-.48.313-.783.407-.306.095-.64.143-1.008.143zm0-.71c.24 0 .454-.032.644-.098s.35-.156.483-.275c.132-.118.233-.26.303-.425s.105-.348.105-.547c0-.247-.042-.458-.126-.633s-.198-.317-.34-.428c-.142-.11-.306-.19-.49-.242s-.38-.078-.582-.078-.396.026-.58.078-.35.133-.492.242c-.142.11-.255.253-.34.428s-.125.386-.125.633c0 .2.036.382.106.547.07.165.17.307.303.425.13.12.292.21.482.275.192.066.407.098.647.098zm0-3.44c.24 0 .443-.035.613-.107.17-.07.307-.166.414-.285.106-.117.183-.253.23-.406s.073-.312.073-.475c0-.168-.028-.324-.085-.472-.057-.146-.14-.274-.252-.385-.11-.11-.25-.196-.416-.26s-.36-.095-.578-.095-.413.03-.58.095c-.165.063-.304.15-.415.26-.11.11-.195.238-.252.385-.056.147-.084.304-.084.47 0 .164.023.322.07.476s.126.29.232.407c.106.12.244.215.414.286.17.07.373.107.613.107z"/></g><g fill="#4E4E4E"><path d="M85.685 247.823h1.577v-4.886c0-.14.005-.288.016-.444l-1.31 1.095c-.045.037-.09.06-.134.067-.044.01-.086.01-.124.003s-.073-.02-.105-.04c-.033-.02-.058-.042-.075-.065l-.288-.385 2.194-1.845h.745v6.5h1.45v.68h-3.946v-.68zM94.054 245.647c.076-.096.146-.188.21-.274s.127-.174.186-.26c-.188.146-.4.258-.637.335-.236.076-.486.114-.75.114-.278 0-.54-.045-.79-.135-.247-.09-.466-.223-.654-.397-.19-.175-.34-.39-.45-.645s-.168-.548-.168-.878c0-.313.06-.606.18-.88.12-.273.288-.512.503-.715s.473-.363.77-.48c.3-.116.626-.175.982-.175.353 0 .673.057.96.17.288.113.535.27.74.476.206.203.364.446.475.73s.167.596.167.94c0 .205-.02.4-.06.586-.04.185-.096.366-.17.544-.073.18-.163.355-.27.53-.105.175-.225.354-.358.537l-1.793 2.522c-.045.063-.11.114-.19.152s-.177.058-.284.058h-.842l2.24-2.855zm.848-2.18c0-.222-.037-.425-.11-.606-.074-.18-.176-.335-.307-.462-.13-.126-.285-.224-.465-.292s-.377-.103-.593-.103c-.226 0-.432.036-.617.107-.185.072-.344.17-.478.298-.133.126-.236.278-.308.455s-.108.37-.108.58c0 .227.033.43.1.607.067.178.163.33.288.452s.278.217.458.28.38.095.604.095c.247 0 .465-.04.655-.117s.35-.183.48-.313.23-.28.3-.45c.068-.17.102-.346.102-.53zM98.827 248.583c-.366 0-.702-.048-1.007-.143-.305-.095-.567-.23-.786-.407s-.39-.39-.51-.643c-.12-.252-.18-.534-.18-.848 0-.46.124-.84.37-1.138.248-.298.6-.51 1.06-.638-.387-.14-.68-.35-.876-.627-.197-.28-.295-.612-.295-1 0-.262.053-.51.16-.738.105-.23.256-.43.45-.6s.43-.304.702-.4c.272-.097.577-.146.912-.146.333 0 .635.05.91.146.274.097.51.23.704.4.196.17.347.37.453.6.106.23.16.477.16.74 0 .386-.1.72-.298.997s-.49.486-.874.626c.46.127.813.34 1.06.638.247.3.37.678.37 1.138 0 .313-.06.596-.183.848s-.29.466-.51.643c-.216.177-.478.313-.782.407-.306.095-.64.143-1.008.143zm0-.71c.24 0 .455-.032.645-.098s.35-.156.483-.275c.132-.118.233-.26.303-.425s.105-.348.105-.547c0-.247-.042-.458-.126-.633s-.197-.317-.34-.428c-.14-.11-.305-.19-.49-.242s-.378-.078-.58-.078-.397.026-.582.078-.35.133-.49.242c-.143.11-.256.253-.34.428s-.126.386-.126.633c0 .2.034.382.104.547.07.165.17.307.303.425.132.12.293.21.483.275.193.066.407.098.647.098zm0-3.44c.24 0 .444-.035.614-.107.17-.07.308-.166.415-.285.106-.117.183-.253.23-.406s.073-.312.073-.475c0-.168-.028-.324-.085-.472-.057-.146-.14-.274-.252-.385-.11-.11-.25-.196-.415-.26s-.36-.095-.578-.095-.412.03-.578.095c-.167.063-.306.15-.417.26-.11.11-.195.238-.252.385-.055.147-.083.304-.083.47 0 .164.024.322.072.476s.124.29.23.407c.106.12.244.215.414.286.17.07.373.107.613.107zM104.946 241.258c.312 0 .603.045.874.135.27.09.505.222.704.393.198.172.354.38.467.628.114.246.17.526.17.84 0 .267-.04.515-.123.742-.083.23-.194.446-.334.652-.14.207-.302.41-.486.605-.183.196-.377.395-.583.595l-1.942 1.93c.137-.036.276-.065.417-.087.14-.02.274-.03.405-.03h2.466c.1 0 .18.027.237.084s.087.13.087.22v.54h-4.912v-.305c0-.064.014-.13.04-.196s.07-.128.13-.185l2.357-2.307c.194-.193.373-.38.534-.558.16-.178.298-.357.41-.537.114-.18.2-.362.263-.548.062-.185.093-.382.093-.592s-.035-.395-.103-.553-.162-.29-.28-.393-.258-.18-.42-.232-.333-.078-.518-.078c-.19 0-.362.027-.52.08-.157.054-.297.128-.418.223-.122.096-.224.208-.306.338-.083.13-.14.273-.175.43-.04.117-.096.194-.166.232-.07.04-.17.05-.295.033l-.48-.08c.05-.327.143-.616.28-.868.14-.25.314-.462.525-.632.21-.17.45-.3.722-.388.27-.088.564-.132.88-.132z"/></g><g fill="#4E4E4E"><path d="M146.865 247.823h1.577v-4.886c0-.14.005-.288.016-.444l-1.31 1.095c-.045.037-.09.06-.134.067-.044.01-.086.01-.124.003s-.073-.02-.105-.04c-.033-.02-.058-.042-.075-.065l-.288-.385 2.194-1.845h.745v6.5h1.45v.68h-3.946v-.68zM155.234 245.647c.076-.096.146-.188.21-.274s.127-.174.186-.26c-.188.146-.4.258-.637.335-.236.076-.486.114-.75.114-.278 0-.54-.045-.79-.135-.247-.09-.466-.223-.654-.397-.19-.175-.34-.39-.45-.645s-.168-.548-.168-.878c0-.313.06-.606.18-.88.12-.273.288-.512.503-.715s.473-.363.77-.48c.3-.116.626-.175.982-.175.353 0 .673.057.96.17.288.113.535.27.74.476.206.203.364.446.475.73s.167.596.167.94c0 .205-.02.4-.06.586-.04.185-.096.366-.17.544-.073.18-.163.355-.27.53-.105.175-.225.354-.358.537l-1.793 2.522c-.045.063-.11.114-.19.152s-.177.058-.284.058h-.842l2.24-2.855zm.85-2.18c0-.222-.038-.425-.112-.606-.073-.18-.175-.335-.306-.462-.13-.126-.285-.224-.465-.292s-.376-.103-.592-.103c-.226 0-.432.036-.617.107-.184.072-.343.17-.477.298-.133.126-.236.278-.308.455s-.108.37-.108.58c0 .227.033.43.1.607.067.178.163.33.288.452s.278.217.458.28.38.095.604.095c.247 0 .465-.04.655-.117s.35-.183.48-.313.23-.28.298-.45c.068-.17.103-.346.103-.53zM160.008 248.583c-.366 0-.702-.048-1.007-.143-.304-.095-.566-.23-.785-.407s-.39-.39-.51-.643c-.12-.252-.18-.534-.18-.848 0-.46.124-.84.37-1.138.248-.298.6-.51 1.06-.638-.387-.14-.68-.35-.876-.627-.198-.28-.296-.612-.296-1 0-.262.053-.51.16-.738.105-.23.256-.43.45-.6s.43-.304.702-.4c.272-.097.577-.146.912-.146.333 0 .635.05.91.146.274.097.51.23.704.4.195.17.346.37.452.6.106.23.16.477.16.74 0 .386-.1.72-.298.997s-.49.486-.874.626c.46.127.812.34 1.06.638.246.3.37.678.37 1.138 0 .313-.062.596-.184.848s-.29.466-.51.643c-.216.177-.478.313-.782.407-.306.095-.64.143-1.008.143zm0-.71c.24 0 .455-.032.645-.098s.35-.156.483-.275c.132-.118.233-.26.303-.425s.104-.348.104-.547c0-.247-.042-.458-.126-.633s-.197-.317-.34-.428c-.14-.11-.305-.19-.49-.242s-.378-.078-.58-.078-.397.026-.582.078-.35.133-.49.242c-.143.11-.256.253-.34.428s-.126.386-.126.633c0 .2.035.382.105.547.07.165.17.307.303.425.132.12.293.21.483.275.193.066.408.098.648.098zm0-3.44c.24 0 .444-.035.614-.107.17-.07.307-.166.414-.285.106-.117.183-.253.23-.406s.073-.312.073-.475c0-.168-.03-.324-.086-.472-.057-.146-.14-.274-.252-.385-.11-.11-.25-.196-.416-.26s-.36-.095-.578-.095-.412.03-.578.095c-.166.063-.305.15-.416.26-.11.11-.195.238-.252.385-.056.147-.084.304-.084.47 0 .164.024.322.072.476s.125.29.23.407c.107.12.245.215.415.286.168.07.373.107.613.107zM165.526 244.022c-.07.08-.132.16-.19.235-.058.077-.116.15-.174.226.174-.117.367-.208.578-.273.21-.064.44-.097.686-.097.298 0 .58.047.843.143.263.095.493.233.69.415.197.183.354.405.47.67.117.266.175.568.175.908 0 .33-.062.637-.185.92-.123.283-.295.53-.516.74-.22.21-.487.375-.796.495-.31.12-.652.18-1.025.18-.37 0-.706-.058-1.007-.173-.302-.114-.558-.278-.768-.49-.21-.21-.374-.468-.488-.77s-.172-.64-.172-1.013c0-.313.07-.647.213-1.002s.37-.734.682-1.138l1.87-2.445c.05-.06.115-.11.2-.152s.18-.063.29-.063h.81l-2.186 2.685zm-1.002 2.27c0 .23.034.44.103.63.07.19.17.355.3.49s.294.243.484.318.408.112.65.112c.248 0 .47-.038.67-.115.202-.076.373-.183.515-.32s.25-.298.33-.484.115-.39.115-.61c0-.232-.038-.443-.113-.632-.075-.187-.182-.348-.32-.48s-.305-.23-.497-.302c-.192-.07-.402-.104-.632-.104-.247 0-.47.04-.668.122-.2.082-.367.192-.506.33-.14.14-.245.3-.32.48s-.11.37-.11.567z"/></g><g fill="#4E4E4E"><path d="M208.045 247.823h1.577v-4.886c0-.14.005-.288.016-.444l-1.31 1.095c-.045.037-.09.06-.134.067-.044.01-.086.01-.124.003s-.073-.02-.105-.04c-.033-.02-.058-.042-.075-.065l-.288-.385 2.194-1.845h.745v6.5h1.45v.68h-3.946v-.68zM216.415 245.647c.076-.096.146-.188.21-.274s.127-.174.186-.26c-.187.146-.4.258-.636.335-.236.076-.486.114-.75.114-.278 0-.54-.045-.79-.135-.247-.09-.466-.223-.654-.397-.188-.175-.338-.39-.45-.645s-.167-.548-.167-.878c0-.313.06-.606.18-.88.12-.273.288-.512.503-.715s.473-.363.77-.48c.3-.116.626-.175.982-.175.353 0 .673.057.96.17.288.113.535.27.74.476.206.203.364.446.475.73s.167.596.167.94c0 .205-.02.4-.06.586-.04.185-.095.366-.168.544-.074.18-.164.355-.27.53-.106.175-.226.354-.36.537l-1.792 2.522c-.044.063-.108.114-.19.152s-.176.058-.283.058h-.842l2.24-2.855zm.848-2.18c0-.222-.037-.425-.11-.606-.074-.18-.176-.335-.307-.462-.13-.126-.285-.224-.465-.292s-.376-.103-.592-.103c-.226 0-.432.036-.617.107-.184.072-.343.17-.477.298-.133.126-.236.278-.308.455s-.108.37-.108.58c0 .227.033.43.1.607.067.178.163.33.288.452s.278.217.458.28.38.095.604.095c.247 0 .465-.04.655-.117s.35-.183.48-.313.23-.28.298-.45c.07-.17.103-.346.103-.53zM221.8 245.647c.075-.096.145-.188.21-.274s.126-.174.185-.26c-.188.146-.4.258-.637.335-.236.076-.486.114-.75.114-.278 0-.54-.045-.79-.135-.247-.09-.466-.223-.654-.397-.188-.175-.338-.39-.45-.645s-.167-.548-.167-.878c0-.313.06-.606.18-.88.12-.273.288-.512.503-.715s.473-.363.77-.48c.3-.116.626-.175.982-.175.353 0 .673.057.96.17.288.113.535.27.74.476.206.203.364.446.475.73s.167.596.167.94c0 .205-.02.4-.06.586-.04.185-.095.366-.168.544-.074.18-.164.355-.27.53-.106.175-.226.354-.36.537l-1.792 2.522c-.044.063-.108.114-.19.152s-.176.058-.283.058h-.84l2.24-2.855zm.847-2.18c0-.222-.037-.425-.11-.606-.074-.18-.176-.335-.307-.462-.13-.126-.285-.224-.465-.292s-.377-.103-.593-.103c-.226 0-.432.036-.617.107-.185.072-.344.17-.478.298-.133.126-.236.278-.308.455s-.11.37-.11.58c0 .227.034.43.1.607.068.178.164.33.29.452s.277.217.457.28.38.095.604.095c.248 0 .466-.04.656-.117s.35-.183.48-.313.23-.28.298-.45c.07-.17.103-.346.103-.53zM229.922 244.923c0 .627-.07 1.17-.208 1.628-.14.46-.328.838-.568 1.138-.24.3-.523.523-.85.67-.327.147-.678.22-1.05.22-.378 0-.728-.072-1.052-.22-.324-.146-.605-.37-.845-.67-.24-.3-.43-.68-.566-1.137-.137-.458-.206-1-.206-1.627s.07-1.17.206-1.63c.137-.46.326-.84.565-1.143s.52-.525.844-.673c.324-.146.674-.22 1.05-.22.374 0 .725.073 1.052.22.327.147.61.37.85.673s.43.683.568 1.143.208 1.003.208 1.63zm-.95 0c0-.547-.047-1.006-.14-1.377-.095-.372-.222-.67-.38-.898-.16-.227-.344-.39-.553-.487-.21-.097-.427-.146-.653-.146s-.444.05-.653.147c-.21.1-.392.262-.55.488-.157.228-.283.526-.377.898-.094.37-.14.83-.14 1.377s.046 1.005.14 1.375.22.668.377.896c.158.227.34.39.55.487.21.1.427.148.653.148s.443-.05.652-.147c.208-.098.392-.26.55-.486.16-.228.287-.525.38-.896s.142-.828.142-1.375z"/></g><g fill="#4E4E4E"><path d="M269.226 247.823h1.577v-4.886c0-.14.005-.288.016-.444l-1.312 1.095c-.044.037-.09.06-.133.067-.044.01-.086.01-.124.003s-.072-.02-.104-.04c-.033-.02-.058-.042-.075-.065l-.287-.385 2.194-1.845h.745v6.5h1.45v.68h-3.947v-.68zM277.595 245.647c.076-.096.146-.188.21-.274s.127-.174.186-.26c-.187.146-.4.258-.636.335-.236.076-.486.114-.75.114-.278 0-.54-.045-.79-.135-.247-.09-.466-.223-.654-.397-.188-.175-.338-.39-.45-.645s-.167-.548-.167-.878c0-.313.06-.606.18-.88.12-.273.288-.512.503-.715s.473-.363.77-.48c.3-.116.626-.175.982-.175.353 0 .673.057.96.17.288.113.535.27.74.476.206.203.364.446.475.73s.167.596.167.94c0 .205-.02.4-.06.586-.04.185-.095.366-.168.544-.074.18-.164.355-.27.53-.106.175-.226.354-.36.537l-1.792 2.522c-.044.063-.108.114-.19.152s-.176.058-.283.058h-.842l2.24-2.855zm.848-2.18c0-.222-.037-.425-.11-.606-.074-.18-.176-.335-.307-.462-.13-.126-.285-.224-.465-.292s-.376-.103-.592-.103c-.226 0-.432.036-.617.107-.184.072-.343.17-.477.298-.133.126-.236.278-.308.455s-.108.37-.108.58c0 .227.033.43.1.607.067.178.163.33.288.452s.278.217.458.28.38.095.604.095c.247 0 .465-.04.655-.117s.35-.183.48-.313.23-.28.298-.45c.07-.17.103-.346.103-.53zM282.98 245.647l.21-.274s.126-.174.185-.26c-.188.146-.4.258-.637.335-.236.076-.486.114-.75.114-.277 0-.54-.045-.79-.135-.247-.09-.466-.223-.654-.397-.188-.175-.338-.39-.45-.645s-.167-.548-.167-.878c0-.313.06-.606.18-.88.12-.273.288-.512.503-.715s.473-.363.77-.48c.3-.116.626-.175.982-.175.353 0 .673.057.96.17.288.113.535.27.74.476.206.203.364.446.476.73s.167.596.167.94c0 .205-.02.4-.06.586-.04.185-.096.366-.17.544-.072.18-.162.355-.27.53-.105.175-.226.354-.36.537l-1.792 2.522c-.045.063-.107.114-.19.152s-.176.058-.282.058h-.84l2.24-2.855zm.848-2.18c0-.222-.037-.425-.11-.606-.074-.18-.177-.335-.307-.462-.13-.126-.284-.224-.464-.292s-.378-.103-.593-.103c-.227 0-.432.036-.617.107-.186.072-.344.17-.478.298-.133.126-.236.278-.308.455s-.108.37-.108.58c0 .227.033.43.1.607.067.178.163.33.288.452s.278.217.458.28.38.095.604.095c.246 0 .465-.04.655-.117s.35-.183.48-.313.23-.28.298-.45.103-.346.103-.53zM290.003 245.918h1.115v.51c0 .054-.016.1-.05.135-.032.037-.083.056-.15.056h-.915v1.884h-.8v-1.885h-3.27c-.068 0-.127-.02-.178-.06-.05-.037-.08-.085-.095-.142l-.093-.455 3.58-4.625h.855v4.58zm-.8-2.955c0-.087 0-.18.007-.282.004-.1.016-.205.033-.312l-2.683 3.55h2.642v-2.955z"/></g><g fill="#4E4E4E"><path d="M330.406 247.823h1.578v-4.886c0-.14.005-.288.015-.444l-1.31 1.095c-.046.037-.09.06-.135.067-.045.01-.086.01-.123.003-.038-.007-.073-.02-.105-.04-.033-.02-.058-.042-.074-.065l-.288-.385 2.193-1.845h.745v6.5h1.45v.68h-3.947v-.68zM338.776 245.647c.075-.096.146-.188.21-.274.065-.087.127-.174.186-.26-.188.146-.4.258-.638.335-.236.076-.486.114-.75.114-.277 0-.54-.045-.788-.135-.25-.09-.467-.223-.655-.397s-.338-.39-.45-.645-.166-.548-.166-.878c0-.313.06-.606.18-.88.12-.273.288-.512.504-.715s.473-.363.77-.48c.3-.116.627-.175.982-.175.354 0 .674.057.96.17.29.113.535.27.74.476.206.203.365.446.477.73s.167.596.167.94c0 .205-.02.4-.06.586-.04.185-.096.366-.17.544-.073.18-.163.355-.27.53s-.226.354-.36.537l-1.792 2.522c-.045.063-.108.114-.19.152s-.177.058-.282.058h-.843l2.24-2.855zm.848-2.18c0-.222-.037-.425-.11-.606-.074-.18-.176-.335-.306-.462-.13-.126-.285-.224-.465-.292-.18-.068-.378-.103-.594-.103-.228 0-.433.036-.618.107-.185.072-.344.17-.478.298-.134.126-.236.278-.31.455-.07.177-.106.37-.106.58 0 .227.033.43.1.607.067.178.163.33.288.452s.277.217.457.28c.18.063.382.095.604.095.246 0 .465-.04.655-.117.19-.078.35-.183.48-.313s.228-.28.298-.45c.07-.17.104-.346.104-.53zM344.16 245.647c.076-.096.147-.188.21-.274.066-.087.128-.174.187-.26-.188.146-.4.258-.638.335-.237.076-.487.114-.75.114-.278 0-.54-.045-.79-.135-.248-.09-.466-.223-.654-.397s-.34-.39-.45-.645-.167-.548-.167-.878c0-.313.06-.606.18-.88.12-.273.287-.512.503-.715s.473-.363.77-.48c.3-.116.627-.175.982-.175.354 0 .674.057.96.17.29.113.535.27.74.476.206.203.365.446.477.73s.167.596.167.94c0 .205-.022.4-.06.586-.04.185-.097.366-.17.544-.074.18-.164.355-.27.53s-.227.354-.36.537l-1.793 2.522c-.045.063-.108.114-.19.152s-.177.058-.282.058h-.843l2.24-2.855zm.85-2.18c0-.222-.038-.425-.11-.606-.075-.18-.177-.335-.307-.462-.13-.126-.285-.224-.465-.292-.18-.068-.378-.103-.594-.103-.227 0-.432.036-.617.107-.185.072-.344.17-.478.298-.135.126-.237.278-.31.455-.07.177-.107.37-.107.58 0 .227.033.43.1.607.067.178.163.33.288.452s.278.217.458.28c.18.063.382.095.604.095.246 0 .465-.04.655-.117.19-.078.35-.183.48-.313s.228-.28.298-.45c.07-.17.104-.346.104-.53zM349.612 248.583c-.367 0-.702-.048-1.008-.143-.305-.095-.566-.23-.786-.407-.22-.177-.39-.39-.508-.643-.12-.252-.18-.534-.18-.848 0-.46.123-.84.37-1.138.246-.298.6-.51 1.058-.638-.387-.14-.68-.35-.876-.627s-.296-.612-.296-1c0-.262.054-.51.16-.738.105-.23.257-.43.452-.6.194-.17.43-.304.7-.4s.577-.146.913-.146c.333 0 .636.05.91.146.273.097.51.23.704.4s.346.37.452.6c.105.23.16.477.16.74 0 .386-.1.72-.3.997-.198.277-.49.486-.873.626.46.127.813.34 1.06.638.246.3.37.678.37 1.138 0 .313-.062.596-.184.848s-.292.466-.51.643-.48.313-.783.407-.638.143-1.005.143zm0-.71c.24 0 .454-.032.645-.098s.35-.156.483-.275c.13-.118.232-.26.303-.425s.105-.348.105-.547c0-.247-.042-.458-.126-.633s-.197-.317-.34-.428c-.142-.11-.305-.19-.49-.242-.185-.052-.378-.078-.58-.078s-.396.026-.58.078-.35.133-.49.242c-.144.11-.257.253-.34.428s-.127.386-.127.633c0 .2.035.382.105.547s.172.307.304.425c.132.12.293.21.482.275.19.066.406.098.646.098zm0-3.44c.24 0 .444-.035.613-.107.17-.07.308-.166.414-.285.105-.117.183-.253.23-.406s.07-.312.07-.475c0-.168-.027-.324-.083-.472-.057-.146-.14-.274-.252-.385-.11-.11-.25-.196-.416-.26-.168-.063-.36-.095-.58-.095-.22 0-.41.03-.577.095s-.306.15-.416.26c-.11.11-.195.238-.252.385-.057.147-.085.304-.085.47 0 .164.023.322.072.476.048.153.125.29.23.407.106.12.244.215.414.286.172.07.376.107.616.107z"/></g><g fill="#4E4E4E"><path d="M393.338 241.258c.313 0 .604.045.875.135.27.09.504.222.703.393.2.172.355.38.47.628.11.246.167.526.167.84 0 .267-.04.515-.123.742-.082.23-.193.446-.334.652-.14.207-.303.41-.484.605-.184.196-.38.395-.584.595l-1.94 1.93c.136-.036.274-.065.415-.087s.275-.03.406-.03h2.464c.1 0 .178.027.236.084s.088.13.088.22v.54h-4.912v-.305c0-.064.014-.13.04-.196s.07-.128.13-.185l2.357-2.307c.195-.193.373-.38.535-.558.16-.178.3-.357.41-.537.113-.18.2-.362.264-.548.06-.185.092-.382.092-.592s-.035-.395-.104-.553-.162-.29-.28-.393c-.118-.104-.257-.18-.417-.232-.162-.052-.334-.078-.52-.078-.19 0-.36.027-.52.08-.158.054-.297.128-.418.223-.123.096-.225.208-.307.338s-.14.273-.174.43c-.04.117-.098.194-.168.232-.07.04-.168.05-.295.033l-.478-.08c.05-.327.143-.616.28-.868.14-.25.314-.462.524-.632s.45-.3.723-.388c.27-.088.563-.132.878-.132zM402.018 244.923c0 .627-.07 1.17-.21 1.628-.138.46-.327.838-.567 1.138-.237.3-.522.523-.85.67-.327.147-.677.22-1.05.22-.377 0-.727-.072-1.05-.22-.325-.146-.606-.37-.847-.67-.24-.3-.428-.68-.564-1.137-.138-.458-.206-1-.206-1.627s.068-1.17.205-1.63.323-.84.563-1.143.52-.525.846-.673c.323-.146.673-.22 1.05-.22.373 0 .723.073 1.05.22.327.147.612.37.85.673.24.302.43.683.57 1.143s.208 1.003.208 1.63zm-.952 0c0-.547-.047-1.006-.14-1.377-.097-.372-.224-.67-.382-.898-.16-.227-.344-.39-.553-.487-.208-.097-.425-.146-.65-.146s-.444.05-.653.147c-.21.1-.393.262-.55.488-.157.228-.284.526-.378.898-.095.37-.142.83-.142 1.377s.047 1.005.14 1.375.222.668.378.896c.158.227.342.39.55.487.21.1.427.148.653.148s.442-.05.65-.147c.21-.098.394-.26.554-.486.158-.228.285-.525.38-.896.096-.37.142-.828.142-1.375zM407.402 244.923c0 .627-.07 1.17-.21 1.628-.138.46-.327.838-.567 1.138-.238.3-.523.523-.85.67-.328.147-.678.22-1.05.22-.378 0-.728-.072-1.052-.22-.324-.146-.605-.37-.846-.67-.24-.3-.428-.68-.564-1.137-.137-.458-.205-1-.205-1.627s.068-1.17.205-1.63.324-.84.564-1.143.52-.525.846-.673c.324-.146.674-.22 1.05-.22.374 0 .724.073 1.052.22.326.147.61.37.85.673.24.302.43.683.568 1.143s.21 1.003.21 1.63zm-.95 0c0-.547-.048-1.006-.142-1.377-.096-.372-.223-.67-.38-.898-.16-.227-.345-.39-.554-.487-.21-.097-.426-.146-.652-.146s-.443.05-.652.147c-.21.1-.393.262-.55.488-.157.228-.284.526-.378.898-.094.37-.14.83-.14 1.377s.046 1.005.14 1.375.22.668.377.896c.16.227.343.39.552.487.21.1.426.148.652.148s.443-.05.652-.147c.21-.098.393-.26.553-.486.157-.228.284-.525.38-.896.094-.37.14-.828.14-1.375zM410.848 241.258c.313 0 .604.045.875.135.27.09.504.222.703.393.2.172.355.38.47.628.11.246.167.526.167.84 0 .267-.04.515-.123.742-.082.23-.193.446-.334.652-.14.207-.303.41-.484.605-.184.196-.38.395-.584.595l-1.94 1.93c.136-.036.274-.065.415-.087s.275-.03.406-.03h2.464c.1 0 .178.027.236.084s.088.13.088.22v.54h-4.912v-.305c0-.064.014-.13.04-.196s.07-.128.13-.185l2.357-2.307c.195-.193.373-.38.535-.558.16-.178.3-.357.41-.537.113-.18.2-.362.264-.548.06-.185.092-.382.092-.592s-.035-.395-.104-.553-.162-.29-.28-.393c-.118-.104-.257-.18-.417-.232-.162-.052-.334-.078-.52-.078-.19 0-.36.027-.52.08-.158.054-.297.128-.418.223-.123.096-.225.208-.307.338s-.14.273-.174.43c-.04.117-.098.194-.168.232-.07.04-.168.05-.295.033l-.478-.08c.05-.327.143-.616.28-.868.14-.25.314-.462.524-.632s.45-.3.723-.388c.27-.088.563-.132.878-.132z"/></g><g fill="#4E4E4E"><path d="M454.52 241.258c.313 0 .604.045.873.135.27.09.506.222.705.393.197.172.354.38.467.628.113.246.17.526.17.84 0 .267-.04.515-.123.742-.082.23-.193.446-.334.652-.14.207-.303.41-.486.605s-.377.395-.582.595l-1.943 1.93c.137-.036.275-.065.416-.087s.275-.03.406-.03h2.466c.1 0 .178.027.236.084s.086.13.086.22v.54h-4.91v-.305c0-.064.014-.13.04-.196s.07-.128.128-.185l2.36-2.307c.194-.193.372-.38.532-.558.162-.178.3-.357.412-.537s.2-.362.262-.548c.063-.185.092-.382.092-.592s-.033-.395-.102-.553-.162-.29-.28-.393c-.118-.104-.26-.18-.42-.232s-.333-.078-.52-.078-.36.027-.517.08c-.158.054-.3.128-.42.223-.12.096-.223.208-.305.338s-.14.273-.176.43c-.04.117-.096.194-.166.232-.07.04-.17.05-.297.033l-.476-.08c.047-.327.14-.616.28-.868.138-.25.313-.462.524-.632.21-.17.45-.3.72-.388.274-.088.567-.132.882-.132zM463.197 244.923c0 .627-.068 1.17-.21 1.628-.138.46-.325.838-.565 1.138-.24.3-.523.523-.852.67-.326.147-.676.22-1.05.22-.378 0-.728-.072-1.052-.22-.322-.146-.605-.37-.844-.67-.24-.3-.43-.68-.566-1.137-.137-.458-.205-1-.205-1.627s.068-1.17.205-1.63.326-.84.566-1.143c.238-.302.52-.525.844-.673.324-.146.674-.22 1.05-.22s.726.073 1.052.22c.328.147.61.37.852.673s.428.683.566 1.143c.14.46.21 1.003.21 1.63zm-.95 0c0-.547-.048-1.006-.142-1.377-.094-.372-.22-.67-.38-.898-.16-.227-.345-.39-.552-.487-.21-.097-.428-.146-.654-.146-.226 0-.444.05-.653.147-.21.1-.393.262-.55.488-.157.228-.282.526-.378.898-.095.37-.142.83-.142 1.377s.047 1.005.14 1.375c.097.37.222.668.38.896.156.227.34.39.55.487.208.1.427.148.65.148.228 0 .446-.05.655-.147.207-.098.393-.26.55-.486.16-.228.288-.525.382-.896s.14-.828.14-1.375zM468.582 244.923c0 .627-.068 1.17-.21 1.628-.138.46-.325.838-.565 1.138-.24.3-.523.523-.852.67-.326.147-.676.22-1.05.22-.378 0-.728-.072-1.052-.22-.322-.146-.605-.37-.844-.67-.24-.3-.43-.68-.567-1.137-.137-.458-.205-1-.205-1.627s.068-1.17.205-1.63.326-.84.566-1.143c.237-.302.52-.525.843-.673.324-.146.674-.22 1.05-.22s.726.073 1.052.22c.328.147.61.37.852.673s.428.683.566 1.143c.14.46.21 1.003.21 1.63zm-.95 0c0-.547-.048-1.006-.142-1.377-.094-.372-.22-.67-.38-.898-.16-.227-.345-.39-.552-.487-.21-.097-.428-.146-.654-.146-.225 0-.443.05-.652.147-.21.1-.393.262-.55.488-.157.228-.282.526-.378.898-.094.37-.14.83-.14 1.377s.046 1.005.14 1.375c.096.37.22.668.38.896.155.227.34.39.548.487.21.1.428.148.652.148.227 0 .445-.05.654-.147.207-.098.393-.26.55-.486.16-.228.288-.525.382-.896s.14-.828.14-1.375zM471.428 244.022c-.068.08-.13.16-.19.235-.058.077-.116.15-.175.226.176-.117.37-.208.578-.273.212-.064.44-.097.69-.097.296 0 .577.047.84.143.265.095.495.233.692.415s.354.405.47.67c.116.266.175.568.175.908 0 .33-.063.637-.186.92s-.294.53-.515.74-.486.375-.797.495c-.31.12-.652.18-1.025.18-.37 0-.705-.058-1.006-.173-.303-.114-.56-.278-.77-.49-.21-.21-.373-.468-.488-.77-.114-.302-.173-.64-.173-1.013 0-.313.072-.647.215-1.002.14-.355.367-.734.68-1.138l1.87-2.445c.048-.06.114-.11.198-.152s.18-.063.29-.063h.812l-2.184 2.685zm-1.002 2.27c0 .23.035.44.104.63.068.19.168.355.3.49.132.138.294.243.483.318s.406.112.65.112c.246 0 .47-.038.67-.115.2-.076.37-.183.514-.32s.252-.298.33-.484c.076-.187.115-.39.115-.61 0-.232-.04-.443-.113-.632-.077-.187-.185-.348-.323-.48s-.303-.23-.494-.302c-.193-.07-.404-.104-.633-.104-.246 0-.47.04-.668.122-.2.082-.367.192-.506.33-.14.14-.246.3-.318.48-.075.18-.112.37-.112.567z"/></g><g fill="#4E4E4E"><path d="M515.7 241.258c.312 0 .603.045.874.135.27.09.504.222.703.393.2.172.355.38.47.628.11.246.167.526.167.84 0 .267-.04.515-.123.742-.08.23-.192.446-.333.652-.14.207-.303.41-.484.605-.184.196-.38.395-.584.595l-1.942 1.93c.137-.036.275-.065.416-.087s.275-.03.406-.03h2.465c.1 0 .178.027.236.084s.09.13.09.22v.54h-4.913v-.305c0-.064.014-.13.04-.196s.07-.128.13-.185l2.357-2.307c.195-.193.373-.38.535-.558.16-.178.298-.357.41-.537.112-.18.2-.362.263-.548.06-.185.092-.382.092-.592s-.035-.395-.104-.553-.16-.29-.278-.393c-.12-.104-.258-.18-.418-.232-.162-.052-.334-.078-.52-.078-.19 0-.36.027-.52.08-.158.054-.297.128-.418.223-.123.096-.225.208-.307.338s-.142.273-.175.43c-.04.117-.098.194-.168.232-.07.04-.168.05-.295.033l-.48-.08c.05-.327.144-.616.282-.868.14-.25.313-.462.523-.632s.45-.3.723-.388c.272-.088.565-.132.88-.132zM524.38 244.923c0 .627-.07 1.17-.21 1.628-.14.46-.328.838-.568 1.138-.238.3-.523.523-.85.67-.328.147-.678.22-1.05.22-.378 0-.728-.072-1.052-.22-.324-.146-.605-.37-.846-.67-.24-.3-.428-.68-.564-1.137-.137-.458-.205-1-.205-1.627s.068-1.17.205-1.63.324-.84.564-1.143.52-.525.846-.673c.324-.146.674-.22 1.05-.22.374 0 .724.073 1.052.22.326.147.61.37.85.673.24.302.43.683.568 1.143s.21 1.003.21 1.63zm-.952 0c0-.547-.047-1.006-.14-1.377-.097-.372-.224-.67-.382-.898-.16-.227-.344-.39-.553-.487-.21-.097-.426-.146-.652-.146s-.442.05-.65.147c-.21.1-.394.262-.552.488-.156.228-.283.526-.377.898-.093.37-.14.83-.14 1.377s.047 1.005.14 1.375.222.668.378.896c.158.227.342.39.55.487.21.1.427.148.653.148s.444-.05.653-.147c.21-.098.393-.26.553-.486.158-.228.285-.525.38-.896.095-.37.142-.828.142-1.375zM525.395 247.823h1.578v-4.886c0-.14.006-.288.016-.444l-1.312 1.095c-.045.037-.09.06-.133.067-.045.01-.086.01-.123.003-.04-.007-.074-.02-.105-.04-.033-.02-.06-.042-.074-.065l-.29-.385 2.194-1.845h.746v6.5h1.45v.68h-3.948v-.68zM535.826 244.923c0 .627-.07 1.17-.21 1.628-.138.46-.327.838-.567 1.138-.24.3-.524.523-.85.67-.33.147-.68.22-1.052.22-.377 0-.727-.072-1.05-.22-.325-.146-.606-.37-.847-.67-.24-.3-.427-.68-.563-1.137-.137-.458-.205-1-.205-1.627s.068-1.17.205-1.63.324-.84.564-1.143.522-.525.847-.673c.324-.146.674-.22 1.05-.22.374 0 .724.073 1.052.22.325.147.61.37.85.673.24.302.43.683.567 1.143s.21 1.003.21 1.63zm-.95 0c0-.547-.048-1.006-.142-1.377-.096-.372-.223-.67-.38-.898-.16-.227-.345-.39-.554-.487-.21-.097-.426-.146-.652-.146s-.443.05-.652.147c-.21.1-.393.262-.55.488-.157.228-.284.526-.378.898-.094.37-.14.83-.14 1.377s.046 1.005.14 1.375.22.668.377.896c.158.227.342.39.55.487.21.1.427.148.653.148s.443-.05.652-.147c.21-.098.393-.26.553-.486.158-.228.285-.525.38-.896.095-.37.142-.828.142-1.375z"/></g><g fill="#FEC111"><path d="M291.818 129.373c-.048.084-.1.145-.152.183-.055.038-.12.057-.2.057-.085 0-.177-.03-.274-.093-.098-.062-.215-.13-.352-.207-.135-.076-.295-.145-.477-.207s-.396-.093-.645-.093c-.225 0-.42.027-.588.08s-.31.13-.424.226c-.113.096-.2.21-.254.345-.057.134-.084.28-.084.44 0 .204.057.374.17.51.114.137.266.253.453.35s.403.18.644.257.486.157.738.243.498.186.737.3c.24.114.453.258.64.432.19.175.34.388.454.64.114.252.172.558.172.918 0 .392-.067.76-.2 1.1-.136.343-.33.642-.59.896s-.572.455-.944.6c-.372.147-.8.22-1.278.22-.276 0-.548-.026-.815-.08-.27-.055-.526-.132-.772-.23-.246-.102-.477-.22-.693-.36-.215-.14-.408-.297-.576-.47l.474-.773c.04-.056.092-.103.156-.14.063-.04.132-.058.203-.058.1 0 .21.04.324.122.116.082.254.173.414.272.16.1.35.19.563.273s.47.123.77.123c.462 0 .817-.11 1.07-.327s.377-.53.377-.94c0-.227-.058-.413-.17-.557-.115-.145-.267-.265-.454-.363-.188-.098-.402-.18-.643-.25-.24-.066-.483-.14-.73-.22s-.492-.177-.732-.29-.454-.257-.642-.437-.34-.404-.453-.675c-.113-.27-.17-.602-.17-.998 0-.315.062-.624.187-.924.127-.3.31-.565.55-.798.24-.232.536-.418.888-.558.352-.14.756-.21 1.212-.21.513 0 .984.08 1.416.24.433.16.8.383 1.104.67l-.404.76zM298.352 136.47c-.14 0-.248-.02-.323-.062-.077-.042-.137-.126-.182-.255l-.13-.438c-.157.14-.31.263-.458.37-.147.104-.302.193-.46.266-.16.073-.333.127-.515.163s-.383.054-.604.054c-.26 0-.5-.035-.718-.104-.22-.07-.41-.175-.57-.315-.16-.14-.284-.313-.373-.52-.09-.21-.132-.45-.132-.728 0-.23.06-.46.183-.687.123-.227.326-.43.61-.612.284-.18.66-.332 1.134-.452.472-.12 1.06-.188 1.764-.204v-.36c0-.41-.088-.717-.264-.914-.176-.198-.43-.297-.762-.297-.24 0-.44.027-.598.084-.158.056-.297.12-.417.188l-.327.19c-.098.055-.207.083-.326.083-.104 0-.192-.027-.265-.08-.072-.056-.13-.118-.175-.19l-.265-.474c.71-.648 1.56-.972 2.557-.972.36 0 .682.06.966.177s.524.28.72.49c.196.21.346.462.447.754s.153.61.153.96v3.888h-.67zm-2.213-.923c.303 0 .565-.055.788-.165.222-.11.438-.277.65-.5v-1.04c-.432.02-.793.058-1.083.112-.29.054-.522.123-.698.207-.177.085-.303.183-.38.295-.075.11-.112.233-.112.365 0 .26.076.446.23.56s.356.167.604.167zM301.473 127.555v8.916h-1.482v-8.915h1.483zM306.116 130.22c.388 0 .746.062 1.074.185.327.124.61.306.846.543.235.238.42.53.556.876.133.347.2.74.2 1.186 0 .224-.024.375-.07.453-.05.078-.142.117-.277.117h-3.81c.023.315.08.59.168.818.088.23.203.42.348.57s.315.262.514.336.417.11.657.11.448-.027.622-.083c.174-.056.326-.117.455-.186.13-.067.244-.13.343-.186.1-.057.192-.084.285-.084.124 0 .216.046.276.138l.427.54c-.164.192-.348.354-.553.483-.203.13-.416.233-.64.312s-.446.133-.677.165-.453.048-.67.048c-.428 0-.825-.07-1.193-.213s-.688-.352-.96-.63-.485-.622-.642-1.032-.234-.885-.234-1.425c0-.42.068-.815.204-1.185.136-.37.33-.692.585-.967.254-.273.564-.49.93-.65.366-.16.78-.24 1.24-.24zm.03 1.06c-.432 0-.77.122-1.014.366s-.4.59-.47 1.038h2.798c0-.19-.027-.373-.082-.543-.054-.17-.135-.317-.242-.446-.108-.128-.246-.23-.412-.303s-.358-.11-.578-.11zM313.982 131.515c-.04.064-.082.11-.127.135-.043.026-.1.04-.168.04-.07 0-.148-.02-.23-.06s-.177-.086-.285-.136c-.107-.05-.23-.096-.37-.136-.137-.04-.3-.06-.487-.06-.293 0-.52.062-.688.186s-.25.286-.25.486c0 .132.044.243.13.333.087.09.2.17.343.237.142.067.303.13.482.183s.363.113.55.177c.186.064.368.138.548.22.18.082.342.186.483.312s.256.277.343.453c.086.176.13.388.13.636 0 .297-.055.57-.16.82-.106.25-.264.466-.472.647-.208.183-.465.324-.77.427-.306.102-.66.152-1.06.152-.212 0-.42-.02-.62-.057-.202-.04-.397-.092-.583-.16-.185-.067-.356-.147-.515-.24-.158-.092-.297-.19-.417-.3l.343-.563c.044-.068.097-.12.156-.156s.136-.053.228-.053.18.025.262.077c.082.053.177.108.285.168.108.06.235.116.382.17.146.05.33.076.555.076.176 0 .327-.02.453-.063s.23-.097.313-.165.142-.147.18-.237c.037-.09.057-.183.057-.278 0-.145-.043-.263-.13-.354s-.2-.17-.34-.24c-.144-.066-.306-.128-.487-.182s-.368-.113-.56-.177c-.188-.063-.374-.14-.556-.225-.183-.086-.345-.194-.486-.327-.142-.132-.255-.294-.34-.485-.087-.192-.13-.424-.13-.696 0-.252.05-.492.15-.72.1-.23.246-.427.44-.598.193-.17.436-.307.726-.408.29-.103.625-.153 1.005-.153.425 0 .81.07 1.16.21.347.14.637.323.87.55l-.338.535zM324.902 127.795v1.326h-2.616v7.35h-1.614v-7.35h-2.615v-1.325h6.845zM330.277 136.47c-.14 0-.248-.02-.324-.062s-.136-.126-.18-.255l-.132-.438c-.155.14-.307.263-.455.37-.148.104-.303.193-.462.266-.16.073-.33.127-.513.163-.183.036-.383.054-.604.054-.26 0-.5-.035-.72-.104-.22-.07-.41-.175-.57-.315-.16-.14-.284-.313-.372-.52s-.132-.45-.132-.728c0-.23.062-.46.183-.687.123-.227.325-.43.61-.612.283-.18.66-.332 1.134-.452.47-.12 1.058-.188 1.763-.204v-.36c0-.41-.088-.717-.264-.914-.178-.198-.432-.297-.764-.297-.24 0-.438.027-.597.084-.16.056-.298.12-.42.188l-.325.19c-.098.055-.207.083-.327.083-.104 0-.192-.027-.265-.08-.07-.056-.13-.118-.174-.19l-.265-.474c.708-.648 1.56-.972 2.557-.972.36 0 .682.06.965.177.285.117.524.28.72.49.196.21.346.462.448.754.102.292.152.61.152.96v3.888h-.67zm-2.214-.923c.304 0 .567-.055.79-.165s.437-.277.65-.5v-1.04c-.433.02-.793.058-1.084.112-.29.054-.523.123-.7.207-.176.085-.3.183-.377.295-.076.11-.114.233-.114.365 0 .26.076.446.23.56.154.11.355.167.603.167zM334.29 133.297l-2.02-2.982h1.428c.107 0 .188.016.24.045.052.03.098.08.138.147l1.29 2.058c.02-.067.045-.136.075-.204.03-.066.068-.135.11-.203l1.04-1.62c.088-.147.2-.222.342-.222h1.36l-2.026 2.916 2.11 3.24h-1.427c-.108 0-.196-.027-.262-.083s-.12-.12-.165-.192l-1.31-2.142c-.034.144-.085.264-.148.36l-1.15 1.78c-.046.07-.1.133-.163.19-.064.058-.145.087-.24.087h-1.326l2.105-3.173z"/></g><g fill="#EF4438"><path d="M86.78 46.663c.087 0 .165.034.233.102l.636.69c-.353.436-.786.77-1.3 1.002-.514.232-1.13.348-1.85.348-.645 0-1.224-.11-1.738-.33-.514-.22-.953-.525-1.317-.918-.364-.392-.643-.86-.837-1.403s-.29-1.14-.29-1.782c0-.652.103-1.25.31-1.79s.502-1.01.88-1.402c.378-.392.83-.696 1.353-.915.525-.218 1.105-.327 1.74-.327.633 0 1.194.104 1.684.313.49.21.907.48 1.25.817l-.54.75c-.03.048-.072.09-.122.126-.05.035-.12.054-.207.054-.06 0-.122-.018-.186-.05-.065-.035-.135-.077-.21-.127-.077-.05-.165-.105-.265-.165-.1-.06-.216-.115-.348-.165-.132-.05-.285-.092-.46-.126-.173-.034-.374-.052-.602-.052-.388 0-.743.07-1.065.207-.322.138-.6.338-.83.6-.233.262-.413.582-.54.96-.13.378-.193.81-.193 1.293 0 .488.07.922.207 1.302.138.38.325.7.56.96.237.26.515.46.835.598.32.138.663.206 1.03.206.22 0 .42-.013.598-.036.178-.024.342-.063.492-.114s.292-.12.426-.2c.134-.083.267-.184.4-.304.04-.036.08-.065.125-.087.045-.026.09-.037.14-.037zM91.55 42.457c.455 0 .87.074 1.244.222.374.147.694.357.96.63.266.27.47.603.615.995.143.393.215.83.215 1.314 0 .487-.072.927-.216 1.32-.145.39-.35.725-.616 1-.266.276-.586.488-.96.637-.374.147-.79.222-1.245.222-.46 0-.88-.075-1.255-.223-.376-.148-.697-.36-.963-.636-.266-.275-.472-.61-.618-1-.146-.394-.22-.833-.22-1.32 0-.485.074-.923.22-1.315.146-.392.352-.724.618-.996s.587-.482.963-.63c.376-.15.794-.223 1.254-.223zm0 5.202c.51 0 .89-.173 1.136-.518.246-.344.37-.848.37-1.512s-.124-1.17-.37-1.518c-.246-.35-.625-.522-1.137-.522-.52 0-.906.175-1.156.525-.25.35-.375.854-.375 1.515s.124 1.163.374 1.51c.25.346.635.52 1.155.52zM96.02 48.71v-6.157h.87c.15 0 .257.027.317.08s.1.152.12.292l.084.696c.197-.367.427-.656.69-.866s.577-.314.937-.314c.284 0 .512.062.684.186l-.095 1.11c-.02.07-.05.123-.087.152-.038.03-.09.045-.153.045-.06 0-.15-.01-.267-.03-.118-.02-.233-.03-.345-.03-.164 0-.31.025-.438.073s-.243.116-.345.207c-.102.09-.192.198-.27.326-.078.128-.15.273-.22.437v3.792h-1.48zM100.794 50.72v-8.167h.906c.192 0 .318.09.378.27l.12.57c.248-.283.533-.514.855-.69.322-.175.7-.263 1.13-.263.337 0 .644.07.922.21.278.14.518.343.72.608.202.267.358.594.468.984.11.39.165.837.165 1.34 0 .46-.062.887-.186 1.28-.124.39-.3.73-.53 1.02-.23.287-.51.512-.835.674-.326.162-.69.243-1.095.243-.348 0-.643-.054-.885-.16-.242-.105-.46-.253-.65-.44v2.52h-1.483zm2.88-7.11c-.308 0-.57.063-.79.193-.217.13-.42.313-.608.55v2.76c.168.208.35.353.55.435.197.082.412.123.644.123.224 0 .426-.04.606-.125.18-.084.333-.212.46-.384s.222-.388.29-.65c.068-.262.102-.57.102-.927 0-.36-.03-.665-.087-.915-.057-.25-.14-.453-.248-.61-.108-.154-.24-.27-.393-.34-.155-.073-.33-.11-.526-.11zM110.635 42.457c.456 0 .87.074 1.245.222.374.147.694.357.96.63.266.27.47.603.615.995.144.393.216.83.216 1.314 0 .487-.07.927-.215 1.32-.144.39-.35.725-.615 1-.266.276-.586.488-.96.637-.374.147-.79.222-1.245.222-.46 0-.878-.075-1.254-.223-.375-.148-.696-.36-.962-.636-.266-.275-.472-.61-.618-1-.146-.394-.22-.833-.22-1.32 0-.485.074-.923.22-1.315.146-.392.352-.724.618-.996s.587-.482.963-.63c.377-.15.795-.223 1.255-.223zm0 5.202c.512 0 .89-.173 1.137-.518.246-.344.37-.848.37-1.512s-.124-1.17-.37-1.518c-.246-.35-.625-.522-1.137-.522-.52 0-.905.175-1.155.525-.25.35-.375.854-.375 1.515s.125 1.163.375 1.51c.25.346.635.52 1.155.52zM115.104 48.71v-6.157h.87c.152 0 .258.027.318.08s.1.152.12.292l.084.696c.196-.367.426-.656.69-.866s.576-.314.936-.314c.284 0 .512.062.684.186l-.096 1.11c-.02.07-.05.123-.087.152-.038.03-.09.045-.153.045-.06 0-.15-.01-.267-.03-.118-.02-.233-.03-.345-.03-.164 0-.31.025-.438.073s-.243.116-.345.207c-.102.09-.192.198-.27.326-.078.128-.15.273-.22.437v3.792h-1.48zM123.906 48.71c-.14 0-.248-.022-.324-.064-.076-.042-.136-.126-.18-.255l-.132-.437c-.156.14-.308.263-.456.37-.148.104-.302.193-.462.266-.16.07-.33.125-.513.16s-.384.055-.604.055c-.26 0-.5-.035-.72-.104-.22-.07-.41-.174-.57-.314-.16-.14-.284-.313-.372-.52-.088-.21-.132-.45-.132-.728 0-.23.06-.46.183-.687.122-.226.325-.43.61-.61.283-.183.66-.334 1.133-.454.472-.12 1.06-.188 1.764-.204v-.36c0-.41-.088-.717-.264-.914-.176-.198-.43-.297-.762-.297-.24 0-.44.028-.597.085-.16.056-.298.12-.418.188l-.327.19c-.098.055-.207.083-.327.083-.104 0-.192-.027-.264-.08-.072-.056-.13-.118-.174-.19l-.264-.474c.708-.648 1.56-.972 2.556-.972.36 0 .682.06.966.177.284.118.524.282.72.492.196.21.345.46.447.752s.153.61.153.96v3.888h-.672zm-2.214-.925c.304 0 .567-.055.79-.165s.438-.277.65-.5v-1.04c-.432.02-.793.058-1.083.112-.29.054-.524.123-.7.207-.176.083-.302.18-.378.293-.076.11-.114.233-.114.365 0 .26.077.446.23.56s.356.167.604.167zM128.322 48.805c-.536 0-.947-.15-1.233-.453-.287-.302-.43-.72-.43-1.25v-3.44h-.63c-.08 0-.148-.025-.204-.077-.056-.052-.084-.13-.084-.234v-.587l.99-.162.312-1.68c.02-.08.058-.14.114-.185.056-.044.128-.066.216-.066h.768v1.937h1.644v1.056h-1.644V47c0 .19.047.34.14.45.095.106.224.16.388.16.092 0 .17-.01.23-.032.063-.022.117-.045.163-.07.046-.022.087-.046.123-.067.036-.02.072-.032.108-.032.044 0 .08.01.108.033.028.022.058.056.09.1l.444.72c-.216.18-.464.316-.744.408-.28.09-.57.137-.87.137zM133.656 42.457c.388 0 .746.063 1.074.186.328.124.61.306.846.543.236.238.42.53.555.876.135.347.202.74.202 1.186 0 .224-.024.375-.072.453s-.14.118-.276.118h-3.81c.024.315.08.59.168.818.088.23.204.42.348.57s.315.262.513.336c.198.074.417.11.657.11.24 0 .447-.027.62-.083.175-.058.327-.12.457-.188.13-.067.244-.13.342-.186.097-.057.192-.084.284-.084.124 0 .216.046.276.138l.426.54c-.164.192-.348.354-.552.483s-.417.233-.64.312-.447.133-.677.165c-.23.032-.453.048-.67.048-.427 0-.825-.07-1.193-.213s-.688-.352-.96-.63-.486-.622-.642-1.032c-.156-.41-.234-.885-.234-1.425 0-.42.068-.815.204-1.185.136-.37.33-.692.585-.967.254-.273.564-.49.93-.65.366-.16.78-.24 1.24-.24zm.03 1.062c-.432 0-.77.12-1.014.365-.244.244-.4.59-.468 1.038H135c0-.19-.027-.373-.08-.543-.055-.17-.136-.318-.244-.447-.108-.128-.245-.23-.41-.303s-.36-.11-.58-.11zM79.615 59.532h-1.62v-8.676h1.62v8.676zM81.607 59.532v-6.156h.906c.192 0 .318.09.378.27l.103.486c.124-.128.255-.243.393-.348.138-.104.284-.194.438-.27.154-.076.32-.135.495-.175.175-.04.367-.06.575-.06.336 0 .634.056.894.17.26.114.476.274.65.48s.306.45.396.737.135.602.135.945v3.918h-1.48v-3.918c0-.376-.087-.667-.26-.873s-.433-.31-.785-.31c-.256 0-.496.058-.72.174-.224.116-.436.273-.636.474v4.452h-1.483zM93.77 54.68c-.045.055-.088.1-.13.13s-.103.05-.183.05c-.076 0-.15-.024-.222-.07-.072-.046-.158-.098-.258-.156-.1-.058-.22-.11-.357-.155-.138-.047-.31-.07-.513-.07-.26 0-.488.047-.684.14-.196.096-.36.23-.49.406-.13.176-.226.39-.29.64-.064.25-.096.532-.096.85 0 .327.035.62.105.875s.17.472.303.646c.132.175.292.307.48.396s.4.135.636.135c.237 0 .428-.03.574-.087s.27-.122.37-.192c.1-.07.186-.134.26-.19.074-.06.157-.088.25-.088.12 0 .21.046.27.138l.425.54c-.165.192-.343.354-.535.483s-.39.234-.597.313-.418.133-.636.165c-.218.032-.435.048-.65.048-.38 0-.74-.07-1.075-.213s-.63-.35-.882-.62c-.252-.272-.45-.605-.597-1-.146-.394-.22-.843-.22-1.347 0-.452.066-.87.196-1.257.13-.388.32-.722.573-1.003.252-.282.564-.503.936-.663s.8-.24 1.284-.24c.46 0 .863.074 1.21.222.345.148.656.36.932.637l-.39.536zM98.095 53.28c.456 0 .87.074 1.245.222.374.148.694.358.96.63s.47.604.615.996c.144.393.216.83.216 1.314 0 .488-.07.928-.215 1.32-.144.392-.35.726-.615 1.002-.266.275-.586.487-.96.636-.374.147-.79.222-1.245.222-.46 0-.878-.074-1.254-.222-.375-.148-.696-.36-.962-.636s-.472-.61-.618-1.002c-.146-.393-.22-.832-.22-1.32 0-.484.074-.922.22-1.314.146-.392.352-.724.618-.996.266-.27.587-.48.963-.63.377-.148.795-.222 1.255-.222zm0 5.202c.512 0 .89-.172 1.137-.517.246-.344.37-.848.37-1.512s-.124-1.17-.37-1.518c-.246-.35-.625-.522-1.137-.522-.52 0-.905.175-1.155.525-.25.35-.375.854-.375 1.515s.125 1.163.375 1.51.635.52 1.155.52zM102.24 59.532v-6.156h.907c.192 0 .318.09.378.27l.096.457c.11-.12.222-.23.34-.33.118-.1.244-.187.378-.258.134-.072.278-.13.432-.172.154-.042.323-.063.507-.063.388 0 .707.104.957.315.25.21.437.488.56.837.097-.204.217-.38.36-.525.145-.146.303-.265.475-.357.17-.092.354-.16.548-.203s.39-.066.585-.066c.34 0 .642.053.906.157.263.104.485.256.665.456.18.2.317.443.41.73.095.29.142.62.142.99v3.92h-1.482v-3.92c0-.39-.086-.687-.258-.884-.172-.2-.424-.298-.756-.298-.15 0-.292.025-.422.077s-.244.127-.342.225c-.098.098-.175.22-.23.37-.057.146-.085.316-.085.51v3.917h-1.487v-3.918c0-.412-.083-.712-.25-.9-.165-.188-.408-.28-.728-.28-.216 0-.417.052-.603.157-.186.107-.36.253-.52.437v4.506h-1.48zM115.62 53.28c.39 0 .747.063 1.075.186.328.124.61.306.846.543.237.237.422.53.556.875.134.347.2.74.2 1.186 0 .225-.023.376-.07.454s-.14.117-.277.117h-3.81c.023.316.08.59.167.82.088.23.204.42.348.57s.315.26.513.335c.198.074.417.11.657.11.24 0 .447-.027.62-.083.175-.057.327-.118.457-.187.13-.067.244-.13.342-.186.098-.058.193-.085.285-.085.123 0 .215.046.275.138l.426.54c-.163.192-.347.354-.55.483s-.418.233-.64.312-.448.133-.678.165c-.23.032-.453.048-.67.048-.427 0-.825-.07-1.193-.212s-.69-.352-.96-.63-.487-.622-.643-1.032c-.156-.41-.234-.885-.234-1.425 0-.42.068-.814.204-1.184.136-.37.33-.692.585-.967.254-.274.564-.49.93-.65.366-.16.78-.24 1.24-.24zm.03 1.062c-.43 0-.77.122-1.013.366-.244.244-.4.59-.468 1.038h2.795c0-.19-.027-.373-.08-.543-.055-.17-.136-.318-.244-.447-.107-.128-.244-.23-.41-.303s-.36-.11-.58-.11zM128.533 50.856v1.326h-2.616v7.35h-1.614v-7.35h-2.616v-1.326h6.846zM133.908 59.532c-.14 0-.248-.02-.324-.063-.076-.043-.136-.127-.18-.256l-.132-.438c-.156.14-.308.263-.456.37-.148.104-.302.193-.462.266-.16.072-.33.126-.513.162s-.382.054-.602.054c-.26 0-.5-.035-.72-.104-.22-.07-.41-.175-.57-.315-.16-.14-.284-.314-.372-.522-.088-.208-.132-.45-.132-.727 0-.23.06-.46.183-.686.122-.227.325-.43.61-.612.283-.182.66-.333 1.133-.453.472-.12 1.06-.19 1.764-.205v-.36c0-.41-.088-.717-.264-.914-.176-.197-.43-.296-.762-.296-.24 0-.44.027-.597.084-.157.056-.296.12-.416.188l-.327.19c-.098.055-.207.083-.327.083-.104 0-.192-.028-.264-.082-.072-.055-.13-.117-.174-.19l-.264-.473c.708-.648 1.56-.972 2.556-.972.36 0 .682.06.966.177.284.118.524.282.72.492.196.21.345.46.447.753s.153.61.153.96v3.888h-.672zm-2.214-.924c.304 0 .567-.055.79-.165s.438-.277.65-.5v-1.04c-.432.02-.793.058-1.083.112-.29.054-.522.123-.698.207-.176.084-.302.182-.378.294-.076.11-.114.233-.114.365 0 .262.077.447.23.56s.356.168.604.168zM137.922 56.358l-2.022-2.982h1.428c.108 0 .188.016.24.045.052.03.098.08.138.148l1.29 2.058c.02-.067.045-.136.075-.204.03-.067.068-.136.112-.204l1.038-1.62c.088-.147.202-.222.342-.222h1.362l-2.028 2.916 2.112 3.24h-1.428c-.108 0-.195-.028-.26-.084s-.122-.12-.166-.192l-1.308-2.142c-.036.144-.086.264-.15.36l-1.152 1.78c-.044.07-.098.133-.162.19s-.144.087-.24.087h-1.326l2.106-3.172z"/></g><g fill="#903F98"><path d="M196.326 76.21h-1.62v-8.677h1.62v8.676zM198.33 76.21v-6.157h.906c.192 0 .318.09.378.27l.102.486c.124-.13.255-.244.393-.35.137-.103.283-.193.437-.27.154-.075.32-.134.495-.174.176-.04.368-.06.576-.06.336 0 .634.057.894.17.26.115.477.275.65.48s.307.452.397.738.134.602.134.945v3.917h-1.482V72.29c0-.377-.086-.668-.258-.874s-.434-.31-.786-.31c-.256 0-.496.06-.72.175-.224.117-.436.274-.636.475v4.452h-1.482zM209.838 76.21c-.196 0-.32-.09-.372-.27l-.126-.596c-.128.145-.262.274-.402.39-.14.116-.29.217-.453.3-.162.085-.336.15-.522.196-.186.046-.387.068-.603.068-.336 0-.644-.07-.924-.21-.28-.14-.52-.343-.723-.608-.202-.267-.358-.596-.468-.987-.11-.393-.165-.84-.165-1.344 0-.457.062-.88.186-1.273.124-.392.302-.732.534-1.02.232-.288.51-.514.834-.676.324-.16.688-.24 1.092-.24.344 0 .638.054.882.163.244.11.462.258.654.44v-3.25h1.482v8.915h-.906zm-1.974-1.087c.308 0 .57-.064.786-.192.216-.127.42-.31.612-.545v-2.76c-.168-.204-.35-.348-.55-.432-.197-.084-.41-.126-.638-.126-.224 0-.426.042-.606.126-.18.084-.334.21-.462.38s-.226.387-.294.648c-.068.264-.102.572-.102.93 0 .358.03.664.087.914.058.25.14.453.25.61.107.16.24.273.395.343.156.07.33.106.522.106zM214.248 68.26c0 .127-.026.247-.078.36-.052.11-.12.21-.207.293s-.187.15-.303.2c-.116.05-.24.076-.372.076-.128 0-.25-.026-.363-.076-.114-.05-.213-.117-.297-.2s-.15-.183-.2-.295c-.05-.113-.076-.233-.076-.36 0-.133.025-.257.075-.373.05-.115.117-.216.2-.3s.184-.15.298-.2c.114-.05.235-.076.363-.076.132 0 .256.026.372.076.116.05.217.117.303.2s.155.186.207.3c.052.117.078.24.078.373zm-.204 1.793v6.156h-1.488v-6.157h1.488zM215.178 70.053h1.224c.112 0 .205.026.28.078.073.053.122.12.146.2l1.188 3.287c.064.19.12.38.165.563.047.185.09.368.13.553.04-.185.084-.368.132-.553.048-.184.106-.372.174-.563l1.212-3.288c.028-.08.078-.147.15-.2s.158-.077.258-.077h1.17l-2.442 6.156h-1.344l-2.442-6.157zM224.232 68.26c0 .127-.026.247-.078.36-.052.11-.12.21-.207.293s-.187.15-.303.2c-.116.05-.24.076-.372.076-.128 0-.25-.026-.363-.076-.115-.05-.214-.117-.298-.2s-.15-.183-.2-.295c-.05-.113-.076-.233-.076-.36 0-.133.025-.257.075-.373.05-.115.118-.216.202-.3s.183-.15.297-.2c.113-.05.234-.076.362-.076.132 0 .256.026.372.076.116.05.217.117.303.2s.155.186.207.3c.052.117.078.24.078.373zm-.204 1.793v6.156h-1.488v-6.157h1.488zM230.28 76.21c-.197 0-.32-.09-.373-.27l-.126-.596c-.127.145-.26.274-.4.39-.14.116-.292.217-.454.3-.162.085-.336.15-.522.196-.186.046-.387.068-.603.068-.335 0-.643-.07-.923-.21-.28-.14-.52-.343-.723-.608-.202-.267-.358-.596-.468-.987-.11-.393-.165-.84-.165-1.344 0-.457.063-.88.187-1.273.124-.392.302-.732.534-1.02.233-.288.51-.514.835-.676.324-.16.688-.24 1.092-.24.344 0 .638.054.882.163.243.11.46.258.653.44v-3.25h1.482v8.915h-.906zm-1.974-1.087c.308 0 .57-.064.786-.192.216-.127.42-.31.612-.545v-2.76c-.168-.204-.35-.348-.55-.432-.197-.084-.41-.126-.638-.126-.224 0-.426.042-.606.126-.18.084-.334.21-.462.38s-.226.387-.294.648c-.068.264-.102.572-.102.93 0 .358.03.664.087.914.057.25.14.453.248.61.108.16.24.273.396.343.155.07.33.106.522.106zM234.372 70.053v3.912c0 .376.087.667.26.873s.436.31.784.31c.256 0 .496-.058.72-.172.224-.113.436-.27.636-.47v-4.453h1.482v6.156h-.906c-.196 0-.32-.09-.372-.27l-.102-.493c-.128.128-.26.245-.396.35-.136.107-.282.198-.438.274-.156.077-.322.135-.498.175-.176.04-.368.06-.576.06-.336 0-.633-.057-.89-.17-.26-.115-.476-.275-.652-.483-.176-.208-.31-.455-.4-.74-.09-.287-.134-.603-.134-.946v-3.912h1.482zM244.043 76.21c-.14 0-.248-.022-.324-.064-.077-.042-.137-.126-.18-.255l-.133-.437c-.156.14-.308.263-.456.37-.147.104-.3.193-.46.266-.16.07-.332.125-.514.16s-.383.055-.603.055c-.26 0-.5-.035-.72-.104-.22-.07-.41-.174-.57-.314-.16-.14-.284-.313-.372-.52-.087-.21-.13-.45-.13-.728 0-.23.06-.46.182-.687.122-.226.325-.43.61-.61.283-.183.66-.334 1.133-.454.472-.12 1.06-.188 1.764-.204v-.36c0-.41-.09-.717-.265-.914-.176-.198-.43-.297-.762-.297-.24 0-.44.028-.597.085-.158.056-.297.12-.417.188l-.328.19c-.098.055-.207.083-.327.083-.104 0-.192-.027-.264-.08-.07-.056-.13-.118-.173-.19l-.264-.474c.708-.648 1.56-.972 2.556-.972.36 0 .68.06.965.177.284.118.524.282.72.492.196.21.345.46.447.752s.153.61.153.96v3.888h-.672zm-2.213-.925c.304 0 .567-.055.79-.165s.438-.277.65-.5v-1.04c-.432.02-.793.058-1.083.112-.29.054-.523.123-.7.207-.175.083-.3.18-.377.293-.076.11-.114.233-.114.365 0 .26.077.446.23.56s.356.167.604.167zM247.908 67.293v8.916h-1.482v-8.917h1.482zM191.47 87.032h-1.62v-8.676h1.62v8.676zM193.473 87.032v-6.156h.906c.19 0 .317.09.377.27l.102.486c.123-.128.254-.243.392-.348.138-.104.284-.194.438-.27.154-.076.32-.135.495-.175.176-.04.368-.06.576-.06.337 0 .635.056.895.17.26.114.477.274.65.48s.307.45.397.737.135.602.135.945v3.918h-1.482v-3.918c0-.376-.086-.667-.258-.873s-.434-.31-.786-.31c-.255 0-.495.058-.72.174-.223.116-.435.273-.635.474v4.452h-1.482zM204.95 82.18c-.043.055-.086.1-.128.13s-.103.05-.183.05c-.077 0-.15-.024-.223-.07-.072-.046-.158-.098-.258-.156-.1-.058-.22-.11-.358-.155-.138-.047-.31-.07-.513-.07-.26 0-.49.047-.685.14-.196.096-.36.23-.49.406-.13.176-.226.39-.29.64-.064.25-.096.532-.096.85 0 .327.034.62.104.875s.17.472.303.646c.132.175.292.307.48.396s.4.135.636.135.427-.03.573-.087.27-.122.37-.192c.1-.07.186-.134.26-.19.074-.06.157-.088.25-.088.12 0 .21.046.27.138l.425.54c-.163.192-.34.354-.533.483s-.39.234-.597.313-.418.133-.636.165c-.218.032-.435.048-.65.048-.38 0-.74-.07-1.075-.213s-.63-.35-.883-.62c-.252-.272-.45-.605-.597-1-.146-.394-.22-.843-.22-1.347 0-.452.066-.87.196-1.257.13-.388.32-.722.573-1.003.25-.282.563-.503.935-.663s.8-.24 1.284-.24c.46 0 .862.074 1.208.222.346.148.657.36.933.637l-.39.536zM209.35 80.78c.455 0 .87.074 1.244.222.374.148.694.358.96.63s.47.604.615.996c.143.393.215.83.215 1.314 0 .488-.072.928-.216 1.32-.145.392-.35.726-.616 1.002-.266.275-.586.487-.96.636-.374.147-.79.222-1.245.222-.46 0-.88-.074-1.255-.222-.376-.148-.697-.36-.963-.636s-.472-.61-.618-1.002c-.146-.393-.22-.832-.22-1.32 0-.484.074-.922.22-1.314.146-.392.352-.724.618-.996.266-.27.587-.48.963-.63.376-.148.794-.222 1.254-.222zm0 5.202c.51 0 .89-.172 1.136-.517.246-.344.37-.848.37-1.512s-.124-1.17-.37-1.518c-.246-.35-.625-.522-1.137-.522-.52 0-.906.175-1.156.525-.25.35-.375.854-.375 1.515s.124 1.163.374 1.51.635.52 1.155.52zM213.82 87.032v-6.156h.905c.192 0 .318.09.378.27l.096.457c.107-.12.22-.23.338-.33.118-.1.244-.187.378-.258.134-.072.278-.13.432-.172.154-.042.323-.063.507-.063.388 0 .707.104.957.315.25.21.437.488.56.837.097-.204.217-.38.36-.525.145-.146.303-.265.475-.357.172-.092.355-.16.55-.203s.388-.066.584-.066c.34 0 .643.053.907.157.264.104.486.256.666.456.18.2.317.443.41.73.095.29.142.62.142.99v3.92h-1.482v-3.92c0-.39-.086-.687-.258-.884-.172-.2-.424-.298-.756-.298-.153 0-.294.025-.424.077s-.244.127-.342.225c-.098.098-.175.22-.23.37-.057.146-.085.316-.085.51v3.917h-1.49v-3.918c0-.412-.082-.712-.248-.9-.166-.188-.41-.28-.73-.28-.215 0-.416.052-.602.157-.186.107-.36.253-.52.437v4.506h-1.48zM226.79 80.78c.39 0 .747.063 1.075.186.328.124.61.306.846.543.237.237.422.53.556.875.134.347.2.74.2 1.186 0 .225-.023.376-.07.454s-.14.117-.277.117h-3.81c.023.316.08.59.167.82.088.23.204.42.348.57s.315.26.513.335c.198.074.417.11.657.11.24 0 .447-.027.62-.083.175-.057.327-.118.457-.187.13-.067.244-.13.342-.186.098-.058.193-.085.285-.085.123 0 .215.046.275.138l.426.54c-.163.192-.347.354-.55.483s-.418.233-.64.312-.448.133-.678.165c-.23.032-.453.048-.67.048-.427 0-.825-.07-1.193-.212s-.69-.352-.96-.63-.487-.622-.643-1.032c-.156-.41-.234-.885-.234-1.425 0-.42.068-.814.204-1.184.136-.37.33-.692.585-.967.254-.274.564-.49.93-.65.366-.16.78-.24 1.24-.24zm.03 1.062c-.43 0-.77.122-1.013.366-.244.244-.4.59-.468 1.038h2.795c0-.19-.027-.373-.08-.543-.055-.17-.136-.318-.244-.447-.107-.128-.244-.23-.41-.303s-.36-.11-.58-.11zM240.387 78.356v1.326h-2.616v7.35h-1.613v-7.35h-2.616v-1.326h6.847zM245.618 87.032c-.14 0-.248-.02-.324-.063-.076-.043-.136-.127-.18-.256l-.132-.438c-.156.14-.308.263-.456.37-.148.104-.302.193-.462.266-.16.072-.33.126-.513.162s-.382.054-.602.054c-.26 0-.5-.035-.72-.104-.22-.07-.41-.175-.57-.315-.16-.14-.284-.314-.372-.522-.088-.208-.132-.45-.132-.727 0-.23.06-.46.183-.686.122-.227.325-.43.61-.612.283-.182.66-.333 1.133-.453.472-.12 1.06-.19 1.764-.205v-.36c0-.41-.088-.717-.264-.914-.176-.197-.43-.296-.762-.296-.24 0-.44.027-.597.084-.157.056-.296.12-.416.188l-.327.19c-.098.055-.207.083-.327.083-.104 0-.192-.028-.264-.082-.072-.055-.13-.117-.174-.19l-.264-.473c.708-.648 1.56-.972 2.556-.972.36 0 .682.06.966.177.284.118.524.282.72.492.196.21.345.46.447.753s.153.61.153.96v3.888h-.672zm-2.214-.924c.304 0 .567-.055.79-.165s.438-.277.65-.5v-1.04c-.432.02-.793.058-1.083.112-.29.054-.522.123-.698.207-.176.084-.302.182-.378.294-.076.11-.114.233-.114.365 0 .262.077.447.23.56s.356.168.604.168zM249.393 83.858l-2.022-2.982h1.43c.107 0 .187.016.24.045.05.03.097.08.137.148l1.29 2.058c.02-.067.045-.136.075-.204.03-.067.067-.136.11-.204l1.04-1.62c.087-.147.2-.222.34-.222h1.363l-2.028 2.916 2.112 3.24h-1.43c-.107 0-.194-.028-.26-.084s-.12-.12-.165-.192l-1.308-2.142c-.036.144-.086.264-.15.36l-1.152 1.78c-.044.07-.098.133-.162.19s-.144.087-.24.087h-1.326l2.106-3.172z"/></g><path fill="none" stroke="#9B9B9B" stroke-width=".5" stroke-linejoin="round" stroke-miterlimit="10" d="M25.35 119.392v4.3M96.736 119.392v4.3M158.12 119.392v4.3M218.845 119.392v4.3M280.232 119.392v4.3M341.617 119.392v4.3M403.002 119.392v4.3M463.727 119.392v4.3M525.11 119.392v4.3"/><path fill="none" stroke="#FEC111" stroke-width="2" stroke-linecap="round" stroke-linejoin="round" stroke-miterlimit="10" d="M35.35 108.65l15.84.444 15.184.89 15.18 14.667 15.182-3.108 15.18-3.558 15.182-11.112 15.84-13.335 15.183 20.003 15.182 6.668 15.18-9.78 15.182 2.666 15.18 2.223 15.843 3.556 15.18.446 15.183-1.78 15.18-5.334 15.18.444 15.184 6.223 15.842-3.556 15.18-1.334 15.18-.89 15.183-1.776 15.18 12.002L403 115.76l15.183 6.67 15.18-8.45 15.18 2.224 15.184-5.335 15.18 9.782 15.84-.89 15.182 11.113 15.18 1.334 15.182-21.782 15.18-.445"/><path fill="none" stroke="#903F98" stroke-width="2" stroke-linecap="round" stroke-linejoin="round" stroke-miterlimit="10" d="M35.35 103.76l15.84 4.89 15.184.444 15.18 2.668 15.182-2.668 15.18 14.225L127.1 73.09l15.84 65.786 15.183-19.557 15.182-21.338 15.18 20.89 15.182-12.444 15.18-16.002 15.843 23.114 15.18 6.668 15.183-5.78 15.18.444 15.18-.444 15.184-4.89h15.842l15.18-3.556 15.18 10.67 15.183-2.67 15.18 7.115L403 125.54l15.183-1.332h15.18l15.18-16.446 15.184 1.777 15.18-.446 15.84-.89 15.182 28.45 15.18-18.224 15.182-30.67 15.18-11.56"/><path fill="none" stroke="#EF4438" stroke-width="2" stroke-linecap="round" stroke-linejoin="round" stroke-miterlimit="10" d="M35.35 124.65l15.84-45.337 15.184-46.228 15.18 82.232 15.182 26.67 15.18 1.334 15.182-12.445 15.84-44.45 15.183 4.89 15.182 29.782 15.18-17.336 15.182 3.556 15.18 32.004 15.843-17.778 15.18-4.446 15.183-13.78 15.18 1.333 15.18-11.557 15.184 15.556 15.842-2.668 15.18 3.557 15.18 2.222 15.183-.445 15.18 13.334L403 174.438l15.183-43.562 15.18-7.556 15.18-100.902 15.184 85.344 15.18-17.336 15.84 22.668 15.182 72.01L525.11 41.53l15.182 73.787 15.18-28.003"/></svg>