<svg xmlns="http://www.w3.org/2000/svg" width="547.333" height="246" viewBox="0 0 547.333 246"><style>text, tspan { font-family: &apos;Lato&apos;; } .heavy { font-weight: 700; }</style><text transform="translate(256.807 85.082)" fill="#60C8D5" class="heavy" font-size="12">Sole Proprietorships</text><path stroke="#60C8D5" stroke-miterlimit="10" fill="none" d="M367.987 85.082l12.27 9.404"/><path stroke="#CDCCCC" stroke-width=".75" stroke-linejoin="round" stroke-miterlimit="10" d="M57.292 9.47h490.04M57.293 41.13h490.04M57.293 71.854h490.04m-490.04 31.658h490.04m-490.04 30.725h490.04m-490.04 31.658h490.04m-490.04 30.727h490.04" fill="none"/><path fill="#E8989F" d="M57.292 221.763h9.46l9.462-.932h9.46l8.602-.93H113.2l8.6-.93h28.382l8.602-.932h9.46l9.462-.932h9.46l8.602.932h28.382l8.602-.932 9.46-.93 9.462-.932 9.46-.93h8.602l9.46-.93h9.462l9.462-.933h27.522l9.462 1.863h8.6l9.462.93h27.522l9.462-1.86h18.922l8.6.93h28.385l8.6.93H483.04l8.602.933h18.92l9.463.93h8.6l9.462.932h9.246v10.24H57.293z"/><path fill="#21B573" d="M57.292 221.763l9.46-.932h9.462l9.46-.93h8.602l9.46-.93h9.463l8.6-.932h9.46l9.462-.932h9.46l8.602-.93h18.922l9.46-.932 8.602.932h9.46l9.462-.932h9.46l8.602-.93 9.46-.93 9.462-.933 9.46-.93 8.602-.93 9.46-.932h9.462l9.462-.93 8.6-.932 9.462-.932 9.46-.93H343.705l9.462-.932h9.46l9.462-.93 8.6-.93 9.462-1.864 9.46-.93 9.462-.932 8.6-.932h9.463l9.46-.93 9.462-.93h8.6l9.46-.933 9.463-.93 9.46-.93 8.602-.932 9.46-.93h46.231v26.07h-9.246l-9.46-.932h-8.602l-9.462-.93h-18.92l-8.602-.932H454.66l-8.6-.93H417.672l-8.6-.93H390.15l-9.46 1.86h-27.524l-9.46-.93h-8.602l-9.46-1.863H298.12l-9.462.933h-9.46l-9.462.93h-8.6l-9.462.93-9.46.933-9.462.93-8.6.932h-28.384l-8.6-.932h-9.462l-9.46.932h-9.462l-8.6.93H121.798l-8.6.932H94.276l-8.602.93h-9.46l-9.462.933z"/><path fill="#183C4F" d="M57.292 216.176l9.46-.932 9.462-.93h9.46l8.602-.93H113.2l8.6-.933h9.46l9.462-.93h9.46l8.602-.93h9.46l9.462-.932 9.46-.93 8.602.93h9.46l9.462-.93h9.46l8.602-1.864 9.46-.93 9.462-1.863 9.46-.93 8.602-1.862 9.46-.93h9.462l9.462-1.864 8.6-.93 9.462-.93 9.46-.933H353.167l9.46-.93H380.69l9.462-2.793 9.46-1.863 9.462-.93 8.6-.932 9.463-1.86 9.46-.933 9.462-1.863 8.6-.93 9.46-.932 9.463-1.863 9.46-1.86 8.602-2.795 9.46-1.862 9.46-.93h18.063l9.462-.933h9.246v20.485H501.103l-9.46.93-8.602.932-9.46.93-9.462.93-9.46.933h-8.6l-9.462.93-9.46.93h-9.463l-8.6.933-9.462.93-9.46.932-9.46 1.863-8.602.93-9.46.932h-9.462l-9.46.932h-18.062l-9.462.93-9.46.932-8.602.93-9.462.932h-9.46l-9.462.93-8.6.933-9.462.93-9.46.933-9.462.93-8.6.93h-9.462l-9.46.933h-9.462l-8.6-.932-9.462.932h-18.922l-8.6.93h-9.462l-9.46.932h-9.463l-8.6.93h-9.463l-9.46.932h-8.602l-9.46.93h-9.462l-9.46.933z"/><path fill="#60C8D5" d="M57.292 161.24l9.46-2.793 9.462-.93 9.46-.932h18.062l9.463-.93H131.26l9.462-.932 9.46-.93 8.602-1.863h9.46l9.462-2.793 9.46-3.725 8.602-1.862 9.46-1.862 9.462-.93 9.46-3.726 8.602-.93 9.46-5.587 9.462-3.725 9.46-3.725 8.602 18.623 9.46-4.656 9.462-3.724 9.462-5.587 8.6-4.655 9.462-4.655 9.46-4.656 9.462-3.724 8.6-3.724 9.462-3.724 9.46-1.863 9.462-2.794 8.6-2.793 9.462-3.725 9.46-3.724 9.462-4.656 8.6-2.793 9.463-2.794 9.46-1.86 9.462-3.725 8.6-3.724 9.46-4.655 9.463-6.517 9.46-7.45 8.602-8.38 9.46-5.586 9.46-7.45 9.463 2.795h8.6l9.462-2.794 9.246-2.793v146.182h-9.246l-9.46.932h-18.064l-9.46.93-9.46 1.863L483.04 178l-9.46 1.862-9.462 1.863-9.46.93-8.6.932-9.462 1.862-9.46.93-9.463 1.862-8.6.932-9.462.93-9.46 1.863-9.46 2.794h-18.062l-9.462.93H325.644l-9.462.933-9.46.93-8.602.93-9.462 1.864h-9.46l-9.462.93-8.6 1.864-9.462.93-9.46 1.864-9.462.93-8.6 1.863h-9.462l-9.46.93h-9.462l-8.6-.93-9.462.93-9.46.932h-9.462l-8.6.93h-9.462l-9.46.93h-9.463l-8.6.933H94.276l-8.602.93h-9.46l-9.462.93-9.46.614z"/><path stroke="#9B9B9B" stroke-linejoin="round" stroke-miterlimit="10" fill="none" d="M57.524 228.277h489.81M519.608 225.486v5.587m-46.028-5.587v5.587m-46.445-5.587v5.587m-46.446-5.587v5.587m-45.586-5.587v5.587m-46.446-5.587v5.587m-46.445-5.587v5.587m-46.445-5.587v5.587m-45.585-5.587v5.587m-46.446-5.587v5.587m-46.445-5.587v5.587"/><text transform="matrix(.924 0 0 1 39.434 226.727)" fill="#4E4E4E" font-size="9.311">0</text><text transform="matrix(.924 0 0 1 5.599 195.491)" fill="#4E4E4E" font-size="9.311">5,000,000</text><text transform="matrix(.924 0 0 1 .61 164.256)" fill="#4E4E4E" font-size="9.311">10,000,000</text><text transform="matrix(.924 0 0 1 .61 133.019)" fill="#4E4E4E" font-size="9.311">15,000,000</text><text transform="matrix(.924 0 0 1 .61 101.785)" fill="#4E4E4E" font-size="9.311">20,000,000</text><text transform="matrix(.924 0 0 1 .61 70.549)" fill="#4E4E4E" font-size="9.311">25,000,000</text><text transform="matrix(.924 0 0 1 .61 39.315)" fill="#4E4E4E" font-size="9.311">30,000,000</text><text transform="matrix(.924 0 0 1 .61 8.079)" fill="#4E4E4E" font-size="9.311">35,000,000</text><text transform="translate(46.215 243.795)" fill="#4E4E4E" font-size="10">1958</text><text transform="translate(92.853 243.795)" fill="#4E4E4E" font-size="10">1963</text><text transform="translate(138.631 243.795)" fill="#4E4E4E" font-size="10">1968</text><text transform="translate(185.269 243.795)" fill="#4E4E4E" font-size="10">1973</text><text transform="translate(231.048 243.795)" fill="#4E4E4E" font-size="10">1978</text><text transform="translate(277.688 243.795)" fill="#4E4E4E" font-size="10">1983</text><text transform="translate(323.465 243.795)" fill="#4E4E4E" font-size="10">1988</text><text transform="translate(370.103 243.795)" fill="#4E4E4E" font-size="10">1993</text><text transform="translate(415.882 243.795)" fill="#4E4E4E" font-size="10">1998</text><text transform="translate(462.721 243.795)" fill="#4E4E4E" font-size="10">2003</text><text transform="translate(508.5 243.795)" fill="#4E4E4E" font-size="10">2008</text><text transform="translate(276.978 224.377)" fill="#fff" class="heavy" font-size="12">C Corps</text><text transform="translate(480.081 208.559)" fill="#fff" class="heavy" font-size="12">S Corps</text><text transform="translate(357.159 175.109)" fill="#183C4F" class="heavy" font-size="12">Partnerships</text><path stroke="#183C4F" stroke-miterlimit="10" fill="none" d="M426.306 175.11l12.27 9.404"/></svg>