<svg xmlns="http://www.w3.org/2000/svg" width="542.898" height="246.188" viewBox="0 0 542.898 246.188"><style>text, tspan { font-family: &apos;Lato&apos;; } .heavy { font-weight: 700; }</style><path opacity=".6" fill="#21B573" d="M31.13 8.702h511.113v83.056l-9.61 6.39-9.61-16.43-9.612-11.865-9.61 37.42-9.61 10.04-9.61 11.866-9.61-22.82-9.613-12.777-9.61-22.817-9.61 1.825-9.61 31.946-9.613 6.39-9.61 5.475-9.61 13.692-9.61 4.563-10.485 3.65-9.612-5.476-9.61 1.825-9.61-5.476-9.613 1.825-9.61 6.39-9.61 6.387-9.61 7.302-9.612 5.477-9.61 11.866h-9.61l-9.612 3.65-9.61-1.825-9.61 2.74-9.61 11.864h-9.612l-9.61-1.826-9.61-6.388-9.612 1.825-9.61-1.825-9.61-8.214-9.612-1.826-9.61-10.04-10.485-2.738-9.61-2.738-9.612-10.04-9.61 8.214-9.612 5.476-9.61-3.65-9.61 2.738h-9.61l-9.612-4.564-9.61-2.737-9.61-4.563-9.612-2.738-9.61 2.737-9.612 2.738-9.61-7.3z"/><path opacity=".3" fill="#E0E1E0" stroke="#21B573" stroke-width=".75" stroke-linejoin="round" stroke-miterlimit="10" d="M31.13 8.702h511.113M31.13 30.606h511.113M31.13 53.424h511.113M31.13 75.33h511.113M31.13 97.234h511.113M31.13 120.052h511.113M31.13 141.957h511.113M31.13 163.862h511.113M31.13 186.68h511.113M31.13 208.585h511.113"/><path fill="#065296" d="M31.13 137.394l9.61 7.3 9.612-2.737 9.61-2.738 9.61 2.737 9.612 4.564 9.61 2.738 9.61 4.564h9.61l9.612-2.738 9.61 3.65 9.612-5.476 9.61-8.214 9.61 10.04 9.61 2.738 10.486 2.74 9.61 10.038 9.61 1.826 9.612 8.214 9.61 1.825 9.61-1.825 9.612 6.388 9.61 1.826h9.61l9.612-11.865 9.61-2.74 9.61 1.826 9.612-3.65h9.61l9.61-11.865 9.612-5.476 9.61-7.302 9.61-6.388 9.61-6.39 9.614-1.825 9.61 5.475 9.61-1.826 9.61 5.476 10.485-3.65 9.61-4.564 9.612-13.69 9.61-5.477 9.61-6.39 9.612-31.944 9.61-1.824 9.61 22.817 9.612 12.778 9.61 22.82 9.61-11.867 9.61-10.04 9.61-37.42 9.612 11.865 9.61 16.43 9.61-6.39V230.49H31.13z"/><path fill="none" d="M30.91 8.017H542.9v222.7H30.91zM30.91 8.017H542.9v222.7H30.91z"/><path stroke="#9B9B9B" stroke-linejoin="round" stroke-miterlimit="10" fill="none" d="M31.034 230.794h511.342M513.41 227.75v6.087m-48.053-6.086v6.087m-48.052-6.086v6.087m-48.928-6.086v6.087m-48.053-6.086v6.087m-48.053-6.086v6.087m-48.053-6.086v6.087m-48.053-6.086v6.087m-48.928-6.086v6.087m-48.052-6.086v6.087M31.13 227.75v6.087"/><text transform="matrix(1.006 0 0 1 11.29 229.531)" fill="#4E4E4E" font-size="10">0</text><text transform="matrix(1.006 0 0 1 5.453 207.321)" fill="#4E4E4E" font-size="10">10</text><text transform="matrix(1.006 0 0 1 5.453 185.112)" fill="#4E4E4E" font-size="10">20</text><text transform="matrix(1.006 0 0 1 5.453 162.902)" fill="#4E4E4E" font-size="10">30</text><text transform="matrix(1.006 0 0 1 5.453 140.693)" fill="#4E4E4E" font-size="10">40</text><text transform="matrix(1.006 0 0 1 5.453 118.485)" fill="#4E4E4E" font-size="10">50</text><text transform="matrix(1.006 0 0 1 5.453 96.275)" fill="#4E4E4E" font-size="10">60</text><text transform="matrix(1.006 0 0 1 5.453 74.066)" fill="#4E4E4E" font-size="10">70</text><text transform="matrix(1.006 0 0 1 5.453 51.857)" fill="#4E4E4E" font-size="10">80</text><text transform="matrix(1.006 0 0 1 5.453 29.647)" fill="#4E4E4E" font-size="10">90</text><text transform="matrix(1.006 0 0 1 -.537 7.439)" fill="#4E4E4E" font-size="10">100%</text><text transform="matrix(1.006 0 0 1 18.28 246.006)" fill="#4E4E4E" font-size="10">1958</text><text transform="matrix(1.006 0 0 1 66.957 246.006)" fill="#4E4E4E" font-size="10">1963</text><text transform="matrix(1.006 0 0 1 114.76 246.006)" fill="#4E4E4E" font-size="10">1968</text><text transform="matrix(1.006 0 0 1 163.436 246.006)" fill="#4E4E4E" font-size="10">1973</text><text transform="matrix(1.006 0 0 1 211.24 246.006)" fill="#4E4E4E" font-size="10">1978</text><text transform="matrix(1.006 0 0 1 259.914 246.006)" fill="#4E4E4E" font-size="10">1983</text><text transform="matrix(1.006 0 0 1 307.718 246.006)" fill="#4E4E4E" font-size="10">1988</text><text transform="matrix(1.006 0 0 1 356.394 246.006)" fill="#4E4E4E" font-size="10">1993</text><text transform="matrix(1.006 0 0 1 404.197 246.006)" fill="#4E4E4E" font-size="10">1998</text><text transform="matrix(1.006 0 0 1 452.874 246.006)" fill="#4E4E4E" font-size="10">2003</text><text transform="matrix(1.006 0 0 1 500.678 246.006)" fill="#4E4E4E" font-size="10">2008</text><text transform="translate(175.224 90.286)" fill="#fff" class="heavy" font-size="12">C Corporation Net Income</text><text transform="translate(315.32 202.033)" fill="#fff" class="heavy" font-size="12">All Pass-through Net Income</text></svg>