<svg xmlns="http://www.w3.org/2000/svg" width="350.065" height="342" viewBox="0 0 350.065 342"><style>text, tspan { font-family: &apos;Lato&apos;; } .heavy { font-weight: 700; }</style><path stroke="#CDCCCC" stroke-width=".75" stroke-linejoin="round" stroke-miterlimit="10" d="M33.59 296.95h315.72M33.59 264.99h315.72M33.59 233.162h315.72M33.59 201.337h315.72M33.59 169.373h315.72M33.59 137.546h315.72M33.59 105.72h315.72M33.59 73.894h315.72M33.59 41.93h315.72M33.59 10.105h315.72" fill="none"/><path fill="#7C273F" d="M64.987 312.66h41.86v16.118h-41.86v-16.12zM222.844 26.223h41.86V328.78h-41.86V26.223z"/><path clip-rule="evenodd" fill="none" d="M33.59 329.604h316.475v-319.5H33.59v319.5z"/><path fill="#36699A" d="M118.195 131.897h41.86v196.88h-41.86v-196.88zm157.858 75.087h41.86v121.794h-41.86V206.984z"/><path clip-rule="evenodd" fill="none" d="M33.59 329.604h316.475v-319.5H33.59v319.5z"/><path stroke="#9B9B9B" stroke-linejoin="round" stroke-miterlimit="10" fill="none" d="M33.59 328.778h315.72"/><text transform="translate(78.838 309.385)"><tspan x="0" y="0" fill="#808285" class="heavy" font-size="8">5.1%</tspan></text><text transform="translate(233.471 23.035)"><tspan x="0" y="0" fill="#808285" class="heavy" font-size="8">94.9%</tspan></text><text transform="translate(127.462 126.115)"><tspan x="0" y="0" fill="#808285" class="heavy" font-size="8">61.8%</tspan></text><text transform="translate(286.647 199.686)"><tspan x="0" y="0" fill="#808285" class="heavy" font-size="8">38.2%</tspan></text><text transform="translate(11.526 326.394)" fill="#4E4E4E" font-size="10">0</text><text transform="translate(5.787 294.524)"><tspan x="0" y="0" fill="#4E4E4E" font-size="10">10</tspan></text><text transform="translate(5.787 262.654)"><tspan x="0" y="0" fill="#4E4E4E" font-size="10">20</tspan></text><text transform="translate(5.787 230.785)"><tspan x="0" y="0" fill="#4E4E4E" font-size="10">30</tspan></text><text transform="translate(5.787 198.925)"><tspan x="0" y="0" fill="#4E4E4E" font-size="10">40</tspan></text><text transform="translate(5.787 167.055)"><tspan x="0" y="0" fill="#4E4E4E" font-size="10">50</tspan></text><text transform="translate(5.787 135.194)"><tspan x="0" y="0" fill="#4E4E4E" font-size="10">60</tspan></text><text transform="translate(5.787 103.316)"><tspan x="0" y="0" fill="#4E4E4E" font-size="10">70</tspan></text><text transform="translate(5.787 71.446)"><tspan x="0" y="0" fill="#4E4E4E" font-size="10">80</tspan></text><text transform="translate(5.787 39.586)"><tspan x="0" y="0" fill="#4E4E4E" font-size="10">90</tspan></text><text transform="translate(.245 7.717)"><tspan x="0" y="0" fill="#4E4E4E" font-size="10">100%</tspan></text><text transform="translate(90.965 340.027)"><tspan x="0" y="0" fill="#4E4E4E" font-size="10">Corporate</tspan></text><text transform="translate(234.309 340.027)"><tspan x="0" y="0" fill="#4E4E4E" font-size="10">Pass-through</tspan></text><text transform="translate(48.601 36.47)"><tspan x="0" y="0" fill="#7C273F" class="heavy" font-size="12">Share of Returns</tspan></text><text transform="translate(47.509 53.688)"><tspan x="0" y="0" fill="#36699A" class="heavy" font-size="12">Share of Receipts</tspan></text></svg>