<svg xmlns="http://www.w3.org/2000/svg" width="365" height="356" viewBox="0 0 365 356"><style>text, tspan { font-family: &apos;Lato&apos;; } .heavy { font-weight: 700; }</style><text transform="translate(147.428 354.735)" fill="#666766" font-size="10">Number of Employees</text><text transform="translate(104.38 67.449)"><tspan x="0" y="0" fill="#01A0B0" class="heavy" font-size="12">Share of Employment</tspan></text><text transform="translate(104.379 51.545)"><tspan x="0" y="0" fill="#21B573" class="heavy" font-size="12">Share of Firms</tspan></text><path stroke="#CDCCCC" stroke-width=".75" stroke-linejoin="round" stroke-miterlimit="10" d="M28.167 9.114h335.768M28.167 40.204h335.768M28.167 71.298h335.768m-335.768 31.09h335.768M28.167 134.22h335.768M28.167 165.31h335.768M28.167 196.4h335.768M28.167 227.493h335.768m-335.768 31.09h335.768M28.167 289.675h335.768" fill="none"/><path fill="#6CACDE" d="M304.62 320.027h28.07v.74h-28.07z"/><path fill="#21B573" d="M211.73 317.064h28.07v3.702h-28.07zM122.84 295.5h28.07v25.267h-28.07zM31.95 40.205h28.737V320.74H31.95z"/><path fill="#29AAE2" d="M332.695 163.09h28.07v157.677h-28.07zM243.806 280.05h28.068v40.717h-28.068zM154.915 267.467h28.738v53.3h-28.738zM64.693 260.804h28.07v59.963h-28.07z"/><path fill="#21B573" d="M300.62 320.027h28.07v.74h-28.07z"/><path stroke="#9B9B9B" stroke-linejoin="round" stroke-miterlimit="10" fill="none" d="M28.093 320.986h335.842"/><text transform="translate(5.8 319.945)" fill="#4E4E4E" font-size="10">0</text><text transform="translate(0 288.759)" fill="#4E4E4E" font-size="10">10</text><text transform="translate(0 257.571)" fill="#4E4E4E" font-size="10">20</text><text transform="translate(0 226.384)" fill="#4E4E4E" font-size="10">30</text><text transform="translate(0 195.198)" fill="#4E4E4E" font-size="10">40</text><text transform="translate(0 164.011)" fill="#4E4E4E" font-size="10">50</text><text transform="translate(0 132.823)" fill="#4E4E4E" font-size="10">60</text><text transform="translate(0 101.636)" fill="#4E4E4E" font-size="10">70</text><text transform="translate(0 70.449)" fill="#4E4E4E" font-size="10">80</text><text transform="translate(0 39.262)" fill="#4E4E4E" font-size="10">90</text><text transform="translate(0 8.075)" fill="#4E4E4E" font-size="10">100%</text><text transform="translate(39.641 332.323)" fill="#4E4E4E" font-size="10">Less than</text><text transform="translate(54.516 342.206)" fill="#4E4E4E" font-size="10">20</text><text transform="translate(134.317 332.323)" fill="#4E4E4E" font-size="10">20 to 99</text><text transform="translate(225.22 332.323)" fill="#4E4E4E" font-size="10">100 to</text><text transform="translate(231.127 342.206)" fill="#4E4E4E" font-size="10">499</text><text transform="translate(311.033 332.323)" fill="#4E4E4E" font-size="10">500 and</text><text transform="translate(322.607 342.206)" fill="#4E4E4E" font-size="10">Up</text><text transform="translate(34.83 31.763)" fill="#808285" class="heavy" font-size="8">90.1%</text><text transform="translate(66.374 252.813)" fill="#808285" class="heavy" font-size="8">19.2%</text><text transform="translate(126.626 287.883)" fill="#808285" class="heavy" font-size="8">8.2%</text><text transform="translate(156.613 257.571)" fill="#808285" class="heavy" font-size="8">17.1%</text><text transform="translate(215.744 310.153)" fill="#808285" class="heavy" font-size="8">1.3%</text><text transform="translate(245.17 272.549)" fill="#808285" class="heavy" font-size="8">13.0%</text><text transform="translate(311.799 310.153)" fill="#808285" class="heavy" font-size="8">0.4%</text><text transform="translate(334.06 154.226)" fill="#808285" class="heavy" font-size="8">50.6%</text></svg>