<svg xmlns="http://www.w3.org/2000/svg" width="361.5" height="360" viewBox="0 0 361.5 360"><style>text, tspan { font-family: &apos;Lato&apos;; } .heavy { font-weight: 700; }</style><path stroke="#E0E1E0" stroke-width=".75" stroke-linejoin="round" stroke-miterlimit="10" d="M44.033 10.054h314.79m-314.79 53.95h314.79m-314.79 53.953h314.79M44.032 171.91h314.79m-314.79 53.95h314.79m-314.79 53.952h314.79" fill="none"/><path fill="#32BBE8" d="M295.863 128.747h46.92v205.59h-46.92v-205.59zm-78.517-45.123h46.92v250.712h-46.92V83.624zM138.83 45.367h46.917v288.97H138.83V45.366z"/><path fill="#E0E1E0" stroke="#808080" stroke-linejoin="round" stroke-miterlimit="10" d="M44.186 334.336H358.82"/><text transform="translate(145.198 38.129)" fill="#808285" class="heavy" font-size="8">$53,444</text><text transform="translate(223.378 75.886)" fill="#808285" class="heavy" font-size="8">$46,458</text><text transform="translate(302.695 121.673)" fill="#808285" class="heavy" font-size="8">$37,987</text><text transform="translate(31.607 332.619)" fill="#4E4E4E" font-size="10">0</text><text transform="translate(6.138 278.571)" fill="#4E4E4E" font-size="10">10,000</text><text transform="translate(6.138 224.524)" fill="#4E4E4E" font-size="10">20,000</text><text transform="translate(6.138 170.477)" fill="#4E4E4E" font-size="10">30,000</text><text transform="translate(6.138 116.43)" fill="#4E4E4E" font-size="10">40,000</text><text transform="translate(6.138 62.383)" fill="#4E4E4E" font-size="10">50,000</text><text transform="translate(.338 8.336)" fill="#4E4E4E" font-size="10">$60,000</text><path fill-rule="evenodd" clip-rule="evenodd" fill="#903750" d="M60.93 44.314h46.544v290.02H60.93z"/><text transform="translate(67.016 36.958)" fill="#808285" class="heavy" font-size="8">$53,661</text><text transform="translate(56.712 345.78)" fill="#4E4E4E" font-size="10">Government</text><text transform="translate(139.441 345.78)" fill="#4E4E4E" font-size="10">Corporate</text><text transform="translate(212.36 345.78)" fill="#4E4E4E" font-size="10">Private Sector</text><text transform="translate(225.198 357.552)" fill="#4E4E4E" font-size="10">Average</text><text transform="translate(291.454 345.78)" fill="#4E4E4E" font-size="10">Pass-through</text></svg>