<svg xmlns="http://www.w3.org/2000/svg" width="529.25" height="219.042" viewBox="0 0 529.25 219.042"><style>text, tspan { font-family: &apos;Lato&apos;; } .heavy { font-weight: 700; }</style><path fill-rule="evenodd" clip-rule="evenodd" fill="#F79420" d="M150.6 208.683h28.507v9.896H150.6zM150.6 164.156h47.602v9.896H150.6zM150.6 134.47h64.766v9.896H150.6zM150.6 30.574h220.292v9.896H150.6z"/><path fill="#60C8D5" d="M499.737 10.384H150.404v-9h349.333v9zm-117.324 15h-232.01v-10h232.01v10zm-19.113 30H150.404v-10H363.3v10zm-65.913 15H150.404v-10h146.982v10zm-40.865 15H150.404v-10h106.118v10zm-4.613 14H150.403v-9h101.504v9zm-16.48 15h-85.025v-10h85.026v10zm-19.114 15h-65.912v-10h65.912v10zm-13.84 30h-52.07v-10h52.07v10zm-13.843 30h-38.23v-10h38.23v10zm-7.91 14h-30.318v-10h30.32v10z"/><text transform="translate(186.561 216.63)" fill="#808285" class="heavy" font-size="8">$269</text><text transform="translate(186.365 201.789)" fill="#808285" class="heavy" font-size="8">$287</text><text transform="translate(196.257 186.946)" fill="#808285" class="heavy" font-size="8">$361</text><text transform="translate(205.656 172.104)" fill="#808285" class="heavy" font-size="8">$449</text><text transform="translate(209.989 157.261)" fill="#808285" class="heavy" font-size="8">$490</text><text transform="translate(222.82 142.418)" fill="#808285" class="heavy" font-size="8">$611</text><text transform="translate(224.009 127.577)" fill="#808285" class="heavy" font-size="8">$623</text><text transform="translate(240.954 112.734)" fill="#808285" class="heavy" font-size="8">$802</text><text transform="translate(259.359 97.891)" fill="#808285" class="heavy" font-size="8">$956</text><text transform="translate(263.849 83.049)" fill="#808285" class="heavy" font-size="8">$999</text><text transform="translate(308.162 68.207)" fill="#808285" class="heavy" font-size="8">$1,388</text><text transform="translate(373.557 53.364)" fill="#808285" class="heavy" font-size="8">$2,005</text><text transform="translate(381.414 38.522)" fill="#808285" class="heavy" font-size="8">$2,080</text><text transform="translate(392.683 23.679)" fill="#808285" class="heavy" font-size="8">$2,186</text><text transform="translate(502.232 8.836)" fill="#808285" class="heavy" font-size="8">$3,293</text><text transform="translate(.891 216.63)" fill="#4E4E4E" font-size="8">Agriculture, forestry, ﬁshing, and hunting</text><text transform="translate(117.089 201.789)" fill="#4E4E4E" font-size="8">Utilities</text><text transform="translate(21.174 186.946)" fill="#4E4E4E" font-size="8">Other services, except government</text><text transform="translate(119.969 172.103)" fill="#4E4E4E" font-size="8">Mining</text><text transform="translate(30.202 157.261)" fill="#4E4E4E" font-size="8">Transportation and warehousing</text><text transform="translate(98.53 142.418)" fill="#4E4E4E" font-size="8">Construction</text><text transform="translate(8.659 127.577)" fill="#4E4E4E" font-size="8">Arts, entertainment, food services, etc.</text><text transform="translate(102.886 112.734)" fill="#4E4E4E" font-size="8">Information</text><text transform="translate(124.438 97.891)" fill="#4E4E4E" font-size="8">Retail</text><text transform="translate(107.377 83.049)" fill="#4E4E4E" font-size="8">Wholesale</text><text transform="translate(13.582 68.207)" fill="#4E4E4E" font-size="8">Educational services, health care, etc.</text><text transform="translate(24.174 53.364)" fill="#4E4E4E" font-size="8">Professional and business services</text><text transform="translate(92.614 38.522)" fill="#4E4E4E" font-size="8">Manufacturing</text><text transform="translate(100.082 23.679)" fill="#4E4E4E" font-size="8">Government</text><text transform="translate(22.166 8.836)" fill="#4E4E4E" font-size="8">Finance, insurance, real estate, etc.</text><text transform="translate(400.698 192.815)" fill="#60C8D5" class="heavy" font-size="14">Service Industry</text><text transform="translate(400.698 210.815)" fill="#F79420" class="heavy" font-size="14">Production Industry</text></svg>