<svg xmlns="http://www.w3.org/2000/svg" width="552.132" height="221.583" viewBox="0 0 552.132 221.583"><style>text, tspan { font-family: &apos;Lato&apos;; } .heavy { font-weight: 700; }</style><text transform="translate(417.625 202.411)" fill="#60C8D5" class="heavy" font-size="14">Service Industry</text><text transform="translate(417.625 220.411)" fill="#F79420" class="heavy" font-size="14">Production Industry</text><path fill-rule="evenodd" clip-rule="evenodd" fill="#F79420" d="M162.784 195.896h11.98v10.008h-11.98zM162.784 180.885h19.91v10.008h-19.91zM162.784 120.84h87.555v10.008h-87.556zM162.784 75.807h180.458v10.007H162.784z"/><path fill="#60C8D5" d="M530.92 10.833h-368.5v-10h368.5v10zm-59.78 15H162.42v-10h308.72v10zm-34.798 15h-273.92v-10h273.92v10zm-46.397 15H162.42v-10h227.525v10zm-17.845 15H162.42v-10H372.1v10zm-91.01 30H162.42v-10h118.67v10zm-15.168 15h-103.5v-10h103.5v10zm-16.953 30h-86.55v-10h86.55v10zm-18.738 15h-67.81v-10h67.81v10zm-26.768 15H162.42v-10h41.044v10zm-32.12 45h-8.923v-10h8.923v10z"/><text transform="translate(176.573 218.911)" fill="#808285" class="heavy" font-size="8">0.6</text><text transform="translate(180.67 203.899)" fill="#808285" class="heavy" font-size="8">0.8</text><text transform="translate(189.559 188.889)" fill="#808285" class="heavy" font-size="8">1.3</text><text transform="translate(212.996 173.877)" fill="#808285" class="heavy" font-size="8">2.7</text><text transform="translate(242.353 158.866)" fill="#808285" class="heavy" font-size="8">4.4</text><text transform="translate(255.567 143.855)" fill="#808285" class="heavy" font-size="8">5.7</text><text transform="translate(257.378 128.844)" fill="#808285" class="heavy" font-size="8">5.8</text><text transform="translate(275.065 113.832)" fill="#808285" class="heavy" font-size="8">6.8</text><text transform="translate(292.334 98.821)" fill="#808285" class="heavy" font-size="8">7.9</text><text transform="translate(348.654 83.811)" fill="#808285" class="heavy" font-size="8">11.9</text><text transform="translate(381.178 68.799)" fill="#808285" class="heavy" font-size="8">13.9</text><text transform="translate(397.818 53.788)" fill="#808285" class="heavy" font-size="8">15.0</text><text transform="translate(445.675 38.776)" fill="#808285" class="heavy" font-size="8">18.1</text><text transform="translate(480.465 23.766)" fill="#808285" class="heavy" font-size="8">20.4</text><text transform="translate(535.708 8.754)" fill="#808285" class="heavy" font-size="8">24.4</text><text transform="translate(126.584 218.422)" fill="#4E4E4E" font-size="8">Utilities</text><text transform="translate(129.464 203.41)" fill="#4E4E4E" font-size="8">Mining</text><text transform="translate(10.385 188.399)" fill="#4E4E4E" font-size="8">Agriculture, forestry, ﬁshing, and hunting</text><text transform="translate(112.38 173.388)" fill="#4E4E4E" font-size="8">Information</text><text transform="translate(39.697 158.377)" fill="#4E4E4E" font-size="8">Transportation and warehousing</text><text transform="translate(114.824 143.365)" fill="#4E4E4E" font-size="8">Wholesale</text><text transform="translate(108.024 128.355)" fill="#4E4E4E" font-size="8">Construction</text><text transform="translate(30.669 113.343)" fill="#4E4E4E" font-size="8">Other services, except government</text><text transform="translate(31.661 98.332)" fill="#4E4E4E" font-size="8">Finance, insurance, real estate, etc.</text><text transform="translate(102.108 83.32)" fill="#4E4E4E" font-size="8">Manufacturing</text><text transform="translate(18.153 68.31)" fill="#4E4E4E" font-size="8">Arts, entertainment, food services, etc.</text><text transform="translate(133.932 53.299)" fill="#4E4E4E" font-size="8">Retail</text><text transform="translate(33.669 38.287)" fill="#4E4E4E" font-size="8">Professional and business services</text><text transform="translate(-.315 23.276)" fill="#4E4E4E" font-size="8">Education, health care, and social assistance</text><text transform="translate(109.576 8.265)" fill="#4E4E4E" font-size="8">Government</text></svg>