<svg xmlns="http://www.w3.org/2000/svg" width="561" height="252" viewBox="0 0 561 252"><path fill="none" stroke="#D9D9D8" stroke-width=".5" stroke-linejoin="round" stroke-miterlimit="10" d="M43.667 109.66H561"/><path fill="#6D6E71" d="M436.308 126.486l-.946-.323.322-.946.946.323-.322.946zm-1.893-.646l-.946-.323.32-.946.947.324-.322.946zm-1.894-.645l-.945-.323.322-.946.946.323-.322.945zm-1.89-.646l-.947-.324.322-.946.946.323-.32.946zm-1.895-.646l-.946-.323.32-.945.947.323-.322.946zm-1.892-.645l-.946-.324.322-.946.945.323-.322.946zm-1.893-.647l-.947-.323.322-.946.947.323-.322.946zm-1.893-.645l-.946-.323.323-.946.946.322-.323.946zm-1.893-.646l-.946-.322.322-.946.946.323-.322.945zm-1.893-.645l-.945-.323.322-.946.946.323-.322.947zm-1.892-.646l-.946-.322.322-.946.946.323-.322.946zm-1.894-.644l-.946-.322.322-.946.946.322-.322.946zm-1.892-.645l-.946-.322.322-.946.946.323-.322.946zm-1.893-.645l-.948-.323.322-.946.947.323-.32.945zm-1.894-.645l-.946-.323.322-.946.946.324-.322.946zM406.99 116.362l-.688-.223.31-.952.687.223-.31.952zm-1.638-.532l-.95-.31.308-.95.95.31-.308.95zm-1.902-.618l-.95-.31.308-.95.95.31-.308.95zm-1.902-.618l-.95-.31.308-.95.95.31-.308.95zm-1.902-.618l-.95-.31.308-.95.95.31-.308.95zm-1.903-.618l-.95-.31.308-.95.952.31-.31.95zm-1.902-.618l-.95-.31.31-.95.95.31-.31.95zm-1.902-.617l-.95-.31.31-.95.95.31-.31.95zm-1.9-.62l-.952-.308.31-.95.95.308-.31.95zm-1.903-.616l-.95-.31.308-.95.95.31-.308.95zm-1.903-.618l-.95-.31.308-.95.95.308-.308.95zm-1.902-.62l-.95-.308.308-.95.95.308-.308.95zm-1.902-.617l-.95-.31.308-.95.95.31-.308.95zm-1.902-.618l-.95-.31.308-.95.95.31-.308.95zm-1.902-.618l-.95-.31.308-.95.95.31-.308.95zm-1.902-.617l-.95-.31.308-.95.95.31-.308.95z"/><circle fill-rule="evenodd" clip-rule="evenodd" fill="#F8981D" cx="407.669" cy="116.188" r="1.417"/><path fill="none" stroke="#D9D9D8" stroke-width=".5" stroke-linejoin="round" stroke-miterlimit="10" d="M43.667 202.925H561M43.667 171.68H561M43.667 140.437H561M43.667 78.415H561M43.667 47.17H561M43.667 16.394H561"/><path fill="none" stroke="#9B9B9B" stroke-width=".5" stroke-linejoin="round" stroke-miterlimit="10" d="M43.667 233.702H561M43.667 231.837v4.197M115.574 231.837v4.197M187.48 231.837v4.197M259.39 231.837v4.197M331.297 231.837v4.197M403.204 231.837v4.197M475.11 231.837v4.197M547.02 231.837v4.197"/><path fill="#F8981D" d="M130.523 165.685c-.064 0-.13-.006-.193-.02l-14.02-2.762-14.697 2.305c-.103.016-.207.016-.31 0l-14.872-2.332-14.184-3.26-14.645-.92-14.052 3.233c-.536.128-1.075-.214-1.2-.75-.123-.54.213-1.076.75-1.2l14.196-3.265c.094-.02.192-.028.287-.023l14.872.933c.055.003.108.012.162.023l14.195 3.265 14.647 2.295 14.716-2.31c.116-.018.233-.015.348.008l13.576 2.675 14.494-19.542c.17-.23.432-.376.718-.4.282-.03.567.073.775.272l13.905 13.247h14.172l14.62-9.628c.2-.134.443-.19.68-.157l13.962 1.834 14.442-4.98 14.038-13.374c.17-.163.393-.26.627-.274l14.87-.934c.084-.004.173 0 .257.017l14.067 2.774 14.743-.926 14.81-1.858 14.092-1.39 14.745-5.55 14.063-6.006 14.79-10.2c.14-.098.303-.157.473-.173l14.872-1.4c.042-.003.08-.005.127-.003l14.195.466c.552.018.984.48.966 1.032-.017.553-.468 1.007-1.03.967l-14.134-.464-14.548 1.37-14.657 10.11c-.054.038-.112.07-.174.096l-14.195 6.063-14.91 5.61c-.08.032-.167.052-.254.06l-14.197 1.4-14.844 1.86-14.934.94c-.084.004-.172 0-.256-.017L247.4 131.65l-14.38.9-13.93 13.272c-.105.1-.23.175-.365.222l-14.87 5.13c-.148.05-.304.066-.458.046l-13.826-1.816-14.56 9.588c-.162.107-.353.165-.55.165h-14.87c-.258 0-.505-.1-.69-.276l-13.377-12.742-14.197 19.143c-.19.257-.49.405-.803.405z"/><path fill="none" stroke="#F8981D" stroke-width="2" stroke-linecap="round" stroke-linejoin="round" stroke-miterlimit="10" d="M437.41 125.98l14.195-6.528 14.873-5.596 14.194-6.528 14.872-6.062 14.87 13.99 14.195-1.866 14.87-23.783 14.197-42.902"/><path fill="none" stroke="#E81F64" stroke-width="2" stroke-linecap="round" stroke-linejoin="round" stroke-miterlimit="10" d="M43.324 155.36l14.195-3.265 14.87.932 14.195.466 14.873.933 14.87-1.4 14.195-3.73 14.87-9.79 14.196-3.734 14.87-2.797 14.872-7.927h14.195l14.87-5.13 14.196-1.865 14.872 2.332 14.194-1.865 14.87-2.798 14.87-.933 14.2-3.732 14.87-3.264 14.194-6.062 14.87-10.26 14.872-6.528 14.197-6.995 14.87-4.198 14.196 20.52 14.87 6.527 14.87-5.597 14.195-11.192 14.873-9.325 14.194-6.062 14.872-.467 14.87 19.12 14.195 8.393 14.87-6.996 14.197-6.995"/><g fill="#4E4E4E"><path d="M26.924 236.975c-.373-.037-.712-.137-1.02-.297-.305-.162-.57-.37-.79-.62l.25-.407c.023-.036.054-.067.09-.09.038-.022.078-.034.12-.034.06 0 .126.03.2.094.074.064.165.137.272.22.107.08.236.16.386.235.15.076.33.13.538.156l.17-2.655c-.215-.07-.426-.148-.634-.236-.208-.09-.394-.206-.56-.347-.164-.143-.296-.32-.396-.535s-.15-.484-.15-.807c0-.243.044-.48.132-.712.088-.232.216-.438.386-.617.17-.18.377-.327.624-.442.246-.115.528-.18.845-.193l.046-.72c.003-.063.025-.12.067-.17.042-.05.096-.075.164-.075h.305l-.066.99c.323.043.603.135.838.27.236.138.444.302.626.495l-.2.33c-.06.1-.13.15-.21.15-.044 0-.097-.02-.16-.063s-.14-.09-.227-.146c-.087-.055-.19-.11-.31-.164-.117-.055-.252-.094-.403-.117l-.152 2.42c.222.072.44.152.656.24.216.086.41.197.583.334.172.136.312.308.418.513.107.205.16.46.16.768 0 .3-.046.58-.14.845s-.226.496-.403.695c-.177.2-.395.363-.65.488-.258.125-.55.197-.88.217l-.057.88c-.003.064-.026.12-.07.167-.042.05-.096.074-.16.074h-.306l.07-1.13zm-.748-5.416c0 .16.026.3.078.417.053.12.125.223.217.313s.2.168.324.236c.123.066.257.125.402.18l.14-2.256c-.2.02-.375.064-.52.13-.147.067-.268.15-.36.25-.095.1-.165.214-.21.34-.047.123-.07.254-.07.39zm2.563 3.32c0-.167-.03-.31-.086-.43-.057-.12-.135-.224-.233-.312-.098-.086-.213-.16-.346-.225-.132-.063-.274-.12-.425-.174l-.158 2.49c.204-.022.382-.07.536-.144.154-.076.284-.172.39-.29.106-.114.186-.25.24-.405.054-.154.08-.324.08-.51zM35.1 233.334c0 .627-.064 1.17-.188 1.63-.125.456-.295.835-.51 1.136-.216.3-.47.523-.765.67s-.61.22-.944.22c-.34 0-.654-.073-.945-.22-.29-.146-.544-.37-.76-.67-.215-.3-.385-.68-.508-1.137-.123-.46-.185-1.002-.185-1.63s.062-1.17.185-1.628c.123-.46.292-.842.508-1.143.216-.303.47-.525.76-.674.29-.146.606-.22.945-.22.335 0 .65.073.944.22.294.148.55.37.765.674.215.3.386.682.51 1.143.125.46.187 1.002.187 1.63zm-.855 0c0-.547-.042-1.006-.127-1.377-.085-.37-.2-.67-.342-.898-.143-.228-.31-.39-.497-.487s-.384-.148-.587-.148-.4.05-.586.148c-.188.098-.353.26-.495.486-.142.228-.254.526-.34.897-.083.37-.126.83-.126 1.377s.042 1.006.127 1.375c.085.37.198.667.34.895.14.227.306.39.494.486.188.1.383.15.586.15s.398-.052.586-.15.353-.26.496-.485c.143-.23.257-.525.342-.896.084-.37.127-.83.127-1.376z"/></g><g fill="#4E4E4E"><path d="M16.2 205.94c-.372-.036-.71-.136-1.018-.298-.306-.162-.57-.367-.792-.617l.25-.41c.024-.037.055-.066.092-.09s.077-.035.12-.035c.06 0 .125.03.2.096.073.063.164.135.27.217.108.082.237.16.387.238.148.077.328.128.537.155l.17-2.654c-.215-.07-.426-.15-.634-.237s-.394-.203-.56-.346c-.164-.14-.296-.318-.396-.533-.1-.217-.15-.484-.15-.81 0-.24.044-.48.132-.712.087-.23.215-.438.385-.617s.377-.328.624-.44c.245-.116.527-.18.844-.194l.046-.72c.003-.063.025-.12.067-.17.042-.05.096-.074.164-.074h.306l-.065.99c.324.043.604.133.84.27.235.137.443.303.625.494l-.2.33c-.06.102-.13.15-.21.15-.044 0-.097-.02-.16-.063l-.227-.145s-.19-.11-.31-.164c-.118-.057-.253-.096-.404-.12l-.152 2.42c.222.075.44.155.656.24.215.09.41.2.582.337s.312.307.418.512c.106.205.16.46.16.768 0 .3-.047.582-.14.846s-.227.495-.404.696c-.177.2-.395.36-.65.486-.258.125-.55.197-.88.22l-.057.878c-.003.064-.026.12-.07.168-.042.05-.096.072-.16.072h-.306l.07-1.13zm-.747-5.415c0 .16.026.3.078.418.054.117.126.223.218.313s.2.168.323.234.258.127.403.18l.14-2.254c-.2.02-.375.063-.52.13-.147.065-.268.15-.36.25-.095.1-.165.212-.21.337-.047.125-.07.256-.07.392zm2.563 3.32c0-.165-.028-.31-.085-.43-.056-.12-.134-.224-.232-.31-.1-.086-.214-.162-.347-.225-.13-.064-.273-.123-.424-.176l-.157 2.49c.203-.02.38-.068.535-.143.154-.073.284-.17.39-.286s.186-.252.24-.408c.054-.153.08-.325.08-.51zM22.024 198.635c.28 0 .542.045.785.135.242.092.453.223.632.393.18.172.32.38.42.63.102.245.152.524.152.84 0 .265-.037.513-.11.74-.075.23-.175.446-.3.653-.127.207-.272.408-.438.605-.165.196-.34.396-.524.595l-1.746 1.932c.123-.037.248-.066.374-.088.126-.022.248-.034.365-.034h2.217c.09 0 .16.03.212.086s.08.13.08.22v.54h-4.417v-.305c0-.064.012-.13.037-.195.024-.066.063-.13.115-.186L22 202.89c.174-.192.334-.378.48-.558.144-.178.267-.357.37-.537.1-.18.18-.36.234-.547.055-.186.083-.383.083-.592 0-.21-.03-.395-.092-.553s-.146-.29-.252-.393c-.106-.104-.23-.182-.376-.232-.145-.053-.3-.078-.467-.078-.17 0-.325.027-.466.08s-.267.127-.376.223-.2.207-.275.338c-.074.13-.126.274-.157.43-.037.118-.087.194-.15.233s-.152.05-.266.033l-.43-.08c.043-.328.127-.617.252-.87.125-.25.282-.46.47-.63s.407-.3.65-.39.51-.13.792-.13zM30.148 202.3c0 .628-.063 1.17-.187 1.628s-.294.838-.51 1.137c-.215.3-.47.523-.764.672-.294.146-.61.22-.944.22-.34 0-.654-.073-.945-.22-.29-.148-.544-.37-.76-.672-.215-.3-.385-.678-.508-1.137s-.186-1-.186-1.627.062-1.17.185-1.63c.122-.46.29-.84.507-1.143.216-.3.47-.525.76-.672.29-.146.606-.22.945-.22.335 0 .65.073.944.22s.55.37.765.672c.216.303.387.684.51 1.143.126.46.188 1.004.188 1.63zm-.854 0c0-.546-.042-1.005-.127-1.376-.085-.373-.2-.672-.342-.898s-.31-.39-.497-.488c-.188-.098-.383-.146-.586-.146s-.4.05-.586.146c-.188.1-.353.262-.495.488s-.253.525-.338.898c-.084.37-.127.83-.127 1.377s.042 1.005.127 1.376c.085.37.198.668.34.895s.306.39.494.49c.188.097.383.145.586.145s.398-.05.586-.146c.188-.1.354-.263.497-.49s.257-.524.342-.894c.084-.37.127-.828.127-1.375zM35.35 202.3c0 .628-.064 1.17-.188 1.628s-.295.838-.51 1.137c-.216.3-.47.523-.765.672-.294.146-.61.22-.944.22-.34 0-.654-.073-.945-.22-.29-.148-.544-.37-.76-.672-.215-.3-.385-.678-.508-1.137s-.185-1-.185-1.627.062-1.17.185-1.63c.123-.46.292-.84.508-1.143.216-.3.47-.525.76-.672.29-.146.606-.22.945-.22.335 0 .65.073.944.22s.55.37.765.672c.215.303.386.684.51 1.143.125.46.187 1.004.187 1.63zm-.855 0c0-.546-.042-1.005-.127-1.376-.085-.373-.2-.672-.342-.898s-.31-.39-.497-.488c-.19-.098-.384-.146-.587-.146s-.4.05-.586.146c-.188.1-.353.262-.495.488s-.254.525-.34.898c-.083.37-.126.83-.126 1.377s.042 1.005.127 1.376c.085.37.198.668.34.895s.306.39.494.49c.188.097.383.145.586.145s.398-.05.586-.146c.187-.1.353-.263.496-.49s.257-.524.342-.894c.084-.37.127-.828.127-1.375z"/></g><g fill="#4E4E4E"><path d="M16.2 174.906c-.372-.036-.71-.136-1.018-.297-.306-.163-.57-.37-.792-.62l.25-.408c.024-.037.055-.067.092-.09.037-.023.077-.035.12-.035.06 0 .125.03.2.095.073.063.164.136.27.218.108.08.237.16.387.237.148.076.328.128.537.155l.17-2.655c-.215-.07-.426-.15-.634-.237-.208-.09-.394-.204-.56-.346-.164-.142-.296-.32-.396-.534-.1-.216-.15-.484-.15-.808 0-.243.044-.48.132-.713s.215-.44.385-.618c.17-.18.377-.328.624-.442.245-.115.527-.18.844-.193l.046-.72c.003-.063.025-.12.067-.17.042-.05.096-.075.164-.075h.306l-.065.99c.324.043.604.134.84.27.235.138.443.303.625.495l-.2.33c-.06.1-.13.15-.21.15-.044 0-.097-.02-.16-.063-.063-.042-.14-.09-.227-.146-.088-.055-.19-.11-.31-.164-.118-.056-.253-.095-.404-.118l-.152 2.42c.222.073.44.153.656.24.215.087.41.198.582.335.172.138.312.31.418.514.106.205.16.46.16.768 0 .3-.047.58-.14.845s-.227.495-.404.695c-.177.2-.395.362-.65.487-.258.124-.55.196-.88.217l-.057.88c-.003.063-.026.12-.07.167-.042.05-.096.073-.16.073h-.306l.07-1.13zm-.747-5.415c0 .16.026.3.078.42.054.117.126.222.218.312s.2.168.323.235c.124.066.258.126.403.18l.14-2.255c-.2.02-.375.063-.52.13-.147.066-.268.15-.36.25-.095.1-.165.213-.21.338-.047.125-.07.255-.07.39zm2.563 3.322c0-.166-.028-.31-.085-.43-.056-.12-.134-.224-.232-.31-.1-.087-.214-.162-.347-.226s-.273-.122-.424-.175l-.157 2.49c.203-.02.38-.067.535-.142.154-.075.284-.17.39-.288.106-.116.186-.252.24-.407.054-.154.08-.325.08-.51zM23.387 172.262h1.002v.51c0 .054-.016.1-.044.135-.03.037-.075.056-.137.056h-.823v1.885h-.72v-1.885h-2.94c-.06 0-.114-.02-.158-.058-.046-.038-.074-.086-.086-.143l-.083-.455 3.22-4.625h.767v4.58zm-.72-2.955c0-.087.002-.18.007-.282.005-.102.015-.206.03-.313l-2.41 3.55h2.373v-2.955zM30.148 171.267c0 .627-.063 1.17-.187 1.628-.124.458-.294.837-.51 1.137-.215.3-.47.523-.764.67-.294.147-.61.22-.944.22-.34 0-.654-.072-.945-.22-.29-.146-.544-.37-.76-.67-.215-.3-.385-.68-.508-1.137-.124-.46-.186-1-.186-1.628s.062-1.17.185-1.63.29-.84.507-1.143c.216-.302.47-.525.76-.673.29-.145.606-.22.945-.22.335 0 .65.074.944.22.294.148.55.372.765.674.216.302.387.683.51 1.143s.188 1.003.188 1.63zm-.854 0c0-.547-.042-1.006-.127-1.377-.085-.372-.2-.67-.342-.898-.143-.227-.31-.39-.497-.487-.188-.098-.383-.147-.586-.147s-.4.05-.586.147c-.188.1-.353.26-.495.487-.14.228-.253.526-.338.898-.084.37-.127.83-.127 1.377s.042 1.005.127 1.375c.085.37.198.668.34.896.14.227.306.39.494.487.188.098.383.147.586.147s.398-.05.586-.147c.188-.1.354-.26.497-.487.143-.228.257-.525.342-.896.084-.37.127-.83.127-1.375zM35.35 171.267c0 .627-.064 1.17-.188 1.628-.125.458-.295.837-.51 1.137-.216.3-.47.523-.765.67-.294.147-.61.22-.944.22-.34 0-.654-.072-.945-.22-.29-.146-.544-.37-.76-.67-.215-.3-.385-.68-.508-1.137-.123-.46-.185-1-.185-1.628s.062-1.17.185-1.63.292-.84.508-1.143c.216-.302.47-.525.76-.673.29-.145.606-.22.945-.22.335 0 .65.074.944.22.294.148.55.372.765.674.215.302.386.683.51 1.143s.187 1.003.187 1.63zm-.855 0c0-.547-.042-1.006-.127-1.377-.085-.372-.2-.67-.342-.898-.143-.227-.31-.39-.497-.487-.19-.098-.384-.147-.587-.147s-.4.05-.586.147c-.188.1-.353.26-.495.487-.142.228-.254.526-.34.898-.083.37-.126.83-.126 1.377s.042 1.005.127 1.375c.085.37.198.668.34.896.14.227.306.39.494.487.188.098.383.147.586.147s.398-.05.586-.147c.187-.1.353-.26.496-.487.143-.228.257-.525.342-.896.084-.37.127-.83.127-1.375z"/></g><g fill="#4E4E4E"><path d="M16.2 143.873c-.372-.036-.71-.136-1.018-.297-.306-.162-.57-.368-.792-.618l.25-.41c.024-.036.055-.066.092-.09.037-.022.077-.034.12-.034.06 0 .125.03.2.095.073.062.164.135.27.217.108.08.237.16.387.237.148.076.328.128.537.155l.17-2.656c-.215-.07-.426-.15-.634-.237-.208-.09-.394-.204-.56-.346-.164-.14-.296-.318-.396-.533-.1-.216-.15-.484-.15-.808 0-.244.044-.482.132-.714s.215-.438.385-.617c.17-.182.377-.33.624-.443.245-.115.527-.18.844-.193l.046-.72c.003-.063.025-.12.067-.17.042-.05.096-.075.164-.075h.306l-.065.99c.324.042.604.133.84.27.235.137.443.302.625.494l-.2.33c-.06.1-.13.15-.21.15-.044 0-.097-.02-.16-.063l-.227-.145c-.088-.055-.19-.11-.31-.164-.118-.055-.253-.094-.404-.117l-.152 2.42c.222.073.44.153.656.24.215.087.41.198.582.335s.312.308.418.513c.106.206.16.462.16.77 0 .3-.047.58-.14.844s-.227.495-.404.695c-.177.2-.395.36-.65.486-.258.125-.55.197-.88.218l-.057.88c-.003.063-.026.12-.07.167-.042.05-.096.074-.16.074h-.306l.07-1.13zm-.747-5.415c0 .16.026.3.078.418.054.118.126.223.218.313s.2.167.323.234c.124.066.258.126.403.18l.14-2.255c-.2.02-.375.062-.52.13-.147.065-.268.15-.36.25-.095.1-.165.212-.21.337-.047.124-.07.255-.07.39zm2.563 3.32c0-.166-.028-.31-.085-.43-.056-.12-.134-.224-.232-.31-.1-.087-.214-.162-.347-.226s-.273-.122-.424-.175l-.157 2.49c.203-.02.38-.068.535-.143.154-.075.284-.17.39-.288.106-.116.186-.252.24-.407.054-.154.08-.325.08-.512zM21.484 139.333c-.062.08-.12.16-.17.235l-.158.226c.157-.117.33-.208.52-.273.19-.063.395-.096.617-.096.268 0 .52.047.757.143.237.095.444.233.62.415.178.182.32.404.424.67.104.265.157.567.157.907 0 .33-.055.636-.166.92s-.266.53-.464.74c-.198.21-.437.374-.716.494-.28.12-.586.18-.92.18-.334 0-.635-.058-.906-.173-.27-.113-.5-.277-.69-.488-.19-.212-.335-.47-.44-.77-.102-.303-.153-.64-.153-1.014 0-.313.063-.647.19-1.002.13-.355.333-.734.613-1.138l1.682-2.445c.043-.06.102-.11.178-.152.075-.04.162-.062.26-.062h.73l-1.964 2.685zm-.9 2.27c0 .23.03.44.09.63.063.19.153.355.272.49.118.138.263.243.434.318s.366.113.584.113c.222 0 .423-.038.603-.115.18-.076.334-.183.462-.32.126-.136.225-.298.294-.484s.104-.39.104-.61c0-.232-.034-.443-.102-.632-.068-.188-.164-.35-.29-.48-.124-.132-.272-.232-.445-.303-.17-.07-.36-.105-.567-.105-.222 0-.422.04-.6.122-.18.082-.33.192-.455.33-.125.14-.22.3-.287.48-.063.18-.097.37-.097.567zM30.148 140.233c0 .627-.063 1.17-.187 1.628-.124.46-.294.838-.51 1.138-.215.3-.47.523-.764.67-.294.147-.61.22-.944.22-.34 0-.654-.072-.945-.22-.29-.146-.544-.37-.76-.67-.215-.3-.385-.68-.508-1.137-.124-.458-.186-1-.186-1.627s.062-1.17.185-1.63.29-.84.507-1.143c.216-.302.47-.525.76-.673.29-.146.606-.22.945-.22.335 0 .65.073.944.22.294.147.55.37.765.673.216.302.387.683.51 1.143s.188 1.003.188 1.63zm-.854 0c0-.547-.042-1.006-.127-1.377-.085-.372-.2-.67-.342-.898-.143-.227-.31-.39-.497-.487-.188-.097-.383-.146-.586-.146s-.4.05-.586.147c-.188.1-.353.262-.495.488-.14.228-.253.526-.338.898-.084.37-.127.83-.127 1.377s.042 1.005.127 1.375c.085.37.198.668.34.896.14.227.306.39.494.487.188.1.383.148.586.148s.398-.05.586-.147c.188-.098.354-.26.497-.486.143-.228.257-.525.342-.896.084-.37.127-.828.127-1.375zM35.35 140.233c0 .627-.064 1.17-.188 1.628-.125.46-.295.838-.51 1.138-.216.3-.47.523-.765.67-.294.147-.61.22-.944.22-.34 0-.654-.072-.945-.22-.29-.146-.544-.37-.76-.67-.215-.3-.385-.68-.508-1.137-.123-.458-.185-1-.185-1.627s.062-1.17.185-1.63.292-.84.508-1.143c.216-.302.47-.525.76-.673.29-.146.606-.22.945-.22.335 0 .65.073.944.22.294.147.55.37.765.673.215.302.386.683.51 1.143s.187 1.003.187 1.63zm-.855 0c0-.547-.042-1.006-.127-1.377-.085-.372-.2-.67-.342-.898-.143-.227-.31-.39-.497-.487-.19-.097-.384-.146-.587-.146s-.4.05-.586.147c-.188.1-.353.262-.495.488-.142.228-.254.526-.34.898-.083.37-.126.83-.126 1.377s.042 1.005.127 1.375c.085.37.198.668.34.896.14.227.306.39.494.487.188.1.383.148.586.148s.398-.05.586-.147c.187-.098.353-.26.496-.486.143-.228.257-.525.342-.896.084-.37.127-.828.127-1.375z"/></g><g fill="#4E4E4E"><path d="M16.2 112.84c-.372-.037-.71-.136-1.018-.297-.306-.162-.57-.368-.792-.618l.25-.41c.024-.037.055-.066.092-.09s.077-.035.12-.035c.06 0 .125.032.2.095.073.063.164.136.27.217.108.082.237.16.387.238.148.077.328.128.537.155l.17-2.655c-.215-.07-.426-.15-.634-.238s-.394-.203-.56-.345c-.164-.142-.296-.32-.396-.535s-.15-.484-.15-.808c0-.243.044-.48.132-.712.087-.23.215-.438.385-.618s.377-.327.624-.442c.245-.115.527-.18.844-.192l.046-.72c.003-.063.025-.12.067-.17.042-.05.096-.075.164-.075h.306l-.065.99c.324.043.604.133.84.27.235.137.443.302.625.495l-.2.33c-.06.1-.13.15-.21.15-.044 0-.097-.02-.16-.063-.063-.042-.14-.09-.227-.145s-.19-.11-.31-.165c-.118-.055-.253-.094-.404-.118l-.152 2.42c.222.072.44.152.656.24.215.086.41.197.582.334s.312.308.418.513c.106.205.16.46.16.768 0 .3-.047.582-.14.845-.092.264-.227.495-.404.695-.177.2-.395.362-.65.487-.258.125-.55.197-.88.217l-.057.88c-.003.062-.026.118-.07.166-.042.048-.096.072-.16.072h-.306l.07-1.128zm-.747-5.415c0 .16.026.3.078.417.054.118.126.223.218.313s.2.168.323.235c.124.067.258.127.403.18l.14-2.255c-.2.02-.375.063-.52.13-.147.067-.268.15-.36.25-.095.1-.165.212-.21.337-.047.126-.07.257-.07.393zm2.563 3.32c0-.167-.028-.31-.085-.43-.056-.12-.134-.224-.232-.31-.1-.087-.214-.162-.347-.225s-.273-.122-.424-.175l-.157 2.49c.203-.02.38-.067.535-.143.154-.075.284-.17.39-.288.106-.116.186-.252.24-.407.054-.154.08-.325.08-.512zM21.974 112.86c-.33 0-.63-.047-.905-.143s-.51-.23-.708-.408c-.197-.177-.35-.392-.457-.643-.108-.252-.162-.534-.162-.848 0-.46.11-.84.333-1.14s.54-.51.95-.636c-.347-.14-.61-.35-.787-.627-.178-.278-.267-.61-.267-.998 0-.264.048-.51.144-.74.095-.23.23-.43.406-.6.176-.17.386-.304.63-.4.245-.098.518-.146.82-.146.3 0 .57.048.818.145.247.096.458.23.633.4.176.17.31.37.407.6.095.23.143.476.143.74 0 .386-.09.718-.268.997-.178.278-.44.487-.785.627.413.126.73.34.952.637s.333.68.333 1.14c0 .312-.055.595-.164.847-.108.25-.26.466-.456.642s-.43.312-.705.407-.577.143-.906.143zm0-.71c.216 0 .41-.033.58-.098s.316-.157.435-.275c.117-.118.208-.26.27-.425.064-.165.096-.347.096-.547 0-.247-.038-.458-.113-.632-.076-.175-.177-.317-.305-.428-.127-.11-.274-.19-.44-.242-.167-.052-.34-.078-.523-.078s-.355.026-.522.078c-.166.052-.313.132-.44.242-.13.11-.23.252-.306.428-.076.175-.113.386-.113.632 0 .2.032.383.095.547.062.165.153.307.27.425s.264.21.435.275.363.098.58.098zm0-3.44c.216 0 .4-.036.552-.108.152-.07.276-.167.372-.285s.165-.254.208-.408c.043-.154.064-.313.064-.476 0-.167-.025-.323-.076-.47s-.126-.275-.226-.385c-.1-.11-.225-.197-.375-.26s-.322-.096-.52-.096c-.197 0-.37.032-.52.095s-.274.15-.374.26c-.1.11-.177.238-.228.384s-.076.303-.076.47c0 .164.02.322.065.475.044.152.113.29.21.407.095.118.22.213.37.285.154.072.338.108.554.108zM30.148 109.2c0 .627-.063 1.17-.187 1.627-.124.458-.294.837-.51 1.138-.215.3-.47.523-.764.67s-.61.22-.944.22c-.34 0-.654-.074-.945-.22-.29-.146-.544-.37-.76-.67-.215-.3-.385-.68-.508-1.138-.124-.458-.186-1-.186-1.627 0-.626.062-1.17.185-1.63s.29-.84.507-1.143c.216-.302.47-.526.76-.672.29-.147.606-.22.945-.22.335 0 .65.073.944.22.294.146.55.37.765.672.216.302.387.683.51 1.143s.188 1.004.188 1.63zm-.854 0c0-.546-.042-1.006-.127-1.377-.085-.372-.2-.67-.342-.897s-.31-.39-.497-.487c-.188-.1-.383-.15-.586-.15s-.4.05-.586.15c-.188.097-.353.26-.495.486s-.253.526-.338.897c-.084.372-.127.83-.127 1.377s.042 1.005.127 1.375c.085.37.198.668.34.895s.306.39.494.488c.188.098.383.147.586.147s.398-.05.586-.147c.188-.1.354-.26.497-.488s.257-.525.342-.895c.084-.37.127-.828.127-1.375zM35.35 109.2c0 .627-.064 1.17-.188 1.627-.125.458-.295.837-.51 1.138-.216.3-.47.523-.765.67s-.61.22-.944.22c-.34 0-.654-.074-.945-.22-.29-.146-.544-.37-.76-.67-.215-.3-.385-.68-.508-1.138-.123-.458-.185-1-.185-1.627 0-.626.062-1.17.185-1.63s.292-.84.508-1.143c.216-.302.47-.526.76-.672.29-.147.606-.22.945-.22.335 0 .65.073.944.22.294.146.55.37.765.672.215.302.386.683.51 1.143s.187 1.004.187 1.63zm-.855 0c0-.546-.042-1.006-.127-1.377-.085-.372-.2-.67-.342-.897s-.31-.39-.497-.487c-.19-.1-.384-.15-.587-.15s-.4.05-.586.15c-.188.097-.353.26-.495.486s-.254.526-.34.897c-.083.372-.126.83-.126 1.377s.042 1.005.127 1.375c.085.37.198.668.34.895s.306.39.494.488c.188.098.383.147.586.147s.398-.05.586-.147c.187-.1.353-.26.496-.488s.257-.525.342-.895c.084-.37.127-.828.127-1.375z"/></g><g fill="#4E4E4E"><path d="M8.552 81.807c-.372-.037-.712-.136-1.018-.298-.306-.163-.57-.37-.792-.62l.25-.41c.024-.036.055-.065.092-.09s.077-.034.12-.034c.06 0 .125.032.2.095.073.064.164.137.27.218.108.082.237.16.387.238.15.077.33.128.54.155l.17-2.654c-.216-.07-.427-.15-.635-.238s-.394-.203-.56-.345c-.164-.142-.296-.32-.396-.535s-.15-.484-.15-.808c0-.243.043-.48.13-.712.09-.23.217-.438.387-.618s.377-.327.624-.442c.247-.115.53-.18.846-.192l.046-.72c.003-.063.025-.12.067-.17.04-.05.095-.075.163-.075h.305l-.065.99c.323.044.603.134.838.27.237.138.445.303.627.496l-.2.33c-.06.1-.13.15-.21.15-.044 0-.097-.02-.16-.063-.063-.042-.14-.09-.227-.145s-.19-.11-.31-.165c-.118-.055-.253-.094-.404-.118l-.152 2.42c.222.073.44.153.656.24.215.087.41.198.582.335s.312.308.418.513c.106.205.16.46.16.768 0 .3-.047.583-.14.846-.092.264-.227.495-.404.695-.177.2-.395.363-.65.488-.258.125-.55.197-.88.217l-.057.88c-.004.063-.027.12-.07.167-.043.048-.097.072-.162.072h-.305l.07-1.127zm-.748-5.415c0 .16.026.3.078.417.053.117.125.222.217.312s.2.168.322.235c.123.067.257.127.402.18l.14-2.255c-.2.02-.375.063-.52.13-.147.067-.268.15-.36.25-.095.1-.165.212-.21.337-.047.124-.07.255-.07.392zm2.563 3.32c0-.168-.028-.31-.085-.43-.057-.12-.135-.225-.233-.31-.1-.088-.215-.163-.348-.226s-.274-.122-.425-.175l-.157 2.49c.204-.02.382-.066.536-.142.154-.075.284-.17.39-.288.106-.116.186-.252.24-.407.054-.154.08-.325.08-.512zM12.8 81.066h1.42V76.18c0-.14.003-.288.013-.444l-1.178 1.095c-.04.038-.08.06-.12.068s-.077.01-.11.002c-.035-.006-.066-.02-.096-.04s-.053-.042-.068-.065l-.26-.385 1.973-1.845h.67v6.5h1.302v.68H12.8v-.68zM17.914 81.13c0-.155.05-.29.15-.4.1-.11.233-.164.4-.164.09 0 .173.02.244.055s.13.088.178.153.084.14.11.225c.023.085.036.178.036.277 0 .15-.02.306-.058.468s-.096.322-.17.48c-.077.158-.168.313-.276.462s-.23.29-.37.415l-.138-.145c-.025-.023-.042-.045-.05-.065s-.015-.045-.015-.075c0-.023.007-.046.02-.07.015-.023.03-.045.05-.065.03-.037.07-.086.117-.147.048-.062.096-.133.146-.212.05-.08.095-.167.136-.264s.072-.2.09-.31h-.06c-.16 0-.29-.058-.39-.172-.1-.115-.15-.262-.15-.443zM24.375 78.167c0 .627-.063 1.17-.187 1.627-.125.458-.295.837-.51 1.138-.216.3-.47.523-.765.67s-.61.22-.944.22c-.34 0-.655-.074-.946-.22-.29-.146-.544-.37-.76-.67-.215-.3-.385-.68-.508-1.138-.123-.458-.185-1-.185-1.627 0-.626.063-1.17.186-1.63s.292-.84.508-1.143c.216-.302.47-.526.76-.672.29-.147.606-.22.945-.22.334 0 .65.073.943.22.294.146.55.37.765.672.215.302.386.683.51 1.143s.187 1.003.187 1.63zm-.854 0c0-.546-.04-1.006-.126-1.377-.085-.372-.2-.67-.342-.897s-.31-.39-.497-.487c-.188-.1-.383-.148-.586-.148s-.4.05-.587.148c-.188.098-.353.26-.495.487s-.254.526-.34.897c-.083.372-.126.83-.126 1.377s.042 1.005.127 1.375c.084.37.197.668.338.895s.307.39.495.488c.188.098.383.147.586.147s.397-.05.585-.147c.188-.1.354-.26.497-.488s.257-.525.342-.895c.084-.37.127-.83.127-1.375zM29.576 78.167c0 .627-.063 1.17-.187 1.627-.126.458-.296.837-.51 1.138-.217.3-.472.523-.766.67s-.61.22-.944.22c-.34 0-.654-.074-.945-.22-.29-.146-.544-.37-.76-.67-.215-.3-.385-.68-.508-1.138-.123-.458-.185-1-.185-1.627 0-.626.062-1.17.185-1.63s.292-.84.508-1.143c.216-.302.47-.526.76-.672.29-.147.606-.22.945-.22.335 0 .65.073.944.22.294.146.55.37.765.672.214.302.385.683.51 1.143s.186 1.003.186 1.63zm-.855 0c0-.546-.04-1.006-.126-1.377-.085-.372-.2-.67-.342-.897s-.31-.39-.497-.487c-.188-.1-.383-.148-.586-.148s-.4.05-.587.148c-.188.098-.353.26-.495.487s-.254.526-.34.897c-.083.372-.126.83-.126 1.377s.042 1.005.127 1.375c.084.37.197.668.338.895s.307.39.495.488c.188.098.383.147.586.147s.397-.05.585-.147c.188-.1.354-.26.497-.488s.257-.525.342-.895c.085-.37.127-.83.127-1.375zM35.35 78.167c0 .627-.064 1.17-.188 1.627-.125.458-.295.837-.51 1.138-.216.3-.47.523-.765.67s-.61.22-.944.22c-.34 0-.654-.074-.945-.22-.29-.146-.544-.37-.76-.67-.215-.3-.385-.68-.508-1.138-.123-.458-.185-1-.185-1.627 0-.626.062-1.17.185-1.63s.292-.84.508-1.143c.216-.302.47-.526.76-.672.29-.147.606-.22.945-.22.335 0 .65.073.944.22.294.146.55.37.765.672.215.302.386.683.51 1.143s.187 1.003.187 1.63zm-.856 0c0-.546-.042-1.006-.127-1.377-.085-.372-.2-.67-.342-.897s-.31-.39-.497-.487c-.188-.1-.383-.148-.586-.148s-.4.05-.586.148c-.188.098-.353.26-.495.487s-.253.526-.338.897c-.084.372-.127.83-.127 1.377s.042 1.005.127 1.375c.085.37.198.668.34.895s.306.39.494.488c.188.098.383.147.586.147s.398-.05.586-.147c.188-.1.354-.26.497-.488s.257-.525.342-.895c.085-.37.127-.83.127-1.375z"/></g><g fill="#4E4E4E"><path d="M8.552 50.773c-.373-.037-.712-.136-1.02-.297-.305-.162-.57-.368-.79-.618l.25-.41c.023-.037.054-.066.09-.09s.078-.035.12-.035c.06 0 .126.032.2.095.074.063.165.136.272.217.107.082.236.16.386.238.15.077.33.128.538.155l.17-2.655c-.215-.07-.426-.15-.634-.238s-.394-.203-.56-.345c-.164-.142-.296-.32-.396-.535s-.15-.484-.15-.808c0-.243.044-.48.132-.712.088-.23.216-.438.386-.618s.377-.327.624-.442c.246-.115.528-.18.845-.192l.046-.72c.004-.063.026-.12.068-.17.042-.05.096-.075.164-.075h.305l-.065.99c.323.043.603.133.838.27.236.137.444.302.626.495l-.2.33c-.06.1-.13.15-.21.15-.044 0-.097-.02-.16-.063-.063-.042-.14-.09-.227-.145s-.192-.11-.31-.165c-.12-.055-.254-.094-.405-.118l-.152 2.42c.222.073.44.153.656.24.214.087.408.198.58.335.173.137.313.308.42.513.105.205.158.46.158.768 0 .3-.046.582-.14.845-.09.264-.226.495-.403.695-.177.2-.395.362-.65.487-.258.125-.55.197-.88.217l-.057.88c-.003.063-.026.12-.07.167-.042.047-.096.07-.16.07h-.305l.07-1.127zm-.748-5.415c0 .16.026.3.078.417.053.118.125.223.217.313s.2.168.322.235c.123.067.257.127.402.18l.14-2.255c-.2.02-.375.063-.52.13-.147.067-.268.15-.36.25-.095.1-.165.212-.21.337-.047.125-.07.256-.07.393zm2.563 3.32c0-.167-.028-.31-.085-.43-.057-.12-.135-.224-.233-.31-.1-.087-.215-.162-.348-.225s-.274-.122-.425-.175l-.157 2.49c.204-.02.382-.067.536-.143.154-.075.284-.17.39-.288.106-.116.186-.252.24-.407.054-.155.08-.325.08-.512zM12.8 50.033h1.42v-4.885c0-.14.003-.29.013-.445l-1.178 1.095c-.04.037-.08.06-.12.067s-.077.01-.11.002c-.035-.006-.066-.02-.096-.04s-.053-.042-.068-.065l-.26-.385 1.973-1.845h.67v6.5h1.302v.68H12.8v-.68zM17.914 50.098c0-.156.05-.29.15-.4.1-.11.233-.165.4-.165.09 0 .173.02.244.055s.13.087.178.152.084.14.11.225c.023.085.036.178.036.277 0 .15-.02.306-.058.468s-.096.322-.17.48c-.077.158-.168.313-.276.462s-.23.29-.37.415l-.138-.145c-.025-.023-.042-.045-.05-.065s-.015-.045-.015-.075c0-.023.007-.046.02-.07.015-.023.03-.045.05-.065.03-.037.07-.086.117-.147.048-.062.096-.133.146-.212.05-.08.095-.168.136-.265s.072-.2.09-.31h-.06c-.16 0-.29-.058-.39-.172-.1-.115-.15-.262-.15-.442zM22.024 43.468c.28 0 .542.045.785.135.242.09.453.22.632.393.18.17.32.38.42.627s.152.526.152.84c0 .267-.037.514-.11.743-.075.228-.175.446-.3.652-.127.207-.272.408-.438.605-.165.197-.34.395-.524.595l-1.746 1.93c.123-.037.248-.066.374-.087.126-.02.248-.032.365-.032h2.217c.09 0 .16.03.212.085s.08.13.08.22v.54h-4.417v-.305c0-.063.012-.128.037-.195.024-.066.063-.128.115-.185L22 47.723c.174-.193.334-.38.48-.557.144-.178.267-.357.37-.538.1-.18.18-.362.234-.547.055-.184.083-.382.083-.592s-.03-.394-.092-.552-.146-.29-.252-.393c-.106-.104-.23-.18-.376-.232-.145-.05-.3-.077-.467-.077-.17 0-.325.027-.466.08s-.267.127-.376.222c-.11.095-.2.208-.275.338-.074.13-.126.273-.157.43-.037.117-.087.194-.15.232-.063.04-.152.05-.266.033l-.43-.08c.043-.327.127-.616.252-.867.125-.25.282-.462.47-.632s.407-.3.65-.387.51-.132.792-.132zM29.576 47.133c0 .627-.063 1.17-.187 1.627-.126.458-.296.837-.51 1.138-.217.3-.472.523-.766.67s-.61.22-.944.22c-.34 0-.654-.074-.945-.22-.29-.146-.544-.37-.76-.67-.215-.3-.385-.68-.508-1.138-.123-.458-.185-1-.185-1.627 0-.626.062-1.17.185-1.63s.292-.84.508-1.143c.216-.302.47-.526.76-.672.29-.147.606-.22.945-.22.335 0 .65.073.944.22.294.146.55.37.765.672.214.302.385.683.51 1.143s.186 1.003.186 1.63zm-.855 0c0-.546-.04-1.006-.126-1.377-.085-.372-.2-.67-.342-.897s-.31-.39-.497-.488c-.188-.1-.383-.148-.586-.148s-.4.05-.587.148c-.188.098-.353.26-.495.487s-.254.525-.34.896c-.083.372-.126.83-.126 1.377s.042 1.005.127 1.375c.084.37.197.668.338.895s.307.39.495.488c.188.1.383.148.586.148s.397-.05.585-.147c.188-.098.354-.26.497-.487s.257-.525.342-.895c.085-.37.127-.828.127-1.375zM35.35 47.133c0 .627-.064 1.17-.188 1.627-.125.458-.295.837-.51 1.138-.216.3-.47.523-.765.67s-.61.22-.944.22c-.34 0-.654-.074-.945-.22-.29-.146-.544-.37-.76-.67-.215-.3-.385-.68-.508-1.138-.123-.458-.185-1-.185-1.627 0-.626.062-1.17.185-1.63s.292-.84.508-1.143c.216-.302.47-.526.76-.672.29-.147.606-.22.945-.22.335 0 .65.073.944.22.294.146.55.37.765.672.215.302.386.683.51 1.143s.187 1.003.187 1.63zm-.856 0c0-.546-.042-1.006-.127-1.377-.085-.372-.2-.67-.342-.897s-.31-.39-.497-.488c-.188-.1-.383-.148-.586-.148s-.4.05-.586.148c-.188.098-.353.26-.495.487s-.253.525-.338.896c-.084.372-.127.83-.127 1.377s.042 1.005.127 1.375c.085.37.198.668.34.895s.306.39.494.488c.188.1.383.148.586.148s.398-.05.586-.147c.188-.098.354-.26.497-.487s.257-.525.342-.895c.085-.37.127-.828.127-1.375z"/></g><g fill="#4E4E4E"><path d="M8.71 19.74c-.374-.037-.713-.136-1.02-.297-.306-.162-.57-.368-.792-.618l.25-.41c.024-.037.055-.066.092-.09s.077-.035.12-.035c.06 0 .125.032.2.095.073.063.164.136.27.217.108.082.237.16.387.238.15.077.33.128.538.155l.17-2.655c-.214-.07-.425-.15-.633-.238s-.394-.203-.56-.345c-.164-.142-.296-.32-.396-.535s-.15-.484-.15-.808c0-.243.044-.48.132-.712.088-.23.216-.438.386-.618s.377-.327.624-.442c.246-.115.528-.18.845-.192l.046-.72c.002-.063.024-.12.066-.17.042-.05.096-.075.164-.075h.305l-.065.99c.323.043.603.133.838.27.236.137.444.302.626.495l-.2.33c-.06.1-.13.15-.21.15-.044 0-.097-.02-.16-.063-.063-.042-.14-.09-.227-.145s-.19-.11-.31-.165c-.118-.055-.253-.094-.404-.118l-.153 2.42c.222.073.44.153.656.24.215.087.41.198.582.335s.312.308.418.513c.106.205.16.46.16.768 0 .3-.047.582-.14.845-.092.265-.227.496-.404.696-.177.2-.395.362-.65.487-.258.125-.55.197-.88.217l-.057.88c-.003.063-.026.12-.07.167-.042.05-.095.073-.16.073H8.64l.07-1.13zm-.75-5.415c0 .16.027.3.08.417.052.118.124.223.216.313s.2.168.323.235c.122.067.256.127.4.18l.14-2.255c-.2.02-.374.063-.52.13-.146.067-.267.15-.36.25-.094.1-.164.212-.21.337-.046.125-.07.256-.07.393zm2.564 3.32c0-.167-.028-.31-.085-.43-.058-.12-.136-.224-.234-.31-.1-.087-.214-.162-.347-.225s-.275-.122-.426-.175l-.157 2.49c.204-.02.382-.067.536-.143.154-.075.284-.17.39-.288.106-.116.186-.252.24-.407.055-.155.08-.325.08-.512zM12.8 19h1.42v-4.885c0-.14.003-.29.013-.445l-1.178 1.095c-.04.037-.08.06-.12.067s-.077.01-.11.002c-.035-.006-.066-.02-.096-.04s-.053-.042-.068-.065l-.26-.386 1.973-1.845h.67V19h1.302v.68H12.8V19zM17.914 19.064c0-.156.05-.29.15-.4.1-.11.233-.165.4-.165.09 0 .173.018.244.054s.13.087.178.152.084.14.11.225c.023.086.036.18.036.278 0 .15-.02.306-.058.468s-.096.322-.17.48c-.077.158-.168.313-.276.462s-.23.29-.37.415l-.138-.145c-.025-.023-.042-.045-.05-.065s-.015-.045-.015-.075c0-.023.007-.046.02-.07.015-.023.03-.045.05-.065.03-.037.07-.086.117-.147.048-.062.096-.133.146-.212.05-.08.095-.168.136-.265s.072-.2.09-.31h-.06c-.16 0-.29-.06-.39-.173-.1-.115-.15-.262-.15-.443zM23.387 17.095h1.002v.51c0 .054-.016.1-.044.135-.03.037-.075.055-.137.055h-.823v1.885h-.72v-1.885h-2.94c-.06 0-.114-.02-.158-.058-.046-.04-.074-.086-.086-.143l-.083-.455 3.22-4.626h.767v4.58zm-.72-2.955c0-.086.002-.18.007-.282.005-.102.015-.206.03-.313l-2.41 3.55h2.373V14.14zM29.576 16.1c0 .627-.063 1.17-.187 1.627-.126.458-.296.837-.51 1.138-.217.3-.472.523-.766.67s-.61.22-.944.22c-.34 0-.654-.074-.945-.22-.29-.146-.544-.37-.76-.67-.215-.3-.385-.68-.508-1.138-.123-.458-.185-1-.185-1.627 0-.626.062-1.17.185-1.63s.292-.84.508-1.143c.216-.302.47-.526.76-.672.29-.147.606-.22.945-.22.335 0 .65.073.944.22.294.146.55.37.765.672.214.302.385.683.51 1.143s.186 1.003.186 1.63zm-.855 0c0-.546-.04-1.006-.126-1.377-.085-.372-.2-.67-.342-.897s-.31-.39-.497-.487c-.188-.1-.383-.15-.586-.15s-.4.05-.587.15c-.188.097-.353.26-.495.486s-.254.526-.34.897c-.083.372-.126.83-.126 1.377s.042 1.005.127 1.375c.084.37.197.668.338.895s.307.39.495.488c.188.098.383.147.586.147s.397-.05.585-.147c.188-.1.354-.26.497-.488s.257-.525.342-.895c.085-.37.127-.83.127-1.375zM35.35 16.1c0 .627-.064 1.17-.188 1.627-.125.458-.295.837-.51 1.138-.216.3-.47.523-.765.67s-.61.22-.944.22c-.34 0-.654-.074-.945-.22-.29-.146-.544-.37-.76-.67-.215-.3-.385-.68-.508-1.138-.123-.458-.185-1-.185-1.627 0-.626.062-1.17.185-1.63s.292-.84.508-1.143c.216-.302.47-.526.76-.672.29-.147.606-.22.945-.22.335 0 .65.073.944.22.294.146.55.37.765.672.215.302.386.683.51 1.143s.187 1.003.187 1.63zm-.856 0c0-.546-.042-1.006-.127-1.377-.085-.372-.2-.67-.342-.897s-.31-.39-.497-.487c-.188-.1-.383-.15-.586-.15s-.4.05-.586.15c-.188.097-.353.26-.495.486s-.253.526-.338.897c-.084.372-.127.83-.127 1.377s.042 1.005.127 1.375c.085.37.198.668.34.895s.306.39.494.488c.188.098.383.147.586.147s.398-.05.586-.147c.188-.1.354-.26.497-.488s.257-.525.342-.895c.085-.37.127-.83.127-1.375z"/></g><g fill="#4E4E4E"><path d="M33.17 248.05h1.578v-4.887c0-.14.005-.288.016-.444l-1.31 1.094c-.045.037-.09.06-.134.067-.044.01-.086.01-.124.004s-.073-.02-.105-.04-.057-.042-.074-.065l-.288-.386 2.194-1.845h.745v6.5h1.45v.68H33.17v-.68zM41.253 245.873c.076-.096.146-.188.21-.274s.127-.175.186-.26c-.19.145-.402.257-.638.334-.236.076-.486.114-.75.114-.278 0-.54-.045-.79-.135-.247-.09-.466-.223-.654-.397-.188-.175-.338-.39-.45-.645s-.167-.547-.167-.877c0-.313.06-.606.18-.88.12-.273.29-.512.504-.715s.473-.363.77-.48c.3-.116.626-.175.982-.175.353 0 .673.057.96.17.288.113.535.27.74.476.206.202.364.445.475.728s.168.597.168.94c0 .206-.02.402-.06.587-.04.186-.095.367-.168.545-.074.18-.164.355-.27.53-.106.175-.226.354-.36.537l-1.792 2.52c-.044.064-.108.115-.19.153s-.176.058-.283.058h-.842l2.24-2.855zm.848-2.18c0-.223-.036-.426-.11-.607-.073-.182-.175-.336-.306-.463-.13-.126-.285-.224-.465-.292s-.378-.102-.594-.102c-.226 0-.432.036-.617.107-.186.072-.345.17-.48.298-.132.126-.235.278-.307.455s-.108.37-.108.58c0 .227.033.43.1.607.067.178.163.33.288.452s.278.217.458.28.382.095.605.095c.247 0 .465-.04.655-.117s.35-.183.48-.313.23-.28.298-.45c.07-.168.103-.345.103-.53zM48.99 241.563v.4c0 .113-.012.206-.038.28-.025.072-.05.135-.074.185l-3.052 5.984c-.044.087-.106.16-.185.223-.078.062-.182.093-.312.093h-.658l3.093-5.91c.044-.083.09-.16.136-.23.045-.07.098-.136.156-.2h-3.843c-.058 0-.11-.02-.154-.066s-.068-.096-.068-.152v-.605h5zM54.766 241.563v.4c0 .113-.013.206-.04.28-.024.072-.05.135-.073.185l-3.052 5.984c-.043.087-.105.16-.184.223-.08.062-.183.093-.313.093h-.658l3.093-5.91c.044-.083.09-.16.136-.23.046-.07.1-.136.157-.2H49.99c-.058 0-.11-.02-.154-.066s-.067-.096-.067-.152v-.605h5z"/></g><g fill="#4E4E4E"><path d="M105.08 248.05h1.576v-4.887c0-.14.005-.288.016-.444l-1.31 1.094c-.045.037-.09.06-.134.067-.044.01-.086.01-.124.004s-.073-.02-.105-.04c-.034-.02-.06-.042-.076-.065l-.288-.386 2.194-1.845h.745v6.5h1.45v.68h-3.947v-.68zM113.16 245.873c.076-.096.146-.188.21-.274s.127-.175.186-.26c-.188.145-.4.257-.637.334-.237.076-.487.114-.75.114-.28 0-.542-.045-.79-.135-.248-.09-.467-.223-.655-.397-.188-.175-.338-.39-.45-.645s-.167-.547-.167-.877c0-.313.06-.606.18-.88.12-.273.288-.512.503-.715s.474-.363.772-.48c.298-.116.625-.175.98-.175.354 0 .674.057.96.17.29.113.536.27.74.476.207.202.365.445.476.728s.167.597.167.94c0 .206-.02.402-.06.587-.04.186-.095.367-.168.545-.074.18-.164.355-.27.53-.106.175-.226.354-.36.537l-1.792 2.52c-.044.064-.108.115-.19.153s-.176.058-.283.058h-.842l2.24-2.855zm.848-2.18c0-.223-.037-.426-.11-.607-.074-.182-.176-.336-.307-.463-.13-.126-.284-.224-.464-.292s-.377-.102-.593-.102c-.226 0-.432.036-.617.107-.185.072-.344.17-.478.298-.133.126-.236.278-.308.455s-.108.37-.108.58c0 .227.033.43.1.607.067.178.163.33.288.452s.278.217.458.28.38.095.604.095c.247 0 .465-.04.655-.117s.35-.183.48-.313.23-.28.298-.45c.07-.168.103-.345.103-.53zM118.324 248.81c-.366 0-.702-.05-1.007-.144-.305-.095-.567-.23-.786-.407s-.388-.392-.508-.644-.18-.534-.18-.848c0-.46.123-.84.37-1.138.247-.298.6-.51 1.06-.638-.388-.14-.68-.35-.877-.627-.197-.278-.295-.61-.295-.998 0-.263.053-.51.16-.74.105-.23.256-.43.45-.6s.43-.303.702-.4c.272-.096.577-.145.912-.145.333 0 .635.05.91.146.274.097.51.23.704.4.195.17.346.37.452.6.106.23.16.477.16.74 0 .386-.1.72-.298.997s-.49.487-.874.627c.46.127.812.34 1.06.638.246.3.37.678.37 1.138 0 .313-.062.596-.184.848s-.29.466-.51.643c-.216.176-.478.312-.782.406-.306.095-.642.143-1.008.143zm0-.71c.24 0 .455-.033.645-.1s.35-.155.482-.274c.132-.118.233-.26.303-.425s.105-.347.105-.546c0-.247-.042-.458-.126-.633s-.197-.316-.34-.427c-.14-.11-.305-.19-.49-.242s-.378-.077-.58-.077-.397.026-.582.078-.35.134-.49.243c-.143.11-.256.253-.34.428s-.126.387-.126.634c0 .2.035.382.105.547.07.166.172.308.304.426.132.12.293.21.483.275.192.066.407.1.647.1zm0-3.442c.24 0 .444-.035.614-.107.17-.07.307-.165.414-.284.106-.118.183-.254.23-.407s.073-.313.073-.476c0-.167-.028-.323-.085-.47-.057-.147-.14-.275-.252-.386-.11-.11-.25-.196-.416-.26s-.36-.095-.578-.095-.412.03-.578.095c-.166.063-.305.15-.416.26-.11.11-.195.238-.252.385-.056.147-.084.304-.084.47 0 .164.024.322.072.476s.125.288.23.406c.107.12.245.214.415.285.17.073.374.108.614.108zM124.156 241.483c.312 0 .603.045.874.135.27.09.505.222.704.393.198.173.354.382.467.63.114.245.17.525.17.84 0 .266-.04.514-.123.74-.083.23-.194.447-.334.653-.14.207-.302.41-.486.605-.183.196-.377.395-.583.595l-1.942 1.93c.137-.036.276-.065.417-.087.14-.02.274-.032.405-.032h2.466c.1 0 .18.028.237.085s.087.13.087.22v.54h-4.912v-.306c0-.063.014-.13.04-.195s.07-.13.13-.186l2.357-2.306c.194-.193.373-.38.534-.558.16-.178.298-.357.41-.537.114-.18.2-.362.263-.548.062-.185.093-.382.093-.592s-.035-.395-.103-.553-.162-.29-.28-.393-.258-.18-.42-.232-.333-.078-.518-.078c-.19 0-.362.027-.52.08-.157.054-.297.128-.418.223-.122.096-.224.208-.306.338-.083.13-.14.273-.175.43-.04.117-.096.194-.166.232-.07.04-.17.05-.295.033l-.48-.08c.05-.327.143-.616.28-.868.14-.25.314-.462.525-.632.21-.17.45-.3.722-.388.27-.088.563-.132.88-.132z"/></g><g fill="#4E4E4E"><path d="M176.986 248.05h1.577v-4.887c0-.14.005-.288.016-.444l-1.312 1.094c-.044.037-.09.06-.133.067-.044.01-.086.01-.124.004s-.072-.02-.104-.04c-.033-.02-.058-.042-.075-.065l-.287-.386 2.194-1.845h.745v6.5h1.45v.68h-3.947v-.68zM185.068 245.873c.076-.096.146-.188.21-.274s.127-.175.186-.26c-.188.145-.4.257-.637.334-.236.076-.486.114-.75.114-.278 0-.54-.045-.79-.135-.247-.09-.466-.223-.654-.397-.188-.175-.338-.39-.45-.645s-.167-.547-.167-.877c0-.313.06-.606.18-.88.12-.273.288-.512.503-.715s.472-.363.77-.48c.298-.116.625-.175.98-.175.354 0 .674.057.96.17.29.113.536.27.74.476.207.202.365.445.476.728s.167.597.167.94c0 .206-.02.402-.06.587-.04.186-.095.367-.168.545-.074.18-.164.355-.27.53-.106.175-.226.354-.36.537l-1.792 2.52c-.044.064-.108.115-.19.153s-.176.058-.283.058h-.842l2.24-2.855zm.848-2.18c0-.223-.037-.426-.11-.607-.074-.182-.176-.336-.307-.463-.13-.126-.286-.224-.466-.292s-.377-.102-.593-.102c-.225 0-.43.036-.616.107-.185.072-.344.17-.478.298-.133.126-.236.278-.308.455s-.108.37-.108.58c0 .227.033.43.1.607.067.178.163.33.288.452s.278.217.458.28.38.095.604.095c.247 0 .465-.04.655-.117s.35-.183.48-.313.23-.28.298-.45c.07-.168.103-.345.103-.53zM190.23 248.81c-.365 0-.7-.05-1.006-.144-.305-.095-.567-.23-.786-.407s-.39-.392-.51-.644-.18-.534-.18-.848c0-.46.124-.84.37-1.138.248-.298.6-.51 1.06-.638-.387-.14-.68-.35-.876-.627-.197-.278-.295-.61-.295-.998 0-.263.053-.51.16-.74.105-.23.256-.43.45-.6s.43-.303.702-.4c.27-.096.576-.145.91-.145.334 0 .636.05.91.146.275.097.51.23.705.4.195.17.346.37.452.6.106.23.16.477.16.74 0 .386-.1.72-.298.997s-.49.487-.875.627c.46.127.812.34 1.06.638.246.3.37.678.37 1.138 0 .313-.062.596-.184.848s-.29.466-.508.643c-.217.176-.48.312-.783.406-.306.095-.642.143-1.01.143zm0-.71c.24 0 .456-.033.646-.1s.35-.155.483-.274c.13-.118.232-.26.302-.425s.105-.347.105-.546c0-.247-.042-.458-.126-.633s-.196-.316-.338-.427c-.142-.11-.306-.19-.49-.242s-.38-.077-.582-.077-.396.026-.58.078-.35.134-.492.243c-.142.11-.255.253-.34.428s-.125.387-.125.634c0 .2.035.382.105.547.07.166.17.308.303.426.133.12.294.21.484.275.193.066.408.1.647.1zm0-3.442c.24 0 .445-.035.615-.107.17-.07.307-.165.414-.284.105-.118.182-.254.23-.407s.072-.313.072-.476c0-.167-.028-.323-.085-.47-.057-.147-.14-.275-.252-.386-.11-.11-.25-.196-.416-.26s-.36-.095-.58-.095-.41.03-.577.095c-.166.063-.305.15-.416.26-.11.11-.195.238-.252.385-.056.147-.084.304-.084.47 0 .164.025.322.073.476s.125.288.23.406c.107.12.245.214.415.285.17.073.374.108.613.108zM198.58 241.563v.4c0 .113-.012.206-.038.28-.025.072-.05.135-.074.185l-3.052 5.984c-.044.087-.106.16-.185.223-.078.062-.182.093-.312.093h-.658l3.093-5.91c.044-.083.09-.16.136-.23.045-.07.098-.136.156-.2h-3.843c-.058 0-.11-.02-.154-.066s-.068-.096-.068-.152v-.605h5z"/></g><g fill="#4E4E4E"><path d="M248.894 248.05h1.577v-4.887c0-.14.006-.288.017-.444l-1.31 1.094c-.045.037-.09.06-.134.067-.044.01-.086.01-.124.004s-.074-.02-.106-.04c-.033-.02-.058-.042-.075-.065l-.29-.386 2.195-1.845h.745v6.5h1.45v.68h-3.947v-.68zM256.975 245.873c.076-.096.146-.188.21-.274s.127-.175.186-.26c-.187.145-.4.257-.636.334-.236.076-.486.114-.75.114-.278 0-.54-.045-.79-.135-.247-.09-.466-.223-.654-.397-.188-.175-.338-.39-.45-.645s-.167-.547-.167-.877c0-.313.06-.606.18-.88.12-.273.288-.512.503-.715s.473-.363.77-.48c.3-.116.626-.175.982-.175.353 0 .673.057.96.17.288.113.535.27.74.476.206.202.364.445.475.728s.167.597.167.94c0 .206-.02.402-.06.587-.04.186-.095.367-.168.545-.074.18-.164.355-.27.53-.106.175-.226.354-.36.537l-1.792 2.52c-.044.064-.108.115-.19.153s-.176.058-.283.058h-.842l2.24-2.855zm.848-2.18c0-.223-.037-.426-.11-.607-.074-.182-.176-.336-.307-.463-.13-.126-.285-.224-.465-.292s-.376-.102-.592-.102c-.226 0-.432.036-.617.107-.184.072-.343.17-.477.298-.133.126-.236.278-.308.455s-.108.37-.108.58c0 .227.033.43.1.607.067.178.163.33.288.452s.278.217.458.28.38.095.604.095c.247 0 .465-.04.655-.117s.35-.183.48-.313.23-.28.298-.45c.07-.168.103-.345.103-.53zM262.75 245.873c.076-.096.146-.188.21-.274s.127-.175.186-.26c-.188.145-.4.257-.637.334-.237.076-.487.114-.75.114-.28 0-.542-.045-.79-.135-.248-.09-.467-.223-.655-.397-.188-.175-.338-.39-.45-.645s-.167-.547-.167-.877c0-.313.06-.606.18-.88.12-.273.288-.512.503-.715s.474-.363.772-.48c.298-.116.625-.175.98-.175.354 0 .674.057.96.17.29.113.536.27.74.476.207.202.365.445.476.728s.167.597.167.94c0 .206-.02.402-.06.587-.04.186-.095.367-.168.545-.074.18-.164.355-.27.53-.106.175-.226.354-.36.537l-1.792 2.52c-.044.064-.108.115-.19.153s-.176.058-.283.058h-.842l2.24-2.855zm.848-2.18c0-.223-.037-.426-.11-.607-.074-.182-.176-.336-.307-.463-.13-.126-.284-.224-.464-.292s-.377-.102-.593-.102c-.226 0-.432.036-.617.107-.185.072-.344.17-.478.298-.133.126-.236.278-.308.455s-.108.37-.108.58c0 .227.033.43.1.607.067.178.163.33.288.452s.278.217.458.28.38.095.604.095c.247 0 .465-.04.655-.117s.35-.183.48-.313.23-.28.298-.45c.07-.168.103-.345.103-.53zM267.97 241.483c.313 0 .604.045.875.135.27.09.505.222.704.393.197.173.353.382.466.63.113.245.17.525.17.84 0 .266-.042.514-.124.74-.083.23-.194.447-.334.653-.14.207-.302.41-.486.605-.183.196-.377.395-.583.595l-1.943 1.93c.137-.036.276-.065.417-.087.14-.02.275-.032.406-.032h2.466c.1 0 .178.028.236.085s.087.13.087.22v.54h-4.913v-.306c0-.063.014-.13.04-.195s.07-.13.13-.186l2.357-2.306c.195-.193.374-.38.535-.558.16-.178.297-.357.41-.537.113-.18.2-.362.262-.548.062-.185.093-.382.093-.592s-.035-.395-.103-.553-.162-.29-.28-.393-.258-.18-.42-.232-.333-.078-.518-.078c-.188 0-.36.027-.52.08-.156.054-.296.128-.417.223-.122.096-.224.208-.306.338-.082.13-.14.273-.174.43-.04.117-.097.194-.167.232-.07.04-.17.05-.296.033l-.478-.08c.048-.327.142-.616.28-.868.14-.25.313-.462.524-.632.21-.17.45-.3.722-.388.27-.088.563-.132.88-.132z"/></g><g fill="#4E4E4E"><path d="M394.213 241.483c.313 0 .604.045.874.135.27.09.505.222.704.393.2.173.355.382.468.63.113.245.17.525.17.84 0 .266-.04.514-.123.74-.082.23-.193.447-.334.653-.14.207-.302.41-.485.605-.183.196-.377.395-.582.595l-1.943 1.93c.138-.036.276-.065.417-.087.14-.02.275-.032.405-.032h2.467c.1 0 .177.028.235.085s.088.13.088.22v.54h-4.912v-.306c0-.063.015-.13.042-.195s.07-.13.128-.186l2.358-2.306c.195-.193.373-.38.535-.558.16-.178.297-.357.41-.537s.2-.362.262-.548c.063-.185.094-.382.094-.592s-.036-.395-.105-.553-.162-.29-.28-.393c-.118-.104-.257-.18-.42-.232-.16-.052-.333-.078-.518-.078-.188 0-.36.027-.52.08-.157.054-.296.128-.418.223-.123.096-.225.208-.307.338s-.14.273-.175.43c-.04.117-.097.194-.167.232-.07.04-.168.05-.294.033l-.48-.08c.05-.327.143-.616.28-.868.14-.25.314-.462.525-.632s.452-.3.723-.388c.272-.088.565-.132.88-.132zM402.686 245.148c0 .627-.068 1.17-.207 1.628-.14.458-.33.837-.57 1.137-.24.3-.522.523-.85.67-.327.147-.677.22-1.05.22-.377 0-.728-.072-1.05-.22-.325-.146-.606-.37-.847-.67-.24-.3-.428-.68-.565-1.137-.137-.46-.206-1-.206-1.628s.07-1.17.206-1.63c.138-.46.325-.84.565-1.143s.52-.525.846-.673c.322-.146.673-.22 1.05-.22.373 0 .723.073 1.05.22.327.147.61.37.85.673s.43.683.57 1.143.206 1.003.206 1.63zm-.95 0c0-.547-.048-1.006-.143-1.377-.094-.37-.22-.67-.38-.897-.16-.227-.343-.39-.552-.487-.208-.098-.426-.147-.65-.147-.228 0-.445.05-.654.146-.21.1-.392.26-.55.487-.157.228-.283.526-.377.898-.096.372-.143.83-.143 1.378s.047 1.005.142 1.375c.093.37.22.668.376.896.158.226.34.388.55.486.21.098.427.147.653.147.225 0 .442-.05.65-.147.21-.1.394-.26.553-.487.16-.23.286-.526.38-.897.095-.37.142-.828.142-1.375zM408.543 245.148c0 .627-.07 1.17-.208 1.628-.14.458-.328.837-.567 1.137-.24.3-.523.523-.85.67-.328.147-.68.22-1.052.22-.377 0-.728-.072-1.05-.22-.324-.146-.606-.37-.846-.67-.24-.3-.43-.68-.566-1.137-.137-.46-.205-1-.205-1.628s.067-1.17.204-1.63c.138-.46.326-.84.566-1.143.24-.302.52-.525.845-.673.323-.146.674-.22 1.05-.22.374 0 .725.073 1.052.22.327.147.61.37.85.673.24.302.43.683.568 1.143s.208 1.003.208 1.63zm-.95 0c0-.547-.048-1.006-.142-1.377-.093-.37-.22-.67-.38-.897-.158-.227-.343-.39-.552-.487-.21-.098-.427-.147-.652-.147s-.444.05-.653.146c-.21.1-.392.26-.55.487-.157.228-.282.526-.377.898-.095.372-.142.83-.142 1.378s.047 1.005.142 1.375.22.668.378.896c.157.226.34.388.55.486.208.098.427.147.652.147s.443-.05.652-.147c.21-.1.394-.26.552-.487.16-.23.287-.526.38-.897s.142-.828.142-1.375zM411.785 241.483c.312 0 .604.045.873.135.27.09.506.222.705.393.197.173.354.382.467.63.113.245.17.525.17.84 0 .266-.04.514-.123.74-.083.23-.194.447-.334.653-.14.207-.303.41-.486.605s-.377.395-.583.595l-1.942 1.93c.137-.036.275-.065.416-.087s.275-.032.406-.032h2.467c.1 0 .18.028.237.085.058.056.087.13.087.22v.54h-4.912v-.306c0-.063.014-.13.04-.195s.07-.13.13-.186l2.358-2.306c.195-.193.373-.38.534-.558.16-.178.298-.357.41-.537s.2-.362.263-.548c.063-.185.093-.382.093-.592s-.034-.395-.103-.553-.162-.29-.28-.393-.258-.18-.42-.232-.333-.078-.52-.078-.36.027-.518.08c-.158.054-.298.128-.42.223-.12.096-.223.208-.305.338-.083.13-.14.273-.176.43-.042.117-.097.194-.167.232-.07.04-.17.05-.296.033l-.478-.08c.046-.327.14-.616.278-.868.14-.25.314-.462.524-.632.21-.17.45-.3.722-.388.274-.088.566-.132.88-.132z"/></g><g fill="#4E4E4E"><path d="M466.38 241.483c.312 0 .603.045.874.135.27.09.505.222.703.393.2.173.355.382.468.63.113.245.17.525.17.84 0 .266-.042.514-.124.74-.08.23-.192.447-.333.653-.14.207-.302.41-.485.605-.183.196-.378.395-.583.595l-1.943 1.93c.138-.036.276-.065.417-.087.14-.02.275-.032.405-.032h2.465c.1 0 .18.028.236.085.06.056.09.13.09.22v.54h-4.913v-.306c0-.063.014-.13.04-.195s.07-.13.13-.186l2.357-2.306c.195-.193.374-.38.535-.558.16-.178.297-.357.41-.537.112-.18.2-.362.262-.548.062-.185.093-.382.093-.592s-.035-.395-.104-.553-.16-.29-.278-.393-.258-.18-.42-.232-.333-.078-.518-.078c-.19 0-.36.027-.52.08-.157.054-.297.128-.418.223-.122.096-.225.208-.307.338s-.142.273-.175.43c-.04.117-.098.194-.168.232-.07.04-.168.05-.295.033l-.48-.08c.05-.327.144-.616.282-.868.14-.25.313-.462.523-.632s.45-.3.723-.388c.27-.088.564-.132.88-.132zM474.853 245.148c0 .627-.07 1.17-.208 1.628-.14.458-.328.837-.568 1.137-.24.3-.523.523-.85.67-.327.147-.678.22-1.05.22-.378 0-.728-.072-1.052-.22-.324-.146-.605-.37-.846-.67-.24-.3-.43-.68-.565-1.137-.137-.46-.206-1-.206-1.628s.068-1.17.205-1.63.325-.84.564-1.143c.24-.302.52-.525.845-.673.324-.146.674-.22 1.05-.22.374 0 .725.073 1.052.22.326.147.61.37.85.673.24.302.43.683.568 1.143s.208 1.003.208 1.63zm-.95 0c0-.547-.048-1.006-.143-1.377-.095-.37-.22-.67-.38-.897-.16-.227-.344-.39-.553-.487-.21-.098-.426-.147-.652-.147s-.443.05-.652.146c-.21.1-.393.26-.55.487-.157.228-.284.526-.378.898-.094.372-.14.83-.14 1.378s.046 1.005.14 1.375.22.668.377.896c.158.226.342.388.55.486.21.098.427.147.653.147s.443-.05.652-.147c.21-.1.393-.26.553-.487.16-.23.285-.526.38-.897s.142-.828.142-1.375zM480.71 245.148c0 .627-.07 1.17-.208 1.628-.14.458-.328.837-.568 1.137-.24.3-.523.523-.85.67-.328.147-.678.22-1.05.22-.378 0-.73-.072-1.052-.22-.324-.146-.605-.37-.846-.67-.24-.3-.428-.68-.565-1.137-.136-.46-.205-1-.205-1.628s.07-1.17.206-1.63c.14-.46.326-.84.566-1.143s.52-.525.846-.673c.323-.146.674-.22 1.05-.22.374 0 .724.073 1.052.22.326.147.61.37.85.673s.43.683.568 1.143.207 1.003.207 1.63zm-.95 0c0-.547-.048-1.006-.143-1.377-.094-.37-.22-.67-.38-.897-.16-.227-.343-.39-.552-.487-.21-.098-.427-.147-.652-.147-.227 0-.444.05-.653.146-.21.1-.392.26-.55.487-.157.228-.283.526-.377.898-.095.372-.142.83-.142 1.378s.048 1.005.143 1.375c.094.37.22.668.377.896.158.226.34.388.55.486.21.098.427.147.653.147.226 0 .443-.05.652-.147.21-.1.393-.26.552-.487.16-.23.286-.526.38-.897.095-.37.142-.828.142-1.375zM486.47 241.563v.4c0 .113-.013.206-.04.28-.024.072-.05.135-.073.185l-3.052 5.984c-.045.087-.106.16-.186.223-.08.062-.185.093-.314.093h-.657l3.092-5.91c.044-.083.09-.16.136-.23.047-.07.1-.136.157-.2h-3.843c-.06 0-.11-.02-.154-.066-.045-.045-.067-.096-.067-.152v-.605h5z"/></g><g fill="#4E4E4E"><path d="M320.8 248.05h1.578v-4.887c0-.14.005-.288.015-.444l-1.31 1.094c-.045.037-.09.06-.134.067-.046.01-.087.01-.124.004-.038-.007-.073-.02-.105-.04s-.057-.042-.073-.065l-.288-.386 2.192-1.845h.745v6.5h1.45v.68H320.8v-.68zM328.883 245.873c.075-.096.146-.188.21-.274.065-.088.127-.175.186-.26-.19.145-.402.257-.64.334-.235.076-.485.114-.75.114-.276 0-.54-.045-.787-.135-.25-.09-.467-.223-.655-.397s-.34-.39-.45-.645-.167-.547-.167-.877c0-.313.062-.606.182-.88.12-.273.287-.512.503-.715s.473-.363.77-.48c.3-.116.627-.175.982-.175.354 0 .674.057.96.17.29.113.535.27.74.476.206.202.365.445.477.728s.167.597.167.94c0 .206-.02.402-.06.587-.038.186-.095.367-.17.545-.072.18-.162.355-.27.53s-.225.354-.358.537l-1.793 2.52c-.046.064-.11.115-.19.153s-.178.058-.283.058h-.843l2.24-2.855zm.847-2.18c0-.223-.037-.426-.11-.607-.074-.182-.176-.336-.306-.463-.13-.126-.285-.224-.465-.292-.182-.067-.38-.102-.595-.102-.227 0-.432.036-.617.107-.185.072-.344.17-.478.298-.134.126-.236.278-.31.455-.07.177-.106.37-.106.58 0 .227.033.43.1.607.067.178.163.33.288.452s.277.217.457.28c.18.063.38.095.603.095.246 0 .465-.04.655-.117.19-.078.35-.183.48-.313s.228-.28.298-.45c.07-.168.104-.345.104-.53zM334.657 245.873c.075-.096.146-.188.21-.274.065-.088.127-.175.186-.26-.188.145-.4.257-.638.334-.236.076-.486.114-.75.114-.277 0-.54-.045-.788-.135-.25-.09-.467-.223-.655-.397s-.34-.39-.45-.645-.167-.547-.167-.877c0-.313.06-.606.18-.88.12-.273.288-.512.504-.715s.472-.363.77-.48c.3-.116.626-.175.98-.175.355 0 .675.057.962.17.288.113.534.27.74.476.205.202.364.445.476.728s.167.597.167.94c0 .206-.02.402-.06.587-.04.186-.096.367-.17.545-.073.18-.163.355-.27.53s-.226.354-.36.537l-1.792 2.52c-.045.064-.108.115-.19.153s-.177.058-.282.058h-.842l2.24-2.855zm.848-2.18c0-.223-.037-.426-.11-.607-.074-.182-.176-.336-.306-.463-.132-.126-.286-.224-.466-.292-.18-.067-.378-.102-.594-.102-.227 0-.432.036-.617.107-.185.072-.344.17-.478.298-.134.126-.236.278-.31.455-.07.177-.106.37-.106.58 0 .227.032.43.1.607.066.178.162.33.287.452s.277.217.457.28c.18.063.382.095.604.095.246 0 .465-.04.655-.117.19-.078.35-.183.48-.313s.228-.28.298-.45c.07-.168.105-.345.105-.53zM342.396 241.563v.4c0 .113-.014.206-.04.28s-.05.135-.073.185l-3.052 5.984c-.044.087-.105.16-.185.223s-.184.093-.313.093h-.657l3.093-5.91c.045-.083.09-.16.137-.23.046-.07.098-.136.156-.2h-3.843c-.058 0-.11-.02-.153-.066-.045-.045-.067-.096-.067-.152v-.605h5z"/></g><g fill="#4E4E4E"><path d="M538.273 241.483c.313 0 .604.045.875.135.27.09.504.222.703.393.2.173.356.382.47.63.11.245.168.525.168.84 0 .266-.04.514-.123.74-.082.23-.193.447-.334.653-.14.207-.302.41-.483.605-.184.196-.38.395-.584.595l-1.94 1.93c.136-.036.274-.065.415-.087s.275-.032.406-.032h2.465c.1 0 .177.028.235.085s.088.13.088.22v.54h-4.912v-.306c0-.063.015-.13.042-.195s.07-.13.13-.186l2.356-2.306c.195-.193.373-.38.535-.558.16-.178.3-.357.41-.537.113-.18.2-.362.264-.548.06-.185.092-.382.092-.592s-.036-.395-.105-.553-.162-.29-.28-.393c-.118-.104-.257-.18-.417-.232-.162-.052-.334-.078-.52-.078-.19 0-.36.027-.52.08-.158.054-.297.128-.418.223-.123.096-.225.208-.307.338s-.14.273-.174.43c-.042.117-.1.194-.17.232-.07.04-.167.05-.294.033l-.48-.08c.05-.327.144-.616.282-.868.14-.25.313-.462.523-.632s.452-.3.724-.388c.272-.088.565-.132.88-.132zM546.666 245.148c0 .627-.07 1.17-.21 1.628-.138.458-.327.837-.567 1.137-.24.3-.524.523-.85.67-.33.147-.68.22-1.052.22-.377 0-.727-.072-1.05-.22-.325-.146-.606-.37-.847-.67-.24-.3-.427-.68-.563-1.137-.137-.46-.205-1-.205-1.628s.068-1.17.205-1.63.324-.84.564-1.143.522-.525.847-.673c.324-.146.674-.22 1.05-.22.374 0 .724.073 1.052.22.325.147.61.37.85.673.24.302.43.683.567 1.143s.21 1.003.21 1.63zm-.95 0c0-.547-.048-1.006-.142-1.377-.096-.37-.223-.67-.38-.897-.16-.227-.345-.39-.554-.487-.21-.098-.426-.147-.652-.147s-.443.05-.652.146c-.21.1-.393.26-.55.487-.157.228-.284.526-.378.898-.094.372-.14.83-.14 1.378s.046 1.005.14 1.375.22.668.377.896c.158.226.342.388.55.486.21.098.427.147.653.147s.443-.05.652-.147c.21-.1.393-.26.553-.487.158-.23.285-.526.38-.897.095-.37.142-.828.142-1.375zM548.072 248.05h1.578v-4.887c0-.14.004-.288.014-.444l-1.31 1.094c-.044.037-.09.06-.134.067-.045.01-.086.01-.123.004s-.072-.02-.105-.04-.057-.042-.074-.065l-.287-.386 2.194-1.845h.744v6.5h1.45v.68h-3.946v-.68zM555.6 241.483c.313 0 .604.045.873.135.27.09.506.222.705.393.197.173.354.382.467.63.113.245.17.525.17.84 0 .266-.04.514-.123.74-.082.23-.193.447-.334.653-.14.207-.303.41-.486.605s-.377.395-.582.595l-1.943 1.93c.137-.036.275-.065.416-.087s.275-.032.406-.032h2.466c.1 0 .178.028.236.085s.086.13.086.22v.54h-4.91v-.306c0-.063.014-.13.04-.195s.07-.13.128-.186l2.36-2.306c.194-.193.372-.38.532-.558.162-.178.3-.357.412-.537s.2-.362.262-.548c.063-.185.092-.382.092-.592s-.033-.395-.102-.553-.162-.29-.28-.393c-.118-.104-.26-.18-.42-.232s-.333-.078-.52-.078-.36.027-.517.08c-.158.054-.3.128-.42.223-.12.096-.223.208-.305.338s-.14.273-.176.43c-.04.117-.096.194-.166.232-.07.04-.17.05-.297.033l-.476-.08c.047-.327.14-.616.28-.868.138-.25.313-.462.524-.632.21-.17.45-.3.72-.388.274-.088.567-.132.882-.132z"/></g><g fill="#F8981D"><path d="M192.52 166.86h-1.81v-8.567h1.81v8.566zM195.785 158.058v8.802h-1.656v-8.802h1.655zM198.833 158.058v8.802h-1.656v-8.802h1.656zM202.115 159.043c0 .138-.028.266-.084.384s-.13.223-.224.313-.204.162-.33.213c-.126.052-.26.077-.405.077-.135 0-.264-.025-.386-.077-.122-.05-.23-.122-.32-.213-.093-.09-.166-.194-.22-.313-.054-.118-.08-.246-.08-.384s.026-.267.08-.387c.054-.12.126-.225.22-.315.09-.09.198-.16.32-.212.122-.05.25-.076.387-.076.145 0 .28.025.406.076.126.052.236.122.33.213.094.092.17.196.225.316s.085.25.085.387zm-.198 1.73v6.086h-1.656v-6.088h1.657zM203.333 166.86v-6.088h1.02c.208 0 .346.095.414.284l.102.425c.123-.117.252-.226.386-.324s.276-.183.426-.254c.15-.07.312-.126.486-.165s.363-.06.567-.06c.336 0 .634.058.894.172.26.113.478.272.656.478.178.204.312.448.402.73.09.284.135.596.135.934v3.867h-1.65v-3.868c0-.338-.08-.6-.24-.788-.16-.187-.396-.28-.708-.28-.236 0-.455.05-.657.15-.202.1-.395.237-.58.41v4.375h-1.655zM212.927 160.68c.464 0 .886.07 1.266.217.38.146.706.354.978.623s.483.598.63.983c.15.386.223.82.223 1.305 0 .483-.074.92-.222 1.308-.147.388-.357.717-.63.988s-.597.48-.977.626c-.38.146-.802.22-1.266.22-.468 0-.893-.074-1.275-.22-.382-.146-.71-.354-.98-.626s-.484-.6-.634-.988-.225-.824-.225-1.308c0-.484.075-.92.225-1.305s.36-.714.633-.983.6-.477.982-.623c.382-.146.807-.218 1.275-.218zm0 5.046c.472 0 .822-.16 1.05-.48.228-.32.342-.798.342-1.432 0-.63-.115-1.105-.343-1.426-.228-.32-.578-.48-1.05-.48-.484 0-.84.16-1.068.48-.23.32-.343.796-.343 1.426 0 .634.114 1.11.342 1.432.227.32.583.48 1.067.48zM218.97 159.043c0 .138-.03.266-.085.384s-.13.223-.225.313c-.094.09-.204.162-.33.213-.126.052-.26.077-.405.077-.136 0-.265-.025-.387-.077-.122-.05-.23-.122-.32-.213-.093-.09-.166-.194-.22-.313-.054-.118-.08-.246-.08-.384s.026-.267.08-.387c.054-.12.126-.225.22-.315.09-.09.198-.16.32-.212.122-.05.25-.076.387-.076.144 0 .28.025.405.076.126.052.236.122.33.213.094.092.17.196.225.316s.084.25.084.387zm-.2 1.73v6.086h-1.655v-6.088h1.656zM224.033 162.024c-.044.067-.09.115-.135.145s-.11.043-.19.043-.16-.02-.245-.06-.178-.08-.282-.126c-.103-.045-.222-.088-.356-.127-.134-.04-.29-.06-.465-.06-.27 0-.477.055-.625.163s-.222.25-.222.428c0 .123.042.226.126.308.083.083.194.155.332.216.138.062.295.118.47.17.177.055.358.112.544.176.186.063.367.136.543.218.175.083.332.187.47.31.138.125.25.274.333.45.084.175.126.386.126.634 0 .295-.056.567-.166.817s-.27.465-.483.645c-.21.182-.475.323-.79.426-.317.103-.68.154-1.093.154-.212 0-.422-.02-.63-.057-.208-.037-.406-.09-.594-.16-.188-.067-.364-.147-.528-.238-.164-.09-.306-.19-.426-.296l.383-.608c.044-.07.1-.126.165-.165s.15-.058.255-.058c.1 0 .192.024.276.073.083.05.177.103.28.16.105.057.228.11.37.16.142.048.32.072.53.072.16 0 .3-.018.415-.053.116-.035.21-.084.282-.145.072-.063.125-.13.16-.208.033-.077.05-.156.05-.24 0-.133-.043-.242-.13-.326-.085-.085-.197-.158-.335-.222-.138-.063-.297-.12-.477-.17-.18-.053-.363-.11-.55-.173-.185-.062-.367-.137-.545-.223-.178-.087-.336-.196-.474-.328-.138-.133-.25-.295-.336-.488-.086-.192-.13-.427-.13-.702 0-.252.05-.49.15-.717.1-.227.25-.427.45-.6s.45-.31.748-.413c.298-.103.643-.153 1.035-.153.44 0 .84.07 1.2.212s.656.326.888.555l-.377.58z"/></g><g fill="#E81F64"><path d="M259.587 102.948h-1.398c-.157 0-.284-.036-.382-.11-.098-.07-.17-.165-.22-.28l-.587-1.635h-3.467l-.588 1.636c-.04.098-.11.187-.21.268-.1.08-.226.12-.378.12h-1.41l3.402-8.565h1.84l3.397 8.565zm-5.616-3.253h2.593l-.942-2.62c-.055-.14-.114-.3-.176-.485-.062-.185-.123-.384-.183-.596-.055.216-.113.418-.173.604-.06.188-.118.35-.174.487l-.942 2.61zM261.83 94.146v8.802h-1.655v-8.802h1.656zM264.88 94.146v8.802h-1.657v-8.802h1.656zM274.053 96.023c-.056.09-.113.156-.17.198-.06.042-.134.063-.226.063-.088 0-.183-.03-.285-.092-.102-.06-.22-.126-.357-.196-.136-.07-.292-.137-.468-.198-.176-.06-.382-.09-.618-.09-.417 0-.73.09-.937.273-.208.182-.312.42-.312.716 0 .19.058.346.172.47.114.124.264.23.45.32.186.092.397.173.633.243s.478.147.726.232.49.184.727.298.447.258.633.43c.186.175.336.386.45.636.114.25.17.555.17.912 0 .39-.068.755-.206 1.096-.138.34-.337.638-.597.89-.26.255-.58.455-.963.6-.382.147-.815.22-1.3.22-.275 0-.55-.028-.824-.083-.274-.054-.538-.13-.792-.23-.254-.097-.493-.215-.717-.353s-.42-.292-.587-.46l.528-.84c.045-.062.103-.114.175-.156.072-.04.148-.06.228-.06.108 0 .222.038.342.117s.258.165.414.26c.155.095.336.18.542.26s.453.118.74.118c.42 0 .746-.095.976-.283.23-.19.345-.47.345-.845 0-.216-.057-.392-.17-.525-.115-.134-.264-.246-.448-.336-.184-.09-.394-.17-.63-.233-.236-.065-.478-.137-.726-.216-.25-.078-.49-.173-.727-.283-.236-.11-.446-.256-.63-.437-.184-.182-.333-.405-.447-.674-.114-.268-.17-.6-.17-.997 0-.32.063-.628.19-.927.13-.3.317-.566.565-.798.25-.232.554-.42.916-.562.362-.142.777-.212 1.245-.212.525 0 1.01.08 1.456.24.446.158.823.38 1.13.663l-.443.833zM277.856 103.043c-.28 0-.528-.04-.744-.12-.216-.082-.398-.197-.546-.347s-.26-.33-.336-.543c-.076-.213-.114-.452-.114-.72V98.03h-.582c-.088 0-.163-.027-.225-.082-.063-.056-.094-.138-.094-.248v-.638l.99-.177.336-1.576c.044-.18.166-.268.366-.268h.864v1.854h1.596v1.133h-1.596v3.176c0 .17.04.303.123.4s.2.148.35.148c.08 0 .15-.01.205-.026.056-.018.104-.038.144-.06l.11-.06s.07-.025.106-.025c.048 0 .088.01.12.032.032.02.064.058.096.11l.498.778c-.228.177-.486.31-.774.4-.288.094-.585.14-.894.14zM284.342 102.948c-.155 0-.274-.02-.356-.064-.082-.044-.15-.134-.2-.272l-.133-.384c-.156.135-.307.25-.453.352s-.298.186-.456.254c-.157.07-.325.12-.504.156-.178.036-.375.054-.59.054-.272 0-.52-.036-.745-.106-.224-.07-.417-.176-.58-.316-.16-.14-.286-.313-.374-.522-.087-.208-.13-.448-.13-.72 0-.225.057-.447.173-.67.116-.223.315-.425.597-.608s.66-.335 1.127-.457c.47-.122 1.06-.19 1.768-.207v-.313c0-.382-.082-.662-.246-.842-.165-.18-.4-.27-.71-.27-.227 0-.417.027-.568.08-.152.054-.285.11-.4.172-.113.062-.22.118-.32.17-.1.055-.216.08-.348.08-.116 0-.213-.027-.29-.085-.08-.057-.144-.124-.196-.203l-.294-.52c.364-.323.766-.563 1.206-.724.44-.16.916-.238 1.428-.238.368 0 .697.06.987.177s.536.282.737.493c.203.21.357.46.466.752.108.292.16.61.16.957v3.825h-.756zm-2.178-1.004c.272 0 .51-.048.715-.145.202-.097.404-.246.604-.446v-.944c-.404.016-.74.05-1.008.1-.268.052-.48.115-.64.192-.157.076-.27.165-.335.266-.065.1-.1.21-.1.327 0 .236.067.403.202.502.135.1.322.147.562.147zM288.53 103.043c-.28 0-.528-.04-.743-.12-.217-.082-.398-.197-.547-.347s-.26-.33-.336-.543-.113-.452-.113-.72V98.03h-.58c-.09 0-.165-.027-.227-.082-.062-.056-.093-.138-.093-.248v-.638l.99-.177.336-1.576c.043-.18.166-.268.365-.268h.865v1.854h1.597v1.133h-1.597v3.176c0 .17.04.303.123.4s.2.148.35.148c.08 0 .15-.01.206-.026.055-.018.104-.038.144-.06l.11-.06c.035-.017.07-.025.105-.025.048 0 .088.01.12.032s.063.058.096.11l.497.778c-.228.177-.485.31-.774.4-.286.094-.585.14-.893.14zM293.606 96.768c.396 0 .76.062 1.095.186s.623.304.865.54c.24.236.43.526.563.87.135.346.2.738.2 1.18 0 .12-.005.222-.017.3-.01.08-.03.142-.06.19-.027.046-.066.078-.113.096-.05.02-.11.027-.187.027h-3.714c.052.57.217.987.495 1.25s.644.397 1.096.397c.23 0 .426-.026.592-.08.165-.053.312-.11.438-.177.126-.064.24-.124.342-.177s.203-.08.303-.08c.13 0 .23.048.302.142l.48.59c-.178.2-.37.368-.583.5s-.434.236-.66.313c-.23.077-.46.13-.69.16-.232.03-.456.044-.673.044-.432 0-.834-.07-1.21-.21-.372-.14-.698-.348-.977-.62s-.497-.613-.657-1.02c-.16-.405-.24-.875-.24-1.41 0-.413.07-.803.207-1.17.14-.365.338-.684.598-.956.26-.27.576-.486.947-.646.374-.16.794-.24 1.26-.24zm.03 1.144c-.395 0-.706.11-.93.334s-.37.536-.438.94h2.58c0-.168-.022-.33-.068-.482-.046-.154-.12-.29-.22-.408s-.226-.21-.378-.28c-.152-.07-.334-.104-.545-.104zM301.202 98.113c-.044.067-.09.115-.135.145s-.108.044-.188.044-.163-.02-.247-.06-.18-.08-.282-.126c-.103-.045-.223-.088-.356-.127s-.29-.06-.465-.06c-.27 0-.477.054-.625.162s-.223.25-.223.428c0 .122.043.225.127.307.083.083.194.155.33.216.14.062.297.118.473.17.176.055.356.112.543.176.187.062.367.135.543.217.176.083.332.187.47.31.138.125.25.274.333.45.084.175.127.386.127.634 0 .296-.056.568-.166.818-.11.25-.27.466-.482.646-.213.182-.477.323-.792.426-.315.102-.68.153-1.093.153-.21 0-.422-.02-.63-.057-.208-.037-.405-.09-.593-.16-.19-.067-.365-.147-.53-.238-.163-.09-.304-.188-.425-.295l.384-.608c.043-.07.1-.126.164-.165.066-.04.15-.06.256-.06.1 0 .19.025.275.074.083.05.177.103.28.16.105.057.23.11.37.16.142.048.32.072.53.072.16 0 .3-.018.414-.053.117-.035.21-.084.283-.145.07-.062.125-.13.158-.207.034-.076.05-.155.05-.238 0-.134-.042-.243-.128-.327-.086-.085-.197-.158-.336-.222-.137-.063-.296-.12-.476-.17-.18-.053-.363-.11-.55-.173-.186-.063-.368-.138-.546-.224-.178-.087-.336-.196-.474-.328s-.25-.294-.336-.487c-.086-.19-.13-.426-.13-.7 0-.253.05-.492.15-.718.1-.227.25-.427.45-.6s.45-.31.747-.413c.3-.104.643-.154 1.035-.154.44 0 .84.07 1.2.212s.655.327.888.556l-.376.58z"/></g></svg>