<svg xmlns="http://www.w3.org/2000/svg" width="482.167" height="138.333" viewBox="0 0 482.167 138.333"><g fill="#01A0B0"><path d="M142.257 111.573c-1.42 3.038 1.025 5.64 4.61 7.528 1.262-1.6 2.4-3.306 3.38-5.11-3.216.96-6.73-.353-7.99-2.417z"/><path d="M93.114 108.662c-9.917-18.262-2.827-28.616 7.822-28.616 10.444 0 17.712 9.97 7.822 28.616-3.25 6.126.83 10.8 8.036 12.463.274.063.527.138.786.21 6.038-1.67 12.52-5.23 10.4-9.762-1.467 2.354-6.042 3.815-9.6 1.726 10.242-2.586-5.037-20.335 8.35-30.284 4.81-3.69 11.89-3.65 16.776 0 12.87 9.564-.74 26.33 7.287 29.91 2.46-4.903 3.854-10.432 3.854-16.29 0-20.088-16.284-36.37-36.37-36.37-20.088 0-36.372 16.282-36.372 36.37 0 8.104 2.654 15.59 7.137 21.636 4.02-2.12 6.39-5.342 4.072-9.61z"/></g><path fill="#4DAF4E" d="M175.918 124.206c1.02-1.226 2.498-2.213 4.678-2.71 6.393-1.458 14.19-5.23 11.896-10.14-1.468 2.355-6.043 3.816-9.602 1.727 10.243-2.585-5.036-20.334 8.352-30.283 4.81-3.69 11.888-3.65 16.775 0 13.387 9.95-1.892 27.698 8.352 30.283-3.56 2.09-8.128.69-9.603-1.726-2.295 4.908 5.497 8.68 11.896 10.14 2.215.505 3.708 1.468 4.727 2.658 7.716-6.67 12.605-16.52 12.605-27.52 0-20.086-16.284-36.37-36.37-36.37-20.088 0-36.372 16.284-36.372 36.37 0 11.028 4.914 20.9 12.665 27.57z"/><g fill="#F79420"><path d="M386.952 111.573c-1.42 3.038 1.024 5.64 4.61 7.528 1.262-1.602 2.398-3.306 3.38-5.11-3.216.96-6.73-.353-7.99-2.417z"/><path d="M337.81 108.662c-9.917-18.262-2.827-28.616 7.82-28.616 10.445 0 17.714 9.97 7.823 28.616-3.25 6.126.83 10.8 8.036 12.463.273.063.525.138.785.21 6.038-1.67 12.52-5.23 10.4-9.762-1.467 2.354-6.042 3.815-9.6 1.726 10.242-2.586-5.037-20.335 8.35-30.284 4.81-3.69 11.89-3.65 16.776 0 12.87 9.564-.74 26.33 7.288 29.91 2.46-4.903 3.854-10.432 3.854-16.29 0-20.088-16.284-36.37-36.37-36.37-20.087 0-36.37 16.282-36.37 36.37 0 8.104 2.653 15.588 7.136 21.635 4.018-2.117 6.39-5.34 4.072-9.608z"/></g><path fill="#065296" d="M53.57 96.22c2.86 0 5.14 1.17 6.417 3.293 1.996 3.317 1.322 8.487-1.897 14.557-.823 1.552-1.002 2.726-.563 3.695.512 1.13 1.71 1.72 3.557 2.25l3.748.525c5.587-6.392 8.984-14.747 8.984-23.905 0-20.087-16.283-36.37-36.37-36.37-20.088 0-36.37 16.282-36.37 36.37 0 10.375 4.35 19.727 11.317 26.353.927-2.466 2.642-4.35 5.823-5.083 7.052-1.626 14.014-3.08 10.667-9.243-9.917-18.262-2.827-28.616 7.822-28.616 7.697 0 13.64 5.436 12.288 15.75-1.316.695-2.404 1.712-3.173 3.005-1.413 2.376-1.687 5.46-.857 9-.146.287-.28.57-.436.862-2.107 3.97-.026 5.98 3.66 7.354.053.347.02.654-.1.924-.644 1.426-3.69 2.127-6.634 2.805l-.296.068c-5.168 1.193-5.162 5.223-5.154 9.49v.525h1.5v-.528c-.008-4.666.166-7.142 3.99-8.025l.296-.068c3.452-.794 6.714-1.545 7.663-3.65.45-.997.313-2.17-.404-3.492-3.252-5.987-3.94-11.135-1.942-14.496 1.286-2.162 3.58-3.35 6.463-3.35z"/><path fill="#FFF" d="M227.27 122.727l8.71 1.22-.608 4.34-8.71-1.22z"/><path fill="#FDD836" d="M313.256 112.928c2.46-4.902 3.854-10.433 3.854-16.292 0-20.087-16.283-36.37-36.37-36.37s-36.37 16.283-36.37 36.37c0 8.104 2.653 15.586 7.134 21.632.29-.153.568-.312.84-.475l.08.16c.508.956.685 1.68.564 2.18.352.415.71.822 1.08 1.22.09-.13.178-.26.245-.408.44-.97.26-2.144-.562-3.695-3.22-6.07-3.893-11.24-1.897-14.557 1.278-2.125 3.557-3.295 6.416-3.295 2.88 0 5.176 1.19 6.46 3.35 2 3.36 1.31 8.507-1.94 14.495-.716 1.32-.852 2.496-.403 3.492.95 2.105 4.21 2.855 7.663 3.65l.296.068c3.813.88 4 3.343 3.99 7.98.498.087.998.166 1.5.233v-.188c.008-4.267.015-8.295-5.153-9.488l-.296-.068c-2.944-.678-5.99-1.378-6.632-2.805-.25-.554-.134-1.26.354-2.16 3.512-6.47 4.19-12.146 1.91-15.98-1.543-2.594-4.37-4.082-7.75-4.082-2.5 0-4.695.815-6.288 2.287-3.836-12.95 2.55-20.138 11.418-20.138 10.444 0 17.712 9.97 7.822 28.616-3.25 6.126.83 10.8 8.036 12.463.274.063.527.138.786.21 6.038-1.67 12.52-5.23 10.4-9.762-1.467 2.355-6.042 3.816-9.6 1.727 10.242-2.585-5.037-20.334 8.35-30.283 4.81-3.69 11.89-3.65 16.776 0 7.354 5.466 6.058 13.285 5.094 19.652-.122-.257-.255-.508-.4-.75-1.537-2.555-4.345-4.02-7.7-4.02-3.384 0-6.21 1.487-7.753 4.082-2.28 3.833-1.6 9.507 1.914 15.978.488.9.604 1.605.354 2.16-.643 1.425-3.688 2.126-6.632 2.804l-.298.068c-5.168 1.192-5.16 5.223-5.154 9.49v.22c.504-.065 1.004-.14 1.5-.224-.008-4.666.167-7.142 3.992-8.024l.296-.068c3.453-.795 6.715-1.545 7.663-3.65.45-.997.313-2.17-.403-3.492-3.25-5.987-3.94-11.135-1.942-14.496 1.285-2.16 3.58-3.35 6.463-3.35 2.86 0 5.138 1.17 6.416 3.294 1.995 3.317 1.32 8.487-1.897 14.557-.824 1.552-1.003 2.726-.563 3.695.093.204.212.388.35.56.353-.376.697-.76 1.034-1.152-.004-.01-.014-.017-.018-.026-.175-.387-.102-.96.206-1.7.274.16.556.317.845.47 1.265-1.607 2.404-3.317 3.387-5.126-.74.22-1.496.332-2.237.336.386-.996.69-1.96.93-2.897.42.632 1.008 1.153 1.84 1.523zM476.604 112.928c2.46-4.902 3.854-10.433 3.854-16.292 0-20.087-16.283-36.37-36.37-36.37s-36.37 16.283-36.37 36.37c0 8.104 2.653 15.586 7.134 21.632.29-.153.568-.312.84-.475.03.054.053.106.082.16.507.956.684 1.68.563 2.18.352.415.71.822 1.08 1.22.09-.13.178-.26.244-.408.44-.97.263-2.144-.562-3.695-3.22-6.07-3.893-11.24-1.897-14.557 1.28-2.125 3.558-3.295 6.417-3.295 2.882 0 5.177 1.19 6.462 3.35 1.998 3.36 1.31 8.507-1.94 14.495-.72 1.32-.854 2.496-.404 3.492.948 2.105 4.21 2.855 7.662 3.65l.297.068c3.813.88 3.998 3.343 3.99 7.98.497.087.997.166 1.5.233v-.188c.008-4.267.015-8.295-5.154-9.488l-.295-.068c-2.944-.678-5.99-1.378-6.632-2.805-.25-.554-.134-1.26.354-2.16 3.513-6.47 4.192-12.146 1.91-15.98-1.542-2.594-4.368-4.082-7.75-4.082-2.5 0-4.694.815-6.286 2.287-3.835-12.95 2.55-20.138 11.42-20.138 10.442 0 17.71 9.97 7.82 28.616-3.25 6.126.83 10.8 8.036 12.463.274.063.527.138.786.21 6.038-1.67 12.52-5.23 10.4-9.762-1.467 2.355-6.042 3.816-9.6 1.727 10.242-2.585-5.036-20.334 8.35-30.283 4.81-3.69 11.89-3.65 16.776 0 7.354 5.466 6.058 13.285 5.094 19.652-.122-.257-.255-.508-.4-.75-1.537-2.555-4.345-4.02-7.7-4.02-3.384 0-6.21 1.487-7.753 4.082-2.28 3.833-1.602 9.507 1.912 15.978.488.9.604 1.605.354 2.16-.643 1.425-3.688 2.126-6.632 2.804l-.298.068c-5.168 1.192-5.16 5.223-5.154 9.49v.22c.504-.065 1.004-.14 1.5-.224-.008-4.666.167-7.142 3.992-8.024l.296-.068c3.453-.795 6.715-1.545 7.663-3.65.45-.997.313-2.17-.403-3.492-3.25-5.987-3.94-11.135-1.942-14.496 1.285-2.16 3.58-3.35 6.463-3.35 2.86 0 5.14 1.17 6.417 3.294 1.996 3.317 1.322 8.487-1.896 14.557-.823 1.552-1.002 2.726-.562 3.695.093.204.212.388.35.56.353-.376.697-.76 1.034-1.152-.004-.01-.014-.017-.018-.026-.175-.387-.102-.96.206-1.7.274.16.556.317.845.47 1.265-1.607 2.404-3.317 3.387-5.126-.74.22-1.496.332-2.237.336.386-.996.69-1.96.93-2.897.42.632 1.007 1.153 1.84 1.523z"/><path fill="none" d="M6.446 21.667h62v25.667h-62z"/><path fill="#58595B" d="M28.784 28.464c0 .57-.07 1.087-.213 1.554-.142.467-.356.867-.643 1.2s-.647.594-1.082.778c-.434.185-.945.276-1.533.276-.266 0-.528-.014-.787-.042-.26-.028-.53-.074-.81-.14l.127-1.38c.014-.12.063-.218.147-.293.083-.074.202-.112.356-.112.08 0 .177.013.294.04.117.024.257.038.42.038.23 0 .428-.032.6-.095s.31-.168.422-.315c.112-.147.196-.34.252-.578.056-.238.084-.532.084-.882V21.96h2.366v6.504zM35.042 32.16c-.206 0-.36-.028-.466-.084s-.192-.173-.262-.35l-.154-.4c-.182.155-.357.29-.525.407s-.342.216-.52.297-.372.142-.575.182c-.203.04-.428.06-.676.06-.33 0-.632-.044-.903-.13s-.5-.213-.688-.38-.335-.378-.438-.627c-.103-.25-.154-.538-.154-.865 0-.256.065-.52.196-.79.13-.272.357-.518.68-.74.32-.22.755-.406 1.3-.556s1.235-.233 2.066-.252v-.308c0-.424-.087-.73-.263-.92-.176-.19-.424-.284-.746-.284-.257 0-.467.028-.63.084-.163.056-.31.12-.438.19s-.253.132-.375.188c-.12.056-.265.084-.433.084-.15 0-.275-.038-.378-.112-.104-.074-.188-.163-.253-.266l-.392-.68c.438-.386.925-.674 1.46-.864.533-.19 1.106-.283 1.717-.283.438 0 .834.072 1.187.214.352.143.65.34.895.595s.433.555.563.905.196.733.196 1.148v4.536h-.992zm-2.492-1.323c.28 0 .525-.05.735-.147.21-.098.422-.256.637-.476v-1.008c-.434.02-.79.056-1.07.112s-.503.126-.666.21c-.164.084-.277.18-.34.287-.063.107-.094.224-.094.35 0 .248.067.42.203.52.135.102.334.152.595.152zM42.755 26.623c-.065.08-.128.143-.19.19-.06.046-.146.07-.258.07-.107 0-.204-.027-.29-.078l-.292-.17s-.233-.12-.378-.173c-.145-.05-.325-.077-.54-.077-.265 0-.495.05-.688.147-.195.098-.355.238-.48.42s-.22.405-.28.668-.09.56-.09.893c0 .695.133 1.23.4 1.603.27.374.64.56 1.11.56.253 0 .452-.032.6-.095s.27-.132.374-.21l.284-.212s.195-.098.325-.098c.173 0 .304.063.392.19l.63.776c-.224.256-.46.465-.707.626-.248.16-.5.287-.76.378-.26.09-.52.154-.78.19-.262.034-.516.05-.763.05-.443 0-.867-.083-1.27-.25s-.76-.413-1.065-.732c-.306-.32-.548-.713-.728-1.18-.18-.466-.27-.998-.27-1.595 0-.522.078-1.012.234-1.466.156-.455.388-.85.693-1.183s.683-.596 1.133-.788.972-.287 1.564-.287c.57 0 1.07.09 1.498.272.43.182.816.448 1.162.798l-.572.763zM46.402 21.68v5.874h.322c.135 0 .238-.02.308-.06.07-.04.14-.106.21-.2l1.372-2.044c.084-.116.18-.204.287-.262.108-.06.246-.087.414-.087h1.988l-1.876 2.584c-.178.233-.388.424-.63.574.107.08.206.17.294.276.09.105.173.223.252.354l2.044 3.472h-1.96c-.164 0-.304-.027-.42-.08s-.214-.15-.294-.284l-1.372-2.57c-.065-.116-.133-.19-.203-.227-.07-.036-.175-.053-.315-.053h-.42v3.213h-2.17V21.68h2.17z"/><path fill="none" d="M87.276 21.667h62v33.667h-62z"/><path fill="#58595B" d="M99.002 28.464c0 .57-.07 1.087-.213 1.554-.144.467-.358.867-.645 1.2s-.647.594-1.082.778c-.434.185-.945.276-1.533.276-.266 0-.528-.014-.787-.042-.26-.028-.53-.074-.81-.14l.127-1.38c.014-.12.063-.218.147-.293.084-.074.203-.112.357-.112.08 0 .177.013.294.04.117.024.257.038.42.038.23 0 .428-.032.6-.095s.31-.168.422-.315c.112-.147.196-.34.252-.578.056-.238.084-.532.084-.882V21.96h2.366v6.504zM105.26 32.16c-.206 0-.36-.028-.466-.084s-.192-.173-.262-.35l-.154-.4c-.182.155-.357.29-.525.407s-.342.216-.52.297-.372.142-.575.182c-.203.04-.428.06-.676.06-.33 0-.632-.044-.903-.13s-.5-.213-.69-.38-.335-.378-.438-.627c-.103-.25-.154-.538-.154-.865 0-.256.065-.52.196-.79.13-.272.357-.518.68-.74.32-.22.755-.406 1.3-.556s1.235-.233 2.066-.252v-.308c0-.424-.087-.73-.263-.92-.175-.19-.423-.284-.745-.284-.257 0-.467.028-.63.084-.163.056-.31.12-.438.19s-.253.132-.375.188c-.122.056-.267.084-.435.084-.15 0-.275-.038-.378-.112-.103-.074-.187-.163-.252-.266l-.392-.68c.438-.386.925-.674 1.46-.864.533-.19 1.106-.283 1.717-.283.438 0 .834.072 1.187.214.353.143.65.34.896.595s.433.555.563.905.196.733.196 1.148v4.536h-.992zm-2.492-1.323c.28 0 .525-.05.735-.147.21-.098.422-.256.637-.476v-1.008c-.434.02-.79.056-1.07.112s-.503.126-.666.21c-.164.084-.277.18-.34.287-.063.107-.094.224-.094.35 0 .248.067.42.203.52.136.102.334.152.595.152zM112.253 26.49c-.056.09-.116.152-.18.19-.062.037-.143.055-.24.055-.103 0-.206-.022-.308-.067l-.333-.143c-.12-.052-.253-.1-.403-.144s-.32-.066-.512-.066c-.275 0-.486.053-.633.158-.147.105-.22.25-.22.438 0 .135.047.248.143.336.096.09.223.167.38.234.16.068.34.132.54.193s.406.128.616.203c.21.075.415.163.616.263.2.1.38.223.54.37s.285.325.38.535c.096.21.144.462.144.756 0 .36-.065.69-.196.995-.13.304-.326.565-.584.784-.26.218-.58.39-.96.51s-.817.182-1.312.182c-.248 0-.495-.023-.742-.07s-.486-.11-.717-.19c-.23-.078-.445-.173-.64-.283-.197-.11-.365-.23-.505-.355l.504-.798c.056-.093.127-.167.213-.22.086-.054.197-.08.333-.08.126 0 .24.027.34.083l.325.182c.117.065.253.126.41.182.156.056.354.084.59.084.17 0 .312-.018.428-.052.117-.035.21-.083.28-.144s.122-.128.155-.203.05-.152.05-.232c0-.145-.05-.264-.148-.357-.098-.092-.227-.173-.385-.24-.16-.068-.34-.13-.542-.19-.203-.058-.41-.125-.62-.2-.21-.074-.417-.164-.62-.27-.202-.104-.383-.237-.54-.398-.16-.16-.288-.358-.386-.59-.098-.234-.147-.517-.147-.848 0-.308.06-.6.18-.878.118-.277.296-.52.534-.73.24-.21.538-.378.897-.5s.78-.187 1.26-.187c.26 0 .515.022.76.07.244.045.474.11.688.195.215.084.41.183.588.297.177.115.333.24.47.375l-.49.763zM117.223 24.79c.55 0 1.052.085 1.505.258.453.172.84.42 1.166.742.324.322.576.713.756 1.173.18.46.27.976.27 1.55 0 .58-.09 1.1-.27 1.564s-.432.86-.756 1.183-.713.574-1.166.75c-.453.174-.954.26-1.505.26-.556 0-1.06-.086-1.516-.26-.455-.176-.847-.426-1.176-.75-.328-.324-.582-.72-.762-1.183s-.27-.986-.27-1.564c0-.574.09-1.09.27-1.55.18-.46.434-.85.763-1.173.33-.322.722-.57 1.177-.742.455-.173.96-.26 1.516-.26zm0 5.872c.5 0 .867-.176 1.103-.528.235-.353.354-.888.354-1.606s-.118-1.253-.354-1.603c-.236-.35-.604-.525-1.103-.525-.514 0-.89.175-1.127.525-.238.35-.357.884-.357 1.603s.118 1.254.356 1.606c.237.352.613.528 1.127.528zM122.01 32.16V24.9h1.344c.27 0 .448.122.532.365l.126.42c.14-.13.285-.252.434-.364.15-.11.31-.206.48-.283s.353-.138.552-.182c.198-.044.414-.066.647-.066.396 0 .748.068 1.053.206s.563.33.774.574c.21.245.368.537.476.875s.16.706.16 1.103v4.613h-2.17V27.55c0-.355-.08-.63-.244-.83-.163-.198-.404-.298-.72-.298-.24 0-.463.052-.673.154s-.41.24-.6.413v5.173h-2.17zM137.228 21.85c.453 0 .852.065 1.197.2.345.132.637.307.875.524.238.217.424.468.56.752.135.285.22.576.252.875l-1.4.28c-.248.057-.43-.04-.546-.293-.107-.243-.232-.427-.374-.553-.143-.126-.33-.19-.564-.19-.163 0-.306.03-.427.092-.12.06-.222.14-.304.238-.082.098-.144.212-.186.343s-.063.266-.063.406c0 .122.01.237.032.347.02.11.056.222.107.336s.12.232.207.354c.086.122.195.254.326.4l2.52 2.66c.126-.28.23-.573.308-.876.08-.303.13-.618.154-.945.014-.132.058-.234.133-.31s.175-.11.3-.11h1.373c0 .68-.09 1.316-.273 1.907-.182.59-.44 1.13-.777 1.62l2.142 2.255h-2.142c-.107 0-.203-.006-.287-.018s-.16-.03-.233-.06c-.072-.028-.14-.067-.207-.12s-.135-.116-.21-.195l-.44-.463c-.444.308-.93.546-1.454.714s-1.084.253-1.676.253c-.406 0-.804-.07-1.194-.21-.39-.14-.736-.34-1.04-.598-.303-.26-.548-.573-.734-.942s-.28-.78-.28-1.24c0-.307.048-.6.144-.874.095-.276.23-.532.402-.768.173-.235.38-.45.62-.644.24-.193.502-.363.788-.507-.22-.34-.378-.673-.476-1-.098-.327-.147-.644-.147-.952 0-.364.066-.708.2-1.032.132-.325.326-.61.58-.854.254-.245.567-.44.938-.585.372-.146.798-.218 1.278-.218zm-.686 8.75c.313 0 .603-.042.87-.124.27-.082.52-.197.753-.346l-2.345-2.485c-.257.21-.44.44-.546.686-.107.25-.16.507-.16.778 0 .224.033.427.1.61.068.18.166.337.292.468.126.13.276.232.45.305.177.073.372.11.586.11zM100.507 38.775c.07.01.133.027.19.053.055.025.108.062.16.108.05.046.11.11.175.19l4.844 6.124c-.02-.196-.033-.386-.042-.57-.01-.185-.014-.358-.014-.52V38.76h2.086V48.96h-1.232c-.182 0-.335-.03-.458-.087-.124-.06-.247-.16-.368-.305l-4.81-6.076c.015.177.027.35.036.52s.014.33.014.48v5.467h-2.086v-10.2h1.246c.103 0 .19.006.26.015zM111.974 39.713c0 .173-.035.335-.105.486-.07.15-.167.284-.288.398-.122.114-.263.205-.424.273-.16.068-.333.103-.514.103-.178 0-.343-.034-.497-.102-.154-.067-.29-.158-.41-.272s-.212-.248-.28-.4c-.068-.15-.102-.312-.102-.485 0-.177.034-.343.102-.497.067-.154.16-.29.28-.406s.255-.208.41-.273c.154-.065.32-.098.497-.098.182 0 .354.032.514.097.16.065.302.156.424.273.12.117.217.252.287.406.068.154.104.32.104.497zm-.224 1.988v7.26h-2.17V41.7h2.17zM118.602 43.423c-.065.08-.128.143-.19.19-.06.046-.146.07-.258.07-.107 0-.204-.027-.29-.078l-.292-.17s-.233-.12-.378-.173c-.145-.05-.325-.077-.54-.077-.265 0-.495.05-.688.147-.194.098-.354.238-.48.42s-.22.405-.28.668-.09.56-.09.893c0 .695.134 1.23.402 1.603.27.374.638.56 1.11.56.252 0 .45-.032.598-.095s.272-.132.375-.21l.285-.212s.195-.098.325-.098c.173 0 .304.063.392.19l.63.776c-.224.256-.46.465-.707.626-.248.16-.5.287-.76.378-.26.09-.52.154-.78.19-.262.034-.516.05-.763.05-.443 0-.867-.083-1.27-.25s-.76-.413-1.065-.732c-.306-.32-.548-.713-.728-1.18-.18-.466-.27-.998-.27-1.595 0-.522.077-1.012.233-1.466.156-.455.388-.85.693-1.183s.684-.596 1.134-.788.972-.287 1.564-.287c.57 0 1.07.09 1.498.272.43.182.816.448 1.162.798l-.572.763zM123.3 41.59c.55 0 1.05.085 1.504.258.453.172.84.42 1.166.742.324.322.576.713.756 1.173.18.46.27.976.27 1.55 0 .58-.09 1.1-.27 1.564s-.432.86-.756 1.183-.713.574-1.166.75c-.453.174-.954.26-1.505.26-.557 0-1.062-.086-1.517-.26-.455-.176-.847-.426-1.176-.75-.33-.324-.583-.72-.763-1.183s-.27-.986-.27-1.564c0-.574.09-1.09.27-1.55.18-.46.434-.85.763-1.173.33-.322.72-.57 1.176-.742.456-.173.96-.26 1.516-.26zm0 5.872c.498 0 .866-.176 1.102-.528.235-.353.354-.888.354-1.606s-.118-1.253-.354-1.603c-.236-.35-.604-.525-1.103-.525-.515 0-.89.175-1.128.525-.238.35-.357.884-.357 1.603s.12 1.254.357 1.606c.238.352.614.528 1.127.528zM130.257 38.48v10.48h-2.17V38.48h2.17zM134.926 41.59c.48 0 .92.074 1.32.223s.74.366 1.028.65c.287.286.51.635.672 1.047.16.413.24.88.24 1.404 0 .163-.006.296-.02.4-.014.102-.04.184-.077.244-.04.06-.088.103-.152.126-.063.023-.143.035-.24.035h-4.187c.07.606.255 1.046.554 1.32.298.272.684.408 1.155.408.25 0 .468-.03.65-.09s.344-.13.487-.204l.392-.203c.118-.06.243-.09.374-.09.173 0 .303.063.392.19l.63.776c-.224.256-.465.465-.724.626-.26.16-.525.287-.798.378-.273.09-.546.154-.82.19s-.532.05-.78.05c-.508 0-.985-.082-1.43-.248-.447-.166-.836-.412-1.17-.738-.334-.327-.598-.732-.79-1.218-.195-.485-.292-1.05-.292-1.694 0-.485.083-.945.25-1.38.165-.433.402-.813.713-1.14.31-.327.686-.585 1.127-.777s.94-.286 1.494-.286zm.042 1.497c-.416 0-.74.118-.973.354-.233.237-.387.576-.462 1.02h2.71c0-.173-.023-.34-.067-.504-.044-.164-.117-.31-.217-.438-.1-.128-.233-.232-.397-.312-.163-.08-.36-.12-.595-.12z"/><g><path fill="none" d="M168.624 21.667h62v25.667h-62z"/><path fill="#58595B" d="M182.327 28.464c0 .57-.07 1.087-.213 1.554-.143.467-.357.867-.644 1.2s-.647.594-1.082.778c-.434.185-.945.276-1.533.276-.266 0-.528-.014-.787-.042-.26-.028-.53-.074-.81-.14l.127-1.38c.014-.12.063-.218.147-.293.084-.074.203-.112.357-.112.078 0 .176.013.293.04.117.024.257.038.42.038.23 0 .428-.032.6-.095s.31-.168.422-.315c.112-.147.196-.34.252-.578.056-.238.084-.532.084-.882V21.96h2.367v6.504zM185.855 24.9v4.607c0 .36.082.637.245.833.163.196.403.294.72.294.24 0 .462-.05.67-.147.208-.098.41-.236.605-.413V24.9h2.17v7.26h-1.344c-.27 0-.447-.12-.53-.364l-.134-.42c-.14.136-.285.258-.434.368-.15.11-.31.203-.48.28-.17.077-.352.138-.548.182-.196.044-.41.066-.644.066-.396 0-.748-.07-1.053-.207-.306-.137-.563-.33-.774-.577-.21-.248-.37-.54-.476-.875-.107-.336-.16-.705-.16-1.106V24.9h2.168zM196.348 26.49c-.056.09-.116.152-.18.19-.062.037-.143.055-.24.055-.103 0-.206-.022-.308-.067l-.333-.143c-.12-.052-.253-.1-.403-.144s-.32-.066-.51-.066c-.276 0-.487.053-.634.158-.147.105-.22.25-.22.438 0 .135.047.248.143.336.096.09.223.167.38.234.16.068.34.132.54.193s.406.128.616.203c.21.075.414.163.615.263.2.1.38.223.54.37s.285.325.38.535c.096.21.144.462.144.756 0 .36-.066.69-.197.995-.13.304-.326.565-.584.784-.26.218-.58.39-.96.51s-.818.182-1.313.182c-.248 0-.495-.023-.742-.07s-.486-.11-.717-.19c-.23-.078-.445-.173-.64-.283-.197-.11-.365-.23-.505-.355l.504-.798c.056-.093.127-.167.213-.22.086-.054.197-.08.333-.08.126 0 .24.027.34.083l.325.182c.117.065.253.126.41.182.156.056.354.084.59.084.17 0 .312-.018.428-.052.116-.035.21-.083.28-.144s.12-.128.154-.203.05-.152.05-.232c0-.145-.05-.264-.148-.357-.098-.092-.227-.173-.385-.24-.16-.068-.34-.13-.542-.19-.203-.058-.41-.125-.62-.2-.21-.074-.417-.164-.62-.27-.202-.104-.383-.237-.54-.398-.16-.16-.288-.358-.386-.59-.1-.234-.148-.517-.148-.848 0-.308.06-.6.18-.878.118-.277.296-.52.534-.73.238-.21.537-.378.896-.5s.78-.187 1.26-.187c.26 0 .515.022.76.07.244.045.474.11.688.195.215.084.41.183.588.297.177.115.333.24.47.375l-.49.763zM205.82 24.915v7.245h-2.17V26.4h-3.04v3.604c0 .168.042.307.124.417.082.11.2.165.354.165.08 0 .146-.008.2-.024.053-.015.1-.034.14-.055s.076-.04.11-.056c.036-.018.077-.025.124-.025.065 0 .118.015.158.045s.08.078.123.144l.658 1.03c-.28.21-.594.367-.944.472s-.712.157-1.085.157c-.344 0-.65-.05-.913-.15-.264-.1-.485-.243-.665-.427-.18-.185-.316-.407-.41-.668-.093-.262-.14-.553-.14-.875V26.4h-.615c-.112 0-.208-.035-.287-.107-.08-.072-.12-.178-.12-.318v-.847l1.156-.224.427-1.77c.056-.225.214-.337.476-.337h1.133v2.12h5.206zm.3-2.01c0 .174-.035.337-.105.49-.07.155-.166.29-.287.404-.122.113-.263.203-.424.27-.16.064-.333.097-.514.097-.178 0-.343-.032-.497-.098-.154-.066-.29-.156-.41-.27s-.212-.25-.28-.404c-.068-.154-.102-.317-.102-.49s.035-.337.103-.494c.067-.156.16-.292.28-.406s.255-.206.41-.273c.154-.068.32-.102.497-.102.182 0 .354.035.514.103.16.067.302.16.424.273.12.114.217.25.287.406.07.157.105.32.105.494zM207.337 32.16V24.9h1.344c.272 0 .45.122.533.365l.126.42c.14-.13.284-.252.433-.364.15-.11.31-.206.48-.283s.353-.138.552-.182c.198-.044.414-.066.647-.066.396 0 .748.068 1.053.206s.563.33.774.574c.21.245.367.537.475.875s.16.706.16 1.103v4.613h-2.17V27.55c0-.355-.08-.63-.244-.83-.162-.198-.403-.298-.72-.298-.238 0-.462.052-.672.154s-.41.24-.602.413v5.173h-2.17zM218.517 24.79c.48 0 .92.074 1.32.223s.74.366 1.028.65c.287.286.51.635.672 1.047.16.413.24.88.24 1.404 0 .163-.006.296-.02.4-.014.102-.04.184-.077.244-.038.06-.087.103-.15.126-.064.023-.144.035-.242.035h-4.186c.07.606.254 1.046.553 1.32.298.272.684.408 1.155.408.252 0 .47-.03.65-.09s.345-.13.488-.204l.392-.203c.12-.06.244-.09.375-.09.173 0 .303.063.392.19l.63.776c-.224.256-.465.465-.724.626-.26.16-.525.287-.798.378-.273.09-.546.154-.82.19s-.532.05-.78.05c-.508 0-.985-.082-1.43-.248-.447-.166-.836-.412-1.17-.738-.334-.327-.598-.732-.79-1.218-.195-.485-.292-1.05-.292-1.694 0-.485.083-.945.25-1.38.165-.433.402-.813.713-1.14.31-.327.686-.585 1.127-.777s.938-.286 1.494-.286zm.042 1.497c-.417 0-.74.118-.974.354-.233.237-.387.576-.462 1.02h2.71c0-.173-.023-.34-.067-.504-.044-.164-.117-.31-.217-.438-.1-.128-.232-.232-.396-.312-.164-.08-.362-.12-.595-.12z"/></g><g><path fill="none" d="M249.74 21.667h62v32h-62z"/><path fill="#58595B" d="M266.387 28.05c.086.192.17.388.25.59.078-.206.16-.407.247-.603.086-.196.18-.382.277-.56l2.62-5.152c.046-.09.094-.158.143-.207.05-.05.104-.085.165-.108s.13-.038.207-.042c.077-.005.167-.007.27-.007h1.806v10.2h-2.085v-5.866c0-.284.014-.592.042-.924l-2.702 5.243c-.084.163-.197.287-.34.37-.142.085-.304.127-.486.127h-.323c-.182 0-.344-.042-.487-.126-.142-.084-.255-.208-.34-.37l-2.715-5.25c.02.162.033.324.042.485s.014.308.014.443v5.866h-2.085v-10.2h1.806c.104 0 .193.003.27.008.078.004.147.02.208.042s.115.06.165.108c.05.05.097.118.144.207l2.625 5.173c.09.178.18.362.265.553zM278.802 32.16c-.206 0-.36-.028-.466-.084s-.192-.173-.262-.35l-.154-.4c-.182.155-.357.29-.525.407s-.342.216-.52.297-.372.142-.575.182c-.203.04-.428.06-.676.06-.33 0-.632-.044-.903-.13s-.5-.213-.688-.38-.335-.378-.438-.627c-.103-.25-.154-.538-.154-.865 0-.256.065-.52.196-.79.13-.272.357-.518.68-.74.32-.22.755-.406 1.3-.556s1.235-.233 2.066-.252v-.308c0-.424-.087-.73-.263-.92-.176-.19-.424-.284-.746-.284-.257 0-.467.028-.63.084-.163.056-.31.12-.438.19s-.253.132-.375.188c-.12.056-.265.084-.433.084-.15 0-.275-.038-.378-.112-.104-.074-.188-.163-.253-.266l-.392-.68c.438-.386.925-.674 1.46-.864.533-.19 1.106-.283 1.717-.283.438 0 .834.072 1.187.214.352.143.65.34.895.595s.433.555.563.905.196.733.196 1.148v4.536h-.992zm-2.492-1.323c.28 0 .525-.05.735-.147.21-.098.422-.256.637-.476v-1.008c-.434.02-.79.056-1.07.112s-.503.126-.666.21c-.164.084-.277.18-.34.287-.063.107-.094.224-.094.35 0 .248.067.42.203.52.135.102.333.152.595.152zM282.82 28.408l-2.34-3.507h2.087c.153 0 .267.02.34.06.07.04.136.106.192.2l1.294 2.15c.056-.173.137-.34.244-.498l.925-1.617c.065-.103.134-.177.206-.224.07-.045.16-.07.27-.07h1.987l-2.338 3.41 2.435 3.85h-2.086c-.155 0-.28-.037-.376-.112s-.17-.164-.227-.266l-1.295-2.226c-.052.164-.115.303-.19.42l-1.063 1.806c-.065.093-.143.18-.23.26-.09.08-.204.118-.344.118h-1.932l2.435-3.752zM296.035 21.85c.452 0 .852.065 1.197.2.345.132.637.307.875.524.237.217.424.468.56.752s.22.576.252.875l-1.4.28c-.248.057-.43-.04-.547-.293-.107-.243-.232-.427-.374-.553-.144-.126-.332-.19-.564-.19-.164 0-.307.03-.428.092s-.223.14-.305.238c-.08.098-.143.212-.186.343-.04.13-.063.266-.063.406 0 .122.01.237.03.347.022.11.06.222.11.336.05.114.12.232.206.354.087.122.194.254.325.4l2.52 2.66c.127-.28.23-.573.31-.876.08-.303.13-.618.153-.945.014-.132.06-.234.133-.31s.177-.11.302-.11h1.373c0 .68-.092 1.316-.273 1.907s-.44 1.13-.777 1.62l2.143 2.255h-2.143c-.107 0-.203-.006-.287-.018s-.162-.03-.234-.06c-.072-.028-.14-.067-.207-.12-.064-.05-.135-.116-.21-.195l-.44-.463c-.443.308-.928.546-1.453.714-.524.17-1.084.253-1.676.253-.406 0-.805-.07-1.193-.21-.39-.14-.736-.34-1.04-.598-.304-.26-.548-.573-.735-.942-.186-.37-.28-.78-.28-1.24 0-.307.05-.6.145-.874.095-.276.23-.532.402-.768.173-.235.38-.45.62-.644.24-.193.502-.363.787-.507-.22-.34-.38-.673-.477-1s-.146-.644-.146-.952c0-.364.067-.708.2-1.032.133-.325.326-.61.58-.854.256-.245.568-.44.94-.585.37-.146.795-.218 1.275-.218zm-.685 8.75c.313 0 .603-.042.87-.124.27-.082.52-.197.753-.346l-2.345-2.485c-.257.21-.438.44-.546.686-.107.25-.16.507-.16.778 0 .224.033.427.1.61.068.18.166.337.29.468.128.13.278.232.452.305.175.073.37.11.586.11zM265.068 43.857c0 .737-.127 1.417-.382 2.04s-.612 1.163-1.074 1.618c-.462.455-1.02.81-1.67 1.064-.65.253-1.373.38-2.166.38h-3.962v-10.2h3.962c.793 0 1.515.13 2.167.386.65.257 1.208.61 1.67 1.064s.82.99 1.073 1.613c.255.623.382 1.302.382 2.034zm-2.422 0c0-.504-.065-.96-.196-1.365-.13-.406-.318-.75-.563-1.033s-.545-.5-.9-.652c-.354-.152-.758-.228-1.21-.228h-1.582v6.56h1.582c.452 0 .856-.077 1.21-.23.355-.15.655-.368.9-.65.245-.282.433-.626.563-1.032.13-.405.196-.862.196-1.37zM270.92 48.96c-.206 0-.36-.028-.466-.084s-.192-.173-.262-.35l-.154-.4c-.182.155-.357.29-.525.407s-.342.216-.52.297-.372.142-.575.182c-.203.04-.428.06-.676.06-.33 0-.632-.044-.903-.13s-.5-.213-.69-.38-.335-.378-.438-.627c-.103-.25-.154-.538-.154-.865 0-.256.065-.52.196-.79.13-.272.357-.518.68-.74.32-.22.755-.406 1.3-.556s1.235-.233 2.066-.252v-.308c0-.424-.087-.73-.263-.92-.175-.19-.423-.284-.745-.284-.257 0-.467.028-.63.084-.163.056-.31.12-.438.19s-.253.132-.375.188c-.122.056-.267.084-.435.084-.15 0-.275-.038-.378-.112-.103-.074-.187-.163-.252-.266l-.392-.68c.438-.386.925-.674 1.46-.864.533-.19 1.106-.283 1.717-.283.438 0 .834.072 1.187.214.353.143.65.34.896.595s.433.555.563.905.196.733.196 1.148v4.536h-.992zm-2.492-1.323c.28 0 .525-.05.735-.147.21-.098.422-.256.637-.476v-1.008c-.434.02-.79.056-1.07.112s-.503.126-.666.21c-.164.084-.277.18-.34.287-.063.107-.094.224-.094.35 0 .248.067.42.203.52.136.102.334.152.595.152zM273.3 48.96V41.7h1.344c.27 0 .448.122.532.365l.126.42c.14-.13.285-.252.434-.364.15-.11.31-.206.48-.283s.353-.138.552-.182c.198-.044.414-.066.647-.066.396 0 .748.068 1.053.206s.563.33.774.574c.21.245.368.537.476.875s.16.706.16 1.103v4.613h-2.17V44.35c0-.355-.08-.63-.244-.83-.163-.198-.404-.298-.72-.298-.24 0-.463.052-.673.154s-.41.24-.6.413v5.173h-2.17zM283.723 39.713c0 .173-.035.335-.104.486-.07.15-.167.284-.288.398-.122.114-.263.205-.424.273-.16.068-.333.103-.515.103-.178 0-.343-.034-.496-.102-.154-.067-.29-.158-.41-.272s-.212-.248-.28-.4c-.068-.15-.102-.312-.102-.485 0-.177.034-.343.102-.497.067-.154.16-.29.28-.406s.256-.208.41-.273c.153-.065.318-.098.496-.098.182 0 .354.032.515.097s.302.156.424.273c.12.117.217.252.287.406.068.154.103.32.103.497zM283.5 41.7v7.26h-2.17V41.7h2.17zM288.217 41.59c.48 0 .92.074 1.32.223s.74.366 1.028.65c.286.286.51.635.672 1.047.16.413.24.88.24 1.404 0 .163-.006.296-.02.4-.014.102-.04.184-.076.244s-.087.103-.15.126c-.062.023-.143.035-.24.035h-4.187c.07.606.254 1.046.553 1.32s.684.408 1.155.408c.253 0 .47-.03.652-.09.182-.062.344-.13.486-.204l.392-.203c.12-.06.244-.09.374-.09.174 0 .304.063.393.19l.63.776c-.224.256-.466.465-.724.626-.26.16-.525.287-.8.378-.272.09-.545.154-.817.19-.273.034-.533.05-.78.05-.51 0-.987-.082-1.433-.248-.445-.166-.835-.412-1.168-.738-.334-.327-.598-.732-.79-1.218-.195-.485-.292-1.05-.292-1.694 0-.485.082-.945.248-1.38s.405-.813.716-1.14c.31-.327.686-.585 1.127-.777.44-.19.938-.286 1.494-.286zm.042 1.497c-.416 0-.74.118-.975.354-.232.237-.387.576-.46 1.02h2.708c0-.173-.022-.34-.066-.504-.045-.164-.117-.31-.218-.438s-.232-.232-.397-.312c-.163-.08-.36-.12-.594-.12zM294.733 38.48v10.48h-2.17V38.48h2.17zM298.373 38.48v10.48h-2.17V38.48h2.17zM303.043 41.59c.48 0 .92.074 1.32.223s.74.366 1.028.65c.287.286.512.635.673 1.047.16.413.24.88.24 1.404 0 .163-.006.296-.02.4-.014.102-.04.184-.076.244s-.088.103-.15.126c-.063.023-.144.035-.242.035h-4.186c.07.606.253 1.046.552 1.32s.684.408 1.155.408c.252 0 .47-.03.65-.09.183-.062.345-.13.487-.204l.392-.203c.12-.06.244-.09.374-.09.174 0 .304.063.393.19l.63.776c-.224.256-.466.465-.724.626-.26.16-.526.287-.8.378-.273.09-.546.154-.818.19-.273.034-.533.05-.78.05-.51 0-.987-.082-1.433-.248-.446-.166-.836-.412-1.17-.738-.333-.327-.597-.732-.79-1.218-.194-.485-.29-1.05-.29-1.694 0-.485.08-.945.247-1.38s.404-.813.715-1.14c.31-.327.686-.585 1.127-.777.44-.19.937-.286 1.493-.286zm.042 1.497c-.415 0-.74.118-.974.354-.23.237-.386.576-.46 1.02h2.71c0-.173-.023-.34-.067-.504-.045-.164-.117-.31-.218-.438s-.23-.232-.396-.312c-.163-.08-.362-.12-.595-.12z"/></g><g><path fill="none" d="M331.973 21.667h62V55.1h-62z"/><path fill="#58595B" d="M349.432 24.033c-.07.112-.145.196-.22.252-.078.056-.178.084-.3.084-.106 0-.223-.035-.346-.103l-.42-.228s-.335-.16-.535-.23c-.2-.066-.43-.1-.685-.1-.444 0-.774.094-.99.283s-.326.444-.326.767c0 .206.063.375.194.51.13.137.303.253.516.35.21.1.454.19.727.27.273.083.553.174.838.274.283.1.563.218.836.354s.517.308.73.518c.21.21.383.465.514.767.13.3.196.664.196 1.088 0 .473-.082.914-.245 1.324-.164.41-.4.77-.71 1.074s-.693.546-1.148.72c-.455.176-.972.263-1.55.263-.318 0-.64-.032-.97-.097-.33-.065-.647-.158-.956-.277-.308-.12-.597-.26-.867-.423-.27-.163-.507-.345-.707-.546l.7-1.106c.057-.08.13-.145.22-.2.092-.053.19-.08.298-.08.14 0 .28.044.424.133.143.088.303.187.482.294s.387.206.62.294c.233.09.51.134.826.134.43 0 .763-.094 1-.283s.358-.488.358-.898c0-.238-.066-.432-.196-.58-.13-.15-.302-.274-.515-.372s-.454-.185-.725-.26c-.27-.073-.55-.156-.833-.248-.284-.09-.563-.203-.833-.336s-.512-.308-.725-.525c-.213-.216-.384-.486-.514-.81-.13-.325-.197-.726-.197-1.2 0-.384.078-.757.23-1.12.155-.365.38-.69.68-.974s.666-.512 1.1-.683c.434-.17.93-.255 1.49-.255.313 0 .617.024.914.074.297.05.578.12.844.217s.514.21.745.342c.23.133.437.284.62.452l-.588 1.1zM356.074 32.16c-.205 0-.36-.028-.466-.084s-.192-.173-.263-.35l-.154-.4c-.18.155-.355.29-.523.407s-.342.216-.52.297-.372.142-.574.182c-.203.04-.43.06-.676.06-.332 0-.633-.044-.903-.13s-.5-.213-.69-.38-.334-.378-.437-.627-.154-.538-.154-.865c0-.256.065-.52.196-.79.13-.272.356-.518.678-.74.322-.22.757-.406 1.302-.556.547-.15 1.234-.233 2.065-.252v-.308c0-.424-.087-.73-.263-.92-.175-.19-.424-.284-.745-.284-.257 0-.467.028-.63.084-.164.056-.31.12-.438.19-.13.07-.255.132-.376.188-.12.056-.266.084-.434.084-.15 0-.275-.038-.38-.112-.1-.074-.185-.163-.25-.266l-.392-.68c.438-.386.924-.674 1.46-.864.533-.19 1.106-.283 1.718-.283.438 0 .834.072 1.186.214.354.143.65.34.896.595s.433.555.563.905.197.733.197 1.148v4.536h-.993zm-2.492-1.323c.28 0 .525-.05.734-.147.21-.098.423-.256.638-.476v-1.008c-.435.02-.79.056-1.07.112s-.503.126-.665.21c-.165.084-.278.18-.34.287-.064.107-.096.224-.096.35 0 .248.067.42.203.52.136.102.333.152.595.152zM358.453 32.16V24.9h1.345c.27 0 .448.122.532.365l.12.392c.12-.126.246-.242.376-.347.13-.105.272-.196.424-.273.152-.077.315-.138.49-.182.175-.044.367-.066.578-.066.438 0 .8.112 1.088.338.287.227.505.53.654.907.12-.224.27-.416.445-.574.174-.157.363-.286.566-.384s.42-.17.646-.217c.226-.048.45-.07.675-.07.416 0 .785.06 1.107.185s.592.303.81.54.38.524.492.867c.11.343.167.73.167 1.166v4.613h-2.17V27.55c0-.75-.322-1.127-.966-1.127-.294 0-.537.098-.73.292-.194.194-.29.473-.29.837v4.612h-2.17V27.55c0-.417-.082-.708-.246-.876-.163-.168-.403-.252-.72-.252-.197 0-.382.044-.558.133-.175.09-.34.208-.494.357v5.25h-2.17zM377.605 21.85c.453 0 .852.065 1.197.2.346.132.637.307.875.524.238.217.424.468.56.752.136.285.22.576.253.875l-1.4.28c-.248.057-.43-.04-.547-.293-.106-.243-.23-.427-.373-.553-.143-.126-.33-.19-.564-.19-.163 0-.306.03-.427.092-.123.06-.225.14-.306.238-.08.098-.144.212-.186.343s-.063.266-.063.406c0 .122.012.237.032.347.02.11.058.222.108.336s.12.232.207.354c.086.122.194.254.325.4l2.52 2.66c.126-.28.23-.573.308-.876.08-.303.13-.618.154-.945.013-.132.058-.234.132-.31.075-.074.176-.11.302-.11h1.372c0 .68-.092 1.316-.273 1.907s-.44 1.13-.777 1.62l2.143 2.255h-2.144c-.107 0-.203-.006-.287-.018s-.163-.03-.235-.06c-.072-.028-.14-.067-.206-.12s-.137-.116-.21-.195l-.442-.463c-.443.308-.928.546-1.452.714s-1.084.253-1.677.253c-.407 0-.805-.07-1.194-.21-.39-.14-.736-.34-1.04-.598-.303-.26-.548-.573-.734-.942s-.28-.78-.28-1.24c0-.307.05-.6.145-.874.095-.276.23-.532.402-.768.17-.235.378-.45.618-.644.24-.193.502-.363.787-.507-.22-.34-.378-.673-.476-1-.1-.327-.148-.644-.148-.952 0-.364.066-.708.2-1.032.133-.325.326-.61.58-.854.255-.245.567-.44.94-.585.367-.146.793-.218 1.273-.218zm-.685 8.75c.313 0 .604-.042.87-.124.27-.082.52-.197.753-.346l-2.344-2.485c-.26.21-.44.44-.548.686-.107.25-.16.507-.16.778 0 .224.033.427.102.61.066.18.164.337.29.468.126.13.276.232.45.305s.37.11.586.11zM355.11 38.76v1.82h-4.185v2.38h3.206v1.75h-3.205v2.43h4.186v1.82h-6.565v-10.2h6.566zM358.485 38.48v10.48h-2.17V38.48h2.17zM362.125 38.48v10.48h-2.17V38.48h2.17zM366.795 41.59c.48 0 .92.074 1.32.223s.74.366 1.028.65c.286.286.51.635.672 1.047.16.413.24.88.24 1.404 0 .163-.006.296-.02.4-.014.102-.04.184-.076.244s-.09.103-.15.126c-.064.023-.145.035-.243.035h-4.186c.07.606.255 1.046.554 1.32s.684.408 1.155.408c.25 0 .468-.03.65-.09.182-.062.344-.13.486-.204l.392-.203c.12-.06.244-.09.374-.09.174 0 .304.063.393.19l.63.776c-.224.256-.466.465-.724.626-.26.16-.524.287-.798.378-.273.09-.546.154-.818.19-.273.034-.533.05-.78.05-.51 0-.987-.082-1.433-.248-.444-.166-.834-.412-1.167-.738-.334-.327-.598-.732-.79-1.218-.195-.485-.292-1.05-.292-1.694 0-.485.083-.945.25-1.38s.403-.813.714-1.14c.31-.327.686-.585 1.127-.777.44-.19.94-.286 1.495-.286zm.042 1.497c-.415 0-.74.118-.974.354-.232.237-.387.576-.46 1.02h2.708c0-.173-.02-.34-.065-.504-.045-.164-.117-.31-.218-.438s-.23-.232-.396-.312c-.16-.08-.36-.12-.593-.12zM371.142 48.96V41.7h1.345c.27 0 .447.122.53.365l.127.42c.14-.13.284-.252.435-.364.147-.11.308-.206.478-.283.17-.077.355-.138.554-.182.198-.044.414-.066.647-.066.395 0 .747.068 1.052.206.307.138.564.33.774.574.21.245.368.537.476.875s.16.706.16 1.103v4.613h-2.17V44.35c0-.355-.08-.63-.244-.83-.163-.198-.404-.298-.72-.298-.24 0-.464.052-.673.154-.21.103-.41.24-.603.413v5.173h-2.17z"/></g><g><path fill="none" d="M413.09 21.667h61.998v32.1h-62z"/><path fill="#58595B" d="M430.365 32.16h-2.38v-4.312h-4.144v4.312h-2.38v-10.2h2.38v4.264h4.145V21.96h2.38v10.2zM435.07 24.79c.48 0 .92.074 1.318.223s.742.366 1.03.65.51.635.67 1.047c.162.413.242.88.242 1.404 0 .163-.007.296-.02.4s-.04.184-.078.244-.087.103-.15.126c-.064.023-.144.035-.24.035h-4.188c.07.606.255 1.046.554 1.32.298.272.684.408 1.154.408.252 0 .47-.03.65-.09.183-.062.345-.13.487-.204.14-.074.27-.142.39-.203.12-.06.245-.09.376-.09.172 0 .303.063.392.19l.63.776c-.224.256-.465.465-.725.626-.26.16-.525.287-.798.378-.272.09-.546.154-.82.19-.27.034-.532.05-.778.05-.51 0-.986-.082-1.432-.248-.446-.166-.836-.412-1.17-.738s-.598-.732-.79-1.218-.29-1.05-.29-1.694c0-.485.082-.945.248-1.38.165-.433.402-.813.713-1.14s.687-.585 1.127-.777c.443-.19.94-.286 1.496-.286zm.04 1.497c-.415 0-.74.118-.972.354-.234.237-.388.576-.463 1.02h2.71c0-.173-.022-.34-.067-.504-.044-.164-.116-.31-.217-.438-.1-.128-.23-.232-.395-.312-.162-.08-.36-.12-.594-.12zM441.86 22.913c0 .173-.036.335-.106.486-.07.15-.166.284-.287.398s-.262.205-.424.273c-.16.068-.332.103-.514.103-.18 0-.345-.034-.498-.102-.154-.067-.29-.158-.41-.272s-.212-.248-.28-.4c-.066-.15-.1-.312-.1-.485 0-.177.033-.343.1-.497.068-.154.162-.29.28-.406s.256-.208.41-.273c.153-.065.32-.098.497-.098.18 0 .353.032.513.097.162.065.303.156.424.273s.217.252.287.406c.07.154.105.32.105.497zm-.225 1.988v7.26h-2.17V24.9h2.17zM448.383 32.16c-.27 0-.447-.12-.53-.364l-.17-.553c-.145.154-.296.294-.454.42-.16.126-.33.234-.517.326-.184.09-.383.16-.594.21-.214.048-.444.072-.69.072-.38 0-.73-.084-1.05-.252s-.6-.41-.834-.728c-.233-.317-.417-.706-.55-1.166-.133-.46-.2-.983-.2-1.57 0-.543.075-1.045.226-1.51.148-.463.36-.865.633-1.203s.602-.603.984-.794c.38-.192.804-.288 1.265-.288.374 0 .69.055.95.165.258.11.493.253.702.43v-3.675h2.17V32.16h-1.344zm-2.197-1.554c.158 0 .3-.015.43-.045s.246-.072.354-.128.21-.126.305-.21.19-.182.283-.294v-3.08c-.168-.182-.346-.31-.535-.38s-.39-.11-.6-.11c-.2 0-.384.04-.552.12-.167.08-.312.206-.437.38-.124.175-.22.403-.29.683-.07.28-.105.62-.105 1.016 0 .383.027.705.084.966.056.262.134.473.234.634.1.16.22.276.36.346.14.07.296.104.47.104zM453.64 22.913c0 .173-.034.335-.104.486-.07.15-.166.284-.287.398s-.264.205-.425.273c-.16.068-.332.103-.514.103-.177 0-.343-.034-.497-.102-.154-.067-.29-.158-.41-.272s-.21-.248-.28-.4c-.066-.15-.1-.312-.1-.485 0-.177.033-.343.1-.497.07-.154.162-.29.28-.406s.256-.208.41-.273.32-.098.498-.098c.183 0 .355.032.515.097.16.065.303.156.424.273s.216.252.286.406c.07.154.105.32.105.497zm-.224 1.988v7.26h-2.17V24.9h2.17zM462.172 21.85c.453 0 .853.065 1.197.2.345.132.637.307.874.524.238.217.425.468.56.752.136.285.22.576.253.875l-1.4.28c-.247.057-.43-.04-.546-.293-.105-.243-.23-.427-.373-.553s-.33-.19-.564-.19c-.162 0-.305.03-.426.092-.122.06-.224.14-.305.238-.082.098-.145.212-.186.343-.043.13-.063.266-.063.406 0 .122.01.237.032.347.02.11.057.222.107.336.052.114.12.232.207.354.085.122.194.254.325.4l2.52 2.66c.126-.28.23-.573.308-.876s.13-.618.154-.945c.014-.132.058-.234.133-.31s.175-.11.302-.11h1.37c0 .68-.09 1.316-.272 1.907-.182.59-.44 1.13-.776 1.62l2.142 2.255h-2.142c-.107 0-.203-.006-.287-.018s-.162-.03-.234-.06c-.072-.028-.142-.067-.206-.12-.066-.05-.136-.116-.21-.195l-.44-.463c-.444.308-.93.546-1.453.714-.525.17-1.084.253-1.677.253-.406 0-.804-.07-1.194-.21-.39-.14-.735-.34-1.04-.598-.302-.26-.548-.573-.733-.942-.188-.37-.28-.78-.28-1.24 0-.307.048-.6.144-.874s.23-.532.402-.768c.173-.235.38-.45.62-.644.24-.193.502-.363.787-.507-.22-.34-.378-.673-.476-1-.1-.327-.147-.644-.147-.952 0-.364.066-.708.2-1.032.133-.325.326-.61.58-.854.254-.245.566-.44.938-.585.368-.146.793-.218 1.274-.218zm-.686 8.75c.313 0 .604-.042.87-.124.27-.082.52-.197.754-.346l-2.345-2.485c-.257.21-.44.44-.546.686-.108.25-.162.507-.162.778 0 .224.033.427.102.61.067.18.164.337.29.468.126.13.276.232.452.305.175.073.37.11.584.11zM431.426 48.96v-10.2h3.752c.704 0 1.305.066 1.8.197s.897.315 1.21.553c.313.238.54.528.683.868.143.34.215.72.215 1.14 0 .23-.033.45-.1.663s-.167.413-.307.6c-.14.186-.32.355-.54.507-.22.15-.482.283-.79.396.672.163 1.17.428 1.49.794.322.366.483.836.483 1.41 0 .434-.083.838-.25 1.21-.17.374-.415.7-.74.977-.324.278-.724.495-1.2.65-.476.157-1.02.235-1.63.235h-4.074zm2.365-5.908h1.233c.262 0 .497-.02.707-.056.21-.038.39-.103.535-.196.147-.093.26-.222.336-.385.08-.164.116-.37.116-.616 0-.244-.03-.445-.09-.606s-.154-.29-.28-.388c-.126-.098-.286-.168-.48-.21s-.423-.063-.688-.063h-1.387v2.52zm0 1.582v2.54h1.667c.313 0 .568-.04.768-.118.197-.08.354-.182.465-.308s.19-.27.23-.427c.043-.157.063-.318.063-.482 0-.187-.024-.354-.073-.504s-.133-.275-.252-.378-.277-.182-.473-.238c-.196-.056-.443-.084-.742-.084h-1.652zM440.428 48.96V41.7h1.287c.107 0 .197.01.27.03s.133.047.183.086c.05.04.087.092.112.158s.047.145.066.238l.104.616c.23-.392.49-.7.78-.928.292-.226.627-.34 1.005-.34.327 0 .593.078.798.232l-.14 1.596c-.023.103-.062.172-.116.21-.053.037-.127.056-.22.056-.038 0-.087-.002-.147-.007-.06-.004-.123-.01-.19-.018l-.198-.022c-.067-.007-.13-.01-.186-.01-.316 0-.57.085-.76.255-.188.17-.348.405-.48.704v4.403h-2.168zM448.842 41.59c.48 0 .92.074 1.32.223s.74.366 1.028.65c.286.286.51.635.672 1.047.16.413.24.88.24 1.404 0 .163-.006.296-.02.4-.014.102-.04.184-.076.244s-.088.103-.15.126c-.063.023-.144.035-.242.035h-4.186c.07.606.254 1.046.553 1.32s.685.408 1.156.408c.252 0 .47-.03.65-.09.183-.062.345-.13.487-.204l.392-.203c.12-.06.244-.09.374-.09.173 0 .303.063.392.19l.63.776c-.224.256-.466.465-.724.626-.26.16-.525.287-.8.378-.272.09-.545.154-.817.19-.272.034-.532.05-.78.05-.508 0-.986-.082-1.432-.248-.445-.166-.835-.412-1.168-.738-.334-.327-.598-.732-.79-1.218-.195-.485-.292-1.05-.292-1.694 0-.485.082-.945.248-1.38s.404-.813.715-1.14c.31-.327.687-.585 1.128-.777.44-.19.938-.286 1.494-.286zm.042 1.497c-.415 0-.74.118-.974.354-.232.237-.387.576-.46 1.02h2.708c0-.173-.022-.34-.066-.504-.045-.164-.117-.31-.218-.438s-.23-.232-.396-.312c-.163-.08-.36-.12-.594-.12zM455.695 49.072c-.346 0-.65-.05-.914-.15-.263-.1-.484-.243-.664-.427-.18-.185-.315-.407-.41-.668-.093-.262-.14-.553-.14-.875V43.2h-.615c-.11 0-.207-.036-.286-.108-.08-.072-.12-.178-.12-.318v-.847l1.155-.224.427-1.77c.056-.225.215-.337.477-.337h1.133v2.12h1.8v1.485h-1.8v3.606c0 .168.04.307.123.417.082.11.2.164.354.164.08 0 .146-.008.2-.024.053-.016.1-.035.14-.056.04-.02.076-.04.11-.056.036-.016.077-.023.124-.023.064 0 .117.015.157.045s.08.078.122.144l.658 1.03c-.28.21-.595.367-.945.472-.35.102-.712.154-1.085.154z"/></g></svg>