<svg xmlns="http://www.w3.org/2000/svg" width="356.832" height="362.208" viewBox="0 0 356.832 362.208"><style>text, tspan { font-family: &apos;Lato&apos;; } .heavy { font-weight: 700; }</style><path stroke="#CDCCCC" stroke-width=".75" stroke-linejoin="round" stroke-miterlimit="10" d="M29.12 8.914h326.836M29.12 50.918h326.836M29.12 93.764h326.836M29.12 135.77h326.836M29.12 177.772h326.836M29.12 220.618h326.836M29.12 262.622h326.836M29.12 305.466h326.836" fill="none"/><path fill="#D94B51" d="M263.86 25.716h33.238v321.756H263.86V25.716zm-108.714 277.23h33.237v44.526h-33.237v-44.525zm-109.407-12.6h33.237v57.126H45.74v-57.127z"/><path fill="#034360" d="M306.1 250.86h33.237v96.612H306.1v-96.61zM197.385 149.21h33.237V347.47h-33.237V149.21zM87.978 218.935h33.238v128.536H87.978V218.936z"/><path stroke="#9B9B9B" stroke-linejoin="round" stroke-miterlimit="10" fill="none" d="M29.263 347.663h326.8"/><text transform="translate(50.768 284.262)" fill="#808285" class="heavy" font-size="8">13.5%</text><text transform="translate(159.701 296.257)" fill="#808285" class="heavy" font-size="8">10.6%</text><text transform="translate(268.634 19.702)" fill="#808285" class="heavy" font-size="8">75.9%</text><text transform="translate(93.178 212.922)" fill="#808285" class="heavy" font-size="8">30.3%</text><text transform="translate(202.112 142.632)" fill="#808285" class="heavy" font-size="8">46.9%</text><text transform="translate(311.045 244.666)" fill="#808285" class="heavy" font-size="8">22.8%</text><text transform="translate(8.019 346.674)" fill="#4E4E4E" font-size="10">0</text><text transform="translate(2.219 304.288)" fill="#4E4E4E" font-size="10">10</text><text transform="translate(2.219 261.902)" fill="#4E4E4E" font-size="10">20</text><text transform="translate(2.219 219.515)" fill="#4E4E4E" font-size="10">30</text><text transform="translate(2.219 177.128)" fill="#4E4E4E" font-size="10">40</text><text transform="translate(2.219 134.742)" fill="#4E4E4E" font-size="10">50</text><text transform="translate(2.219 92.356)" fill="#4E4E4E" font-size="10">60</text><text transform="translate(2.219 49.97)" fill="#4E4E4E" font-size="10">70</text><text transform="translate(2.219 7.583)" fill="#4E4E4E" font-size="10">80%</text><text transform="translate(55.867 360.414)" fill="#4E4E4E" font-size="10">S Corporation</text><text transform="translate(166.05 360.414)" fill="#4E4E4E" font-size="10">Partnership</text><text transform="translate(258.082 360.414)" fill="#4E4E4E" font-size="10">Sole Proprietorship</text><text transform="translate(38.722 23.918)" fill="#D94B51" class="heavy" font-size="12">Share of Returns</text><text transform="translate(38.722 43.691)" fill="#034360" class="heavy" font-size="12">Share of Income</text></svg>