<svg xmlns="http://www.w3.org/2000/svg" width="511.25" height="247.125" viewBox="0 0 511.25 247.125"><style>text, tspan { font-family: &apos;Lato&apos;; } .heavy { font-weight: 700; }</style><path id="HI_1_" fill="#24B574" stroke="#fff" d="M106.453 209.202l.904-1.658 1.056-.15.15.376-.98 1.433h-1.13zm4.75-1.734l2.864 1.206.98-.15.753-1.81-.3-1.582-1.96-.227-1.885.83-.453 1.733zm14.322 4.674l1.733 2.564 1.13-.15.53-.228.677.603 1.734-.074.45-.678-1.356-.83-.905-1.734-.98-1.658-2.714 1.357-.3.83zm9.423 4.147l.603-.906 2.187.452.302-.226 2.863.3-.15.605-1.206.68-2.035-.15-2.564-.756zm2.487 2.41l.904 1.81 1.432-.528.15-.753-.753-.98-1.735-.15v.6zm3.242-.528l1.055-1.355 2.187 1.13 2.035.528 2.035 1.282v.904l-1.66.83-2.26.452-1.13-.678-2.263-3.092zm7.764 7.238l.754-.604 1.583.754 3.543 1.66 1.583.98.754 1.13.905 2.035 1.884 1.206-.15.604-1.81 1.507-1.96.68-.68-.3-1.432.83-1.13 1.507-1.056 1.355-.83-.074-1.658-1.206-.15-2.11.3-1.132-.753-2.64-.98-.828-.075-1.205 1.056-.453.98-1.433.226-.45-.754-.83-.15-.98z"/><path id="AK_1_" fill="#BAC459" stroke="#fff" d="M71.474 178.597l-.15 39.802.754.452 1.432.075.68-.528h1.205l.076 1.357 3.243 3.165.226 1.206 1.582-.905.302-.074.15-1.434.68-.754.527-.076.905-.678 1.432.98.3 1.357.906.526.528 1.132 1.81.83 1.584 2.79 1.28 1.81 1.057 1.28.68 1.733 2.337.828 2.412.98.45 2.035.227 1.433-.452 1.585-.83 1.055-.752-.377-.68-1.433-1.28-.678-.83-.528-.377.377.68 1.284.075 1.73-.527.228-.904-.903-.98-.605.225.755.603.83-.377.376s-.376-.15-.602-.453c-.226-.3-.98-1.582-.98-1.582l-.452-1.055s-.15.603-.452.452c-.3-.15-.603-.68-.603-.68l.83-.902-.68-.68v-2.337h-.375l-.377 1.583-.528.228-.453-1.733-.302-1.734-.376-.226.15 2.64v.528l-.68-.604-1.657-2.79-.98-.225-.3-1.734-.755-1.358-.753-.528v-1.054l.98-.604-.227-.15-1.206.302-1.583-1.13-1.207-1.358-2.262-1.207-1.883-1.205.603-1.508v-.753l-.83.753-1.356.527-1.733-.527-2.638-1.13H65.45l-.302.225-3.015-1.81-.98-.15-1.28-2.714-1.66.152-1.658.68.226 2.11.53-1.357.45.15-.678 2.035 1.508-1.28.3.752-1.808 2.036-.603-.15-.228-.903-.604-.38-.603.528-1.28-.828-1.434.98-.828.98-1.583.978-2.187-.074-.226-.98 1.734-.302v-.604l-1.055-.3.452-1.134 1.056-1.81v-.828l.075-.377 2.035-1.055.453.603h1.28l-.602-1.207-1.734-.15-2.337 1.28-1.13 1.584-.83 1.206-.527 1.057-1.96.678-1.432 1.207-.15.754 1.055.453.375.98-1.28 1.507-3.017 1.96-3.618 1.96-.98.528-2.487.527-2.487 1.057.83.603-.68.678-.226.528-1.282-.452-1.508.076-.376 1.056H26.7l.152-1.132-1.66.604-1.356.452-1.583-.603-1.357.905H19.39l-.98.603-.755.377-.98-.15-1.206-.526-1.056.3-.453.45-.753-.526v-.904l1.433-.604 2.94.302 2.035-.754.98-.98 1.357-.3.83-.38 1.28.077.755.605.452-.15 1.055-1.283 1.432-.452 1.583-.302.602-.15.302.227h.377l.604-1.734 1.885-.678.904-1.732 1.055-2.11.752-.68.15-1.207-.753.604-1.584.3-.302-1.128-.604-.153-.452.454-.075 1.356-.68-.075-.678-2.712-.603.603-.528-.226-.15-.904-1.885.074-.98.528-1.207-.15.678-.68.227-1.205-.302-.904.68-.452.602-.075-.302-.83v-2.033l-.452-.453-.376.678H23.38l-.678-.603-.302-1.81-.98-1.66v-.45l.98-.378.075-.98.528-.527-.376-.226-.604.226-.528-1.28.452-2.338 2.11-1.508 1.207-.753.905-1.733 1.28-.604 1.207.527.15 1.13 1.13-.15 1.51-1.13.753.302.452.302h.753l1.056-.604.377-2.035s.15-1.356.452-1.583c.3-.227.45-.452.45-.452l-.526-.905-1.206.378-1.508.376-.905-.227-1.66-.83-2.335-.075-1.658-1.733.226-1.81.302-1.13-.98-.83-.904-1.733.226-.377 3.166-.226h.98l.452.45h.302l-.075-.753 1.81-.303 1.206.15.678.528-.677.98-.227.68 1.282.753 2.337.83.83-.454-1.057-2.033-.452-1.508.452-.378-1.583-.905-.226-.527.225-.754-.377-1.81-1.356-2.186-1.13-1.96 1.355-.905h1.508l.83.302 1.96-.074 1.733-1.66.527-1.433 1.734-1.13.753.453 1.28-.302 1.734-.98.528-.074.452.377 2.112-.075 1.28-1.432h.528l1.66 1.13.903.98-.226.527.3.526.755-.754 1.808.15.15 1.734.905.68 3.317.3 2.94 1.96.678-.45 2.412 1.205.98-.3.904-.38 2.262.904 2.038 1.357zM17.8 192.09l.98 2.487-.075.453-1.357-.15-.83-1.886-.828-.678h-1.13l-.076-1.206.83-1.13.527 1.13.68.678 1.28.302zm-1.205 15.604l1.734.378 1.733.45.377.454-.754 1.732-1.433-.074-1.583-1.658-.075-1.282zm-9.648-6.558l.526 1.207.528.754-.527.376-.98-1.432v-.904h.454zM.54 235.21l1.582-1.056 1.583-.452 1.206.15.227.754.905.226.905-.903-.15-.756 1.28-.302 1.357 1.206-.527.83-2.036.526-1.28-.226-1.734-.528-2.036.68-.753.15-.528-.3zm22.84-2.112l.754.905.98-.754-.68-.604-1.054.452zm1.356 1.433l.528-1.056.98.15-.377.906h-1.13zm11.006-.904l.68.83.45-.527-.376-.906-.754.602zm4.072-5.804l.527 2.714 1.358.376 2.337-1.355 2.035-1.207-.754-1.13.227-1.132-.98.604-1.357-.377.754-.527.904.377 1.81-.83.226-.678-1.132-.377.377-.905-1.282.905-2.186 1.657-2.262 1.357-.6.528zm19.75-9.27l1.13-.68-.452-.83-.83.452.152 1.057z"/><path id="FL_1_" fill="#83BE62" stroke="#fff" d="M362.482 188.068l.984 3.18 1.62 4.236 2.318 4.074 1.615 2.74 2.107 2.39 1.756 1.614.703 1.264-.493.562-.352.562 1.267 3.232 1.265 1.265 1.124 2.318 1.544 2.53 1.97 3.583.56 3.3.21 5.2.28.772-.138 1.476-1.054.562.14.843-.28.845.14 1.054.212.843-1.195 1.404-1.336.633-1.687.07-.632.702-1.053.422-.562-.21-.49-.423-.143-1.264-.352-1.476-1.476-2.248-1.544-.982-1.684-.14-.35.562-1.336-1.897-.28-1.546-1.125-1.757-.773-.49-.702.91-.773-.14-.912-2.177-1.265-1.687-1.266-2.32-1.124-1.333-1.546-1.616.914-1.053 1.406-2.39-.07-.702-1.967-.42-.703.28.142.28 1.123.422-.634 1.966-.352.213-.77-1.758-.563-2.107-.14-1.193.632-2.037v-4.146l-1.336-1.614-.562-1.337-2.248-.562-.843-.28-.703-1.123-1.476-.703-.49-1.475-1.195-.423-1.054-1.616-1.827-.63-1.267-.633h-1.123l-1.757.35-.07.844.352.424-.21.49-1.337-.07-1.614 1.546-1.546.843h-1.686l-1.405.562-.14-1.194-.703-.842-1.266-.492-.703-.632-3.51-1.687-3.304-.773-1.896.28-2.6.212-2.6.913-1.51.267-.105-3.5-1.125-.842-.773-.772.142-1.336 4.426-.562 11.1-1.265 2.95-.28 2.362.12 1.126 1.688.632.632 3.52.225 4.7-.28 9.35-.563 2.367-.295 2.22.09.186 1.265.97.352.102-2.012-.665-1.814.57-.625 2.413.198 2.25.138zm5.45 57.54l1.057-.28.56-.105.632-1.018 1.02-.702.562.21.738.14.174.458-1.51.527-1.827.632-1.02.527-.387-.388zm5.87-2.176l.524.457 1.194-.915 2.318-1.825 1.616-1.687 1.088-2.88.423-.738.07-1.476-.317.21-.42 1.23-.633 2-1.405 2.284-1.897 1.826-1.476.844-1.086.668z"/><path id="NH_1_" fill="#81BE63" stroke="#fff" d="M415.058 59.122l.378-.468.474-1.43-1.105-.397-.21-1.334-1.688-.493-.142-1.194-3.16-10.187-2-6.32-.39-.003-.28.702-.28-.212-.424-.422-.632.844-.02 2.187.135 2.463.843 1.194v1.757l-1.614 2.202-1.126.49v.493l.493.772v3.724l-.353 4.005-.07 2.107.422.562-.07 1.967-.212.774.42.308 7.297-1.923.946-.264.8-1.205 1.568-.698z"/><path id="MI_1_" fill="#93C060" stroke="#fff" d="M290.11 29.71l-.994.245-2.334 1.684-.952.352-.788.896.693.49.896-.395 1.44-.842 2.243-2.24-.204-.19zm4.833 6.18l-2.037.218-1.888 1.046-.992.99-.556.762-.774.353-.843 1.262-.066.57-1.902.91-1.045.842-2.607.42-.287.286v.422l-1.534.977-1.194.353-.313.258 1.617 2.23 3.422.5 3.586.952 1.236.45 5.27 1.18.896.992 1.534.598.843 4.482.597.447.516.45 1.37-3.043.423-1.766.854-1.887.34-.082.503.707h.27l1.97-1.045.638.692.205.068.57-.49.49-1.33 1.044-.352 3.028-.286.843-1.113 2.24-.08 2.54.57h.775l1.398-.638.98.067.923-.273 1.614.205.354.15.557-.15-.556-.422-.57-.27-1.397-1.346V42.71l-.64-.217-.488.502-2.678.692-.843.217-1.262-.353-.204-.134v-2.458l-.64-.083-1.127.57-1.954.843-2.895.136-1.466.488-1.766 1.548-.69.422h-.505l-.557.353-.705-.203-.69-.57-.64.42-1.684.068-1.196-1.194-.637-1.33-.626-.49-1.412-.42h-.977l-.558-.558-1.55 1.263-.42.49-.353-.217.135-1.114 1.06-1.413.203-1.06.992-.34.625-1.343 1.616-.42.148-.422-.5-.49zm28.913 10.077l-.95.108-.693.068-.15.49.42.217.288 1.086 1.412.068.558-.516s-.036-.636-.178-.707c-.14-.068-.706-.813-.706-.813zm-7.062 4.047l-1.263.774-1.263.978.136 1.548.422.136.924.217.2.353-1.125.354-1.113.135-.64.773-.135.91.136.707.136 2.39-1.535.91-.285-.068V58.3l.556-1.046.285-1.06-.35-.353-.844.354-.42 1.833-1.195.49-.773.84-.068.422.284.352-.285 1.127-.98.203v.49l.34 1.06-.49 2.66-.692 1.767.273 2.037.217.49-.352 1.06-.138.34-.15 1.194 1.552 2.608 1.262 2.81.637 2.106-.353 2.038-.423 2.593-1.06 2.254-.135 1.194-1.413 1.345 1.916-.083 9.3-.978 3.166-.435.04.733 2.973-.53 4.482-.65 1.672-.205.066-.258.067-.625.91-1.616.87-.76-.095-2.2.69-.693.478-.15.095-1.533.665-1.317.46.257.07.286.353.067.84-.42-.135-4.143-1.412-3.584-.978-3.938-1.058-1.4-1.128-.773-.693.488-1.696.775-.84 2.172-1.197 1.616-.49.285-.624-.285s-1.13-.63-1.06-.91c.07-.28.22-2.173.22-2.173l1.465-.57.354-1.467.285-1.127 1.047-.706-.138-4.36-.705-.978-.557-.354-.353-.91.353-.353.707.136.066-.705-1.06-.978-.555-1.127h-1.127l-1.97-.624-2.39-1.48h-1.195l-.27.284-.423-.217-1.34-.98z"/><path id="VT_1_" fill="#EAC951" stroke="#fff" d="M399.277 64.177l.137-2.323-1.257-4.687-.28-.14-1.266-.562.353-1.265-.352-.914-1.172-2.017.42-1.688-.35-2.248-1.055-2.81-.35-2.14 11.482-2.925.134 2.4.83 1.19v1.757l-1.61 2.198-1.123.496-.006.488.57.66-.135 3.52-.265 4.024-.1 2.415.423.562-.07 1.986-.213.735.44.317-3.23.655-1.953.315z"/><path id="ME_1_" fill="#E2C853" stroke="#fff" d="M433.327 31.485l.845.913.982 1.617v.843l-.914 2.038-.843.28-1.476 1.335-2.106 2.39h-.562c-.28 0-.42-.913-.42-.913l-.772.07-.422.632-1.056.632-.42.632.7.632-.21.28-.21 1.196-.842-.07v-.704l-.142-.562-.633.14-.772-1.404-.913.562.562.632.142.492-.352.562.142 1.335.068.702-.7 1.125-1.267.21-.14 1.265-2.32 1.334-.56.212-.704-.632-1.333 1.545.423 1.405-.633.562-.07 1.896-.487 2.72-1.07-.502-.21-1.335-1.688-.49-.14-1.195-3.162-10.188-2.042-6.362.617-.05.658.177v-1.125l.568-1.953 1.125-2.038.632-1.756-.843-1.053v-2.6l.352-.42.353-1.196-.072-.63-.07-2.108.77-2.107 1.267-3.864.913-1.826h.562l.562.07v.49l.562.984 1.195.282.35-.352v-.42l1.757-1.266.772-.773.632.07 2.6 1.052.842.422 3.936 12.998h2.6l.352.842.07 2.108 1.263.983h.353l.068-.21-.208-.492 1.19-.068zm-9.095 13.1l.666-.666.597.456.247 1.053-.738.386-.772-1.23zm2.914-2.563l.772.808s.563.035.563-.105.106-.878.106-.878l.386-.352-.352-.772-.877.316-.597.982z"/><path id="RI_1_" fill="#D0C657" stroke="#fff" d="M412.134 74.97l-1.607-6.5 2.725-.8.952.837 1.437 1.877 1.17 1.913-1.304.707-.562-.07-.49.77-1.054.844-1.266.423z"/><path id="NY_1_" fill="#B1C35B" stroke="#fff" d="M393.146 79.252l-.49-.422-1.126-.07-.982-.843-.71-2.664-1.504.04-1.06-1.177-8.425 1.904-18.69 3.794-3.27.533-.322-2.81.62-.49.562-.492.422-.702.772-.492.843-.77.21-.704.913-1.194.493-.42-.07-.423-.562-1.335-.773-.07-.843-2.67 1.266-.772 1.896-.632 1.758-.56 1.405-.212 2.737-.07.845.562.702.07.913-.562 1.124-.492 2.248-.21.914-.773.773-1.404.7-.845h.915l.843-.49.07-.985-.632-.913-.14-.632.492-.914v-.63h-.774l-.772-.353-.352-.492-.068-1.124 2.528-2.387.28-.353.634-1.264 1.263-1.967 1.197-1.617.912-1.054 1.05-.794 1.338-.542 2.39-.562 1.404.07 1.967-.632 3.287-.9.227 2.164 1.053 2.81.352 2.25-.42 1.685 1.122 1.967.35.913-.35 1.265 1.264.562.28.14 1.337 4.778-.234 2.2-.212 4.706.352 2.39.353 1.545.632 3.162v3.512l-.493.983.8.866.347.73-.844.772.142.562.562-.14.63-.563.985-1.123.49-.28.704.28.983.07 3.44-1.686 1.267-1.193.56-.633 1.827.703-1.476 1.545-1.685 1.264-3.09 2.32-1.126.42-2.53.843-1.756.49-.51-.23-.106-1.603.21-1.195-.068-.913-1.223-.74-1.97-.42-1.685-.492-1.616-.776z"/><path id="PA_1_" fill="#74BD66" stroke="#fff" d="M390.863 94.874l.567-.118 1.013-.545.525-1.078.703-.984 1.406-1.334v-.352l-1.053-.702-1.547-1.053-.42-1.125-1.194-.14-.07-.492-.353-1.194.983-.492.07-1.054-.563-.562.07-.702.843-1.335v-1.333l1.173-1.15-.398-.293-1.098-.083-.996-.842-.675-2.658-1.523.043-1.067-1.175-7.86 1.825-18.69 3.793-3.864.633-.27-2.835-2.33 2.202-.563.21-1.824 1.31 1.264 8.315 1.077 4.23 1.554 8.37 1.42-.277 5.19-.653 16.483-3.332 6.465-1.227 3.608-.705.115-.104.913-.703.915-.296z"/><path id="NJ_1_" fill="#7ABE64" stroke="#fff" d="M392.842 79.128l-1.01 1.188v1.334l-.842 1.335-.07.702.562.562-.07 1.053-.982.492.35 1.194.07.49 1.194.14.423 1.125 1.546 1.054 1.053.702v.35l-1.297 1.173-.702.983-.633 1.195-.984.562-.2.696-.104.528-.265 1.133.477.975 1.404 1.265 2.11.983 1.755.28.068.634-.35.42.14 1.195h.352l.914-1.054.35-2.107 1.193-1.756 1.336-2.81.49-2.39-.28-.49-.07-4.076-.702-1.475-.49.35-1.195.14-.213-.21.493-.42.914-.843.026-.475-.168-1.493.25-1.194-.05-.856-1.22-.76-2.215-.512-1.8-.6-1.558-.712z"/><path id="DE_1_" fill="#2BB673" stroke="#fff" d="M391.08 96.432l.16-.933.162-.736-.703.173-.704.203-.958.767.747 2.19.982 2.46.914 4.215.704 2.74 2.177-.07 2.67-.513-.983-3.212-.42.21-1.547-1.052-.773-2.037-.84-1.547-1.37-1.247-.375-.913.16-.7z"/><path id="MD_1_" fill="#91C060" stroke="#fff" d="M397.235 106.92l-2.61.524-2.234.05-.8-3.008-.836-3.984-1.12-2.69-.56-1.91-3.262.705-6.464 1.227-16.276 3.282.49 2.178.423 2.458.14-.14.914-1.054.983-1.137 1.053-.267.633-.632.772-1.124.562.282 1.263-.14 1.124-.914.874-.63.803-.21.713.49 1.266.632.843.772.526.667 1.79.738v1.265l2.39.562.497.236.614-.88 1.252.855-.555 1.08-.334 1.732-.77 1.124v.914l.278.772 2.2.59 1.877-.028 1.333.42.914.142.42-.914-.63-.913v-.773l-1.056-.914-.913-2.39.562-2.318-.07-.914-.56-.56s.63-.704.63-.984.213-.914.213-.914l.84-.562.846-.702.21.42-.633.703-.56 1.617.14.492.772.14.21 2.388-.913.422.14 1.545.21-.07.494-.844.7.774-.7.562-.142 1.476 1.124 1.475 1.686.21.703-.35 1.407 1.816.59.234 2.893-1.216.873-1.747-.193-2.132zm-6.938 3.925l.49 1.09.07.772.492.808s.386-.386.386-.526-.315-1.336-.315-1.336l-.314-1.02-.81.21z"/><path id="VA_1_" fill="#46B86D" stroke="#fff" d="M393.694 112.855l-.062-.846 2.804-1.11-.334 1.4-1.27 1.642-.182 1.992.2 1.474-.794 2.163-.94.834-.64-2.017.195-2.368.69-1.82.334-1.345zm1.452 12.298l-25.282 5.466-16.265 2.293-2.903-.163-1.123.838-3.19.096-3.642.425-4.743.7 4.55-2.438-.008-.9.66-.934 4.587-4.998 1.715 1.945 1.644.42 1.104-.496.973-.57 1.104.583 1.7-.62.816-1.98 1.13.234 1.24-.926.783.215 1.228-1.598.152-.905-.42-.554.436-.812 2.292-5.335.27-2.49.533-.23.946 1.063 1.712-.13.837-3.292 1.215-.244.457-1.19 1.12-1.02 1.204-2.476.04-2.202 4.268 1.66c.295.15.362-2.193.362-2.193l1.586.695.03 1.276 2.513.564.927.51.722.895-.286 1.586-.847 1.127.05.895.255.805 2.163.55 1.935.02 1.334.415.845.135.31 1.342 1.387.174.376.52-.19 2.04.597.48-.206.838.533.343-.097.602-1.17-.04.038.7.99.672.055.613.77.775.215 1.096-1.11.6.684.65 2.52-.733 1.564 2.613z"/><path id="WV_1_" fill="#39B76F" stroke="#fff" d="M363.076 101.077l.483 2.15.47 2.62.926-1.12.984-1.335 1.104-.268.63-.632.774-1.124.627.28 1.265-.14 1.124-.914.873-.63.8-.21.568.44 1.583.792.843.773.6.56-.332 2.415-2.536-1.104-1.846-.704-.042 2.25-1.194 2.406-1.1 1.054-.518 1.195-1.15.218-.39 1.566-.453 1.716-1.725.147-1.01-1.06-.466.243-.276 2.377-.586 1.536-2.156 4.76.39.506-.09.828-1.22 1.688-.786-.236-1.29.938-1.104-.248-.87 1.98s-1.416.62-1.703.593c-.072-.006-1.074-.54-1.074-.54l-1.017.597-1.048.455-1.627-.387-.487-.508-.954-1.314-1.364-.864-.744-1.573-1.86-1.51-.28-.982-1.127-.633-.35-.702-.106-2.283.948-.035.843-.352.07-1.194.7-.633.072-2.177.42-1.687.564-.28.563.49.21.773.774-.422.21-.703-.493-.77v-1.055l.423-.562.984-1.475.563-.632.914.21.982-.702 1.332-1.476.984-1.686.142-2.46.21-2.176v-2.038l-.49-1.334.42-.632.558-.562 1.52 8.616 2.012-.327 5.398-.783z"/><path id="OH_1_" fill="#59B96A" stroke="#fff" d="M351.84 81.243l-2.65 1.762-1.687.983-1.475 1.616-1.757 1.686-1.403.35-1.266.212-2.388 1.124-.912.07-1.476-1.334-2.25.282-1.123-.632-1.033-.587-2.127.306-4.426.703-4.87.95.563 6.357.772 5.972 1.123 10.187.246 2.1 1.79-.057 1.053-.35 1.464.652.9 1.897 2.232-.007.82.92.765-.027 1.104-.583 1.09.16 2.355.21.75-.927 1.02-.562.898-.296.28 1.194.774.422 1.51 1.02.948-.037.58-.214.08-1.2.688-.632.043-2.083.446-1.784.564-.262.573.5.234.737.747-.45.19-.635-.484-.827.028-1.006.325-.466.936-1.437.456-.672.914.21.982-.702 1.336-1.475 1.204-1.77.14-2.198.21-2.178-.076-2.306-.415-1.258.152-.517.783-.76-.995-3.933-1.265-8.414h.006z"/><path id="IN_1_" fill="#AFC35A" stroke="#fff" d="M301.532 127.588l.028-1.242.21-1.967.984-1.266.772-1.687 1.126-1.826-.212-2.528-.772-1.194-.142-1.405.352-2.39-.21-3.02-.562-6.956-.562-6.674-.422-5.093 1.334.387.632.42.493-.14.913-.843 1.23-.702 2.213-.07 9.555-.984 2.424-.232.653 6.934 1.85 16.01.258 2.51-.16.982.532.78.043.597-1.096.694-1.538.675-1.393.238-.26 2.116-1.988 1.44-1.214 1.742.14 1.032-.252.667h-1.445l-.69-.7-1.082.547-1.165.652.07 1.328-.52.112-.202-.442-.94-.653-1.414.582-.676 1.306-.625-.35-.634-.696-1.94.212-2.43.42-1.264.674z"/><path id="IL_1_" fill="#5EBB6A" stroke="#fff" d="M301.52 127.75l.015-1.404.247-2.02 1.013-1.267.812-1.772.97-1.736-.16-2.283-.872-1.54-.043-1.456.304-2.29-.36-3.12-.465-6.856-.56-6.526-.4-5.06-.118-.4-.352-1.124-.562-1.615-.703-.773-.633-1.125-.1-2.385-19.903 1.128.1 1.03.993.3.396.496.2.795 1.687 1.49.3.993-.3 1.49-.795 1.59-.297 1.093-.994.794-.794.298-2.283.597-.3.795-.3.895.3.596.795.696-.1 1.79-.794.695-.3.696v1.192l-.794.2-.695.495-.1.596.1.893-.746.57-.447 1.218.198 1.59.995 3.18 3.18 3.28 2.385 1.588-.102 1.888.398.596 2.783.2 1.19.594-.298 1.59-.992 2.584-.3 1.39.993 1.69 2.782 2.285 1.987.298.894 2.186.896 1.39-.398 1.292.695 1.788.795.895.614-.383.394-.9.962-.76.926-.268 1.132.512 1.574.6.518-.13.087-.98-.56-1.05.133-1.033.8-.585 1.312-.352.548-.2-.267-.603-.345-1.022.623-.427.503-1.393z"/><path id="CT_1_" fill="#55BA6B" stroke="#fff" d="M412.134 74.957l-1.6-6.466-2.05.4-9.226 2.062.435 1.402.633 3.16.076 3.897-.53.947.834.84 1.857-1.698 1.546-1.406.84-.914.352.282 1.194-.632 2.25-.492 3.388-1.38z"/><path id="WI_1_" fill="#87BF62" stroke="#fff" d="M299.576 83l-.03-1.374-.512-1.967-.28-2.67-.494-1.055.423-1.334.352-1.264.633-1.124-.28-1.476-.28-1.545.21-.77.842-1.055.07-1.194-.352-.56.28-1.125-.195-1.812 1.192-2.46 1.266-2.95.07-.983-.14-.422-.35.21-1.828 2.74-1.194 1.757-.843.773-.352.983-.85.354-.49.843-.635-.14-.068-.773.562-1.054.913-2.037.772-.702.43-1.024-1.11-.826-.86-4.505-1.54-.583-.846-1.003-5.27-1.184-1.25-.44-3.568-.94-3.442-.505-1.635-2.228-.327.24-.52-.07-.282-.49-.58.128-.49.07-.772.42-.423-.28.282-.842.843-1.334.493-.492-.843-.632-.914.352-1.264.843-3.232 1.405-1.265.28-1.265-.21-.426-.382-.92 1.232-.103 1.192v3.676l-.495.695-2.285 1.69-.995 2.582.2.1 1.092.894.3 1.39-.797 1.39v1.69l.2 2.88 1.29 1.293h1.49l.797 1.39 1.49.2 1.688 2.483 3.078 1.79.896 1.19.396 3.23.3 1.44.994.696.1.595-.897 1.49.1 1.392 1.092 1.687 1.094.497 1.29.2.585.6L299.577 83z"/><path id="NC_1_" fill="#64BB68" stroke="#fff" d="M395.146 125.13l.907 2.138 1.545 2.81 1.055 1.054.28.983-1.053.07.35.28-.14 1.827-1.123.562-.283.913-.562 1.266-1.615.702-1.055-.14-.63-.07-.704-.563.142.563v.42h.843l.35.562-.843 2.74h1.827l.28.702.984-.985.563-.21-.843 1.546-1.336 2.108h-.562l-.49-.21-1.195.28-2.247 1.054-2.812 2.32-1.476 2.036-.843 2.81-.21 1.054-2.038.21-2.37.582-4.322-3.564-5.48-3.302-1.265-.353-5.48.633-1.858.326-.704-1.405-1.29-.92-7.166.21-3.16.352-3.935 1.968-2.67 1.123-9.204 1.124.22-1.762.77-.632 1.195-.28.28-1.617 1.827-1.194 1.686-.633 1.827-1.546 1.896-.914.28-1.334 1.685-1.687.283-.07s0 .49.35.49c.352 0 .845.142.845.142l.982-1.547.914-.28.983.142.7-1.547 1.266-1.124.21-.913.08-1.585 1.86-.01 3.128-.372 6.848-.98 6.577-.907 9.406-2.05 8.682-1.852 4.857-1.046 2.196-.5zm1.857 14.43l1.124-1.088 1.368-1.124.67-.28.067-.878-.278-2.67-.635-1.02-.28-.807.315-.106 1.194 2.39.175 1.93-.07 1.478-1.476.667-1.23 1.054-.493.526-.454-.07z"/><path id="DC_1_" fill="#51B96B" stroke="#fff" d="M382.473 106.238l-.808-.793-.536-.298.628-.88 1.255.847-.54 1.124z"/><path id="MA_1_" fill="#42B86E" stroke="#fff" d="M423.237 72.52l.944-.3.2-.744.447.05.446.993-.545.198-1.69.05.2-.25zm-4.072.347l.992-1.143h.697l.794.646-1.042.447-.944.447-.497-.397zm-15.124-9.555l7.67-2.017.985-.28.83-1.216 1.626-.724 1.256 1.917-1.056 2.248-.14.633.844 1.124.49-.35h.774l.982 1.123 1.688 2.6 1.547.21.98-.42.773-.774-.35-1.194-.913-.703-.633.35-.423-.562.21-.21.915-.07.772.35.843 1.055.422 1.264.14 1.054-1.827.633-1.686.843-1.687 1.967-.843.632v-.42l1.053-.633.212-.773-.354-1.335-1.262.633-.348.632.21.983-.897.435-1.194-1.967-1.477-1.896-.9-.788-2.84.815-2.212.457-8.983 1.997-.29-2.072.28-4.602 1.865-.387 2.95-.56z"/><path id="TN_1_" fill="#3BB76F" stroke="#fff" d="M335.043 135.533l-22.552 2.178-6.85.774-2.008.222-1.68-.01-.098 1.78-3.557.114-3.02.282-3.517-.055-.615 3.074-.737 2.382-1.43 1.196-.588 1.904-.14 1.124-1.756.983.63 1.545-.42 1.896-.42.345 47.004-4.522.174-1.72.788-.646 1.23-.326.293-1.614 1.78-1.176 1.76-.65 1.773-1.55 1.93-.88.226-1.334 1.767-1.73.237-.05s.014.49.365.49.843.154.843.154l.984-1.56.898-.28.988.128.695-1.535 1.285-1.148.184-.843.133-1.612-.933-.088-1.132.882-3.04.013-7.977 1.036-3.497.83z"/><path id="AR_1_" fill="#6BBD68" stroke="#fff" d="M290.344 146.31l-1.73.312-2.22-.275.182-.696 1.295-1.115.412-1.59-.797-1.29-34.078 1.093.695 2.98v3.577l.596 4.77.1 16.442.994.845 1.292-.597 1.192.497.295 2.856 24.172-.495.5-.91-.126-1.54-.793-1.293.695-.646-.695-1.09.298-1.093.595-2.435 1.096-.896-.3-.994 1.592-2.333 1.192-.596-.05-.648-.15-.794 1.24-2.434 1.046-.546.166-1.49.77-.54-1.366-.21-.582-1.742 1.22-1.033.238-.876.556-1.76.462-1.414z"/><path id="MO_1_" fill="#5BBA6A" stroke="#fff" d="M274.967 105.05l-1.094-1.34-.497-.994-27.97 1.044-.993.05.547 1.092-.1.994 1.093 1.69 1.342 1.788 1.34 1.192.94.1.65.397v1.292l-.795.695-.198.993.895 1.49 1.092 1.293 1.092.794.597 5.067.136 15.677.1 2.036.198 2.34 9.75-.377 10.083-.3 9.04-.346 5.067-.1.942 1.487-.298 1.438-1.342 1.045-.248.797 2.338.2 1.692-.298.745-2.39.285-2.544.91-1.11 1.13-.647.02-1.326.44-.842-.734-1.105-.58.428-.865-.967-.56-2.07.35-1.092-.846-1.49-.795-1.988-2.09-.347-3.026-2.433-.746-1.79.346-1.39.896-2.632.2-1.244-.847-.45-2.98-.345-.445-.744-.05-1.84-2.384-1.49-3.03-3.376-.994-3.18-.1-1.836.347-.993z"/><path id="GA_1_" fill="#5CBB69" stroke="#fff" d="M324.446 151.742v.948l.068.914.28 1.475 1.477 3.44 1.056 4.287.63 2.67.704 2.107.633 3.02.913 2.74 1.124 1.477.21 1.476.843.352.07.913-.77 2.108-.213 1.405-.068.843.7 1.897.143 2.32-.353 1.052.28.35.634.353.09 1.398.97 1.457.978.938 3.442.07 4.7-.28 9.35-.56 2.368-.294 1.988.012.07 1.265 1.124.352.14-1.896-.7-1.97.49-.7 2.53.35 2.162.14-.337-2.738.985-4.356.63-1.827-.21-1.124 1.45-2.714-.22-.587-.834.307-1.123-.563-.28-.913-.563-1.547-.984-.912-1.124-.282-.703-2.106-1.27-2.753-1.825-.844-.914-.843-.562-1.125-.914-.842-.984-.562-.984-1.265-1.334-.983-1.966-.773-.21-.632-1.056-1.266-.21-.632-1.476-2.16-1.53.043-1.63-1.023-.617-.562-.14-.772.38-.844.967-.482-.276-.91-18.194 2.162z"/><path id="SC_1_" fill="#65BD6A" stroke="#fff" d="M364.71 174.607l-.772.42-1.124-.56-.28-.915-.564-1.545-.982-.915-1.124-.28-.703-2.107-1.193-2.6-1.825-.842-.916-.844-.562-1.125-.913-.844-.98-.56-.985-1.265-1.334-.983-1.966-.773-.212-.634-1.053-1.264-.212-.633-1.476-2.248-1.475.07-1.757-1.055-.562-.562-.142-.77.352-.844.982-.422-.22-.994 2.506-1.016 3.96-1.995 3.38-.35 7.004-.184 1.146.814.73 1.46 1.87-.267 5.478-.632 1.265.352 5.478 3.302 4.395 3.53-2.357 2.37-1.123 2.67-.21 2.74-.704.352-.492 1.193-1.055.28-.914 1.547-1.195 1.194-.982 1.476-.703.35-1.546 1.477-1.264.068.42 1.406-2.176 2.39-.915.563z"/><path id="KY_1_" fill="#6BBD68" stroke="#fff" d="M347.782 125.545l-.996 1.044-1.555 1.735-2.14 2.374-.53.745-.025.913-1.9.94-2.46 1.476-3.144.78-22.54 2.13-6.85.773-2.008.223-1.682-.012-.098 1.834-3.555.062-3.02.282-3.472-.026.523-.574 1.088-.67.1-1.39.397-.796-.7-1.103.35-.828.983-.774.913-.28 1.193.56 1.546.563.49-.142.07-.983-.56-1.054.14-.982.844-.633 1.122-.28.703-.28-.353-.774-.28-.842.654-.433c.003-.016.547-1.53.54-1.59l1.326-.643 2.312-.422 1.952-.21.606.707.663.378.69-1.35 1.385-.56.958.646.18.436.51-.114-.07-1.284 1.36-.76.933-.465.665.72 1.444-.02.254-.68-.16-.985 1.13-1.737 2.076-1.494.308-2.1 1.27-.2 1.648-.715 1.06-.74-.084-.682-.497-.632.245-1.302 1.82-.05.998-.324 1.455.62.894 1.897 2.23.006.89.96.702-.066 1.132-.555 2.276.25 1.12.095.733-.894 1.136-.62.82-.308.28 1.233.89.46 1.147.904.05 2.466.353.683 1.123.677.338.998 1.808 1.495.784 1.574 1.07.72z"/><path id="AL_1_" fill="#81BE63" stroke="#fff" d="M306.634 197.314l-.648-6.224-1.194-8.15.07-6.112.352-13.488-.07-7.236.072-2.79 19.33-1.572-.062.947.068.913.283 1.476 1.476 3.44 1.054 4.287.633 2.67.7 2.105.634 3.022.915 2.74 1.123 1.475.21 1.475.846.352.07.912-.774 2.107-.21 1.404-.07.845.7 1.897.143 2.318-.352 1.054.28.352.634.35.144 1.257-2.434-.154-2.95.28-11.1 1.264-4.524.613-.097 1.25.77.772 1.125.842.253 3.448-2.406 1.12-1.194-.143 1.194-.843v-.42l-1.336-2.6-.982-.282-.633 1.897-.562 1.192-.28-.07h-1.196v.002z"/><path id="LA_1_" fill="#BCC459" stroke="#fff" d="M296.49 196.77l-1.428-1.376.438-2.392-.286-.388-4.024.438-10.878.2-.297-1.04.396-3.676 1.442-2.585 2.187-3.775-.25-1.042.547-.296.198-.848-.993-.896-.048-.844-.797-1.89-.062-2.754-24.108.4.013 4.162.297 4.074.3 1.688 1.093 1.79.396 2.185 1.888 2.385.1 1.392.298.298-.3 3.676-1.288 2.186.693.895-.298 1.093-.298 3.18-.597 1.39.053 1.572 2.037-.66 5.264.09 4.496 1.546 2.81.49 1.616-.632 1.405.492 1.404.423.353-.914-1.404-.49-1.125.21-1.196-.703s.07-.562.35-.632c.284-.068 1.337-.42 1.337-.42l.772.632.772-.422 1.405.28.633 1.055.14.983 1.966.14.774.775-.352.7-.562.353.704.702 3.65 1.545 1.548-.562.42-1.053 1.124-.28.774-.633.562.42.35 1.266-.982.352.28.28 1.477-.56.984-1.477.35-.21-.912-.142.35-.7-.07-.635.915-.212.49-.562.282.353s-.07 1.334.28 1.334 1.828.283 1.828.283l1.756.842.42.634h1.266l.49.42.985-1.336v-.63h-.562l-1.476-1.196-2.53-.35-1.406-.985.493-1.194.982.14.07-.28-.772-.422v-.21h1.404l.772-1.335-.562-.843-.14-1.196-.633.07-.844.914-.28 1.124-1.337-.28-.42-.773.77-.844.827-1.498-.46-1.048-.507-1.73z"/><path id="MS_1_" fill="#83BE62" stroke="#fff" d="M306.743 196.85l-.11.545h-2.248l-.633-.352-.914-.14-2.95.843-.772-.352-1.124 1.826-.48.338-.488-1.08-.497-1.69-1.49-1.39.498-2.41-.3-.397-.794.1-3.44.38-10.666.162-.336-.966.38-3.64 1.354-2.467 2.27-3.975-.192-1.058.537-.285.19-.834-1.007-.903-.05-.932-.8-1.79-.046-2.59.576-1.08-.097-1.484-.77-1.34.664-.645-.684-1.087.2-.718.686-2.836 1.078-.886-.28-1.027 1.592-2.304 1.23-.59-.097-.728-.125-.73 1.25-2.42 1.02-.535.067-.388 16.228-1.687.08 2.73.07 7.235-.35 13.49-.072 6.11 1.196 8.15.647 5.826z"/><path id="IA_1_" fill="#55BA6B" stroke="#fff" d="M279.64 83.962l.115 1.21.966.252.415.532.22.807 1.646 1.46.3 1.04-.293 1.487-.69 1.404-.345 1.192-.945.696-.746.25-2.423.807-.604 1.672.314.596.8.732-.122 1.754-.767.668-.335.714.057 1.207-.82.198-.708.48-.12.588.12.92-.673.485-1.074-1.362-.55-1.064-28.566 1.094-.398.072-.893-1.963-.1-2.882-.696-1.79-.3-2.284-.992-1.59-.396-2.085-1.193-3.28-.496-2.335-.596-.943-.695-1.192.85-2.105.597-2.484-1.192-.893-.198-1.192.396-1.094h.746l35.92-.55.36 1.817.98.678.11.62-.88 1.472.082 1.394 1.094 1.65 1.098.563 1.338.218.284.362z"/><path id="MN_1_" fill="#83BE62" stroke="#fff" d="M238.81 53.21l-.2-3.675-.793-3.18-.796-5.86-.197-4.273-.796-1.49-.694-2.187v-4.47l.298-1.69-.79-2.37 13.095.017.14-3.584.28-.07.985.21.843.352.352 2.39.633 2.668.702.703h2.106l.14.634 2.74.14v.913h2.108l.14-.562.493-.49.982-.282.56.42h1.267l1.688 1.125 2.318 1.054 1.053.21.21-.42.633-.21.21 1.264 1.123.562.213-.21.562.07v.913l1.124.422h1.336l.7-.35 1.405-1.406 1.124-.21.352.772.21.562h.422l.423-.35 3.862-.142.773 1.334h.28l.31-.47 1.93-.162-.266.99-1.712.8-4.02 1.764-2.072.872-1.336 1.124-1.053 1.546-.983 1.686-.772.352-1.97 2.178-.56.07-1.88 1.198-1.072 1.393-.1 1.387.043 3.495-.598.733-2.21 1.634-.968 2.6 1.247.97.295 1.403-.806 1.408.074 1.63.16 2.924 1.315 1.305h1.447l.822 1.36 1.468.22 1.678 2.464 3.08 1.79.932 1.25.29 2.798-35.29.498-.147-15.504-.2-1.292-1.788-1.49-.497-.796v-.695l.895-.695.596-.596.1-1.393z"/><path id="OK_1_" fill="#A1C25E" stroke="#fff" d="M197.57 136.65l-7.25-.555-.383 4.76 8.895.503 13.93.565-1.013 10.612-.2 7.75.098.695 1.888 1.59.894.497.298-.1.298-.894.597.794h.894v-.596l1.192.597-.198 1.69 1.788.1 1.093.496 1.788.297 1.094.796.993-.895 1.49.3 1.093 1.49h.398v.993l.993.298.995-.992.794.298h1.092l.397 1.092 2.737.905.597-.3.795-1.787h.496l.497.894 1.79.298 1.588.596 1.292.397.796-.396.298-1.092h1.888l.894.396 1.192-.893h.497l.297.694h1.79l.695-.895.793.2.895 1.09 1.39.797 1.392.396.845.486-.17-16.173-.597-4.77-.07-3.853-.625-2.842-.337-3.12-.03-1.66-5.274.14-20.17-.198-19.572-.895-10.56-.593z"/><path id="TX_1_" fill="#4FB96C" stroke="#fff" d="M189.366 140.888l9.86.472 13.513.496-1.016 10.194-.13 7.89.03.904 1.888 1.658.864.63.515-.243.164-.792.495.783.917.022v-.628l.725.42.495.177-.157 1.725 1.776.042 1.272.52 1.718.23 1.035.902.924-.903 1.62.267.965 1.4.466.14-.07.855.962.343 1.012-.892.928.27.968.014.405 1.06 2.75.917.693-.332.647-1.816h.147l.395.037.534.897 1.707.29 1.45.486 1.488.52.802-.422.31-1.093 1.936.02.786.404 1.217-.915.48.02.37.697h1.762l.66-.88.812.175.845 1.046 1.53.888 1.242.353.658.35 1.062.866 1.324-.578 1.17.495.244 2.653-.018 4.217.3 4.144.305 1.567 1.162 1.92.39 2.152 1.832 2.405.085 1.367.325.342-.32 3.642-1.246 2.175.665.938-.27 1.017-.292 3.218-.653 1.45.128 1.522-2.462.688-4.286 1.968-.42.844-1.124.843-.913.63-.563.353-2.46 2.32-1.193.912-2.317 1.405-2.457 1.054-2.74 1.476-.772.633-2.53 1.544-1.475.282-1.688 2.388-1.756.14-.42.845.982.842-.633 2.39-.562 1.967-.49 1.686-.353 1.966.352 1.055.772 3.02.42 2.67.774 1.195-.422.632-1.335.844-2.458-1.687-2.39-.49-.56.21-1.405-.28-1.827-1.336-2.247-.49-3.302-1.476-.913-1.686-.562-2.812-1.404-.843-.28-.983.28-.282.14-1.475-.56-.28-.282-.422.562-1.896-.703-.985-1.404-.562-1.476-1.896-1.546-2.88-1.825-1.124.07-.844-2.318-5.34-.35-1.827-.774-.843-.07-.632-2.6-2.32-1.124-1.334v-.492l-1.125-.912-2.95-.49-3.233-.283-1.335-.983-1.967.773-1.545.632-.984 1.404-.42 1.616-1.897 2.67-1.054 1.053-1.125-.42-.773-.493-.843-.28-1.687-.984v-.28l-.773-.844-2.248-.913-3.23-3.373-.985-2.038v-3.514l-1.405-2.81-.21-1.194-.703-.42-.493-.915-2.178-.913-.563-.702-3.09-3.443-.563-1.405-2.038-.983-.632-1.897-1.125-1.265-.844-.21-.282-2.033 3.477.298 12.62 1.192 12.618.695.97-8.458 1.688-24.144.696-8.146.596.012m43.035 99.796l-.246-3.092-1.195-3.126-.246-3.056.667-3.584 1.44-2.984 1.51-2.354 1.37-1.545.28.105-2.07 2.88-1.898 2.846-.877 2.882-.14 2.248.385 2.67 1.124 3.127.21 2.247.07.633-.384.105z"/><path id="NM_1_" fill="#BAC459" stroke="#fff" d="M157.505 181.494l-.336-2.063 3.755.23 13.112 1.28 11.85.734.963-8.13 1.676-24.283.755-8.425.684.057.36-4.852-45.2-4.622-7.603 52.338 6.72.865.562-4.356 12.703 1.23z"/><path id="KS_1_" fill="#55BA6B" stroke="#fff" d="M252.995 138.196l-5.483.088-20.03-.198-19.364-.895-10.703-.546 1.692-28.07 9.597.292 17.508.367 19.253.428h2.214l.95.94.876-.008.713.44-.028 1.308-.794.75-.146.97.802 1.48 1.28 1.387 1.014.702.566 4.883.08 15.683z"/><path id="NE_1_" fill="#93C060" stroke="#fff" d="M243.528 101.83l1.404 3.05-.056 1.002 1.503 2.387 1.18 1.37h-2.193l-18.897-.41-17.725-.385-9.67-.34.466-9.27-14.044-1.27 1.888-19.124 6.756.448 8.744.497 7.75.496 10.333.498 4.67-.198.893.992 2.087 1.292.496.398 1.888-.597 1.69-.198 1.192-.1.794.596 1.764.695 1.292.695.2.695.395.895h.797l.346.02.39 2.034 1.268 3.68.25 1.632 1.096 1.64.248 2.223.698 1.842.108 2.815z"/><path id="SD_1_" fill="#EAC951" stroke="#fff" d="M239.334 85.892l-.02-.252-1.26-2.106.81-2.048.648-2.558-1.21-.904-.166-1.192.344-1.11 1.385.006-.053-2.175-.145-13.113-.27-1.638-1.77-1.448-.426-.728-.026-.7.88-.664.665-.724.104-1.154-25.317-.696-23.814-1.5-2.315 27.68 6.34.393 8.67.525 7.71.404 10.334.566 5.207-.185.854.977 2.257 1.414.334.315 1.973-.63 2.843-.27.728.582 1.827.693 1.28.71.174.646.45.974.974-.088z"/><path id="ND_1_" fill="#CCC657" stroke="#fff" d="M238.84 53.25l-.268-3.663-.73-2.962-.82-5.66-.2-4.775-.755-1.337-.765-2.257.014-4.54.27-1.662-.795-2.375-12.446-.247-8.08-.28-11.52-.563-9.973-.927-3.04 29.194 23.874 1.453 25.235.6z"/><path id="WY_1_" fill="#D5C754" stroke="#fff" d="M188.892 59.49l-46.388-5.846-6.12 38.442 49.222 5.904 3.286-38.5z"/><path id="MT_1_" fill="#EDC951" stroke="#fff" d="M192.73 21.984l-13.33-1.22-12.716-1.545-12.716-1.757-14.05-2.318-8.01-1.476-14.22-3.014-1.947 9.277 1.49 3.278-.596 1.988.795 1.987 1.39.596 2.01 4.68 1.17 1.382.198.497 1.49.495.2.895-3.08 7.65v1.093l1.092 1.39h.397l2.087-1.29.297-.497.697.298-.1 2.285 1.192 5.464 1.29 1.092.398.298.795.993-.2 1.49.3 1.49.496.4.993-.995h1.192l1.39.695 1.094-.397h1.788l1.59.695 1.19-.198.2-1.292 1.292-.298.596.597.2 1.39.62.363.82-4.795 46.39 5.836 3.825-37.504z"/><path id="CO_1_" fill="#93C060" stroke="#fff" d="M197.434 136.712l2.132-37.516L150.29 93.7l-5.31 38.217 52.454 4.795z"/><path id="ID_1_" fill="#E7C852" stroke="#fff" d="M96.806 73.923l3.812-15.306.596-1.838 1.093-2.584-.547-.994-1.093.05-.348-.447.198-.497.15-1.34 1.936-2.386.795-.198.496-.497.25-1.39.396-.3 1.69-2.533 1.688-1.888.1-1.64-1.49-1.142-.667-1.913 5.92-27.526 5.876 1.1-1.917 9.292 1.547 3.252-.687 2.026.856 2.017 1.363.546 1.667 4.153 1.526 1.928.22.498 1.453.496.16.912-3.03 7.55-.072 1.116 1.144 1.443.393-.02 2.135-1.316.294-.476.68.287-.122 2.327 1.19 5.468 1.703 1.38.73.942-.312 1.775.463 1.22.46.474 1.08-1.022 1.236.02 1.27.58 1.207-.295 1.647-.07 1.73.695 1.19-.128.217-1.32 1.274-.333.548.66.19 1.28.62.527-3.644 23.297c.002 0-38.227-7.257-41.266-7.91z"/><path id="UT_1_" fill="#9BC15F" stroke="#fff" d="M145.053 131.992l-36.395-5.16 8.947-48.907 20.33 3.8-.646 4.62-1.005 5.725 3.394.403 7.128.784 3.57.372-5.325 38.362z"/><path id="AZ_1_" fill="#51B96B" stroke="#fff" d="M95.256 163.51l-1.142.937-.14.632.21.422 8.22 4.637 5.268 3.3 6.393 3.725 7.307 4.355 5.34 1.054 10.842 1.176 7.5-51.77-36.39-5.18-1.345 7.133-.7.006-.744 1.143-1.093-.05-.546-1.192-1.192-.148-.397-.497h-.397l-.396.248-.845.447-.05 3.03-.1.746-.248 5.464-.646.943-.25 1.44 1.194 2.137.546 2.533.348.447.447.25-.048.992-.696.597-1.49.743-.844.845-.646 1.59-.248 2.137-1.242 1.19-.895.3.06.36-.2.745.2.348 1.59.25-.25 1.19-.645.943-1.64.4z"/><path id="NV_1_" fill="#49B96D" stroke="#fff" d="M117.63 77.874l-10.274 55.984-.796.152-.684 1.046-1.03.004-.64-1.19-1.14-.166-.334-.48-.45-.024-1.21.715-.134 2.95-.158 2.51-.15 3.734-.63.905-1.06-.467-30.02-45.284 8.252-29.372 40.457 8.982z"/><path id="OR_1_" fill="#A9C35D" stroke="#fff" d="M96.912 73.51l3.846-15.125.457-1.837 1.022-2.444-.267-.505-1.093-.02-.557-.727.2-.637.218-1.41 1.937-2.386.795-.478.497-.496.646-1.55 1.76-2.464 1.548-1.678.1-1.5-1.42-1.073-.775-2.018-5.503-1.57-6.558-1.54-6.707.05-.2-.596-2.383.894-1.938-.248-1.043-.696-.546.298-2.037-.1-.745-.596-2.285-.894-.347.05-1.89-.646-.843.796-2.683-.148-2.583-1.79.298-.347.1-3.38-.994-1.688-1.788-.25-.298-1.09-1.023-.204-2.52.895-.984 2.81-1.405 4.355-1.404 2.81-2.178 6.113-2.81 5.902-3.513 5.48-.843 1.264-.352 3.724.168 5.25 48.924 11.44z"/><path id="WA_1_" fill="#81BE63" stroke="#fff" d="M76.64.534l1.896.633L82.75 2.36l3.724.844 8.712 2.458 9.977 2.458 6.615 1.394-5.924 27.633-5.408-1.53-6.74-1.553-6.618.015-.198-.585-2.433.947-1.997-.32-.933-.69-.57.288-2.06-.06-.737-.587-2.287-.918-.32.064-1.907-.664-.823.79-2.723-.13-2.575-1.793.338-.405.053-3.336-.992-1.67-1.79-.263-.292-1.092-.99-.2-1.544.536-.983-1.4.14-1.263 1.195-.14.703-1.757-1.125-.492.07-1.615 1.897-.28-1.195-1.195-.633-3.09.28-1.265V8.052l-.77-1.405.982-4.075.912.21 1.054 1.265 1.195 1.125 1.406.843 1.967.913 1.334.28 1.265.633 1.476.423.984-.07V7.137l.562-.49.913-.564.14.492.142.773-.984.21-.14.913.772.632.492 1.053.28.843.632-.068.07-.562-.422-.562-.21-1.405.352-.772L76.78 7v-.983l.772-1.546-.492-1.125-1.054-2.108.14-.35.493-.353zm-4.11 2.6l.878-.07.21.596.668-.702h1.02l.35.667-.667.738.28.35-.316.88-.597.175s-.386.035-.386-.105.633-1.124.633-1.124l-.738-.248-.14.632-.317.28-.668-.982-.21-1.09z"/><path id="CA_1_" fill="#85BF63" stroke="#fff" d="M95.162 163.322l1.712-.213.646-.875.237-1.277-1.543-.257-.223-.29.21-.883-.07-.256.835-.27 1.322-1.23.253-2.17.6-1.48.844-.94 1.53-.69.718-.698.03-.916-.432-.253-.444-.466-.502-2.542-1.167-2.1.246-1.52-1.052-.45-30.013-45.273 8.214-29.378-29.15-6.822-.655 2.058-.07 3.23-2.25 5.13-1.334 1.123-.14.492-.772.35-.632 1.827-.352 1.405 1.195 1.827.7 1.826.493 1.546-.14 2.81-.773 1.334-.28 2.53-.423 1.616.772 1.686 1.194 1.968.983 2.107.562 1.757-.14 1.406-.14.21v.914l2.458 2.74-.21 1.054-.28.984-.282.843.07 3.583.914 1.616.843 1.125 1.195.21.42 1.193-.49 1.546-.915.7h-.492l-.35 1.688.21 1.264 1.406 1.898.703 2.318.63 2.037.563 1.334 1.475 2.528.633 1.124.21 1.265.703.422v1.053l-.35.844-.773 3.09-.21.843 1.053 1.195 1.827.21 1.968.773 1.686.913h1.265l1.263 1.337 1.125 2.106.49.983 1.688.914 2.107.352.632.912.28 1.406-.632.28.14.422 1.406.352 1.193.07 1.374-.733 1.686 1.828.35.983 1.125 1.827.14 1.406v4.074l.212.77 4.355.634 8.57 1.195 6.017.587zM56.86 144.324l.562.667-.07.563-1.404-.035-.246-.526-.28-.633 1.438-.036zm.843 0l.526-.282 1.545.914 1.335.527-.386.28-1.968-.104-.702-.704-.35-.632zm8.992 8.606l.773 1.02.352.42.667.247.246-.633-.42-.772-1.16-.878-.457.07v.526zm-.632 3.758l.772 1.37.527.843-.633.106-.563-.526s-.316-.633-.316-.808v-.95l.213-.034z"/><text transform="translate(371.74 116.795)" fill="#fff" class="heavy" font-size="6.733">VA</text><text transform="translate(367.019 122.855)" fill="#fff" font-size="6.733">52.0%</text><text transform="translate(368.979 137.541)" fill="#fff" class="heavy" font-size="6.733">NC</text><text transform="translate(363.914 143.799)" fill="#fff" font-size="6.733">53.9%</text><text transform="translate(353.041 153.564)" fill="#fff" class="heavy" font-size="6.733">SC</text><text transform="translate(345.289 159.822)" fill="#fff" font-size="6.733">54.0%</text><text transform="translate(337.893 168.766)" fill="#fff" class="heavy" font-size="6.733">GA</text><text transform="translate(333.499 174.826)" fill="#fff" font-size="6.733">53.5%</text><text transform="translate(362.56 215.629)" fill="#fff" class="heavy" font-size="6.733">FL</text><text transform="translate(355.024 221.689)" fill="#fff" font-size="6.733">55.4%</text><text transform="translate(313.406 170.074)" fill="#fff" class="heavy" font-size="6.733">AL</text><text transform="translate(308.32 176.134)" fill="#fff" font-size="6.733">55.3%</text><text transform="translate(289.71 171.709)" fill="#fff" class="heavy" font-size="6.733">MS</text><text transform="translate(285.431 177.769)" fill="#fff" font-size="6.733">55.4%</text><text transform="translate(304.684 146.332)" fill="#fff" class="heavy" font-size="6.733">TN</text><text transform="translate(313.779 146.332)" fill="#fff" font-size="6.733">51.1%</text><text transform="translate(321.813 126.423)" fill="#fff" class="heavy" font-size="6.733">KY</text><text transform="translate(316.5 132.68)" fill="#fff" font-size="6.733">54.3%</text><text transform="translate(332.253 99.126)" fill="#fff" class="heavy" font-size="6.733">OH</text><text transform="translate(328.272 105.187)" fill="#fff" font-size="6.733">53.3%</text><text transform="translate(309.356 103.534)" fill="#fff" class="heavy" font-size="6.733">IN</text><text transform="translate(303.742 109.791)" fill="#fff" font-size="6.733">57.6%</text><text transform="translate(288.58 103.04)" fill="#fff" class="heavy" font-size="6.733">IL</text><text transform="translate(282.16 109.1)" fill="#fff" font-size="6.733">53.6%</text><text transform="translate(261.357 121.352)" fill="#fff" class="heavy" font-size="6.733">MO</text><text transform="translate(257.962 127.411)" fill="#fff" font-size="6.733">53.4%</text><text transform="translate(265.527 156.014)" fill="#fff" class="heavy" font-size="6.733">AR</text><text transform="translate(260.906 162.072)" fill="#fff" font-size="6.733">54.3%</text><text transform="translate(264.891 193.784)" fill="#fff" class="heavy" font-size="6.733">LA</text><text transform="translate(264.891 200.042)" fill="#fff" font-size="6.733">58.3%</text><text transform="translate(254.903 86.69)" fill="#fff" class="heavy" font-size="6.733">IA</text><text transform="translate(249.134 92.749)" fill="#fff" font-size="6.733">53.0%</text><text transform="translate(245.809 52.682)" fill="#fff" class="heavy" font-size="6.733">MN</text><text transform="translate(242.268 58.742)" fill="#fff" font-size="6.733">55.4%</text><text transform="translate(281.409 66.764)" fill="#fff" class="heavy" font-size="6.733">WI</text><text transform="translate(276.773 72.825)" fill="#fff" font-size="6.733">55.6%</text><text transform="translate(315.891 74.441)" fill="#fff" class="heavy" font-size="6.733">MI</text><text transform="translate(310.861 80.501)" fill="#fff" font-size="6.733">56.2%</text><text transform="translate(369.548 87.366)" fill="#fff" class="heavy" font-size="6.733">PA</text><text transform="translate(364.563 93.425)" fill="#fff" font-size="6.733">54.7%</text><text transform="translate(383.421 63.425)" fill="#fff" class="heavy" font-size="6.733">NY</text><text transform="translate(378.952 69.485)" fill="#fff" font-size="6.733">57.7%</text><text transform="translate(415.328 31.788)" fill="#fff" class="heavy" font-size="6.733">ME</text><text transform="translate(411.169 37.847)" fill="#fff" font-size="6.733">61.7%</text><text transform="translate(213.186 185.769)" fill="#fff" class="heavy" font-size="6.733">TX</text><text transform="translate(208.26 191.83)" fill="#fff" font-size="6.733">52.7%</text><text transform="translate(226.496 150.128)" fill="#fff" class="heavy" font-size="6.733">OK</text><text transform="translate(222.32 156.188)" fill="#fff" font-size="6.733">56.9%</text><text transform="translate(219.206 122.005)" fill="#fff" class="heavy" font-size="6.733">KS</text><text transform="translate(214.144 128.065)" fill="#fff" font-size="6.733">53.1%</text><text transform="translate(211.695 93.23)" fill="#fff" class="heavy" font-size="6.733">NE</text><text transform="translate(206.952 99.29)" fill="#fff" font-size="6.733">56.2%</text><text transform="translate(210.211 64.127)" fill="#fff" class="heavy" font-size="6.733">SD</text><text transform="translate(205.316 70.187)" fill="#fff" font-size="6.733">64.1%</text><text transform="translate(209.144 36.333)" fill="#fff" class="heavy" font-size="6.733">ND</text><text transform="translate(204.989 42.392)" fill="#fff" font-size="6.733">59.4%</text><text transform="translate(152.502 33.716)" fill="#fff" class="heavy" font-size="6.733">MT</text><text transform="translate(148.418 39.776)" fill="#fff" font-size="6.733">67.0%</text><text transform="translate(156.487 73.284)" fill="#fff" class="heavy" font-size="6.733">WY</text><text transform="translate(152.996 79.342)" fill="#fff" font-size="6.733">60.1%</text><text transform="translate(168.383 113.176)" fill="#fff" class="heavy" font-size="6.733">CO</text><text transform="translate(164.114 119.237)" fill="#fff" font-size="6.733">56.2%</text><text transform="translate(158.827 154.378)" fill="#fff" class="heavy" font-size="6.733">NM</text><text transform="translate(155.285 160.438)" fill="#fff" font-size="6.733">58.2%</text><text transform="translate(116.871 151.109)" fill="#fff" class="heavy" font-size="6.733">AZ</text><text transform="translate(112.122 157.167)" fill="#fff" font-size="6.733">52.8%</text><text transform="translate(126.695 106.637)" fill="#fff" class="heavy" font-size="6.733">UT</text><text transform="translate(121.933 112.697)" fill="#fff" font-size="6.733">56.6%</text><text transform="translate(88.936 96.827)" fill="#fff" class="heavy" font-size="6.733">NV</text><text transform="translate(84.654 102.887)" fill="#fff" font-size="6.733">52.4%</text><text transform="translate(112.533 56.606)" fill="#fff" class="heavy" font-size="6.733">ID</text><text transform="translate(106.89 62.666)" fill="#fff" font-size="6.733">62.9%</text><text transform="translate(74.587 50.067)" fill="#fff" class="heavy" font-size="6.733">OR</text><text transform="translate(70.266 56.126)" fill="#fff" font-size="6.733">57.2%</text><text transform="translate(81.617 16.712)" fill="#fff" class="heavy" font-size="6.733">WA</text><text transform="translate(78.114 22.772)" fill="#fff" font-size="6.733">55.3%</text><text transform="translate(58.159 110.234)" fill="#fff" class="heavy" font-size="6.733">CA</text><text transform="translate(53.59 116.293)" fill="#fff" font-size="6.733">55.5%</text><text transform="translate(47.19 195.61)" fill="#fff" class="heavy" font-size="7.224">AK</text><text transform="translate(42.386 202.113)" fill="#fff" font-size="7.224">58.2%</text><text transform="translate(126.649 227.074)" fill="#4E4E4E" class="heavy" font-size="7.224">HI</text><text transform="translate(120.624 233.788)" fill="#4E4E4E" font-size="7.224">47.4%</text><text transform="translate(345.201 112.646)" fill="#fff" class="heavy" font-size="6.733">WV</text><text transform="translate(345.201 118.369)" fill="#fff" font-size="6.733">50.9</text><text transform="translate(358.345 118.369)" fill="#fff" font-size="5.835">%</text><path id="marect_1_" fill="#42B86E" stroke="#fff" d="M479.73 12.84h7.82v7.82h-7.82z"/><text transform="translate(467.961 27.523)" fill="#4E4E4E" font-size="6.733">51.7%</text><text transform="translate(466.911 19.185)" fill="#4E4E4E" class="heavy" font-size="6.733">MA</text><path id="rirect_1_" fill="#D0C657" stroke="#fff" d="M479.73 30.794h7.82v7.82h-7.82z"/><text transform="translate(467.961 45.477)" fill="#4E4E4E" font-size="6.733">59.8%</text><text transform="translate(472.018 37.138)" fill="#4E4E4E" class="heavy" font-size="6.733">RI</text><path id="ctrect_1_" fill="#55BA6B" stroke="#fff" d="M479.73 48.748h7.82v7.82h-7.82z"/><text transform="translate(467.961 63.431)" fill="#4E4E4E" font-size="6.733">53.0%</text><text transform="translate(469.504 55.093)" fill="#4E4E4E" class="heavy" font-size="6.733">CT</text><path id="njrect_1_" fill="#7ABE64" stroke="#fff" d="M479.73 66.702h7.82v7.82h-7.82z"/><text transform="translate(467.961 81.386)" fill="#4E4E4E" font-size="6.733">55.0%</text><text transform="translate(470.398 73.02)" fill="#4E4E4E" class="heavy" font-size="6.733">NJ</text><path id="derect_1_" fill="#2BB673" stroke="#fff" d="M479.73 84.657h7.82v7.82h-7.82z"/><text transform="translate(467.961 99.34)" fill="#4E4E4E" font-size="6.733">48.5%</text><text transform="translate(469.339 91.003)" fill="#4E4E4E" class="heavy" font-size="6.733">DE</text><path id="mdrect_1_" fill="#91C060" stroke="#fff" d="M479.73 102.61h7.82v7.82h-7.82z"/><text transform="translate(467.961 117.295)" fill="#4E4E4E" font-size="6.733">56.1%</text><text transform="translate(466.863 108.956)" fill="#4E4E4E" class="heavy" font-size="6.733">MD</text><path id="dcrect_1_" fill="#51B96B" stroke="#fff" d="M479.73 120.566h7.82v7.82h-7.82z"/><text transform="translate(469.616 135.249)" fill="#4E4E4E" font-size="6.733">52.8%</text><text transform="translate(468.55 126.911)" fill="#4E4E4E" class="heavy" font-size="6.733">DC</text><path id="vtrect_1_" fill="#EAC951" stroke="#fff" d="M351.992 11.64h7.82v7.82h-7.82z"/><text transform="translate(340.248 25.352)" fill="#4E4E4E" font-size="6.733">64.1%</text><text transform="translate(341.844 18.693)" fill="#4E4E4E" class="heavy" font-size="6.733">VT</text><path id="nhrect_1_" fill="#81BE63" stroke="#fff" d="M392.39 11.64h7.82v7.82h-7.82z"/><text transform="translate(380.646 25.352)" fill="#4E4E4E" font-size="6.733">55.3%</text><text transform="translate(381.013 18.693)" fill="#4E4E4E" class="heavy" font-size="6.733">NH</text><text transform="translate(381.211 171.764)" fill="#666766" class="heavy" font-size="8">Share of Private Sector Employment:</text><text transform="translate(385.631 179.767)" fill="#666766" class="heavy" font-size="8">Pass-through Businesses in 2012</text><g id="g5211" stroke="#fff" stroke-width="1.443"><path id="dcrect-1" fill="#24B574" d="M388.163 183.063h7.948V195.9h-7.947z"/><path id="dcrect-1-7" fill="#42B86E" d="M398.336 183.063h7.948V195.9h-7.948z"/><path id="dcrect-1-4" fill="#51B96B" d="M408.51 183.063h7.947V195.9h-7.948z"/><path id="dcrect-1-0" fill="#5BBA6A" d="M418.68 183.063h7.95V195.9h-7.95z"/><path id="dcrect-1-7-9" fill="#6BBD68" d="M428.855 183.063h7.947V195.9h-7.947z"/><path id="dcrect-1-4-4" fill="#81BE63" d="M439.027 183.063h7.948V195.9h-7.948z"/><path id="dcrect-1-8" fill="#85BF63" d="M449.2 183.063h7.95V195.9h-7.95z"/><path id="dcrect-1-7-8" fill="#93C060" d="M459.372 183.063h7.948V195.9h-7.948z"/><path id="dcrect-1-4-2" fill="#B1C35B" d="M469.544 183.063h7.95V195.9h-7.95z"/><path id="dcrect-1-45" fill="#D5C754" d="M479.716 183.063h7.95V195.9h-7.95z"/><path id="dcrect-1-7-5" fill="#EDC951" d="M489.89 183.063h7.948V195.9h-7.947z"/></g><g id="g4238" fill="#666766" font-size="8"><text transform="translate(17.201 -21.562) translate(366.22 226.052)" class="heavy">Smaller</text><text transform="translate(17.201 -21.562) translate(368.421 234.054)" class="heavy">Share</text><text transform="translate(17.201 -21.562) translate(468.983 225.558)" class="heavy">Larger</text><text transform="translate(17.201 -21.562) translate(469.953 233.559)" class="heavy">Share</text></g></svg>