<?xml version="1.0" encoding="utf-8"?>
<!-- Generator: Adobe Illustrator 16.0.4, SVG Export Plug-In . SVG Version: 6.00 Build 0)  -->
<!DOCTYPE svg PUBLIC "-//W3C//DTD SVG 1.1//EN" "http://www.w3.org/Graphics/SVG/1.1/DTD/svg11.dtd">
<svg version="1.1" id="Layer_2" xmlns="http://www.w3.org/2000/svg" xmlns:xlink="http://www.w3.org/1999/xlink" x="0px" y="0px"
	 width="511.25px" height="247.125px" viewBox="0 0 511.25 247.125" enable-background="new 0 0 511.25 247.125"
	 xml:space="preserve"><style>text, tspan { font-family: &apos;Lato&apos;; } .heavy { font-weight: 700; }</style>
<path id="HI_1_" fill="#24B574" stroke="#FFFFFF" d="M106.453,209.202l0.904-1.658l1.056-0.151
	l0.151,0.377l-0.98,1.433H106.453L106.453,209.202z M111.202,207.468l2.865,1.206l0.98-0.15l0.753-1.81l-0.301-1.582l-1.96-0.227
	l-1.884,0.83L111.202,207.468L111.202,207.468z M125.525,212.142l1.733,2.564l1.131-0.151l0.528-0.227l0.678,0.603l1.734-0.075
	l0.452-0.678l-1.357-0.83l-0.905-1.734l-0.979-1.658l-2.714,1.357L125.525,212.142L125.525,212.142z M134.948,216.289l0.603-0.905
	l2.186,0.452l0.302-0.226l2.864,0.301l-0.15,0.604l-1.206,0.679l-2.035-0.15L134.948,216.289L134.948,216.289z M137.435,218.7
	l0.904,1.81l1.433-0.528l0.151-0.753l-0.754-0.979l-1.734-0.151V218.7L137.435,218.7z M140.677,218.172l1.055-1.355l2.187,1.131
	l2.036,0.527l2.035,1.282v0.904l-1.659,0.828l-2.261,0.453l-1.131-0.678L140.677,218.172L140.677,218.172z M148.441,225.41
	l0.753-0.604l1.583,0.754l3.543,1.659l1.583,0.98l0.754,1.131l0.905,2.035l1.884,1.206l-0.151,0.603l-1.809,1.507l-1.96,0.68
	l-0.679-0.302l-1.433,0.83l-1.13,1.508l-1.056,1.355l-0.829-0.074l-1.659-1.206l-0.151-2.111l0.301-1.131l-0.753-2.639l-0.98-0.829
	l-0.075-1.205l1.056-0.453l0.979-1.433l0.227-0.452l-0.754-0.829L148.441,225.41L148.441,225.41z"/>
<path id="AK_1_" fill="#BAC459" stroke="#FFFFFF" d="M71.474,178.597l-0.15,39.802l0.754,0.453
	l1.432,0.075l0.679-0.528h1.206l0.076,1.358l3.242,3.165l0.226,1.206l1.583-0.905l0.302-0.074l0.15-1.433l0.679-0.754l0.528-0.076
	l0.904-0.678l1.432,0.979l0.301,1.358l0.905,0.526l0.528,1.131l1.81,0.829l1.583,2.79l1.281,1.81l1.056,1.28l0.679,1.734
	l2.337,0.828l2.412,0.981l0.452,2.034l0.226,1.433l-0.452,1.584l-0.829,1.055l-0.753-0.377l-0.679-1.433l-1.281-0.678l-0.829-0.528
	l-0.378,0.377l0.679,1.283l0.076,1.731l-0.528,0.227l-0.904-0.903l-0.98-0.604l0.226,0.755l0.603,0.829l-0.377,0.377
	c0,0-0.377-0.151-0.603-0.453c-0.226-0.301-0.98-1.582-0.98-1.582l-0.452-1.056c0,0-0.15,0.603-0.452,0.452
	c-0.301-0.151-0.603-0.68-0.603-0.68l0.829-0.902l-0.679-0.679v-2.338h-0.376l-0.377,1.583l-0.528,0.227l-0.453-1.733l-0.302-1.734
	l-0.376-0.227l0.151,2.64v0.528l-0.679-0.604l-1.658-2.789l-0.98-0.226l-0.301-1.734l-0.754-1.357l-0.753-0.528v-1.054l0.98-0.604
	l-0.227-0.151l-1.206,0.303l-1.583-1.131l-1.206-1.357l-2.262-1.207l-1.884-1.205l0.603-1.508v-0.753l-0.829,0.753l-1.357,0.527
	l-1.733-0.527l-2.639-1.131h-2.563l-0.301,0.226l-3.015-1.809l-0.98-0.151l-1.281-2.714l-1.659,0.151l-1.658,0.679l0.226,2.11
	l0.528-1.356l0.452,0.15l-0.679,2.035l1.508-1.281l0.301,0.753l-1.809,2.036l-0.603-0.149l-0.227-0.904l-0.604-0.38l-0.603,0.528
	l-1.281-0.828l-1.433,0.98l-0.829,0.979l-1.583,0.979l-2.186-0.074l-0.226-0.98l1.734-0.301v-0.604l-1.056-0.301l0.452-1.133
	l1.056-1.809v-0.829l0.075-0.377l2.035-1.055l0.453,0.603h1.281l-0.603-1.207l-1.734-0.15l-2.337,1.281l-1.13,1.583l-0.829,1.206
	l-0.528,1.057l-1.96,0.678l-1.432,1.206l-0.151,0.754l1.056,0.452l0.376,0.98l-1.281,1.507l-3.016,1.96l-3.618,1.961l-0.979,0.527
	l-2.488,0.527l-2.487,1.057l0.829,0.603l-0.679,0.678l-0.226,0.528l-1.282-0.453l-1.508,0.076l-0.376,1.056h-0.453l0.151-1.132
	l-1.659,0.604l-1.357,0.452l-1.583-0.603l-1.357,0.904h-1.507l-0.98,0.603l-0.754,0.377l-0.98-0.151l-1.206-0.525l-1.055,0.3
	l-0.453,0.452l-0.754-0.527v-0.904l1.433-0.604l2.94,0.302l2.035-0.754l0.98-0.979l1.357-0.302l0.829-0.378l1.282,0.076l0.754,0.604
	l0.452-0.151l1.056-1.282l1.432-0.452l1.583-0.302l0.602-0.151l0.302,0.228h0.377l0.603-1.734l1.885-0.679l0.905-1.732l1.055-2.111
	l0.753-0.68l0.151-1.206l-0.754,0.604l-1.583,0.301l-0.302-1.129l-0.604-0.152l-0.452,0.454l-0.075,1.355l-0.679-0.075l-0.679-2.713
	l-0.603,0.603l-0.528-0.227l-0.151-0.904l-1.884,0.074l-0.98,0.528l-1.206-0.151l0.678-0.678l0.226-1.206l-0.302-0.904l0.679-0.452
	l0.603-0.076l-0.302-0.829v-2.034l-0.452-0.453l-0.376,0.679H23.38l-0.678-0.603l-0.302-1.809l-0.98-1.66v-0.451l0.98-0.378
	l0.075-0.98l0.528-0.527l-0.376-0.226l-0.604,0.226l-0.528-1.281l0.452-2.337l2.111-1.508l1.206-0.753l0.905-1.734l1.282-0.604
	l1.206,0.527l0.151,1.131l1.13-0.15l1.508-1.131l0.754,0.302l0.452,0.302h0.753l1.056-0.604l0.376-2.035
	c0,0,0.151-1.356,0.452-1.583c0.302-0.227,0.452-0.452,0.452-0.452l-0.527-0.905l-1.206,0.378l-1.508,0.376l-0.905-0.226
	l-1.659-0.83l-2.336-0.075l-1.658-1.733l0.226-1.81l0.302-1.131l-0.98-0.828l-0.904-1.734l0.226-0.377l3.166-0.226h0.98l0.452,0.451
	h0.302l-0.075-0.753l1.809-0.303l1.207,0.151l0.678,0.527l-0.678,0.98l-0.227,0.679l1.282,0.754l2.337,0.829l0.829-0.453
	l-1.056-2.034l-0.452-1.508l0.452-0.377l-1.583-0.905l-0.226-0.527l0.226-0.754l-0.377-1.81l-1.356-2.186l-1.131-1.961l1.356-0.904
	h1.508l0.83,0.302l1.96-0.074l1.733-1.66l0.527-1.433l1.734-1.129l0.754,0.452l1.281-0.302l1.733-0.981l0.528-0.074l0.452,0.377
	l2.112-0.075l1.281-1.432h0.528l1.659,1.13l0.904,0.979l-0.227,0.528l0.301,0.526l0.754-0.753l1.809,0.151l0.15,1.733l0.905,0.679
	l3.317,0.302l2.939,1.959l0.679-0.451l2.412,1.206l0.98-0.301l0.904-0.379l2.262,0.904L71.474,178.597L71.474,178.597z
	 M17.801,192.09l0.98,2.487l-0.076,0.453l-1.357-0.151l-0.829-1.885l-0.829-0.678h-1.13l-0.076-1.206l0.83-1.131l0.527,1.131
	l0.678,0.678L17.801,192.09L17.801,192.09z M16.595,207.694l1.734,0.378l1.734,0.451l0.377,0.453l-0.754,1.732l-1.433-0.074
	l-1.583-1.658L16.595,207.694z M6.947,201.136l0.526,1.207l0.528,0.754l-0.528,0.376l-0.979-1.432v-0.905H6.947z M0.539,235.209
	l1.583-1.055l1.583-0.452l1.206,0.151l0.226,0.753l0.905,0.226l0.905-0.903l-0.151-0.755l1.281-0.302l1.357,1.206l-0.527,0.83
	l-2.036,0.526l-1.281-0.226l-1.734-0.528l-2.036,0.68l-0.753,0.15L0.539,235.209L0.539,235.209z M23.38,233.098l0.754,0.905
	l0.979-0.754l-0.678-0.603L23.38,233.098L23.38,233.098z M24.736,234.531l0.528-1.057l0.98,0.151l-0.377,0.905H24.736
	L24.736,234.531z M35.742,233.626l0.679,0.83l0.452-0.527l-0.377-0.905L35.742,233.626L35.742,233.626z M39.814,227.822l0.527,2.714
	l1.357,0.376l2.337-1.355l2.035-1.207l-0.754-1.131l0.227-1.131l-0.98,0.604l-1.357-0.377l0.754-0.527l0.904,0.377l1.809-0.83
	l0.227-0.678l-1.132-0.377l0.377-0.905l-1.282,0.905l-2.186,1.657l-2.262,1.357L39.814,227.822L39.814,227.822z M59.564,218.551
	l1.13-0.68l-0.452-0.828l-0.829,0.451L59.564,218.551L59.564,218.551z"/>
<path id="FL_1_" fill="#83BE62" stroke="#FFFFFF" d="
	M362.482,188.068l0.984,3.181l1.62,4.235l2.318,4.074l1.615,2.739l2.108,2.39l1.756,1.615l0.703,1.264l-0.493,0.562l-0.352,0.562
	l1.266,3.232l1.265,1.265l1.124,2.318l1.544,2.529l1.969,3.584l0.562,3.301l0.21,5.198l0.28,0.773l-0.139,1.476l-1.054,0.562
	l0.14,0.843l-0.281,0.844l0.142,1.054l0.211,0.844l-1.195,1.404l-1.336,0.633l-1.686,0.069l-0.632,0.703l-1.054,0.422l-0.562-0.211
	l-0.491-0.422l-0.142-1.265l-0.352-1.476l-1.476-2.248l-1.544-0.982L367.826,233l-0.35,0.562l-1.336-1.897l-0.281-1.546
	l-1.124-1.756l-0.773-0.491l-0.702,0.912l-0.773-0.14l-0.912-2.178l-1.265-1.687l-1.266-2.318l-1.124-1.334l-1.546-1.616
	l0.914-1.054l1.406-2.389l-0.07-0.703l-1.967-0.421l-0.703,0.28l0.142,0.281l1.123,0.422l-0.633,1.966l-0.352,0.213l-0.771-1.758
	l-0.562-2.107l-0.142-1.194l0.633-2.037v-4.146l-1.336-1.614l-0.562-1.337l-2.248-0.562l-0.843-0.28l-0.703-1.124l-1.476-0.703
	l-0.491-1.475l-1.194-0.422l-1.053-1.616l-1.827-0.632l-1.266-0.632h-1.123l-1.757,0.351l-0.07,0.843l0.352,0.423l-0.21,0.49
	l-1.337-0.069l-1.614,1.545l-1.546,0.843h-1.686l-1.405,0.562l-0.14-1.194l-0.703-0.843l-1.266-0.492l-0.703-0.632l-3.511-1.687
	l-3.303-0.773l-1.897,0.281l-2.6,0.211l-2.599,0.913l-1.512,0.268l-0.104-3.499l-1.124-0.843l-0.773-0.772l0.142-1.336l4.426-0.562
	l11.101-1.265l2.95-0.28l2.361,0.121l1.126,1.687l0.632,0.632l3.52,0.225l4.701-0.281l9.35-0.562l2.366-0.295l2.22,0.091
	l0.186,1.264l0.971,0.352l0.101-2.012l-0.665-1.814l0.57-0.625l2.413,0.198L362.482,188.068L362.482,188.068z M367.933,245.609
	l1.056-0.28l0.562-0.106l0.631-1.018l1.019-0.702l0.563,0.21l0.738,0.141l0.174,0.457l-1.51,0.526l-1.827,0.632l-1.019,0.528
	L367.933,245.609L367.933,245.609z M373.801,243.432l0.525,0.457l1.194-0.914l2.318-1.825l1.616-1.687l1.088-2.881l0.423-0.737
	l0.07-1.476l-0.317,0.21l-0.42,1.23l-0.633,2.002l-1.405,2.283l-1.897,1.826l-1.476,0.844L373.801,243.432L373.801,243.432z"/>
<path id="NH_1_" fill="#81BE63" stroke="#FFFFFF" d="
	M415.058,59.122l0.378-0.468l0.474-1.431l-1.105-0.396l-0.211-1.334L412.907,55l-0.142-1.194l-3.161-10.187l-1.998-6.32
	l-0.391-0.002l-0.281,0.702l-0.28-0.211l-0.423-0.422l-0.633,0.844l-0.02,2.187l0.135,2.463l0.843,1.194v1.757l-1.614,2.201
	l-1.126,0.491v0.492l0.493,0.772v3.724l-0.352,4.004l-0.071,2.107l0.423,0.562l-0.07,1.967l-0.211,0.773l0.421,0.308l7.296-1.923
	l0.946-0.263l0.8-1.205L415.058,59.122L415.058,59.122z"/>
<path id="MI_1_" fill="#93C060" stroke="#FFFFFF" d="M290.109,29.711l-0.993,0.244l-2.334,1.684
	l-0.952,0.353l-0.788,0.896l0.693,0.489l0.896-0.394l1.44-0.842l2.242-2.241L290.109,29.711z M294.943,35.891l-2.037,0.217
	l-1.888,1.046l-0.992,0.991l-0.556,0.761l-0.774,0.353l-0.843,1.263l-0.066,0.57l-1.902,0.909l-1.045,0.843l-2.607,0.421
	l-0.287,0.285v0.422l-1.534,0.977l-1.194,0.354l-0.313,0.258l1.617,2.228l3.422,0.502l3.586,0.951l1.236,0.449l5.27,1.181
	l0.896,0.992l1.534,0.598l0.843,4.482l0.598,0.447l0.516,0.448l1.37-3.042l0.423-1.766l0.854-1.888l0.34-0.082l0.503,0.706h0.271
	l1.968-1.045l0.639,0.692l0.204,0.068l0.57-0.489l0.489-1.331l1.045-0.352l3.029-0.286l0.843-1.113l2.24-0.082l2.54,0.571h0.774
	l1.398-0.638l0.979,0.067l0.924-0.272l1.614,0.205l0.354,0.149l0.557-0.149l-0.557-0.422l-0.569-0.271l-1.398-1.345v-3.014
	l-0.639-0.217l-0.489,0.502l-2.677,0.692l-0.843,0.217l-1.261-0.353l-0.204-0.135v-2.458l-0.639-0.083l-1.128,0.571l-1.954,0.842
	l-2.895,0.136l-1.466,0.488l-1.766,1.548l-0.691,0.422h-0.504l-0.558,0.353l-0.705-0.203l-0.691-0.571l-0.639,0.422l-1.684,0.067
	l-1.196-1.194l-0.637-1.331l-0.627-0.489l-1.412-0.421h-0.977l-0.558-0.557l-1.549,1.263l-0.42,0.489l-0.354-0.217l0.135-1.114
	l1.062-1.412l0.202-1.059l0.992-0.34l0.625-1.344l1.616-0.421l0.148-0.421L294.943,35.891L294.943,35.891z M323.856,45.967
	l-0.95,0.108l-0.693,0.068l-0.149,0.49l0.42,0.217l0.287,1.086l1.411,0.068l0.558-0.516c0,0-0.036-0.636-0.178-0.707
	C324.422,46.712,323.856,45.967,323.856,45.967z M316.794,50.014l-1.263,0.774l-1.264,0.978l0.136,1.548l0.422,0.136l0.924,0.217
	l0.202,0.353l-1.126,0.354l-1.113,0.135l-0.639,0.774l-0.136,0.91l0.136,0.707l0.136,2.39l-1.534,0.91l-0.285-0.068v-1.833
	l0.556-1.045l0.285-1.06l-0.352-0.353l-0.843,0.353l-0.421,1.833l-1.194,0.489l-0.774,0.842l-0.068,0.421l0.285,0.353l-0.285,1.127
	l-0.979,0.204v0.489l0.34,1.06l-0.489,2.662l-0.693,1.766l0.273,2.037l0.216,0.489l-0.352,1.06l-0.138,0.34l-0.149,1.195
	l1.551,2.607l1.263,2.811l0.637,2.105l-0.352,2.038l-0.423,2.593l-1.059,2.254l-0.136,1.195l-1.412,1.345l1.916-0.082l9.301-0.978
	l3.165-0.434l0.041,0.733l2.973-0.529l4.482-0.652l1.672-0.204l0.066-0.258l0.067-0.625l0.911-1.616l0.869-0.761l-0.095-2.199
	l0.691-0.693l0.477-0.15l0.095-1.534l0.665-1.317l0.461,0.257l0.068,0.286l0.354,0.067l0.841-0.421l-0.136-4.142l-1.413-3.584
	l-0.978-3.938l-1.058-1.399l-1.128-0.774l-0.693,0.488l-1.697,0.775l-0.841,2.172l-1.196,1.616l-0.489,0.285l-0.625-0.285
	c0,0-1.13-0.629-1.059-0.91c0.07-0.281,0.218-2.173,0.218-2.173l1.466-0.57l0.354-1.467l0.285-1.127l1.047-0.706l-0.138-4.36
	l-0.705-0.978l-0.558-0.354l-0.353-0.909l0.353-0.354l0.707,0.136l0.066-0.706l-1.059-0.978l-0.556-1.127h-1.128l-1.969-0.624
	l-2.391-1.481h-1.195l-0.271,0.285l-0.422-0.217L316.794,50.014L316.794,50.014z"/>
<path id="VT_1_" fill="#EAC951" stroke="#FFFFFF" d="
	M399.277,64.177l0.137-2.323l-1.257-4.687l-0.281-0.14l-1.265-0.562l0.352-1.265l-0.352-0.914l-1.173-2.017l0.421-1.687l-0.35-2.248
	l-1.056-2.81l-0.35-2.14l11.482-2.925l0.134,2.4l0.832,1.191v1.757l-1.61,2.198l-1.124,0.496l-0.006,0.487l0.569,0.66l-0.135,3.52
	l-0.265,4.024l-0.1,2.415l0.423,0.562l-0.071,1.987l-0.212,0.735l0.44,0.316l-3.229,0.655L399.277,64.177L399.277,64.177z"/>
<path id="ME_1_" fill="#E2C853" stroke="#FFFFFF" d="
	M433.327,31.485l0.845,0.913l0.982,1.617v0.843l-0.914,2.038l-0.843,0.28l-1.476,1.335l-2.107,2.389c0,0-0.279,0-0.562,0
	c-0.28,0-0.42-0.913-0.42-0.913l-0.772,0.07l-0.422,0.632l-1.056,0.633l-0.42,0.632l0.701,0.632l-0.21,0.281l-0.21,1.195
	l-0.843-0.071v-0.703l-0.142-0.562l-0.633,0.141l-0.772-1.405l-0.913,0.562l0.562,0.632l0.142,0.492l-0.352,0.562l0.142,1.335
	l0.068,0.702l-0.701,1.125l-1.266,0.21l-0.141,1.265l-2.318,1.334l-0.562,0.211l-0.703-0.632l-1.334,1.545l0.423,1.405l-0.633,0.562
	l-0.071,1.896l-0.486,2.72l-1.071-0.502l-0.21-1.335l-1.687-0.492l-0.141-1.194l-3.161-10.188l-2.042-6.362l0.617-0.051l0.658,0.178
	v-1.125l0.568-1.953l1.124-2.038l0.632-1.756l-0.843-1.053v-2.6l0.352-0.421l0.353-1.195l-0.071-0.632l-0.07-2.107l0.771-2.107
	l1.266-3.864l0.913-1.827h0.562l0.562,0.07v0.491l0.562,0.983l1.195,0.282l0.352-0.352v-0.421l1.756-1.265l0.772-0.773l0.633,0.07
	l2.599,1.053l0.843,0.422l3.936,12.998h2.599l0.353,0.842l0.07,2.108l1.263,0.983h0.353l0.068-0.21l-0.208-0.492L433.327,31.485
	L433.327,31.485z M424.232,44.586l0.666-0.667l0.597,0.457l0.247,1.053l-0.738,0.387L424.232,44.586z M427.146,42.022l0.772,0.808
	c0,0,0.563,0.035,0.563-0.105c0-0.141,0.105-0.878,0.105-0.878l0.386-0.352l-0.352-0.772l-0.877,0.316L427.146,42.022
	L427.146,42.022z"/>
<path id="RI_1_" fill="#D0C657" stroke="#FFFFFF" d="
	M412.134,74.971l-1.607-6.5l2.725-0.802l0.952,0.838l1.437,1.877l1.169,1.913l-1.304,0.707l-0.562-0.071l-0.491,0.772l-1.053,0.843
	L412.134,74.971L412.134,74.971z"/>
<path id="NY_1_" fill="#B1C35B" stroke="#FFFFFF" d="M393.146,79.252l-0.491-0.422l-1.125-0.07
	l-0.982-0.843l-0.71-2.664l-1.504,0.04l-1.061-1.177l-8.424,1.904l-18.688,3.794l-3.272,0.533l-0.321-2.811l0.62-0.489l0.562-0.492
	l0.422-0.702l0.772-0.492l0.843-0.772l0.21-0.703l0.913-1.194l0.493-0.421l-0.07-0.422l-0.562-1.334l-0.774-0.07l-0.843-2.67
	l1.266-0.772l1.896-0.632l1.758-0.562l1.405-0.211l2.738-0.07l0.845,0.562l0.702,0.07l0.913-0.562l1.124-0.492l2.247-0.21
	l0.914-0.773l0.773-1.404l0.701-0.844h0.914l0.843-0.491l0.07-0.984l-0.632-0.913l-0.14-0.632l0.491-0.914v-0.632h-0.774
	l-0.772-0.352l-0.352-0.492l-0.068-1.124l2.528-2.388l0.281-0.353l0.633-1.264l1.263-1.967l1.196-1.616l0.912-1.054l1.051-0.793
	l1.338-0.542l2.389-0.562l1.405,0.07l1.967-0.632l3.288-0.9l0.227,2.164l1.053,2.811l0.352,2.248l-0.42,1.686l1.123,1.968
	l0.35,0.913l-0.35,1.265l1.264,0.562l0.281,0.141l1.336,4.777l-0.234,2.199l-0.211,4.707l0.352,2.389l0.353,1.545l0.632,3.162v3.512
	l-0.493,0.984l0.801,0.866l0.346,0.73l-0.843,0.773l0.142,0.562l0.562-0.141l0.631-0.562l0.984-1.124l0.491-0.28l0.703,0.28
	l0.984,0.07l3.441-1.686l1.266-1.194l0.56-0.633l1.827,0.703l-1.476,1.545l-1.686,1.264l-3.09,2.319l-1.126,0.421l-2.528,0.843
	l-1.757,0.492l-0.509-0.231l-0.107-1.603l0.21-1.195l-0.068-0.913l-1.223-0.738l-1.969-0.422l-1.686-0.491L393.146,79.252
	L393.146,79.252z"/>
<path id="PA_1_" fill="#74BD66" stroke="#FFFFFF" d="
	M390.863,94.874l0.567-0.118l1.013-0.545l0.525-1.079l0.703-0.984l1.405-1.334v-0.352l-1.053-0.702l-1.547-1.053l-0.42-1.125
	l-1.194-0.14l-0.071-0.492l-0.352-1.194l0.984-0.492l0.07-1.054l-0.563-0.562l0.07-0.702l0.843-1.335v-1.334l1.173-1.15
	l-0.398-0.293l-1.098-0.083l-0.996-0.843l-0.675-2.658l-1.522,0.043l-1.067-1.175l-7.861,1.825l-18.688,3.793l-3.865,0.633
	l-0.271-2.834l-2.33,2.202l-0.562,0.211l-1.824,1.308l1.265,8.316l1.077,4.229l1.553,8.371l1.421-0.277l5.19-0.653l16.482-3.332
	l6.465-1.227l3.608-0.705l0.115-0.104l0.913-0.703L390.863,94.874L390.863,94.874z"/>
<path id="NJ_1_" fill="#7ABE64" stroke="#FFFFFF" d="
	M392.842,79.128l-1.009,1.188v1.334l-0.843,1.335l-0.07,0.702l0.562,0.562l-0.071,1.054l-0.981,0.492l0.35,1.194l0.07,0.492
	l1.194,0.14l0.423,1.124l1.546,1.054l1.053,0.703v0.351l-1.297,1.172l-0.701,0.983l-0.633,1.195l-0.984,0.562l-0.2,0.696
	l-0.105,0.527l-0.265,1.133l0.476,0.974l1.404,1.265l2.108,0.983l1.756,0.281l0.068,0.633l-0.35,0.421l0.14,1.194h0.352l0.914-1.054
	l0.35-2.107l1.194-1.757l1.336-2.81l0.491-2.39l-0.281-0.491l-0.07-4.075l-0.701-1.475l-0.491,0.351l-1.194,0.14l-0.213-0.21
	l0.493-0.421l0.914-0.843l0.026-0.475l-0.168-1.493l0.251-1.194l-0.051-0.856l-1.221-0.76l-2.214-0.512l-1.799-0.6L392.842,79.128
	L392.842,79.128z"/>
<path id="DE_1_" fill="#2BB673" stroke="#FFFFFF" d="
	M391.081,96.432l0.16-0.933l0.161-0.735l-0.703,0.173l-0.703,0.203l-0.958,0.767l0.747,2.191l0.982,2.459l0.914,4.215l0.703,2.74
	l2.177-0.071l2.67-0.512l-0.984-3.211l-0.42,0.211l-1.547-1.053l-0.773-2.037l-0.841-1.546l-1.368-1.247l-0.376-0.913
	L391.081,96.432L391.081,96.432z"/>
<path id="MD_1_" fill="#91C060" stroke="#FFFFFF" d="
	M397.235,106.921l-2.609,0.523l-2.235,0.051l-0.802-3.009l-0.835-3.984l-1.12-2.689l-0.56-1.911l-3.262,0.705l-6.464,1.227
	l-16.276,3.282l0.491,2.178l0.422,2.458l0.14-0.14l0.914-1.054l0.984-1.137l1.053-0.268l0.633-0.632l0.773-1.125l0.562,0.282
	l1.263-0.141l1.124-0.913l0.873-0.631l0.803-0.21l0.713,0.49l1.266,0.633l0.843,0.772l0.527,0.667l1.791,0.738v1.265l2.389,0.562
	l0.497,0.236l0.614-0.881l1.252,0.856l-0.554,1.078l-0.334,1.733l-0.772,1.124v0.914l0.279,0.772l2.201,0.589l1.876-0.027
	l1.333,0.421l0.914,0.141l0.42-0.914l-0.63-0.913v-0.772l-1.056-0.914l-0.913-2.389l0.562-2.319l-0.07-0.914l-0.56-0.562
	c0,0,0.63-0.703,0.63-0.983c0-0.281,0.213-0.914,0.213-0.914l0.841-0.562l0.845-0.702l0.21,0.421l-0.633,0.702l-0.562,1.616
	l0.142,0.492l0.771,0.14l0.21,2.389l-0.913,0.422l0.142,1.545l0.21-0.07l0.493-0.844l0.701,0.773l-0.701,0.562l-0.142,1.476
	l1.124,1.475l1.686,0.211l0.703-0.352l1.407,1.817l0.59,0.234l2.893-1.216l0.873-1.748L397.235,106.921L397.235,106.921z
	 M390.297,110.845l0.491,1.089l0.07,0.773l0.491,0.808c0,0,0.387-0.386,0.387-0.526s-0.315-1.335-0.315-1.335l-0.315-1.019
	L390.297,110.845z"/>
<path id="VA_1_" fill="#46B86D" stroke="#FFFFFF" d="
	M393.694,112.855l-0.062-0.846l2.804-1.108l-0.334,1.398l-1.27,1.643l-0.182,1.992l0.2,1.474l-0.794,2.163l-0.94,0.833l-0.639-2.017
	l0.194-2.368l0.689-1.818L393.694,112.855L393.694,112.855z M395.146,125.153l-25.282,5.466l-16.265,2.294l-2.902-0.163
	l-1.123,0.838l-3.189,0.096l-3.643,0.425l-4.743,0.701l4.55-2.438l-0.007-0.901l0.661-0.933l4.586-4.998l1.716,1.945l1.644,0.419
	l1.105-0.495l0.973-0.57l1.104,0.584l1.699-0.62l0.816-1.98l1.13,0.234l1.241-0.926l0.782,0.214l1.229-1.598l0.152-0.905
	l-0.421-0.554l0.437-0.812l2.292-5.335l0.269-2.492l0.534-0.228l0.945,1.062l1.712-0.131l0.837-3.291l1.215-0.245l0.457-1.191
	l1.121-1.02l1.203-2.475l0.038-2.202l4.269,1.661c0.295,0.148,0.362-2.194,0.362-2.194l1.586,0.695l0.03,1.276l2.513,0.564
	l0.928,0.511l0.722,0.894l-0.285,1.586l-0.847,1.126l0.049,0.895l0.256,0.805l2.163,0.551l1.935,0.018l1.334,0.416l0.845,0.135
	l0.311,1.342l1.387,0.175l0.376,0.521l-0.189,2.039l0.596,0.479l-0.206,0.839l0.533,0.343l-0.097,0.602l-1.17-0.041l0.038,0.702
	l0.99,0.671l0.055,0.614l0.771,0.775l0.214,1.096l-1.109,0.6l0.683,0.65l2.521-0.733L395.146,125.153L395.146,125.153z"/>
<path id="WV_1_" fill="#39B76F" stroke="#FFFFFF" d="
	M363.076,101.077l0.483,2.149l0.471,2.622l0.926-1.122l0.984-1.334l1.104-0.268l0.63-0.632l0.774-1.124l0.627,0.281l1.265-0.141
	l1.124-0.914l0.873-0.631l0.801-0.21l0.567,0.441l1.583,0.792l0.843,0.773l0.599,0.562l-0.332,2.414l-2.536-1.104l-1.846-0.705
	l-0.042,2.25l-1.194,2.406l-1.1,1.054l-0.518,1.195l-1.15,0.217l-0.39,1.566l-0.453,1.716l-1.724,0.147l-1.011-1.06l-0.465,0.243
	l-0.275,2.377l-0.586,1.536l-2.156,4.761l0.39,0.505l-0.089,0.829l-1.221,1.688l-0.786-0.236l-1.289,0.938l-1.105-0.248
	l-0.869,1.979c0,0-1.417,0.621-1.704,0.594c-0.071-0.006-1.073-0.541-1.073-0.541l-1.017,0.598l-1.047,0.455l-1.627-0.387
	l-0.487-0.508l-0.954-1.314l-1.364-0.864l-0.744-1.573l-1.861-1.508l-0.28-0.983l-1.126-0.633l-0.35-0.702l-0.105-2.283l0.948-0.035
	l0.843-0.352l0.07-1.194l0.701-0.632l0.071-2.177l0.42-1.687l0.564-0.281l0.562,0.492l0.21,0.772l0.774-0.422l0.21-0.703
	l-0.493-0.772v-1.054l0.423-0.562l0.984-1.475l0.562-0.632l0.914,0.211l0.982-0.703l1.333-1.476l0.984-1.686l0.142-2.459
	l0.211-2.177v-2.038l-0.491-1.334l0.42-0.632l0.558-0.562l1.519,8.616l2.013-0.327L363.076,101.077L363.076,101.077z"/>
<path id="OH_1_" fill="#59B96A" stroke="#FFFFFF" d="
	M351.839,81.243l-2.649,1.762l-1.687,0.983l-1.475,1.616l-1.757,1.686l-1.404,0.351l-1.266,0.211l-2.389,1.124l-0.912,0.071
	l-1.476-1.335l-2.249,0.282l-1.124-0.632l-1.034-0.587l-2.127,0.306l-4.426,0.702l-4.869,0.95l0.562,6.357l0.772,5.972l1.124,10.187
	l0.246,2.1l1.791-0.056l1.053-0.351l1.464,0.653l0.899,1.897l2.233-0.007l0.822,0.921l0.764-0.028l1.104-0.583l1.09,0.161
	l2.356,0.209l0.75-0.927l1.019-0.562l0.899-0.296l0.281,1.194l0.773,0.422l1.51,1.019l0.948-0.036l0.58-0.213l0.081-1.2l0.687-0.632
	l0.043-2.083l0.446-1.785l0.564-0.262l0.573,0.499l0.235,0.738l0.747-0.451l0.19-0.635l-0.485-0.827l0.028-1.006l0.325-0.466
	l0.937-1.437l0.456-0.671l0.914,0.211l0.982-0.703l1.336-1.475l1.204-1.772l0.14-2.197l0.21-2.178l-0.076-2.306l-0.415-1.258
	l0.152-0.517l0.784-0.761l-0.995-3.932l-1.265-8.414H351.839z"/>
<path id="IN_1_" fill="#AFC35A" stroke="#FFFFFF" d="M301.532,127.588l0.028-1.242l0.211-1.967
	l0.983-1.265l0.772-1.687l1.126-1.826l-0.212-2.529l-0.772-1.194l-0.142-1.405l0.352-2.389l-0.21-3.021l-0.562-6.956l-0.562-6.674
	l-0.422-5.093l1.334,0.387l0.632,0.421l0.493-0.141l0.912-0.843l1.23-0.702l2.213-0.071l9.555-0.983l2.423-0.232l0.653,6.934
	l1.849,16.011l0.259,2.508l-0.161,0.983l0.533,0.781l0.043,0.596l-1.096,0.695l-1.538,0.675l-1.393,0.239l-0.259,2.116l-1.989,1.439
	l-1.214,1.743l0.139,1.032l-0.252,0.667h-1.445l-0.689-0.701l-1.083,0.548l-1.166,0.652l0.07,1.328l-0.52,0.112l-0.202-0.442
	l-0.941-0.653l-1.413,0.583l-0.675,1.306l-0.625-0.351l-0.633-0.695l-1.939,0.212l-2.43,0.421L301.532,127.588L301.532,127.588z"/>
<path id="IL_1_" fill="#5EBB6A" stroke="#FFFFFF" d="
	M301.521,127.75l0.014-1.404l0.247-2.019l1.013-1.268l0.812-1.771l0.97-1.736l-0.161-2.283l-0.871-1.54l-0.043-1.455l0.304-2.29
	l-0.36-3.12l-0.465-6.856l-0.562-6.526l-0.4-5.059l-0.117-0.4l-0.352-1.125l-0.562-1.615l-0.703-0.773l-0.633-1.125l-0.101-2.385
	l-19.902,1.128l0.1,1.031l0.994,0.298l0.396,0.497l0.2,0.795l1.688,1.491l0.299,0.993l-0.299,1.491l-0.795,1.59l-0.297,1.092
	l-0.994,0.794l-0.795,0.298l-2.283,0.597l-0.3,0.795l-0.299,0.895l0.299,0.596l0.795,0.695l-0.1,1.789l-0.794,0.696l-0.299,0.695
	v1.192l-0.795,0.199l-0.695,0.496l-0.099,0.596l0.099,0.894l-0.746,0.571l-0.446,1.217l0.198,1.589l0.994,3.18l3.18,3.279
	l2.385,1.589l-0.102,1.888l0.398,0.596l2.783,0.199l1.19,0.595l-0.297,1.591l-0.992,2.583l-0.3,1.391l0.993,1.689l2.782,2.285
	l1.987,0.298l0.894,2.186l0.896,1.391l-0.398,1.292l0.695,1.788l0.796,0.895l0.614-0.383l0.395-0.901l0.962-0.76l0.926-0.267
	l1.132,0.512l1.574,0.599l0.518-0.13l0.087-0.98l-0.56-1.05l0.133-1.032l0.799-0.585l1.313-0.352l0.548-0.2l-0.267-0.603
	l-0.344-1.022l0.623-0.428L301.521,127.75L301.521,127.75z"/>
<path id="CT_1_" fill="#55BA6B" stroke="#FFFFFF" d="
	M412.134,74.957l-1.6-6.466l-2.051,0.399l-9.225,2.062l0.435,1.402l0.633,3.161l0.076,3.896l-0.531,0.946l0.835,0.839l1.857-1.697
	l1.546-1.405l0.841-0.914l0.352,0.282l1.194-0.632l2.25-0.492L412.134,74.957z"/>
<path id="WI_1_" fill="#87BF62" stroke="#FFFFFF" d="
	M299.576,82.999l-0.03-1.373l-0.512-1.967l-0.28-2.67l-0.494-1.054l0.423-1.334l0.352-1.265l0.633-1.124l-0.281-1.476l-0.28-1.545
	l0.21-0.772l0.843-1.054l0.07-1.194l-0.352-0.562l0.281-1.124l-0.196-1.812l1.192-2.459l1.266-2.951l0.07-0.983l-0.14-0.422
	l-0.352,0.211l-1.827,2.74l-1.194,1.756l-0.843,0.773l-0.352,0.983l-0.849,0.353l-0.491,0.843l-0.635-0.141l-0.068-0.772
	l0.562-1.054l0.913-2.037l0.772-0.702l0.431-1.025l-1.111-0.826l-0.859-4.505l-1.542-0.583l-0.845-1.003l-5.271-1.183l-1.251-0.439
	l-3.567-0.942l-3.442-0.504l-1.635-2.229l-0.327,0.24l-0.521-0.07l-0.281-0.491l-0.58,0.129l-0.491,0.07l-0.771,0.421l-0.423-0.28
	l0.281-0.843l0.843-1.334l0.493-0.492l-0.843-0.632l-0.914,0.352l-1.265,0.843l-3.232,1.405l-1.265,0.281l-1.264-0.211l-0.426-0.382
	l-0.92,1.232l-0.102,1.192v3.676l-0.495,0.695l-2.285,1.689l-0.995,2.583l0.2,0.099l1.092,0.895l0.299,1.391l-0.796,1.391v1.689
	l0.2,2.881l1.291,1.292h1.489l0.797,1.391l1.489,0.199l1.689,2.483l3.078,1.789l0.896,1.192l0.396,3.229l0.299,1.44l0.995,0.696
	l0.099,0.595l-0.896,1.491l0.102,1.391l1.091,1.688l1.094,0.497l1.291,0.2l0.584,0.6L299.576,82.999L299.576,82.999z"/>
<path id="NC_1_" fill="#64BB68" stroke="#FFFFFF" d="
	M395.146,125.131l0.907,2.137l1.545,2.81l1.055,1.054l0.281,0.983l-1.054,0.071l0.35,0.28l-0.139,1.826l-1.124,0.562l-0.283,0.913
	l-0.562,1.266l-1.615,0.702l-1.055-0.141l-0.631-0.069l-0.703-0.563l0.142,0.563v0.42h0.843l0.35,0.562l-0.843,2.74h1.827
	l0.28,0.702l0.984-0.984l0.562-0.21l-0.843,1.546l-1.336,2.107h-0.562l-0.491-0.21l-1.194,0.28l-2.247,1.054l-2.812,2.319
	l-1.476,2.037l-0.843,2.81l-0.21,1.054l-2.037,0.211l-2.369,0.581l-4.323-3.564l-5.479-3.302l-1.266-0.353l-5.479,0.633
	l-1.859,0.326l-0.704-1.405l-1.289-0.92l-7.167,0.211l-3.161,0.352l-3.934,1.968l-2.67,1.123l-9.204,1.124l0.219-1.762l0.771-0.632
	l1.195-0.281l0.28-1.616l1.827-1.194l1.686-0.633l1.827-1.545l1.896-0.914l0.28-1.334l1.686-1.687l0.283-0.07
	c0,0,0,0.492,0.35,0.492c0.352,0,0.845,0.141,0.845,0.141l0.982-1.547l0.914-0.279l0.984,0.141l0.701-1.547l1.265-1.124l0.211-0.913
	l0.08-1.585l1.859-0.01l3.129-0.372l6.848-0.979l6.577-0.908l9.406-2.05l8.683-1.851l4.857-1.046L395.146,125.131L395.146,125.131z
	 M397.003,139.561l1.124-1.089l1.368-1.124l0.669-0.28l0.068-0.878l-0.278-2.67l-0.635-1.019l-0.279-0.808l0.315-0.106l1.194,2.389
	l0.176,1.932l-0.07,1.477l-1.476,0.667l-1.229,1.054l-0.493,0.526L397.003,139.561z"/>
<path id="DC_1_" fill="#51B96B" stroke="#FFFFFF" d="
	M382.473,106.238l-0.808-0.793l-0.536-0.298l0.629-0.88l1.255,0.847L382.473,106.238L382.473,106.238z"/>
<path id="MA_1_" fill="#42B86E" stroke="#FFFFFF" d="
	M423.237,72.519l0.944-0.298l0.2-0.745l0.446,0.05l0.446,0.993l-0.545,0.199l-1.69,0.049L423.237,72.519L423.237,72.519z
	 M419.165,72.867l0.992-1.143h0.697l0.794,0.646l-1.042,0.447l-0.944,0.447L419.165,72.867L419.165,72.867z M404.041,63.312
	l7.67-2.017l0.984-0.281l0.831-1.215l1.625-0.723l1.255,1.917l-1.056,2.248l-0.139,0.632l0.843,1.124l0.491-0.351h0.773l0.982,1.124
	l1.688,2.599l1.547,0.211l0.981-0.421l0.772-0.773l-0.35-1.194l-0.913-0.703l-0.633,0.351l-0.423-0.562l0.21-0.21l0.916-0.07
	l0.772,0.351l0.843,1.054l0.422,1.264l0.14,1.054l-1.827,0.632l-1.686,0.843l-1.686,1.967l-0.843,0.632v-0.421l1.053-0.632
	l0.212-0.773l-0.354-1.334l-1.263,0.633L417.53,70.9l0.21,0.983l-0.897,0.435l-1.194-1.967l-1.476-1.897l-0.899-0.788l-2.84,0.815
	l-2.213,0.456l-8.984,1.997l-0.291-2.072l0.281-4.602l1.865-0.387L404.041,63.312L404.041,63.312z"/>
<path id="TN_1_" fill="#3BB76F" stroke="#FFFFFF" d="
	M335.043,135.533l-22.552,2.178l-6.85,0.773l-2.009,0.222l-1.68-0.011l-0.098,1.781l-3.557,0.114l-3.02,0.282l-3.517-0.055
	l-0.615,3.074l-0.737,2.381l-1.431,1.196l-0.587,1.904l-0.139,1.124l-1.757,0.983l0.631,1.546l-0.421,1.896l-0.42,0.344
	l47.004-4.522l0.174-1.719l0.788-0.647l1.23-0.326l0.293-1.615l1.781-1.176l1.758-0.649l1.774-1.552l1.929-0.88l0.227-1.333
	l1.767-1.731l0.238-0.05c0,0,0.014,0.492,0.365,0.492s0.843,0.153,0.843,0.153l0.984-1.559l0.899-0.281l0.988,0.128l0.695-1.535
	l1.284-1.148l0.184-0.843l0.134-1.612l-0.933-0.088l-1.132,0.882l-3.039,0.013l-7.978,1.036L335.043,135.533L335.043,135.533z"/>
<path id="AR_1_" fill="#6BBD68" stroke="#FFFFFF" d="
	M290.344,146.31l-1.729,0.312l-2.221-0.275l0.182-0.696l1.295-1.116l0.411-1.589l-0.797-1.291l-34.078,1.093l0.695,2.98v3.577
	l0.596,4.77l0.1,16.442l0.994,0.845l1.292-0.597l1.192,0.497l0.295,2.856l24.171-0.495l0.499-0.909l-0.125-1.542l-0.793-1.292
	l0.695-0.646l-0.695-1.091l0.298-1.092l0.594-2.436l1.096-0.896l-0.3-0.993l1.591-2.333l1.192-0.596l-0.05-0.648l-0.15-0.793
	l1.241-2.434l1.045-0.546l0.166-1.489l0.771-0.54l-1.367-0.21l-0.582-1.743l1.219-1.033l0.239-0.877l0.556-1.759L290.344,146.31
	L290.344,146.31z"/>
<path id="MO_1_" fill="#5BBA6A" stroke="#FFFFFF" d="
	M274.967,105.051l-1.094-1.341l-0.497-0.994l-27.969,1.044l-0.994,0.05l0.547,1.092l-0.099,0.994l1.092,1.689l1.342,1.789
	l1.341,1.192l0.939,0.1l0.65,0.397v1.292l-0.795,0.695l-0.198,0.993l0.895,1.491l1.092,1.292l1.093,0.794l0.597,5.067l0.137,15.677
	l0.1,2.036l0.198,2.34l9.75-0.377l10.083-0.299l9.041-0.347l5.066-0.101l0.942,1.488l-0.298,1.438l-1.342,1.045l-0.248,0.797
	l2.338,0.2l1.692-0.298l0.745-2.389l0.285-2.545l0.909-1.111l1.13-0.646l0.022-1.326l0.44-0.841l-0.735-1.105l-0.58,0.428
	l-0.865-0.968l-0.558-2.069l0.348-1.093l-0.845-1.491l-0.795-1.988l-2.088-0.347l-3.027-2.433l-0.746-1.789l0.346-1.39l0.896-2.633
	l0.2-1.244l-0.847-0.449l-2.979-0.346l-0.446-0.745l-0.049-1.839l-2.385-1.491l-3.031-3.376l-0.993-3.18l-0.101-1.836
	L274.967,105.051L274.967,105.051z"/>
<path id="GA_1_" fill="#5CBB69" stroke="#FFFFFF" d="
	M324.446,151.742v0.948l0.068,0.914l0.281,1.475l1.476,3.442l1.055,4.286l0.631,2.669l0.703,2.108l0.633,3.021l0.913,2.74
	l1.124,1.476l0.21,1.475l0.843,0.352l0.071,0.913l-0.772,2.107l-0.212,1.405l-0.068,0.843l0.701,1.897l0.142,2.319l-0.353,1.053
	l0.281,0.351l0.633,0.352l0.089,1.398l0.97,1.457l0.979,0.938l3.442,0.07l4.701-0.28l9.35-0.562l2.367-0.293l1.988,0.012l0.07,1.265
	l1.124,0.352l0.14-1.896l-0.701-1.968l0.491-0.702l2.53,0.351l2.162,0.139l-0.337-2.737l0.984-4.356l0.63-1.827l-0.21-1.123
	l1.449-2.714l-0.22-0.587l-0.833,0.307l-1.124-0.563l-0.281-0.912l-0.562-1.547l-0.984-0.912l-1.124-0.282l-0.703-2.106
	l-1.271-2.753l-1.824-0.844l-0.914-0.843l-0.562-1.125l-0.914-0.842l-0.984-0.562l-0.984-1.266l-1.334-0.983l-1.966-0.773
	l-0.211-0.631l-1.055-1.266l-0.21-0.632l-1.476-2.16l-1.53,0.043l-1.631-1.023l-0.616-0.562l-0.14-0.772l0.378-0.844l0.968-0.482
	l-0.276-0.911L324.446,151.742L324.446,151.742z"/>
<path id="SC_1_" fill="#65BD6A" stroke="#FFFFFF" d="
	M364.709,174.607l-0.771,0.421l-1.124-0.562l-0.281-0.914l-0.563-1.545l-0.982-0.915l-1.124-0.279l-0.703-2.108l-1.194-2.599
	l-1.825-0.843l-0.916-0.844l-0.562-1.124l-0.913-0.844l-0.982-0.562l-0.984-1.264l-1.334-0.983l-1.967-0.773l-0.212-0.633
	l-1.053-1.264l-0.211-0.633l-1.476-2.247l-1.475,0.069l-1.757-1.054l-0.562-0.562l-0.142-0.771l0.352-0.843l0.982-0.423
	l-0.221-0.994l2.507-1.016l3.961-1.995l3.38-0.35l7.003-0.184l1.146,0.815l0.73,1.459l1.869-0.266l5.479-0.632l1.265,0.352
	l5.479,3.302l4.395,3.53l-2.357,2.371l-1.123,2.67l-0.211,2.74l-0.703,0.352l-0.491,1.193l-1.055,0.281l-0.914,1.546l-1.194,1.194
	l-0.982,1.476l-0.703,0.351l-1.546,1.476l-1.264,0.069l0.421,1.406l-2.177,2.389L364.709,174.607L364.709,174.607z"/>
<path id="KY_1_" fill="#6BBD68" stroke="#FFFFFF" d="
	M347.782,125.545l-0.996,1.044l-1.555,1.736l-2.141,2.374l-0.529,0.746l-0.026,0.913l-1.901,0.94l-2.46,1.476l-3.143,0.781
	l-22.542,2.129l-6.848,0.773l-2.009,0.223l-1.682-0.012l-0.098,1.834l-3.555,0.062l-3.021,0.282l-3.471-0.026l0.523-0.574
	l1.088-0.67l0.099-1.391l0.398-0.795l-0.699-1.103l0.35-0.828l0.982-0.773l0.913-0.281l1.194,0.562l1.546,0.562l0.491-0.141
	l0.071-0.983l-0.562-1.054l0.14-0.983l0.845-0.633l1.122-0.28l0.703-0.281l-0.352-0.773l-0.28-0.843l0.654-0.433
	c0.002-0.016,0.546-1.531,0.54-1.59l1.325-0.643l2.312-0.422l1.952-0.21l0.606,0.707l0.663,0.378l0.691-1.351l1.385-0.558
	l0.958,0.645l0.18,0.435l0.509-0.114l-0.07-1.284l1.362-0.76l0.932-0.465l0.665,0.721l1.443-0.02l0.254-0.682l-0.159-0.984
	l1.13-1.737l2.075-1.495l0.308-2.101l1.271-0.199l1.647-0.715l1.061-0.742l-0.085-0.681l-0.497-0.632l0.246-1.302l1.819-0.05
	l0.999-0.324l1.455,0.621l0.894,1.896l2.229,0.006l0.892,0.959l0.701-0.065l1.132-0.555l2.276,0.25l1.119,0.095l0.734-0.894
	l1.136-0.62l0.818-0.308l0.281,1.233l0.889,0.46l1.148,0.904l0.05,2.466l0.353,0.683l1.123,0.676l0.338,0.998l1.807,1.495
	l0.784,1.574L347.782,125.545L347.782,125.545z"/>
<path id="AL_1_" fill="#81BE63" stroke="#FFFFFF" d="
	M306.634,197.314l-0.648-6.224l-1.194-8.149l0.07-6.113l0.352-13.488l-0.07-7.236l0.072-2.789l19.33-1.573l-0.062,0.947l0.068,0.914
	l0.283,1.476l1.476,3.442l1.053,4.286l0.633,2.669l0.701,2.106l0.633,3.022l0.914,2.739l1.123,1.476l0.211,1.476l0.845,0.352
	l0.07,0.912l-0.774,2.108l-0.21,1.404l-0.07,0.844l0.701,1.897l0.142,2.318l-0.352,1.054l0.28,0.352l0.633,0.351l0.144,1.256
	l-2.434-0.154l-2.95,0.281l-11.101,1.264l-4.523,0.613l-0.097,1.25l0.771,0.772l1.124,0.843l0.253,3.448l-2.407,1.119l-1.194-0.142
	l1.194-0.843v-0.421l-1.336-2.6l-0.982-0.281l-0.633,1.897l-0.562,1.193l-0.281-0.069H306.634L306.634,197.314z"/>
<path id="LA_1_" fill="#BCC459" stroke="#FFFFFF" d="
	M296.49,196.769l-1.428-1.375l0.438-2.392l-0.286-0.388l-4.024,0.438l-10.878,0.2l-0.297-1.041l0.396-3.675l1.441-2.585l2.187-3.776
	l-0.248-1.042l0.546-0.296l0.198-0.848l-0.993-0.895l-0.048-0.844l-0.797-1.889l-0.062-2.755l-24.108,0.401l0.013,4.161l0.297,4.074
	l0.299,1.688l1.094,1.79l0.396,2.185l1.888,2.385l0.099,1.392l0.299,0.298l-0.299,3.676l-1.289,2.186l0.693,0.895l-0.298,1.093
	l-0.297,3.179l-0.597,1.392l0.053,1.571l2.037-0.659l5.264,0.089l4.497,1.546l2.81,0.491l1.616-0.633l1.405,0.492l1.404,0.423
	l0.352-0.915l-1.404-0.491l-1.124,0.211l-1.196-0.703c0,0,0.072-0.562,0.352-0.632c0.283-0.069,1.336-0.422,1.336-0.422l0.772,0.633
	l0.773-0.422l1.405,0.281l0.633,1.054l0.139,0.983l1.967,0.141l0.774,0.774l-0.352,0.701l-0.562,0.352l0.704,0.702l3.651,1.545
	l1.547-0.562l0.42-1.054l1.124-0.281l0.774-0.632l0.562,0.421l0.35,1.265l-0.982,0.352l0.281,0.281l1.476-0.562l0.984-1.476
	l0.35-0.211l-0.912-0.141l0.35-0.701l-0.07-0.634l0.915-0.212l0.491-0.562l0.281,0.353c0,0-0.07,1.334,0.281,1.334
	s1.827,0.282,1.827,0.282l1.756,0.842l0.421,0.634h1.265l0.491,0.42l0.984-1.335v-0.631h-0.562l-1.476-1.195l-2.53-0.351
	l-1.405-0.984l0.493-1.194l0.982,0.142l0.071-0.282l-0.772-0.421v-0.211h1.404l0.772-1.334l-0.562-0.843l-0.14-1.196l-0.633,0.071
	l-0.843,0.913l-0.281,1.124l-1.336-0.281l-0.42-0.772l0.771-0.843l0.827-1.498l-0.461-1.048L296.49,196.769L296.49,196.769z"/>
<path id="MS_1_" fill="#83BE62" stroke="#FFFFFF" d="
	M306.743,196.849l-0.111,0.546h-2.247l-0.633-0.352l-0.914-0.14l-2.95,0.843l-0.772-0.352l-1.124,1.826l-0.479,0.338l-0.489-1.081
	l-0.497-1.688l-1.49-1.391l0.498-2.41l-0.3-0.397l-0.794,0.1l-3.442,0.38l-10.665,0.161l-0.336-0.966l0.38-3.641l1.354-2.466
	l2.271-3.974l-0.193-1.058l0.537-0.285l0.19-0.834l-1.007-0.903l-0.051-0.932l-0.798-1.79l-0.047-2.591l0.576-1.079l-0.097-1.484
	l-0.769-1.34l0.663-0.644l-0.684-1.087l0.2-0.718l0.686-2.836l1.079-0.886l-0.279-1.027l1.591-2.305l1.231-0.59l-0.098-0.728
	l-0.125-0.73l1.251-2.419l1.019-0.536l0.067-0.388l16.228-1.687l0.081,2.73l0.07,7.235l-0.352,13.489l-0.071,6.112l1.195,8.149
	L306.743,196.849L306.743,196.849z"/>
<path id="IA_1_" fill="#55BA6B" stroke="#FFFFFF" d="
	M279.64,83.962l0.115,1.211l0.966,0.251l0.414,0.532l0.219,0.807l1.647,1.459l0.299,1.04l-0.293,1.488l-0.689,1.404l-0.346,1.192
	l-0.945,0.696l-0.746,0.249l-2.424,0.808l-0.604,1.673l0.314,0.596l0.801,0.732l-0.123,1.754l-0.767,0.668l-0.335,0.714l0.057,1.207
	l-0.821,0.198l-0.707,0.479l-0.119,0.588l0.119,0.919l-0.673,0.486l-1.073-1.362l-0.55-1.065l-28.566,1.094l-0.398,0.072
	l-0.893-1.963l-0.1-2.881l-0.695-1.789l-0.299-2.285l-0.993-1.59l-0.396-2.085l-1.193-3.279l-0.496-2.335l-0.596-0.943l-0.696-1.192
	l0.85-2.105l0.597-2.484l-1.192-0.894l-0.198-1.192l0.396-1.094h0.746l35.92-0.552l0.361,1.818l0.979,0.678l0.111,0.619
	l-0.882,1.473l0.083,1.394l1.094,1.65l1.098,0.562l1.338,0.218L279.64,83.962L279.64,83.962z"/>
<path id="MN_1_" fill="#83BE62" stroke="#FFFFFF" d="
	M238.81,53.211l-0.199-3.676l-0.794-3.179l-0.796-5.862l-0.198-4.272l-0.796-1.491l-0.694-2.186v-4.471l0.298-1.689l-0.792-2.369
	l13.096,0.016l0.14-3.584l0.281-0.069l0.984,0.209l0.843,0.352l0.352,2.389l0.633,2.669l0.702,0.703h2.106l0.14,0.633l2.741,0.14
	v0.913h2.107l0.14-0.562l0.493-0.491l0.982-0.281l0.562,0.421h1.266l1.688,1.124l2.318,1.054l1.053,0.21l0.21-0.421l0.633-0.21
	l0.211,1.265l1.123,0.562l0.213-0.211l0.562,0.071v0.913l1.124,0.421h1.336l0.701-0.351l1.404-1.405l1.124-0.211l0.352,0.773
	l0.21,0.562h0.423l0.423-0.351l3.862-0.141l0.773,1.334h0.281l0.31-0.471l1.93-0.161l-0.267,0.99l-1.712,0.799l-4.019,1.765
	l-2.073,0.872l-1.336,1.124l-1.053,1.546l-0.984,1.686l-0.772,0.352l-1.969,2.178l-0.562,0.07l-1.88,1.198l-1.071,1.393
	l-0.099,1.387l0.042,3.495l-0.598,0.733l-2.209,1.634l-0.969,2.6l1.247,0.971l0.295,1.402l-0.806,1.408l0.074,1.629l0.16,2.925
	l1.315,1.305h1.447l0.822,1.361l1.468,0.219l1.678,2.464l3.08,1.79l0.932,1.25l0.291,2.798l-35.292,0.498l-0.146-15.504l-0.2-1.292
	l-1.788-1.491l-0.497-0.795v-0.695l0.895-0.695l0.596-0.596L238.81,53.211L238.81,53.211z"/>
<path id="OK_1_" fill="#A1C25E" stroke="#FFFFFF" d="
	M197.569,136.649l-7.25-0.554l-0.382,4.759l8.895,0.504l13.93,0.565l-1.013,10.612l-0.2,7.75l0.099,0.695l1.888,1.59l0.894,0.497
	l0.298-0.099l0.298-0.895l0.597,0.794h0.894v-0.596l1.192,0.596l-0.197,1.689l1.788,0.1l1.093,0.497l1.788,0.297l1.093,0.796
	l0.993-0.895l1.491,0.298l1.092,1.49h0.398v0.994l0.993,0.298l0.994-0.993l0.794,0.298h1.093l0.397,1.092l2.738,0.905l0.597-0.3
	l0.795-1.787h0.497l0.497,0.894l1.789,0.298l1.589,0.596l1.291,0.397l0.796-0.397l0.298-1.092h1.888l0.894,0.396l1.192-0.893h0.497
	l0.297,0.694h1.789l0.696-0.894l0.794,0.199l0.895,1.092l1.391,0.796l1.391,0.396l0.845,0.486l-0.17-16.173l-0.597-4.77l-0.07-3.854
	l-0.625-2.842l-0.337-3.12l-0.03-1.659l-5.274,0.14l-20.169-0.199l-19.573-0.895L197.569,136.649L197.569,136.649z"/>
<path id="TX_1_" fill="#4FB96C" stroke="#FFFFFF" d="
	M189.366,140.888l9.861,0.472l13.512,0.496l-1.015,10.194l-0.129,7.889l0.03,0.905l1.887,1.658l0.864,0.63l0.515-0.243l0.163-0.791
	l0.495,0.783l0.918,0.021l-0.001-0.628l0.726,0.419l0.495,0.178l-0.157,1.724l1.776,0.042l1.272,0.52l1.718,0.229l1.035,0.903
	l0.923-0.902l1.62,0.267l0.965,1.401l0.467,0.14l-0.07,0.854l0.962,0.344l1.012-0.892l0.928,0.268l0.968,0.015l0.405,1.059
	l2.75,0.918l0.692-0.333l0.647-1.816h0.147l0.395,0.037l0.534,0.898l1.707,0.29l1.451,0.486l1.487,0.521l0.801-0.423l0.311-1.094
	l1.935,0.021l0.786,0.403l1.217-0.916l0.479,0.021l0.37,0.696h1.762l0.66-0.881l0.812,0.176l0.845,1.046l1.532,0.888l1.241,0.352
	l0.658,0.349l1.062,0.867l1.324-0.577l1.17,0.495l0.244,2.653l-0.018,4.217l0.299,4.144l0.306,1.566l1.162,1.921l0.39,2.151
	l1.833,2.406l0.085,1.367l0.325,0.342l-0.319,3.642l-1.247,2.175l0.665,0.937l-0.272,1.017l-0.291,3.218l-0.653,1.45l0.128,1.522
	l-2.462,0.688l-4.287,1.968l-0.42,0.843l-1.124,0.843l-0.913,0.631l-0.563,0.352l-2.459,2.319l-1.194,0.913l-2.318,1.405
	l-2.457,1.054l-2.741,1.475l-0.771,0.633l-2.529,1.545l-1.476,0.282l-1.687,2.388l-1.756,0.141l-0.421,0.844l0.983,0.843
	l-0.633,2.389l-0.562,1.968l-0.491,1.687l-0.352,1.966l0.352,1.055l0.772,3.021l0.421,2.67l0.773,1.194l-0.422,0.632l-1.335,0.844
	l-2.459-1.687l-2.389-0.492l-0.562,0.211l-1.404-0.281l-1.827-1.335l-2.247-0.491l-3.302-1.475l-0.914-1.686l-0.562-2.812
	l-1.404-0.843l-0.281-0.983l0.281-0.282l0.14-1.475l-0.562-0.28l-0.281-0.422l0.562-1.896l-0.703-0.984l-1.404-0.562l-1.476-1.896
	l-1.546-2.88l-1.826-1.124l0.07-0.844l-2.318-5.339l-0.351-1.827l-0.773-0.843l-0.07-0.632l-2.6-2.319l-1.124-1.335v-0.492
	l-1.124-0.912l-2.951-0.491l-3.232-0.282l-1.335-0.983l-1.967,0.773l-1.545,0.632l-0.984,1.405l-0.421,1.616l-1.897,2.669
	l-1.054,1.054l-1.124-0.421l-0.773-0.492l-0.843-0.28l-1.686-0.984v-0.281l-0.773-0.843l-2.248-0.913l-3.231-3.372l-0.984-2.038
	v-3.513l-1.405-2.81l-0.21-1.194l-0.703-0.421l-0.492-0.914l-2.178-0.913l-0.562-0.702l-3.091-3.443l-0.562-1.404l-2.038-0.983
	l-0.632-1.897l-1.125-1.265l-0.843-0.21l-0.282-2.033l3.477,0.298l12.618,1.192l12.619,0.695l0.97-8.458l1.688-24.144l0.696-8.146
	l0.596,0.012 M232.923,240.682l-0.246-3.092l-1.195-3.126l-0.246-3.056l0.667-3.584l1.44-2.984l1.511-2.354l1.369-1.545l0.281,0.104
	l-2.072,2.881l-1.897,2.845l-0.877,2.881l-0.141,2.248l0.386,2.67l1.124,3.127l0.21,2.247l0.071,0.633L232.923,240.682
	L232.923,240.682z"/>
<path id="NM_1_" fill="#BAC459" stroke="#FFFFFF" d="
	M157.505,181.494l-0.336-2.063l3.756,0.229l13.112,1.28l11.85,0.734l0.963-8.13l1.676-24.283l0.755-8.426l0.683,0.057l0.359-4.852
	l-45.198-4.622l-7.604,52.338l6.719,0.865l0.562-4.357L157.505,181.494L157.505,181.494z"/>
<path id="KS_1_" fill="#55BA6B" stroke="#FFFFFF" d="
	M252.995,138.196l-5.483,0.088l-20.03-0.198l-19.364-0.895l-10.703-0.547l1.692-28.071l9.597,0.293l17.508,0.367l19.253,0.428h2.214
	l0.95,0.94l0.877-0.009l0.713,0.44l-0.027,1.308l-0.794,0.749l-0.146,0.971l0.802,1.479l1.281,1.388l1.013,0.702l0.566,4.884
	L252.995,138.196L252.995,138.196z"/>
<path id="NE_1_" fill="#93C060" stroke="#FFFFFF" d="
	M243.528,101.83l1.404,3.051l-0.056,1.001l1.503,2.387l1.182,1.371h-2.194l-18.897-0.409l-17.725-0.386l-9.67-0.341l0.466-9.269
	l-14.045-1.269l1.888-19.125l6.756,0.447l8.744,0.497l7.75,0.496l10.333,0.497l4.669-0.198l0.894,0.992l2.087,1.292l0.496,0.398
	l1.888-0.597l1.689-0.198l1.192-0.1l0.794,0.596l1.764,0.695l1.292,0.695l0.199,0.695l0.396,0.895h0.797l0.346,0.02l0.39,2.034
	l1.268,3.681l0.249,1.631l1.097,1.641l0.248,2.223l0.698,1.842L243.528,101.83L243.528,101.83z"/>
<path id="SD_1_" fill="#EAC951" stroke="#FFFFFF" d="
	M239.334,85.892l-0.021-0.252l-1.258-2.106l0.808-2.048l0.649-2.558l-1.21-0.904l-0.166-1.192l0.344-1.11l1.385,0.006l-0.053-2.175
	l-0.145-13.113l-0.269-1.638l-1.77-1.448l-0.427-0.728l-0.027-0.699l0.879-0.665l0.666-0.724l0.105-1.154l-25.317-0.696
	l-23.814-1.499l-2.315,27.679l6.341,0.393l8.67,0.524l7.71,0.404l10.333,0.567l5.207-0.185l0.855,0.976l2.257,1.414l0.333,0.314
	l1.973-0.631l2.843-0.268l0.728,0.581l1.827,0.693l1.28,0.71l0.174,0.646l0.45,0.974L239.334,85.892L239.334,85.892z"/>
<path id="ND_1_" fill="#CCC657" stroke="#FFFFFF" d="
	M238.839,53.251l-0.267-3.664l-0.73-2.962l-0.821-5.661l-0.198-4.774l-0.756-1.337l-0.765-2.257l0.014-4.54l0.271-1.662
	l-0.796-2.375l-12.447-0.246l-8.079-0.281l-11.522-0.562l-9.972-0.927l-3.04,29.194l23.873,1.453L238.839,53.251L238.839,53.251z"/>
<path id="WY_1_" fill="#D5C754" stroke="#FFFFFF" d="M188.892,59.491
	l-46.388-5.847l-6.121,38.442l49.223,5.904L188.892,59.491z"/>
<path id="MT_1_" fill="#EDC951" stroke="#FFFFFF" d="
	M192.731,21.984l-13.331-1.22l-12.716-1.545l-12.716-1.756l-14.051-2.318l-8.009-1.476l-14.221-3.013l-1.946,9.277l1.49,3.278
	l-0.597,1.987l0.795,1.987l1.391,0.596l2.009,4.68l1.171,1.381l0.198,0.497l1.491,0.496l0.198,0.895l-3.08,7.65v1.093l1.093,1.391
	h0.397l2.087-1.292l0.297-0.496l0.696,0.298l-0.1,2.285l1.192,5.465l1.292,1.092l0.397,0.298l0.795,0.993l-0.199,1.491l0.298,1.49
	l0.497,0.398l0.994-0.994h1.192l1.391,0.695l1.093-0.397h1.789l1.589,0.695l1.192-0.198l0.199-1.292l1.292-0.298l0.596,0.597
	l0.199,1.39l0.62,0.363l0.82-4.795l46.39,5.836L192.731,21.984z"/>
<path id="CO_1_" fill="#93C060" stroke="#FFFFFF" d="M197.434,136.712
	l2.132-37.516l-49.277-5.495l-5.308,38.216L197.434,136.712z"/>
<path id="ID_1_" fill="#E7C852" stroke="#FFFFFF" d="
	M96.806,73.923l3.812-15.306l0.596-1.838l1.093-2.583l-0.547-0.994l-1.093,0.05l-0.348-0.447l0.199-0.497l0.149-1.341l1.937-2.385
	l0.795-0.198l0.497-0.497l0.249-1.391l0.397-0.298l1.689-2.534l1.689-1.888l0.1-1.64l-1.49-1.142l-0.667-1.913l5.921-27.527
	l5.875,1.099l-1.916,9.293l1.547,3.252l-0.687,2.026l0.856,2.017l1.364,0.545l1.667,4.153l1.526,1.929l0.221,0.498l1.452,0.496
	l0.161,0.912l-3.03,7.551l-0.072,1.115l1.144,1.443l0.393-0.021l2.135-1.315l0.294-0.476l0.679,0.286l-0.121,2.327l1.19,5.468
	l1.703,1.381l0.73,0.941l-0.312,1.775l0.463,1.22l0.461,0.475l1.078-1.022l1.237,0.021l1.269,0.58l1.208-0.296l1.648-0.07
	l1.729,0.695l1.192-0.128l0.216-1.32l1.274-0.333l0.548,0.659l0.191,1.28l0.62,0.527l-3.645,23.297
	C138.074,81.834,99.845,74.577,96.806,73.923L96.806,73.923z"/>
<path id="UT_1_" fill="#9BC15F" stroke="#FFFFFF" d="
	M145.053,131.992l-36.395-5.16l8.947-48.907l20.33,3.8l-0.646,4.62l-1.004,5.725l3.394,0.403l7.129,0.784l3.569,0.372
	L145.053,131.992z"/>
<path id="AZ_1_" fill="#51B96B" stroke="#FFFFFF" d="
	M95.256,163.509l-1.142,0.938l-0.141,0.632l0.21,0.423l8.22,4.637l5.269,3.301l6.393,3.725l7.307,4.355l5.339,1.054l10.843,1.176
	l7.499-51.771l-36.39-5.179l-1.344,7.133l-0.698,0.006l-0.745,1.144l-1.093-0.051l-0.546-1.191l-1.192-0.149l-0.397-0.497h-0.397
	l-0.397,0.248l-0.845,0.447l-0.049,3.031l-0.1,0.745l-0.248,5.464l-0.646,0.943l-0.249,1.44l1.193,2.137l0.546,2.533l0.348,0.447
	l0.447,0.249l-0.049,0.993l-0.696,0.597l-1.49,0.744l-0.844,0.845l-0.646,1.59l-0.248,2.137l-1.242,1.191l-0.895,0.298l0.059,0.362
	l-0.199,0.744l0.199,0.348l1.59,0.249l-0.249,1.191l-0.646,0.943L95.256,163.509L95.256,163.509z"/>
<path id="NV_1_" fill="#49B96D" stroke="#FFFFFF" d="
	M117.629,77.874l-10.273,55.984l-0.796,0.152l-0.684,1.046l-1.031,0.004l-0.64-1.191l-1.138-0.165l-0.335-0.481l-0.451-0.023
	l-1.208,0.715l-0.135,2.949l-0.158,2.51l-0.151,3.735l-0.629,0.906l-1.06-0.467L68.92,98.264l8.252-29.372L117.629,77.874
	L117.629,77.874z"/>
<path id="OR_1_" fill="#A9C35D" stroke="#FFFFFF" d="
	M96.912,73.509l3.846-15.124l0.457-1.837l1.022-2.444l-0.267-0.505l-1.093-0.02l-0.557-0.726l0.199-0.637l0.219-1.411l1.937-2.385
	l0.795-0.478l0.497-0.496l0.646-1.55l1.759-2.464l1.549-1.678l0.099-1.5l-1.42-1.073l-0.775-2.019l-5.503-1.569l-6.558-1.54
	l-6.707,0.049l-0.199-0.596l-2.384,0.894l-1.938-0.248l-1.043-0.696l-0.546,0.298l-2.037-0.1l-0.745-0.596l-2.285-0.894l-0.347,0.05
	l-1.889-0.646L72.8,32.364l-2.683-0.148l-2.583-1.789l0.298-0.348l0.1-3.378l-0.994-1.689l-1.788-0.249l-0.298-1.092l-1.023-0.203
	l-2.52,0.895l-0.983,2.81l-1.405,4.355l-1.405,2.811l-2.178,6.112l-2.81,5.901l-3.513,5.479l-0.843,1.265L47.82,56.82l0.168,5.25
	L96.912,73.509L96.912,73.509z"/>
<path id="WA_1_" fill="#81BE63" stroke="#FFFFFF" d="
	M76.639,0.534l1.897,0.633l4.215,1.194l3.723,0.843l8.712,2.458l9.977,2.458l6.615,1.394l-5.924,27.633l-5.408-1.531l-6.74-1.552
	l-6.618,0.015l-0.198-0.584l-2.433,0.947l-1.997-0.32l-0.933-0.689l-0.571,0.287l-2.058-0.061l-0.738-0.586l-2.287-0.918
	l-0.319,0.064l-1.908-0.663l-0.823,0.79L70.1,32.216l-2.575-1.793l0.338-0.405l0.053-3.336l-0.992-1.669l-1.789-0.264l-0.293-1.091
	l-0.989-0.199l-1.545,0.535l-0.983-1.399l0.141-1.264l1.194-0.141l0.703-1.757l-1.125-0.492l0.07-1.616l1.897-0.281L63.01,15.85
	l-0.633-3.09l0.281-1.265V8.052l-0.772-1.405l0.983-4.075l0.913,0.21l1.054,1.265l1.195,1.125l1.405,0.843l1.967,0.913l1.334,0.281
	l1.265,0.632l1.476,0.422l0.984-0.071V7.138l0.562-0.491l0.913-0.563l0.141,0.492l0.141,0.773l-0.983,0.21l-0.141,0.914l0.773,0.632
	l0.492,1.053l0.28,0.843l0.632-0.069l0.071-0.562L76.92,9.808l-0.21-1.405l0.352-0.772L76.78,6.998V6.015l0.772-1.546l-0.492-1.124
	l-1.054-2.108l0.141-0.351L76.639,0.534L76.639,0.534z M72.53,3.133l0.878-0.07l0.211,0.597l0.667-0.702h1.019l0.351,0.667
	l-0.667,0.738l0.281,0.351l-0.316,0.878l-0.597,0.176c0,0-0.386,0.035-0.386-0.105s0.632-1.124,0.632-1.124l-0.738-0.247
	l-0.141,0.632l-0.316,0.281L72.74,4.222L72.53,3.133z"/>
<path id="CA_1_" fill="#85BF63" stroke="#FFFFFF" d="
	M95.162,163.322l1.712-0.213l0.646-0.874l0.237-1.277l-1.543-0.257l-0.223-0.291l0.208-0.883l-0.07-0.256l0.836-0.27l1.322-1.231
	l0.253-2.17l0.6-1.479l0.844-0.941l1.529-0.691l0.719-0.697l0.03-0.916l-0.432-0.253l-0.444-0.466l-0.502-2.542l-1.167-2.099
	l0.246-1.522l-1.052-0.448L68.897,98.272l8.214-29.378L47.96,62.072l-0.655,2.058l-0.071,3.231l-2.248,5.128l-1.335,1.124
	l-0.14,0.492l-0.773,0.351l-0.632,1.826l-0.352,1.405l1.195,1.827l0.702,1.826l0.492,1.546l-0.14,2.809l-0.773,1.335l-0.281,2.53
	l-0.422,1.616l0.772,1.686l1.195,1.968l0.983,2.107l0.562,1.757L45.9,100.1l-0.14,0.211v0.913l2.458,2.74l-0.21,1.054l-0.281,0.984
	l-0.281,0.843l0.071,3.583l0.913,1.616l0.843,1.125l1.195,0.21l0.421,1.194l-0.492,1.546l-0.914,0.702h-0.492l-0.351,1.687
	l0.211,1.264l1.405,1.898l0.703,2.318l0.632,2.037l0.562,1.334l1.475,2.529l0.633,1.124l0.21,1.265l0.702,0.422v1.054l-0.351,0.844
	l-0.772,3.091l-0.211,0.842l1.054,1.195l1.827,0.211l1.968,0.772l1.686,0.913h1.265l1.264,1.336l1.125,2.106l0.491,0.983
	l1.687,0.914l2.107,0.352l0.632,0.912l0.281,1.406l-0.633,0.28l0.141,0.422l1.405,0.352l1.194,0.07l1.374-0.733l1.686,1.827
	l0.351,0.983l1.124,1.826l0.141,1.406v4.074l0.211,0.771l4.355,0.633l8.571,1.194L95.162,163.322L95.162,163.322z M56.86,144.324
	l0.562,0.667l-0.069,0.562l-1.405-0.035l-0.246-0.526l-0.281-0.633L56.86,144.324L56.86,144.324z M57.703,144.324l0.526-0.282
	l1.546,0.914l1.335,0.527l-0.386,0.28l-1.968-0.104l-0.702-0.703L57.703,144.324z M66.695,152.93l0.773,1.02l0.352,0.421
	l0.667,0.246l0.246-0.633l-0.421-0.772l-1.159-0.878l-0.457,0.069V152.93z M66.063,156.688l0.772,1.37l0.527,0.843l-0.633,0.105
	l-0.562-0.526c0,0-0.316-0.633-0.316-0.808c0-0.176,0-0.949,0-0.949L66.063,156.688L66.063,156.688z"/>
<text transform="matrix(1 0 0 1 371.7402 116.7954)" fill="#FFFFFF" class="heavy" font-size="6.7329">VA</text>
<text transform="matrix(1 0 0 1 367.0186 122.8545)" fill="#FFFFFF" font-size="6.7329">52.0%</text>
<text transform="matrix(1 0 0 1 368.9795 137.541)" fill="#FFFFFF" class="heavy" font-size="6.7329">NC</text>
<text transform="matrix(1 0 0 1 363.9141 143.7988)" fill="#FFFFFF" font-size="6.7329">53.9% </text>
<text transform="matrix(1 0 0 1 353.041 155.5635)" fill="#FFFFFF" class="heavy" font-size="6.7329">SC</text>
<text transform="matrix(1 0 0 1 355.2891 161.8223)" fill="#FFFFFF" font-size="6.7329">    54.0%</text>
<text transform="matrix(1 0 0 1 351.9062 166.0791)" fill="#FFFFFF" font-size="6.7329">        </text>
<text transform="matrix(1 0 0 1 337.8926 168.7656)" fill="#FFFFFF" class="heavy" font-size="6.7329">GA</text>
<text transform="matrix(1 0 0 1 333.499 174.8262)" fill="#FFFFFF" font-size="6.7329">53.5%</text>
<text transform="matrix(1 0 0 1 362.5596 215.6289)" fill="#FFFFFF" class="heavy" font-size="6.7329">FL</text>
<text transform="matrix(1 0 0 1 358.0244 221.6885)" fill="#FFFFFF" font-size="6.7329">   55.4%</text>
<text transform="matrix(1 0 0 1 362.9424 227.748)" fill="#FFFFFF" font-size="6.7329">      </text>
<text transform="matrix(1 0 0 1 313.4062 170.0742)" fill="#FFFFFF" class="heavy" font-size="6.7329">AL</text>
<text transform="matrix(1 0 0 1 308.3203 176.1338)" fill="#FFFFFF" font-size="6.7329">55.3%</text>
<text transform="matrix(1 0 0 1 289.71 171.709)" fill="#FFFFFF" class="heavy" font-size="6.7329">MS</text>
<text transform="matrix(1 0 0 1 285.4307 177.7686)" fill="#FFFFFF" font-size="6.7329">55.4%</text>
<text transform="matrix(1 0 0 1 302.6836 146.332)" fill="#FFFFFF" class="heavy" font-size="6.7329">TN</text>
<text transform="matrix(1 0 0 1 316.7793 146.332)" fill="#FFFFFF" font-size="6.7329"> 51.1% </text>
<text transform="matrix(1 0 0 1 321.8135 126.4229)" fill="#FFFFFF" class="heavy" font-size="6.7329">KY</text>
<text transform="matrix(1 0 0 1 316.5 132.6797)" fill="#FFFFFF" font-size="6.7329">54.3% </text>
<text transform="matrix(1 0 0 1 332.2529 99.1265)" fill="#FFFFFF" class="heavy" font-size="6.7329">OH</text>
<text transform="matrix(1 0 0 1 328.2725 105.187)" fill="#FFFFFF" font-size="6.7329">53.3%</text>
<text transform="matrix(1 0 0 1 309.3564 103.5337)" fill="#FFFFFF" class="heavy" font-size="6.7329">IN</text>
<text transform="matrix(1 0 0 1 303.7422 109.7915)" fill="#FFFFFF" font-size="6.7329">57.6%</text>
<text transform="matrix(1 0 0 1 288.5801 103.0405)" fill="#FFFFFF" class="heavy" font-size="6.7329">IL</text>
<text transform="matrix(1 0 0 1 282.1602 109.1001)" fill="#FFFFFF" font-size="6.7329">53.6%</text>
<text transform="matrix(1 0 0 1 261.3574 121.3521)" fill="#FFFFFF" class="heavy" font-size="6.7329">MO</text>
<text transform="matrix(1 0 0 1 257.9619 127.4111)" fill="#FFFFFF" font-size="6.7329">53.4%</text>
<text transform="matrix(1 0 0 1 265.5273 156.0137)" fill="#FFFFFF" class="heavy" font-size="6.7329">AR</text>
<text transform="matrix(1 0 0 1 260.9062 162.0723)" fill="#FFFFFF" font-size="6.7329">54.3%</text>
<text transform="matrix(1 0 0 1 264.8906 193.7842)" fill="#FFFFFF" class="heavy" font-size="6.7329"> LA</text>
<text transform="matrix(1 0 0 1 264.8906 200.042)" fill="#FFFFFF" font-size="6.7329">58.3% </text>
<text transform="matrix(1 0 0 1 254.9033 86.6899)" fill="#FFFFFF" class="heavy" font-size="6.7329">IA</text>
<text transform="matrix(1 0 0 1 249.1338 92.7495)" fill="#FFFFFF" font-size="6.7329">53.0%</text>
<text transform="matrix(1 0 0 1 245.8086 52.6821)" fill="#FFFFFF" class="heavy" font-size="6.7329">MN</text>
<text transform="matrix(1 0 0 1 242.2676 58.7417)" fill="#FFFFFF" font-size="6.7329">55.4%</text>
<text transform="matrix(1 0 0 1 281.4092 66.7642)" fill="#FFFFFF" class="heavy" font-size="6.7329">WI</text>
<text transform="matrix(1 0 0 1 276.7734 72.8247)" fill="#FFFFFF" font-size="6.7329">55.6%</text>
<text transform="matrix(1 0 0 1 315.8906 74.4409)" fill="#FFFFFF" class="heavy" font-size="6.7329">MI</text>
<text transform="matrix(1 0 0 1 310.8613 80.5005)" fill="#FFFFFF" font-size="6.7329">56.2%</text>
<text transform="matrix(1 0 0 1 369.5479 87.3657)" fill="#FFFFFF" class="heavy" font-size="6.7329">PA</text>
<text transform="matrix(1 0 0 1 364.5635 93.4253)" fill="#FFFFFF" font-size="6.7329">54.7%</text>
<text transform="matrix(1 0 0 1 383.4209 63.4253)" fill="#FFFFFF" class="heavy" font-size="6.7329">NY</text>
<text transform="matrix(1 0 0 1 378.9521 69.4849)" fill="#FFFFFF" font-size="6.7329">57.7%</text>
<text transform="matrix(1 0 0 1 415.3281 31.7876)" fill="#FFFFFF" class="heavy" font-size="6.7329">ME</text>
<text transform="matrix(1 0 0 1 411.1689 37.8472)" fill="#FFFFFF" font-size="6.7329">61.7%</text>
<text transform="matrix(1 0 0 1 213.1865 185.7695)" fill="#FFFFFF" class="heavy" font-size="6.7329">TX</text>
<text transform="matrix(1 0 0 1 208.2598 191.8301)" fill="#FFFFFF" font-size="6.7329">52.7%</text>
<text transform="matrix(1 0 0 1 226.4961 150.1279)" fill="#FFFFFF" class="heavy" font-size="6.7329">OK</text>
<text transform="matrix(1 0 0 1 222.3203 156.1875)" fill="#FFFFFF" font-size="6.7329">56.9%</text>
<text transform="matrix(1 0 0 1 219.2061 122.0054)" fill="#FFFFFF" class="heavy" font-size="6.7329">KS</text>
<text transform="matrix(1 0 0 1 214.1445 128.0645)" fill="#FFFFFF" font-size="6.7329">53.1%</text>
<text transform="matrix(1 0 0 1 211.6953 93.23)" fill="#FFFFFF" class="heavy" font-size="6.7329">NE</text>
<text transform="matrix(1 0 0 1 206.9521 99.2896)" fill="#FFFFFF" font-size="6.7329">56.2%</text>
<text transform="matrix(1 0 0 1 210.2109 64.1274)" fill="#FFFFFF" class="heavy" font-size="6.7329">SD</text>
<text transform="matrix(1 0 0 1 205.3164 70.187)" fill="#FFFFFF" font-size="6.7329">64.1%</text>
<text transform="matrix(1 0 0 1 209.1445 36.3325)" fill="#FFFFFF" class="heavy" font-size="6.7329">ND</text>
<text transform="matrix(1 0 0 1 204.9893 42.3921)" fill="#FFFFFF" font-size="6.7329">59.4%</text>
<text transform="matrix(1 0 0 1 152.502 33.7163)" fill="#FFFFFF" class="heavy" font-size="6.7329">MT</text>
<text transform="matrix(1 0 0 1 148.418 39.7759)" fill="#FFFFFF" font-size="6.7329">67.0%</text>
<text transform="matrix(1 0 0 1 156.4873 73.2837)" fill="#FFFFFF" class="heavy" font-size="6.7329">WY</text>
<text transform="matrix(1 0 0 1 152.9961 79.3423)" fill="#FFFFFF" font-size="6.7329">60.1%</text>
<text transform="matrix(1 0 0 1 168.3828 113.1763)" fill="#FFFFFF" class="heavy" font-size="6.7329">CO</text>
<text transform="matrix(1 0 0 1 164.1143 119.2368)" fill="#FFFFFF" font-size="6.7329">56.2%</text>
<text transform="matrix(1 0 0 1 158.8271 154.3779)" fill="#FFFFFF" class="heavy" font-size="6.7329">NM</text>
<text transform="matrix(1 0 0 1 155.2852 160.4375)" fill="#FFFFFF" font-size="6.7329">58.2%</text>
<text transform="matrix(1 0 0 1 116.8711 151.1094)" fill="#FFFFFF" class="heavy" font-size="6.7329">AZ</text>
<text transform="matrix(1 0 0 1 112.1221 157.167)" fill="#FFFFFF" font-size="6.7329">52.8%</text>
<text transform="matrix(1 0 0 1 126.6953 106.6372)" fill="#FFFFFF" class="heavy" font-size="6.7329">UT</text>
<text transform="matrix(1 0 0 1 121.9326 112.6968)" fill="#FFFFFF" font-size="6.7329">56.6%</text>
<text transform="matrix(1 0 0 1 88.9365 96.8267)" fill="#FFFFFF" class="heavy" font-size="6.7329">NV</text>
<text transform="matrix(1 0 0 1 84.6543 102.8872)" fill="#FFFFFF" font-size="6.7329">52.4%</text>
<text transform="matrix(1 0 0 1 112.5332 56.606)" fill="#FFFFFF" class="heavy" font-size="6.7329">ID</text>
<text transform="matrix(1 0 0 1 106.8896 62.6665)" fill="#FFFFFF" font-size="6.7329">62.9%</text>
<text transform="matrix(1 0 0 1 74.5869 50.0669)" fill="#FFFFFF" class="heavy" font-size="6.7329">OR</text>
<text transform="matrix(1 0 0 1 70.2656 56.1255)" fill="#FFFFFF" font-size="6.7329">57.2%</text>
<text transform="matrix(1 0 0 1 81.6172 16.7124)" fill="#FFFFFF" class="heavy" font-size="6.7329">WA</text>
<text transform="matrix(1 0 0 1 78.1143 22.772)" fill="#FFFFFF" font-size="6.7329">55.3%</text>
<text transform="matrix(1 0 0 1 58.1592 110.2339)" fill="#FFFFFF" class="heavy" font-size="6.7329">CA</text>
<text transform="matrix(1 0 0 1 53.5898 116.2935)" fill="#FFFFFF" font-size="6.7329">55.5%</text>
<text transform="matrix(1 0 0 1 47.1904 195.6104)" fill="#FFFFFF" class="heavy" font-size="7.2244">AK</text>
<text transform="matrix(1 0 0 1 42.3857 202.1133)" fill="#FFFFFF" font-size="7.2244">58.2%</text>
<text transform="matrix(1 0 0 1 126.6494 227.0742)" fill="#4E4E4E" class="heavy" font-size="7.2244">HI</text>
<text transform="matrix(1 0 0 1 120.624 233.7881)" fill="#4E4E4E" font-size="7.2244">47.4%</text>
<text transform="matrix(1 0 0 1 349.2012 112.646)" fill="#FFFFFF" class="heavy" font-size="6.7329">    WV</text>
<text transform="matrix(1 0 0 1 345.2012 118.3687)" fill="#FFFFFF" font-size="6.7329">50.9</text>
<text transform="matrix(1 0 0 1 358.3447 118.3687)" fill="#FFFFFF" font-size="5.8352">%</text>
<rect id="marect_1_" x="479.731" y="12.84" fill="#42B86E" stroke="#FFFFFF" width="7.819" height="7.82">
</rect>
<text transform="matrix(1 0 0 1 467.9609 27.5229)" fill="#4E4E4E" font-size="6.7329">51.7% </text>
<text transform="matrix(1 0 0 1 466.9111 19.1851)" fill="#4E4E4E" class="heavy" font-size="6.7329">MA</text>
<rect id="rirect_1_" x="479.731" y="30.794" fill="#D0C657" stroke="#FFFFFF" width="7.819" height="7.82">
</rect>
<text transform="matrix(1 0 0 1 467.9609 45.4766)" fill="#4E4E4E" font-size="6.7329">59.8% </text>
<text transform="matrix(1 0 0 1 472.0176 37.1382)" fill="#4E4E4E" class="heavy" font-size="6.7329">RI</text>
<rect id="ctrect_1_" x="479.731" y="48.748" fill="#55BA6B" stroke="#FFFFFF" width="7.819" height="7.82">
</rect>
<text transform="matrix(1 0 0 1 467.9609 63.4307)" fill="#4E4E4E" font-size="6.7329">53.0% </text>
<text transform="matrix(1 0 0 1 469.5039 55.0928)" fill="#4E4E4E" class="heavy" font-size="6.7329">CT</text>
<rect id="njrect_1_" x="479.731" y="66.702" fill="#7ABE64" stroke="#FFFFFF" width="7.819" height="7.82">
</rect>
<text transform="matrix(1 0 0 1 467.9609 81.3857)" fill="#4E4E4E" font-size="6.7329">55.0% </text>
<text transform="matrix(1 0 0 1 470.3984 73.0205)" fill="#4E4E4E" class="heavy" font-size="6.7329">NJ</text>
<rect id="derect_1_" x="479.731" y="84.657" fill="#2BB673" stroke="#FFFFFF" width="7.819" height="7.82">
</rect>
<text transform="matrix(1 0 0 1 467.9609 99.3398)" fill="#4E4E4E" font-size="6.7329">48.5% </text>
<text transform="matrix(1 0 0 1 469.3389 91.0029)" fill="#4E4E4E" class="heavy" font-size="6.7329">DE</text>
<rect id="mdrect_1_" x="479.731" y="102.611" fill="#91C060" stroke="#FFFFFF" width="7.819" height="7.819">
</rect>
<text transform="matrix(1 0 0 1 467.9609 117.2949)" fill="#4E4E4E" font-size="6.7329">56.1% </text>
<text transform="matrix(1 0 0 1 466.8633 108.9561)" fill="#4E4E4E" class="heavy" font-size="6.7329">MD</text>
<rect id="dcrect_1_" x="479.731" y="120.566" fill="#51B96B" stroke="#FFFFFF" width="7.819" height="7.819">
</rect>
<text transform="matrix(1 0 0 1 469.6162 135.249)" fill="#4E4E4E" font-size="6.7329">52.8%</text>
<text transform="matrix(1 0 0 1 468.5498 126.9111)" fill="#4E4E4E" class="heavy" font-size="6.7329">DC</text>
<rect id="vtrect_1_" x="351.992" y="11.64" fill="#EAC951" stroke="#FFFFFF" width="7.82" height="7.819">
</rect>
<text transform="matrix(1 0 0 1 340.248 25.3521)" fill="#4E4E4E" font-size="6.7329">64.1% </text>
<text transform="matrix(1 0 0 1 341.8438 18.6929)" fill="#4E4E4E" class="heavy" font-size="6.7329">VT</text>
<rect id="nhrect_1_" x="392.389" y="11.64" fill="#81BE63" stroke="#FFFFFF" width="7.82" height="7.819">
</rect>
<text transform="matrix(1 0 0 1 380.6455 25.3521)" fill="#4E4E4E" font-size="6.7329">55.3% </text>
<text transform="matrix(1 0 0 1 381.0127 18.6929)" fill="#4E4E4E" class="heavy" font-size="6.7329">NH</text>
<text transform="matrix(1 0 0 1 381.2109 171.7637)" fill="#666766" class="heavy" font-size="8">Share of Private Sector Employment: </text>
<text transform="matrix(1 0 0 1 385.6309 179.7666)" fill="#666766" class="heavy" font-size="8">Pass-through Businesses in 2012</text>
<g id="g5211" transform="translate(0.31559753,0)">
	
		<rect id="dcrect-1" x="387.847" y="183.063" fill="#24B574" stroke="#FFFFFF" stroke-width="1.4433" width="7.948" height="12.836">
	</rect>
	
		<rect id="dcrect-1-7" x="398.02" y="183.063" fill="#42B86E" stroke="#FFFFFF" stroke-width="1.4433" width="7.948" height="12.836">
	</rect>
	
		<rect id="dcrect-1-4" x="408.193" y="183.063" fill="#51B96B" stroke="#FFFFFF" stroke-width="1.4433" width="7.948" height="12.836">
	</rect>
	
		<rect id="dcrect-1-0" x="418.365" y="183.063" fill="#5BBA6A" stroke="#FFFFFF" stroke-width="1.4433" width="7.949" height="12.836">
	</rect>
	
		<rect id="dcrect-1-7-9" x="428.539" y="183.063" fill="#6BBD68" stroke="#FFFFFF" stroke-width="1.4433" width="7.947" height="12.836">
	</rect>
	
		<rect id="dcrect-1-4-4" x="438.711" y="183.063" fill="#81BE63" stroke="#FFFFFF" stroke-width="1.4433" width="7.948" height="12.836">
	</rect>
	
		<rect id="dcrect-1-8" x="448.883" y="183.063" fill="#85BF63" stroke="#FFFFFF" stroke-width="1.4433" width="7.95" height="12.836">
	</rect>
	
		<rect id="dcrect-1-7-8" x="459.056" y="183.063" fill="#93C060" stroke="#FFFFFF" stroke-width="1.4433" width="7.948" height="12.836">
	</rect>
	
		<rect id="dcrect-1-4-2" x="469.228" y="183.063" fill="#B1C35B" stroke="#FFFFFF" stroke-width="1.4433" width="7.949" height="12.836">
	</rect>
	
		<rect id="dcrect-1-45" x="479.4" y="183.063" fill="#D5C754" stroke="#FFFFFF" stroke-width="1.4433" width="7.95" height="12.836">
	</rect>
	
		<rect id="dcrect-1-7-5" x="489.575" y="183.063" fill="#EDC951" stroke="#FFFFFF" stroke-width="1.4433" width="7.947" height="12.836">
	</rect>
</g>
<g id="g4238" transform="translate(17.201141,-21.561826)">
	<text transform="matrix(1 0 0 1 366.2198 226.0521)" fill="#666766" class="heavy" font-size="8">Smaller </text>
	<text transform="matrix(1 0 0 1 368.4209 234.054)" fill="#666766" class="heavy" font-size="8">Share</text>
	<text transform="matrix(1 0 0 1 468.9834 225.5579)" fill="#666766" class="heavy" font-size="8">Larger </text>
	<text transform="matrix(1 0 0 1 469.9532 233.5589)" fill="#666766" class="heavy" font-size="8">Share</text>
</g>
</svg>
