<svg xmlns="http://www.w3.org/2000/svg" width="323.969" height="323.831" viewBox="0 0 323.969 323.831"><style>text, tspan { font-family: &apos;Lato&apos;; } .heavy { font-weight: 700; }</style><path fill-rule="evenodd" clip-rule="evenodd" fill="#F8B668" stroke="#fff" stroke-width="2" stroke-miterlimit="10" d="M3.05 173.31C-3.2 85.31 63.073 8.905 151.075 2.656c3.337-.237 6.682-.37 10.028-.397l1.288 159.74L3.05 173.31z"/><path fill-rule="evenodd" clip-rule="evenodd" fill="#183C4F" stroke="#fff" stroke-width="2" stroke-miterlimit="10" d="M318.127 199.932c-12.193 49.658-47.423 90.48-94.765 109.803l-60.37-147.894 155.135 38.092z"/><path fill-rule="evenodd" clip-rule="evenodd" fill="#4584A6" stroke="#fff" stroke-width="2" stroke-miterlimit="10" d="M223.362 309.735c-60.666 24.765-130.3 9.97-175.656-37.318L162.99 161.842l60.372 147.893z"/><path fill-rule="evenodd" clip-rule="evenodd" fill="#90D5F3" stroke="#fff" stroke-width="2" stroke-miterlimit="10" d="M47.707 272.417C21.975 245.59 6.407 210.63 3.68 173.555l159.312-11.713L47.707 272.417z"/><path fill-rule="evenodd" clip-rule="evenodd" fill="#03324D" stroke="#fff" stroke-width="2" stroke-miterlimit="10" d="M161.892 1.8c88.222-.583 160.21 70.464 160.795 158.685.088 13.4-1.512 26.758-4.756 39.76L162.947 161.54 161.892 1.8z"/><text transform="translate(209.09 95.275)"><tspan x="0" y="0" fill="#fff" class="heavy" font-size="11.636">$1 million</tspan><tspan x="4.279" y="13.963" fill="#fff" class="heavy" font-size="11.636">and over</tspan><tspan x="8.865" y="36.305" fill="#fff" font-size="18.618">29%</tspan></text><text transform="translate(67.949 87.784)"><tspan x="0" y="0" fill="#fff" class="heavy" font-size="11.636">Under</tspan><tspan x=".108" y="13.963" fill="#fff" class="heavy" font-size="11.636">$100K</tspan><tspan x="-.461" y="36.305" fill="#fff" font-size="18.618">26%</tspan></text><text transform="translate(211.067 212.737)"><tspan x="0" y="0" fill="#fff" class="heavy" font-size="11.636">$500k to</tspan><tspan x="-.564" y="13.965" fill="#fff" class="heavy" font-size="11.636">$1 million</tspan><tspan x="6.887" y="36.305" fill="#fff" font-size="18.618">15%</tspan></text><text transform="translate(123.675 253.645)"><tspan x="0" y="0" fill="#fff" class="heavy" font-size="11.636">$200k to</tspan><tspan x="6.92" y="13.963" fill="#fff" class="heavy" font-size="11.636">$500k</tspan><tspan x="5.474" y="36.305" fill="#fff" font-size="18.618">19%</tspan></text><text transform="translate(31.483 194.51)"><tspan x="0" y="0" fill="#fff" class="heavy" font-size="11.636">$100k to</tspan><tspan x="6.92" y="13.965" fill="#fff" class="heavy" font-size="11.636">$200k</tspan><tspan x="5.474" y="36.305" fill="#fff" font-size="18.618">11%</tspan></text></svg>