<svg xmlns="http://www.w3.org/2000/svg" width="518.75" height="251.625" viewBox="0 0 518.75 251.625"><style>text, tspan { font-family: &apos;Lato&apos;; } .heavy { font-weight: 700; }</style><path id="HI" fill="#CF3E41" stroke="#fff" d="M100.038 209.223l.885-1.623 1.033-.147.148.368-.96 1.403h-1.106zm4.647-1.698l2.803 1.18.96-.146.737-1.772-.295-1.55-1.918-.22-1.844.812-.443 1.695zM118.7 212.1l1.698 2.508 1.107-.147.516-.22.666.59 1.696-.074.442-.664-1.328-.81-.885-1.698-.958-1.623-2.656 1.33-.295.81zm9.22 4.056l.59-.885 2.14.444.296-.223 2.802.296-.147.59-1.18.664-1.99-.146-2.51-.738zm2.436 2.36l.885 1.77 1.403-.514.147-.738-.738-.958-1.696-.147v.587zm3.172-.516l1.032-1.326 2.14 1.105 1.99.516 1.992 1.254v.885l-1.623.812-2.214.442-1.106-.664-2.212-3.026zm7.597 7.082l.738-.59 1.548.737 3.468 1.622 1.55.96.737 1.105.885 1.99 1.844 1.182-.147.59-1.77 1.474-1.92.664-.664-.294-1.4.812-1.106 1.475-1.033 1.33-.812-.074-1.623-1.18-.148-2.067.295-1.106-.737-2.583-.96-.81-.073-1.18 1.033-.443.96-1.4.22-.443-.738-.812-.147-.96z"/><path id="AK" fill="#ECC34F" stroke="#fff" d="M65.81 179.273l-.146 38.948.737.443 1.403.075.664-.518h1.18l.074 1.328 3.173 3.098.22 1.18 1.55-.884.295-.074.147-1.4.665-.74.516-.072.885-.664 1.403.96.295 1.326.885.517.516 1.106 1.77.813 1.55 2.73 1.252 1.77 1.033 1.254.665 1.696 2.286.812 2.36.96.443 1.99.22 1.402-.442 1.55-.812 1.032-.737-.37-.665-1.4-1.254-.664-.81-.518-.37.37.665 1.253.073 1.698-.516.22-.886-.885-.958-.59.22.737.59.812-.368.37s-.37-.148-.59-.443c-.22-.296-.958-1.55-.958-1.55l-.442-1.033s-.148.59-.443.443c-.295-.148-.59-.664-.59-.664l.81-.886-.663-.663v-2.287h-.37l-.368 1.55-.516.22-.442-1.696-.295-1.696-.37-.22.15 2.58v.517l-.666-.59-1.623-2.73-.96-.22-.294-1.697-.738-1.33-.737-.515V227l.96-.59-.223-.147-1.18.295-1.55-1.106-1.18-1.33-2.212-1.178-1.844-1.18.59-1.478v-.736l-.812.736-1.328.518-1.696-.518-2.582-1.105H59.91l-.295.223-2.95-1.77-.96-.148-1.254-2.656-1.622.146-1.623.664.22 2.066.518-1.328.442.147-.664 1.99 1.477-1.253.295.738-1.77 1.992-.59-.147-.222-.885-.59-.37-.59.518-1.253-.812-1.402.958-.812.96-1.55.96-2.138-.074-.222-.96 1.697-.295v-.59l-1.033-.295.442-1.107 1.032-1.77v-.812l.074-.367 1.992-1.033.442.59h1.254l-.59-1.18-1.697-.148-2.287 1.254-1.106 1.55-.812 1.18-.517 1.033-1.917.662-1.402 1.18-.147.738 1.03.443.37.96-1.254 1.474-2.95 1.917-3.542 1.92-.958.515-2.435.517-2.433 1.032.81.59-.663.662-.22.518-1.255-.442-1.476.073-.37 1.033h-.442l.148-1.105-1.623.59-1.327.442-1.55-.59-1.328.885h-1.475l-.96.59-.736.37-.958-.148-1.18-.516-1.033.295-.443.442-.738-.516v-.885l1.4-.59 2.877.296 1.992-.738.958-.957 1.328-.296.812-.37 1.253.074.74.59.442-.147 1.033-1.254 1.4-.443 1.55-.294.59-.148.295.222h.37l.59-1.696 1.844-.664.885-1.696 1.032-2.065.738-.665.147-1.18-.737.59-1.55.295-.294-1.106-.59-.147-.443.442-.074 1.327-.665-.073-.664-2.657-.59.59-.515-.22-.148-.886-1.843.07-.96.517-1.18-.147.665-.663.22-1.18-.294-.887.664-.442.59-.074-.295-.81v-1.993l-.442-.44-.37.662h-2.802l-.663-.59-.295-1.77-.96-1.623v-.444l.96-.368.074-.96.516-.516-.37-.222-.59.222-.515-1.254.442-2.286 2.064-1.477 1.18-.736.886-1.698 1.254-.59 1.18.516.148 1.106 1.106-.146 1.476-1.107.737.297.443.295h.738l1.034-.59.37-1.992s.147-1.327.442-1.55.442-.44.442-.44l-.516-.887-1.18.37-1.476.368-.886-.22-1.623-.813-2.287-.073-1.623-1.697.22-1.77.296-1.106-.958-.81-.885-1.697.22-.37 3.1-.22h.957l.443.44h.295l-.074-.735 1.772-.296 1.18.148.664.517-.664.958-.22.664 1.253.737 2.287.81.812-.44-1.032-1.992-.442-1.476.442-.37-1.55-.885-.22-.518.22-.735-.368-1.77-1.328-2.14-1.106-1.918 1.328-.886h1.475l.812.296 1.918-.075 1.696-1.624.516-1.4 1.696-1.107.738.442 1.253-.295 1.697-.96.516-.072.443.367 2.064-.072 1.253-1.402h.517l1.623 1.107.885.958-.222.517.295.516.737-.736 1.77.146.148 1.696.885.664 3.246.296 2.878 1.917.664-.443 2.36 1.182.96-.297.884-.37 2.213.887 1.99 1.323zm-52.52 13.205l.96 2.435-.075.442-1.328-.148-.812-1.843-.812-.664h-1.106l-.074-1.18.812-1.106.516 1.105.665.662 1.255.296zm-1.18 15.27l1.696.367 1.697.443.37.443-.738 1.696-1.402-.072-1.55-1.623-.073-1.253zm-9.442-6.418l.516 1.18.517.738-.516.368-.958-1.4v-.886h.442zm-6.27 33.342l1.55-1.032 1.548-.444 1.18.148.22.738.886.22.885-.883-.147-.74 1.254-.295 1.328 1.18-.516.813-1.992.516-1.254-.22-1.697-.52-1.992.665-.737.146-.515-.294zm22.35-2.067l.74.886.958-.737-.664-.59-1.033.442zm1.328 1.402l.517-1.032.958.148-.368.884h-1.106zm10.77-.884l.664.81.442-.514-.37-.888-.736.59zm3.984-5.68l.516 2.654 1.328.37 2.286-1.328 1.992-1.183-.738-1.105.222-1.105-.96.588-1.327-.367.736-.517.885.37 1.772-.812.22-.664-1.105-.37.37-.885-1.255.885-2.14 1.624-2.212 1.325-.59.517zm19.326-9.074l1.106-.664-.442-.812-.812.442.148 1.033z"/><path id="FL" fill="#ECC34F" stroke="#fff" d="M361.706 191.708l1.002 3.235 1.648 4.307 2.357 4.145 1.645 2.786 2.144 2.43 1.786 1.645.714 1.285-.5.572-.357.57 1.287 3.288 1.286 1.286 1.144 2.358 1.57 2.572 2.002 3.645.57 3.36.216 5.287.286.785-.143 1.5-1.072.572.144.857-.286.858.144 1.072.214.857-1.215 1.43-1.356.643-1.715.07-.645.715-1.072.43-.57-.215-.5-.43-.144-1.285-.358-1.5-1.5-2.287-1.572-1-1.716-.144-.356.57-1.357-1.928-.286-1.57L364 232.69l-.786-.5-.716.93-.786-.144-.928-2.215-1.286-1.715-1.287-2.358-1.142-1.356-1.572-1.643.93-1.072 1.428-2.43-.07-.714-2-.428-.716.286.143.285 1.145.43-.644 2-.355.214-.786-1.786-.573-2.143-.143-1.216.644-2.07v-4.216l-1.358-1.644-.57-1.357-2.287-.57-.858-.287-.714-1.144-1.5-.715-.5-1.5-1.215-.43-1.07-1.643-1.86-.644-1.285-.643h-1.144l-1.785.357-.072.856.358.43-.215.5-1.356-.07-1.644 1.57-1.572.857h-1.714l-1.43.572-.144-1.216-.714-.857-1.286-.5-.715-.644-3.572-1.715-3.36-.786-1.928.286-2.645.214-2.644.93-1.537.27-.106-3.558-1.144-.857-.786-.786.144-1.356 4.5-.572 11.29-1.286 3.003-.286 2.403.124 1.144 1.716.643.643 3.58.228 4.782-.284 9.51-.572 2.406-.298 2.257.09.19 1.286.985.357.104-2.047-.677-1.845.58-.637 2.454.202 2.286.146zm5.546 58.524l1.07-.285.573-.108.643-1.036 1.036-.715.572.213.75.144.18.464-1.537.537-1.858.644-1.036.536-.394-.394zm5.966-2.215l.536.465 1.215-.93 2.357-1.856 1.643-1.715 1.108-2.93.43-.75.07-1.5-.32.214-.43 1.25-.644 2.037-1.43 2.323-1.93 1.857-1.5.858-1.106.68z"/><path id="NH" fill="#ECC34F" stroke="#fff" d="M415.182 60.557l.384-.476.48-1.453-1.122-.405-.215-1.357-1.716-.5-.144-1.215-3.215-10.36-2.033-6.428-.396-.002-.287.714-.286-.215-.43-.43-.643.858-.02 2.224.138 2.506.857 1.215v1.786l-1.644 2.236-1.143.5v.5l.5.787v3.787l-.356 4.073-.07 2.144.428.572-.07 2-.216.786.43.313 7.42-1.957.96-.267.815-1.226 1.595-.713z"/><path id="MI" fill="#DF8549" stroke="#fff" d="M288.097 30.644l-1.008.25-2.377 1.712-.968.36-.8.91.703.5.912-.402 1.464-.856 2.28-2.28-.207-.194zm4.917 6.285l-2.072.22-1.92 1.063-1.008 1.01-.566.772-.787.36-.855 1.283-.07.58-1.933.926-1.063.856-2.653.428-.29.29v.428l-1.56.995-1.217.36-.317.262 1.644 2.265 3.48.512 3.646.966 1.257.456 5.36 1.202.912 1.01 1.56.606.857 4.558.606.456.524.457 1.395-3.094.43-1.795.87-1.92.345-.082.51.718h.277l2.003-1.063.65.705.205.07.58-.498.498-1.354 1.063-.358 3.08-.29.856-1.133 2.28-.083 2.582.58h.788l1.423-.65.994.07.937-.276 1.645.207.358.152.566-.152-.566-.428-.58-.276-1.423-1.37v-3.065l-.648-.22-.5.51-2.72.705-.855.22-1.285-.358-.207-.138v-2.5l-.65-.083-1.145.582-1.99.856-2.94.138-1.492.498-1.795 1.575-.704.427h-.512l-.565.36-.72-.208-.704-.58-.65.427-1.712.07-1.216-1.216-.648-1.353-.636-.497-1.437-.428h-.994l-.567-.566-1.574 1.285-.43.498-.357-.22.138-1.133 1.077-1.437.208-1.078 1.008-.345.636-1.367 1.645-.43.15-.427-.513-.5zm29.406 10.248l-.966.11-.704.07-.15.496.427.22.29 1.106 1.437.068.566-.525s-.037-.646-.18-.718-.72-.827-.72-.827zm-7.182 4.116l-1.284.788-1.285.994.138 1.575.43.14.937.22.207.36-1.146.358-1.133.138-.65.788-.138.925.14.717.137 2.43-1.56.926-.29-.07V59.72l.565-1.063.29-1.077-.36-.36-.855.36-.428 1.865-1.216.497-.787.856-.068.428.29.358-.29 1.147-.994.21v.496l.346 1.078-.498 2.707-.705 1.797.278 2.072.22.497-.358 1.077-.14.345-.15 1.215 1.574 2.652 1.285 2.86.648 2.14-.36 2.073-.427 2.638-1.077 2.292-.14 1.216-1.435 1.368 1.947-.083 9.462-.993 3.218-.442.042.746 3.025-.538 4.558-.663 1.7-.21.068-.26.07-.637.924-1.643.884-.774-.096-2.237.704-.706.482-.152.098-1.56.677-1.342.47.263.07.29.358.07.856-.43-.138-4.212-1.438-3.645-.994-4.006-1.077-1.424-1.146-.787-.703.496-1.727.787-.857 2.21-1.214 1.644-.5.29-.635-.29s-1.148-.64-1.077-.925c.07-.286.22-2.21.22-2.21l1.493-.58.36-1.492.29-1.146 1.062-.718-.138-4.434-.718-.994-.567-.36-.36-.925.36-.36.718.14.07-.72-1.078-.993-.566-1.146h-1.146l-2.003-.635-2.43-1.507h-1.217l-.276.29-.43-.22-1.364-1z"/><path id="VT" fill="#D14C42" stroke="#fff" d="M399.13 65.698l.14-2.362-1.277-4.767-.285-.144-1.286-.572.356-1.287-.356-.93-1.194-2.05.43-1.714-.357-2.286-1.07-2.86-.357-2.175 11.678-2.975.138 2.44.847 1.213v1.786l-1.64 2.236-1.142.505-.006.496.58.67-.138 3.58-.272 4.093-.1 2.456.43.572-.072 2.02-.215.748.45.322-3.288.666-1.992.318z"/><path id="ME" fill="#D35544" stroke="#fff" d="M433.764 32.448l.858.93 1 1.642v.858l-.93 2.072-.857.286-1.5 1.357-2.144 2.43h-.57c-.286 0-.43-.93-.43-.93l-.785.072-.43.643-1.07.644-.43.643.715.644-.215.284-.214 1.214-.857-.07v-.715l-.143-.572-.644.144-.785-1.43-.928.573.57.643.144.5-.357.572.143 1.357.07.714-.714 1.144-1.287.214-.143 1.286-2.358 1.357-.57.214-.716-.644-1.357 1.572.428 1.43-.644.57-.07 1.93-.497 2.767-1.09-.51-.213-1.36-1.715-.5-.144-1.213-3.216-10.36-2.077-6.472.628-.052.67.18v-1.142l.578-1.987 1.144-2.073.644-1.787-.857-1.07v-2.645l.355-.428.358-1.216-.072-.642-.07-2.144.786-2.144 1.286-3.93.93-1.858h.57l.572.07v.5l.57 1 1.216.288.357-.358v-.43l1.786-1.285.786-.786.642.073 2.645 1.072.857.43 4.002 13.218h2.644l.357.857.07 2.145 1.287 1h.356l.072-.215-.215-.5 1.217-.072zm-9.252 13.325l.68-.678.606.464.25 1.07-.75.394-.786-1.25zm2.965-2.608l.786.822s.572.036.572-.107c0-.144.107-.894.107-.894l.393-.357-.357-.787-.893.322-.608 1z"/><path id="RI" fill="#DA7046" stroke="#fff" d="M412.207 76.677l-1.633-6.61 2.77-.816.97.853 1.462 1.91 1.188 1.945-1.325.718-.573-.072-.5.786-1.072.858-1.288.43z"/><path id="NY" fill="#CF4040" stroke="#fff" d="M392.896 81.03l-.5-.43-1.144-.07-1-.858-.722-2.71-1.528.04-1.08-1.196-8.57 1.937-19.006 3.858-3.328.544-.326-2.86.63-.496.572-.5.43-.714.785-.5.857-.786.214-.715.93-1.215.5-.428-.07-.43-.573-1.356-.785-.072-.857-2.715 1.287-.786 1.928-.642 1.787-.57 1.43-.216 2.786-.07.857.57.714.072.93-.572 1.144-.5 2.286-.215.93-.785.785-1.43.714-.857h.93l.856-.5.07-1-.642-.93-.144-.642.5-.93v-.643h-.786l-.785-.357-.357-.5-.07-1.143 2.57-2.43.287-.356.643-1.287 1.286-2 1.215-1.644.93-1.072 1.066-.806 1.362-.55 2.43-.572 1.43.07 2-.643 3.344-.916.23 2.2 1.07 2.86.357 2.286-.43 1.715 1.145 2 .356.93-.356 1.286 1.286.573.286.143 1.357 4.858-.236 2.237-.214 4.79.356 2.428.357 1.572.644 3.216v3.572l-.5 1 .812.88.35.743-.856.787.144.572.57-.145.644-.57 1-1.145.5-.285.716.285 1 .072 3.502-1.715 1.286-1.215.57-.643 1.86.713-1.502 1.57-1.715 1.288-3.146 2.36-1.144.428-2.57.857-1.788.5-.52-.235-.107-1.63.215-1.216-.072-.93-1.244-.75-2-.428-1.715-.5-1.644-.785z"/><path id="PA" fill="#DF8549" stroke="#fff" d="M390.572 96.92l.58-.12 1.028-.555.535-1.098.715-1 1.43-1.357v-.358l-1.072-.714-1.572-1.072-.428-1.143-1.216-.143-.07-.5-.358-1.215 1-.5.072-1.072-.572-.572.072-.713.856-1.357v-1.357l1.192-1.17-.405-.298-1.117-.085-1.015-.857-.686-2.703-1.548.044-1.086-1.195-7.996 1.854-19.007 3.858-3.93.644-.275-2.883-2.37 2.24-.57.214-1.858 1.33 1.286 8.46 1.098 4.3 1.578 8.513 1.444-.282 5.28-.665 16.764-3.388 6.575-1.25 3.67-.716.117-.105.93-.715.928-.3z"/><path id="NJ" fill="#D14C42" stroke="#fff" d="M392.586 80.905l-1.026 1.208v1.358l-.857 1.358-.07.714.57.572-.07 1.07-1 .5.356 1.216.07.5 1.214.144.43 1.143 1.57 1.072 1.073.714v.357l-1.318 1.193-.716 1-.644 1.214-1 .57-.204.71-.107.535-.27 1.15.48.994 1.432 1.286 2.143 1 1.787.286.07.644-.356.43.143 1.213h.356l.93-1.072.357-2.144 1.214-1.788 1.357-2.858.5-2.43-.285-.5-.073-4.144-.714-1.5-.5.357-1.215.143-.215-.214.5-.43.93-.857.027-.484-.17-1.518.254-1.215-.052-.87-1.24-.773-2.252-.517-1.83-.61-1.584-.728z"/><path id="DE" fill="#D76645" stroke="#fff" d="M390.794 98.505l.164-.95.165-.746-.717.175-.714.206-.977.78.76 2.23 1.002 2.5.93 4.288.714 2.787 2.216-.072 2.715-.52-1-3.266-.43.215-1.57-1.072-.787-2.072-.856-1.573-1.392-1.27-.382-.926.16-.715z"/><path id="MD" fill="#D24E42" stroke="#fff" d="M397.056 109.173l-2.655.532-2.272.053-.814-3.06-.852-4.053-1.137-2.735-.57-1.944-3.317.717-6.575 1.248-16.554 3.338.5 2.216.428 2.5.144-.143.93-1.07 1-1.158 1.07-.272.645-.643.786-1.144.57.286 1.287-.145 1.143-.93.888-.64.816-.215.727.5 1.286.642.856.786.536.68 1.822.75v1.285l2.43.572.506.24.624-.897 1.273.87-.564 1.098-.34 1.762-.785 1.143v.93l.286.787 2.238.6 1.905-.028 1.357.428.93.143.43-.928-.644-.93v-.786l-1.072-.93-.93-2.428.572-2.358-.07-.93-.573-.57s.644-.715.644-1c0-.286.215-.93.215-.93l.857-.57.858-.716.214.43-.644.713-.57 1.644.142.5.786.145.215 2.43-.93.428.144 1.572.214-.072.5-.858.716.787-.715.572-.142 1.5 1.144 1.5 1.715.214.715-.357 1.43 1.85.6.236 2.942-1.236.887-1.778-.194-2.17zm-7.06 3.99l.5 1.108.073.787.5.822s.392-.394.392-.537c0-.144-.32-1.358-.32-1.358l-.322-1.036-.823.214z"/><path id="VA" fill="#DA7547" stroke="#fff" d="M393.452 115.21l-.063-.862 2.852-1.127-.34 1.423-1.29 1.67-.187 2.027.205 1.5-.81 2.2-.956.846-.65-2.05.198-2.41.7-1.848.34-1.37zm1.477 12.508l-25.715 5.56-16.542 2.333-2.952-.165-1.142.85-3.244.1-3.705.432-4.825.714 4.627-2.48-.005-.916.67-.95 4.666-5.083 1.745 1.98 1.672.427 1.124-.504.99-.58 1.12.594 1.73-.63.828-2.015 1.15.238 1.263-.942.794.22 1.25-1.627.153-.92-.426-.562.442-.825 2.33-5.427.273-2.535.543-.23.963 1.08 1.738-.134.854-3.347 1.235-.25.463-1.21 1.14-1.038 1.227-2.518.038-2.24 4.34 1.69c.302.15.37-2.233.37-2.233l1.613.708.03 1.3 2.557.573.942.52.733.91-.29 1.612-.86 1.146.05.91.26.818 2.2.56 1.968.02 1.356.422.86.137.315 1.365 1.408.178.384.53-.193 2.074.606.487-.212.852.543.35-.097.612-1.19-.042.038.714 1.008.682.054.624.784.79.217 1.115-1.127.61.695.66 2.563-.745 1.6 2.656z"/><path id="WV" fill="#D86945" stroke="#fff" d="M362.312 103.23l.492 2.184.48 2.667.94-1.14 1-1.357 1.122-.272.643-.643.785-1.143.64.286 1.286-.144 1.144-.93.888-.64.815-.215.576.45 1.61.805.857.786.607.573-.336 2.456-2.58-1.125-1.875-.717-.045 2.288-1.215 2.447-1.117 1.073-.527 1.216-1.168.22-.396 1.593-.46 1.746-1.755.15-1.026-1.077-.474.247-.28 2.418-.596 1.562-2.19 4.84.395.515-.092.844-1.24 1.716-.8-.24-1.313.954-1.124-.253-.882 2.014s-1.44.634-1.734.605c-.072-.007-1.092-.553-1.092-.553l-1.032.61-1.065.46-1.655-.39-.496-.518-.97-1.337-1.388-.88-.757-1.6-1.895-1.533-.286-1-1.146-.644-.355-.715-.11-2.322.967-.035.856-.358.072-1.214.714-.644.07-2.215.43-1.715.57-.285.572.5.214.786.786-.43.215-.713-.5-.786v-1.072l.43-.57 1-1.5.57-.644.93.214 1-.714 1.358-1.5 1-1.715.143-2.5.215-2.216v-2.072l-.5-1.357.43-.643.565-.572 1.543 8.764 2.048-.332 5.494-.796z"/><path id="OH" fill="#D56245" stroke="#fff" d="M350.88 83.057l-2.692 1.79-1.715 1-1.5 1.645-1.787 1.714-1.43.357-1.286.214-2.43 1.143-.93.072-1.5-1.357-2.285.286-1.144-.643-1.052-.598-2.162.31-4.502.715-4.953.966.573 6.468.785 6.074 1.143 10.36.252 2.136 1.82-.057 1.073-.356 1.486.665.917 1.928 2.27-.008.837.937.778-.028 1.122-.594 1.107.164 2.397.213.764-.943 1.037-.57.916-.303.285 1.215.786.43 1.537 1.036.965-.036.59-.217.082-1.22.7-.644.043-2.117.453-1.817.574-.266.585.507.237.75.76-.458.193-.647-.493-.84.028-1.024.33-.475.952-1.46.464-.683.93.214 1-.715 1.357-1.5 1.227-1.8.142-2.236.213-2.215-.077-2.346-.423-1.28.155-.526.797-.773-1.01-4-1.284-8.558z"/><path id="IN" fill="#DF8349" stroke="#fff" d="M299.716 130.193l.03-1.263.213-2 1-1.287.786-1.715 1.144-1.858-.215-2.572-.786-1.215-.144-1.43.357-2.43-.215-3.072-.57-7.073-.573-6.788-.43-5.18 1.357.392.645.43.5-.145.93-.857 1.25-.715 2.25-.07 9.72-1 2.463-.237.664 7.053 1.88 16.285.265 2.55-.166 1 .543.795.043.606-1.114.707-1.564.686-1.415.242-.265 2.152-2.02 1.464-1.237 1.772.144 1.05-.26.68h-1.47l-.7-.715-1.102.558-1.188.664.072 1.35-.527.115-.207-.45-.958-.665-1.437.594-.686 1.33-.636-.358-.643-.706-1.973.214-2.472.43-1.286.683z"/><path id="IL" fill="#DB7E48" stroke="#fff" d="M299.703 130.358l.014-1.428.252-2.055 1.03-1.288.824-1.802.987-1.766-.163-2.323-.887-1.565-.043-1.48.308-2.328-.364-3.173-.47-6.973-.573-6.638-.407-5.146-.12-.407-.357-1.144-.572-1.643-.713-.786-.644-1.144-.104-2.426-20.242 1.148.1 1.048 1.012.304.403.506.202.808 1.72 1.516.3 1.01-.3 1.517-.81 1.617-.303 1.112-1.012.807-.808.304-2.324.606-.304.81-.302.91.302.605.81.71-.103 1.818-.807.707-.304.708v1.21l-.81.204-.706.505-.102.606.102.91-.76.58-.454 1.24.202 1.615 1.012 3.234 3.232 3.334 2.426 1.618-.102 1.92.404.606 2.83.202 1.212.606-.303 1.617-1.01 2.627-.304 1.414 1.01 1.72 2.83 2.323 2.02.304.91 2.223.908 1.415-.404 1.313.708 1.82.81.908.623-.39.4-.917.98-.773.942-.27 1.15.52 1.604.608.525-.132.09-.998-.57-1.066.135-1.052.812-.595 1.336-.36.557-.2-.27-.613-.35-1.04.633-.435.515-1.417z"/><path id="CT" fill="#D76645" stroke="#fff" d="M412.207 76.663l-1.626-6.576-2.085.406-9.383 2.096.44 1.425.645 3.216.078 3.965-.54.96.85.855 1.89-1.727 1.57-1.43.857-.928.357.286 1.214-.643 2.287-.5 3.447-1.404z"/><path id="WI" fill="#D45A45" stroke="#fff" d="M297.726 84.842l-.03-1.396-.52-2-.286-2.716-.5-1.07.43-1.36.356-1.285.644-1.144-.286-1.5-.286-1.57.214-.787.858-1.07.07-1.216-.356-.572.286-1.143-.2-1.844 1.215-2.5 1.286-3.002.07-1-.14-.428-.358.214-1.857 2.787-1.215 1.785-.858.786-.356 1-.865.358-.498.857-.644-.143-.07-.786.57-1.072.93-2.07.785-.716.438-1.042-1.13-.84-.874-4.583-1.568-.594-.86-1.02-5.36-1.204-1.272-.447-3.63-.96-3.5-.512-1.664-2.268-.33.245-.53-.07-.287-.5-.59.13-.5.07-.786.43-.43-.286.287-.858.857-1.358.5-.5-.857-.643-.93.358-1.286.857-3.285 1.43-1.286.285-1.288-.214-.433-.39-.937 1.254-.102 1.212v3.74l-.505.707-2.323 1.717-1.012 2.627.202.1 1.11.91.305 1.415-.81 1.414v1.718l.204 2.93 1.314 1.313h1.516l.81 1.415 1.515.202 1.717 2.526 3.134 1.82.91 1.21.403 3.285.302 1.465 1.01.708.103.606-.91 1.516.102 1.415 1.11 1.718 1.112.506 1.313.202.593.61 20.02-1.176z"/><path id="NC" fill="#DB7246" stroke="#fff" d="M394.93 127.693l.922 2.174 1.572 2.857 1.072 1.072.285 1-1.07.072.356.286-.143 1.857-1.144.573-.286.93-.572 1.285-1.644.715-1.072-.144-.643-.072-.714-.572.142.572v.43h.857l.355.57-.856 2.787h1.856l.286.714 1-1 .572-.215-.858 1.572-1.357 2.144h-.572l-.5-.214-1.215.286-2.287 1.07-2.857 2.36-1.502 2.07-.857 2.86-.213 1.07-2.073.214-2.41.592-4.396-3.626-5.574-3.358-1.286-.357-5.573.644-1.89.332-.716-1.43-1.313-.936-7.29.215-3.214.358-4.002 2-2.714 1.144-9.36 1.145.22-1.792.787-.644 1.215-.285.286-1.644 1.857-1.214 1.716-.643 1.858-1.572 1.93-.928.284-1.357 1.716-1.716.285-.072s0 .5.356.5.857.144.857.144l1-1.572.93-.285 1 .143.715-1.572 1.286-1.144.214-.93.084-1.61 1.89-.01 3.183-.38 6.964-.996 6.69-.922 9.564-2.085 8.833-1.884 4.94-1.063 2.233-.51zm1.887 14.678l1.144-1.106 1.395-1.144.68-.286.07-.893-.285-2.715-.644-1.036-.286-.822.32-.107 1.216 2.43.18 1.967-.072 1.5-1.5.68-1.25 1.07-.502.536-.465-.072z"/><path id="DC" fill="#D14C42" stroke="#fff" d="M382.04 108.48l-.82-.808-.546-.303.638-.895 1.277.86-.55 1.144z"/><path id="MA" fill="#DB7B47" stroke="#fff" d="M423.502 74.184l.96-.304.202-.757.455.05.454 1.01-.556.203-1.72.05.204-.252zm-4.143.354l1.01-1.163h.706l.81.657-1.063.455-.96.455-.504-.404zm-15.382-9.72l7.8-2.05 1-.287.847-1.235 1.65-.735 1.278 1.95-1.072 2.287-.142.644.857 1.145.5-.358h.786l1.002 1.143 1.715 2.645 1.572.214 1-.43.785-.786-.357-1.215-.93-.715-.643.357-.43-.57.216-.216.93-.07.786.355.856 1.073.43 1.287.143 1.07-1.857.645-1.716.857-1.714 2-.858.644v-.428l1.072-.643.215-.786-.358-1.358-1.286.643-.357.643.214 1-.912.442-1.214-2-1.5-1.93-.916-.802-2.888.83-2.25.464-9.14 2.03-.295-2.108.286-4.68 1.897-.393 3-.572z"/><path id="TN" fill="#ECC34F" stroke="#fff" d="M333.8 138.275l-22.94 2.214-6.964.785-2.043.227-1.71-.012-.1 1.812-3.616.116-3.072.286-3.576-.055-.626 3.125-.75 2.423-1.456 1.216-.596 1.937-.144 1.144-1.785 1 .643 1.573-.43 1.93-.428.348 47.808-4.6.178-1.748.8-.66 1.254-.33.297-1.643 1.812-1.195 1.79-.662 1.804-1.578 1.962-.895.23-1.356 1.796-1.762.244-.05s.014.5.37.5c.357 0 .858.156.858.156l1-1.586.915-.286 1.006.13.707-1.56 1.307-1.17.187-.857.138-1.64-.95-.088-1.15.896-3.09.014-8.115 1.055-3.564.843z"/><path id="AR" fill="#D56245" stroke="#fff" d="M288.337 149.236l-1.76.316-2.26-.28.187-.708 1.317-1.134.418-1.617-.81-1.313-34.66 1.11.707 3.033v3.638l.606 4.852.102 16.724 1.012.86 1.313-.607 1.213.505.3 2.904 24.585-.504.507-.925-.127-1.567-.807-1.314.706-.657-.706-1.11.302-1.11.605-2.477 1.113-.91-.304-1.01 1.617-2.375 1.213-.604-.05-.66-.152-.807 1.264-2.476 1.062-.556.17-1.515.783-.55-1.39-.214-.594-1.773 1.24-1.05.242-.894.566-1.788.473-1.44z"/><path id="MO" fill="#D96D46" stroke="#fff" d="M272.696 107.27l-1.113-1.363-.506-1.01-28.446 1.06-1.01.05.556 1.112-.1 1.01 1.11 1.717 1.364 1.82 1.364 1.21.956.103.66.404v1.313l-.808.708-.202 1.01.91 1.516 1.11 1.314 1.112.81.606 5.153.14 15.943.1 2.072.203 2.38 9.916-.384 10.257-.303 9.195-.354 5.152-.1.96 1.513-.304 1.462-1.364 1.062-.253.812 2.376.202 1.722-.303.76-2.43.287-2.59.928-1.13 1.147-.656.022-1.348.45-.856-.75-1.124-.588.435-.882-.983-.567-2.104.354-1.112-.86-1.515-.81-2.022-2.12-.353-3.08-2.476-.76-1.818.352-1.415.91-2.677.203-1.266-.86-.456-3.03-.35-.455-.758-.05-1.87-2.426-1.516-3.082-3.436-1.01-3.234-.103-1.868.356-1.007z"/><path id="GA" fill="#DA7046" stroke="#fff" d="M323.02 154.76v.966l.07.93.288 1.5 1.5 3.5 1.07 4.36.645 2.715.714 2.145.644 3.072.93 2.786 1.144 1.5.214 1.502.858.357.07.93-.785 2.143-.214 1.43-.07.857.714 1.93.143 2.357-.356 1.07.285.357.644.357.09 1.422.987 1.48.994.956 3.503.07 4.78-.284 9.51-.572 2.407-.298 2.022.012.07 1.286 1.145.358.143-1.93-.714-2 .5-.715 2.572.355 2.2.14-.343-2.783 1-4.43.644-1.858-.215-1.143 1.474-2.76-.226-.597-.846.312-1.144-.572-.285-.93-.572-1.57-1-.93-1.145-.286-.713-2.144-1.294-2.8-1.856-.857-.93-.857-.57-1.145-.93-.857-1-.57-1-1.287-1.358-1-2-.786-.215-.643-1.07-1.285-.215-.645-1.5-2.196-1.557.044-1.66-1.04-.626-.573-.144-.785.386-.857.984-.49-.28-.93-18.507 2.207z"/><path id="SC" fill="#D56245" stroke="#fff" d="M363.973 178.017l-.785.428-1.145-.57-.285-.93-.57-1.572-1.002-.93-1.144-.285-.714-2.144-1.215-2.644-1.857-.858-.93-.856-.57-1.144-.93-.857-1-.572-1-1.286-1.358-1-2-.786-.215-.642-1.072-1.286-.214-.644-1.5-2.286-1.5.07-1.787-1.07-.572-.572-.144-.786.357-.857 1.002-.43-.227-1.01 2.55-1.034 4.03-2.028 3.436-.357 7.123-.187 1.167.83.742 1.485 1.902-.27 5.572-.645 1.286.358 5.573 3.358 4.47 3.59-2.397 2.412-1.144 2.716-.214 2.787-.715.358-.5 1.214-1.072.286-.93 1.572-1.214 1.215-1 1.5-.716.357-1.572 1.5-1.285.072.428 1.43-2.215 2.43-.927.573z"/><path id="KY" fill="#D65C44" stroke="#fff" d="M346.756 128.116l-1.013 1.06-1.58 1.768-2.178 2.415-.538.758-.027.93-1.936.955-2.5 1.5-3.197.796-22.927 2.165-6.966.785-2.043.227-1.708-.012-.1 1.865-3.616.063-3.073.286-3.53-.027.534-.584 1.104-.683.103-1.414.404-.81-.71-1.12.353-.844 1-.787.93-.285 1.215.57 1.57.572.502-.143.07-1-.57-1.072.143-1 .857-.644 1.144-.285.715-.285-.357-.786-.286-.857.666-.44c.002-.017.556-1.557.548-1.617l1.35-.653 2.352-.43 1.986-.213.615.72.675.385.702-1.376 1.41-.566.975.656.18.44.52-.116-.07-1.305 1.383-.773.95-.475.676.734 1.468-.02.26-.695-.163-1 1.15-1.768 2.11-1.52.313-2.138 1.293-.202 1.677-.728 1.08-.754-.09-.692-.503-.643.25-1.323 1.85-.052 1.017-.33 1.48.63.907 1.93 2.27.005.906.976.714-.065 1.15-.564 2.315.254 1.137.096.745-.91 1.158-.63.83-.31.287 1.252.903.47 1.168.918.053 2.508.357.695 1.145.687.34 1.014 1.84 1.52.798 1.603 1.083.733z"/><path id="AL" fill="#E3994B" stroke="#fff" d="M304.904 201.11l-.66-6.33-1.214-8.288.072-6.216.356-13.72-.07-7.36.072-2.837 19.662-1.6-.066.963.073.93.284 1.5 1.5 3.5 1.072 4.36.643 2.715.715 2.144.643 3.073.93 2.787 1.143 1.5.215 1.5.857.357.072.928-.786 2.144-.215 1.43-.07.857.714 1.93.143 2.357-.357 1.07.285.357.644.357.146 1.278-2.474-.156-3 .286-11.29 1.286-4.604.62-.098 1.272.786.787 1.143.857.258 3.507-2.45 1.138-1.214-.144 1.215-.855v-.43l-1.36-2.644-1-.284-.643 1.93-.57 1.214-.286-.07h-1.216z"/><path id="LA" fill="#E19049" stroke="#fff" d="M294.588 200.557l-1.45-1.4.444-2.43-.292-.395-4.094.444-11.062.203-.303-1.06.404-3.738 1.466-2.627 2.225-3.842-.254-1.06.556-.302.203-.86-1.012-.91-.05-.858-.81-1.922-.064-2.802-24.52.41.013 4.23.304 4.144.304 1.718 1.11 1.82.405 2.222 1.92 2.425.1 1.415.304.304-.303 3.74-1.313 2.222.708.91-.303 1.11-.304 3.234-.606 1.414.055 1.6 2.07-.672 5.354.09 4.574 1.573 2.858.5 1.644-.644 1.43.5 1.43.43.356-.93-1.43-.5-1.144.214-1.215-.714s.072-.57.358-.643c.286-.072 1.358-.43 1.358-.43l.786.644.786-.43 1.428.287.645 1.072.142 1 2 .144.787.786-.356.715-.57.356.713.715 3.715 1.572 1.572-.572.428-1.07 1.144-.287.785-.643.572.43.356 1.286-1 .357.285.286 1.5-.572 1.002-1.5.356-.215-.93-.145.357-.714-.07-.643.93-.214.5-.572.285.358s-.07 1.357.286 1.357 1.857.286 1.857.286l1.787.858.43.644h1.285l.5.43 1-1.358v-.644h-.57l-1.5-1.215-2.573-.357-1.43-1 .5-1.215 1 .143.072-.285-.786-.43v-.213h1.43l.784-1.357-.57-.857-.144-1.215-.644.07-.856.93-.286 1.144-1.358-.286-.428-.785.785-.857.84-1.522-.468-1.065-.514-1.758z"/><path id="MS" fill="#DB7E48" stroke="#fff" d="M305.016 200.638l-.113.555h-2.286l-.643-.356-.93-.144-3 .858-.786-.357-1.144 1.858-.487.345-.497-1.1-.505-1.718-1.517-1.414.506-2.45-.303-.405-.808.102-3.5.386-10.85.165-.34-.982.386-3.703 1.377-2.508 2.312-4.042-.197-1.075.547-.29.19-.85-1.022-.917-.05-.947-.813-1.82-.048-2.637.588-1.098-.1-1.51-.78-1.362.673-.655-.693-1.104.202-.73.696-2.884 1.1-.9-.284-1.046 1.617-2.344 1.252-.6-.1-.74-.126-.743 1.27-2.462 1.036-.543.067-.395 16.506-1.716.08 2.778.073 7.36-.358 13.718-.07 6.218 1.214 8.288.656 5.92z"/><path id="IA" fill="#DA7547" stroke="#fff" d="M277.448 85.82l.117 1.233.983.255.42.542.223.82 1.677 1.484.304 1.058-.297 1.514-.7 1.428-.353 1.212-.96.708-.76.252-2.465.823-.615 1.7.322.606.813.745-.125 1.785-.78.68-.34.726.056 1.23-.834.2-.72.49-.122.597.123.935-.686.493-1.092-1.385-.558-1.083-29.057 1.112-.405.072-.907-1.997-.1-2.93-.71-1.818-.303-2.325-1.01-1.616-.404-2.123-1.21-3.334-.507-2.376-.606-.96-.707-1.21.864-2.142.606-2.526-1.213-.91-.202-1.212.403-1.112h.76l36.533-.56.37 1.848.995.69.112.63-.897 1.497.085 1.417 1.11 1.68 1.118.57 1.36.223.295.364z"/><path id="MN" fill="#D04541" stroke="#fff" d="M235.92 54.545l-.202-3.74-.808-3.233-.81-5.962-.202-4.346-.807-1.516-.707-2.223v-4.547l.303-1.718-.805-2.41 13.32.016.142-3.644.286-.072 1 .214.858.357.357 2.43.644 2.716.713.714h2.145l.144.643 2.785.143v.93h2.144l.143-.573.5-.5 1-.285.57.428h1.287l1.716 1.143 2.358 1.07 1.07.215.215-.43.643-.213.214 1.286 1.144.572.216-.214.57.072v.93l1.145.427h1.358l.715-.357 1.43-1.43 1.142-.213.357.786.215.572h.428l.43-.357 3.93-.143.785 1.36h.285l.315-.48 1.963-.163-.27 1.006-1.742.812-4.086 1.795-2.11.887-1.358 1.144-1.07 1.57-1 1.716-.787.357-2.002 2.215-.572.072-1.912 1.218-1.09 1.417-.1 1.41.042 3.555-.61.747-2.245 1.662-.984 2.645 1.27.986.3 1.426-.82 1.432.076 1.656.163 2.975 1.34 1.327h1.47l.837 1.385 1.493.223 1.705 2.506 3.134 1.82.947 1.27.297 2.847-35.896.506-.148-15.77-.2-1.314-1.82-1.516-.506-.81v-.706l.91-.708.606-.606.098-1.415z"/><path id="OK" fill="#DB7B47" stroke="#fff" d="M193.976 139.41l-7.375-.563-.388 4.84 9.046.513 14.17.576-1.033 10.793-.203 7.88.102.71 1.92 1.616.908.505.304-.1.303-.91.606.81h.91v-.607l1.212.606-.202 1.717 1.82.1 1.11.507 1.82.303 1.11.81 1.01-.91 1.518.303 1.11 1.517h.405v1.01l1.01.304 1.01-1.01.808.304h1.113l.405 1.11 2.784.92.605-.304.81-1.818h.504l.505.908 1.818.304 1.617.606 1.313.404.81-.404.302-1.11h1.92l.91.403 1.212-.91h.506l.303.707h1.82l.706-.908.81.202.908 1.11 1.415.81 1.415.403.857.495-.173-16.45-.605-4.85-.07-3.923-.638-2.89-.344-3.175-.03-1.687-5.364.14-20.514-.2-19.908-.91-10.736-.608z"/><path id="TX" fill="#ECC34F" stroke="#fff" d="M185.632 143.72l10.03.48 13.743.505-1.032 10.368-.13 8.024.03.92 1.92 1.687.877.64.524-.248.165-.804.503.798.933.02v-.64l.737.428.503.18-.16 1.755 1.81.04 1.29.53 1.75.232 1.052.92.94-.92 1.645.272.982 1.426.476.142-.07.87.978.35 1.03-.91.942.273.984.016.414 1.075 2.796.935.704-.34.658-1.846h.15l.402.035.542.914 1.737.293 1.476.496 1.514.528.813-.43.316-1.112 1.97.02.797.41 1.238-.93.488.02.376.708h1.793l.67-.896.826.18.86 1.063 1.557.905 1.263.358.67.353 1.08.884 1.346-.588 1.188.504.25 2.7-.02 4.286.305 4.215.31 1.594 1.183 1.954.397 2.188 1.864 2.447.086 1.39.33.348-.323 3.703-1.27 2.214.68.952-.28 1.034-.296 3.272-.665 1.475.13 1.55-2.504.7-4.36 2-.428.857-1.144.857-.928.645-.572.356-2.5 2.36-1.216.928-2.357 1.43-2.5 1.07-2.787 1.502-.786.643-2.572 1.572-1.5.286-1.716 2.43-1.787.144-.43.857 1 .858-.642 2.43-.57 2-.5 1.716-.357 2 .356 1.072.785 3.072.43 2.716.785 1.215-.43.642-1.357.858-2.5-1.716-2.43-.5-.57.215-1.43-.287-1.858-1.358-2.286-.5-3.36-1.5-.93-1.715-.57-2.858-1.43-.857-.285-1 .286-.286.143-1.502-.57-.285-.287-.43.572-1.93-.715-1-1.428-.57-1.5-1.93-1.572-2.93-1.857-1.144.07-.86-2.357-5.43-.358-1.857-.786-.856-.07-.644-2.646-2.358-1.143-1.357v-.5l-1.144-.93-3-.5-3.287-.285-1.358-1-2 .785-1.572.644-1 1.43-.43 1.643-1.928 2.715-1.072 1.072-1.144-.43-.786-.5-.857-.285-1.716-1v-.286l-.786-.856-2.286-.93-3.287-3.43-1-2.07v-3.573l-1.43-2.858-.214-1.215-.713-.428-.5-.93-2.215-.93-.57-.715-3.145-3.5-.572-1.43-2.072-1-.643-1.93-1.143-1.286-.857-.216-.287-2.067 3.537.303 12.834 1.213 12.833.708.987-8.602 1.718-24.557.708-8.284.606.012m43.768 101.512l-.25-3.144-1.215-3.18-.25-3.108.678-3.644 1.466-3.038 1.535-2.394 1.392-1.572.287.107-2.11 2.93-1.928 2.895-.895 2.93-.14 2.286.39 2.715 1.145 3.18.214 2.287.072.644-.394.106z"/><path id="NM" fill="#DC8048" stroke="#fff" d="M153.228 185.02l-.343-2.098 3.82.233 13.336 1.302 12.054.746.98-8.27 1.704-24.697.77-8.57.693.058.366-4.935-45.97-4.7-7.735 53.23 6.835.88.572-4.43 12.92 1.25z"/><path id="KS" fill="#ECC34F" stroke="#fff" d="M250.35 140.982l-5.578.09-20.372-.2-19.694-.91-10.887-.556 1.72-28.552 9.762.298 17.808.372 19.582.437h2.252l.965.957.892-.01.725.448-.027 1.33-.808.763-.147.986.814 1.504 1.305 1.412 1.028.713.575 4.97.08 15.95z"/><path id="NE" fill="#D76445" stroke="#fff" d="M240.72 103.995l1.43 3.103-.058 1.018 1.528 2.428 1.202 1.394h-2.23l-19.22-.415-18.03-.393-9.833-.347.472-9.428-14.285-1.29 1.92-19.453 6.872.455 8.892.505 7.882.505 10.51.505 4.75-.202.91 1.01 2.12 1.314.506.404 1.92-.607 1.72-.2 1.212-.102.808.606 1.794.707 1.312.71.203.707.403.91h.808l.354.02.396 2.07 1.29 3.744.254 1.66L239.65 97l.25 2.26.712 1.873.11 2.862z"/><path id="SD" fill="#ECC34F" stroke="#fff" d="M236.455 87.785l-.02-.257-1.28-2.142.822-2.083.66-2.602-1.23-.918-.17-1.212.35-1.13 1.41.008-.055-2.213-.147-13.337-.272-1.665-1.8-1.473-.435-.74-.028-.712.895-.676.677-.737.108-1.174-25.75-.707-24.222-1.525-2.354 28.152 6.45.4 8.817.532 7.843.41 10.51.577 5.296-.19.868.993 2.296 1.438.338.32 2.007-.642 2.89-.272.74.59 1.86.707 1.3.723.177.656.46.99.988-.087z"/><path id="ND" fill="#E3994B" stroke="#fff" d="M235.95 54.587l-.27-3.73-.742-3.012-.836-5.757-.203-4.856-.77-1.36-.776-2.296.014-4.616.275-1.69-.81-2.418-12.66-.25-8.218-.285-11.72-.572-10.142-.943-3.09 29.692 24.28 1.48 25.667.613z"/><path id="WY" fill="#ECC34F" stroke="#fff" d="M185.15 60.933l-47.18-5.948-6.225 39.1 50.064 6.004 3.34-39.157z"/><path id="MT" fill="#D76445" stroke="#fff" d="M189.055 22.785l-13.558-1.242-12.934-1.572-12.934-1.786-14.292-2.358-8.146-1.5-14.464-3.064-1.98 9.437 1.517 3.333-.606 2.02.807 2.022 1.415.606 2.042 4.76 1.19 1.405.203.505 1.516.506.202.91-3.133 7.78v1.112l1.112 1.415h.404l2.122-1.314.303-.506.708.303-.1 2.325 1.213 5.558 1.313 1.11.404.304.81 1.01-.203 1.516.303 1.515.505.405 1.01-1.01h1.213l1.414.708 1.112-.405h1.82l1.616.708 1.212-.2.202-1.315 1.314-.303.606.606.202 1.415.63.37.835-4.878 47.183 5.936 3.892-38.145z"/><path id="CO" fill="#DF8349" stroke="#fff" d="M193.838 139.473l2.168-38.156-50.12-5.588-5.397 38.87 53.348 4.873z"/><path id="ID" fill="#D55E44" stroke="#fff" d="M91.49 75.61l3.877-15.567.606-1.87 1.11-2.626-.555-1.01-1.11.05-.355-.455.202-.506.152-1.363 1.97-2.426.808-.202.506-.506.253-1.415.404-.304 1.718-2.576 1.718-1.92.102-1.667-1.516-1.162-.68-1.945 6.022-27.998 5.975 1.118-1.948 9.452 1.572 3.308-.7 2.06.872 2.053 1.388.555 1.695 4.224 1.553 1.96.225.506 1.476.505.165.927-3.082 7.68-.073 1.135 1.163 1.468.4-.02 2.17-1.338.3-.485.69.292-.123 2.367 1.21 5.56 1.732 1.405.743.958-.317 1.805.47 1.24.47.483 1.096-1.04 1.26.022 1.29.59 1.228-.3 1.677-.072 1.758.707 1.212-.13.22-1.344 1.296-.337.558.67.194 1.3.63.538-3.707 23.695c.003-.002-38.88-7.384-41.97-8.05z"/><path id="UT" fill="#DB7E48" stroke="#fff" d="M140.562 134.673l-37.018-5.247 9.1-49.745 20.677 3.866-.655 4.7-1.022 5.822 3.45.41 7.253.798 3.63.378-5.414 39.02z"/><path id="AZ" fill="#DF8549" stroke="#fff" d="M89.914 166.73l-1.16.953-.144.644.214.43 8.36 4.714 5.36 3.36 6.502 3.787 7.43 4.43 5.432 1.072 11.028 1.194 7.627-52.654-37.01-5.268-1.368 7.254-.71.007-.758 1.163-1.112-.05-.556-1.215-1.214-.15-.404-.505h-.404l-.404.253-.86.454-.05 3.083-.1.757L95.36 146l-.656.96-.252 1.465 1.212 2.173.556 2.577.354.455.455.252-.05 1.01-.71.607-1.515.757-.86.858-.656 1.617-.253 2.173-1.263 1.213-.91.304.06.366-.202.758.202.354 1.617.252-.25 1.213-.658.96-1.668.404z"/><path id="NV" fill="#ECC34F" stroke="#fff" d="M112.668 79.63l-10.448 56.94-.81.154-.695 1.063-1.05.005-.65-1.213-1.156-.168-.342-.49-.458-.023-1.23.727-.136 3-.16 2.552-.154 3.798-.64.922-1.08-.475-30.533-46.057 8.394-29.873 41.148 9.135z"/><path id="OR" fill="#CF4441" stroke="#fff" d="M91.598 75.19l3.91-15.383.466-1.87 1.04-2.485-.27-.514-1.113-.02-.565-.74.202-.646.223-1.435 1.97-2.426.81-.484.504-.506.657-1.576 1.79-2.505 1.576-1.71.1-1.524-1.443-1.09-.79-2.053-5.597-1.597-6.67-1.566-6.82.05-.202-.605-2.425.91-1.972-.253-1.06-.707-.557.303-2.07-.1-.76-.607-2.324-.91-.354.052-1.92-.657-.86.808-2.728-.15-2.627-1.82.303-.354.1-3.437-1.01-1.717-1.82-.252-.302-1.11-1.04-.208-2.564.91-1 2.86-1.43 4.43-1.428 2.857-2.215 6.217-2.857 6.002-3.572 5.573-.857 1.287-.357 3.788.17 5.34L91.6 75.19z"/><path id="WA" fill="#ECC34F" stroke="#fff" d="M70.98.97l1.928.642 4.287 1.215 3.787.857 8.86 2.5L99.99 8.687l6.73 1.417-6.027 28.105-5.5-1.558-6.854-1.58-6.733.016-.2-.595-2.476.964-2.03-.325-.95-.702-.58.29-2.092-.06-.75-.598-2.327-.934-.324.065-1.94-.673-.837.803-2.77-.132-2.62-1.824.344-.412.054-3.394-1.01-1.697-1.818-.268-.3-1.11-1.005-.2-1.572.543-1-1.423.143-1.286 1.215-.143.715-1.787-1.143-.5.07-1.643 1.93-.286-1.214-1.214-.643-3.144.286-1.288V8.614l-.785-1.43 1-4.144.93.214 1.07 1.286 1.216 1.143 1.43.858 2 .93 1.358.286 1.286.643 1.5.428 1-.07V7.684l.57-.5.93-.572.143.5.143.786-1 .213-.143.93.786.642.5 1.07.286.86.642-.073.072-.57-.43-.572-.214-1.428.357-.786-.286-.644v-1l.788-1.572-.5-1.143-1.072-2.144.143-.357.5-.357zM66.8 3.61l.892-.07.215.607.68-.715h1.035l.357.68-.68.75.286.357-.322.892-.607.18s-.393.034-.393-.108c0-.143.644-1.143.644-1.143l-.75-.25-.143.644-.322.286-.68-1-.214-1.11z"/><path id="CA" fill="#CD3740" stroke="#fff" d="M89.818 166.538l1.74-.216.658-.89.24-1.3-1.57-.26-.227-.296.21-.898-.07-.26.85-.275 1.344-1.25.257-2.21.61-1.503.86-.958 1.555-.702.73-.71.03-.932-.438-.257-.452-.473-.51-2.585-1.187-2.135.25-1.55-1.07-.454-30.525-46.048 8.355-29.88-29.65-6.938-.666 2.092-.072 3.286-2.286 5.216-1.357 1.143-.144.5-.786.358-.643 1.857-.357 1.43 1.215 1.857.715 1.858.5 1.572-.143 2.858-.786 1.358-.286 2.572-.43 1.644.787 1.713 1.213 2 1 2.145.572 1.786-.143 1.43-.143.214v.93l2.5 2.786-.215 1.07-.286 1-.287.86.07 3.643.93 1.643.857 1.143 1.215.214.428 1.215-.5 1.572-.93.714h-.5l-.356 1.715.214 1.287 1.43 1.93.714 2.356.644 2.073.572 1.356 1.5 2.572.643 1.143.214 1.288.714.43v1.07l-.356.857-.786 3.145-.214.856 1.072 1.216 1.857.214 2 .786 1.716.93h1.286l1.286 1.357 1.143 2.143.5 1 1.715.93 2.144.356.643.928.286 1.43-.644.286.142.428 1.43.357 1.214.07 1.396-.745 1.715 1.857.357 1 1.143 1.858.143 1.43v4.144l.214.786 4.43.643 8.718 1.215 6.126.6zM50.86 147.215l.572.68-.07.57-1.43-.035-.25-.535-.286-.644 1.465-.035zm.86 0l.535-.285 1.572.93 1.357.535-.393.286-2-.106-.714-.715-.357-.645zm9.145 8.754l.786 1.035.358.43.68.25.25-.644-.43-.785-1.178-.894-.465.072v.537zm-.643 3.822l.786 1.394.536.856-.643.107-.57-.537s-.323-.644-.323-.82v-.966l.215-.035z"/><text transform="translate(370.623 115.704)" fill="#fff" class="heavy" font-size="6.848">VA</text><text transform="translate(365.821 122.069)" fill="#fff" font-size="6.848">47.2%</text><text transform="translate(369.238 128.434)" fill="#fff" font-size="6.848">#25</text><text transform="translate(368.316 140.315)" fill="#fff" class="heavy" font-size="6.848">NC</text><text transform="translate(357.207 146.68)" fill="#fff" font-size="6.848">47.3% #24</text><text transform="translate(352.106 156.612)" fill="#fff" class="heavy" font-size="6.848">SC</text><text transform="translate(350.221 162.977)" fill="#fff" font-size="6.848">48.0%</text><text transform="translate(355.994 169.342)" fill="#fff" font-size="6.848">#13</text><text transform="translate(336.697 170.248)" fill="#fff" class="heavy" font-size="6.848">GA</text><text transform="translate(332.231 176.613)" fill="#fff" font-size="6.848">47.4%</text><text transform="translate(335.647 182.977)" fill="#fff" font-size="6.848">#22</text><text transform="translate(361.126 219.492)" fill="#fff" class="heavy" font-size="6.848">FL</text><text transform="translate(358.462 225.655)" fill="#fff" font-size="6.848">42.6%</text><text transform="translate(362.897 231.819)" fill="#fff" font-size="6.848">#41</text><text transform="translate(311.794 171.578)" fill="#fff" class="heavy" font-size="6.848">AL</text><text transform="translate(306.621 177.943)" fill="#fff" font-size="6.848">45.7%</text><text transform="translate(310.038 184.308)" fill="#fff" font-size="6.848">#39</text><text transform="translate(287.693 173.242)" fill="#fff" class="heavy" font-size="6.848">MS</text><text transform="translate(283.34 179.606)" fill="#fff" font-size="6.848">46.8%</text><text transform="translate(286.757 185.972)" fill="#fff" font-size="6.848">#29</text><text transform="translate(303.087 146.925)" fill="#fff" class="heavy" font-size="6.848">TN</text><text transform="translate(312.338 146.925)" fill="#fff" font-size="6.848">42.6%</text><text transform="translate(311.789 153.088)" fill="#fff" font-size="6.848">#41</text><text transform="translate(316.975 129.54)" fill="#fff" class="heavy" font-size="6.848">KY</text><text transform="translate(305.612 135.702)" fill="#fff" font-size="6.848">48.3% #11</text><text transform="translate(329.959 99.74)" fill="#fff" class="heavy" font-size="6.848">OH</text><text transform="translate(325.911 106.105)" fill="#fff" font-size="6.848">48.0%</text><text transform="translate(329.328 112.47)" fill="#fff" font-size="6.848">#13</text><text transform="translate(308.177 105.35)" fill="#fff" class="heavy" font-size="6.848">IN</text><text transform="translate(302.466 111.513)" fill="#fff" font-size="6.848">46.6%</text><text transform="translate(305.883 117.677)" fill="#fff" font-size="6.848">#33</text><text transform="translate(286.543 103.399)" fill="#fff" class="heavy" font-size="6.848">IL</text><text transform="translate(280.014 109.763)" fill="#fff" font-size="6.848">46.8%</text><text transform="translate(283.432 116.128)" fill="#fff" font-size="6.848">#29</text><text transform="translate(258.856 122.022)" fill="#fff" class="heavy" font-size="6.848">MO</text><text transform="translate(255.402 128.388)" fill="#fff" font-size="6.848">47.5%</text><text transform="translate(258.819 134.753)" fill="#fff" font-size="6.848">#21</text><text transform="translate(263.097 157.276)" fill="#fff" class="heavy" font-size="6.848">AR</text><text transform="translate(258.396 163.643)" fill="#fff" font-size="6.848">48.0%</text><text transform="translate(261.813 170.007)" fill="#fff" font-size="6.848">#13</text><text transform="translate(260.568 198.148)" fill="#fff" class="heavy" font-size="6.848">LA</text><text transform="translate(260.568 204.311)" fill="#fff" font-size="6.848">46.0% #38</text><text transform="translate(252.291 86.769)" fill="#fff" class="heavy" font-size="6.848">IA</text><text transform="translate(246.422 93.134)" fill="#fff" font-size="6.848">47.2%</text><text transform="translate(249.84 99.499)" fill="#fff" font-size="6.848">#25</text><text transform="translate(243.04 52.18)" fill="#fff" class="heavy" font-size="6.848">MN</text><text transform="translate(239.438 58.545)" fill="#fff" font-size="6.848">49.7%</text><text transform="translate(244.841 64.91)" fill="#fff" font-size="6.848">#5</text><text transform="translate(277.745 64.818)" fill="#fff" class="heavy" font-size="6.848">WI</text><text transform="translate(273.029 71.183)" fill="#fff" font-size="6.848">48.4%</text><text transform="translate(276.446 77.547)" fill="#fff" font-size="6.848">#10</text><text transform="translate(313.066 74.13)" fill="#fff" class="heavy" font-size="6.848">MI</text><text transform="translate(307.951 80.495)" fill="#fff" font-size="6.848">46.5%</text><text transform="translate(311.368 86.86)" fill="#fff" font-size="6.848">#35</text><text transform="translate(368.894 85.772)" fill="#fff" class="heavy" font-size="6.848">PA</text><text transform="translate(363.825 92.136)" fill="#fff" font-size="6.848">46.5%</text><text transform="translate(367.243 98.501)" fill="#fff" font-size="6.848">#35</text><text transform="translate(383.005 59.164)" fill="#fff" class="heavy" font-size="6.848">NY</text><text transform="translate(378.46 65.528)" fill="#fff" font-size="6.848">50.2%</text><text transform="translate(383.862 71.894)" fill="#fff" font-size="6.848">#3</text><text transform="translate(415.709 29.242)" fill="#fff" class="heavy" font-size="6.848">ME</text><text transform="translate(411.478 35.406)" fill="#fff" font-size="6.848">48.6%</text><text transform="translate(416.881 41.569)" fill="#fff" font-size="6.848">#9</text><text transform="translate(209.861 187.543)" fill="#fff" class="heavy" font-size="6.848">TX</text><text transform="translate(204.849 193.907)" fill="#fff" font-size="6.848">42.6%</text><text transform="translate(208.267 200.273)" fill="#fff" font-size="6.848">#41</text><text transform="translate(223.398 151.291)" fill="#fff" class="heavy" font-size="6.848">OK</text><text transform="translate(219.15 157.655)" fill="#fff" font-size="6.848">46.9%</text><text transform="translate(222.567 164.02)" fill="#fff" font-size="6.848">#27</text><text transform="translate(215.983 122.688)" fill="#fff" class="heavy" font-size="6.848">KS</text><text transform="translate(210.835 129.054)" fill="#fff" font-size="6.848">42.6%</text><text transform="translate(214.253 135.419)" fill="#fff" font-size="6.848">#41</text><text transform="translate(208.345 93.42)" fill="#fff" class="heavy" font-size="6.848">NE</text><text transform="translate(203.519 99.786)" fill="#fff" font-size="6.848">47.9%</text><text transform="translate(206.935 106.15)" fill="#fff" font-size="6.848">#16</text><text transform="translate(206.834 63.82)" fill="#fff" class="heavy" font-size="6.848">SD</text><text transform="translate(201.856 70.186)" fill="#fff" font-size="6.848">42.6%</text><text transform="translate(205.273 76.551)" fill="#fff" font-size="6.848">#41</text><text transform="translate(205.75 35.551)" fill="#fff" class="heavy" font-size="6.848">ND</text><text transform="translate(201.523 41.916)" fill="#fff" font-size="6.848">45.7%</text><text transform="translate(204.94 48.28)" fill="#fff" font-size="6.848">#39</text><text transform="translate(148.139 32.89)" fill="#fff" class="heavy" font-size="6.848">MT</text><text transform="translate(143.986 39.255)" fill="#fff" font-size="6.848">47.9%</text><text transform="translate(147.403 45.62)" fill="#fff" font-size="6.848">#16</text><text transform="translate(152.193 73.133)" fill="#fff" class="heavy" font-size="6.848">WY</text><text transform="translate(148.642 79.498)" fill="#fff" font-size="6.848">42.6%</text><text transform="translate(152.059 85.862)" fill="#fff" font-size="6.848">#41</text><text transform="translate(164.292 113.709)" fill="#fff" class="heavy" font-size="6.848">CO</text><text transform="translate(159.95 120.073)" fill="#fff" font-size="6.848">46.6%</text><text transform="translate(163.367 126.439)" fill="#fff" font-size="6.848">#33</text><text transform="translate(154.572 155.614)" fill="#fff" class="heavy" font-size="6.848">NM</text><text transform="translate(150.97 161.98)" fill="#fff" font-size="6.848">46.7%</text><text transform="translate(154.387 168.345)" fill="#fff" font-size="6.848">#32</text><text transform="translate(111.9 152.288)" fill="#fff" class="heavy" font-size="6.848">AZ</text><text transform="translate(107.069 158.653)" fill="#fff" font-size="6.848">46.5%</text><text transform="translate(110.486 165.018)" fill="#fff" font-size="6.848">#35</text><text transform="translate(121.891 107.057)" fill="#fff" class="heavy" font-size="6.848">UT</text><text transform="translate(117.046 113.422)" fill="#fff" font-size="6.848">46.8%</text><text transform="translate(120.463 119.787)" fill="#fff" font-size="6.848">#29</text><text transform="translate(83.487 97.079)" fill="#fff" class="heavy" font-size="6.848">NV</text><text transform="translate(79.131 103.443)" fill="#fff" font-size="6.848">42.6%</text><text transform="translate(82.549 109.809)" fill="#fff" font-size="6.848">#41</text><text transform="translate(107.488 56.171)" fill="#fff" class="heavy" font-size="6.848">ID</text><text transform="translate(101.747 62.536)" fill="#fff" font-size="6.848">48.2%</text><text transform="translate(105.164 68.9)" fill="#fff" font-size="6.848">#12</text><text transform="translate(68.892 49.519)" fill="#fff" class="heavy" font-size="6.848">OR</text><text transform="translate(64.498 55.884)" fill="#fff" font-size="6.848">49.8%</text><text transform="translate(69.9 62.249)" fill="#fff" font-size="6.848">#4</text><text transform="translate(76.042 15.596)" fill="#fff" class="heavy" font-size="6.848">WA</text><text transform="translate(72.48 21.96)" fill="#fff" font-size="6.848">42.6%</text><text transform="translate(75.897 28.326)" fill="#fff" font-size="6.848">#41</text><text transform="translate(52.184 110.715)" fill="#fff" class="heavy" font-size="6.848">CA</text><text transform="translate(47.536 117.08)" fill="#fff" font-size="6.848">51.9%</text><text transform="translate(52.938 123.445)" fill="#fff" font-size="6.848">#1</text><text transform="translate(41.013 191.002)" fill="#fff" class="heavy" font-size="7.069">AK</text><text transform="translate(36.313 197.573)" fill="#fff" font-size="7.069">42.6%</text><text transform="translate(39.839 204.144)" fill="#fff" font-size="7.069">#41</text><text transform="translate(119.802 226.709)" fill="#4E4E4E" class="heavy" font-size="7.069">HI</text><text transform="translate(113.908 233.281)" fill="#4E4E4E" font-size="7.069">50.4%</text><text transform="translate(119.485 239.85)" fill="#4E4E4E" font-size="7.069">#2</text><text transform="translate(348.777 114.196)" fill="#fff" class="heavy" font-size="6.848">WV</text><text transform="translate(343.777 120.017)" fill="#fff" font-size="6.848">47.7</text><text transform="translate(357.144 120.017)" fill="#fff" font-size="5.935">%</text><text transform="translate(343.777 125.838)" fill="#fff" font-size="5.935">#</text><text transform="translate(348.365 125.838)" fill="#fff" font-size="6.848">20</text><path id="marect" fill="#DB7B47" stroke="#fff" d="M476.86 12.927h7.952v7.954h-7.953z"/><text transform="translate(452.973 27.86)" fill="#4E4E4E" font-size="6.848">46.9% #27</text><text transform="translate(463.82 19.379)" fill="#4E4E4E" class="heavy" font-size="6.848">MA</text><path id="rirect" fill="#DA7046" stroke="#fff" d="M476.86 31.188h7.952v7.954h-7.953z"/><text transform="translate(452.973 46.121)" fill="#4E4E4E" font-size="6.848">47.4% #22</text><text transform="translate(469.014 37.64)" fill="#4E4E4E" class="heavy" font-size="6.848">RI</text><path id="ctrect" fill="#D76645" stroke="#fff" d="M476.86 49.45h7.952V57.4h-7.953z"/><text transform="translate(452.973 64.383)" fill="#4E4E4E" font-size="6.848">47.8% #18</text><text transform="translate(466.458 55.901)" fill="#4E4E4E" class="heavy" font-size="6.848">CT</text><path id="njrect" fill="#D14C42" stroke="#fff" d="M476.86 67.71h7.952v7.954h-7.953z"/><text transform="translate(456.944 82.644)" fill="#4E4E4E" font-size="6.848">49.2% #6</text><text transform="translate(467.367 74.135)" fill="#4E4E4E" class="heavy" font-size="6.848">NJ</text><path id="derect" fill="#D76645" stroke="#fff" d="M476.86 85.972h7.952v7.954h-7.953z"/><text transform="translate(452.973 100.904)" fill="#4E4E4E" font-size="6.848">47.8% #18</text><text transform="translate(466.29 92.424)" fill="#4E4E4E" class="heavy" font-size="6.848">DE</text><path id="mdrect" fill="#D24E42" stroke="#fff" d="M476.86 104.233h7.952v7.953h-7.953z"/><text transform="translate(456.944 119.166)" fill="#4E4E4E" font-size="6.848">49.1% #8</text><text transform="translate(463.772 110.685)" fill="#4E4E4E" class="heavy" font-size="6.848">MD</text><path id="dcrect" fill="#D14C42" stroke="#fff" d="M476.86 122.494h7.952v7.954h-7.953z"/><text transform="translate(429.159 137.539)" fill="#4E4E4E" font-size="6.848">49.2% (Not ranked)</text><text transform="translate(465.486 128.946)" fill="#4E4E4E" class="heavy" font-size="6.848">DC</text><path id="vtrect" fill="#D14C42" stroke="#fff" d="M345.377 11.358h7.954v7.953h-7.953z"/><text transform="translate(325.491 25.303)" fill="#4E4E4E" font-size="6.848">49.2% #6</text><text transform="translate(335.057 18.53)" fill="#4E4E4E" class="heavy" font-size="6.848">VT</text><path id="nhrect" fill="#ECC34F" stroke="#fff" d="M386.465 11.358h7.954v7.953h-7.955z"/><text transform="translate(362.607 25.303)" fill="#4E4E4E" font-size="6.848">42.6% #41</text><text transform="translate(374.894 18.53)" fill="#4E4E4E" class="heavy" font-size="6.848">NH</text><text transform="translate(388.225 172.82)" fill="#4E4E4E" font-size="6.696">Combined Top Marginal Federal and State</text><text transform="translate(393.637 181.192)" fill="#4E4E4E" font-size="6.696">Tax Rates on Pass-through Businesses</text><path id="dcrect-1_1_" fill="#ECC34F" stroke="#fff" stroke-width="1.443" d="M384.38 184.78h9.384v13.425h-9.385z"/><path id="dcrect-1-7_1_" fill="#E3994B" stroke="#fff" stroke-width="1.443" d="M396.39 184.78h9.387v13.425h-9.387z"/><path id="dcrect-1-4_1_" fill="#DF8549" stroke="#fff" stroke-width="1.443" d="M408.402 184.78h9.386v13.425h-9.386z"/><path id="dcrect-1-0_1_" fill="#DB7E48" stroke="#fff" stroke-width="1.443" d="M420.414 184.78h9.385v13.425h-9.386z"/><path id="dcrect-1-7-9_1_" fill="#DB7246" stroke="#fff" stroke-width="1.443" d="M432.426 184.78h9.385v13.425h-9.384z"/><path id="dcrect-1-4-4_1_" fill="#D76645" stroke="#fff" stroke-width="1.443" d="M444.438 184.78h9.385v13.425h-9.385z"/><path id="dcrect-1-8_1_" fill="#D56245" stroke="#fff" stroke-width="1.443" d="M456.448 184.78h9.386v13.425h-9.386z"/><path id="dcrect-1-7-8_1_" fill="#D45A45" stroke="#fff" stroke-width="1.443" d="M468.46 184.78h9.386v13.425h-9.387z"/><path id="dcrect-1-4-2_1_" fill="#D14C42" stroke="#fff" stroke-width="1.443" d="M480.472 184.78h9.385v13.425h-9.385z"/><path id="dcrect-1-45_1_" fill="#CF4441" stroke="#fff" stroke-width="1.443" d="M492.483 184.78h9.385v13.425h-9.385z"/><path id="dcrect-1-7-5_1_" fill="#CD3740" stroke="#fff" stroke-width="1.443" d="M504.495 184.78h9.384v13.425h-9.385z"/><text transform="translate(379.297 207.186)" fill="#4E4E4E" font-size="6.696">Lower</text><text transform="translate(381.63 215.558)" fill="#4E4E4E" font-size="6.696">Rate</text><text transform="translate(498.308 206.67)" fill="#4E4E4E" font-size="6.696">Higher</text><text transform="translate(501.514 215.04)" fill="#4E4E4E" font-size="6.696">Rate</text></svg>