<svg xmlns="http://www.w3.org/2000/svg" width="561" height="252" viewBox="0 0 561 252"><path fill="none" stroke="#6D6E71" stroke-miterlimit="10" stroke-dasharray="1,1" d="M404.744 127.28l26.94 16.19"/><path fill="none" stroke="#D9D9D8" stroke-width=".5" stroke-miterlimit="10" d="M35.917 198.917h512.98m-512.98-38.05h512.98m-512.98-37.973h512.98m-512.98-38.05h512.98m-512.98-38.05h512.98M35.916 8.822h512.98"/><path fill="none" stroke="#9B9B9B" stroke-linejoin="round" stroke-miterlimit="10" d="M35.917 236.967h512.98M35.917 234.622v4.614m73.283-4.614v4.614m73.283-4.614v4.614m73.283-4.614v4.614m73.283-4.614v4.614m73.28-4.614v4.614m73.284-4.614v4.614m73.282-4.614v4.614"/><path fill="none" stroke="#007BC3" stroke-width="2.16" stroke-linecap="round" stroke-linejoin="round" stroke-miterlimit="10" d="M35.917 139.61l14.677 9.154 14.676-15.13L79.947 88.93l14.576 7.867L109.2 123.8l14.677 20.35 14.676 9.68 14.677-17.396 14.576-19.744 14.677 3.934 14.677-9.91 14.677-6.278 14.676 22.693 14.576 5.294 14.676.68 14.677-9.303 14.677-9.53 14.677-20.122 14.576-8.17 14.677-12.405 14.677-10.742 14.676-7.715 14.677-2.8m58.605 91.154l14.677-60.517 14.576-9.456 14.677-30.03 14.677-2.346 14.677 88.052 14.676-60.364 14.576-1.06 14.676-37.217"/><path clip-rule="evenodd" fill="none" d="M35.917 237.345H549.5V8.745H35.917v228.6"/><path fill="none" stroke="#EF4438" stroke-width="2.16" stroke-linecap="round" stroke-linejoin="round" stroke-miterlimit="10" d="M35.917 116.615l14.677-9.077 14.677-.53 14.677 5.295 14.576 6.28 14.677.982 14.677 10.515 14.676-12.935 14.677-10.894 14.576-1.89 14.677-9.607 14.677-.68 14.676-5.068 14.677 21.33 14.576 13.542 14.676-3.48 14.676-7.337 14.677-4.236 14.676-8.775 14.576 2.57 14.677-3.1 14.676 1.058 14.675 5.976 14.678.454 14.576 7.867 14.677 27.08 14.678-7.563 14.677-3.783 14.676-24.434 14.578-23.223 14.676-15.204 14.677 15.127 14.678 31.393 14.677 8.473 14.576-6.43 14.676 1.815"/><path clip-rule="evenodd" fill="none" d="M35.917 237.345H549.5V8.745H35.917v228.6"/><g fill="#4E4E4E"><path d="M18.73 240.448c-.402-.036-.77-.136-1.102-.297-.332-.16-.618-.367-.857-.617l.27-.41c.028-.036.06-.066.1-.09.04-.022.084-.034.13-.034.064 0 .136.03.216.094s.178.136.295.218c.118.08.257.16.418.237.162.075.356.127.583.154l.186-2.655c-.233-.07-.462-.15-.688-.238-.225-.09-.427-.204-.605-.346s-.322-.32-.43-.534c-.108-.216-.163-.484-.163-.808 0-.243.048-.48.143-.713.095-.23.234-.437.417-.616.184-.18.408-.328.675-.442.267-.115.57-.18.915-.193l.05-.72c.003-.064.027-.12.072-.17.045-.05.104-.076.178-.076h.33l-.07.99c.35.043.653.134.908.27s.48.303.678.495l-.215.33c-.065.1-.142.15-.23.15-.045 0-.103-.022-.17-.064s-.15-.09-.246-.146c-.095-.055-.207-.11-.335-.164-.13-.056-.275-.095-.44-.118l-.164 2.42c.24.073.477.153.71.24s.443.198.63.335.338.308.453.513c.114.205.17.46.17.768 0 .3-.05.58-.15.845s-.245.494-.437.694c-.19.2-.427.362-.705.487s-.596.198-.952.22l-.06.88c-.003.062-.028.118-.075.166-.045.05-.104.073-.174.073h-.33l.075-1.132zm-.81-5.415c0 .16.03.3.086.418s.135.224.235.314.218.168.35.235c.134.065.28.125.436.18l.15-2.256c-.217.02-.404.063-.563.13s-.29.15-.39.25-.177.213-.228.338c-.05.125-.074.255-.074.39zm2.776 3.32c0-.165-.03-.31-.093-.43-.062-.12-.146-.223-.252-.31-.105-.086-.23-.16-.374-.225-.143-.063-.296-.122-.46-.175l-.17 2.49c.22-.02.414-.068.58-.143.167-.075.308-.17.422-.288.115-.116.202-.252.26-.407.06-.154.088-.325.088-.51zM27.58 236.81c0 .626-.066 1.168-.202 1.627-.135.458-.32.837-.552 1.137-.233.3-.51.523-.828.67-.318.147-.66.22-1.022.22-.367 0-.708-.072-1.022-.22-.315-.146-.59-.37-.823-.67-.232-.3-.416-.68-.55-1.137-.132-.46-.2-1-.2-1.628s.068-1.17.2-1.63.317-.842.55-1.144.51-.525.824-.673c.315-.146.656-.22 1.022-.22.363 0 .704.073 1.022.22.318.147.594.37.828.673s.417.683.552 1.143c.136.46.203 1.002.203 1.63zm-.924 0c0-.548-.046-1.007-.138-1.378-.092-.372-.215-.67-.37-.898-.155-.227-.334-.39-.538-.487-.203-.098-.415-.147-.635-.147s-.432.05-.635.147c-.203.1-.38.26-.535.487-.153.228-.276.526-.368.898-.092.37-.137.83-.137 1.377s.045 1.004.137 1.374.214.668.368.896c.153.227.332.39.535.487.204.098.415.147.635.147s.432-.05.635-.147c.204-.1.383-.26.538-.487.155-.228.278-.525.37-.896s.138-.83.138-1.375z"/></g><g fill="#4E4E4E"><path d="M12.96 202.423c-.402-.036-.77-.136-1.102-.297-.332-.162-.618-.368-.857-.618l.27-.41c.028-.036.06-.066.1-.09.04-.022.084-.034.13-.034.064 0 .136.03.216.095s.178.135.295.217c.118.08.257.16.418.237.162.076.356.128.583.155l.186-2.656c-.233-.07-.462-.15-.688-.237-.225-.09-.427-.204-.605-.346s-.322-.318-.43-.533c-.108-.216-.163-.484-.163-.808 0-.244.048-.482.143-.714.095-.23.234-.438.417-.617.184-.182.408-.33.675-.443.267-.115.57-.18.915-.193l.05-.72c.003-.063.027-.12.072-.17.045-.05.104-.075.178-.075h.33l-.07.99c.35.042.653.133.908.27s.48.302.678.494l-.215.33c-.065.1-.142.15-.23.15-.045 0-.103-.02-.17-.063s-.15-.09-.246-.145c-.095-.055-.207-.11-.335-.164-.13-.055-.275-.094-.44-.117l-.164 2.42c.24.073.477.153.71.24s.443.198.63.335.338.308.453.513c.114.206.17.462.17.77 0 .3-.05.58-.15.844s-.245.495-.437.695c-.19.2-.427.36-.705.486s-.596.197-.952.218l-.06.88c-.003.063-.028.12-.075.167-.045.05-.104.074-.174.074h-.33l.075-1.13zm-.81-5.415c0 .16.03.3.086.418s.135.223.235.313.218.167.35.234c.134.066.28.126.436.18l.15-2.255c-.217.02-.404.062-.563.13s-.29.15-.39.25-.177.212-.228.337c-.05.124-.074.255-.074.39zm2.776 3.32c0-.166-.03-.31-.093-.43-.062-.12-.146-.224-.252-.31-.105-.087-.23-.162-.374-.226-.143-.063-.296-.122-.46-.175l-.17 2.49c.22-.02.414-.068.58-.143.167-.075.308-.17.422-.288.115-.116.202-.252.26-.407.06-.154.088-.325.088-.512zM21.22 195.588c0 .127-.04.23-.117.313-.078.083-.212.124-.402.124h-2.25l-.33 1.88c.19-.043.37-.074.54-.093.167-.017.332-.026.49-.026.375 0 .705.055.99.165s.527.26.718.454c.192.193.337.422.435.685.098.263.147.55.147.86 0 .38-.066.723-.197 1.03-.132.306-.313.568-.545.786-.232.22-.504.386-.818.503-.313.115-.65.174-1.015.174-.21 0-.412-.02-.605-.063-.193-.04-.375-.097-.542-.167-.168-.07-.324-.15-.468-.24-.143-.09-.27-.185-.38-.284l.275-.38c.06-.088.138-.13.235-.13.067 0 .142.024.225.076s.185.11.305.173c.12.062.26.12.422.17s.354.08.578.08c.25 0 .475-.04.675-.12.2-.08.372-.195.515-.344.143-.148.253-.326.33-.532.077-.207.115-.438.115-.695 0-.225-.032-.426-.097-.606s-.164-.333-.295-.46c-.13-.126-.295-.225-.492-.295-.196-.07-.426-.105-.69-.105-.18 0-.367.015-.562.045-.195.03-.395.078-.598.145l-.56-.165.575-3.35h3.395v.388zM27.58 198.783c0 .627-.066 1.17-.202 1.628-.135.46-.32.838-.552 1.138-.233.3-.51.523-.828.67-.318.147-.66.22-1.022.22-.367 0-.708-.072-1.022-.22-.315-.146-.59-.37-.823-.67-.232-.3-.416-.68-.55-1.137-.132-.458-.2-1-.2-1.627s.068-1.17.2-1.63.317-.84.55-1.143.51-.525.824-.673c.315-.146.656-.22 1.022-.22.363 0 .704.073 1.022.22.318.147.594.37.828.673s.417.683.552 1.143c.136.46.203 1.003.203 1.63zm-.924 0c0-.547-.046-1.006-.138-1.377-.092-.372-.215-.67-.37-.898-.155-.227-.334-.39-.538-.487-.203-.097-.415-.146-.635-.146s-.432.05-.635.147c-.203.1-.38.262-.535.488-.153.228-.276.526-.368.898-.092.37-.137.83-.137 1.377s.045 1.005.137 1.375.214.668.368.896c.153.227.332.39.535.487.204.1.415.148.635.148s.432-.05.635-.147c.204-.098.383-.26.538-.486.155-.228.278-.525.37-.896s.138-.828.138-1.375z"/></g><g fill="#4E4E4E"><path d="M7.102 164.397c-.403-.036-.77-.136-1.103-.297-.333-.162-.62-.368-.858-.618l.27-.41c.027-.036.06-.066.1-.09.04-.022.083-.034.13-.034.063 0 .135.03.215.095s.178.136.295.218c.117.082.256.16.417.238.16.076.355.128.582.155l.185-2.655c-.233-.07-.462-.15-.688-.237-.226-.088-.428-.203-.606-.345s-.322-.32-.43-.534c-.108-.215-.163-.483-.163-.807 0-.243.05-.48.144-.713.095-.23.234-.438.417-.617.185-.18.41-.328.676-.442.267-.114.57-.18.915-.192l.05-.72c.004-.063.028-.12.073-.17.045-.05.104-.075.178-.075h.33l-.07.99c.35.043.654.134.91.27s.48.303.677.495l-.215.33c-.066.1-.143.15-.23.15-.046 0-.104-.02-.172-.063s-.15-.09-.245-.146c-.095-.056-.207-.11-.335-.165-.128-.056-.274-.095-.438-.118l-.165 2.42c.24.073.477.153.71.24s.443.198.63.335.338.308.453.513c.115.205.172.46.172.768 0 .3-.05.58-.15.845s-.246.495-.438.695c-.19.2-.427.362-.705.487s-.597.197-.953.218l-.06.88c-.003.063-.028.12-.075.167-.046.05-.105.073-.175.073h-.33l.075-1.13zm-.81-5.415c0 .16.028.3.085.418s.135.223.235.313.217.168.35.235c.133.066.278.126.435.18l.15-2.255c-.217.02-.404.063-.563.13s-.29.15-.39.25-.177.213-.228.338c-.05.126-.074.257-.074.392zm2.774 3.32c0-.165-.03-.31-.093-.43-.062-.12-.146-.223-.252-.31-.105-.086-.23-.16-.374-.225-.143-.063-.296-.122-.46-.175l-.17 2.49c.22-.02.414-.068.58-.143.167-.076.308-.172.422-.29.115-.115.202-.25.26-.406.06-.154.088-.325.088-.51zM11.7 163.658h1.536v-4.886c0-.14.005-.288.015-.444l-1.274 1.095c-.043.037-.086.06-.13.067-.043.01-.083.01-.12.003s-.07-.02-.103-.04c-.032-.02-.056-.042-.072-.065l-.28-.385 2.136-1.845h.725v6.5h1.41v.68H11.7v-.68zM21.72 160.758c0 .627-.066 1.17-.202 1.628-.135.458-.32.837-.552 1.137-.233.3-.51.523-.828.67-.318.147-.66.22-1.022.22-.367 0-.708-.072-1.022-.22-.315-.146-.59-.37-.823-.67-.232-.3-.416-.68-.55-1.137-.132-.46-.2-1-.2-1.628s.068-1.17.2-1.63.317-.84.55-1.143.51-.525.824-.673c.315-.146.656-.22 1.022-.22.363 0 .704.073 1.022.22.318.147.594.37.828.673s.417.683.552 1.143c.136.46.203 1.003.203 1.63zm-.924 0c0-.547-.046-1.006-.138-1.377-.092-.37-.215-.67-.37-.897-.155-.227-.334-.39-.538-.487-.203-.098-.415-.147-.635-.147s-.432.05-.635.146c-.203.1-.38.26-.535.487-.153.228-.276.526-.368.898-.092.372-.137.83-.137 1.378s.045 1.005.137 1.375.214.668.368.896c.153.226.332.388.535.486.204.098.415.147.635.147s.432-.05.635-.147c.204-.1.383-.26.538-.487.155-.23.278-.526.37-.897s.138-.828.138-1.375zM27.58 160.758c0 .627-.066 1.17-.202 1.628-.135.458-.32.837-.552 1.137-.233.3-.51.523-.828.67-.318.147-.66.22-1.022.22-.367 0-.708-.072-1.022-.22-.315-.146-.59-.37-.823-.67-.232-.3-.416-.68-.55-1.137-.132-.46-.2-1-.2-1.628s.068-1.17.2-1.63.317-.84.55-1.143.51-.525.824-.673c.315-.146.656-.22 1.022-.22.363 0 .704.073 1.022.22.318.147.594.37.828.673s.417.683.552 1.143c.135.46.203 1.003.203 1.63zm-.924 0c0-.547-.046-1.006-.138-1.377-.092-.37-.215-.67-.37-.897-.155-.227-.334-.39-.538-.487-.203-.098-.415-.147-.635-.147s-.432.05-.635.146c-.203.1-.38.26-.535.487-.153.228-.276.526-.368.898-.092.372-.137.83-.137 1.378s.045 1.005.137 1.375.214.668.368.896c.153.226.332.388.535.486.204.098.415.147.635.147s.432-.05.635-.147c.204-.1.383-.26.538-.487.155-.23.278-.526.37-.897s.138-.828.138-1.375z"/></g><g fill="#4E4E4E"><path d="M7.102 126.373c-.403-.037-.77-.136-1.103-.297-.333-.162-.62-.368-.858-.618l.27-.41c.027-.037.06-.066.1-.09s.083-.035.13-.035c.063 0 .135.032.215.095s.178.136.295.217c.117.082.256.16.417.238s.355.128.582.155l.185-2.655c-.233-.07-.462-.15-.688-.238s-.428-.203-.606-.345-.322-.32-.43-.535-.163-.484-.163-.808c0-.243.05-.48.144-.712.095-.23.234-.438.417-.618.185-.18.41-.327.676-.442.267-.115.57-.18.915-.192l.05-.72c.004-.063.028-.12.073-.17.045-.05.104-.075.178-.075h.33l-.07.99c.35.043.654.133.91.27s.48.302.677.495l-.215.33c-.066.1-.143.15-.23.15-.046 0-.104-.02-.172-.063s-.15-.09-.245-.145c-.095-.055-.207-.11-.335-.165s-.274-.094-.438-.118l-.165 2.42c.24.073.477.153.71.24.233.087.443.198.63.335s.338.308.453.513c.115.205.172.46.172.768 0 .3-.05.582-.15.845-.1.264-.246.495-.438.695-.19.2-.427.362-.705.487s-.597.197-.953.217l-.06.88c-.003.063-.028.12-.075.167-.046.048-.105.07-.175.07h-.33l.075-1.127zm-.81-5.415c0 .16.028.3.085.417s.135.223.235.313.217.168.35.235c.133.067.278.127.435.18l.15-2.255c-.217.02-.404.063-.563.13s-.29.15-.39.25-.177.212-.228.337c-.05.125-.074.256-.074.393zm2.774 3.32c0-.168-.03-.31-.093-.43-.062-.12-.146-.225-.252-.31-.105-.088-.23-.163-.374-.226-.143-.063-.296-.122-.46-.175l-.17 2.49c.22-.02.414-.067.58-.143.167-.075.308-.17.422-.288.115-.116.202-.252.26-.407.06-.155.088-.326.088-.513zM11.7 125.632h1.536v-4.885c0-.14.005-.29.015-.445l-1.274 1.095c-.043.037-.086.06-.13.067s-.083.01-.12.002c-.037-.006-.07-.02-.103-.04-.032-.02-.056-.042-.072-.065l-.28-.384 2.136-1.845h.725v6.5h1.41v.68H11.7v-.678zM21.13 119.538c0 .126-.04.23-.117.313s-.212.124-.402.124h-2.25l-.33 1.88c.19-.043.37-.074.54-.093.167-.017.332-.026.49-.026.375 0 .705.055.99.165s.527.26.718.454c.192.193.337.422.435.685s.147.55.147.86c0 .38-.066.723-.197 1.03-.132.306-.313.568-.545.786-.232.22-.504.386-.818.502-.313.117-.65.175-1.015.175-.21 0-.412-.02-.605-.063-.193-.042-.375-.098-.542-.167-.168-.07-.324-.15-.468-.24-.143-.09-.27-.185-.38-.285l.275-.38c.06-.086.138-.13.235-.13.067 0 .142.026.225.078s.185.11.305.172c.12.063.26.12.422.172.162.052.354.078.578.078.25 0 .475-.04.675-.12.2-.08.372-.194.515-.342.143-.148.253-.326.33-.533.077-.207.115-.438.115-.695 0-.223-.032-.425-.097-.605s-.164-.333-.295-.46c-.13-.126-.295-.225-.492-.295-.196-.07-.426-.105-.69-.105-.18 0-.367.015-.562.045-.195.03-.395.078-.598.145l-.56-.165.575-3.35h3.395v.39zM27.58 122.732c0 .627-.066 1.17-.202 1.627-.135.457-.32.836-.552 1.137-.233.3-.51.523-.828.67s-.66.22-1.022.22c-.367 0-.708-.074-1.022-.22s-.59-.37-.823-.67c-.232-.3-.416-.68-.55-1.138-.132-.46-.2-1-.2-1.628 0-.626.068-1.17.2-1.63s.317-.84.55-1.143.51-.527.824-.673c.315-.147.656-.22 1.022-.22.363 0 .704.073 1.022.22.318.146.594.37.828.672s.417.682.552 1.142c.135.46.203 1.004.203 1.63zm-.924 0c0-.546-.046-1.006-.138-1.377s-.215-.67-.37-.897c-.155-.227-.334-.39-.538-.487-.203-.098-.415-.147-.635-.147s-.432.05-.635.148c-.203.1-.38.262-.535.488s-.276.526-.368.897-.137.83-.137 1.377.045 1.005.137 1.375.214.668.368.895.332.39.535.488c.204.098.415.147.635.147s.432-.05.635-.147c.204-.1.383-.26.538-.488.155-.227.278-.525.37-.895s.138-.828.138-1.375z"/></g><g fill="#4E4E4E"><path d="M7.102 88.347C6.7 88.31 6.332 88.21 6 88.05c-.333-.162-.62-.368-.858-.618l.27-.41c.027-.037.06-.066.1-.09s.083-.035.13-.035c.063 0 .135.032.215.095s.178.136.295.217c.117.08.256.16.417.237s.355.128.582.155l.185-2.655c-.233-.07-.462-.15-.688-.238s-.428-.204-.606-.346-.322-.32-.43-.535-.163-.485-.163-.81c0-.242.05-.48.144-.71.095-.232.234-.44.417-.62.185-.18.41-.326.676-.44.267-.116.57-.18.915-.193l.05-.72c.004-.063.028-.12.073-.17.045-.05.104-.075.178-.075h.33l-.07.99c.35.043.654.133.91.27s.48.302.677.495l-.215.33c-.066.1-.143.15-.23.15-.046 0-.104-.02-.172-.063s-.15-.09-.245-.145c-.095-.056-.207-.11-.335-.166s-.274-.094-.438-.118l-.165 2.42c.24.073.477.153.71.24.233.087.443.198.63.335.187.138.338.31.453.514.115.205.172.46.172.768 0 .3-.05.582-.15.845-.1.264-.246.495-.438.695-.19.2-.427.362-.705.487s-.597.196-.953.216l-.06.88c-.003.063-.028.12-.075.167-.046.048-.105.072-.175.072h-.33l.075-1.128zm-.81-5.415c0 .16.028.3.085.417s.135.222.235.312.217.168.35.235c.133.067.278.127.435.18l.15-2.255c-.217.02-.404.063-.563.13s-.29.15-.39.25-.177.212-.228.337c-.05.125-.074.255-.074.392zm2.774 3.32c0-.167-.03-.31-.093-.43-.062-.12-.146-.224-.252-.31-.105-.087-.23-.162-.374-.225-.143-.063-.296-.122-.46-.175l-.17 2.49c.22-.02.414-.067.58-.143.167-.076.308-.17.422-.29.115-.115.202-.25.26-.406.06-.155.088-.325.088-.512zM13.406 81.042c.303 0 .586.045.85.135.263.09.492.22.685.393.194.17.346.38.456.627.11.247.165.526.165.84 0 .267-.04.514-.12.743-.08.228-.187.446-.324.652s-.294.408-.473.605-.367.395-.567.595l-1.89 1.93c.133-.037.27-.066.405-.087s.27-.033.396-.033h2.4c.097 0 .173.03.23.085s.085.13.085.22v.54h-4.78v-.305c0-.063.014-.128.04-.195.028-.066.07-.128.126-.185l2.295-2.305c.19-.193.364-.38.52-.557.157-.178.29-.357.4-.538s.196-.362.256-.547.09-.383.09-.593-.033-.394-.1-.552c-.067-.158-.158-.29-.273-.393-.115-.104-.25-.18-.407-.232s-.325-.078-.505-.078c-.183 0-.35.027-.504.08s-.29.127-.407.222c-.12.094-.22.207-.298.337-.08.13-.137.273-.17.43-.04.117-.094.194-.162.232-.068.038-.165.048-.288.032l-.465-.08c.046-.327.137-.616.272-.867.134-.252.304-.463.51-.633s.438-.3.702-.387c.262-.09.548-.133.854-.133zM21.72 84.707c0 .627-.066 1.17-.202 1.627-.135.458-.32.837-.552 1.138-.233.3-.51.523-.828.67s-.66.22-1.022.22c-.367 0-.708-.074-1.022-.22s-.59-.37-.823-.67c-.232-.3-.416-.68-.55-1.138-.132-.458-.2-1-.2-1.627 0-.626.068-1.17.2-1.63s.317-.84.55-1.143.51-.526.824-.672c.315-.147.656-.22 1.022-.22.363 0 .704.073 1.022.22.318.146.594.37.828.672s.417.683.552 1.143c.136.46.203 1.004.203 1.63zm-.924 0c0-.546-.046-1.006-.138-1.377s-.215-.67-.37-.897c-.155-.227-.334-.39-.538-.487-.203-.1-.415-.148-.635-.148s-.432.05-.635.148c-.203.098-.38.26-.535.487s-.276.526-.368.897-.137.83-.137 1.377.045 1.005.137 1.375.214.668.368.895.332.39.535.488c.204.098.415.147.635.147s.432-.05.635-.147c.204-.1.383-.26.538-.488.155-.227.278-.525.37-.895s.138-.828.138-1.375zM27.58 84.707c0 .627-.066 1.17-.202 1.627-.135.458-.32.837-.552 1.138-.233.3-.51.523-.828.67s-.66.22-1.022.22c-.367 0-.708-.074-1.022-.22s-.59-.37-.823-.67c-.232-.3-.416-.68-.55-1.138-.132-.458-.2-1-.2-1.627 0-.626.068-1.17.2-1.63s.317-.84.55-1.143.51-.526.824-.672c.315-.147.656-.22 1.022-.22.363 0 .704.073 1.022.22.318.146.594.37.828.672s.417.683.552 1.143c.135.46.203 1.004.203 1.63zm-.924 0c0-.546-.046-1.006-.138-1.377s-.215-.67-.37-.897c-.155-.227-.334-.39-.538-.487-.203-.1-.415-.148-.635-.148s-.432.05-.635.148c-.203.098-.38.26-.535.487s-.276.526-.368.897-.137.83-.137 1.377.045 1.005.137 1.375.214.668.368.895.332.39.535.488c.204.098.415.147.635.147s.432-.05.635-.147c.204-.1.383-.26.538-.488.155-.227.278-.525.37-.895s.138-.828.138-1.375z"/></g><g fill="#4E4E4E"><path d="M7.102 50.322c-.403-.037-.77-.136-1.103-.297-.333-.162-.62-.368-.858-.618l.27-.41c.027-.037.06-.066.1-.09s.083-.035.13-.035c.063 0 .135.032.215.095s.178.136.295.217c.117.082.256.16.417.238s.355.128.582.155l.185-2.655c-.233-.07-.462-.15-.688-.238s-.428-.203-.606-.345-.322-.32-.43-.536-.163-.484-.163-.808c0-.243.05-.48.144-.712.095-.23.234-.438.417-.618.185-.18.41-.327.676-.442.267-.115.57-.18.915-.192l.05-.72c.004-.063.028-.12.073-.17.045-.05.104-.075.178-.075h.33l-.07.99c.35.043.654.133.91.27s.48.302.677.495l-.215.33c-.066.1-.143.15-.23.15-.046 0-.104-.02-.172-.063s-.15-.09-.245-.146c-.095-.055-.207-.11-.335-.165s-.274-.095-.438-.12l-.165 2.42c.24.074.477.154.71.24.233.088.443.2.63.336.187.137.338.308.453.513.115.204.172.46.172.767 0 .3-.05.582-.15.845-.1.264-.246.495-.438.695-.19.2-.427.362-.705.487s-.597.197-.953.217l-.06.88c-.003.064-.028.12-.075.168-.046.048-.105.072-.175.072h-.33l.075-1.128zm-.81-5.415c0 .16.028.3.085.417s.135.223.235.313.217.168.35.235c.133.067.278.127.435.18l.15-2.255c-.217.02-.404.063-.563.13s-.29.15-.39.25-.177.212-.228.337c-.05.125-.074.256-.074.393zm2.774 3.32c0-.167-.03-.31-.093-.43-.062-.12-.146-.224-.252-.31-.105-.087-.23-.162-.374-.225-.143-.063-.296-.122-.46-.175l-.17 2.49c.22-.02.414-.067.58-.143.167-.075.308-.17.422-.288.115-.116.202-.252.26-.407.06-.156.088-.326.088-.513zM13.406 43.017c.303 0 .586.045.85.135.263.09.492.22.685.393.194.17.346.38.456.627.11.247.165.526.165.84 0 .267-.04.514-.12.743-.08.228-.187.446-.324.652s-.294.408-.473.605-.367.395-.567.595l-1.89 1.93c.133-.037.27-.066.405-.087s.27-.033.396-.033h2.4c.097 0 .173.03.23.085s.085.13.085.22v.54h-4.78v-.305c0-.063.014-.128.04-.195.028-.066.07-.128.126-.185l2.295-2.305c.19-.193.364-.38.52-.557.157-.178.29-.357.4-.538s.196-.362.256-.547.09-.383.09-.593-.033-.394-.1-.552c-.067-.158-.158-.29-.273-.393-.115-.104-.25-.18-.407-.232s-.325-.078-.505-.078c-.183 0-.35.027-.504.08s-.29.127-.407.222c-.12.095-.22.208-.298.338-.08.13-.137.273-.17.43-.04.117-.094.194-.162.232-.068.04-.165.05-.288.033l-.465-.08c.046-.327.137-.616.272-.867.134-.252.304-.463.51-.633s.438-.3.702-.387c.262-.09.548-.133.854-.133zM21.13 43.487c0 .126-.04.23-.117.313s-.212.123-.402.123h-2.25l-.33 1.88c.19-.043.37-.074.54-.093.167-.018.332-.027.49-.027.375 0 .705.055.99.165s.527.262.718.455c.192.193.337.422.435.685s.147.55.147.86c0 .38-.066.724-.197 1.03-.132.307-.313.57-.545.787-.232.22-.504.386-.818.502-.313.117-.65.175-1.015.175-.21 0-.412-.02-.605-.063s-.375-.1-.542-.168c-.168-.07-.324-.15-.468-.24-.143-.09-.27-.185-.38-.285l.275-.38c.06-.086.138-.13.235-.13.067 0 .142.026.225.078s.185.11.305.172c.12.063.26.12.422.172.162.05.354.077.578.077.25 0 .475-.04.675-.12.2-.08.372-.194.515-.342.143-.148.253-.326.33-.533.077-.207.115-.438.115-.695 0-.223-.032-.425-.097-.605s-.164-.333-.295-.46c-.13-.126-.295-.225-.492-.295-.196-.07-.426-.105-.69-.105-.18 0-.367.015-.562.045-.195.03-.395.078-.598.145l-.56-.165.575-3.35h3.395v.39zM27.58 46.682c0 .627-.066 1.17-.202 1.627-.135.457-.32.836-.552 1.137-.233.3-.51.523-.828.67s-.66.22-1.022.22c-.367 0-.708-.074-1.022-.22s-.59-.37-.823-.67c-.232-.3-.416-.68-.55-1.138-.132-.46-.2-1-.2-1.628 0-.626.068-1.17.2-1.63s.317-.84.55-1.143.51-.527.824-.673c.315-.147.656-.22 1.022-.22.363 0 .704.073 1.022.22.318.146.594.37.828.672s.417.682.552 1.142c.135.46.203 1.003.203 1.63zm-.924 0c0-.546-.046-1.006-.138-1.377s-.215-.67-.37-.897c-.155-.227-.334-.39-.538-.487-.203-.098-.415-.147-.635-.147s-.432.05-.635.148c-.203.1-.38.262-.535.488s-.276.526-.368.897-.137.83-.137 1.377.045 1.005.137 1.375.214.668.368.895.332.39.535.488c.204.098.415.147.635.147s.432-.05.635-.147c.204-.1.383-.26.538-.488.155-.227.278-.525.37-.895s.138-.828.138-1.375z"/></g><g fill="#4E4E4E"><path d="M7.132 12.296c-.403-.037-.77-.136-1.103-.297-.333-.163-.62-.37-.858-.62l.27-.41c.027-.036.06-.065.1-.09s.083-.034.13-.034c.063 0 .135.032.215.095s.178.137.295.218c.117.082.256.16.417.238s.355.128.582.155l.185-2.654c-.233-.07-.462-.15-.688-.238s-.428-.202-.606-.344-.322-.32-.43-.535-.163-.485-.163-.81c0-.242.05-.48.144-.71.095-.232.234-.44.417-.62.185-.18.41-.326.676-.44.267-.116.572-.18.916-.194l.05-.72c.003-.063.027-.12.072-.17.045-.05.104-.075.178-.075h.33l-.07.99c.35.044.653.134.908.27s.48.303.677.496l-.215.33c-.066.1-.143.15-.23.15-.046 0-.104-.02-.172-.063s-.15-.09-.245-.145c-.095-.055-.207-.11-.335-.165s-.275-.093-.438-.117l-.165 2.42c.24.073.477.153.71.24.233.087.443.2.63.335.186.138.337.31.452.514.114.205.17.46.17.768 0 .3-.05.582-.15.845-.1.264-.245.495-.437.695-.19.2-.427.362-.705.487s-.596.196-.952.216l-.06.88c-.003.063-.028.12-.075.167-.045.048-.104.072-.174.072h-.33l.076-1.13zm-.81-5.415c0 .16.028.3.085.418s.135.223.235.313.217.17.35.236c.133.067.278.127.435.18l.15-2.255c-.217.02-.404.064-.563.13s-.29.15-.39.25-.177.214-.228.34c-.05.124-.074.255-.074.39zm2.775 3.32c0-.166-.03-.31-.093-.43-.062-.12-.146-.223-.252-.31-.107-.085-.232-.16-.376-.224-.143-.063-.296-.12-.46-.174l-.17 2.49c.22-.02.415-.067.58-.143.168-.076.31-.17.423-.29.114-.115.2-.25.26-.406.057-.155.087-.326.087-.513zM13.442 4.99c.303 0 .583.044.84.13.256.088.478.21.663.37.185.16.33.355.432.58.104.228.155.48.155.756 0 .227-.03.43-.087.607-.06.18-.142.335-.25.47-.108.135-.24.25-.393.342-.153.094-.325.168-.515.225.467.124.817.33 1.053.62.235.29.353.653.353 1.09 0 .33-.063.627-.188.89s-.296.487-.513.672-.47.327-.757.425c-.29.098-.598.147-.928.147-.38 0-.705-.047-.975-.143s-.498-.225-.685-.392c-.187-.167-.34-.364-.46-.592-.12-.23-.222-.476-.305-.743l.385-.16c.1-.043.198-.055.292-.035.094.02.163.075.207.165.043.093.098.205.163.335.065.13.154.255.268.375.113.12.257.222.433.305.176.083.398.125.668.125.25 0 .47-.04.657-.123.188-.082.345-.188.47-.317s.22-.275.282-.435c.063-.16.095-.318.095-.475 0-.193-.025-.37-.075-.53-.05-.16-.143-.298-.28-.415s-.324-.208-.563-.275c-.238-.066-.544-.1-.917-.1V8.24c.307-.002.567-.036.782-.1.214-.062.39-.15.524-.26.135-.11.233-.24.295-.394.06-.153.09-.323.09-.51 0-.207-.03-.387-.097-.54-.065-.153-.154-.28-.267-.38-.114-.1-.248-.175-.403-.225-.155-.05-.322-.074-.502-.074s-.347.027-.5.08-.293.127-.41.222c-.12.095-.218.208-.298.338-.08.13-.137.273-.17.43-.043.117-.098.194-.163.232-.066.04-.16.05-.283.033l-.465-.08c.047-.326.137-.615.27-.866.133-.252.303-.463.508-.633.205-.17.44-.298.705-.386.264-.088.55-.133.857-.133zM21.72 8.656c0 .627-.066 1.17-.202 1.627-.135.458-.32.837-.552 1.138-.233.3-.51.524-.828.67s-.66.22-1.022.22c-.367 0-.708-.073-1.022-.22s-.59-.37-.823-.67c-.232-.3-.416-.678-.55-1.137-.132-.458-.2-1-.2-1.627 0-.626.068-1.17.2-1.63s.317-.84.55-1.143.51-.526.824-.672c.315-.146.656-.22 1.022-.22.363 0 .704.074 1.022.22.318.147.594.372.828.673s.417.683.552 1.143c.136.46.203 1.004.203 1.63zm-.924 0c0-.546-.046-1.006-.138-1.377s-.215-.672-.37-.898c-.155-.227-.334-.39-.538-.487-.203-.1-.415-.148-.635-.148s-.432.05-.635.148c-.203.098-.38.26-.535.487s-.276.526-.368.897-.137.83-.137 1.376c0 .547.045 1.005.137 1.375s.214.67.368.896.332.39.535.488c.204.098.415.147.635.147s.432-.048.635-.146c.204-.1.383-.26.538-.488.155-.227.278-.525.37-.895s.138-.827.138-1.374zM27.58 8.656c0 .627-.066 1.17-.202 1.627-.135.458-.32.837-.552 1.138-.233.3-.51.524-.828.67s-.66.22-1.022.22c-.367 0-.708-.073-1.022-.22s-.59-.37-.823-.67c-.232-.3-.416-.678-.55-1.137-.132-.458-.2-1-.2-1.627 0-.626.068-1.17.2-1.63s.317-.84.55-1.143.51-.526.824-.672c.315-.146.656-.22 1.022-.22.363 0 .704.074 1.022.22.318.147.594.372.828.673s.417.683.552 1.143c.136.46.203 1.004.203 1.63zm-.924 0c0-.546-.046-1.006-.138-1.377s-.215-.672-.37-.898c-.155-.227-.334-.39-.538-.487-.203-.1-.415-.148-.635-.148s-.432.05-.635.148c-.203.098-.38.26-.535.487s-.276.526-.368.897-.137.83-.137 1.376c0 .547.045 1.005.137 1.375s.214.67.368.896.332.39.535.488c.204.098.415.147.635.147s.432-.048.635-.146c.204-.1.383-.26.538-.488.155-.227.278-.525.37-.895s.138-.827.138-1.374z"/></g><g fill="#4E4E4E"><path d="M27.037 251.177h1.52v-4.886c0-.14.005-.287.015-.443l-1.263 1.095c-.044.037-.087.06-.13.067-.042.008-.082.01-.118.002-.036-.007-.07-.02-.102-.04-.03-.02-.055-.042-.072-.065l-.277-.385 2.116-1.845h.718v6.5h1.396v.68h-3.803v-.68zM34.975 249c.073-.095.14-.187.203-.273.063-.087.122-.174.178-.26-.182.146-.386.258-.614.335-.228.076-.47.114-.723.114-.27 0-.522-.045-.76-.135s-.45-.222-.632-.396-.326-.39-.433-.645c-.107-.256-.16-.55-.16-.88 0-.312.057-.605.172-.88.115-.272.277-.51.485-.714s.456-.363.743-.48c.287-.116.603-.175.946-.175.34 0 .65.058.927.17s.515.272.713.477c.198.203.35.446.458.73.107.282.16.596.16.94 0 .205-.018.4-.056.586-.038.186-.092.367-.163.545-.072.18-.16.355-.26.53-.103.175-.22.354-.348.537l-1.728 2.52c-.043.064-.104.115-.184.153-.08.038-.17.058-.272.058h-.813l2.16-2.855zm.817-2.18c0-.222-.036-.425-.106-.606-.07-.182-.17-.336-.295-.463-.124-.125-.274-.223-.447-.29s-.364-.104-.572-.104c-.217 0-.415.036-.593.107-.178.072-.332.17-.46.298-.13.127-.228.28-.297.456s-.104.37-.104.58c0 .227.032.43.097.607.064.178.157.33.277.452s.268.217.44.28.368.095.583.095c.238 0 .448-.04.63-.117.185-.078.34-.183.464-.313s.22-.28.287-.45.098-.345.098-.53zM42.582 244.69v.4c0 .114-.013.207-.037.28-.025.073-.05.136-.072.186l-2.94 5.984c-.044.087-.104.16-.18.223-.075.062-.176.093-.3.093h-.635l2.98-5.91c.043-.083.087-.16.132-.23.045-.07.095-.136.15-.2h-3.704c-.056 0-.105-.02-.148-.066s-.064-.096-.064-.152v-.605h4.818zM48.386 244.69v.4c0 .114-.013.207-.037.28-.026.073-.05.136-.073.186l-2.94 5.984c-.044.087-.104.16-.18.223-.075.062-.176.093-.3.093h-.635l2.98-5.91c.043-.083.087-.16.132-.23.045-.07.095-.136.15-.2H43.78c-.056 0-.105-.02-.148-.066s-.064-.096-.064-.152v-.605h4.818z"/></g><g fill="#4E4E4E"><path d="M100.216 251.177h1.52v-4.886c0-.14.005-.287.015-.443l-1.262 1.095c-.043.037-.086.06-.128.067-.043.008-.083.01-.12.002-.035-.007-.07-.02-.1-.04-.032-.02-.056-.042-.073-.065l-.277-.385 2.115-1.845h.718v6.5h1.396v.68h-3.804v-.68zM108.154 249c.073-.095.14-.187.203-.273.063-.087.122-.174.178-.26-.182.146-.386.258-.614.335-.227.076-.468.114-.722.114-.268 0-.52-.045-.76-.135s-.45-.222-.63-.396-.327-.39-.434-.645c-.107-.256-.16-.55-.16-.88 0-.312.057-.605.172-.88.115-.272.277-.51.485-.714s.457-.363.744-.48c.287-.116.603-.175.946-.175.34 0 .65.058.926.17s.515.272.713.477c.197.203.35.446.457.73.107.282.16.596.16.94 0 .205-.018.4-.056.586-.037.186-.09.367-.162.545-.07.18-.158.355-.26.53-.102.175-.218.354-.347.537l-1.727 2.52c-.043.064-.104.115-.184.153-.08.038-.17.058-.273.058h-.813l2.16-2.855zm.817-2.18c0-.222-.035-.425-.105-.606-.07-.182-.17-.336-.295-.463-.125-.125-.275-.223-.448-.29s-.364-.104-.572-.104c-.218 0-.416.036-.594.107-.178.072-.332.17-.46.298-.13.127-.228.28-.297.456s-.105.37-.105.58c0 .227.032.43.097.607.064.178.157.33.277.452s.267.217.44.28.367.095.582.095c.238 0 .448-.04.63-.117.185-.078.34-.183.464-.313s.22-.28.287-.45.098-.345.098-.53zM113.28 251.937c-.354 0-.678-.048-.97-.143-.295-.095-.548-.23-.76-.407-.21-.177-.374-.39-.49-.643-.115-.252-.172-.534-.172-.848 0-.46.12-.84.356-1.138.238-.298.578-.51 1.02-.638-.373-.14-.654-.35-.844-.627s-.285-.61-.285-.998c0-.263.05-.51.153-.74.103-.23.248-.43.436-.6.188-.17.414-.303.676-.4.263-.096.556-.145.88-.145.32 0 .612.05.876.146.264.097.49.23.678.4s.333.37.436.6c.102.23.153.477.153.74 0 .386-.096.72-.287.997-.192.278-.472.487-.842.627.442.127.782.34 1.02.638.238.3.356.678.356 1.138 0 .313-.06.596-.176.848s-.28.466-.49.643c-.21.177-.46.313-.755.407s-.617.143-.97.143zm0-.71c.23 0 .437-.032.62-.098.185-.066.34-.157.467-.276.127-.118.224-.26.292-.425s.1-.35.1-.548c0-.247-.04-.458-.12-.633-.082-.176-.19-.318-.328-.43-.137-.108-.294-.19-.473-.24-.18-.053-.366-.08-.56-.08s-.382.027-.56.08-.337.132-.474.24c-.137.11-.246.254-.327.43-.082.174-.122.385-.122.632 0 .2.034.382.102.547.067.164.165.306.292.424.127.12.282.21.466.275.183.064.39.097.62.097zm0-3.44c.23 0 .428-.036.59-.108.165-.072.297-.167.4-.286.102-.118.176-.254.223-.407s.07-.312.07-.475c0-.167-.028-.323-.083-.47-.055-.147-.135-.275-.243-.386-.107-.11-.24-.196-.4-.26s-.347-.095-.558-.095c-.212 0-.398.032-.558.096s-.293.15-.4.26c-.108.11-.19.238-.244.385-.055.148-.082.305-.082.472 0 .163.023.32.07.475.045.153.12.29.222.407.102.12.235.214.398.285.165.07.362.106.593.106zM119.138 244.61c.3 0 .58.046.842.136.26.09.487.222.68.393.19.17.34.38.45.627.11.246.163.526.163.84 0 .267-.04.515-.12.742-.078.228-.186.445-.32.65-.137.208-.293.41-.47.606s-.363.395-.56.595l-1.873 1.932c.132-.037.266-.066.4-.088.136-.02.267-.032.392-.032h2.377c.095 0 .17.028.227.085s.084.13.084.22v.54h-4.733v-.305c0-.063.013-.13.04-.195.027-.066.068-.128.124-.185l2.274-2.306c.188-.193.36-.38.515-.558.154-.178.286-.357.395-.537.11-.18.193-.36.253-.547.06-.185.09-.382.09-.592s-.034-.394-.1-.552c-.066-.158-.156-.29-.27-.393-.114-.104-.25-.18-.404-.232s-.322-.078-.5-.078c-.182 0-.35.027-.5.08-.152.054-.286.128-.403.223-.116.096-.214.208-.294.338-.08.13-.135.273-.168.43-.04.117-.093.194-.16.232-.07.04-.164.05-.286.033l-.46-.08c.045-.326.135-.615.27-.867.133-.25.3-.462.504-.632s.435-.3.696-.387c.26-.088.542-.132.846-.132z"/></g><g fill="#4E4E4E"><path d="M173.39 251.177h1.52v-4.886c0-.14.004-.287.014-.443l-1.263 1.095c-.042.037-.085.06-.127.067-.043.008-.083.01-.12.002-.035-.007-.07-.02-.1-.04-.032-.02-.056-.042-.073-.065l-.277-.385 2.115-1.845h.718v6.5h1.396v.68h-3.803v-.68zM181.327 249c.073-.095.14-.187.203-.273.063-.087.122-.174.178-.26-.182.146-.386.258-.614.335-.228.076-.47.114-.723.114-.267 0-.52-.045-.76-.135s-.45-.222-.63-.396-.326-.39-.433-.645c-.107-.256-.16-.55-.16-.88 0-.312.057-.605.172-.88.114-.272.276-.51.484-.714s.456-.363.743-.48c.287-.116.603-.175.946-.175.34 0 .65.058.926.17s.514.272.712.477c.198.203.35.446.458.73.107.282.16.596.16.94 0 .205-.018.4-.056.586-.038.186-.092.367-.163.545-.07.18-.157.355-.26.53-.1.175-.217.354-.346.537l-1.728 2.52c-.043.064-.104.115-.184.153-.08.038-.17.058-.272.058h-.813l2.16-2.855zm.817-2.18c0-.222-.036-.425-.106-.606-.07-.182-.17-.336-.295-.463-.125-.125-.275-.223-.448-.29s-.364-.104-.572-.104c-.218 0-.416.036-.594.107-.18.072-.333.17-.46.298-.13.127-.23.28-.298.456s-.104.37-.104.58c0 .227.032.43.097.607.064.178.157.33.277.452s.268.217.44.28.368.095.583.095c.238 0 .448-.04.63-.117.185-.078.34-.183.464-.313s.22-.28.286-.45.098-.345.098-.53zM186.452 251.937c-.353 0-.677-.048-.97-.143-.294-.095-.547-.23-.758-.407-.21-.177-.375-.39-.49-.643-.116-.252-.173-.534-.173-.848 0-.46.12-.84.357-1.138.238-.298.578-.51 1.02-.638-.373-.14-.654-.35-.844-.627s-.285-.61-.285-.998c0-.263.05-.51.153-.74.104-.23.25-.43.437-.6.188-.17.414-.303.676-.4.263-.096.556-.145.88-.145.32 0 .612.05.876.146.263.097.49.23.677.4s.333.37.436.6c.102.23.153.477.153.74 0 .386-.096.72-.287.997-.193.278-.473.487-.843.627.442.127.782.34 1.02.638.238.3.356.678.356 1.138 0 .313-.06.596-.176.848s-.28.466-.49.643c-.21.177-.46.313-.755.407s-.616.143-.97.143zm0-.71c.23 0 .438-.032.622-.098s.338-.157.466-.276c.127-.118.224-.26.292-.425s.102-.35.102-.548c0-.247-.04-.458-.122-.633-.08-.176-.19-.318-.327-.43-.137-.108-.294-.19-.473-.24-.178-.053-.365-.08-.56-.08s-.38.027-.56.08-.336.132-.473.24c-.138.11-.247.254-.328.43-.08.174-.12.385-.12.632 0 .2.033.382.1.547.068.164.166.306.293.424.127.12.282.21.466.275.184.064.39.097.622.097zm0-3.44c.23 0 .43-.036.592-.108.164-.072.296-.167.4-.286.1-.118.175-.254.222-.407s.07-.312.07-.475c0-.167-.028-.323-.083-.47-.055-.147-.135-.275-.243-.386-.107-.11-.24-.196-.4-.26s-.347-.095-.558-.095c-.21 0-.397.032-.557.096s-.293.15-.4.26c-.108.11-.19.238-.244.385-.054.148-.08.305-.08.472 0 .163.022.32.068.475.046.153.12.29.223.407.103.12.236.214.4.285.164.07.36.106.592.106zM194.738 244.69v.4c0 .114-.013.207-.037.28-.024.073-.048.136-.07.186l-2.942 5.984c-.043.087-.103.16-.178.223-.076.062-.177.093-.302.093h-.634l2.98-5.91c.043-.083.087-.16.132-.23.045-.07.095-.136.15-.2h-3.704c-.056 0-.105-.02-.148-.066s-.064-.096-.064-.152v-.605h4.818z"/></g><g fill="#4E4E4E"><path d="M246.56 251.177h1.52v-4.886c0-.14.005-.287.015-.443l-1.263 1.095c-.043.037-.086.06-.128.067-.043.008-.083.01-.12.002-.035-.007-.07-.02-.1-.04-.032-.02-.056-.042-.073-.065l-.276-.385 2.115-1.845h.717v6.5h1.396v.68h-3.803v-.68zM254.498 249c.073-.095.14-.187.203-.273.064-.087.123-.174.18-.26-.183.146-.387.258-.615.335-.228.076-.47.114-.723.114-.268 0-.52-.045-.76-.135s-.45-.222-.63-.396-.327-.39-.434-.645c-.107-.256-.16-.55-.16-.88 0-.312.057-.605.172-.88.115-.272.277-.51.485-.714s.456-.363.743-.48c.287-.116.603-.175.946-.175.34 0 .65.058.926.17s.515.272.713.477c.198.203.35.446.458.73.108.282.162.596.162.94 0 .205-.02.4-.057.586-.038.186-.092.367-.163.545-.07.18-.158.355-.26.53-.102.175-.218.354-.347.537l-1.728 2.52c-.043.064-.104.115-.184.153-.08.038-.17.058-.272.058h-.812l2.16-2.855zm.817-2.18c0-.222-.036-.425-.106-.606-.072-.182-.17-.336-.296-.463-.125-.125-.275-.223-.448-.29s-.364-.104-.572-.104c-.218 0-.416.036-.594.107-.178.072-.332.17-.46.298-.13.127-.228.28-.297.456s-.104.37-.104.58c0 .227.03.43.096.607.064.178.157.33.277.452s.268.217.44.28.368.095.583.095c.238 0 .448-.04.63-.117.185-.078.34-.183.464-.313s.22-.28.287-.45.098-.345.098-.53zM260.213 249c.073-.095.14-.187.203-.273.063-.087.122-.174.178-.26-.182.146-.386.258-.614.335-.228.076-.47.114-.723.114-.268 0-.52-.045-.76-.135s-.45-.222-.63-.396-.327-.39-.434-.645c-.107-.256-.16-.55-.16-.88 0-.312.057-.605.172-.88.115-.272.277-.51.485-.714s.456-.363.743-.48c.287-.116.603-.175.946-.175.34 0 .648.058.925.17s.515.272.713.477c.198.203.35.446.458.73.107.282.16.596.16.94 0 .205-.018.4-.056.586-.038.186-.092.367-.163.545-.07.18-.158.355-.26.53-.102.175-.218.354-.347.537l-1.728 2.52c-.043.064-.104.115-.184.153-.08.038-.17.058-.272.058h-.813l2.16-2.855zm.817-2.18c0-.222-.036-.425-.106-.606-.07-.182-.17-.336-.295-.463-.126-.125-.276-.223-.45-.29s-.363-.104-.57-.104c-.22 0-.417.036-.595.107-.178.072-.332.17-.46.298-.13.127-.228.28-.297.456s-.104.37-.104.58c0 .227.032.43.097.607.065.178.158.33.278.452s.268.217.44.28.368.095.583.095c.24 0 .45-.04.632-.117.184-.078.338-.183.463-.313s.22-.28.287-.45.098-.345.098-.53zM265.482 244.61c.3 0 .58.046.842.136.26.09.487.222.68.393.19.17.34.38.45.627.11.246.163.526.163.84 0 .267-.04.515-.12.742-.078.228-.186.445-.32.65-.137.208-.293.41-.47.606s-.363.395-.56.595l-1.873 1.932c.132-.037.266-.066.4-.088.136-.02.267-.032.392-.032h2.377c.096 0 .172.028.228.085s.085.13.085.22v.54h-4.734v-.305c0-.063.014-.13.04-.195.028-.066.07-.128.125-.185l2.273-2.306c.188-.193.36-.38.515-.558.155-.178.287-.357.396-.537.108-.18.192-.36.252-.547.06-.185.09-.382.09-.592s-.034-.394-.1-.552c-.066-.158-.156-.29-.27-.393-.114-.104-.25-.18-.404-.232s-.322-.078-.5-.078c-.182 0-.35.027-.5.08-.152.054-.286.128-.403.223-.117.096-.215.208-.295.338-.08.13-.135.273-.168.43-.04.117-.093.194-.16.232-.07.04-.164.05-.286.033l-.46-.08c.045-.326.135-.615.27-.867.133-.25.3-.462.504-.632s.435-.3.696-.387c.26-.088.543-.132.846-.132z"/></g><g fill="#4E4E4E"><path d="M319.734 251.177h1.52v-4.886c0-.14.006-.287.016-.443l-1.264 1.095c-.043.037-.086.06-.13.067-.042.008-.08.01-.118.002-.035-.007-.07-.02-.102-.04-.03-.02-.055-.042-.07-.065l-.277-.385 2.112-1.845h.72v6.5h1.395v.68h-3.803v-.68zM327.672 249c.072-.095.14-.187.203-.273s.123-.174.178-.26c-.182.146-.385.258-.613.335-.23.076-.47.114-.723.114-.268 0-.52-.045-.76-.135-.24-.09-.45-.222-.633-.396s-.326-.39-.434-.645-.16-.55-.16-.88c0-.312.06-.605.174-.88s.277-.51.484-.714c.21-.203.455-.363.744-.48.287-.116.602-.175.945-.175.34 0 .648.058.926.17s.516.272.713.477c.2.203.352.446.46.73s.16.596.16.94c0 .205-.02.4-.058.586-.04.186-.092.367-.164.545-.07.18-.158.355-.26.53s-.217.354-.346.537l-1.73 2.52c-.042.064-.104.115-.183.153-.08.038-.17.058-.273.058h-.81l2.16-2.855zm.816-2.18c0-.222-.035-.425-.105-.606s-.17-.336-.295-.463c-.125-.125-.275-.223-.447-.29-.173-.07-.364-.104-.57-.104-.22 0-.417.036-.597.107-.178.072-.33.17-.46.298-.128.127-.228.28-.296.456-.07.177-.105.37-.105.58 0 .227.033.43.098.607.064.178.156.33.277.452.12.123.268.217.44.28.173.063.366.095.58.095.24 0 .45-.04.634-.117.183-.078.337-.183.464-.313.125-.13.22-.28.287-.45s.098-.345.098-.53zM333.387 249c.072-.095.14-.187.203-.273.063-.087.12-.174.178-.26-.182.146-.387.258-.615.335-.227.076-.47.114-.723.114-.268 0-.52-.045-.76-.135s-.45-.222-.63-.396-.327-.39-.435-.645-.162-.55-.162-.88c0-.312.06-.605.174-.88s.277-.51.486-.714c.207-.203.455-.363.742-.48.287-.116.602-.175.945-.175.34 0 .648.058.926.17s.516.272.715.477c.198.203.35.446.458.73s.162.596.162.94c0 .205-.02.4-.06.586-.036.186-.09.367-.16.545-.073.18-.16.355-.26.53-.105.175-.22.354-.35.537l-1.728 2.52c-.043.064-.104.115-.184.153-.078.038-.17.058-.27.058h-.814l2.163-2.855zm.816-2.18c0-.222-.035-.425-.107-.606-.07-.182-.168-.336-.293-.463-.127-.125-.275-.223-.45-.29s-.362-.104-.57-.104c-.218 0-.417.036-.595.107-.178.072-.332.17-.46.298-.13.127-.228.28-.298.456-.068.177-.104.37-.104.58 0 .227.03.43.096.607.064.178.158.33.277.452.12.123.267.217.44.28s.367.095.582.095c.238 0 .447-.04.63-.117s.34-.183.464-.313.22-.28.287-.45.1-.345.1-.53zM341.082 244.69v.4c0 .114-.014.207-.037.28-.025.073-.05.136-.072.186l-2.94 5.984c-.044.087-.105.16-.18.223-.075.062-.177.093-.302.093h-.634l2.982-5.91c.043-.083.086-.16.13-.23.046-.07.095-.136.15-.2h-3.702c-.057 0-.107-.02-.148-.066-.043-.045-.064-.096-.064-.152v-.605h4.818z"/></g><g fill="#4E4E4E"><path d="M394.6 244.61c.3 0 .582.046.842.136.262.09.488.222.68.393.19.17.342.38.45.627.108.246.163.526.163.84 0 .267-.04.515-.12.742-.077.228-.185.445-.32.65-.136.208-.292.41-.468.606-.178.196-.365.395-.563.595l-1.87 1.932c.13-.037.265-.066.4-.088s.265-.032.39-.032h2.377c.097 0 .173.028.23.085s.084.13.084.22v.54h-4.734v-.305c0-.063.014-.13.04-.195.026-.066.067-.128.124-.185l2.273-2.306c.188-.193.36-.38.514-.558.157-.178.288-.357.397-.537s.193-.36.252-.547c.06-.185.09-.382.09-.592s-.034-.394-.1-.552c-.065-.158-.157-.29-.27-.393s-.25-.18-.403-.232c-.156-.052-.322-.078-.502-.078-.182 0-.348.027-.5.08-.15.054-.285.128-.402.223-.117.096-.217.208-.295.338-.08.13-.137.273-.168.43-.04.117-.094.194-.162.232-.066.04-.162.05-.285.033l-.46-.08c.046-.326.136-.615.27-.867.134-.25.302-.462.505-.632s.436-.3.697-.387c.26-.088.542-.132.845-.132zM402.836 248.276c0 .627-.066 1.17-.2 1.628-.134.458-.317.837-.548 1.137-.23.302-.504.524-.82.672-.314.146-.652.22-1.012.22-.363 0-.7-.073-1.014-.22-.31-.147-.582-.37-.814-.67-.23-.3-.412-.68-.545-1.138-.13-.46-.197-1-.197-1.628s.066-1.17.197-1.63c.133-.46.314-.84.545-1.143.232-.302.504-.525.814-.673.313-.146.65-.22 1.014-.22.36 0 .697.073 1.012.22.316.147.59.37.82.673s.414.683.547 1.143c.135.46.2 1.003.2 1.63zm-.916 0c0-.547-.045-1.006-.137-1.377-.09-.373-.213-.672-.367-.9-.152-.226-.33-.388-.53-.486-.202-.098-.413-.147-.63-.147-.22 0-.428.05-.63.147-.2.1-.378.26-.528.487-.152.23-.273.527-.365.9-.09.37-.137.83-.137 1.376s.047 1.005.137 1.375c.092.37.213.67.365.897.15.227.328.39.53.487.2.098.41.147.628.147.217 0 .428-.05.63-.146.2-.1.378-.26.53-.487.154-.228.277-.525.367-.896.092-.37.137-.827.137-1.374zM408.55 248.276c0 .627-.067 1.17-.2 1.628-.135.458-.316.837-.55 1.137-.23.302-.503.524-.817.672-.316.146-.652.22-1.014.22-.364 0-.7-.073-1.013-.22-.313-.147-.584-.37-.814-.67-.232-.3-.414-.68-.545-1.138-.133-.46-.2-1-.2-1.628s.067-1.17.2-1.63c.13-.46.313-.84.545-1.143.23-.302.502-.525.814-.673.313-.146.648-.22 1.012-.22.36 0 .696.073 1.013.22.314.147.588.37.818.673.233.302.415.683.55 1.143.132.46.2 1.003.2 1.63zm-.917 0c0-.547-.045-1.006-.135-1.377-.092-.373-.213-.672-.367-.9-.153-.226-.33-.388-.532-.486-.2-.098-.41-.147-.63-.147-.216 0-.427.05-.628.147-.2.1-.377.26-.53.487-.15.23-.272.527-.362.9-.092.37-.137.83-.137 1.376s.046 1.005.138 1.375c.09.37.21.67.363.897.153.227.33.39.53.487.2.098.412.147.63.147.218 0 .427-.05.628-.146.2-.1.38-.26.533-.487.155-.228.276-.525.368-.896.09-.37.135-.827.135-1.374zM411.832 244.61c.3 0 .582.046.842.136.262.09.488.222.68.393.19.17.342.38.45.627.108.246.163.526.163.84 0 .267-.04.515-.12.742-.077.228-.185.445-.32.65-.136.208-.292.41-.468.606-.18.196-.366.395-.564.595l-1.87 1.932c.13-.037.265-.066.4-.088s.265-.032.39-.032h2.377c.096 0 .172.028.23.085s.083.13.083.22v.54h-4.734v-.305c0-.063.014-.13.04-.195.026-.066.067-.128.124-.185l2.273-2.306c.187-.193.358-.38.513-.558.156-.178.287-.357.396-.537s.192-.36.25-.547c.062-.185.09-.382.09-.592s-.032-.394-.1-.552c-.063-.158-.155-.29-.27-.393s-.247-.18-.4-.232c-.157-.052-.323-.078-.503-.078-.182 0-.348.027-.5.08-.15.054-.285.128-.402.223-.117.096-.217.208-.295.338-.08.13-.137.273-.168.43-.04.117-.094.194-.162.232-.066.04-.162.05-.285.033l-.46-.08c.046-.326.136-.615.27-.867.134-.25.302-.462.505-.632s.436-.3.697-.387c.26-.088.542-.132.845-.132z"/></g><g fill="#4E4E4E"><path d="M467.777 244.61c.3 0 .582.046.842.136.26.09.487.222.68.393.19.17.34.38.448.627.11.246.164.526.164.84 0 .267-.04.515-.12.742-.077.228-.185.445-.32.65-.136.208-.292.41-.468.606-.178.196-.365.395-.563.595l-1.87 1.932c.13-.037.266-.066.4-.088s.266-.032.39-.032h2.378c.096 0 .172.028.23.085s.083.13.083.22v.54h-4.733v-.305c0-.063.014-.13.04-.195.026-.066.067-.128.124-.185l2.274-2.306c.188-.193.36-.38.514-.558.156-.178.287-.357.396-.537s.193-.36.252-.547c.06-.185.09-.382.09-.592s-.033-.394-.1-.552c-.064-.158-.156-.29-.27-.393s-.248-.18-.402-.232c-.156-.052-.322-.078-.502-.078-.182 0-.348.027-.5.08-.15.054-.285.128-.402.223-.117.096-.217.208-.295.338-.08.13-.137.273-.168.43-.04.117-.094.194-.162.232-.066.04-.162.05-.285.033l-.46-.08c.046-.326.136-.615.27-.867.134-.25.302-.462.505-.632s.436-.3.697-.387c.26-.088.543-.132.845-.132zM476.014 248.276c0 .627-.066 1.17-.2 1.628-.134.458-.317.837-.548 1.137-.23.302-.504.524-.82.672-.314.146-.652.22-1.012.22-.363 0-.7-.073-1.014-.22-.31-.147-.582-.37-.814-.67-.23-.3-.412-.68-.545-1.138-.13-.46-.196-1-.196-1.628s.066-1.17.197-1.63c.134-.46.315-.84.546-1.143.232-.302.504-.525.814-.673.313-.146.65-.22 1.014-.22.36 0 .697.073 1.012.22.316.147.59.37.82.673s.414.683.547 1.143c.134.46.2 1.003.2 1.63zm-.916 0c0-.547-.045-1.006-.137-1.377-.09-.373-.212-.672-.366-.9-.152-.226-.33-.388-.53-.486-.202-.098-.413-.147-.63-.147-.22 0-.428.05-.63.147-.2.1-.378.26-.528.487-.152.23-.273.527-.365.9-.09.37-.136.83-.136 1.376s.047 1.005.137 1.375c.093.37.214.67.366.897.15.227.328.39.53.487.2.098.41.147.628.147.217 0 .428-.05.63-.146.2-.1.378-.26.53-.487.154-.228.277-.525.367-.896.093-.37.138-.827.138-1.374zM481.727 248.276c0 .627-.066 1.17-.2 1.628-.134.458-.315.837-.548 1.137-.23.302-.505.524-.82.672-.315.146-.65.22-1.013.22-.363 0-.7-.073-1.012-.22-.313-.147-.584-.37-.814-.67-.23-.3-.413-.68-.544-1.138-.133-.46-.2-1-.2-1.628s.067-1.17.2-1.63c.13-.46.313-.84.545-1.143.23-.302.503-.525.815-.673.313-.146.648-.22 1.012-.22.36 0 .697.073 1.014.22.315.147.59.37.82.673.23.302.413.683.548 1.143.132.46.2 1.003.2 1.63zm-.916 0c0-.547-.044-1.006-.134-1.377-.092-.373-.213-.672-.367-.9-.155-.226-.333-.388-.534-.486-.2-.098-.41-.147-.63-.147-.216 0-.427.05-.628.147-.2.1-.377.26-.53.487-.15.23-.272.527-.362.9-.092.37-.137.83-.137 1.376s.044 1.005.136 1.375c.09.37.21.67.363.897.15.227.327.39.528.487.2.098.412.147.63.147.218 0 .427-.05.628-.146.2-.1.38-.26.533-.487.153-.228.274-.525.366-.896.09-.37.135-.827.135-1.374zM487.438 244.69v.4c0 .114-.014.207-.037.28-.024.073-.048.136-.07.186l-2.942 5.984c-.043.087-.104.16-.18.223-.074.062-.176.093-.3.093h-.636l2.982-5.91c.043-.083.086-.16.13-.23.046-.07.095-.136.15-.2h-3.702c-.057 0-.107-.02-.148-.066-.043-.045-.064-.096-.064-.152v-.605h4.818z"/></g><g fill="#4E4E4E"><path d="M540.95 244.61c.3 0 .58.046.84.136.263.09.49.222.68.393.192.17.343.38.45.627.11.246.164.526.164.84 0 .267-.04.515-.12.742-.077.228-.185.445-.32.65-.136.208-.292.41-.468.606-.178.196-.365.395-.563.595l-1.87 1.932c.13-.037.265-.066.4-.088s.265-.032.39-.032h2.377c.096 0 .172.028.23.085s.083.13.083.22v.54h-4.734v-.305c0-.063.013-.13.038-.195.027-.066.068-.128.125-.185l2.273-2.306c.188-.193.36-.38.514-.558.156-.178.287-.357.396-.537s.193-.36.252-.547c.06-.185.09-.382.09-.592s-.033-.394-.1-.552c-.064-.158-.156-.29-.27-.393s-.248-.18-.402-.232c-.156-.052-.322-.078-.502-.078-.182 0-.348.027-.5.08-.15.054-.285.128-.402.223-.117.096-.217.208-.295.338-.08.13-.137.273-.168.43-.042.117-.095.194-.163.232-.066.04-.162.05-.285.033l-.46-.08c.046-.326.136-.615.27-.867.134-.25.302-.462.505-.632s.436-.3.697-.387c.26-.088.542-.132.845-.132zM549.186 248.276c0 .627-.066 1.17-.2 1.628-.134.458-.317.837-.548 1.137-.23.302-.504.524-.82.672-.314.146-.652.22-1.012.22-.363 0-.7-.073-1.014-.22-.31-.147-.582-.37-.814-.67-.23-.3-.412-.68-.545-1.138-.13-.46-.197-1-.197-1.628s.066-1.17.197-1.63c.133-.46.314-.84.545-1.143.232-.302.504-.525.814-.673.313-.146.65-.22 1.014-.22.36 0 .697.073 1.012.22.316.147.59.37.82.673s.414.683.547 1.143c.134.46.2 1.003.2 1.63zm-.916 0c0-.547-.045-1.006-.137-1.377-.09-.373-.213-.672-.367-.9-.152-.226-.33-.388-.53-.486-.202-.098-.413-.147-.63-.147-.22 0-.428.05-.63.147-.2.1-.378.26-.528.487-.152.23-.273.527-.365.9-.09.37-.137.83-.137 1.376s.047 1.005.137 1.375c.092.37.213.67.365.897.15.227.328.39.53.487.2.098.41.147.628.147.217 0 .428-.05.63-.146.2-.1.378-.26.53-.487.154-.228.277-.525.367-.896.092-.37.137-.827.137-1.374zM550.69 251.177h1.52v-4.886c0-.14.004-.287.014-.443l-1.262 1.095c-.043.037-.086.06-.13.067-.042.008-.083.01-.118.002-.037-.007-.07-.02-.102-.04-.03-.02-.055-.042-.072-.065l-.277-.385 2.115-1.845h.717v6.5h1.396v.68h-3.802v-.68zM558.182 244.61c.3 0 .582.046.842.136.262.09.488.222.68.393.19.17.342.38.45.627.108.246.163.526.163.84 0 .267-.04.515-.12.742-.077.228-.185.445-.32.65-.136.208-.292.41-.468.606-.18.196-.366.395-.564.595l-1.87 1.932c.13-.037.265-.066.4-.088s.265-.032.39-.032h2.377c.096 0 .172.028.23.085s.083.13.083.22v.54h-4.734v-.305c0-.063.014-.13.04-.195.026-.066.067-.128.124-.185l2.273-2.306c.187-.193.358-.38.513-.558.156-.178.287-.357.396-.537s.192-.36.25-.547c.062-.185.09-.382.09-.592s-.032-.394-.1-.552c-.063-.158-.155-.29-.27-.393s-.247-.18-.4-.232c-.157-.052-.323-.078-.503-.078-.182 0-.348.027-.5.08-.15.054-.285.128-.402.223-.117.096-.217.208-.295.338-.08.13-.137.273-.168.43-.04.117-.094.194-.162.232-.066.04-.162.05-.285.033l-.46-.08c.046-.326.136-.615.27-.867.134-.25.302-.462.505-.632s.436-.3.697-.387c.26-.088.542-.132.845-.132z"/></g><g fill="#007BC3"><path d="M295.41 73.3h-1.797v-8.705h1.798V73.3zM298.648 64.355V73.3h-1.643v-8.945h1.643zM301.72 64.355V73.3h-1.643v-8.945h1.643zM304.915 65.357c0 .14-.028.27-.084.39-.055.12-.13.226-.222.318-.094.092-.202.164-.327.216-.124.053-.26.08-.4.08-.136 0-.264-.027-.385-.08-.12-.05-.227-.123-.318-.215-.09-.092-.163-.198-.217-.318-.054-.12-.08-.25-.08-.39s.026-.27.08-.393.126-.23.217-.32c.092-.093.197-.165.318-.217.12-.052.25-.078.384-.078.142 0 .276.025.4.077.126.052.234.124.328.216.093.092.167.2.223.32s.085.254.085.394zm-.197 1.758V73.3h-1.643v-6.185h1.643zM306.123 73.3v-6.185h1.012c.206 0 .343.096.41.288l.102.432c.123-.12.25-.23.384-.33s.274-.186.424-.258c.148-.072.31-.128.48-.168.174-.04.36-.06.564-.06.333 0 .63.057.887.173s.476.278.65.486c.178.207.31.455.4.743.09.288.134.604.134.948v3.93h-1.638v-3.93c0-.343-.08-.61-.238-.8-.158-.19-.393-.285-.702-.285-.234 0-.45.05-.65.153-.2.102-.393.24-.575.417V73.3h-1.644zM315.663 67.02c.46 0 .878.073 1.255.22s.7.36.97.634.48.607.626 1c.146.39.22.833.22 1.325s-.073.934-.22 1.328c-.147.394-.355.73-.625 1.005-.272.276-.595.488-.972.636s-.795.22-1.255.22c-.465 0-.887-.073-1.265-.22-.38-.15-.704-.36-.974-.637s-.48-.61-.628-1.005c-.148-.394-.223-.837-.223-1.33s.074-.933.223-1.325c.15-.392.358-.725.628-1 .27-.273.594-.484.974-.632.378-.147.8-.22 1.265-.22zm0 5.13c.468 0 .814-.164 1.04-.49.228-.326.34-.81.34-1.455 0-.64-.112-1.123-.34-1.45s-.572-.488-1.04-.488c-.48 0-.834.163-1.06.49-.227.325-.34.808-.34 1.448 0 .644.113 1.13.34 1.455.226.326.58.49 1.06.49zM321.692 65.357c0 .14-.028.27-.084.39-.056.12-.13.226-.223.318-.094.092-.202.164-.327.216-.125.053-.26.08-.402.08-.135 0-.263-.027-.384-.08-.12-.05-.227-.123-.318-.215-.09-.092-.163-.198-.217-.318-.054-.12-.08-.25-.08-.39s.026-.27.08-.393.126-.23.217-.32c.092-.093.197-.165.318-.217.12-.052.25-.078.384-.078.143 0 .277.025.402.077s.233.124.327.216c.093.092.167.2.223.32s.084.254.084.394zm-.197 1.758V73.3h-1.643v-6.185h1.643zM326.715 68.387c-.044.068-.088.117-.134.147-.045.03-.107.045-.187.045s-.16-.02-.244-.06c-.084-.04-.178-.084-.28-.13-.104-.046-.222-.09-.354-.13s-.286-.06-.46-.06c-.267 0-.474.056-.62.166-.146.11-.22.255-.22.435 0 .125.04.23.125.313.084.084.194.157.33.22.138.062.293.12.468.173.175.054.354.113.54.177s.362.138.537.222.33.19.468.315c.137.126.246.278.33.456.083.178.125.393.125.645 0 .3-.055.578-.164.832s-.27.473-.48.657c-.21.183-.472.327-.785.43s-.676.157-1.084.157c-.21 0-.42-.02-.625-.057s-.4-.092-.588-.162c-.187-.07-.36-.15-.523-.243-.164-.092-.305-.192-.424-.3l.38-.618c.045-.072.1-.128.164-.168.066-.04.15-.06.253-.06.1 0 .19.024.274.074.083.05.177.104.28.162.103.058.225.112.365.162.14.05.316.075.526.075.16 0 .296-.018.41-.054.116-.037.21-.086.28-.148s.124-.132.158-.21c.033-.078.05-.16.05-.243 0-.137-.042-.248-.127-.334-.087-.086-.198-.16-.335-.225s-.294-.12-.473-.173c-.18-.052-.36-.11-.545-.174s-.365-.14-.54-.228c-.178-.088-.335-.2-.472-.333-.137-.134-.248-.3-.333-.495-.086-.196-.128-.434-.128-.714 0-.256.05-.5.148-.73.1-.23.248-.432.446-.608s.445-.316.74-.42.64-.156 1.027-.156c.437 0 .833.07 1.19.215s.65.332.88.564l-.37.587z"/></g><g fill="#EF4438"><path d="M239.065 102.87h-1.387c-.155 0-.28-.038-.378-.112-.097-.074-.17-.17-.217-.285l-.583-1.662h-3.44l-.583 1.663c-.04.1-.11.19-.208.273s-.225.123-.376.123h-1.398l3.374-8.707h1.827l3.368 8.706zm-5.57-3.307h2.57l-.934-2.664c-.055-.14-.113-.305-.174-.493s-.122-.39-.182-.606c-.056.22-.113.426-.172.616-.06.19-.117.355-.173.495l-.935 2.653zM241.29 93.923v8.946h-1.642v-8.947h1.643zM244.314 93.923v8.946h-1.643v-8.947h1.644zM253.414 95.83c-.056.093-.112.16-.17.202s-.132.063-.223.063c-.086 0-.18-.03-.282-.093s-.22-.13-.354-.2c-.135-.073-.29-.14-.464-.202-.174-.062-.38-.093-.613-.093-.413 0-.722.093-.928.28-.208.185-.31.428-.31.728 0 .192.056.35.168.477.113.126.262.235.446.327.185.09.394.173.628.245.234.072.474.15.72.237s.486.187.72.303c.234.116.443.262.628.438.184.176.333.39.446.645.113.254.17.563.17.927 0 .396-.07.767-.206 1.113-.137.346-.334.648-.592.906-.258.258-.576.46-.955.61s-.81.22-1.29.22c-.273 0-.546-.027-.817-.083-.272-.055-.534-.133-.786-.233s-.49-.22-.71-.36c-.224-.14-.418-.296-.584-.468l.524-.853c.043-.064.1-.117.172-.16s.147-.062.226-.062c.107 0 .22.04.34.12s.255.168.41.264c.155.095.334.183.54.263.204.08.448.12.734.12.417 0 .74-.096.967-.288s.34-.478.34-.858c0-.22-.056-.398-.17-.534-.112-.136-.26-.25-.442-.342-.182-.09-.39-.17-.625-.236-.234-.066-.474-.14-.72-.22s-.486-.175-.72-.287c-.234-.112-.442-.26-.625-.444s-.33-.412-.443-.684c-.113-.273-.17-.61-.17-1.015 0-.324.064-.638.19-.942.128-.304.314-.574.56-.81.247-.236.55-.426.908-.57.36-.144.77-.216 1.235-.216.52 0 1 .08 1.443.243s.817.387 1.123.675l-.44.846zM257.187 102.965c-.278 0-.524-.04-.738-.123s-.396-.2-.543-.35-.258-.337-.333-.553c-.075-.217-.113-.46-.113-.733V97.87h-.576c-.087 0-.162-.027-.223-.083-.06-.056-.09-.14-.09-.252v-.648l.98-.18.334-1.602c.044-.18.165-.27.363-.27h.857v1.884h1.583v1.15h-1.583v3.23c0 .17.04.307.122.407.08.1.197.15.348.15.08 0 .146-.01.202-.027.056-.018.103-.038.143-.06l.11-.06s.067-.027.103-.027c.048 0 .087.01.12.033s.062.06.094.11l.494.793c-.225.18-.48.315-.767.407s-.58.138-.886.138zM263.62 102.87c-.155 0-.273-.023-.354-.067-.082-.044-.148-.136-.2-.276l-.13-.39c-.156.136-.305.255-.45.357s-.295.188-.452.258c-.157.07-.324.123-.5.16-.177.035-.372.053-.586.053-.27 0-.516-.036-.738-.108-.222-.072-.414-.18-.574-.32s-.285-.32-.372-.532c-.087-.212-.13-.456-.13-.732 0-.228.057-.455.17-.68.116-.227.314-.433.593-.62s.653-.34 1.12-.464c.465-.125 1.05-.195 1.75-.21v-.32c0-.388-.08-.673-.243-.855-.163-.182-.396-.273-.702-.273-.226 0-.415.027-.565.08-.15.055-.283.113-.396.175-.112.063-.218.12-.317.174-.1.055-.214.082-.345.082-.115 0-.21-.03-.29-.087-.076-.058-.14-.127-.192-.207l-.292-.528c.36-.328.76-.573 1.196-.735s.91-.243 1.417-.243c.365 0 .69.06.98.18s.53.287.73.5.355.47.462.766c.106.296.16.62.16.972v3.888h-.75zm-2.16-1.02c.27 0 .506-.05.708-.148s.403-.25.6-.453v-.96c-.4.015-.733.05-1 .1-.265.053-.476.118-.633.196-.157.078-.268.168-.333.27s-.098.213-.098.333c0 .24.066.41.2.51s.318.15.556.15zM267.774 102.965c-.278 0-.524-.04-.738-.123s-.395-.2-.542-.35-.258-.337-.333-.553c-.074-.217-.112-.46-.112-.733V97.87h-.577c-.086 0-.16-.027-.222-.083-.062-.056-.092-.14-.092-.252v-.648l.982-.18.333-1.602c.045-.18.166-.27.364-.27h.857v1.884h1.584v1.15h-1.583v3.23c0 .17.042.307.123.407.08.1.197.15.348.15.08 0 .147-.01.203-.027.056-.018.103-.038.143-.06l.11-.06s.068-.027.104-.027c.048 0 .087.01.12.033s.062.06.094.11l.494.793c-.226.18-.482.315-.768.407s-.58.138-.886.138zM272.81 96.586c.392 0 .753.063 1.085.19.33.125.617.308.857.548.24.24.427.535.56.885.133.35.2.748.2 1.196 0 .124-.007.226-.02.306-.01.08-.03.144-.06.192-.027.048-.064.08-.112.1-.047.017-.11.026-.185.026h-3.684c.052.58.216 1.004.492 1.272s.638.402 1.086.402c.226 0 .42-.027.586-.08.165-.055.31-.115.435-.18l.338-.18c.1-.055.2-.082.3-.082.127 0 .226.048.298.144l.476.6c-.175.204-.367.373-.578.507-.21.134-.428.24-.654.318-.226.08-.455.133-.685.163-.23.03-.452.045-.667.045-.43 0-.828-.07-1.2-.213s-.693-.352-.97-.63-.492-.623-.65-1.035c-.16-.412-.238-.89-.238-1.434 0-.42.068-.816.206-1.188.137-.372.334-.696.592-.972.258-.276.57-.495.94-.657s.787-.244 1.25-.244zm.03 1.164c-.394 0-.702.113-.924.34s-.367.544-.434.956h2.56c0-.172-.024-.336-.07-.492-.045-.156-.118-.294-.217-.414-.1-.12-.225-.215-.375-.285-.15-.07-.33-.105-.54-.105zM280.343 97.955c-.043.068-.088.117-.134.147-.047.03-.11.045-.19.045s-.16-.02-.243-.06c-.083-.04-.176-.083-.28-.13-.103-.045-.22-.088-.354-.128s-.287-.06-.46-.06c-.267 0-.473.054-.62.164-.147.11-.22.255-.22.435 0 .123.042.227.125.31s.193.158.33.22c.138.063.293.12.468.174.175.054.354.113.54.177s.363.14.538.223c.175.084.33.19.467.315s.248.278.332.456c.083.178.125.393.125.645 0 .3-.055.576-.164.83-.11.254-.27.473-.48.657-.21.184-.47.328-.785.432s-.674.155-1.083.155c-.21 0-.418-.02-.625-.057-.206-.038-.402-.092-.59-.162-.186-.07-.36-.15-.523-.243-.163-.092-.304-.192-.422-.3l.38-.618c.044-.072.1-.128.165-.168.065-.04.15-.06.253-.06.1 0 .19.025.274.075.083.05.176.104.28.162.103.058.225.112.365.162.14.05.316.075.527.075.158 0 .294-.017.41-.053.115-.036.208-.085.28-.147.07-.062.124-.132.158-.21.034-.078.05-.16.05-.243 0-.136-.042-.247-.128-.333s-.196-.16-.333-.225-.295-.123-.473-.175c-.18-.052-.36-.11-.545-.174-.185-.063-.366-.14-.543-.227-.176-.088-.333-.2-.47-.333-.137-.134-.248-.3-.333-.495-.085-.196-.128-.434-.128-.714 0-.255.05-.498.148-.728.1-.23.248-.433.447-.61.2-.175.446-.315.742-.42s.638-.155 1.027-.155c.435 0 .832.072 1.19.216s.65.332.88.564l-.377.588z"/></g><path fill="none" stroke="#6D6E71" stroke-miterlimit="10" stroke-dasharray="1,1" d="M373.078 52.317l31.666 74.964"/><path fill-rule="evenodd" clip-rule="evenodd" fill="#007BC3" d="M403.236 127.597c0 .8.675 1.45 1.508 1.45.832 0 1.508-.65 1.508-1.45s-.676-1.45-1.508-1.45c-.833 0-1.508.65-1.508 1.45z"/></svg>