<?xml version="1.0" encoding="utf-8"?>
<!-- Generator: Adobe Illustrator 16.0.4, SVG Export Plug-In . SVG Version: 6.00 Build 0)  -->
<!DOCTYPE svg PUBLIC "-//W3C//DTD SVG 1.1//EN" "http://www.w3.org/Graphics/SVG/1.1/DTD/svg11.dtd">
<svg version="1.1" id="Layer_1" xmlns="http://www.w3.org/2000/svg" xmlns:xlink="http://www.w3.org/1999/xlink" x="0px" y="0px"
	 width="357.167px" height="338.281px" viewBox="0 0 357.167 338.281" enable-background="new 0 0 357.167 338.281"
	 xml:space="preserve">
<path fill="none" stroke="#CDCCCC" stroke-width="0.75" stroke-linejoin="round" stroke-miterlimit="10" d="M23.613,271.814h333.052
	 M23.613,219.024h333.052 M23.613,166.236h333.052 M23.613,113.447h333.052 M23.613,60.657h333.052 M23.613,7.868h333.052"/>
<line fill="none" stroke="#9B9B9B" stroke-linejoin="round" stroke-miterlimit="10" x1="23.613" y1="324.604" x2="356.665" y2="324.604"/>
<path fill="none" stroke="#9B9B9B" stroke-linejoin="round" stroke-miterlimit="10" d="M23.613,322.109v4.99 M72.594,322.109v4.99
	 M121.575,322.109v4.99 M170.555,322.109v4.99 M219.536,322.109v4.99 M268.518,322.109v4.99 M317.498,322.109v4.99"/>
<polyline fill="none" stroke="#CC333F" stroke-width="3" stroke-linecap="round" stroke-linejoin="round" stroke-miterlimit="10" points="
	28.52,62.304 38.247,62.304 48.06,61.605 57.873,61.805 67.687,61.805 77.5,61.605 87.227,91.442 97.041,120.881 106.854,120.481 
	116.668,120.582 126.481,119.484 136.295,119.484 146.021,114.793 155.835,115.093 165.649,115.492 175.462,115.991 185.275,116.39 
	195.003,116.39 204.815,116.689 214.63,116.989 224.443,117.388 234.257,117.189 244.07,116.989 253.797,117.089 263.61,117.288 
	273.424,117.189 283.237,117.388 293.051,117.388 302.777,118.286 312.591,117.688 322.404,117.788 332.218,117.986 
	342.032,117.986 351.845,118.286 "/>
<polyline fill="none" stroke="#29AAE2" stroke-width="2.16" stroke-linecap="round" stroke-linejoin="round" stroke-miterlimit="10" points="
	28.476,73.729 38.29,71.036 48.103,70.237 57.917,72.731 67.644,70.337 77.457,75.326 87.271,78.42 97.084,91.292 106.897,99.376 
	116.624,107.958 126.438,115.841 136.251,123.625 146.065,126.02 155.879,128.814 165.692,131.209 175.419,131.209 185.232,131.309 
	195.046,136.598 204.859,141.088 214.673,152.564 224.399,157.554 234.213,163.342 244.027,165.936 253.84,170.327 263.653,175.915 
	273.468,179.408 283.193,182.103 293.008,187.49 302.82,188.988 312.635,189.188 322.448,190.186 332.175,190.485 341.988,190.086 
	351.802,190.884 "/>
<polyline fill="none" stroke="#21B573" stroke-width="2.16" stroke-linecap="round" stroke-linejoin="round" stroke-miterlimit="10" points="
	28.476,68.939 38.29,65.847 48.103,64.25 57.917,68.441 67.644,70.337 77.457,77.721 87.271,79.218 97.084,87.401 106.897,91.592 
	116.624,90.694 126.438,91.592 136.251,94.387 146.065,97.879 155.879,101.271 165.692,97.28 175.419,96.98 185.232,95.484 
	195.046,108.656 204.859,120.231 214.673,125.321 224.399,137.097 234.213,139.293 244.027,141.188 253.84,145.279 263.653,148.873 
	273.468,151.267 283.193,153.363 293.008,163.84 302.82,165.038 312.635,165.138 322.448,167.134 332.175,168.332 341.988,171.226 
	351.802,171.725 "/>
<g>
	<text transform="matrix(1 0 0 1 5.7397 324.1943)" fill="#4E4E4E" font-family="'Lato-Regular'" font-size="10">0</text>
</g>
<g>
	<text transform="matrix(1 0 0 1 0 271.4199)"><tspan x="0" y="0" fill="#4E4E4E" font-family="'Lato-Regular'" font-size="10">1</tspan><tspan x="5.86" y="0" fill="#4E4E4E" font-family="'Lato-Regular'" font-size="10">0</tspan></text>
</g>
<g>
	<text transform="matrix(1 0 0 1 0 218.6396)"><tspan x="0" y="0" fill="#4E4E4E" font-family="'Lato-Regular'" font-size="10">2</tspan><tspan x="5.86" y="0" fill="#4E4E4E" font-family="'Lato-Regular'" font-size="10">0</tspan></text>
</g>
<g>
	<text transform="matrix(1 0 0 1 0 165.8604)"><tspan x="0" y="0" fill="#4E4E4E" font-family="'Lato-Regular'" font-size="10">3</tspan><tspan x="5.86" y="0" fill="#4E4E4E" font-family="'Lato-Regular'" font-size="10">0</tspan></text>
</g>
<g>
	<text transform="matrix(1 0 0 1 0 113.0801)"><tspan x="0" y="0" fill="#4E4E4E" font-family="'Lato-Regular'" font-size="10">4</tspan><tspan x="5.86" y="0" fill="#4E4E4E" font-family="'Lato-Regular'" font-size="10">0</tspan></text>
</g>
<g>
	<text transform="matrix(1 0 0 1 0 60.3066)"><tspan x="0" y="0" fill="#4E4E4E" font-family="'Lato-Regular'" font-size="10">5</tspan><tspan x="5.86" y="0" fill="#4E4E4E" font-family="'Lato-Regular'" font-size="10">0</tspan></text>
</g>
<g>
	<text transform="matrix(1 0 0 1 0 7.5264)"><tspan x="0" y="0" fill="#4E4E4E" font-family="'Lato-Regular'" font-size="10">6</tspan><tspan x="5.86" y="0" fill="#4E4E4E" font-family="'Lato-Regular'" font-size="10">0</tspan><tspan x="11.6" y="0" fill="#4E4E4E" font-family="'Lato-Regular'" font-size="10">%</tspan></text>
</g>
<g>
	<text transform="matrix(1 0 0 1 10.9268 338.0693)"><tspan x="0" y="0" fill="#4E4E4E" font-family="'Lato-Regular'" font-size="10">1</tspan><tspan x="5.86" y="0" fill="#4E4E4E" font-family="'Lato-Regular'" font-size="10">9</tspan><tspan x="11.6" y="0" fill="#4E4E4E" font-family="'Lato-Regular'" font-size="10">8</tspan><tspan x="17.459" y="0" fill="#4E4E4E" font-family="'Lato-Regular'" font-size="10">1</tspan></text>
</g>
<g>
	<text transform="matrix(1 0 0 1 59.918 338.0693)"><tspan x="0" y="0" fill="#4E4E4E" font-family="'Lato-Regular'" font-size="10">1</tspan><tspan x="5.86" y="0" fill="#4E4E4E" font-family="'Lato-Regular'" font-size="10">9</tspan><tspan x="11.6" y="0" fill="#4E4E4E" font-family="'Lato-Regular'" font-size="10">8</tspan><tspan x="17.459" y="0" fill="#4E4E4E" font-family="'Lato-Regular'" font-size="10">6</tspan></text>
</g>
<g>
	<text transform="matrix(1 0 0 1 108.9043 338.0693)"><tspan x="0" y="0" fill="#4E4E4E" font-family="'Lato-Regular'" font-size="10">1</tspan><tspan x="5.86" y="0" fill="#4E4E4E" font-family="'Lato-Regular'" font-size="10">9</tspan><tspan x="11.6" y="0" fill="#4E4E4E" font-family="'Lato-Regular'" font-size="10">9</tspan><tspan x="17.459" y="0" fill="#4E4E4E" font-family="'Lato-Regular'" font-size="10">1</tspan></text>
</g>
<g>
	<text transform="matrix(1 0 0 1 157.8906 338.0693)"><tspan x="0" y="0" fill="#4E4E4E" font-family="'Lato-Regular'" font-size="10">1</tspan><tspan x="5.86" y="0" fill="#4E4E4E" font-family="'Lato-Regular'" font-size="10">9</tspan><tspan x="11.6" y="0" fill="#4E4E4E" font-family="'Lato-Regular'" font-size="10">9</tspan><tspan x="17.46" y="0" fill="#4E4E4E" font-family="'Lato-Regular'" font-size="10">6</tspan></text>
</g>
<g>
	<text transform="matrix(1 0 0 1 206.8828 338.0693)"><tspan x="0" y="0" fill="#4E4E4E" font-family="'Lato-Regular'" font-size="10">2</tspan><tspan x="5.86" y="0" fill="#4E4E4E" font-family="'Lato-Regular'" font-size="10">0</tspan><tspan x="11.6" y="0" fill="#4E4E4E" font-family="'Lato-Regular'" font-size="10">0</tspan><tspan x="17.46" y="0" fill="#4E4E4E" font-family="'Lato-Regular'" font-size="10">1</tspan></text>
</g>
<g>
	<text transform="matrix(1 0 0 1 255.875 338.0693)"><tspan x="0" y="0" fill="#4E4E4E" font-family="'Lato-Regular'" font-size="10">2</tspan><tspan x="5.86" y="0" fill="#4E4E4E" font-family="'Lato-Regular'" font-size="10">0</tspan><tspan x="11.6" y="0" fill="#4E4E4E" font-family="'Lato-Regular'" font-size="10">0</tspan><tspan x="17.46" y="0" fill="#4E4E4E" font-family="'Lato-Regular'" font-size="10">6</tspan></text>
</g>
<g>
	<text transform="matrix(1 0 0 1 304.8613 338.0693)"><tspan x="0" y="0" fill="#4E4E4E" font-family="'Lato-Regular'" font-size="10">2</tspan><tspan x="5.86" y="0" fill="#4E4E4E" font-family="'Lato-Regular'" font-size="10">0</tspan><tspan x="11.6" y="0" fill="#4E4E4E" font-family="'Lato-Regular'" font-size="10">1</tspan><tspan x="17.46" y="0" fill="#4E4E4E" font-family="'Lato-Regular'" font-size="10">1</tspan></text>
</g>
<g>
	<text transform="matrix(1 0 0 1 235.8027 108.7134)"><tspan x="0" y="0" fill="#CC333F" font-family="'Lato-Heavy'" font-size="12">A</tspan><tspan x="8.388" y="0" fill="#CC333F" font-family="'Lato-Heavy'" font-size="12">v</tspan><tspan x="14.724" y="0" fill="#CC333F" font-family="'Lato-Heavy'" font-size="12">e</tspan><tspan x="21.204" y="0" fill="#CC333F" font-family="'Lato-Heavy'" font-size="12">r</tspan><tspan x="25.668" y="0" fill="#CC333F" font-family="'Lato-Heavy'" font-size="12">a</tspan><tspan x="31.848" y="0" fill="#CC333F" font-family="'Lato-Heavy'" font-size="12">g</tspan><tspan x="38.237" y="0" fill="#CC333F" font-family="'Lato-Heavy'" font-size="12">e</tspan><tspan x="44.718" y="0" fill="#CC333F" font-family="'Lato-Heavy'" font-size="12"> </tspan><tspan x="47.375" y="0" fill="#CC333F" font-family="'Lato-Heavy'" font-size="12">U.</tspan><tspan x="59.249" y="0" fill="#CC333F" font-family="'Lato-Heavy'" font-size="12">S</tspan><tspan x="65.861" y="0" fill="#CC333F" font-family="'Lato-Heavy'" font-size="12">.</tspan><tspan x="68.753" y="0" fill="#CC333F" font-family="'Lato-Heavy'" font-size="12"> </tspan><tspan x="71.411" y="0" fill="#CC333F" font-family="'Lato-Heavy'" font-size="12">Ra</tspan><tspan x="85.421" y="0" fill="#CC333F" font-family="'Lato-Heavy'" font-size="12">te</tspan></text>
</g>
<g>
	<text transform="matrix(1 0 0 1 272.7588 134.7134)"><tspan x="0" y="0" fill="#21B573" font-family="'Lato-Heavy'" font-size="12">OECD Average  </tspan><tspan x="12.096" y="14.4" fill="#21B573" font-family="'Lato-Heavy'" font-size="12">(Weighted)</tspan></text>
</g>
<g>
	<text transform="matrix(1 0 0 1 170.8213 189.2656)"><tspan x="0" y="0" fill="#29AAE2" font-family="'Lato-Heavy'" font-size="12">OECD Average  </tspan><tspan x="20.621" y="14.4" fill="#29AAE2" font-family="'Lato-Heavy'" font-size="12">(Simple)</tspan></text>
</g>
</svg>
