<svg xmlns="http://www.w3.org/2000/svg" width="357.167" height="338.281" viewBox="0 0 357.167 338.281"><path stroke="#CDCCCC" stroke-width=".75" stroke-linejoin="round" stroke-miterlimit="10" d="M23.613 271.814h333.052m-333.052-52.79h333.052M23.613 166.236h333.052m-333.052-52.79h333.052M23.613 60.657h333.052M23.613 7.87h333.052" fill="none"/><path stroke="#9B9B9B" stroke-linejoin="round" stroke-miterlimit="10" fill="none" d="M23.613 324.604h333.052M23.613 322.11v4.99m48.98-4.99v4.99m48.982-4.99v4.99m48.98-4.99v4.99m48.98-4.99v4.99m48.983-4.99v4.99m48.98-4.99v4.99"/><path stroke="#CC333F" stroke-width="3" stroke-linecap="round" stroke-linejoin="round" stroke-miterlimit="10" fill="none" d="M28.52 62.304h9.727l9.813-.7 9.813.2h9.814l9.813-.2 9.727 29.838 9.814 29.44 9.814-.4 9.814.1 9.813-1.098h9.815l9.726-4.69 9.815.3 9.814.398 9.812.5 9.813.398h9.728l9.812.3 9.815.3 9.813.398 9.814-.2 9.813-.2 9.727.1 9.813.2 9.814-.1 9.813.2h9.814l9.727.898 9.814-.598 9.814.1 9.814.198h9.814l9.813.3"/><path stroke="#29AAE2" stroke-width="2.16" stroke-linecap="round" stroke-linejoin="round" stroke-miterlimit="10" fill="none" d="M28.476 73.73l9.814-2.694 9.813-.8 9.814 2.495 9.727-2.393 9.813 4.99 9.814 3.093 9.814 12.872 9.813 8.084 9.727 8.582 9.814 7.883 9.813 7.785 9.815 2.395 9.814 2.794 9.812 2.395h9.727l9.812.1 9.814 5.288 9.813 4.49 9.813 11.476 9.726 4.99 9.813 5.788 9.814 2.594 9.813 4.39 9.813 5.59 9.815 3.492 9.725 2.695 9.815 5.387 9.812 1.498 9.815.2 9.813.998 9.727.3 9.813-.4 9.814.798"/><path stroke="#21B573" stroke-width="2.16" stroke-linecap="round" stroke-linejoin="round" stroke-miterlimit="10" fill="none" d="M28.476 68.94l9.814-3.093 9.813-1.597 9.814 4.19 9.727 1.897 9.813 7.384 9.814 1.498 9.814 8.183 9.813 4.192 9.727-.898 9.814.898 9.813 2.795 9.815 3.492 9.814 3.39 9.812-3.99 9.727-.3 9.812-1.496 9.814 13.172 9.813 11.575 9.813 5.09 9.726 11.777 9.813 2.196 9.814 1.895 9.813 4.09 9.813 3.595 9.815 2.394 9.725 2.096 9.815 10.477 9.812 1.198 9.815.1 9.813 1.996 9.727 1.198 9.813 2.894 9.814.5"/><text transform="translate(5.74 324.194)" fill="#4E4E4E" font-family="'Lato-Regular'" font-size="10">0</text><text transform="translate(0 271.42)"><tspan x="0" y="0" fill="#4E4E4E" font-family="'Lato-Regular'" font-size="10">1</tspan><tspan x="5.86" y="0" fill="#4E4E4E" font-family="'Lato-Regular'" font-size="10">0</tspan></text><text transform="translate(0 218.64)"><tspan x="0" y="0" fill="#4E4E4E" font-family="'Lato-Regular'" font-size="10">2</tspan><tspan x="5.86" y="0" fill="#4E4E4E" font-family="'Lato-Regular'" font-size="10">0</tspan></text><text transform="translate(0 165.86)"><tspan x="0" y="0" fill="#4E4E4E" font-family="'Lato-Regular'" font-size="10">3</tspan><tspan x="5.86" y="0" fill="#4E4E4E" font-family="'Lato-Regular'" font-size="10">0</tspan></text><text transform="translate(0 113.08)"><tspan x="0" y="0" fill="#4E4E4E" font-family="'Lato-Regular'" font-size="10">4</tspan><tspan x="5.86" y="0" fill="#4E4E4E" font-family="'Lato-Regular'" font-size="10">0</tspan></text><text transform="translate(0 60.307)"><tspan x="0" y="0" fill="#4E4E4E" font-family="'Lato-Regular'" font-size="10">5</tspan><tspan x="5.86" y="0" fill="#4E4E4E" font-family="'Lato-Regular'" font-size="10">0</tspan></text><text transform="translate(0 7.526)"><tspan x="0" y="0" fill="#4E4E4E" font-family="'Lato-Regular'" font-size="10">6</tspan><tspan x="5.86" y="0" fill="#4E4E4E" font-family="'Lato-Regular'" font-size="10">0</tspan><tspan x="11.6" y="0" fill="#4E4E4E" font-family="'Lato-Regular'" font-size="10">%</tspan></text><text transform="translate(10.927 338.069)"><tspan x="0" y="0" fill="#4E4E4E" font-family="'Lato-Regular'" font-size="10">1</tspan><tspan x="5.86" y="0" fill="#4E4E4E" font-family="'Lato-Regular'" font-size="10">9</tspan><tspan x="11.6" y="0" fill="#4E4E4E" font-family="'Lato-Regular'" font-size="10">8</tspan><tspan x="17.459" y="0" fill="#4E4E4E" font-family="'Lato-Regular'" font-size="10">1</tspan></text><text transform="translate(59.918 338.069)"><tspan x="0" y="0" fill="#4E4E4E" font-family="'Lato-Regular'" font-size="10">1</tspan><tspan x="5.86" y="0" fill="#4E4E4E" font-family="'Lato-Regular'" font-size="10">9</tspan><tspan x="11.6" y="0" fill="#4E4E4E" font-family="'Lato-Regular'" font-size="10">8</tspan><tspan x="17.459" y="0" fill="#4E4E4E" font-family="'Lato-Regular'" font-size="10">6</tspan></text><text transform="translate(108.904 338.069)"><tspan x="0" y="0" fill="#4E4E4E" font-family="'Lato-Regular'" font-size="10">1</tspan><tspan x="5.86" y="0" fill="#4E4E4E" font-family="'Lato-Regular'" font-size="10">9</tspan><tspan x="11.6" y="0" fill="#4E4E4E" font-family="'Lato-Regular'" font-size="10">9</tspan><tspan x="17.459" y="0" fill="#4E4E4E" font-family="'Lato-Regular'" font-size="10">1</tspan></text><text transform="translate(157.891 338.069)"><tspan x="0" y="0" fill="#4E4E4E" font-family="'Lato-Regular'" font-size="10">1</tspan><tspan x="5.86" y="0" fill="#4E4E4E" font-family="'Lato-Regular'" font-size="10">9</tspan><tspan x="11.6" y="0" fill="#4E4E4E" font-family="'Lato-Regular'" font-size="10">9</tspan><tspan x="17.46" y="0" fill="#4E4E4E" font-family="'Lato-Regular'" font-size="10">6</tspan></text><text transform="translate(206.883 338.069)"><tspan x="0" y="0" fill="#4E4E4E" font-family="'Lato-Regular'" font-size="10">2</tspan><tspan x="5.86" y="0" fill="#4E4E4E" font-family="'Lato-Regular'" font-size="10">0</tspan><tspan x="11.6" y="0" fill="#4E4E4E" font-family="'Lato-Regular'" font-size="10">0</tspan><tspan x="17.46" y="0" fill="#4E4E4E" font-family="'Lato-Regular'" font-size="10">1</tspan></text><text transform="translate(255.875 338.069)"><tspan x="0" y="0" fill="#4E4E4E" font-family="'Lato-Regular'" font-size="10">2</tspan><tspan x="5.86" y="0" fill="#4E4E4E" font-family="'Lato-Regular'" font-size="10">0</tspan><tspan x="11.6" y="0" fill="#4E4E4E" font-family="'Lato-Regular'" font-size="10">0</tspan><tspan x="17.46" y="0" fill="#4E4E4E" font-family="'Lato-Regular'" font-size="10">6</tspan></text><text transform="translate(304.861 338.069)"><tspan x="0" y="0" fill="#4E4E4E" font-family="'Lato-Regular'" font-size="10">2</tspan><tspan x="5.86" y="0" fill="#4E4E4E" font-family="'Lato-Regular'" font-size="10">0</tspan><tspan x="11.6" y="0" fill="#4E4E4E" font-family="'Lato-Regular'" font-size="10">1</tspan><tspan x="17.46" y="0" fill="#4E4E4E" font-family="'Lato-Regular'" font-size="10">1</tspan></text><text transform="translate(235.803 108.713)"><tspan x="0" y="0" fill="#CC333F" font-family="'Lato-Heavy'" font-size="12">A</tspan><tspan x="8.388" y="0" fill="#CC333F" font-family="'Lato-Heavy'" font-size="12">v</tspan><tspan x="14.724" y="0" fill="#CC333F" font-family="'Lato-Heavy'" font-size="12">e</tspan><tspan x="21.204" y="0" fill="#CC333F" font-family="'Lato-Heavy'" font-size="12">r</tspan><tspan x="25.668" y="0" fill="#CC333F" font-family="'Lato-Heavy'" font-size="12">a</tspan><tspan x="31.848" y="0" fill="#CC333F" font-family="'Lato-Heavy'" font-size="12">g</tspan><tspan x="38.237" y="0" fill="#CC333F" font-family="'Lato-Heavy'" font-size="12">e</tspan><tspan x="47.375" y="0" fill="#CC333F" font-family="'Lato-Heavy'" font-size="12">U.</tspan><tspan x="59.249" y="0" fill="#CC333F" font-family="'Lato-Heavy'" font-size="12">S</tspan><tspan x="65.861" y="0" fill="#CC333F" font-family="'Lato-Heavy'" font-size="12">.</tspan><tspan x="71.411" y="0" fill="#CC333F" font-family="'Lato-Heavy'" font-size="12">Ra</tspan><tspan x="85.421" y="0" fill="#CC333F" font-family="'Lato-Heavy'" font-size="12">te</tspan></text><text transform="translate(272.759 134.713)"><tspan x="0" y="0" fill="#21B573" font-family="'Lato-Heavy'" font-size="12">OECD Average</tspan><tspan x="12.096" y="14.4" fill="#21B573" font-family="'Lato-Heavy'" font-size="12">(Weighted)</tspan></text><text transform="translate(170.821 189.266)"><tspan x="0" y="0" fill="#29AAE2" font-family="'Lato-Heavy'" font-size="12">OECD Average</tspan><tspan x="20.621" y="14.4" fill="#29AAE2" font-family="'Lato-Heavy'" font-size="12">(Simple)</tspan></text></svg>