<svg xmlns="http://www.w3.org/2000/svg" width="365" height="360.667" viewBox="0 0 365 360.667"><style>text, tspan { font-family: &apos;Lato&apos;; } .heavy { font-weight: 700; }</style><path fill="#CC333F" d="M81.83.787h257.05v6.676H81.83V.787z"/><text transform="translate(341.574 6.906)"><tspan x="0" y="0" fill="#808285" class="heavy" font-size="7.731">39</tspan><tspan x="9.446" y="0" fill="#808285" class="heavy" font-size="7.731">.</tspan><tspan x="11.511" y="0" fill="#808285" class="heavy" font-size="7.731">1</tspan><tspan x="16.234" y="0" fill="#808285" class="heavy" font-size="7.731">%</tspan></text><text transform="translate(19.921 7.463)"><tspan x="0" y="0" fill="#808285" class="heavy" font-size="8">United States</tspan></text><text transform="translate(334.487 17.986)" fill="#808285" class="heavy" font-size="7.731">37.0%</text><path fill-rule="evenodd" clip-rule="evenodd" fill="#90D5F3" d="M82.537 211.943h162.73v6.676H82.536z"/><path fill-rule="evenodd" clip-rule="evenodd" fill="#21B573" d="M82.537 191.92h167.08v6.674H82.536z"/><path fill-rule="evenodd" clip-rule="evenodd" fill="#F79420" d="M82.537 101.81h194.765v6.675H82.537z"/><path fill="#90D5F3" d="M331.384 18.174H82.378V11.61h249.006v6.564zM313.918 28.68H82.378v-7.223h231.54v7.222zm-2.687 9.847H82.38v-6.565H311.23v6.565zm-17.018 9.848H82.378V41.81h211.834v6.565zm-8.958 9.85H82.378v-6.567h202.876v6.566zm-.895 10.504H82.377v-7.223h201.98v7.222zm0 9.847H82.377v-6.565h201.98v6.565zm0 9.848H82.377V81.86h201.98v6.565zm-5.374 9.848H82.378v-6.565h196.607v6.565zm-8.063 20.354H82.378v-6.565h188.545v6.565zm-3.584 9.85H82.377v-6.567h184.96v6.566zm-3.132 9.847H82.378v-6.565h181.83v6.564zm-3.584 10.505H82.378v-7.223h178.245v7.222zm-1.344 9.847H82.378v-6.565H259.28v6.565zm-1.79 9.848H82.377v-6.565h175.11v6.565zm-6.718 9.848H82.378v-6.565h168.394v6.565zm0 10.505H82.378v-7.222h168.394v7.222zm-3.584 19.697H82.378v-6.565h164.81v6.565zm-16.572 20.354H82.378v-7.224h148.237v7.223zm0 9.845H82.378v-6.565h148.237v6.565zm-5.82 9.85H82.378v-6.566h142.418v6.564zm-.896 9.848H82.378v-6.565H223.9v6.565zm0 10.505H82.378v-7.223H223.9v7.223zm-6.717 9.848H82.378v-6.566h134.805v6.566zm0 9.848H82.378v-6.565h134.805v6.564zm0 9.848H82.378v-6.565h134.805v6.565zm0 10.505H82.378v-7.222h134.805v7.222zm-6.72 9.848H82.38v-6.564h128.086v6.565zm0 9.85H82.38v-6.567h128.086v6.566zm0 9.846H82.38v-6.564h128.086v6.565zm-13.434 10.506H82.377v-7.222h114.65v7.222zm-30.455 9.85H82.378v-6.566h84.196v6.565z"/><text transform="translate(169.726 358.078)" fill="#808285" class="heavy" font-size="7.731">12.5%</text><text transform="translate(199.985 348.065)" fill="#808285" class="heavy" font-size="7.731">17.0%</text><text transform="translate(213.433 338.053)" fill="#808285" class="heavy" font-size="7.731">19.0%</text><text transform="translate(213.433 328.041)" fill="#808285" class="heavy" font-size="7.731">19.0%</text><text transform="translate(213.433 318.029)" fill="#808285" class="heavy" font-size="7.731">19.0%</text><text transform="translate(220.16 308.016)" fill="#808285" class="heavy" font-size="7.731">20.0%</text><text transform="translate(220.16 298.004)" fill="#808285" class="heavy" font-size="7.731">20.0%</text><text transform="translate(220.16 287.992)" fill="#808285" class="heavy" font-size="7.731">20.0%</text><text transform="translate(220.16 277.981)" fill="#808285" class="heavy" font-size="7.731">20.0%</text><text transform="translate(226.881 267.969)" fill="#808285" class="heavy" font-size="7.731">21.0%</text><text transform="translate(226.881 257.956)" fill="#808285" class="heavy" font-size="7.731">21.0%</text><text transform="translate(227.88 247.943)" fill="#808285" class="heavy" font-size="7.731">21.1%</text><text transform="translate(233.608 237.932)" fill="#808285" class="heavy" font-size="7.731">22.0%</text><text transform="translate(233.608 227.92)" fill="#808285" class="heavy" font-size="7.731">22.0%</text><text transform="translate(248.401 217.907)" fill="#808285" class="heavy" font-size="7.731">24.2%</text><text transform="translate(250.417 207.897)" fill="#808285" class="heavy" font-size="7.731">24.5%</text><text transform="translate(252.751 197.883)" fill="#808285" class="heavy" font-size="7.731">24.8%</text><text transform="translate(253.781 187.871)" fill="#808285" class="heavy" font-size="7.731">25.0%</text><text transform="translate(253.781 177.859)" fill="#808285" class="heavy" font-size="7.731">25.0%</text><text transform="translate(260.503 167.848)" fill="#808285" class="heavy" font-size="7.731">26.0%</text><text transform="translate(262.522 157.835)" fill="#808285" class="heavy" font-size="7.731">26.3%</text><text transform="translate(263.867 147.823)" fill="#808285" class="heavy" font-size="7.731">26.5%</text><text transform="translate(267.23 137.81)" fill="#808285" class="heavy" font-size="7.731">27.0%</text><text transform="translate(270.59 127.799)" fill="#808285" class="heavy" font-size="7.731">27.5%</text><text transform="translate(273.952 117.787)" fill="#808285" class="heavy" font-size="7.731">28.0%</text><text transform="translate(280.437 107.774)" fill="#808285" class="heavy" font-size="7.731">29.0%</text><text transform="translate(282.156 97.763)" fill="#808285" class="heavy" font-size="7.731">29.2%</text><text transform="translate(287.402 87.751)" fill="#808285" class="heavy" font-size="7.731">30.0%</text><text transform="translate(287.402 77.738)" fill="#808285" class="heavy" font-size="7.731">30.0%</text><text transform="translate(287.402 67.727)" fill="#808285" class="heavy" font-size="7.731">30.0%</text><text transform="translate(288.577 57.714)" fill="#808285" class="heavy" font-size="7.731">30.2%</text><text transform="translate(297.488 47.702)" fill="#808285" class="heavy" font-size="7.731">31.5%</text><text transform="translate(314.232 37.69)" fill="#808285" class="heavy" font-size="7.731">34.0%</text><text transform="translate(317.19 27.678)" fill="#808285" class="heavy" font-size="7.731">34.4%</text><text transform="translate(45.041 358.078)" fill="#808285" class="heavy" font-size="8">Ireland</text><text transform="translate(39.477 348.065)" fill="#808285" class="heavy" font-size="8">Slovenia</text><text transform="translate(13.896 338.053)" fill="#808285" class="heavy" font-size="8">Czech Republic</text><text transform="translate(39.124 328.041)" fill="#808285" class="heavy" font-size="8">Hungary</text><text transform="translate(45.333 318.029)" fill="#808285" class="heavy" font-size="8">Poland</text><text transform="translate(52.192 308.016)" fill="#808285" class="heavy" font-size="8">Chile</text><text transform="translate(43.624 298.006)" fill="#808285" class="heavy" font-size="8">Finland</text><text transform="translate(44.184 287.992)" fill="#808285" class="heavy" font-size="8">Iceland</text><text transform="translate(44.913 277.981)" fill="#808285" class="heavy" font-size="8">Turkey</text><text transform="translate(43.517 267.969)" fill="#808285" class="heavy" font-size="8">Estonia</text><text transform="translate(9.881 257.957)" fill="#808285" class="heavy" font-size="8">United Kingdom</text><text transform="translate(26.98 247.943)" fill="#808285" class="heavy" font-size="8">Switzerland</text><text transform="translate(11.581 237.932)" fill="#808285" class="heavy" font-size="8">Slovak Republic</text><text transform="translate(41.637 227.92)" fill="#808285" class="heavy" font-size="8">Sweden</text><text transform="translate(48.82 217.907)" fill="#808285" class="heavy" font-size="8">Korea</text><text transform="translate(36.865 207.897)" fill="#808285" class="heavy" font-size="8">Denmark</text><text transform="translate(12.757 197.883)" fill="#808285" class="heavy" font-size="8">Simple Average</text><text transform="translate(44.101 187.871)" fill="#808285" class="heavy" font-size="8">Austria</text><text transform="translate(25.093 177.859)" fill="#808285" class="heavy" font-size="8">Netherlands</text><text transform="translate(44.652 167.848)" fill="#808285" class="heavy" font-size="8">Greece</text><text transform="translate(43.537 157.835)" fill="#808285" class="heavy" font-size="8">Canada</text><text transform="translate(50.804 147.823)" fill="#808285" class="heavy" font-size="8">Israel</text><text transform="translate(41.548 137.81)" fill="#808285" class="heavy" font-size="8">Norway</text><text transform="translate(54.572 127.799)" fill="#808285" class="heavy" font-size="8">Italy</text><text transform="translate(21.877 117.787)" fill="#808285" class="heavy" font-size="8">New Zealand</text><text transform="translate(.989 107.774)" fill="#808285" class="heavy" font-size="8">Weighted Average</text><text transform="translate(24.413 97.763)" fill="#808285" class="heavy" font-size="8">Luxembourg</text><text transform="translate(37.573 87.751)" fill="#808285" class="heavy" font-size="8">Australia</text><text transform="translate(43.472 77.738)" fill="#808285" class="heavy" font-size="8">Mexico</text><text transform="translate(50.712 67.727)" fill="#808285" class="heavy" font-size="8">Spain</text><text transform="translate(37.265 57.714)" fill="#808285" class="heavy" font-size="8">Germany</text><text transform="translate(39.216 47.702)" fill="#808285" class="heavy" font-size="8">Portugal</text><text transform="translate(40.76 37.69)" fill="#808285" class="heavy" font-size="8">Belgium</text><text transform="translate(45.864 27.678)" fill="#808285" class="heavy" font-size="8">France</text><text transform="translate(49.648 17.666)" fill="#808285" class="heavy" font-size="8">Japan</text></svg>