<?xml version="1.0" encoding="utf-8"?>
<!-- Generator: Adobe Illustrator 16.0.4, SVG Export Plug-In . SVG Version: 6.00 Build 0)  -->
<!DOCTYPE svg PUBLIC "-//W3C//DTD SVG 1.1//EN" "http://www.w3.org/Graphics/SVG/1.1/DTD/svg11.dtd">
<svg version="1.1" id="Layer_1" xmlns="http://www.w3.org/2000/svg" xmlns:xlink="http://www.w3.org/1999/xlink" x="0px" y="0px"
	 width="365px" height="360.667px" viewBox="0 0 365 360.667" enable-background="new 0 0 365 360.667" xml:space="preserve"><style>text, tspan { font-family: &apos;Lato&apos;; } .heavy { font-weight: 700; }</style>
<polygon fill="#CC333F" points="81.831,0.787 338.88,0.787 338.88,7.463 81.831,7.463 81.831,0.787 "/>
<g>
	<text transform="matrix(1 0 0 1 341.5737 6.9058)"><tspan x="0" y="0" fill="#808285" class="heavy" font-size="7.7307">39</tspan><tspan x="9.446" y="0" fill="#808285" class="heavy" font-size="7.7307">.</tspan><tspan x="11.511" y="0" fill="#808285" class="heavy" font-size="7.7307">1</tspan><tspan x="16.234" y="0" fill="#808285" class="heavy" font-size="7.7307">%</tspan></text>
</g>
<g>
	<text transform="matrix(1 0 0 1 19.9214 7.4629)"><tspan x="0" y="0" fill="#808285" class="heavy" font-size="8">United States </tspan></text>
</g>
<g>
	<text transform="matrix(1 0 0 1 334.4868 17.9858)" fill="#808285" class="heavy" font-size="7.7307">37.0% </text>
</g>
<rect x="82.537" y="211.943" fill-rule="evenodd" clip-rule="evenodd" fill="#90D5F3" width="162.729" height="6.676"/>
<rect x="82.537" y="191.92" fill-rule="evenodd" clip-rule="evenodd" fill="#21B573" width="167.079" height="6.674"/>
<rect x="82.537" y="101.811" fill-rule="evenodd" clip-rule="evenodd" fill="#F79420" width="194.765" height="6.674"/>
<path fill="#90D5F3" d="M331.384,18.174H82.378v-6.565h249.006V18.174z M313.918,28.679H82.378v-7.222h231.54V28.679z
	 M311.231,38.527H82.378v-6.565h228.853V38.527z M294.212,48.375H82.378V41.81h211.834V48.375z M285.254,58.224H82.378v-6.566
	h202.876V58.224z M284.359,68.729H82.378v-7.222h201.98V68.729z M284.359,78.577H82.378v-6.565h201.98V78.577z M284.359,88.425
	H82.378V81.86h201.98V88.425z M278.986,98.273H82.378v-6.565h196.607V98.273z M270.923,118.627H82.378v-6.565h188.545V118.627z
	 M267.339,128.476H82.378v-6.566h184.961V128.476z M264.208,138.324H82.378v-6.565h181.829V138.324z M260.624,148.829H82.378v-7.222
	h178.245V148.829z M259.28,158.677H82.378v-6.565H259.28V158.677z M257.489,168.525H82.378v-6.565h175.11V168.525z M250.772,178.373
	H82.378v-6.565h168.394V178.373z M250.772,188.878H82.378v-7.222h168.394V188.878z M247.188,208.575H82.378v-6.565h164.81V208.575z
	 M230.616,228.929H82.378v-7.223h148.237V228.929z M230.616,238.775H82.378v-6.565h148.237V238.775z M224.796,248.624H82.378v-6.565
	h142.418V248.624z M223.9,258.473H82.378v-6.565H223.9V258.473z M223.9,268.978H82.378v-7.223H223.9V268.978z M217.183,278.826
	H82.378v-6.566h134.805V278.826z M217.183,288.674H82.378v-6.565h134.805V288.674z M217.183,298.522H82.378v-6.565h134.805V298.522z
	 M217.183,309.027H82.378v-7.222h134.805V309.027z M210.464,318.875H82.378v-6.564h128.086V318.875z M210.464,328.724H82.378v-6.566
	h128.086V328.724z M210.464,338.571H82.378v-6.565h128.086V338.571z M197.029,349.076H82.378v-7.222h114.65V349.076z
	 M166.575,358.925H82.378v-6.565h84.196V358.925z"/>
<g>
	<text transform="matrix(1 0 0 1 169.7261 358.0781)" fill="#808285" class="heavy" font-size="7.7307">12.5% </text>
</g>
<g>
	<text transform="matrix(1 0 0 1 199.9849 348.0645)" fill="#808285" class="heavy" font-size="7.7307">17.0% </text>
</g>
<g>
	<text transform="matrix(1 0 0 1 213.4331 338.0527)" fill="#808285" class="heavy" font-size="7.7307">19.0% </text>
</g>
<g>
	<text transform="matrix(1 0 0 1 213.4331 328.041)" fill="#808285" class="heavy" font-size="7.7307">19.0% </text>
</g>
<g>
	<text transform="matrix(1 0 0 1 213.4331 318.0293)" fill="#808285" class="heavy" font-size="7.7307">19.0% </text>
</g>
<g>
	<text transform="matrix(1 0 0 1 220.1597 308.0156)" fill="#808285" class="heavy" font-size="7.7307">20.0% </text>
</g>
<g>
	<text transform="matrix(1 0 0 1 220.1597 298.0039)" fill="#808285" class="heavy" font-size="7.7307">20.0% </text>
</g>
<g>
	<text transform="matrix(1 0 0 1 220.1597 287.9922)" fill="#808285" class="heavy" font-size="7.7307">20.0% </text>
</g>
<g>
	<text transform="matrix(1 0 0 1 220.1597 277.9805)" fill="#808285" class="heavy" font-size="7.7307">20.0% </text>
</g>
<g>
	<text transform="matrix(1 0 0 1 226.8813 267.9688)" fill="#808285" class="heavy" font-size="7.7307">21.0% </text>
</g>
<g>
	<text transform="matrix(1 0 0 1 226.8813 257.9561)" fill="#808285" class="heavy" font-size="7.7307">21.0% </text>
</g>
<g>
	<text transform="matrix(1 0 0 1 227.8804 247.9434)" fill="#808285" class="heavy" font-size="7.7307">21.1% </text>
</g>
<g>
	<text transform="matrix(1 0 0 1 233.6079 237.9316)" fill="#808285" class="heavy" font-size="7.7307">22.0% </text>
</g>
<g>
	<text transform="matrix(1 0 0 1 233.6079 227.9199)" fill="#808285" class="heavy" font-size="7.7307">22.0% </text>
</g>
<g>
	<text transform="matrix(1 0 0 1 248.4009 217.9072)" fill="#808285" class="heavy" font-size="7.7307">24.2% </text>
</g>
<g>
	<text transform="matrix(1 0 0 1 250.4175 207.8965)" fill="#808285" class="heavy" font-size="7.7307">24.5% </text>
</g>
<g>
	<text transform="matrix(1 0 0 1 252.7515 197.8828)" fill="#808285" class="heavy" font-size="7.7307">24.8% </text>
</g>
<g>
	<text transform="matrix(1 0 0 1 253.7808 187.8711)" fill="#808285" class="heavy" font-size="7.7307">25.0% </text>
</g>
<g>
	<text transform="matrix(1 0 0 1 253.7808 177.8589)" fill="#808285" class="heavy" font-size="7.7307">25.0% </text>
</g>
<g>
	<text transform="matrix(1 0 0 1 260.5034 167.8477)" fill="#808285" class="heavy" font-size="7.7307">26.0% </text>
</g>
<g>
	<text transform="matrix(1 0 0 1 262.522 157.835)" fill="#808285" class="heavy" font-size="7.7307">26.3% </text>
</g>
<g>
	<text transform="matrix(1 0 0 1 263.8667 147.8232)" fill="#808285" class="heavy" font-size="7.7307">26.5% </text>
</g>
<g>
	<text transform="matrix(1 0 0 1 267.23 137.8105)" fill="#808285" class="heavy" font-size="7.7307">27.0% </text>
</g>
<g>
	<text transform="matrix(1 0 0 1 270.5903 127.7988)" fill="#808285" class="heavy" font-size="7.7307">27.5% </text>
</g>
<g>
	<text transform="matrix(1 0 0 1 273.9517 117.7866)" fill="#808285" class="heavy" font-size="7.7307">28.0% </text>
</g>
<g>
	<text transform="matrix(1 0 0 1 280.437 107.7744)" fill="#808285" class="heavy" font-size="7.7307">29.0% </text>
</g>
<g>
	<text transform="matrix(1 0 0 1 282.1558 97.7627)" fill="#808285" class="heavy" font-size="7.7307">29.2% </text>
</g>
<g>
	<text transform="matrix(1 0 0 1 287.4019 87.7505)" fill="#808285" class="heavy" font-size="7.7307">30.0% </text>
</g>
<g>
	<text transform="matrix(1 0 0 1 287.4019 77.7378)" fill="#808285" class="heavy" font-size="7.7307">30.0% </text>
</g>
<g>
	<text transform="matrix(1 0 0 1 287.4019 67.7266)" fill="#808285" class="heavy" font-size="7.7307">30.0% </text>
</g>
<g>
	<text transform="matrix(1 0 0 1 288.5767 57.7139)" fill="#808285" class="heavy" font-size="7.7307">30.2% </text>
</g>
<g>
	<text transform="matrix(1 0 0 1 297.4878 47.7021)" fill="#808285" class="heavy" font-size="7.7307">31.5% </text>
</g>
<g>
	<text transform="matrix(1 0 0 1 314.2319 37.6899)" fill="#808285" class="heavy" font-size="7.7307">34.0% </text>
</g>
<g>
	<text transform="matrix(1 0 0 1 317.1899 27.6782)" fill="#808285" class="heavy" font-size="7.7307">34.4% </text>
</g>
<g>
	<text transform="matrix(1 0 0 1 45.0405 358.0781)" fill="#808285" class="heavy" font-size="8">Ireland </text>
</g>
<g>
	<text transform="matrix(1 0 0 1 39.4766 348.0645)" fill="#808285" class="heavy" font-size="8">Slovenia </text>
</g>
<g>
	<text transform="matrix(1 0 0 1 13.8965 338.0527)" fill="#808285" class="heavy" font-size="8">Czech Republic </text>
</g>
<g>
	<text transform="matrix(1 0 0 1 39.1245 328.041)" fill="#808285" class="heavy" font-size="8">Hungary </text>
</g>
<g>
	<text transform="matrix(1 0 0 1 45.3325 318.0293)" fill="#808285" class="heavy" font-size="8">Poland </text>
</g>
<g>
	<text transform="matrix(1 0 0 1 52.1924 308.0156)" fill="#808285" class="heavy" font-size="8">Chile </text>
</g>
<g>
	<text transform="matrix(1 0 0 1 43.6245 298.0059)" fill="#808285" class="heavy" font-size="8">Finland </text>
</g>
<g>
	<text transform="matrix(1 0 0 1 44.1841 287.9922)" fill="#808285" class="heavy" font-size="8">Iceland </text>
</g>
<g>
	<text transform="matrix(1 0 0 1 44.9126 277.9805)" fill="#808285" class="heavy" font-size="8">Turkey </text>
</g>
<g>
	<text transform="matrix(1 0 0 1 43.5166 267.9688)" fill="#808285" class="heavy" font-size="8">Estonia </text>
</g>
<g>
	<text transform="matrix(1 0 0 1 9.8809 257.957)" fill="#808285" class="heavy" font-size="8">United Kingdom </text>
</g>
<g>
	<text transform="matrix(1 0 0 1 26.9805 247.9434)" fill="#808285" class="heavy" font-size="8">Switzerland </text>
</g>
<g>
	<text transform="matrix(1 0 0 1 11.5806 237.9316)" fill="#808285" class="heavy" font-size="8">Slovak Republic </text>
</g>
<g>
	<text transform="matrix(1 0 0 1 41.6367 227.9199)" fill="#808285" class="heavy" font-size="8">Sweden </text>
</g>
<g>
	<text transform="matrix(1 0 0 1 48.8203 217.9072)" fill="#808285" class="heavy" font-size="8">Korea </text>
</g>
<g>
	<text transform="matrix(1 0 0 1 36.8647 207.8965)" fill="#808285" class="heavy" font-size="8">Denmark </text>
</g>
<g>
	<text transform="matrix(1 0 0 1 12.7568 197.8828)" fill="#808285" class="heavy" font-size="8">Simple Average </text>
</g>
<g>
	<text transform="matrix(1 0 0 1 44.1006 187.8711)" fill="#808285" class="heavy" font-size="8">Austria </text>
</g>
<g>
	<text transform="matrix(1 0 0 1 25.0928 177.8589)" fill="#808285" class="heavy" font-size="8">Netherlands </text>
</g>
<g>
	<text transform="matrix(1 0 0 1 44.6523 167.8477)" fill="#808285" class="heavy" font-size="8">Greece </text>
</g>
<g>
	<text transform="matrix(1 0 0 1 43.5366 157.835)" fill="#808285" class="heavy" font-size="8">Canada </text>
</g>
<g>
	<text transform="matrix(1 0 0 1 50.8042 147.8232)" fill="#808285" class="heavy" font-size="8">Israel </text>
</g>
<g>
	<text transform="matrix(1 0 0 1 41.5483 137.8105)" fill="#808285" class="heavy" font-size="8">Norway </text>
</g>
<g>
	<text transform="matrix(1 0 0 1 54.5723 127.7988)" fill="#808285" class="heavy" font-size="8">Italy </text>
</g>
<g>
	<text transform="matrix(1 0 0 1 21.8765 117.7866)" fill="#808285" class="heavy" font-size="8">New Zealand </text>
</g>
<g>
	<text transform="matrix(1 0 0 1 0.9888 107.7744)" fill="#808285" class="heavy" font-size="8">Weighted Average </text>
</g>
<g>
	<text transform="matrix(1 0 0 1 24.4126 97.7627)" fill="#808285" class="heavy" font-size="8">Luxembourg </text>
</g>
<g>
	<text transform="matrix(1 0 0 1 37.5728 87.7505)" fill="#808285" class="heavy" font-size="8">Australia </text>
</g>
<g>
	<text transform="matrix(1 0 0 1 43.4722 77.7378)" fill="#808285" class="heavy" font-size="8">Mexico </text>
</g>
<g>
	<text transform="matrix(1 0 0 1 50.7124 67.7266)" fill="#808285" class="heavy" font-size="8">Spain </text>
</g>
<g>
	<text transform="matrix(1 0 0 1 37.2646 57.7139)" fill="#808285" class="heavy" font-size="8">Germany </text>
</g>
<g>
	<text transform="matrix(1 0 0 1 39.2163 47.7021)" fill="#808285" class="heavy" font-size="8">Portugal </text>
</g>
<g>
	<text transform="matrix(1 0 0 1 40.7603 37.6899)" fill="#808285" class="heavy" font-size="8">Belgium </text>
</g>
<g>
	<text transform="matrix(1 0 0 1 45.8643 27.6782)" fill="#808285" class="heavy" font-size="8">France </text>
</g>
<g>
	<text transform="matrix(1 0 0 1 49.6484 17.6655)" fill="#808285" class="heavy" font-size="8">Japan </text>
</g>
</svg>
