<svg xmlns="http://www.w3.org/2000/svg" width="361.5" height="359.469" viewBox="0 0 361.5 359.469"><style>text, tspan { font-family: &apos;Lato&apos;; } .heavy { font-weight: 700; }</style><path stroke="#CDCCCC" stroke-width=".75" stroke-miterlimit="10" d="M24.928 293.44h335.248M24.928 252.665h335.248m-335.248-40.65h335.248M24.928 171.238h335.248M24.928 130.46h335.248M24.928 89.813h335.248M24.928 49.035h335.248M24.928 8.258h335.248" fill="none"/><path fill="#06A0B0" d="M33.404 45.752h17.15v288.34h-17.15V45.752zm55.942 34.34h17.05v254h-17.05v-254zm55.84 1.01h17.053v252.99h-17.053V81.103zm55.842 10.477h17.15v242.513h-17.15V91.58zm55.942.504h17.05v242.01h-17.05V92.083zm55.84 20.83h17.054v221.18H312.81v-221.18z"/><path clip-rule="evenodd" fill="none" d="M24.83 334.85h335.846V8.26H24.83V334.85z"/><path fill="#CC3440" d="M55.143 97.26h17.05V334.09h-17.05V97.26zm55.84 67.16h17.152v169.672h-17.15v-169.67zm55.943-26.89h17.05v196.563h-17.05V137.53zm55.84-27.772h17.052v224.334h-17.05V109.758zm55.84 53.275h17.152v171.06h-17.15v-171.06zm55.943 19.694H351.6v151.366H334.55V182.727z"/><path clip-rule="evenodd" fill="none" d="M24.83 334.85h335.846V8.26H24.83V334.85z"/><path stroke="#9B9B9B" stroke-linejoin="round" stroke-miterlimit="10" fill="none" d="M24.928 334.093h335.248"/><text transform="translate(6.358 333.473)" fill="#4E4E4E" font-size="10">0</text><text transform="translate(6.358 292.739)" fill="#4E4E4E" font-size="10">5</text><text transform="translate(.619 251.998)"><tspan x="0" y="0" fill="#4E4E4E" font-size="10">10</tspan></text><text transform="translate(.619 211.273)"><tspan x="0" y="0" fill="#4E4E4E" font-size="10">15</tspan></text><text transform="translate(.619 170.548)"><tspan x="0" y="0" fill="#4E4E4E" font-size="10">20</tspan></text><text transform="translate(.619 129.815)"><tspan x="0" y="0" fill="#4E4E4E" font-size="10">25</tspan></text><text transform="translate(.619 89.081)"><tspan x="0" y="0" fill="#4E4E4E" font-size="10">30</tspan></text><text transform="translate(.619 48.356)"><tspan x="0" y="0" fill="#4E4E4E" font-size="10">35</tspan></text><text transform="translate(.619 7.632)"><tspan x="0" y="0" fill="#4E4E4E" font-size="10">40%</tspan></text><text transform="translate(38.063 346.965)"><tspan x="0" y="0" fill="#4E4E4E" font-size="10">Africa</tspan></text><text transform="translate(100.582 346.965)"><tspan x="0" y="0" fill="#4E4E4E" font-size="10">Asia</tspan></text><text transform="translate(151.03 346.965)"><tspan x="0" y="0" fill="#4E4E4E" font-size="10">North</tspan><tspan x="-3.685" y="12" fill="#4E4E4E" font-size="10">America</tspan></text><text transform="translate(207.142 346.965)"><tspan x="0" y="0" fill="#4E4E4E" font-size="10">South</tspan><tspan x="-3.823" y="12" fill="#4E4E4E" font-size="10">America</tspan></text><text transform="translate(252.855 346.965)"><tspan x="0" y="0" fill="#4E4E4E" font-size="10">Oceania</tspan></text><text transform="translate(312.628 346.965)"><tspan x="0" y="0" fill="#4E4E4E" font-size="10">Europe</tspan></text><text transform="translate(309.799 25.798)"><tspan x="0" y="0" fill="#06A0B0" class="heavy" font-size="14">2004</tspan></text><text transform="translate(309.799 44.115)"><tspan x="0" y="0" fill="#CC3440" class="heavy" font-size="14">2014</tspan></text></svg>