<?xml version="1.0" encoding="utf-8"?>
<!-- Generator: Adobe Illustrator 16.0.4, SVG Export Plug-In . SVG Version: 6.00 Build 0)  -->
<!DOCTYPE svg PUBLIC "-//W3C//DTD SVG 1.1//EN" "http://www.w3.org/Graphics/SVG/1.1/DTD/svg11.dtd">
<svg version="1.1" id="Layer_1" xmlns="http://www.w3.org/2000/svg" xmlns:xlink="http://www.w3.org/1999/xlink" x="0px" y="0px"
	 width="361.5px" height="359.469px" viewBox="0 0 361.5 359.469" enable-background="new 0 0 361.5 359.469" xml:space="preserve"><style>text, tspan { font-family: &apos;Lato&apos;; } .heavy { font-weight: 700; }</style>
<path fill="none" stroke="#CDCCCC" stroke-width="0.75" stroke-miterlimit="10" d="M24.928,293.441h335.248 M24.928,252.664h335.248
	 M24.928,212.014h335.248 M24.928,171.238h335.248 M24.928,130.461h335.248 M24.928,89.812h335.248 M24.928,49.035h335.248
	 M24.928,8.258h335.248"/>
<path fill="#06A0B0" d="M33.404,45.752h17.151v288.34H33.404V45.752L33.404,45.752z M89.346,80.091h17.051v254.002H89.346V80.091
	L89.346,80.091z M145.187,81.101h17.052v252.992h-17.052V81.101L145.187,81.101z M201.028,91.579h17.151v242.514h-17.151V91.579
	L201.028,91.579z M256.97,92.084h17.051v242.009H256.97V92.084L256.97,92.084z M312.811,112.914h17.053v221.179h-17.053V112.914
	L312.811,112.914z"/>
<polygon fill-rule="evenodd" clip-rule="evenodd" fill="none" points="24.829,334.851 360.676,334.851 360.676,8.258 24.829,8.258 
	24.829,334.851 "/>
<path fill="#CC3440" d="M55.143,97.259h17.051v236.833H55.143V97.259L55.143,97.259z M110.984,164.421h17.151v169.671h-17.151
	V164.421L110.984,164.421z M166.926,137.531h17.051v196.562h-17.051V137.531L166.926,137.531z M222.767,109.758h17.051v224.334
	h-17.051V109.758L222.767,109.758z M278.607,163.033h17.151v171.06h-17.151V163.033L278.607,163.033z M334.549,182.727h17.053
	v151.366h-17.053V182.727L334.549,182.727z"/>
<polygon fill-rule="evenodd" clip-rule="evenodd" fill="none" points="24.829,334.851 360.676,334.851 360.676,8.258 24.829,8.258 
	24.829,334.851 "/>
<line fill="none" stroke="#9B9B9B" stroke-linejoin="round" stroke-miterlimit="10" x1="24.928" y1="334.093" x2="360.176" y2="334.093"/>
<g>
	<text transform="matrix(1 0 0 1 6.3584 333.4727)" fill="#4E4E4E" font-size="10">0</text>
</g>
<g>
	<text transform="matrix(1 0 0 1 6.3584 292.7393)" fill="#4E4E4E" font-size="10">5</text>
</g>
<g>
	<text transform="matrix(1 0 0 1 0.6187 251.998)"><tspan x="0" y="0" fill="#4E4E4E" font-size="10">10</tspan></text>
</g>
<g>
	<text transform="matrix(1 0 0 1 0.6187 211.2725)"><tspan x="0" y="0" fill="#4E4E4E" font-size="10">15</tspan></text>
</g>
<g>
	<text transform="matrix(1 0 0 1 0.6187 170.5479)"><tspan x="0" y="0" fill="#4E4E4E" font-size="10">20</tspan></text>
</g>
<g>
	<text transform="matrix(1 0 0 1 0.6187 129.8145)"><tspan x="0" y="0" fill="#4E4E4E" font-size="10">25</tspan></text>
</g>
<g>
	<text transform="matrix(1 0 0 1 0.6187 89.0811)"><tspan x="0" y="0" fill="#4E4E4E" font-size="10">30</tspan></text>
</g>
<g>
	<text transform="matrix(1 0 0 1 0.6187 48.3564)"><tspan x="0" y="0" fill="#4E4E4E" font-size="10">35</tspan></text>
</g>
<g>
	<text transform="matrix(1 0 0 1 0.6187 7.6318)"><tspan x="0" y="0" fill="#4E4E4E" font-size="10">40%</tspan></text>
</g>
<g>
	<text transform="matrix(1 0 0 1 38.063 346.9648)"><tspan x="0" y="0" fill="#4E4E4E" font-size="10">Africa</tspan></text>
</g>
<g>
	<text transform="matrix(1 0 0 1 100.5815 346.9648)"><tspan x="0" y="0" fill="#4E4E4E" font-size="10">Asia</tspan></text>
</g>
<g>
	<text transform="matrix(1 0 0 1 151.0303 346.9648)"><tspan x="0" y="0" fill="#4E4E4E" font-size="10">North</tspan><tspan x="-3.685" y="12" fill="#4E4E4E" font-size="10">America</tspan></text>
</g>
<g>
	<text transform="matrix(1 0 0 1 207.1416 346.9648)"><tspan x="0" y="0" fill="#4E4E4E" font-size="10">South</tspan><tspan x="-3.823" y="12" fill="#4E4E4E" font-size="10">America</tspan></text>
</g>
<g>
	<text transform="matrix(1 0 0 1 252.8545 346.9648)"><tspan x="0" y="0" fill="#4E4E4E" font-size="10">Oceania</tspan></text>
</g>
<g>
	<text transform="matrix(1 0 0 1 312.6279 346.9648)"><tspan x="0" y="0" fill="#4E4E4E" font-size="10">Europe</tspan></text>
</g>
<text transform="matrix(1 0 0 1 309.7988 25.7983)"><tspan x="0" y="0" fill="#06A0B0" class="heavy" font-size="14">2004</tspan></text>
<text transform="matrix(1 0 0 1 309.7988 44.1152)"><tspan x="0" y="0" fill="#CC3440" class="heavy" font-size="14">2014</tspan></text>
</svg>
