<svg xmlns="http://www.w3.org/2000/svg" width="352.5" height="345" viewBox="0 0 352.5 345"><style>text, tspan { font-family: &apos;Lato&apos;; } .heavy { font-weight: 700; }</style><path fill="#29AAE2" d="M105.927 318.504h31.135v5.693h-31.135v-5.693zM105.927 308.985h44.896v5.694h-44.896v-5.695zM105.927 299.378h44.896v5.693h-44.896v-5.692zM105.927 289.86h44.896v5.693h-44.896v-5.694zM105.927 280.25h67.275v5.695h-67.275v-5.694zM105.927 270.732h71.723v5.694h-71.723v-5.694zM105.927 261.125h78.534v5.694h-78.533v-5.695zM105.927 251.606h85.206v5.695h-85.206v-5.694zM105.927 242h89.654v5.692h-89.653V242zM105.927 232.48h89.792v5.694h-89.793v-5.694zM105.927 222.873h89.792v5.693h-89.793v-5.693zM105.927 213.354h89.792v5.694h-89.793v-5.694zM105.927 203.747h100.495v5.693H105.927v-5.693z"/><path fill="#F79420" d="M105.927 194.23h103.83v5.692h-103.83v-5.693z"/><path fill="#29AAE2" d="M105.927 184.62h105.916v5.694H105.927v-5.694zM105.927 175.102H218.1v5.693H105.926v-5.693zM105.927 165.494H218.1v5.694H105.926v-5.694zM105.927 155.976H218.1v5.694H105.926v-5.694zM105.927 146.368H218.1v5.694H105.926v-5.694zM105.927 136.85H218.1v5.693H105.926v-5.693z"/><path fill="#F79420" d="M105.927 127.242h114.395v5.694H105.927v-5.694z"/><path fill="#29AAE2" d="M105.927 117.724h118.288v5.693H105.927v-5.693zM105.927 108.205h121.206v5.693H105.927v-5.693zM105.927 98.598H231.58v5.693H105.928V98.6zM105.927 89.078H231.58v5.694H105.928v-5.694z"/><path fill="#CC333F" d="M105.927 79.47h128.295v5.694H105.927V79.47z"/><path fill="#29AAE2" d="M105.927 69.952h134.69v5.694h-134.69v-5.694zM105.927 60.345h134.69v5.694h-134.69v-5.695zM105.927 50.826H242.98v5.694H105.926v-5.694zM105.927 41.22h151.925v5.692H105.927V41.22zM105.927 31.7h158.875v5.694H105.927V31.7zM105.927 22.092h188.48v5.694h-188.48v-5.694zM105.927 12.574h197.515v5.693H105.927v-5.693zM105.927 2.966h215.447V8.66H105.927V2.966z"/><text transform="translate(112.725 342.715)" fill="#808285" class="heavy" font-size="8">0.0%</text><text transform="translate(112.725 333.153)" fill="#808285" class="heavy" font-size="8">0.0%</text><text transform="translate(143.899 323.592)" fill="#808285" class="heavy" font-size="8">6.9%</text><text transform="translate(157.618 314.035)" fill="#808285" class="heavy" font-size="8">10.0%</text><text transform="translate(157.618 304.473)" fill="#808285" class="heavy" font-size="8">10.0%</text><text transform="translate(157.618 294.905)" fill="#808285" class="heavy" font-size="8">10.0%</text><text transform="translate(180.06 285.344)" fill="#808285" class="heavy" font-size="8">15.0%</text><text transform="translate(184.559 275.787)" fill="#808285" class="heavy" font-size="8">16.0%</text><text transform="translate(191.291 266.226)" fill="#808285" class="heavy" font-size="8">17.5%</text><text transform="translate(198.023 256.67)" fill="#808285" class="heavy" font-size="8">19.0%</text><text transform="translate(202.44 247.107)" fill="#808285" class="heavy" font-size="8">20.0%</text><text transform="translate(202.512 237.539)" fill="#808285" class="heavy" font-size="8">20.0%</text><text transform="translate(202.512 227.983)" fill="#808285" class="heavy" font-size="8">20.0%</text><text transform="translate(202.512 218.422)" fill="#808285" class="heavy" font-size="8">20.0%</text><text transform="translate(213.29 208.859)" fill="#808285" class="heavy" font-size="8">22.4%</text><text transform="translate(216.665 199.303)" fill="#808285" class="heavy" font-size="8">23.2%</text><text transform="translate(218.674 189.742)" fill="#808285" class="heavy" font-size="8">23.6%</text><text transform="translate(224.954 180.174)" fill="#808285" class="heavy" font-size="8">25.0%</text><text transform="translate(224.954 170.618)" fill="#808285" class="heavy" font-size="8">25.0%</text><text transform="translate(224.954 161.056)" fill="#808285" class="heavy" font-size="8">25.0%</text><text transform="translate(224.954 151.5)" fill="#808285" class="heavy" font-size="8">25.0%</text><text transform="translate(224.954 141.938)" fill="#808285" class="heavy" font-size="8">25.0%</text><text transform="translate(227.226 132.375)" fill="#808285" class="heavy" font-size="8">25.5%</text><text transform="translate(231.126 122.808)" fill="#808285" class="heavy" font-size="8">26.4%</text><text transform="translate(233.932 113.251)" fill="#808285" class="heavy" font-size="8">27.0%</text><text transform="translate(238.429 103.69)" fill="#808285" class="heavy" font-size="8">28.0%</text><text transform="translate(238.429 94.128)" fill="#808285" class="heavy" font-size="8">28.0%</text><text transform="translate(241.116 84.572)" fill="#808285" class="heavy" font-size="8">28.6%</text><text transform="translate(247.405 75.01)" fill="#808285" class="heavy" font-size="8">30.0%</text><text transform="translate(247.405 65.442)" fill="#808285" class="heavy" font-size="8">30.0%</text><text transform="translate(249.903 55.886)" fill="#808285" class="heavy" font-size="8">30.6%</text><text transform="translate(264.672 46.324)" fill="#808285" class="heavy" font-size="8">33.8%</text><text transform="translate(271.64 36.768)" fill="#808285" class="heavy" font-size="8">35.4%</text><text transform="translate(301.276 27.206)" fill="#808285" class="heavy" font-size="8">42.0%</text><text transform="translate(310.253 18.644)" fill="#808285" class="heavy" font-size="8">44.0%</text><text transform="translate(328.207 8.076)" fill="#808285" class="heavy" font-size="8">48.0%</text><text transform="translate(69.71 342.35)"><tspan x="0" y="0" fill="#808285" class="heavy" font-size="8">Estonia</tspan></text><text transform="translate(37.751 332.783)"><tspan x="0" y="0" fill="#808285" class="heavy" font-size="8">Slovak Republic</tspan></text><text transform="translate(48.079 323.227)"><tspan x="0" y="0" fill="#808285" class="heavy" font-size="8">New Zealand</tspan></text><text transform="translate(70.814 313.664)"><tspan x="0" y="0" fill="#808285" class="heavy" font-size="8">Greece</tspan></text><text transform="translate(75.858 304.103)"><tspan x="0" y="0" fill="#808285" class="heavy" font-size="8">Japan</tspan></text><text transform="translate(69.634 294.547)"><tspan x="0" y="0" fill="#808285" class="heavy" font-size="8">Mexico</tspan></text><text transform="translate(40.059 284.984)"><tspan x="0" y="0" fill="#808285" class="heavy" font-size="8">Czech Republic</tspan></text><text transform="translate(65.302 275.416)"><tspan x="0" y="0" fill="#808285" class="heavy" font-size="8">Hungary</tspan></text><text transform="translate(71.026 265.86)"><tspan x="0" y="0" fill="#808285" class="heavy" font-size="8">Turkey</tspan></text><text transform="translate(71.502 256.299)"><tspan x="0" y="0" fill="#808285" class="heavy" font-size="8">Poland</tspan></text><text transform="translate(53.159 246.736)"><tspan x="0" y="0" fill="#808285" class="heavy" font-size="8">Switzerland</tspan></text><text transform="translate(70.322 237.181)"><tspan x="0" y="0" fill="#808285" class="heavy" font-size="8">Iceland</tspan></text><text transform="translate(80.165 227.619)"><tspan x="0" y="0" fill="#808285" class="heavy" font-size="8">Italy</tspan></text><text transform="translate(50.599 218.051)"><tspan x="0" y="0" fill="#808285" class="heavy" font-size="8">Luxembourg</tspan></text><text transform="translate(69.77 208.494)"><tspan x="0" y="0" fill="#808285" class="heavy" font-size="8">Finland</tspan></text><text transform="translate(13.579 198.933)"><tspan x="0" y="0" fill="#808285" class="heavy" font-size="8">OECD Simple Average</tspan></text><text transform="translate(63.719 189.371)"><tspan x="0" y="0" fill="#808285" class="heavy" font-size="8">Australia</tspan></text><text transform="translate(70.231 179.815)"><tspan x="0" y="0" fill="#808285" class="heavy" font-size="8">Austria</tspan></text><text transform="translate(66.955 170.253)"><tspan x="0" y="0" fill="#808285" class="heavy" font-size="8">Belgium</tspan></text><text transform="translate(78.346 160.685)"><tspan x="0" y="0" fill="#808285" class="heavy" font-size="8">Chile</tspan></text><text transform="translate(51.223 151.123)"><tspan x="0" y="0" fill="#808285" class="heavy" font-size="8">Netherlands</tspan></text><text transform="translate(65.663 141.567)"><tspan x="0" y="0" fill="#808285" class="heavy" font-size="8">Slovenia</tspan></text><text transform="translate(1.835 132.005)"><tspan x="0" y="0" fill="#808285" class="heavy" font-size="8">OECD Weighted Average</tspan></text><text transform="translate(63.442 122.449)"><tspan x="0" y="0" fill="#808285" class="heavy" font-size="8">Germany</tspan></text><text transform="translate(76.898 112.887)"><tspan x="0" y="0" fill="#808285" class="heavy" font-size="8">Spain</tspan></text><text transform="translate(67.694 103.319)"><tspan x="0" y="0" fill="#808285" class="heavy" font-size="8">Norway</tspan></text><text transform="translate(65.418 93.763)"><tspan x="0" y="0" fill="#808285" class="heavy" font-size="8">Portugal</tspan></text><text transform="translate(46.195 84.201)"><tspan x="0" y="0" fill="#808285" class="heavy" font-size="8">United States</tspan></text><text transform="translate(76.942 74.639)"><tspan x="0" y="0" fill="#808285" class="heavy" font-size="8">Israel</tspan></text><text transform="translate(67.831 65.083)"><tspan x="0" y="0" fill="#808285" class="heavy" font-size="8">Sweden</tspan></text><text transform="translate(36.099 55.521)"><tspan x="0" y="0" fill="#808285" class="heavy" font-size="8">United Kingdom</tspan></text><text transform="translate(69.698 45.953)"><tspan x="0" y="0" fill="#808285" class="heavy" font-size="8">Canada</tspan></text><text transform="translate(74.998 36.397)"><tspan x="0" y="0" fill="#808285" class="heavy" font-size="8">Korea</tspan></text><text transform="translate(63.027 26.835)"><tspan x="0" y="0" fill="#808285" class="heavy" font-size="8">Denmark</tspan></text><text transform="translate(72.019 17.279)"><tspan x="0" y="0" fill="#808285" class="heavy" font-size="8">France</tspan></text><text transform="translate(71.21 7.711)"><tspan x="0" y="0" fill="#808285" class="heavy" font-size="8">Iceland</tspan></text></svg>