<?xml version="1.0" encoding="utf-8"?>
<!-- Generator: Adobe Illustrator 16.0.4, SVG Export Plug-In . SVG Version: 6.00 Build 0)  -->
<!DOCTYPE svg PUBLIC "-//W3C//DTD SVG 1.1//EN" "http://www.w3.org/Graphics/SVG/1.1/DTD/svg11.dtd">
<svg version="1.1" id="Layer_1" xmlns="http://www.w3.org/2000/svg" xmlns:xlink="http://www.w3.org/1999/xlink" x="0px" y="0px"
	 width="352.5px" height="345px" viewBox="0 0 352.5 345" enable-background="new 0 0 352.5 345" xml:space="preserve"><style>text, tspan { font-family: &apos;Lato&apos;; } .heavy { font-weight: 700; }</style>
<polygon fill="#29AAE2" points="105.927,318.504 137.062,318.504 137.062,324.197 105.927,324.197 105.927,318.504 "/>
<polygon fill="#29AAE2" points="105.927,308.985 150.823,308.985 150.823,314.679 105.927,314.679 105.927,308.985 "/>
<polygon fill="#29AAE2" points="105.927,299.378 150.823,299.378 150.823,305.071 105.927,305.071 105.927,299.378 "/>
<polygon fill="#29AAE2" points="105.927,289.859 150.823,289.859 150.823,295.553 105.927,295.553 105.927,289.859 "/>
<polygon fill="#29AAE2" points="105.927,280.251 173.202,280.251 173.202,285.945 105.927,285.945 105.927,280.251 "/>
<polygon fill="#29AAE2" points="105.927,270.732 177.65,270.732 177.65,276.426 105.927,276.426 105.927,270.732 "/>
<polygon fill="#29AAE2" points="105.927,261.125 184.461,261.125 184.461,266.819 105.927,266.819 105.927,261.125 "/>
<polygon fill="#29AAE2" points="105.927,251.606 191.133,251.606 191.133,257.301 105.927,257.301 105.927,251.606 "/>
<polygon fill="#29AAE2" points="105.927,241.999 195.581,241.999 195.581,247.692 105.927,247.692 105.927,241.999 "/>
<polygon fill="#29AAE2" points="105.927,232.48 195.719,232.48 195.719,238.174 105.927,238.174 105.927,232.48 "/>
<polygon fill="#29AAE2" points="105.927,222.873 195.719,222.873 195.719,228.566 105.927,228.566 105.927,222.873 "/>
<polygon fill="#29AAE2" points="105.927,213.354 195.719,213.354 195.719,219.048 105.927,219.048 105.927,213.354 "/>
<polygon fill="#29AAE2" points="105.927,203.747 206.422,203.747 206.422,209.44 105.927,209.44 105.927,203.747 "/>
<polygon fill="#F79420" points="105.927,194.229 209.758,194.229 209.758,199.922 105.927,199.922 105.927,194.229 "/>
<polygon fill="#29AAE2" points="105.927,184.62 211.843,184.62 211.843,190.314 105.927,190.314 105.927,184.62 "/>
<polygon fill="#29AAE2" points="105.927,175.102 218.099,175.102 218.099,180.795 105.927,180.795 105.927,175.102 "/>
<polygon fill="#29AAE2" points="105.927,165.494 218.099,165.494 218.099,171.188 105.927,171.188 105.927,165.494 "/>
<polygon fill="#29AAE2" points="105.927,155.976 218.099,155.976 218.099,161.67 105.927,161.67 105.927,155.976 "/>
<polygon fill="#29AAE2" points="105.927,146.368 218.099,146.368 218.099,152.062 105.927,152.062 105.927,146.368 "/>
<polygon fill="#29AAE2" points="105.927,136.85 218.099,136.85 218.099,142.543 105.927,142.543 105.927,136.85 "/>
<polygon fill="#F79420" points="105.927,127.242 220.322,127.242 220.322,132.936 105.927,132.936 105.927,127.242 "/>
<polygon fill="#29AAE2" points="105.927,117.724 224.215,117.724 224.215,123.417 105.927,123.417 105.927,117.724 "/>
<polygon fill="#29AAE2" points="105.927,108.205 227.133,108.205 227.133,113.898 105.927,113.898 105.927,108.205 "/>
<polygon fill="#29AAE2" points="105.927,98.598 231.581,98.598 231.581,104.291 105.927,104.291 105.927,98.598 "/>
<polygon fill="#29AAE2" points="105.927,89.078 231.581,89.078 231.581,94.772 105.927,94.772 105.927,89.078 "/>
<polygon fill="#CC333F" points="105.927,79.471 234.222,79.471 234.222,85.164 105.927,85.164 105.927,79.471 "/>
<polygon fill="#29AAE2" points="105.927,69.952 240.616,69.952 240.616,75.646 105.927,75.646 105.927,69.952 "/>
<polygon fill="#29AAE2" points="105.927,60.345 240.616,60.345 240.616,66.039 105.927,66.039 105.927,60.345 "/>
<polygon fill="#29AAE2" points="105.927,50.826 242.979,50.826 242.979,56.52 105.927,56.52 105.927,50.826 "/>
<polygon fill="#29AAE2" points="105.927,41.219 257.852,41.219 257.852,46.912 105.927,46.912 105.927,41.219 "/>
<polygon fill="#29AAE2" points="105.927,31.7 264.802,31.7 264.802,37.394 105.927,37.394 105.927,31.7 "/>
<polygon fill="#29AAE2" points="105.927,22.092 294.408,22.092 294.408,27.786 105.927,27.786 105.927,22.092 "/>
<polygon fill="#29AAE2" points="105.927,12.574 303.442,12.574 303.442,18.267 105.927,18.267 105.927,12.574 "/>
<polygon fill="#29AAE2" points="105.927,2.966 321.374,2.966 321.374,8.66 105.927,8.66 105.927,2.966 "/>
<g>
	<text transform="matrix(1 0 0 1 112.7246 342.7148)" fill="#808285" class="heavy" font-size="8">0.0%</text>
</g>
<g>
	<text transform="matrix(1 0 0 1 112.7246 333.1533)" fill="#808285" class="heavy" font-size="8">0.0%</text>
</g>
<g>
	<text transform="matrix(1 0 0 1 143.8994 323.5918)" fill="#808285" class="heavy" font-size="8">6.9%</text>
</g>
<g>
	<text transform="matrix(1 0 0 1 157.6182 314.0352)" fill="#808285" class="heavy" font-size="8">10.0%</text>
</g>
<g>
	<text transform="matrix(1 0 0 1 157.6182 304.4727)" fill="#808285" class="heavy" font-size="8">10.0%</text>
</g>
<g>
	<text transform="matrix(1 0 0 1 157.6182 294.9053)" fill="#808285" class="heavy" font-size="8">10.0%</text>
</g>
<g>
	<text transform="matrix(1 0 0 1 180.0605 285.3438)" fill="#808285" class="heavy" font-size="8">15.0%</text>
</g>
<g>
	<text transform="matrix(1 0 0 1 184.5586 275.7871)" fill="#808285" class="heavy" font-size="8">16.0%</text>
</g>
<g>
	<text transform="matrix(1 0 0 1 191.291 266.2256)" fill="#808285" class="heavy" font-size="8">17.5%</text>
</g>
<g>
	<text transform="matrix(1 0 0 1 198.0234 256.6699)" fill="#808285" class="heavy" font-size="8">19.0%</text>
</g>
<g>
	<text transform="matrix(1 0 0 1 202.4395 247.1074)" fill="#808285" class="heavy" font-size="8">20.0%</text>
</g>
<g>
	<text transform="matrix(1 0 0 1 202.5117 237.5391)" fill="#808285" class="heavy" font-size="8">20.0%</text>
</g>
<g>
	<text transform="matrix(1 0 0 1 202.5117 227.9834)" fill="#808285" class="heavy" font-size="8">20.0%</text>
</g>
<g>
	<text transform="matrix(1 0 0 1 202.5117 218.4219)" fill="#808285" class="heavy" font-size="8">20.0%</text>
</g>
<g>
	<text transform="matrix(1 0 0 1 213.29 208.8594)" fill="#808285" class="heavy" font-size="8">22.4%</text>
</g>
<g>
	<text transform="matrix(1 0 0 1 216.665 199.3027)" fill="#808285" class="heavy" font-size="8">23.2%</text>
</g>
<g>
	<text transform="matrix(1 0 0 1 218.6738 189.7422)" fill="#808285" class="heavy" font-size="8">23.6%</text>
</g>
<g>
	<text transform="matrix(1 0 0 1 224.9541 180.1738)" fill="#808285" class="heavy" font-size="8">25.0%</text>
</g>
<g>
	<text transform="matrix(1 0 0 1 224.9541 170.6177)" fill="#808285" class="heavy" font-size="8">25.0%</text>
</g>
<g>
	<text transform="matrix(1 0 0 1 224.9541 161.0557)" fill="#808285" class="heavy" font-size="8">25.0%</text>
</g>
<g>
	<text transform="matrix(1 0 0 1 224.9541 151.4995)" fill="#808285" class="heavy" font-size="8">25.0%</text>
</g>
<g>
	<text transform="matrix(1 0 0 1 224.9541 141.9375)" fill="#808285" class="heavy" font-size="8">25.0%</text>
</g>
<g>
	<text transform="matrix(1 0 0 1 227.2256 132.3755)" fill="#808285" class="heavy" font-size="8">25.5%</text>
</g>
<g>
	<text transform="matrix(1 0 0 1 231.126 122.8076)" fill="#808285" class="heavy" font-size="8">26.4%</text>
</g>
<g>
	<text transform="matrix(1 0 0 1 233.9316 113.2515)" fill="#808285" class="heavy" font-size="8">27.0%</text>
</g>
<g>
	<text transform="matrix(1 0 0 1 238.4287 103.6899)" fill="#808285" class="heavy" font-size="8">28.0%</text>
</g>
<g>
	<text transform="matrix(1 0 0 1 238.4287 94.1279)" fill="#808285" class="heavy" font-size="8">28.0%</text>
</g>
<g>
	<text transform="matrix(1 0 0 1 241.1162 84.5718)" fill="#808285" class="heavy" font-size="8">28.6%</text>
</g>
<g>
	<text transform="matrix(1 0 0 1 247.4053 75.0098)" fill="#808285" class="heavy" font-size="8">30.0%</text>
</g>
<g>
	<text transform="matrix(1 0 0 1 247.4053 65.4419)" fill="#808285" class="heavy" font-size="8">30.0%</text>
</g>
<g>
	<text transform="matrix(1 0 0 1 249.9033 55.8857)" fill="#808285" class="heavy" font-size="8">30.6%</text>
</g>
<g>
	<text transform="matrix(1 0 0 1 264.6719 46.3237)" fill="#808285" class="heavy" font-size="8">33.8%</text>
</g>
<g>
	<text transform="matrix(1 0 0 1 271.6396 36.7676)" fill="#808285" class="heavy" font-size="8">35.4%</text>
</g>
<g>
	<text transform="matrix(1 0 0 1 301.2764 27.2056)" fill="#808285" class="heavy" font-size="8">42.0%</text>
</g>
<g>
	<text transform="matrix(1 0 0 1 310.2529 18.644)" fill="#808285" class="heavy" font-size="8">44.0%</text>
</g>
<g>
	<text transform="matrix(1 0 0 1 328.207 8.0762)" fill="#808285" class="heavy" font-size="8">48.0%</text>
</g>
<g>
	<text transform="matrix(1 0 0 1 69.7104 342.3496)"><tspan x="0" y="0" fill="#808285" class="heavy" font-size="8">Estonia</tspan></text>
</g>
<g>
	<text transform="matrix(1 0 0 1 37.751 332.7832)"><tspan x="0" y="0" fill="#808285" class="heavy" font-size="8">Slovak Republic</tspan></text>
</g>
<g>
	<text transform="matrix(1 0 0 1 48.0786 323.2266)"><tspan x="0" y="0" fill="#808285" class="heavy" font-size="8">New Zealand</tspan></text>
</g>
<g>
	<text transform="matrix(1 0 0 1 70.8145 313.6641)"><tspan x="0" y="0" fill="#808285" class="heavy" font-size="8">Greece</tspan></text>
</g>
<g>
	<text transform="matrix(1 0 0 1 75.8584 304.1025)"><tspan x="0" y="0" fill="#808285" class="heavy" font-size="8">Japan</tspan></text>
</g>
<g>
	<text transform="matrix(1 0 0 1 69.6343 294.5469)"><tspan x="0" y="0" fill="#808285" class="heavy" font-size="8">Mexico</tspan></text>
</g>
<g>
	<text transform="matrix(1 0 0 1 40.0586 284.9844)"><tspan x="0" y="0" fill="#808285" class="heavy" font-size="8">Czech Republic</tspan></text>
</g>
<g>
	<text transform="matrix(1 0 0 1 65.3022 275.416)"><tspan x="0" y="0" fill="#808285" class="heavy" font-size="8">Hungary</tspan></text>
</g>
<g>
	<text transform="matrix(1 0 0 1 71.0264 265.8604)"><tspan x="0" y="0" fill="#808285" class="heavy" font-size="8">Turkey</tspan></text>
</g>
<g>
	<text transform="matrix(1 0 0 1 71.5024 256.2988)"><tspan x="0" y="0" fill="#808285" class="heavy" font-size="8">Poland</tspan></text>
</g>
<g>
	<text transform="matrix(1 0 0 1 53.1587 246.7363)"><tspan x="0" y="0" fill="#808285" class="heavy" font-size="8">Switzerland</tspan></text>
</g>
<g>
	<text transform="matrix(1 0 0 1 70.3223 237.1807)"><tspan x="0" y="0" fill="#808285" class="heavy" font-size="8">Iceland</tspan></text>
</g>
<g>
	<text transform="matrix(1 0 0 1 80.1646 227.6191)"><tspan x="0" y="0" fill="#808285" class="heavy" font-size="8">Italy</tspan></text>
</g>
<g>
	<text transform="matrix(1 0 0 1 50.5986 218.0508)"><tspan x="0" y="0" fill="#808285" class="heavy" font-size="8">Luxembourg</tspan></text>
</g>
<g>
	<text transform="matrix(1 0 0 1 69.7705 208.4941)"><tspan x="0" y="0" fill="#808285" class="heavy" font-size="8">Finland</tspan></text>
</g>
<g>
	<text transform="matrix(1 0 0 1 13.5791 198.9326)"><tspan x="0" y="0" fill="#808285" class="heavy" font-size="8">OECD Simple Average</tspan></text>
</g>
<g>
	<text transform="matrix(1 0 0 1 63.7188 189.3711)"><tspan x="0" y="0" fill="#808285" class="heavy" font-size="8">Australia</tspan></text>
</g>
<g>
	<text transform="matrix(1 0 0 1 70.2305 179.8145)"><tspan x="0" y="0" fill="#808285" class="heavy" font-size="8">Austria</tspan></text>
</g>
<g>
	<text transform="matrix(1 0 0 1 66.9546 170.2529)"><tspan x="0" y="0" fill="#808285" class="heavy" font-size="8">Belgium</tspan></text>
</g>
<g>
	<text transform="matrix(1 0 0 1 78.3462 160.6851)"><tspan x="0" y="0" fill="#808285" class="heavy" font-size="8">Chile</tspan></text>
</g>
<g>
	<text transform="matrix(1 0 0 1 51.2227 151.123)"><tspan x="0" y="0" fill="#808285" class="heavy" font-size="8">Netherlands</tspan></text>
</g>
<g>
	<text transform="matrix(1 0 0 1 65.6626 141.5669)"><tspan x="0" y="0" fill="#808285" class="heavy" font-size="8">Slovenia</tspan></text>
</g>
<g>
	<text transform="matrix(1 0 0 1 1.8354 132.0049)"><tspan x="0" y="0" fill="#808285" class="heavy" font-size="8">OECD Weighted Average</tspan></text>
</g>
<g>
	<text transform="matrix(1 0 0 1 63.4424 122.4487)"><tspan x="0" y="0" fill="#808285" class="heavy" font-size="8">Germany</tspan></text>
</g>
<g>
	<text transform="matrix(1 0 0 1 76.8984 112.8867)"><tspan x="0" y="0" fill="#808285" class="heavy" font-size="8">Spain</tspan></text>
</g>
<g>
	<text transform="matrix(1 0 0 1 67.6943 103.3193)"><tspan x="0" y="0" fill="#808285" class="heavy" font-size="8">Norway</tspan></text>
</g>
<g>
	<text transform="matrix(1 0 0 1 65.4185 93.7632)"><tspan x="0" y="0" fill="#808285" class="heavy" font-size="8">Portugal</tspan></text>
</g>
<g>
	<text transform="matrix(1 0 0 1 46.1948 84.2012)"><tspan x="0" y="0" fill="#808285" class="heavy" font-size="8">United States</tspan></text>
</g>
<g>
	<text transform="matrix(1 0 0 1 76.9424 74.6392)"><tspan x="0" y="0" fill="#808285" class="heavy" font-size="8">Israel</tspan></text>
</g>
<g>
	<text transform="matrix(1 0 0 1 67.8306 65.083)"><tspan x="0" y="0" fill="#808285" class="heavy" font-size="8">Sweden</tspan></text>
</g>
<g>
	<text transform="matrix(1 0 0 1 36.0991 55.521)"><tspan x="0" y="0" fill="#808285" class="heavy" font-size="8">United Kingdom</tspan></text>
</g>
<g>
	<text transform="matrix(1 0 0 1 69.6982 45.9531)"><tspan x="0" y="0" fill="#808285" class="heavy" font-size="8">Canada</tspan></text>
</g>
<g>
	<text transform="matrix(1 0 0 1 74.998 36.397)"><tspan x="0" y="0" fill="#808285" class="heavy" font-size="8">Korea</tspan></text>
</g>
<g>
	<text transform="matrix(1 0 0 1 63.0269 26.835)"><tspan x="0" y="0" fill="#808285" class="heavy" font-size="8">Denmark</tspan></text>
</g>
<g>
	<text transform="matrix(1 0 0 1 72.0186 17.2788)"><tspan x="0" y="0" fill="#808285" class="heavy" font-size="8">France</tspan></text>
</g>
<g>
	<text transform="matrix(1 0 0 1 71.2104 7.7114)"><tspan x="0" y="0" fill="#808285" class="heavy" font-size="8">Iceland</tspan></text>
</g>
</svg>
