<svg xmlns="http://www.w3.org/2000/svg" width="350.166" height="351.417" viewBox="0 0 350.166 351.417"><style>text, tspan { font-family: &apos;Lato&apos;; } .heavy { font-weight: 700; }</style><path fill="#8BCEAF" d="M103.788 256.47h51.72v5.912h-51.72v-5.91zM103.788 246.653h77.52v5.91h-77.52v-5.91zM103.788 236.934h82.68v5.812h-82.68v-5.812z"/><path fill="#CC333F" d="M103.788 227.117h94.2v5.81h-94.2v-5.81z"/><path fill="#8BCEAF" d="M103.788 217.298h98.28v5.81h-98.28v-5.81zM103.788 207.48h103.44v5.81H103.79v-5.81zM103.788 197.662h103.44v5.91H103.79v-5.91zM103.788 187.843h103.44v5.91H103.79v-5.91zM103.788 178.125h103.44v5.81H103.79v-5.81zM103.788 168.307h108.6v5.81h-108.6v-5.81zM103.788 158.49h116.28v5.81h-116.28v-5.81zM103.788 148.67h116.28v5.812h-116.28v-5.81z"/><path fill="#CC333F" d="M103.788 138.853h118.32v5.81h-118.32v-5.81z"/><path fill="#8BCEAF" d="M103.788 129.034h129.24v5.91h-129.24v-5.91zM103.788 119.316h129.24v5.81h-129.24v-5.81zM103.788 109.5h129.24v5.81h-129.24v-5.81zM103.788 99.68h129.24v5.81h-129.24v-5.81zM103.788 89.862h139.56v5.81h-139.56v-5.81zM103.788 80.043h139.56v5.81h-139.56v-5.81zM103.788 70.226h144.72v5.91h-144.72v-5.91zM103.788 60.507h144.72v5.81h-144.72v-5.81z"/><path fill="#03324D" d="M103.788 50.69h148.32v5.81h-148.32v-5.81z"/><path fill="#8BCEAF" d="M103.788 40.87h155.04v5.812h-155.04v-5.81zM103.788 31.053h165.36v5.81h-165.36v-5.81zM103.788 21.235h170.52v5.81H103.79v-5.81zM103.788 11.416h196.44v5.91H103.79v-5.91zM103.788 1.598h217.08v5.91h-217.08V1.6z"/><text transform="translate(109.745 350.171)" fill="#808285" class="heavy" font-size="8">0.0%</text><text transform="translate(109.745 340.362)" fill="#808285" class="heavy" font-size="8">0.0%</text><text transform="translate(109.745 330.558)" fill="#808285" class="heavy" font-size="8">0.0%</text><text transform="translate(109.745 320.762)" fill="#808285" class="heavy" font-size="8">0.0%</text><text transform="translate(109.745 310.959)" fill="#808285" class="heavy" font-size="8">0.0%</text><text transform="translate(109.745 301.162)" fill="#808285" class="heavy" font-size="8">0.0%</text><text transform="translate(109.745 291.352)" fill="#808285" class="heavy" font-size="8">0.0%</text><text transform="translate(109.745 281.555)" fill="#808285" class="heavy" font-size="8">0.0%</text><text transform="translate(109.745 271.745)" fill="#808285" class="heavy" font-size="8">0.0%</text><text transform="translate(161.425 261.942)" fill="#808285" class="heavy" font-size="8">10.0%</text><text transform="translate(187.261 252.145)" fill="#808285" class="heavy" font-size="8">15.0%</text><text transform="translate(192.425 242.341)" fill="#808285" class="heavy" font-size="8">16.0%</text><text transform="translate(203.87 232.544)" fill="#808285" class="heavy" font-size="8">18.2%</text><text transform="translate(207.933 222.742)" fill="#808285" class="heavy" font-size="8">19.0%</text><text transform="translate(213.097 212.938)" fill="#808285" class="heavy" font-size="8">20.0%</text><text transform="translate(213.097 203.134)" fill="#808285" class="heavy" font-size="8">20.0%</text><text transform="translate(213.097 193.325)" fill="#808285" class="heavy" font-size="8">20.0%</text><text transform="translate(213.097 183.528)" fill="#808285" class="heavy" font-size="8">20.0%</text><text transform="translate(218.269 173.725)" fill="#808285" class="heavy" font-size="8">21.0%</text><text transform="translate(226.019 163.928)" fill="#808285" class="heavy" font-size="8">22.5%</text><text transform="translate(226.019 154.125)" fill="#808285" class="heavy" font-size="8">22.5%</text><text transform="translate(228.042 144.328)" fill="#808285" class="heavy" font-size="8">22.9%</text><text transform="translate(238.94 134.518)" fill="#808285" class="heavy" font-size="8">25.0%</text><text transform="translate(238.94 124.721)" fill="#808285" class="heavy" font-size="8">25.0%</text><text transform="translate(238.94 114.912)" fill="#808285" class="heavy" font-size="8">25.0%</text><text transform="translate(238.94 105.108)" fill="#808285" class="heavy" font-size="8">25.0%</text><text transform="translate(249.269 95.311)" fill="#808285" class="heavy" font-size="8">27.0%</text><text transform="translate(249.269 85.501)" fill="#808285" class="heavy" font-size="8">27.0%</text><text transform="translate(254.44 75.705)" fill="#808285" class="heavy" font-size="8">28.0%</text><text transform="translate(254.44 65.901)" fill="#808285" class="heavy" font-size="8">28.0%</text><text transform="translate(258.058 56.105)" fill="#808285" class="heavy" font-size="8">28.7%</text><text transform="translate(264.769 46.301)" fill="#808285" class="heavy" font-size="8">30.0%</text><text transform="translate(275.112 36.504)" fill="#808285" class="heavy" font-size="8">32.0%</text><text transform="translate(280.276 26.694)" fill="#808285" class="heavy" font-size="8">33.0%</text><text transform="translate(306.112 16.891)" fill="#808285" class="heavy" font-size="8">38.0%</text><text transform="translate(326.784 7.094)" fill="#808285" class="heavy" font-size="8">42.0%</text><text transform="translate(65.321 349.754)"><tspan x="0" y="0" fill="#808285" class="heavy" font-size="8">Belgium</tspan></text><text transform="translate(38.425 339.951)"><tspan x="0" y="0" fill="#808285" class="heavy" font-size="8">Czech Republic</tspan></text><text transform="translate(73.365 330.154)"><tspan x="0" y="0" fill="#808285" class="heavy" font-size="8">Korea</tspan></text><text transform="translate(48.965 320.344)"><tspan x="0" y="0" fill="#808285" class="heavy" font-size="8">Luxembourg</tspan></text><text transform="translate(49.589 310.547)"><tspan x="0" y="0" fill="#808285" class="heavy" font-size="8">Netherlands</tspan></text><text transform="translate(46.445 300.738)"><tspan x="0" y="0" fill="#808285" class="heavy" font-size="8">New Zealand</tspan></text><text transform="translate(64.029 290.934)"><tspan x="0" y="0" fill="#808285" class="heavy" font-size="8">Slovenia</tspan></text><text transform="translate(51.525 281.137)"><tspan x="0" y="0" fill="#808285" class="heavy" font-size="8">Switzerland</tspan></text><text transform="translate(69.393 271.334)"><tspan x="0" y="0" fill="#808285" class="heavy" font-size="8">Turkey</tspan></text><text transform="translate(68.001 261.538)"><tspan x="0" y="0" fill="#808285" class="heavy" font-size="8">Mexico</tspan></text><text transform="translate(69.181 251.727)"><tspan x="0" y="0" fill="#808285" class="heavy" font-size="8">Greece</tspan></text><text transform="translate(63.669 241.93)"><tspan x="0" y="0" fill="#808285" class="heavy" font-size="8">Hungary</tspan></text><text transform="translate(11.946 232.127)"><tspan x="0" y="0" fill="#808285" class="heavy" font-size="8">OECD Simple Average</tspan></text><text transform="translate(69.869 222.318)"><tspan x="0" y="0" fill="#808285" class="heavy" font-size="8">Poland</tspan></text><text transform="translate(76.713 212.521)"><tspan x="0" y="0" fill="#808285" class="heavy" font-size="8">Chile</tspan></text><text transform="translate(68.689 202.717)"><tspan x="0" y="0" fill="#808285" class="heavy" font-size="8">Iceland</tspan></text><text transform="translate(79.133 192.92)"><tspan x="0" y="0" fill="#808285" class="heavy" font-size="8">Italy</tspan></text><text transform="translate(74.225 183.117)"><tspan x="0" y="0" fill="#808285" class="heavy" font-size="8">Japan</tspan></text><text transform="translate(68.077 173.321)"><tspan x="0" y="0" fill="#808285" class="heavy" font-size="8">Estonia</tspan></text><text transform="translate(62.085 163.511)"><tspan x="0" y="0" fill="#808285" class="heavy" font-size="8">Australia</tspan></text><text transform="translate(68.065 153.701)"><tspan x="0" y="0" fill="#808285" class="heavy" font-size="8">Canada</tspan></text><text transform="translate(.202 143.904)"><tspan x="0" y="0" fill="#808285" class="heavy" font-size="8">OECD Weighted Average</tspan></text><text transform="translate(68.597 134.101)"><tspan x="0" y="0" fill="#808285" class="heavy" font-size="8">Austria</tspan></text><text transform="translate(61.809 124.304)"><tspan x="0" y="0" fill="#808285" class="heavy" font-size="8">Germany</tspan></text><text transform="translate(75.309 114.501)"><tspan x="0" y="0" fill="#808285" class="heavy" font-size="8">Israel</tspan></text><text transform="translate(36.118 104.704)"><tspan x="0" y="0" fill="#808285" class="heavy" font-size="8">Slovak Republic</tspan></text><text transform="translate(66.061 94.894)"><tspan x="0" y="0" fill="#808285" class="heavy" font-size="8">Norway</tspan></text><text transform="translate(75.265 85.097)"><tspan x="0" y="0" fill="#808285" class="heavy" font-size="8">Spain</tspan></text><text transform="translate(63.785 75.287)"><tspan x="0" y="0" fill="#808285" class="heavy" font-size="8">Portugal</tspan></text><text transform="translate(34.466 65.484)"><tspan x="0" y="0" fill="#808285" class="heavy" font-size="8">United Kingdom</tspan></text><text transform="translate(44.562 55.687)"><tspan x="0" y="0" fill="#808285" class="heavy" font-size="8">United States</tspan></text><text transform="translate(66.197 45.884)"><tspan x="0" y="0" fill="#808285" class="heavy" font-size="8">Sweden</tspan></text><text transform="translate(68.137 36.081)"><tspan x="0" y="0" fill="#808285" class="heavy" font-size="8">Finland</tspan></text><text transform="translate(69.577 26.284)"><tspan x="0" y="0" fill="#808285" class="heavy" font-size="8">Ireland</tspan></text><text transform="translate(70.385 16.48)"><tspan x="0" y="0" fill="#808285" class="heavy" font-size="8">France</tspan></text><text transform="translate(61.394 6.677)"><tspan x="0" y="0" fill="#808285" class="heavy" font-size="8">Denmark</tspan></text></svg>