<?xml version="1.0" encoding="utf-8"?>
<!-- Generator: Adobe Illustrator 16.0.4, SVG Export Plug-In . SVG Version: 6.00 Build 0)  -->
<!DOCTYPE svg PUBLIC "-//W3C//DTD SVG 1.1//EN" "http://www.w3.org/Graphics/SVG/1.1/DTD/svg11.dtd">
<svg version="1.1" id="Layer_1" xmlns="http://www.w3.org/2000/svg" xmlns:xlink="http://www.w3.org/1999/xlink" x="0px" y="0px"
	 width="350.166px" height="351.417px" viewBox="0 0 350.166 351.417" enable-background="new 0 0 350.166 351.417"
	 xml:space="preserve"><style>text, tspan { font-family: &apos;Lato&apos;; } .heavy { font-weight: 700; }</style>
<polygon fill="#8BCEAF" points="103.788,256.471 155.509,256.471 155.509,262.382 103.788,262.382 103.788,256.471 "/>
<polygon fill="#8BCEAF" points="103.788,246.653 181.309,246.653 181.309,252.563 103.788,252.563 103.788,246.653 "/>
<polygon fill="#8BCEAF" points="103.788,236.934 186.468,236.934 186.468,242.746 103.788,242.746 103.788,236.934 "/>
<polygon fill="#CC333F" points="103.788,227.117 197.988,227.117 197.988,232.927 103.788,232.927 103.788,227.117 "/>
<polygon fill="#8BCEAF" points="103.788,217.298 202.068,217.298 202.068,223.109 103.788,223.109 103.788,217.298 "/>
<polygon fill="#8BCEAF" points="103.788,207.48 207.229,207.48 207.229,213.291 103.788,213.291 103.788,207.48 "/>
<polygon fill="#8BCEAF" points="103.788,197.662 207.229,197.662 207.229,203.573 103.788,203.573 103.788,197.662 "/>
<polygon fill="#8BCEAF" points="103.788,187.843 207.229,187.843 207.229,193.754 103.788,193.754 103.788,187.843 "/>
<polygon fill="#8BCEAF" points="103.788,178.125 207.229,178.125 207.229,183.936 103.788,183.936 103.788,178.125 "/>
<polygon fill="#8BCEAF" points="103.788,168.307 212.388,168.307 212.388,174.118 103.788,174.118 103.788,168.307 "/>
<polygon fill="#8BCEAF" points="103.788,158.489 220.068,158.489 220.068,164.3 103.788,164.3 103.788,158.489 "/>
<polygon fill="#8BCEAF" points="103.788,148.671 220.068,148.671 220.068,154.482 103.788,154.482 103.788,148.671 "/>
<polygon fill="#CC333F" points="103.788,138.853 222.108,138.853 222.108,144.663 103.788,144.663 103.788,138.853 "/>
<polygon fill="#8BCEAF" points="103.788,129.034 233.028,129.034 233.028,134.945 103.788,134.945 103.788,129.034 "/>
<polygon fill="#8BCEAF" points="103.788,119.316 233.028,119.316 233.028,125.127 103.788,125.127 103.788,119.316 "/>
<polygon fill="#8BCEAF" points="103.788,109.499 233.028,109.499 233.028,115.309 103.788,115.309 103.788,109.499 "/>
<polygon fill="#8BCEAF" points="103.788,99.68 233.028,99.68 233.028,105.491 103.788,105.491 103.788,99.68 "/>
<polygon fill="#8BCEAF" points="103.788,89.862 243.348,89.862 243.348,95.672 103.788,95.672 103.788,89.862 "/>
<polygon fill="#8BCEAF" points="103.788,80.043 243.348,80.043 243.348,85.854 103.788,85.854 103.788,80.043 "/>
<polygon fill="#8BCEAF" points="103.788,70.226 248.508,70.226 248.508,76.137 103.788,76.137 103.788,70.226 "/>
<polygon fill="#8BCEAF" points="103.788,60.507 248.508,60.507 248.508,66.318 103.788,66.318 103.788,60.507 "/>
<polygon fill="#03324D" points="103.788,50.689 252.108,50.689 252.108,56.5 103.788,56.5 103.788,50.689 "/>
<polygon fill="#8BCEAF" points="103.788,40.871 258.828,40.871 258.828,46.682 103.788,46.682 103.788,40.871 "/>
<polygon fill="#8BCEAF" points="103.788,31.053 269.148,31.053 269.148,36.864 103.788,36.864 103.788,31.053 "/>
<polygon fill="#8BCEAF" points="103.788,21.235 274.309,21.235 274.309,27.045 103.788,27.045 103.788,21.235 "/>
<polygon fill="#8BCEAF" points="103.788,11.416 300.229,11.416 300.229,17.327 103.788,17.327 103.788,11.416 "/>
<polygon fill="#8BCEAF" points="103.788,1.598 320.868,1.598 320.868,7.509 103.788,7.509 103.788,1.598 "/>
<g>
	<text transform="matrix(1 0 0 1 109.7451 350.1714)" fill="#808285" class="heavy" font-size="8">0.0%</text>
</g>
<g>
	<text transform="matrix(1 0 0 1 109.7451 340.3618)" fill="#808285" class="heavy" font-size="8">0.0%</text>
</g>
<g>
	<text transform="matrix(1 0 0 1 109.7451 330.5581)" fill="#808285" class="heavy" font-size="8">0.0%</text>
</g>
<g>
	<text transform="matrix(1 0 0 1 109.7451 320.7622)" fill="#808285" class="heavy" font-size="8">0.0%</text>
</g>
<g>
	<text transform="matrix(1 0 0 1 109.7451 310.9585)" fill="#808285" class="heavy" font-size="8">0.0%</text>
</g>
<g>
	<text transform="matrix(1 0 0 1 109.7451 301.1616)" fill="#808285" class="heavy" font-size="8">0.0%</text>
</g>
<g>
	<text transform="matrix(1 0 0 1 109.7451 291.3521)" fill="#808285" class="heavy" font-size="8">0.0%</text>
</g>
<g>
	<text transform="matrix(1 0 0 1 109.7451 281.5552)" fill="#808285" class="heavy" font-size="8">0.0%</text>
</g>
<g>
	<text transform="matrix(1 0 0 1 109.7451 271.7446)" fill="#808285" class="heavy" font-size="8">0.0%</text>
</g>
<g>
	<text transform="matrix(1 0 0 1 161.4248 261.9419)" fill="#808285" class="heavy" font-size="8">10.0%</text>
</g>
<g>
	<text transform="matrix(1 0 0 1 187.2607 252.145)" fill="#808285" class="heavy" font-size="8">15.0%</text>
</g>
<g>
	<text transform="matrix(1 0 0 1 192.4248 242.3413)" fill="#808285" class="heavy" font-size="8">16.0%</text>
</g>
<g>
	<text transform="matrix(1 0 0 1 203.8701 232.5444)" fill="#808285" class="heavy" font-size="8">18.2%</text>
</g>
<g>
	<text transform="matrix(1 0 0 1 207.9326 222.7417)" fill="#808285" class="heavy" font-size="8">19.0%</text>
</g>
<g>
	<text transform="matrix(1 0 0 1 213.0967 212.938)" fill="#808285" class="heavy" font-size="8">20.0%</text>
</g>
<g>
	<text transform="matrix(1 0 0 1 213.0967 203.1343)" fill="#808285" class="heavy" font-size="8">20.0%</text>
</g>
<g>
	<text transform="matrix(1 0 0 1 213.0967 193.3247)" fill="#808285" class="heavy" font-size="8">20.0%</text>
</g>
<g>
	<text transform="matrix(1 0 0 1 213.0967 183.5278)" fill="#808285" class="heavy" font-size="8">20.0%</text>
</g>
<g>
	<text transform="matrix(1 0 0 1 218.2686 173.7251)" fill="#808285" class="heavy" font-size="8">21.0%</text>
</g>
<g>
	<text transform="matrix(1 0 0 1 226.0186 163.9282)" fill="#808285" class="heavy" font-size="8">22.5%</text>
</g>
<g>
	<text transform="matrix(1 0 0 1 226.0186 154.125)" fill="#808285" class="heavy" font-size="8">22.5%</text>
</g>
<g>
	<text transform="matrix(1 0 0 1 228.042 144.3281)" fill="#808285" class="heavy" font-size="8">22.9%</text>
</g>
<g>
	<text transform="matrix(1 0 0 1 238.9404 134.5181)" fill="#808285" class="heavy" font-size="8">25.0%</text>
</g>
<g>
	<text transform="matrix(1 0 0 1 238.9404 124.7212)" fill="#808285" class="heavy" font-size="8">25.0%</text>
</g>
<g>
	<text transform="matrix(1 0 0 1 238.9404 114.9116)" fill="#808285" class="heavy" font-size="8">25.0%</text>
</g>
<g>
	<text transform="matrix(1 0 0 1 238.9404 105.1084)" fill="#808285" class="heavy" font-size="8">25.0%</text>
</g>
<g>
	<text transform="matrix(1 0 0 1 249.2686 95.3115)" fill="#808285" class="heavy" font-size="8">27.0%</text>
</g>
<g>
	<text transform="matrix(1 0 0 1 249.2686 85.5015)" fill="#808285" class="heavy" font-size="8">27.0%</text>
</g>
<g>
	<text transform="matrix(1 0 0 1 254.4404 75.7046)" fill="#808285" class="heavy" font-size="8">28.0%</text>
</g>
<g>
	<text transform="matrix(1 0 0 1 254.4404 65.9014)" fill="#808285" class="heavy" font-size="8">28.0%</text>
</g>
<g>
	<text transform="matrix(1 0 0 1 258.0576 56.1045)" fill="#808285" class="heavy" font-size="8">28.7%</text>
</g>
<g>
	<text transform="matrix(1 0 0 1 264.7686 46.3013)" fill="#808285" class="heavy" font-size="8">30.0%</text>
</g>
<g>
	<text transform="matrix(1 0 0 1 275.1123 36.5044)" fill="#808285" class="heavy" font-size="8">32.0%</text>
</g>
<g>
	<text transform="matrix(1 0 0 1 280.2764 26.6943)" fill="#808285" class="heavy" font-size="8">33.0%</text>
</g>
<g>
	<text transform="matrix(1 0 0 1 306.1123 16.8911)" fill="#808285" class="heavy" font-size="8">38.0%</text>
</g>
<g>
	<text transform="matrix(1 0 0 1 326.7842 7.0942)" fill="#808285" class="heavy" font-size="8">42.0%</text>
</g>
<g>
	<text transform="matrix(1 0 0 1 65.3213 349.7544)"><tspan x="0" y="0" fill="#808285" class="heavy" font-size="8">Belgium</tspan></text>
</g>
<g>
	<text transform="matrix(1 0 0 1 38.4253 339.9507)"><tspan x="0" y="0" fill="#808285" class="heavy" font-size="8">Czech Republic</tspan></text>
</g>
<g>
	<text transform="matrix(1 0 0 1 73.3647 330.1538)"><tspan x="0" y="0" fill="#808285" class="heavy" font-size="8">Korea</tspan></text>
</g>
<g>
	<text transform="matrix(1 0 0 1 48.9653 320.3442)"><tspan x="0" y="0" fill="#808285" class="heavy" font-size="8">Luxembourg</tspan></text>
</g>
<g>
	<text transform="matrix(1 0 0 1 49.5894 310.5474)"><tspan x="0" y="0" fill="#808285" class="heavy" font-size="8">Netherlands</tspan></text>
</g>
<g>
	<text transform="matrix(1 0 0 1 46.4453 300.7378)"><tspan x="0" y="0" fill="#808285" class="heavy" font-size="8">New Zealand</tspan></text>
</g>
<g>
	<text transform="matrix(1 0 0 1 64.0293 290.9341)"><tspan x="0" y="0" fill="#808285" class="heavy" font-size="8">Slovenia</tspan></text>
</g>
<g>
	<text transform="matrix(1 0 0 1 51.5254 281.1372)"><tspan x="0" y="0" fill="#808285" class="heavy" font-size="8">Switzerland</tspan></text>
</g>
<g>
	<text transform="matrix(1 0 0 1 69.3931 271.3345)"><tspan x="0" y="0" fill="#808285" class="heavy" font-size="8">Turkey</tspan></text>
</g>
<g>
	<text transform="matrix(1 0 0 1 68.001 261.5376)"><tspan x="0" y="0" fill="#808285" class="heavy" font-size="8">Mexico</tspan></text>
</g>
<g>
	<text transform="matrix(1 0 0 1 69.1812 251.7271)"><tspan x="0" y="0" fill="#808285" class="heavy" font-size="8">Greece</tspan></text>
</g>
<g>
	<text transform="matrix(1 0 0 1 63.6689 241.9302)"><tspan x="0" y="0" fill="#808285" class="heavy" font-size="8">Hungary</tspan></text>
</g>
<g>
	<text transform="matrix(1 0 0 1 11.9458 232.1274)"><tspan x="0" y="0" fill="#808285" class="heavy" font-size="8">OECD Simple Average</tspan></text>
</g>
<g>
	<text transform="matrix(1 0 0 1 69.8691 222.3179)"><tspan x="0" y="0" fill="#808285" class="heavy" font-size="8">Poland</tspan></text>
</g>
<g>
	<text transform="matrix(1 0 0 1 76.7129 212.521)"><tspan x="0" y="0" fill="#808285" class="heavy" font-size="8">Chile</tspan></text>
</g>
<g>
	<text transform="matrix(1 0 0 1 68.689 202.7173)"><tspan x="0" y="0" fill="#808285" class="heavy" font-size="8">Iceland</tspan></text>
</g>
<g>
	<text transform="matrix(1 0 0 1 79.1333 192.9204)"><tspan x="0" y="0" fill="#808285" class="heavy" font-size="8">Italy</tspan></text>
</g>
<g>
	<text transform="matrix(1 0 0 1 74.2251 183.1167)"><tspan x="0" y="0" fill="#808285" class="heavy" font-size="8">Japan</tspan></text>
</g>
<g>
	<text transform="matrix(1 0 0 1 68.0771 173.3208)"><tspan x="0" y="0" fill="#808285" class="heavy" font-size="8">Estonia</tspan></text>
</g>
<g>
	<text transform="matrix(1 0 0 1 62.0854 163.5107)"><tspan x="0" y="0" fill="#808285" class="heavy" font-size="8">Australia</tspan></text>
</g>
<g>
	<text transform="matrix(1 0 0 1 68.0649 153.7007)"><tspan x="0" y="0" fill="#808285" class="heavy" font-size="8">Canada</tspan></text>
</g>
<g>
	<text transform="matrix(1 0 0 1 0.2021 143.9043)"><tspan x="0" y="0" fill="#808285" class="heavy" font-size="8">OECD Weighted Average</tspan></text>
</g>
<g>
	<text transform="matrix(1 0 0 1 68.5972 134.1006)"><tspan x="0" y="0" fill="#808285" class="heavy" font-size="8">Austria</tspan></text>
</g>
<g>
	<text transform="matrix(1 0 0 1 61.8091 124.3037)"><tspan x="0" y="0" fill="#808285" class="heavy" font-size="8">Germany</tspan></text>
</g>
<g>
	<text transform="matrix(1 0 0 1 75.3091 114.5005)"><tspan x="0" y="0" fill="#808285" class="heavy" font-size="8">Israel</tspan></text>
</g>
<g>
	<text transform="matrix(1 0 0 1 36.1177 104.7036)"><tspan x="0" y="0" fill="#808285" class="heavy" font-size="8">Slovak Republic</tspan></text>
</g>
<g>
	<text transform="matrix(1 0 0 1 66.061 94.894)"><tspan x="0" y="0" fill="#808285" class="heavy" font-size="8">Norway</tspan></text>
</g>
<g>
	<text transform="matrix(1 0 0 1 75.2651 85.0972)"><tspan x="0" y="0" fill="#808285" class="heavy" font-size="8">Spain</tspan></text>
</g>
<g>
	<text transform="matrix(1 0 0 1 63.7852 75.2871)"><tspan x="0" y="0" fill="#808285" class="heavy" font-size="8">Portugal</tspan></text>
</g>
<g>
	<text transform="matrix(1 0 0 1 34.4658 65.4839)"><tspan x="0" y="0" fill="#808285" class="heavy" font-size="8">United Kingdom</tspan></text>
</g>
<g>
	<text transform="matrix(1 0 0 1 44.5615 55.687)"><tspan x="0" y="0" fill="#808285" class="heavy" font-size="8">United States</tspan></text>
</g>
<g>
	<text transform="matrix(1 0 0 1 66.1973 45.8838)"><tspan x="0" y="0" fill="#808285" class="heavy" font-size="8">Sweden</tspan></text>
</g>
<g>
	<text transform="matrix(1 0 0 1 68.1372 36.0806)"><tspan x="0" y="0" fill="#808285" class="heavy" font-size="8">Finland</tspan></text>
</g>
<g>
	<text transform="matrix(1 0 0 1 69.5771 26.2837)"><tspan x="0" y="0" fill="#808285" class="heavy" font-size="8">Ireland</tspan></text>
</g>
<g>
	<text transform="matrix(1 0 0 1 70.3853 16.4805)"><tspan x="0" y="0" fill="#808285" class="heavy" font-size="8">France</tspan></text>
</g>
<g>
	<text transform="matrix(1 0 0 1 61.3936 6.6768)"><tspan x="0" y="0" fill="#808285" class="heavy" font-size="8">Denmark</tspan></text>
</g>
</svg>
