<?xml version="1.0" encoding="utf-8"?>
<!-- Generator: Adobe Illustrator 16.0.4, SVG Export Plug-In . SVG Version: 6.00 Build 0)  -->
<!DOCTYPE svg PUBLIC "-//W3C//DTD SVG 1.1//EN" "http://www.w3.org/Graphics/SVG/1.1/DTD/svg11.dtd">
<svg version="1.1" id="Layer_1" xmlns="http://www.w3.org/2000/svg" xmlns:xlink="http://www.w3.org/1999/xlink" x="0px" y="0px"
	 width="332px" height="362.665px" viewBox="0 0 332 362.665" enable-background="new 0 0 332 362.665" xml:space="preserve"><style>text, tspan { font-family: &apos;Lato&apos;; } .heavy { font-weight: 700; }</style>
<g>
	<text transform="matrix(1 0 0 1 -845.7451 886.2461)" fill="#4E4E4E" font-size="10">0</text>
</g>
<polygon fill="#F8B668" points="68.541,354.235 148.34,354.235 148.34,360.603 68.541,360.603 68.541,354.235 "/>
<polygon fill="#F8B668" points="68.541,343.511 152.18,343.511 152.18,349.88 68.541,349.88 68.541,343.511 "/>
<polygon fill="#F8B668" points="68.541,332.788 186.98,332.788 186.98,339.153 68.541,339.153 68.541,332.788 "/>
<polygon fill="#F8B668" points="68.541,322.147 189.98,322.147 189.98,328.513 68.541,328.513 68.541,322.147 "/>
<polygon fill="#F8B668" points="68.541,311.423 193.94,311.423 193.94,317.79 68.541,317.79 68.541,311.423 "/>
<polygon fill="#F8B668" points="68.541,300.698 195.5,300.698 195.5,307.065 68.541,307.065 68.541,300.698 "/>
<polygon fill="#F8B668" points="68.541,289.974 197.78,289.974 197.78,296.341 68.541,296.341 68.541,289.974 "/>
<polygon fill="#F8B668" points="68.541,279.333 199.221,279.333 199.221,285.702 68.541,285.702 68.541,279.333 "/>
<polygon fill="#F8B668" points="68.541,268.61 205.34,268.61 205.34,274.978 68.541,274.978 68.541,268.61 "/>
<polygon fill="#F8B668" points="68.541,257.886 208.82,257.886 208.82,264.253 68.541,264.253 68.541,257.886 "/>
<polygon fill="#F8B668" points="68.541,247.161 212.061,247.161 212.061,253.53 68.541,253.53 68.541,247.161 "/>
<polygon fill="#F8B668" points="68.541,236.521 220.58,236.521 220.58,242.89 68.541,242.89 68.541,236.521 "/>
<polygon fill="#F8B668" points="68.541,225.796 227.3,225.796 227.3,232.165 68.541,232.165 68.541,225.796 "/>
<polygon fill="#F8B668" points="68.541,215.073 228.141,215.073 228.141,221.44 68.541,221.44 68.541,215.073 "/>
<polygon fill="#F8B668" points="68.541,204.349 228.141,204.349 228.141,210.716 68.541,210.716 68.541,204.349 "/>
<polygon fill="#F8B668" points="68.541,193.708 233.42,193.708 233.42,200.075 68.541,200.075 68.541,193.708 "/>
<polygon fill="#F8B668" points="68.541,182.983 234.86,182.983 234.86,189.353 68.541,189.353 68.541,182.983 "/>
<polygon fill="#F8B668" points="68.541,172.26 234.86,172.26 234.86,178.627 68.541,178.627 68.541,172.26 "/>
<polygon fill="#F8B668" points="68.541,161.536 240.141,161.536 240.141,167.903 68.541,167.903 68.541,161.536 "/>
<polygon fill="#F8B668" points="68.541,150.896 241.101,150.896 241.101,157.263 68.541,157.263 68.541,150.896 "/>
<polygon fill="#F8B668" points="68.541,140.171 245.181,140.171 245.181,146.539 68.541,146.539 68.541,140.171 "/>
<polygon fill="#F8B668" points="68.541,129.448 246.021,129.448 246.021,135.815 68.541,135.815 68.541,129.448 "/>
<polygon fill="#F8B668" points="68.541,118.723 253.101,118.723 253.101,125.091 68.541,125.091 68.541,118.723 "/>
<polygon fill="#F8B668" points="68.541,108.083 253.221,108.083 253.221,114.451 68.541,114.451 68.541,108.083 "/>
<polygon fill="#F8B668" points="68.541,97.358 254.42,97.358 254.42,103.726 68.541,103.726 68.541,97.358 "/>
<polygon fill="#F8B668" points="68.541,86.635 257.78,86.635 257.78,93.002 68.541,93.002 68.541,86.635 "/>
<polygon fill="#F8B668" points="68.541,75.911 260.42,75.911 260.42,82.278 68.541,82.278 68.541,75.911 "/>
<polygon fill="#F8B668" points="68.541,65.27 261.141,65.27 261.141,71.638 68.541,71.638 68.541,65.27 "/>
<polygon fill="#F8B668" points="68.541,54.546 262.46,54.546 262.46,60.914 68.541,60.914 68.541,54.546 "/>
<polygon fill="#F8B668" points="68.541,43.822 263.301,43.822 263.301,50.189 68.541,50.189 68.541,43.822 "/>
<polygon fill="#F8B668" points="68.541,33.098 275.66,33.098 275.66,39.465 68.541,39.465 68.541,33.098 "/>
<polygon fill="#F8B668" points="68.541,22.458 282.141,22.458 282.141,28.825 68.541,28.825 68.541,22.458 "/>
<polygon fill="#03324D" points="68.541,11.733 287.301,11.733 287.301,18.101 68.541,18.101 68.541,11.733 "/>
<polygon fill="#F8B668" points="68.541,1.009 313.221,1.009 313.221,7.376 68.541,7.376 68.541,1.009 "/>
<g>
	<text transform="matrix(1 0 0 1 156.416 360.5166)" fill="#808285" class="heavy" font-size="8">21.0</text>
</g>
<g>
	<text transform="matrix(1 0 0 1 160.2129 349.8076)" fill="#808285" class="heavy" font-size="8">22.0</text>
</g>
<g>
	<text transform="matrix(1 0 0 1 194.9785 339.1064)" fill="#808285" class="heavy" font-size="8">31.2</text>
</g>
<g>
	<text transform="matrix(1 0 0 1 198.0566 328.4111)" fill="#808285" class="heavy" font-size="8">32.0</text>
</g>
<g>
	<text transform="matrix(1 0 0 1 202.0098 317.7021)" fill="#808285" class="heavy" font-size="8">33.0</text>
</g>
<g>
	<text transform="matrix(1 0 0 1 203.5332 307.0068)" fill="#808285" class="heavy" font-size="8">33.4</text>
</g>
<g>
	<text transform="matrix(1 0 0 1 205.8145 296.2998)" fill="#808285" class="heavy" font-size="8">34.0</text>
</g>
<g>
	<text transform="matrix(1 0 0 1 207.291 285.5967)" fill="#808285" class="heavy" font-size="8">34.4</text>
</g>
<g>
	<text transform="matrix(1 0 0 1 213.4082 274.8896)" fill="#808285" class="heavy" font-size="8">36.0</text>
</g>
<g>
	<text transform="matrix(1 0 0 1 216.8535 264.1885)" fill="#808285" class="heavy" font-size="8">36.9</text>
</g>
<g>
	<text transform="matrix(1 0 0 1 220.0566 253.4814)" fill="#808285" class="heavy" font-size="8">37.8</text>
</g>
<g>
	<text transform="matrix(1 0 0 1 228.6035 242.7842)" fill="#808285" class="heavy" font-size="8">40.0</text>
</g>
<g>
	<text transform="matrix(1 0 0 1 235.291 232.083)" fill="#808285" class="heavy" font-size="8">41.8</text>
</g>
<g>
	<text transform="matrix(1 0 0 1 236.2051 221.3799)" fill="#808285" class="heavy" font-size="8">42.0</text>
</g>
<g>
	<text transform="matrix(1 0 0 1 236.2051 210.6787)" fill="#808285" class="heavy" font-size="8">42.0</text>
</g>
<g>
	<text transform="matrix(1 0 0 1 241.4316 199.9717)" fill="#808285" class="heavy" font-size="8">43.4</text>
</g>
<g>
	<text transform="matrix(1 0 0 1 242.8535 189.2686)" fill="#808285" class="heavy" font-size="8">43.8</text>
</g>
<g>
	<text transform="matrix(1 0 0 1 242.8535 178.5728)" fill="#808285" class="heavy" font-size="8">43.8</text>
</g>
<g>
	<text transform="matrix(1 0 0 1 248.1348 167.8657)" fill="#808285" class="heavy" font-size="8">45.1</text>
</g>
<g>
	<text transform="matrix(1 0 0 1 249.1191 157.1636)" fill="#808285" class="heavy" font-size="8">45.4</text>
</g>
<g>
	<text transform="matrix(1 0 0 1 253.2441 145.7646)" fill="#808285" class="heavy" font-size="8">46.5</text>
</g>
<g>
	<text transform="matrix(1 0 0 1 254.0957 135.0684)" fill="#808285" class="heavy" font-size="8">46.7</text>
</g>
<g>
	<text transform="matrix(1 0 0 1 261.0879 124.3604)" fill="#808285" class="heavy" font-size="8">48.6</text>
</g>
<g>
	<text transform="matrix(1 0 0 1 261.2441 113.6592)" fill="#808285" class="heavy" font-size="8">48.6</text>
</g>
<g>
	<text transform="matrix(1 0 0 1 262.4238 102.9512)" fill="#808285" class="heavy" font-size="8">48.9</text>
</g>
<g>
	<text transform="matrix(1 0 0 1 265.7988 92.25)" fill="#808285" class="heavy" font-size="8">49.8</text>
</g>
<g>
	<text transform="matrix(1 0 0 1 268.4707 81.542)" fill="#808285" class="heavy" font-size="8">50.5</text>
</g>
<g>
	<text transform="matrix(1 0 0 1 269.1895 70.8457)" fill="#808285" class="heavy" font-size="8">50.7</text>
</g>
<g>
	<text transform="matrix(1 0 0 1 270.5176 61.1436)" fill="#808285" class="heavy" font-size="8">51.0</text>
</g>
<g>
	<text transform="matrix(1 0 0 1 271.3301 50.4424)" fill="#808285" class="heavy" font-size="8">51.2</text>
</g>
<g>
	<text transform="matrix(1 0 0 1 278.6973 38.7402)" fill="#808285" class="heavy" font-size="8">54.5</text>
</g>
<g>
	<text transform="matrix(1 0 0 1 285.1973 29.0332)" fill="#808285" class="heavy" font-size="8">56.2</text>
</g>
<g>
	<text transform="matrix(1 0 0 1 293.0283 17.6792)" fill="#808285" class="heavy" font-size="8">57.6</text>
</g>
<g>
	<text transform="matrix(1 0 0 1 315.2441 6.9771)" fill="#808285" class="heavy" font-size="8">64.4</text>
</g>
<g>
	<text transform="matrix(1 0 0 1 34.436 359.1729)"><tspan x="0" y="0" fill="#808285" class="heavy" font-size="8">Estonia</tspan></text>
</g>
<g>
	<text transform="matrix(1 0 0 1 2.4766 348.4697)"><tspan x="0" y="0" fill="#808285" class="heavy" font-size="8">Slovak Republic</tspan></text>
</g>
<g>
	<text transform="matrix(1 0 0 1 4.7842 337.7627)"><tspan x="0" y="0" fill="#808285" class="heavy" font-size="8">Czech Republic</tspan></text>
</g>
<g>
	<text transform="matrix(1 0 0 1 30.0278 327.0615)"><tspan x="0" y="0" fill="#808285" class="heavy" font-size="8">Hungary</tspan></text>
</g>
<g>
	<text transform="matrix(1 0 0 1 12.8042 316.3545)"><tspan x="0" y="0" fill="#808285" class="heavy" font-size="8">New Zealand</tspan></text>
</g>
<g>
	<text transform="matrix(1 0 0 1 35.54 305.6514)"><tspan x="0" y="0" fill="#808285" class="heavy" font-size="8">Greece</tspan></text>
</g>
<g>
	<text transform="matrix(1 0 0 1 35.752 294.9561)"><tspan x="0" y="0" fill="#808285" class="heavy" font-size="8">Turkey</tspan></text>
</g>
<g>
	<text transform="matrix(1 0 0 1 36.228 284.249)"><tspan x="0" y="0" fill="#808285" class="heavy" font-size="8">Poland</tspan></text>
</g>
<g>
	<text transform="matrix(1 0 0 1 35.0479 273.5518)"><tspan x="0" y="0" fill="#808285" class="heavy" font-size="8">Iceland</tspan></text>
</g>
<g>
	<text transform="matrix(1 0 0 1 17.8843 262.8447)"><tspan x="0" y="0" fill="#808285" class="heavy" font-size="8">Switzerland</tspan></text>
</g>
<g>
	<text transform="matrix(1 0 0 1 30.3882 252.1416)"><tspan x="0" y="0" fill="#808285" class="heavy" font-size="8">Slovenia</tspan></text>
</g>
<g>
	<text transform="matrix(1 0 0 1 43.0718 241.4346)"><tspan x="0" y="0" fill="#808285" class="heavy" font-size="8">Chile</tspan></text>
</g>
<g>
	<text transform="matrix(1 0 0 1 34.4961 230.7334)"><tspan x="0" y="0" fill="#808285" class="heavy" font-size="8">Finland</tspan></text>
</g>
<g>
	<text transform="matrix(1 0 0 1 34.3599 220.0361)"><tspan x="0" y="0" fill="#808285" class="heavy" font-size="8">Mexico</tspan></text>
</g>
<g>
	<text transform="matrix(1 0 0 1 45.4922 209.3291)"><tspan x="0" y="0" fill="#808285" class="heavy" font-size="8">Italy</tspan></text>
</g>
<g>
	<text transform="matrix(1 0 0 1 15.3242 198.6279)"><tspan x="0" y="0" fill="#808285" class="heavy" font-size="8">Luxembourg</tspan></text>
</g>
<g>
	<text transform="matrix(1 0 0 1 34.9561 187.9248)"><tspan x="0" y="0" fill="#808285" class="heavy" font-size="8">Austria</tspan></text>
</g>
<g>
	<text transform="matrix(1 0 0 1 15.9482 177.2183)"><tspan x="0" y="0" fill="#808285" class="heavy" font-size="8">Netherlands</tspan></text>
</g>
<g>
	<text transform="matrix(1 0 0 1 0.8247 166.5161)"><tspan x="0" y="0" fill="#808285" class="heavy" font-size="8">United Kingdom</tspan></text>
</g>
<g>
	<text transform="matrix(1 0 0 1 32.5562 155.8149)"><tspan x="0" y="0" fill="#808285" class="heavy" font-size="8">Sweden</tspan></text>
</g>
<g>
	<text transform="matrix(1 0 0 1 28.4443 145.1187)"><tspan x="0" y="0" fill="#808285" class="heavy" font-size="8">Australia</tspan></text>
</g>
<g>
	<text transform="matrix(1 0 0 1 32.4199 134.4106)"><tspan x="0" y="0" fill="#808285" class="heavy" font-size="8">Norway</tspan></text>
</g>
<g>
	<text transform="matrix(1 0 0 1 41.668 123.7085)"><tspan x="0" y="0" fill="#808285" class="heavy" font-size="8">Israel</tspan></text>
</g>
<g>
	<text transform="matrix(1 0 0 1 28.168 113.0015)"><tspan x="0" y="0" fill="#808285" class="heavy" font-size="8">Germany</tspan></text>
</g>
<g>
	<text transform="matrix(1 0 0 1 41.624 102.3052)"><tspan x="0" y="0" fill="#808285" class="heavy" font-size="8">Spain</tspan></text>
</g>
<g>
	<text transform="matrix(1 0 0 1 40.584 91.5981)"><tspan x="0" y="0" fill="#808285" class="heavy" font-size="8">Japan</tspan></text>
</g>
<g>
	<text transform="matrix(1 0 0 1 31.6802 80.896)"><tspan x="0" y="0" fill="#808285" class="heavy" font-size="8">Belgium</tspan></text>
</g>
<g>
	<text transform="matrix(1 0 0 1 30.144 70.189)"><tspan x="0" y="0" fill="#808285" class="heavy" font-size="8">Portugal</tspan></text>
</g>
<g>
	<text transform="matrix(1 0 0 1 39.7236 59.4868)"><tspan x="0" y="0" fill="#808285" class="heavy" font-size="8">Korea</tspan></text>
</g>
<g>
	<text transform="matrix(1 0 0 1 34.4238 48.7798)"><tspan x="0" y="0" fill="#808285" class="heavy" font-size="8">Canada</tspan></text>
</g>
<g>
	<text transform="matrix(1 0 0 1 35.936 38.0835)"><tspan x="0" y="0" fill="#808285" class="heavy" font-size="8">Ireland</tspan></text>
</g>
<g>
	<text transform="matrix(1 0 0 1 27.7524 27.3813)"><tspan x="0" y="0" fill="#808285" class="heavy" font-size="8">Denmark</tspan></text>
</g>
<g>
	<text transform="matrix(1 0 0 1 10.9204 16.6792)"><tspan x="0" y="0" fill="#808285" class="heavy" font-size="8">United States</tspan></text>
</g>
<g>
	<text transform="matrix(1 0 0 1 36.7441 5.9771)"><tspan x="0" y="0" fill="#808285" class="heavy" font-size="8">France</tspan></text>
</g>
</svg>
