<?xml version="1.0" encoding="utf-8"?>
<!-- Generator: Adobe Illustrator 16.0.4, SVG Export Plug-In . SVG Version: 6.00 Build 0)  -->
<!DOCTYPE svg PUBLIC "-//W3C//DTD SVG 1.1//EN" "http://www.w3.org/Graphics/SVG/1.1/DTD/svg11.dtd">
<svg version="1.1" id="Layer_1" xmlns="http://www.w3.org/2000/svg" xmlns:xlink="http://www.w3.org/1999/xlink" x="0px" y="0px"
	 width="338.109px" height="345.448px" viewBox="0 0 338.109 345.448" enable-background="new 0 0 338.109 345.448"
	 xml:space="preserve"><style>text, tspan { font-family: &apos;Lato&apos;; } .heavy { font-weight: 700; }</style>
<polygon fill="#6EC1E4" points="68.435,339.271 107.315,339.271 107.315,345.42 68.435,345.42 68.435,339.271 "/>
<polygon fill="#6EC1E4" points="68.435,329.045 120.875,329.045 120.875,335.194 68.435,335.194 68.435,329.045 "/>
<polygon fill="#6EC1E4" points="68.435,318.819 135.275,318.819 135.275,324.898 68.435,324.898 68.435,318.819 "/>
<polygon fill="#6EC1E4" points="68.435,308.594 137.315,308.594 137.315,314.672 68.435,314.672 68.435,308.594 "/>
<polygon fill="#6EC1E4" points="68.435,298.369 154.955,298.369 154.955,304.447 68.435,304.447 68.435,298.369 "/>
<polygon fill="#6EC1E4" points="68.435,288.144 165.155,288.144 165.155,294.222 68.435,294.222 68.435,288.144 "/>
<polygon fill="#6EC1E4" points="68.435,277.846 167.915,277.846 167.915,283.996 68.435,283.996 68.435,277.846 "/>
<polygon fill="#6EC1E4" points="68.435,267.62 170.675,267.62 170.675,273.699 68.435,273.699 68.435,267.62 "/>
<polygon fill="#6EC1E4" points="68.435,257.396 175.475,257.396 175.475,263.474 68.435,263.474 68.435,257.396 "/>
<polygon fill="#6EC1E4" points="68.435,247.17 178.115,247.17 178.115,253.248 68.435,253.248 68.435,247.17 "/>
<polygon fill="#6EC1E4" points="68.435,236.944 178.115,236.944 178.115,243.022 68.435,243.022 68.435,236.944 "/>
<polygon fill="#6EC1E4" points="68.435,226.647 184.955,226.647 184.955,232.797 68.435,232.797 68.435,226.647 "/>
<polygon fill="#6EC1E4" points="68.435,216.422 186.396,216.422 186.396,222.5 68.435,222.5 68.435,216.422 "/>
<polygon fill="#6EC1E4" points="68.435,206.196 186.995,206.196 186.995,212.275 68.435,212.275 68.435,206.196 "/>
<polygon fill="#6EC1E4" points="68.435,195.971 187.715,195.971 187.715,202.05 68.435,202.05 68.435,195.971 "/>
<polygon fill="#6EC1E4" points="68.435,185.746 187.715,185.746 187.715,191.824 68.435,191.824 68.435,185.746 "/>
<polygon fill="#6EC1E4" points="68.435,175.448 187.715,175.448 187.715,181.599 68.435,181.599 68.435,175.448 "/>
<polygon fill="#6EC1E4" points="68.435,165.223 191.795,165.223 191.795,171.373 68.435,171.373 68.435,165.223 "/>
<polygon fill="#6EC1E4" points="68.435,154.998 194.555,154.998 194.555,161.076 68.435,161.076 68.435,154.998 "/>
<polygon fill="#6EC1E4" points="68.435,144.772 195.155,144.772 195.155,150.851 68.435,150.851 68.435,144.772 "/>
<polygon fill="#6EC1E4" points="68.435,134.547 198.635,134.547 198.635,140.625 68.435,140.625 68.435,134.547 "/>
<polygon fill="#6EC1E4" points="68.435,124.321 215.675,124.321 215.675,130.399 68.435,130.399 68.435,124.321 "/>
<polygon fill="#6EC1E4" points="68.435,114.024 224.555,114.024 224.555,120.174 68.435,120.174 68.435,114.024 "/>
<polygon fill="#6EC1E4" points="68.435,103.799 234.755,103.799 234.755,109.877 68.435,109.877 68.435,103.799 "/>
<polygon fill="#6EC1E4" points="68.435,93.573 234.755,93.573 234.755,99.652 68.435,99.652 68.435,93.573 "/>
<polygon fill="#6EC1E4" points="68.435,83.348 235.475,83.348 235.475,89.426 68.435,89.426 68.435,83.348 "/>
<polygon fill="#6EC1E4" points="68.435,73.123 244.955,73.123 244.955,79.201 68.435,79.201 68.435,73.123 "/>
<polygon fill="#6EC1E4" points="68.435,62.826 244.955,62.826 244.955,68.975 68.435,68.975 68.435,62.826 "/>
<polygon fill="#6EC1E4" points="68.435,52.6 245.675,52.6 245.675,58.678 68.435,58.678 68.435,52.6 "/>
<polygon fill="#6EC1E4" points="68.435,42.375 246.995,42.375 246.995,48.453 68.435,48.453 68.435,42.375 "/>
<polygon fill="#6EC1E4" points="68.435,32.149 268.115,32.149 268.115,38.227 68.435,38.227 68.435,32.149 "/>
<polygon fill="#6EC1E4" points="68.435,21.924 273.635,21.924 273.635,28.002 68.435,28.002 68.435,21.924 "/>
<polygon fill="#6EC1E4" points="68.435,11.626 308.315,11.626 308.315,17.776 68.435,17.776 68.435,11.626 "/>
<polygon fill="#F79420" points="68.435,1.401 309.035,1.401 309.035,7.551 68.435,7.551 68.435,1.401 "/>
<g>
	<text transform="matrix(1 0 0 1 113.2002 345.1602)" fill="#808285" class="heavy" font-size="8">5.7%</text>
</g>
<g>
	<text transform="matrix(1 0 0 1 126.833 334.918)" fill="#808285" class="heavy" font-size="8">7.7%</text>
</g>
<g>
	<text transform="matrix(1 0 0 1 141.1533 324.6807)" fill="#808285" class="heavy" font-size="8">9.8%</text>
</g>
<g>
	<text transform="matrix(1 0 0 1 143.2002 314.4395)" fill="#808285" class="heavy" font-size="8">10.1%</text>
</g>
<g>
	<text transform="matrix(1 0 0 1 160.9189 304.2012)" fill="#808285" class="heavy" font-size="8">12.7%</text>
</g>
<g>
	<text transform="matrix(1 0 0 1 171.1377 293.96)" fill="#808285" class="heavy" font-size="8">14.2%</text>
</g>
<g>
	<text transform="matrix(1 0 0 1 173.8721 282.7266)" fill="#808285" class="heavy" font-size="8">14.6%</text>
</g>
<g>
	<text transform="matrix(1 0 0 1 176.6611 273.4854)" fill="#808285" class="heavy" font-size="8">15.0%</text>
</g>
<g>
	<text transform="matrix(1 0 0 1 181.3643 263.248)" fill="#808285" class="heavy" font-size="8">15.7%</text>
</g>
<g>
	<text transform="matrix(1 0 0 1 184.0986 253.0059)" fill="#808285" class="heavy" font-size="8">16.1%</text>
</g>
<g>
	<text transform="matrix(1 0 0 1 184.0986 242.7646)" fill="#808285" class="heavy" font-size="8">16.1%</text>
</g>
<g>
	<text transform="matrix(1 0 0 1 190.9111 232.5273)" fill="#808285" class="heavy" font-size="8">17.1%</text>
</g>
<g>
	<text transform="matrix(1 0 0 1 192.2705 222.29)" fill="#808285" class="heavy" font-size="8">17.3%</text>
</g>
<g>
	<text transform="matrix(1 0 0 1 192.958 212.0488)" fill="#808285" class="heavy" font-size="8">17.4%</text>
</g>
<g>
	<text transform="matrix(1 0 0 1 193.6377 201.8066)" fill="#808285" class="heavy" font-size="8">17.5%</text>
</g>
<g>
	<text transform="matrix(1 0 0 1 193.6377 191.5742)" fill="#808285" class="heavy" font-size="8">17.5%</text>
</g>
<g>
	<text transform="matrix(1 0 0 1 193.6377 181.3369)" fill="#808285" class="heavy" font-size="8">17.5%</text>
</g>
<g>
	<text transform="matrix(1 0 0 1 197.7314 171.0947)" fill="#808285" class="heavy" font-size="8">18.1%</text>
</g>
<g>
	<text transform="matrix(1 0 0 1 200.4502 160.853)" fill="#808285" class="heavy" font-size="8">18.5%</text>
</g>
<g>
	<text transform="matrix(1 0 0 1 201.1377 150.6157)" fill="#808285" class="heavy" font-size="8">18.6%</text>
</g>
<g>
	<text transform="matrix(1 0 0 1 204.5439 140.3789)" fill="#808285" class="heavy" font-size="8">19.1%</text>
</g>
<g>
	<text transform="matrix(1 0 0 1 221.583 130.1367)" fill="#808285" class="heavy" font-size="8">21.6%</text>
</g>
<g>
	<text transform="matrix(1 0 0 1 230.4424 119.9043)" fill="#808285" class="heavy" font-size="8">22.9%</text>
</g>
<g>
	<text transform="matrix(1 0 0 1 240.6689 109.6626)" fill="#808285" class="heavy" font-size="8">24.4%</text>
</g>
<g>
	<text transform="matrix(1 0 0 1 240.6689 99.4253)" fill="#808285" class="heavy" font-size="8">24.4%</text>
</g>
<g>
	<text transform="matrix(1 0 0 1 241.3486 89.1836)" fill="#808285" class="heavy" font-size="8">24.5%</text>
</g>
<g>
	<text transform="matrix(1 0 0 1 250.8955 78.9463)" fill="#808285" class="heavy" font-size="8">25.9%</text>
</g>
<g>
	<text transform="matrix(1 0 0 1 250.8955 68.7046)" fill="#808285" class="heavy" font-size="8">25.9%</text>
</g>
<g>
	<text transform="matrix(1 0 0 1 251.6377 58.4673)" fill="#808285" class="heavy" font-size="8">26.0%</text>
</g>
<g>
	<text transform="matrix(1 0 0 1 252.9346 48.2256)" fill="#808285" class="heavy" font-size="8">26.2%</text>
</g>
<g>
	<text transform="matrix(1 0 0 1 274.0674 37.9834)" fill="#808285" class="heavy" font-size="8">29.3%</text>
</g>
<g>
	<text transform="matrix(1 0 0 1 279.5283 27.751)" fill="#808285" class="heavy" font-size="8">30.1%</text>
</g>
<g>
	<text transform="matrix(1 0 0 1 314.2861 17.5137)" fill="#808285" class="heavy" font-size="8">35.2%</text>
</g>
<g>
	<text transform="matrix(1 0 0 1 314.9658 7.272)" fill="#808285" class="heavy" font-size="8">35.3%</text>
</g>
<g>
	<text transform="matrix(1 0 0 1 33.2627 343.8574)"><tspan x="0" y="0" fill="#808285" class="heavy" font-size="8">Turkey</tspan></text>
</g>
<g>
	<text transform="matrix(1 0 0 1 40.5825 333.6201)"><tspan x="0" y="0" fill="#808285" class="heavy" font-size="8">Chile</tspan></text>
</g>
<g>
	<text transform="matrix(1 0 0 1 27.8989 323.3779)"><tspan x="0" y="0" fill="#808285" class="heavy" font-size="8">Slovenia</tspan></text>
</g>
<g>
	<text transform="matrix(1 0 0 1 33.4468 313.1406)"><tspan x="0" y="0" fill="#808285" class="heavy" font-size="8">Ireland</tspan></text>
</g>
<g>
	<text transform="matrix(1 0 0 1 20.4189 302.8984)"><tspan x="0" y="0" fill="#808285" class="heavy" font-size="8">Czech Rep</tspan></text>
</g>
<g>
	<text transform="matrix(1 0 0 1 32.5586 292.666)"><tspan x="0" y="0" fill="#808285" class="heavy" font-size="8">Iceland</tspan></text>
</g>
<g>
	<text transform="matrix(1 0 0 1 33.7388 282.4248)"><tspan x="0" y="0" fill="#808285" class="heavy" font-size="8">Poland</tspan></text>
</g>
<g>
	<text transform="matrix(1 0 0 1 39.1787 272.1875)"><tspan x="0" y="0" fill="#808285" class="heavy" font-size="8">Israel</tspan></text>
</g>
<g>
	<text transform="matrix(1 0 0 1 0 261.9453)"><tspan x="0" y="0" fill="#808285" class="heavy" font-size="8">Slovak Republic</tspan></text>
</g>
<g>
	<text transform="matrix(1 0 0 1 27.5386 251.709)"><tspan x="0" y="0" fill="#808285" class="heavy" font-size="8">Hungary</tspan></text>
</g>
<g>
	<text transform="matrix(1 0 0 1 30.0669 241.4707)"><tspan x="0" y="0" fill="#808285" class="heavy" font-size="8">Sweden</tspan></text>
</g>
<g>
	<text transform="matrix(1 0 0 1 31.9468 231.2295)"><tspan x="0" y="0" fill="#808285" class="heavy" font-size="8">Estonia</tspan></text>
</g>
<g>
	<text transform="matrix(1 0 0 1 12.835 220.9883)"><tspan x="0" y="0" fill="#808285" class="heavy" font-size="8">Luxembourg</tspan></text>
</g>
<g>
	<text transform="matrix(1 0 0 1 31.8706 210.7549)"><tspan x="0" y="0" fill="#808285" class="heavy" font-size="8">Mexico</tspan></text>
</g>
<g>
	<text transform="matrix(1 0 0 1 32.0068 200.5176)"><tspan x="0" y="0" fill="#808285" class="heavy" font-size="8">Finland</tspan></text>
</g>
<g>
	<text transform="matrix(1 0 0 1 15.395 190.2754)"><tspan x="0" y="0" fill="#808285" class="heavy" font-size="8">Switzerland</tspan></text>
</g>
<g>
	<text transform="matrix(1 0 0 1 13.459 180.0342)"><tspan x="0" y="0" fill="#808285" class="heavy" font-size="8">Netherlands</tspan></text>
</g>
<g>
	<text transform="matrix(1 0 0 1 33.0508 169.7969)"><tspan x="0" y="0" fill="#808285" class="heavy" font-size="8">Greece</tspan></text>
</g>
<g>
	<text transform="matrix(1 0 0 1 29.1909 159.5596)"><tspan x="0" y="0" fill="#808285" class="heavy" font-size="8">Belgium</tspan></text>
</g>
<g>
	<text transform="matrix(1 0 0 1 31.9346 149.3179)"><tspan x="0" y="0" fill="#808285" class="heavy" font-size="8">Canada</tspan></text>
</g>
<g>
	<text transform="matrix(1 0 0 1 25.2632 139.0762)"><tspan x="0" y="0" fill="#808285" class="heavy" font-size="8">Denmark</tspan></text>
</g>
<g>
	<text transform="matrix(1 0 0 1 10.3149 128.8438)"><tspan x="0" y="0" fill="#808285" class="heavy" font-size="8">New Zealand</tspan></text>
</g>
<g>
	<text transform="matrix(1 0 0 1 27.6548 118.6016)"><tspan x="0" y="0" fill="#808285" class="heavy" font-size="8">Portugal</tspan></text>
</g>
<g>
	<text transform="matrix(1 0 0 1 25.6787 108.3647)"><tspan x="0" y="0" fill="#808285" class="heavy" font-size="8">Germany</tspan></text>
</g>
<g>
	<text transform="matrix(1 0 0 1 29.9307 98.1226)"><tspan x="0" y="0" fill="#808285" class="heavy" font-size="8">Norway</tspan></text>
</g>
<g>
	<text transform="matrix(1 0 0 1 43.0029 87.8853)"><tspan x="0" y="0" fill="#808285" class="heavy" font-size="8">Italy</tspan></text>
</g>
<g>
	<text transform="matrix(1 0 0 1 25.9551 77.6436)"><tspan x="0" y="0" fill="#808285" class="heavy" font-size="8">Australia</tspan></text>
</g>
<g>
	<text transform="matrix(1 0 0 1 47.8984 67.4062)"><tspan x="0" y="0" fill="#808285" class="heavy" font-size="8">UK</tspan></text>
</g>
<g>
	<text transform="matrix(1 0 0 1 39.1348 57.1646)"><tspan x="0" y="0" fill="#808285" class="heavy" font-size="8">Spain</tspan></text>
</g>
<g>
	<text transform="matrix(1 0 0 1 32.4668 46.9365)"><tspan x="0" y="0" fill="#808285" class="heavy" font-size="8">Austria</tspan></text>
</g>
<g>
	<text transform="matrix(1 0 0 1 38.0947 36.6948)"><tspan x="0" y="0" fill="#808285" class="heavy" font-size="8">Japan</tspan></text>
</g>
<g>
	<text transform="matrix(1 0 0 1 37.2344 26.4531)"><tspan x="0" y="0" fill="#808285" class="heavy" font-size="8">Korea</tspan></text>
</g>
<g>
	<text transform="matrix(1 0 0 1 34.2549 16.2114)"><tspan x="0" y="0" fill="#808285" class="heavy" font-size="8">France</tspan></text>
</g>
<g>
	<text transform="matrix(1 0 0 1 8.4312 5.9785)"><tspan x="0" y="0" fill="#808285" class="heavy" font-size="8">United States</tspan></text>
</g>
</svg>
