<svg xmlns="http://www.w3.org/2000/svg" width="338.109" height="345.448" viewBox="0 0 338.109 345.448"><style>text, tspan { font-family: &apos;Lato&apos;; } .heavy { font-weight: 700; }</style><path fill="#6EC1E4" d="M68.435 339.27h38.88v6.15h-38.88v-6.15zM68.435 329.045h52.44v6.15h-52.44v-6.15zM68.435 318.82h66.84v6.078h-66.84v-6.08zM68.435 308.594h68.88v6.078h-68.88v-6.078zM68.435 298.37h86.52v6.077h-86.52v-6.078zM68.435 288.144h96.72v6.078h-96.72v-6.078zM68.435 277.846h99.48v6.15h-99.48v-6.15zM68.435 267.62h102.24v6.08H68.435v-6.08zM68.435 257.396h107.04v6.078H68.435v-6.078zM68.435 247.17h109.68v6.078H68.435v-6.078zM68.435 236.944h109.68v6.078H68.435v-6.078zM68.435 226.647h116.52v6.15H68.435v-6.15zM68.435 216.422h117.96v6.078H68.436v-6.078zM68.435 206.196h118.56v6.08H68.435v-6.08zM68.435 195.97h119.28v6.08H68.435v-6.08zM68.435 185.746h119.28v6.078H68.435v-6.078zM68.435 175.448h119.28v6.15H68.435v-6.15zM68.435 165.223h123.36v6.15H68.435v-6.15zM68.435 154.998h126.12v6.078H68.435v-6.078zM68.435 144.772h126.72v6.08H68.435v-6.08zM68.435 134.547h130.2v6.078h-130.2v-6.078zM68.435 124.32h147.24v6.08H68.435v-6.08zM68.435 114.024h156.12v6.15H68.435v-6.15zM68.435 103.8h166.32v6.077H68.435V103.8zM68.435 93.573h166.32v6.08H68.435v-6.08zM68.435 83.348h167.04v6.078H68.435v-6.078zM68.435 73.123h176.52V79.2H68.435v-6.077zM68.435 62.826h176.52v6.15H68.435v-6.15zM68.435 52.6h177.24v6.078H68.435V52.6zM68.435 42.375h178.56v6.078H68.435v-6.078zM68.435 32.15h199.68v6.077H68.435V32.15zM68.435 21.924h205.2v6.078h-205.2v-6.078zM68.435 11.626h239.88v6.15H68.435v-6.15z"/><path fill="#F79420" d="M68.435 1.4h240.6v6.15h-240.6V1.4z"/><text transform="translate(113.2 345.16)" fill="#808285" class="heavy" font-size="8">5.7%</text><text transform="translate(126.833 334.918)" fill="#808285" class="heavy" font-size="8">7.7%</text><text transform="translate(141.153 324.681)" fill="#808285" class="heavy" font-size="8">9.8%</text><text transform="translate(143.2 314.44)" fill="#808285" class="heavy" font-size="8">10.1%</text><text transform="translate(160.919 304.201)" fill="#808285" class="heavy" font-size="8">12.7%</text><text transform="translate(171.138 293.96)" fill="#808285" class="heavy" font-size="8">14.2%</text><text transform="translate(173.872 282.727)" fill="#808285" class="heavy" font-size="8">14.6%</text><text transform="translate(176.661 273.485)" fill="#808285" class="heavy" font-size="8">15.0%</text><text transform="translate(181.364 263.248)" fill="#808285" class="heavy" font-size="8">15.7%</text><text transform="translate(184.099 253.006)" fill="#808285" class="heavy" font-size="8">16.1%</text><text transform="translate(184.099 242.765)" fill="#808285" class="heavy" font-size="8">16.1%</text><text transform="translate(190.911 232.527)" fill="#808285" class="heavy" font-size="8">17.1%</text><text transform="translate(192.27 222.29)" fill="#808285" class="heavy" font-size="8">17.3%</text><text transform="translate(192.958 212.049)" fill="#808285" class="heavy" font-size="8">17.4%</text><text transform="translate(193.638 201.807)" fill="#808285" class="heavy" font-size="8">17.5%</text><text transform="translate(193.638 191.574)" fill="#808285" class="heavy" font-size="8">17.5%</text><text transform="translate(193.638 181.337)" fill="#808285" class="heavy" font-size="8">17.5%</text><text transform="translate(197.731 171.095)" fill="#808285" class="heavy" font-size="8">18.1%</text><text transform="translate(200.45 160.853)" fill="#808285" class="heavy" font-size="8">18.5%</text><text transform="translate(201.138 150.616)" fill="#808285" class="heavy" font-size="8">18.6%</text><text transform="translate(204.544 140.379)" fill="#808285" class="heavy" font-size="8">19.1%</text><text transform="translate(221.583 130.137)" fill="#808285" class="heavy" font-size="8">21.6%</text><text transform="translate(230.442 119.904)" fill="#808285" class="heavy" font-size="8">22.9%</text><text transform="translate(240.669 109.663)" fill="#808285" class="heavy" font-size="8">24.4%</text><text transform="translate(240.669 99.425)" fill="#808285" class="heavy" font-size="8">24.4%</text><text transform="translate(241.349 89.184)" fill="#808285" class="heavy" font-size="8">24.5%</text><text transform="translate(250.895 78.946)" fill="#808285" class="heavy" font-size="8">25.9%</text><text transform="translate(250.895 68.705)" fill="#808285" class="heavy" font-size="8">25.9%</text><text transform="translate(251.638 58.467)" fill="#808285" class="heavy" font-size="8">26.0%</text><text transform="translate(252.935 48.226)" fill="#808285" class="heavy" font-size="8">26.2%</text><text transform="translate(274.067 37.983)" fill="#808285" class="heavy" font-size="8">29.3%</text><text transform="translate(279.528 27.751)" fill="#808285" class="heavy" font-size="8">30.1%</text><text transform="translate(314.286 17.514)" fill="#808285" class="heavy" font-size="8">35.2%</text><text transform="translate(314.966 7.272)" fill="#808285" class="heavy" font-size="8">35.3%</text><text transform="translate(33.263 343.857)"><tspan x="0" y="0" fill="#808285" class="heavy" font-size="8">Turkey</tspan></text><text transform="translate(40.583 333.62)"><tspan x="0" y="0" fill="#808285" class="heavy" font-size="8">Chile</tspan></text><text transform="translate(27.899 323.378)"><tspan x="0" y="0" fill="#808285" class="heavy" font-size="8">Slovenia</tspan></text><text transform="translate(33.447 313.141)"><tspan x="0" y="0" fill="#808285" class="heavy" font-size="8">Ireland</tspan></text><text transform="translate(20.419 302.898)"><tspan x="0" y="0" fill="#808285" class="heavy" font-size="8">Czech Rep</tspan></text><text transform="translate(32.559 292.666)"><tspan x="0" y="0" fill="#808285" class="heavy" font-size="8">Iceland</tspan></text><text transform="translate(33.739 282.425)"><tspan x="0" y="0" fill="#808285" class="heavy" font-size="8">Poland</tspan></text><text transform="translate(39.179 272.188)"><tspan x="0" y="0" fill="#808285" class="heavy" font-size="8">Israel</tspan></text><text transform="translate(0 261.945)"><tspan x="0" y="0" fill="#808285" class="heavy" font-size="8">Slovak Republic</tspan></text><text transform="translate(27.539 251.709)"><tspan x="0" y="0" fill="#808285" class="heavy" font-size="8">Hungary</tspan></text><text transform="translate(30.067 241.471)"><tspan x="0" y="0" fill="#808285" class="heavy" font-size="8">Sweden</tspan></text><text transform="translate(31.947 231.23)"><tspan x="0" y="0" fill="#808285" class="heavy" font-size="8">Estonia</tspan></text><text transform="translate(12.835 220.988)"><tspan x="0" y="0" fill="#808285" class="heavy" font-size="8">Luxembourg</tspan></text><text transform="translate(31.871 210.755)"><tspan x="0" y="0" fill="#808285" class="heavy" font-size="8">Mexico</tspan></text><text transform="translate(32.007 200.518)"><tspan x="0" y="0" fill="#808285" class="heavy" font-size="8">Finland</tspan></text><text transform="translate(15.395 190.275)"><tspan x="0" y="0" fill="#808285" class="heavy" font-size="8">Switzerland</tspan></text><text transform="translate(13.459 180.034)"><tspan x="0" y="0" fill="#808285" class="heavy" font-size="8">Netherlands</tspan></text><text transform="translate(33.051 169.797)"><tspan x="0" y="0" fill="#808285" class="heavy" font-size="8">Greece</tspan></text><text transform="translate(29.191 159.56)"><tspan x="0" y="0" fill="#808285" class="heavy" font-size="8">Belgium</tspan></text><text transform="translate(31.935 149.318)"><tspan x="0" y="0" fill="#808285" class="heavy" font-size="8">Canada</tspan></text><text transform="translate(25.263 139.076)"><tspan x="0" y="0" fill="#808285" class="heavy" font-size="8">Denmark</tspan></text><text transform="translate(10.315 128.844)"><tspan x="0" y="0" fill="#808285" class="heavy" font-size="8">New Zealand</tspan></text><text transform="translate(27.655 118.602)"><tspan x="0" y="0" fill="#808285" class="heavy" font-size="8">Portugal</tspan></text><text transform="translate(25.679 108.365)"><tspan x="0" y="0" fill="#808285" class="heavy" font-size="8">Germany</tspan></text><text transform="translate(29.931 98.123)"><tspan x="0" y="0" fill="#808285" class="heavy" font-size="8">Norway</tspan></text><text transform="translate(43.003 87.885)"><tspan x="0" y="0" fill="#808285" class="heavy" font-size="8">Italy</tspan></text><text transform="translate(25.955 77.644)"><tspan x="0" y="0" fill="#808285" class="heavy" font-size="8">Australia</tspan></text><text transform="translate(47.898 67.406)"><tspan x="0" y="0" fill="#808285" class="heavy" font-size="8">UK</tspan></text><text transform="translate(39.135 57.165)"><tspan x="0" y="0" fill="#808285" class="heavy" font-size="8">Spain</tspan></text><text transform="translate(32.467 46.937)"><tspan x="0" y="0" fill="#808285" class="heavy" font-size="8">Austria</tspan></text><text transform="translate(38.095 36.695)"><tspan x="0" y="0" fill="#808285" class="heavy" font-size="8">Japan</tspan></text><text transform="translate(37.234 26.453)"><tspan x="0" y="0" fill="#808285" class="heavy" font-size="8">Korea</tspan></text><text transform="translate(34.255 16.211)"><tspan x="0" y="0" fill="#808285" class="heavy" font-size="8">France</tspan></text><text transform="translate(8.431 5.979)"><tspan x="0" y="0" fill="#808285" class="heavy" font-size="8">United States</tspan></text></svg>