<svg xmlns="http://www.w3.org/2000/svg" width="375" height="367" viewBox="0 0 375 367"><g fill="#903F98"><path d="M241.663 319.08v1.325h-2.616v7.35h-1.614v-7.35h-2.616v-1.326h6.846zM245.293 321.503c.456 0 .87.074 1.245.222.374.148.693.358.96.63.266.272.47.604.615.996.144.394.216.83.216 1.315 0 .488-.073.928-.217 1.32-.145.392-.35.726-.615 1.002-.267.275-.586.487-.96.636-.374.147-.79.222-1.245.222-.46 0-.878-.074-1.254-.222-.377-.148-.698-.36-.964-.636-.267-.276-.473-.61-.618-1.002-.146-.393-.22-.832-.22-1.32 0-.484.073-.922.22-1.314.146-.39.352-.723.618-.995.266-.27.587-.48.963-.63.375-.148.793-.222 1.253-.222zm0 5.202c.512 0 .89-.172 1.137-.517.246-.344.37-.848.37-1.512s-.124-1.17-.37-1.518c-.246-.35-.625-.522-1.137-.522-.52 0-.905.175-1.155.525-.25.35-.375.855-.375 1.516s.125 1.163.375 1.51c.25.346.634.52 1.155.52zM251.515 327.85c-.536 0-.947-.15-1.233-.452-.286-.302-.43-.72-.43-1.25v-3.44h-.63c-.08 0-.147-.025-.203-.077s-.085-.13-.085-.233v-.588l.99-.163.312-1.68c.02-.08.058-.142.114-.186.057-.043.13-.065.217-.065h.768v1.938h1.645v1.056h-1.645v3.335c0 .192.048.342.142.45.094.107.223.162.387.162.092 0 .17-.012.23-.033.063-.022.116-.045.163-.07.046-.022.087-.046.123-.067.035-.022.07-.033.107-.033.044 0 .08.01.108.033.027.02.058.055.09.1l.444.72c-.218.18-.466.315-.745.407-.28.09-.57.137-.87.137zM257.952 327.755c-.14 0-.248-.02-.324-.063-.075-.042-.136-.126-.18-.255l-.132-.438c-.156.14-.31.262-.456.368-.148.105-.302.194-.462.267s-.33.126-.513.162c-.183.036-.384.054-.604.054-.26 0-.5-.034-.72-.103-.22-.07-.41-.175-.57-.315-.16-.14-.283-.313-.37-.52s-.133-.45-.133-.728c0-.23.06-.46.183-.687.122-.227.325-.43.61-.612.283-.182.66-.333 1.133-.453s1.06-.188 1.765-.204v-.36c0-.41-.09-.717-.265-.914-.176-.198-.43-.297-.762-.297-.24 0-.438.027-.596.084-.158.057-.297.12-.417.19l-.327.188c-.1.056-.207.084-.327.084-.104 0-.192-.027-.264-.08-.073-.056-.132-.118-.176-.19l-.264-.474c.708-.648 1.56-.972 2.556-.972.36 0 .683.06.967.177.283.118.523.282.72.492s.345.46.447.753c.102.292.152.61.152.96v3.888h-.67zm-2.214-.924c.304 0 .567-.054.79-.164s.437-.277.65-.5v-1.04c-.433.02-.793.058-1.083.112-.29.054-.523.123-.7.207s-.3.182-.377.294c-.076.11-.114.232-.114.364 0 .26.077.446.23.56.155.11.356.167.604.167zM261.517 318.84v8.915h-1.482v-8.916h1.482zM270.768 320.657c-.048.084-.1.145-.153.183-.054.038-.12.057-.2.057-.084 0-.176-.03-.273-.093-.098-.062-.215-.13-.35-.207-.138-.076-.297-.145-.48-.207-.18-.062-.395-.093-.644-.093-.225 0-.42.027-.588.08s-.31.13-.424.226c-.113.097-.198.21-.255.346-.055.133-.083.28-.083.44 0 .203.058.373.17.51.115.136.267.252.454.348.19.096.403.182.644.258.24.076.485.157.737.243s.5.185.74.3.453.257.64.43c.19.176.34.39.454.64.114.253.17.56.17.92 0 .39-.065.758-.2 1.1-.134.342-.33.64-.587.895-.26.254-.573.454-.945.6-.372.146-.798.22-1.278.22-.275 0-.548-.027-.815-.082-.27-.054-.526-.13-.772-.23s-.477-.22-.693-.36c-.216-.14-.407-.296-.575-.468l.474-.774c.04-.055.092-.102.156-.14.063-.038.132-.057.204-.057.1 0 .208.04.323.123.116.082.254.173.414.272.16.1.35.19.563.273s.47.124.77.124c.46 0 .817-.11 1.07-.327s.377-.53.377-.94c0-.227-.057-.413-.17-.557-.115-.145-.266-.265-.454-.363-.188-.098-.402-.18-.642-.25-.24-.066-.484-.14-.732-.22s-.492-.177-.73-.29c-.24-.11-.455-.257-.644-.437-.188-.18-.34-.404-.453-.675-.114-.27-.17-.603-.17-1 0-.314.062-.623.188-.923s.31-.565.55-.798.535-.418.887-.558c.353-.14.756-.21 1.212-.21.512 0 .984.08 1.416.24.433.16.8.383 1.104.67l-.404.76zM276.52 327.755c-.14 0-.247-.02-.323-.063-.075-.042-.136-.126-.18-.255l-.132-.438c-.156.14-.31.262-.456.368-.15.105-.303.194-.463.267s-.33.126-.513.162c-.183.036-.384.054-.604.054-.26 0-.5-.034-.72-.103-.22-.07-.41-.175-.57-.315-.16-.14-.284-.313-.372-.52s-.132-.45-.132-.728c0-.23.06-.46.183-.687.12-.227.324-.43.608-.612s.662-.333 1.134-.453c.473-.12 1.06-.188 1.765-.204v-.36c0-.41-.09-.717-.265-.914-.176-.198-.43-.297-.762-.297-.24 0-.44.027-.597.084-.158.057-.297.12-.417.19l-.327.188c-.1.056-.208.084-.328.084-.104 0-.192-.027-.264-.08-.072-.056-.13-.118-.175-.19l-.264-.474c.707-.648 1.56-.972 2.555-.972.36 0 .683.06.967.177.283.118.523.282.72.492s.345.46.447.753c.1.292.15.61.15.96v3.888h-.67zm-2.212-.924c.304 0 .567-.054.79-.164s.437-.277.65-.5v-1.04c-.433.02-.793.058-1.083.112-.29.054-.523.123-.7.207s-.3.182-.377.294c-.076.11-.114.232-.114.364 0 .26.077.446.23.56.154.11.356.167.604.167zM280.086 318.84v8.915h-1.482v-8.916h1.482zM284.188 321.503c.39 0 .746.063 1.074.186.328.123.61.305.847.542.234.238.42.53.554.876.134.347.2.74.2 1.186 0 .224-.023.375-.07.453s-.14.117-.277.117h-3.81c.024.315.08.59.168.818.088.23.204.42.348.57.145.15.315.262.514.336.197.074.417.11.656.11.24 0 .447-.027.62-.083.175-.057.327-.118.457-.187.13-.067.244-.13.342-.186.1-.057.193-.084.285-.084.124 0 .216.046.276.138l.426.54c-.165.192-.35.354-.553.483s-.417.232-.64.31c-.222.08-.447.134-.678.166-.23.032-.454.048-.67.048-.428 0-.826-.07-1.193-.213-.368-.14-.688-.35-.96-.63-.272-.277-.486-.62-.643-1.03s-.233-.886-.233-1.426c0-.42.068-.815.204-1.185.137-.37.33-.693.585-.968.254-.273.563-.49.93-.65s.78-.24 1.238-.24zm.03 1.06c-.43 0-.77.123-1.013.367s-.4.59-.468 1.038h2.796c0-.19-.027-.373-.08-.543s-.136-.318-.244-.447c-.11-.128-.246-.23-.412-.303s-.36-.11-.58-.11zM291.73 322.8c-.04.063-.08.108-.125.134-.044.026-.1.04-.168.04-.072 0-.15-.02-.23-.06s-.178-.086-.286-.136c-.106-.05-.23-.096-.368-.136-.138-.04-.3-.06-.488-.06-.292 0-.52.062-.688.186s-.25.286-.25.486c0 .132.044.243.13.333s.2.17.343.237c.14.067.302.13.48.183s.364.113.55.177c.187.064.37.138.55.22.18.082.34.186.482.312s.256.277.342.453.13.387.13.635c0 .296-.054.57-.16.82-.105.25-.263.465-.47.646-.21.184-.466.325-.772.428-.307.102-.66.152-1.06.152-.212 0-.42-.02-.62-.057-.202-.038-.397-.09-.583-.16-.187-.066-.358-.146-.517-.24-.158-.09-.297-.19-.417-.3l.342-.562c.044-.067.097-.12.156-.155s.136-.054.228-.054c.093 0 .18.026.262.078.082.053.177.108.285.168.106.06.233.116.38.17.146.05.33.076.555.076.176 0 .327-.02.453-.063s.23-.098.312-.166.143-.147.18-.237.058-.183.058-.278c0-.146-.043-.264-.13-.355s-.2-.172-.34-.24c-.144-.067-.306-.13-.487-.183s-.367-.113-.557-.177c-.19-.064-.376-.14-.56-.226-.18-.087-.343-.195-.484-.328-.144-.132-.257-.294-.344-.485-.086-.192-.13-.424-.13-.696 0-.25.052-.49.15-.72.1-.228.248-.426.442-.597.193-.17.436-.306.726-.407.29-.103.625-.153 1.005-.153.423 0 .81.07 1.157.21s.638.324.87.552l-.336.534zM302.46 319.08v1.325h-2.616v7.35h-1.614v-7.35h-2.616v-1.326h6.846zM307.392 327.755c-.14 0-.248-.02-.324-.063-.075-.042-.136-.126-.18-.255l-.132-.438c-.156.14-.31.262-.456.368-.148.105-.302.194-.462.267s-.33.126-.513.162c-.183.036-.384.054-.604.054-.26 0-.5-.034-.72-.103-.22-.07-.41-.175-.57-.315-.16-.14-.283-.313-.37-.52s-.133-.45-.133-.728c0-.23.06-.46.183-.687.122-.227.325-.43.61-.612.283-.182.66-.333 1.133-.453s1.06-.188 1.765-.204v-.36c0-.41-.09-.717-.265-.914-.176-.198-.43-.297-.762-.297-.24 0-.438.027-.596.084-.158.057-.297.12-.417.19l-.327.188c-.1.056-.207.084-.327.084-.104 0-.192-.027-.264-.08-.073-.056-.132-.118-.176-.19l-.264-.474c.708-.648 1.56-.972 2.556-.972.36 0 .683.06.967.177.283.118.523.282.72.492s.345.46.447.753c.102.292.152.61.152.96v3.888h-.67zm-2.214-.924c.304 0 .567-.054.79-.164s.437-.277.65-.5v-1.04c-.433.02-.793.058-1.083.112-.29.054-.523.123-.7.207s-.3.182-.377.294c-.076.11-.114.232-.114.364 0 .26.077.446.23.56.155.11.356.167.604.167zM310.865 324.58l-2.02-2.98h1.427c.108 0 .188.015.24.044.052.03.098.08.138.147l1.29 2.06c.02-.068.045-.137.075-.205.03-.067.067-.136.11-.204l1.04-1.618c.087-.148.2-.223.34-.223h1.362l-2.027 2.915 2.11 3.24h-1.427c-.107 0-.194-.028-.26-.084s-.122-.12-.166-.19l-1.308-2.143c-.037.144-.088.264-.15.36l-1.153 1.78c-.044.07-.098.133-.162.19-.063.058-.144.087-.24.087h-1.325l2.105-3.173zM320.483 324.365v3.39h-1.614v-8.676h2.645c.588 0 1.093.06 1.515.182s.768.293 1.038.513c.27.22.47.483.597.79.128.306.192.643.192 1.01 0 .293-.043.568-.13.83-.085.26-.21.494-.37.707-.163.212-.363.397-.602.558-.237.16-.51.288-.813.384.204.116.38.282.528.498l2.172 3.204h-1.458c-.276 0-.477-.108-.6-.324l-1.824-2.777c-.068-.104-.144-.18-.226-.223s-.203-.065-.363-.065h-.687zm0-1.158h1.008c.305 0 .57-.038.796-.114.227-.076.412-.18.56-.314.145-.136.254-.294.325-.48.073-.183.11-.385.11-.604 0-.44-.146-.778-.436-1.015-.29-.234-.733-.353-1.33-.353h-1.03v2.88zM330.377 327.755c-.14 0-.248-.02-.324-.063-.075-.042-.136-.126-.18-.255l-.132-.438c-.155.14-.308.262-.455.368-.148.105-.302.194-.462.267s-.33.126-.513.162c-.183.036-.384.054-.604.054-.26 0-.5-.034-.72-.103-.22-.07-.41-.175-.57-.315-.16-.14-.284-.313-.372-.52s-.132-.45-.132-.728c0-.23.06-.46.183-.687.122-.227.325-.43.61-.612.283-.182.66-.333 1.133-.453s1.06-.188 1.765-.204v-.36c0-.41-.09-.717-.265-.914-.176-.198-.43-.297-.762-.297-.24 0-.44.027-.597.084-.16.057-.298.12-.418.19l-.327.188c-.1.056-.207.084-.327.084-.104 0-.192-.027-.264-.08-.072-.056-.13-.118-.175-.19l-.265-.474c.708-.648 1.56-.972 2.556-.972.36 0 .684.06.968.177.283.118.523.282.72.492s.345.46.447.753c.102.292.152.61.152.96v3.888h-.67zm-2.214-.924c.304 0 .567-.054.79-.164s.437-.277.65-.5v-1.04c-.433.02-.793.058-1.083.112-.29.054-.523.123-.7.207s-.3.182-.377.294c-.076.11-.114.232-.114.364 0 .26.076.446.23.56.154.11.355.167.603.167zM334.493 327.85c-.536 0-.947-.15-1.233-.452-.286-.302-.43-.72-.43-1.25v-3.44h-.63c-.08 0-.147-.025-.203-.077s-.084-.13-.084-.233v-.588l.99-.163.312-1.68c.02-.08.058-.142.114-.186.055-.043.127-.065.215-.065h.768v1.938h1.645v1.056h-1.645v3.335c0 .192.048.342.142.45.094.107.223.162.387.162.092 0 .17-.012.23-.033.063-.022.116-.045.163-.07.046-.022.087-.046.123-.067.035-.022.07-.033.107-.033.044 0 .08.01.108.033.027.02.058.055.09.1l.444.72c-.217.18-.465.315-.744.407-.28.09-.57.137-.87.137zM339.526 321.503c.39 0 .746.063 1.074.186.328.123.61.305.847.542.235.238.42.53.555.876.134.347.2.74.2 1.186 0 .224-.023.375-.07.453s-.14.117-.277.117h-3.81c.024.315.08.59.168.818.088.23.204.42.348.57.146.15.316.262.515.336.197.074.417.11.656.11.24 0 .448-.027.622-.083.174-.057.326-.118.456-.187.13-.067.244-.13.342-.186.1-.057.193-.084.285-.084.124 0 .216.046.276.138l.427.54c-.164.192-.348.354-.552.483s-.417.232-.64.31c-.222.08-.447.134-.678.166-.23.032-.453.048-.67.048-.427 0-.825-.07-1.192-.213-.368-.14-.688-.35-.96-.63-.272-.277-.486-.62-.643-1.03s-.233-.886-.233-1.426c0-.42.066-.815.202-1.185.137-.37.33-.693.585-.968.255-.273.564-.49.93-.65s.78-.24 1.24-.24zm.03 1.06c-.43 0-.77.123-1.013.367s-.4.59-.468 1.038h2.796c0-.19-.026-.373-.08-.543s-.135-.318-.243-.447c-.108-.128-.245-.23-.41-.303s-.36-.11-.58-.11z"/></g><g fill="#E81F64"><path d="M236.625 335.755c.05.006.094.018.133.036.037.02.074.045.11.08.036.033.075.078.12.134l4.55 5.808c-.015-.14-.024-.277-.032-.414-.008-.136-.012-.262-.012-.378v-5.273h1.422v8.676h-.828c-.127 0-.234-.02-.32-.063s-.17-.112-.25-.213l-4.53-5.777c.013.128.022.255.028.38s.008.242.008.346v5.328h-1.422v-8.676h.846c.068-.002.126 0 .177.007zM248.64 344.422c-.14 0-.247-.02-.323-.063s-.137-.127-.18-.256l-.133-.438c-.156.14-.31.263-.455.37-.15.104-.304.193-.464.266s-.33.126-.512.162c-.184.036-.385.054-.604.054-.26 0-.5-.035-.72-.104-.22-.07-.41-.175-.57-.315-.16-.14-.284-.314-.372-.522s-.133-.45-.133-.727c0-.23.06-.46.184-.686.12-.227.323-.43.608-.612.283-.182.662-.333 1.133-.453.474-.12 1.062-.19 1.767-.205v-.36c0-.41-.09-.717-.266-.914-.175-.197-.43-.296-.76-.296-.24 0-.44.027-.597.084-.158.056-.297.12-.418.188l-.326.19c-.1.055-.208.083-.33.083-.103 0-.19-.028-.263-.082-.072-.055-.13-.117-.174-.19l-.264-.473c.706-.648 1.56-.972 2.554-.972.36 0 .684.06.967.177s.524.282.722.492c.195.21.344.46.447.753.1.292.15.61.15.96v3.888h-.67zm-2.214-.924c.305 0 .568-.055.79-.165.222-.11.438-.277.65-.5v-1.04c-.433.02-.792.058-1.083.112-.29.054-.523.123-.7.207s-.3.182-.376.294c-.076.11-.115.233-.115.365 0 .262.078.447.232.56.153.112.354.168.602.168zM252.756 344.518c-.535 0-.947-.15-1.232-.453-.287-.302-.43-.72-.43-1.25v-3.44h-.63c-.08 0-.147-.025-.204-.077-.055-.052-.084-.13-.084-.234v-.588l.99-.162.313-1.68c.02-.08.056-.142.112-.186s.13-.066.217-.066h.767v1.938h4.338v6.102h-1.482v-5.046h-2.855v3.336c0 .192.047.342.14.45.095.107.224.162.388.162.092 0 .17-.012.232-.033.06-.02.115-.044.162-.068.045-.023.086-.047.123-.068.035-.022.07-.033.107-.033.043 0 .08.012.107.034.027.02.06.055.09.1l.445.72c-.217.18-.465.315-.744.407-.282.092-.57.138-.872.138zm4.416-8.07c0 .128-.025.25-.078.362-.05.114-.12.213-.207.297s-.188.15-.305.2c-.12.052-.244.076-.375.076-.13 0-.248-.024-.36-.075-.112-.05-.21-.117-.294-.2s-.152-.184-.2-.298c-.052-.113-.077-.234-.077-.362 0-.133.025-.255.076-.37.05-.113.117-.213.2-.3s.183-.153.294-.203c.113-.05.232-.075.36-.075.132 0 .257.025.376.075.117.05.22.118.305.204s.156.185.207.3c.052.113.078.235.078.368zM261.15 338.17c.455 0 .87.074 1.244.222.375.148.693.358.96.63s.472.604.616.996c.143.393.215.83.215 1.314 0 .488-.072.928-.215 1.32-.145.392-.35.726-.615 1.002-.268.275-.586.487-.96.636-.374.147-.79.222-1.245.222-.46 0-.88-.074-1.254-.222-.377-.148-.697-.36-.963-.636-.268-.276-.473-.61-.62-1.002-.145-.393-.218-.832-.218-1.32 0-.484.072-.922.22-1.314.145-.392.35-.724.618-.996.266-.27.586-.48.963-.63.375-.148.793-.222 1.254-.222zm0 5.202c.512 0 .89-.172 1.137-.517.246-.344.37-.848.37-1.512s-.124-1.17-.37-1.518c-.246-.35-.625-.522-1.137-.522-.52 0-.906.175-1.156.525-.25.35-.375.854-.375 1.515s.124 1.163.374 1.51c.25.346.635.52 1.156.52zM265.32 344.422v-6.156h.904c.193 0 .318.09.38.27l.1.486c.126-.128.257-.243.394-.348.14-.104.285-.194.44-.27.15-.076.317-.135.493-.175s.368-.06.577-.06c.336 0 .635.056.895.17s.477.274.65.48.307.45.396.737.135.602.135.945v3.918H269.2v-3.918c0-.376-.085-.667-.257-.873s-.434-.31-.785-.31c-.256 0-.496.058-.72.174s-.437.273-.638.474v4.452h-1.48zM276.113 344.422c-.14 0-.248-.02-.324-.063s-.138-.127-.18-.256l-.134-.438c-.156.14-.31.263-.455.37-.147.104-.302.193-.462.266s-.33.126-.512.162c-.184.036-.385.054-.604.054-.26 0-.5-.035-.72-.104-.22-.07-.41-.175-.57-.315-.16-.14-.284-.314-.372-.522s-.133-.45-.133-.727c0-.23.06-.46.184-.686.122-.227.325-.43.61-.612.283-.182.662-.333 1.133-.453.473-.12 1.06-.19 1.766-.205v-.36c0-.41-.09-.717-.267-.914-.176-.197-.43-.296-.762-.296-.24 0-.438.027-.595.084-.158.056-.297.12-.418.188l-.326.19c-.1.055-.206.083-.327.083-.104 0-.19-.028-.264-.082-.073-.055-.132-.117-.175-.19l-.264-.473c.708-.648 1.562-.972 2.556-.972.36 0 .684.06.967.177s.523.282.72.492c.196.21.345.46.448.753.103.292.153.61.153.96v3.888h-.67zm-2.215-.924c.305 0 .568-.055.79-.165.222-.11.438-.277.65-.5v-1.04c-.433.02-.792.058-1.083.112-.29.054-.523.123-.7.207s-.3.182-.376.294c-.077.11-.116.233-.116.365 0 .262.078.447.232.56.153.112.354.168.602.168zM279.678 335.506v8.916h-1.482v-8.916h1.482zM285.922 341.032v3.39h-1.613v-8.676h2.645c.588 0 1.092.06 1.514.183s.767.292 1.038.512c.27.22.47.483.596.79.13.306.193.643.193 1.01 0 .293-.043.568-.13.83-.085.26-.21.494-.372.707-.162.21-.36.396-.6.557s-.51.288-.813.384c.203.117.38.283.527.5l2.17 3.203h-1.456c-.277 0-.477-.108-.602-.324l-1.822-2.778c-.068-.104-.145-.18-.227-.223s-.203-.066-.363-.066h-.688zm0-1.158h1.008c.305 0 .57-.038.795-.114.227-.076.412-.18.56-.314.145-.135.255-.293.325-.478.072-.184.11-.386.11-.605 0-.44-.146-.778-.437-1.015-.29-.235-.732-.354-1.328-.354h-1.033v2.88zM295.816 344.422c-.14 0-.248-.02-.324-.063s-.137-.127-.18-.256l-.133-.438c-.157.14-.31.263-.456.37-.148.104-.303.193-.463.266s-.33.126-.51.162c-.185.036-.386.054-.605.054-.26 0-.5-.035-.72-.104-.22-.07-.41-.175-.57-.315-.16-.14-.284-.314-.372-.522s-.133-.45-.133-.727c0-.23.06-.46.184-.686.12-.227.324-.43.61-.612.282-.182.66-.333 1.132-.453.473-.12 1.06-.19 1.766-.205v-.36c0-.41-.09-.717-.266-.914-.176-.197-.43-.296-.762-.296-.24 0-.44.027-.596.084-.158.056-.297.12-.418.188l-.326.19c-.1.055-.207.083-.328.083-.104 0-.19-.028-.264-.082-.072-.055-.13-.117-.174-.19l-.264-.473c.707-.648 1.56-.972 2.555-.972.36 0 .683.06.966.177s.523.282.72.492c.196.21.345.46.448.753.102.292.152.61.152.96v3.888h-.67zm-2.214-.924c.305 0 .568-.055.79-.165.222-.11.438-.277.65-.5v-1.04c-.433.02-.792.058-1.083.112-.29.054-.524.123-.7.207s-.3.182-.377.294c-.076.11-.115.233-.115.365 0 .262.078.447.232.56.152.112.354.168.602.168zM297.88 344.422v-6.156h.905c.193 0 .318.09.38.27l.1.486c.126-.128.257-.243.394-.348.138-.104.284-.194.438-.27.152-.076.318-.135.494-.175s.367-.06.576-.06c.336 0 .635.056.895.17s.477.274.65.48.307.45.396.737.134.602.134.945v3.918h-1.482v-3.918c0-.376-.086-.667-.258-.873s-.434-.31-.785-.31c-.257 0-.497.058-.722.174s-.436.273-.637.474v4.452h-1.48zM306.13 335.506v5.106h.276c.1 0 .178-.014.236-.04.06-.025.117-.078.178-.158l1.53-1.89c.063-.085.134-.148.212-.192s.18-.066.303-.066h1.355l-1.914 2.286c-.135.18-.283.318-.443.414.084.06.16.13.225.21.066.08.13.166.19.258l2.052 2.988h-1.338c-.117 0-.217-.02-.3-.057s-.155-.107-.21-.207l-1.572-2.334c-.057-.093-.115-.152-.174-.18-.06-.028-.15-.043-.27-.043h-.337v2.82h-1.48v-8.915h1.48z"/></g><g fill="#E6E7E8" stroke="#FFF" stroke-width=".75"><path d="M287.846 128.673l-3.882-9.898-2.718-10.87-2.91-3.88-3.106-2.136-1.94 1.357-4.66 2.135-2.327 6.016-3.3 4.464-1.358.776-1.747-.776s-3.105-1.747-2.91-2.523c.192-.778.58-6.018.58-6.018l4.077-1.553.97-4.077.777-3.105 2.91-1.94-.387-12.034-1.942-2.717-1.552-.97-.97-2.524.97-.97 1.94.388.195-1.94-2.91-2.717-1.555-3.105h-3.104l-5.435-1.747-6.6-4.075h-3.298l-.776.776-1.164-.582-3.688-2.717-3.493 2.136-3.492 2.717.388 4.27 1.164.388 2.523.583.582.97-3.105.97-3.104.39-1.747 2.134-.39 2.523.39 1.94.387 6.6-4.27 2.524-.776-.194v-5.046l1.554-2.91.775-2.913-.97-.97-2.33.97-1.164 5.048-3.3 1.358-2.135 2.33-.193 1.163.775.97-.775 3.105-2.717.582v1.36l.97 2.91-1.36 7.375-1.94 4.852.777 5.63.583 1.357-.97 2.912-.39.97-.388 3.3 4.27 7.18 3.494 7.764 1.747 5.823-.97 5.627-1.165 7.18-2.91 6.212-.39 3.298-3.913 3.705 5.294-.195 25.713-2.718 8.738-1.185.117 2 8.226-1.455 12.363-1.805 4.628-.553.165-.706.194-1.747 2.522-4.465 2.4-2.086-.266-6.066 1.917-1.918 1.31-.41.268-4.27 1.844-3.64 1.26.728.195.776.97.194 2.33-1.164-.39-11.447z"/><path d="M148.288 14.404l2.196-2.47 2.607-.962 6.452-4.666 2.745-.686.55.55-6.177 6.175-3.98 2.333-2.47 1.098-1.922-1.372zm103.46 38.573l.776 3.008 3.882.194 1.553-1.457s-.1-1.747-.486-1.94c-.39-.195-1.94-2.232-1.94-2.232l-2.62.293-1.942.193-.388 1.36 1.164.58zm-120.42-3.57l.858-.698 3.3-.97 4.27-2.718v-1.164l.776-.776 7.18-1.165 2.912-2.33 5.24-2.522.195-1.553 2.327-3.494 2.135-.97 1.553-2.135 2.717-2.717 5.24-2.912 5.63-.583 1.358 1.36-.388 1.164-4.464 1.165-1.747 3.686-2.717.97-.582 2.912-2.91 3.882-.388 3.105.97.582 1.166-1.36 4.27-3.492 1.553 1.553h2.718l3.882 1.164 1.747 1.36 1.747 3.686 3.3 3.3 4.657-.194 1.748-1.165 1.94 1.552 1.94.583 1.553-.97h1.36l1.94-1.166 4.853-4.27 4.076-1.36 7.956-.387 5.435-2.33 3.106-1.552 1.747.195v6.793l.58.388 3.495.97 2.33-.582 7.374-1.94 1.36-1.36 1.746.583v8.346l3.882 3.688 1.553.777 1.552 1.165-1.552.388-.97-.388-4.465-.583-2.523.775-2.718-.194-3.882 1.748h-2.135l-6.987-1.553-6.21.194-2.33 3.104-8.345.777-2.912.97-1.358 3.69-1.553 1.357-.582-.194-1.747-1.94-5.435 2.91h-.775l-1.358-1.94-.97.194-2.33 5.24-1.164 4.852-3.82 8.404-1.413-1.242-1.646-1.238-2.33-12.352-4.256-1.645-2.464-2.745-14.55-3.294-3.43-1.236-9.88-2.608-9.474-1.373-4.463-6.174z"/></g><path fill="#E6E7E8" stroke="#FFF" stroke-width=".75" d="M193.85 276.026l.08-3.43.582-5.436 2.717-3.494 2.134-4.658 3.105-5.046-.583-6.987-2.136-3.3-.387-3.882.97-6.6-.582-8.345-1.552-19.215-1.552-18.438-1.165-14.07 3.688 1.067 1.746 1.165 1.36-.388 2.52-2.33 3.4-1.94 6.113-.196 26.395-2.717 6.695-.64 1.805 19.157 5.104 44.23.72 6.93-.446 2.717 1.474 2.157.116 1.647-3.027 1.92-4.25 1.863-3.844.66-.72 5.844-5.493 3.98-3.356 4.813.39 2.854-.698 1.842h-3.994l-1.903-1.94-2.993 1.514-3.222 1.805.194 3.667-1.434.31-.562-1.223-2.602-1.805-3.902 1.61-1.863 3.608-1.725-.97-1.747-1.92-5.36.582-6.714 1.164-3.493 1.862z"/><path fill="#A7D6F3" stroke="#FFF" stroke-width=".75" d="M193.816 276.472l.037-3.876.682-5.58 2.8-3.5 2.24-4.893 2.683-4.797-.445-6.306-2.408-4.254-.115-4.018.834-6.326-.99-8.618-1.28-18.942-1.553-18.03-1.107-13.974-.327-1.105-.97-3.106-1.553-4.463-1.94-2.135-1.747-3.107-.28-6.59-54.984 3.12.275 2.848 2.745.824 1.1 1.373.547 2.195 4.666 4.117.823 2.744-.824 4.117-2.196 4.393-.823 3.02-2.746 2.196-2.194.822-6.314 1.647-.823 2.194-.826 2.47.825 1.647 2.195 1.922-.275 4.94-2.195 1.922-.824 1.922v3.294l-2.195.548-1.92 1.373-.274 1.648.275 2.47-2.06 1.578-1.235 3.362.55 4.392 2.745 8.784 8.783 9.058 6.588 4.392-.274 5.215 1.097 1.646 7.685.55 3.293 1.645-.823 4.394-2.745 7.136-.823 3.843 2.745 4.666 7.685 6.312 5.49.824 2.47 6.038 2.47 3.843-1.098 3.568 1.92 4.94 2.195 2.47 1.698-1.057 1.09-2.49 2.657-2.1 2.56-.736 3.124 1.416 4.355 1.65 1.426-.357.24-2.71-1.545-2.896.366-2.854 2.208-1.618 3.628-.972 1.514-.55-.736-1.667-.95-2.826 1.72-1.178 1.386-3.858z"/><path fill="#E6E7E8" stroke="#FFF" stroke-width=".75" d="M188.444 152.844l-.08-3.79-1.417-5.436-.776-7.375-1.358-2.91 1.164-3.69.97-3.492 1.75-3.104-.78-4.076-.775-4.27.584-2.135 2.33-2.912.193-3.3-.97-1.552.775-3.104-.543-5.008 3.298-6.792 3.494-8.152.195-2.717-.39-1.165-.97.583-5.046 7.57-3.3 4.85L184.465 93l-.97 2.717-2.347.97-1.36 2.33-1.746-.388-.194-2.136 1.554-2.91 2.523-5.63 2.135-1.94 1.19-2.83-3.075-2.284-2.37-12.446-4.26-1.612-2.335-2.77-14.563-3.27-3.453-1.214-9.86-2.603-9.506-1.39-4.52-6.16-.9.664-1.44-.195-.776-1.358-1.602.356-1.36.194-2.134 1.165-1.164-.777.776-2.33 2.33-3.687 1.358-1.36-2.328-1.746-2.523.97-3.494 2.33-8.93 3.88-3.493.777-3.493-.583-1.18-1.055-2.54 3.404-.275 3.293v10.155l-1.374 1.92-6.313 4.667-2.745 7.137.55.273 3.018 2.47.823 3.844-2.197 3.842v4.666l.55 7.96 3.567 3.568h4.118l2.196 3.843 4.116.55 4.667 6.86 8.508 4.94 2.47 3.295 1.1 8.92.822 3.98 2.745 1.922.274 1.646-2.47 4.117.275 3.843 3.02 4.666 3.02 1.373 3.567.548 1.612 1.657 54.383-3.205zM120.46 213.767l-3.027-3.706-1.372-2.744-77.266 2.882-2.745.137 1.51 3.02-.277 2.745 3.02 4.666 3.705 4.94L47.714 229l2.595.274 1.795 1.1v3.567l-2.196 1.922-.55 2.745 2.47 4.117 3.02 3.568 3.02 2.195 1.645 14 .377 43.308.274 5.625.548 6.465 26.934-1.04 27.86-.824 24.98-.96 13.99-.276 2.606 4.112-.822 3.97-3.706 2.886-.688 2.205 6.458.55 4.676-.824 2.063-6.595.782-7.03 2.518-3.07 3.117-1.785.062-3.66 1.22-2.326-2.034-3.053-1.598 1.18-2.393-2.673-1.544-5.71.962-3.026-2.334-4.114-2.198-5.494-5.76-.96-8.368-6.72-2.063-4.94.96-3.843 2.472-7.272.55-3.437-2.34-1.24-8.23-.956-1.233-2.056-.134-5.078-6.588-4.12-8.375-9.33-2.745-8.782-.276-5.073.963-2.75z"/><path fill="#E6E7E8" stroke="#FFF" stroke-width=".75" d="M321.623 270.383l-2.753 2.884-4.296 4.795-5.913 6.562-1.46 2.06-.074 2.523-5.258 2.598-6.794 4.077-8.682 2.16-62.272 5.88-18.92 2.136-5.55.615-4.644-.033-.27 5.066-9.82.174-8.347.777-9.59-.073 1.45-1.585 3-1.85.274-3.845 1.097-2.195-1.928-3.048.963-2.29 2.716-2.135 2.524-.776 3.3 1.554 4.27 1.553 1.358-.388.194-2.72-1.552-2.91.388-2.717 2.328-1.747 3.106-.775 1.94-.775-.97-2.136-.777-2.33 1.81-1.196c.002-.044 1.504-4.228 1.485-4.392l3.666-1.775 6.388-1.164 5.396-.582 1.672 1.955 1.835 1.046 1.91-3.73 3.826-1.54 2.647 1.78.494 1.2 1.408-.316-.194-3.546 3.76-2.1 2.58-1.29 1.835 1.995 3.983-.054.706-1.888-.442-2.717 3.123-4.8 5.735-4.128.847-5.806 3.513-.547 4.552-1.976 2.933-2.05-.237-1.88-1.372-1.747.68-3.596 5.024-.14 2.76-.897 4.02 1.716 2.467 5.24 6.162.013 2.46 2.65 1.94-.176 3.123-1.535 6.288.688 3.093.262 2.026-2.47 3.14-1.712 2.26-.85.778 3.407 2.452 1.27 3.173 2.5.14 6.813.972 1.888 3.11 1.87.926 2.754 4.995 4.127 2.168 4.35 2.95 1.993zM133.367 155.503l.318 3.345 2.67.693 1.145 1.472.6 2.228 4.554 4.033.823 2.87-.81 4.113-1.9 3.88-.958 3.292-2.61 1.923-2.06.688-6.698 2.234-1.67 4.62.874 1.646 2.21 2.02-.34 4.847-2.116 1.847-.926 1.974.152 3.332-2.264.55-1.952 1.326-.334 1.624.334 2.54-1.862 1.34-2.966-3.763-1.516-2.94-78.92 3.02-1.103.197-2.464-5.422-.275-7.96-1.92-4.94-.824-6.313-2.744-4.393-1.098-5.764-3.294-9.058-1.37-6.45-1.648-2.608-1.922-3.293 2.346-5.814 1.647-6.862-3.295-2.47-.548-3.295 1.097-3.02h2.06l99.234-1.524 1 5.022 2.706 1.874.307 1.708-2.436 4.07.23 3.848 3.02 4.56 3.033 1.554 3.697.604.787.997z"/><g fill="#58595B"><path d="M258.174 259.698h.44c.178 0 .325-.024.44-.073.118-.05.22-.128.303-.235l2.793-3.534c.116-.15.238-.254.367-.312.128-.06.29-.088.486-.088h1.624l-3.41 4.207c-.2.257-.407.438-.622.546.154.055.293.134.417.233.123.1.24.232.354.396l3.514 4.738h-1.66c-.223 0-.39-.03-.5-.095-.108-.063-.2-.155-.275-.276l-2.863-3.738c-.09-.127-.19-.215-.308-.267-.117-.052-.285-.077-.504-.077h-.596v4.452h-1.883v-10.122h1.884v4.242zM270.234 261.658v3.92h-1.876v-3.92l-3.688-6.202h1.66c.162 0 .29.04.387.12s.177.18.242.3l1.847 3.38c.107.207.202.398.283.575.082.18.155.354.22.526.062-.178.132-.354.21-.532s.172-.366.274-.567l1.84-3.38c.053-.104.13-.2.232-.288.103-.09.232-.134.392-.134h1.666l-3.69 6.202z"/></g><g fill="#58595B"><path d="M216.52 205.683h-1.888V195.56h1.89v10.123zM219.977 195.57c.06.008.11.022.154.043.046.02.09.05.13.09.043.04.09.093.14.158l5.308 6.777c-.014-.163-.025-.324-.035-.483-.01-.158-.014-.306-.014-.44v-6.153h1.657v10.123h-.965c-.15 0-.275-.024-.375-.073-.102-.05-.197-.132-.29-.25l-5.286-6.74c.015.15.026.298.032.445.008.146.012.28.012.402v6.216h-1.66V195.56h.988c.078 0 .146.004.205.01z"/></g><g fill="#58595B"><path d="M159.01 209.292h-1.89V199.17h1.89v10.122zM163.154 207.738h4.046v1.554h-5.93V199.17h1.884v8.568z"/></g><g fill="#58595B"><path d="M88.237 259.67l.2.487c.064-.173.132-.34.202-.5.07-.16.144-.316.223-.466l2.99-5.606c.037-.07.076-.126.118-.168s.088-.072.137-.09c.05-.02.104-.03.165-.036.06-.004.133-.007.217-.007h1.42v10.122h-1.66v-6.538c0-.12.004-.254.012-.398.007-.147.018-.293.03-.442l-3.058 5.74c-.145.275-.366.413-.665.413h-.267c-.3 0-.52-.137-.665-.412l-3.094-5.762c.014.154.026.305.035.452.008.146.013.283.013.41v6.537h-1.66v-10.122h1.422c.084 0 .156.003.217.007.06.005.115.017.165.035.05.02.093.05.133.09s.078.1.116.17l3.03 5.62c.08.15.153.305.22.466zM105.817 258.345c0 .74-.122 1.43-.367 2.062-.245.632-.592 1.18-1.04 1.64-.448.463-.987.824-1.617 1.083-.63.26-1.33.39-2.1.39-.765 0-1.463-.13-2.093-.39s-1.17-.62-1.62-1.082-.8-1.01-1.047-1.64c-.248-.634-.37-1.32-.37-2.063 0-.742.123-1.43.37-2.062.247-.633.596-1.18 1.046-1.642s.99-.822 1.62-1.08 1.328-.39 2.093-.39c.514 0 .997.06 1.45.18s.867.286 1.245.503.717.48 1.02.79c.3.312.555.658.766 1.04.21.384.37.8.48 1.247.108.448.163.92.163 1.415zm-1.925 0c0-.556-.075-1.054-.224-1.495-.15-.44-.36-.815-.637-1.123-.274-.31-.61-.544-1.004-.707-.394-.163-.84-.245-1.333-.245s-.94.082-1.333.245c-.394.163-.73.398-1.008.707-.278.308-.49.683-.64 1.123-.15.44-.225.94-.225 1.495 0 .555.074 1.053.224 1.494.15.44.364.813.642 1.12s.614.54 1.008.702c.395.163.84.245 1.333.245s.94-.082 1.333-.245c.395-.163.73-.397 1.005-.703s.488-.68.638-1.12c.15-.443.224-.94.224-1.495z"/></g><g fill="#58595B"><path d="M66.987 163.657h-1.89v-10.122h1.89v10.122zM77.92 163.657h-1.455c-.164 0-.297-.04-.4-.123s-.18-.183-.23-.304l-.756-2.065h-4.194l-.756 2.065c-.037.107-.11.205-.217.294-.107.088-.24.133-.4.133h-1.47l3.984-10.122h1.918l3.976 10.122zm-6.55-3.822h3.226l-1.232-3.367c-.06-.15-.124-.326-.19-.528-.064-.203-.13-.424-.195-.662-.066.238-.13.46-.193.665-.063.205-.125.385-.186.54l-1.23 3.352z"/></g><g fill="#903F98"><path d="M57.295 170.465l-.16.192c-.05.06-.098.122-.146.186.167-.084.348-.15.542-.198.194-.048.405-.072.633-.072.328 0 .647.054.957.162s.583.27.82.49c.235.217.425.488.57.812.143.324.215.702.215 1.134 0 .405-.074.784-.222 1.138s-.356.663-.624.927c-.267.264-.59.472-.968.624-.378.15-.795.227-1.25.227-.465 0-.88-.074-1.25-.222s-.68-.355-.94-.62c-.26-.267-.46-.587-.598-.96-.138-.375-.207-.79-.207-1.246 0-.41.083-.828.25-1.258s.422-.877.77-1.34l2.07-2.78c.072-.095.177-.177.315-.245s.297-.102.477-.102h1.32l-2.575 3.15zm-1.206 2.802c0 .24.032.46.098.657.066.198.164.367.294.507s.29.25.483.328c.192.078.414.117.666.117.237 0 .454-.04.652-.12.198-.08.368-.192.51-.336.142-.145.253-.314.333-.508.08-.194.12-.405.12-.633 0-.25-.038-.472-.114-.67-.075-.198-.183-.366-.323-.504s-.308-.243-.504-.315c-.196-.07-.412-.107-.648-.107-.236 0-.45.04-.642.12s-.356.19-.492.333c-.135.142-.24.31-.317.504-.076.194-.114.403-.114.627zM61.64 175.175c0-.124.023-.242.07-.354s.108-.207.188-.287.176-.144.288-.192c.112-.047.232-.07.36-.07s.247.023.357.07c.11.05.206.113.288.193s.148.176.196.288c.048.113.072.23.072.355 0 .128-.024.247-.072.357-.048.11-.113.205-.195.285s-.177.143-.287.19c-.11.045-.23.068-.357.068s-.248-.023-.36-.07-.208-.108-.288-.188-.143-.175-.19-.285-.068-.23-.068-.357zM70.525 167.315v.642c0 .192-.02.347-.06.465-.04.118-.08.217-.12.297l-3.288 6.767c-.068.14-.164.26-.288.357s-.29.147-.5.147h-1.073l3.354-6.63c.073-.135.146-.26.22-.374.074-.114.157-.223.25-.327h-4.147c-.092 0-.172-.035-.24-.103-.068-.068-.102-.148-.102-.24v-1.002h5.995zM74.413 176.087c-.448 0-.857-.06-1.227-.18s-.687-.29-.95-.51c-.265-.22-.47-.486-.616-.798s-.22-.66-.22-1.045c0-.512.127-.945.38-1.3s.643-.616 1.175-.788c-.424-.176-.74-.426-.95-.75-.21-.324-.316-.714-.316-1.17 0-.328.066-.634.2-.918.134-.285.32-.532.56-.742.24-.21.528-.374.862-.492.334-.118.7-.177 1.1-.177s.768.058 1.102.176c.334.118.62.282.86.492.24.21.428.457.562.74.134.285.2.59.2.92 0 .455-.105.845-.317 1.17-.213.323-.53.573-.95.75.533.17.925.434 1.177.788.252.354.378.787.378 1.3 0 .383-.073.73-.22 1.043s-.35.577-.614.797c-.263.22-.58.39-.95.51s-.78.18-1.227.18zm0-1.158c.244 0 .458-.036.642-.106s.34-.167.465-.29.22-.273.285-.445.096-.36.096-.56c0-.475-.13-.835-.395-1.08-.264-.243-.628-.365-1.092-.365s-.828.122-1.092.366c-.263.245-.395.605-.395 1.08 0 .2.032.387.096.56s.16.32.286.443.28.22.465.29.4.106.643.106zm0-4.01c.24 0 .442-.037.606-.113.163-.076.295-.177.395-.303s.17-.27.213-.432.063-.33.063-.5c0-.165-.025-.32-.077-.47-.052-.147-.13-.278-.234-.392-.105-.114-.237-.205-.397-.273-.16-.068-.35-.102-.57-.102-.22 0-.41.034-.57.102-.16.068-.293.16-.4.273-.105.114-.183.245-.233.393-.05.148-.075.304-.075.468 0 .173.02.34.063.502s.113.306.213.432.233.227.397.303c.164.076.366.114.606.114zM82.363 169.415c0 .328-.055.624-.165.888-.11.264-.257.49-.44.675-.185.186-.4.33-.643.43-.244.1-.498.15-.762.15-.288 0-.554-.05-.798-.15-.244-.1-.455-.244-.633-.43s-.317-.41-.417-.675c-.1-.264-.15-.56-.15-.888 0-.336.05-.64.15-.912.1-.272.24-.502.417-.69.178-.188.39-.333.633-.435.244-.102.51-.153.798-.153s.555.05.8.153c.247.102.46.247.64.435s.32.418.42.69.15.576.15.912zm2.886-1.866c.05-.06.112-.115.182-.163.07-.048.17-.072.297-.072h1.08l-6.445 8.454c-.052.063-.114.116-.186.158-.073.042-.16.063-.265.063H78.81l6.44-8.44zm-4.027 1.865c0-.232-.023-.426-.07-.582-.045-.156-.107-.282-.185-.378-.078-.096-.17-.165-.276-.207s-.22-.063-.34-.063-.23.02-.335.063-.193.11-.267.207c-.074.096-.133.222-.177.378-.044.156-.066.35-.066.582 0 .224.022.41.066.56.044.15.103.272.177.364.074.09.163.157.267.197s.216.06.336.06.233-.02.34-.06.197-.106.275-.198c.078-.093.14-.214.186-.364.046-.15.07-.337.07-.56zm6.042 4.536c0 .33-.055.625-.165.89-.11.263-.257.488-.44.674-.185.186-.4.33-.643.432s-.498.153-.762.153c-.288 0-.554-.052-.798-.154s-.455-.246-.633-.432-.317-.41-.417-.675c-.1-.265-.15-.56-.15-.89 0-.335.05-.64.15-.91.1-.273.24-.503.417-.69.178-.19.39-.334.633-.436s.51-.153.798-.153c.288 0 .555.052.8.154s.46.247.637.435c.178.187.318.417.42.69.102.27.153.575.153.91zm-1.146 0c0-.23-.023-.425-.067-.58-.044-.157-.105-.283-.183-.38s-.17-.164-.276-.206c-.106-.042-.22-.063-.34-.063-.12 0-.23.022-.335.064s-.195.11-.27.207c-.077.097-.136.223-.178.38-.042.155-.063.35-.063.58 0 .225.02.413.062.565.042.152.1.274.177.366.075.093.165.16.27.2s.215.06.335.06c.12 0 .233-.02.34-.06.105-.04.197-.107.275-.2.078-.09.14-.213.183-.365.044-.152.066-.34.066-.564z"/></g><g fill="#903F98"><path d="M83.848 267.447v.64c0 .194-.02.35-.06.467-.04.118-.08.217-.12.297l-3.288 6.77c-.068.14-.164.258-.288.356s-.29.147-.498.147H78.52l3.354-6.63c.072-.137.145-.262.22-.376.073-.113.156-.223.248-.326h-4.146c-.092 0-.172-.033-.24-.102-.068-.067-.102-.147-.102-.24v-1h5.994zM84.772 275.307c0-.124.023-.242.07-.354.045-.112.108-.21.188-.29s.176-.143.288-.19c.112-.05.232-.072.36-.072s.247.024.357.073c.11.048.206.11.288.19s.147.178.195.29c.048.11.072.23.072.354 0 .128-.024.247-.072.357-.048.11-.113.205-.195.285s-.178.142-.288.187c-.11.046-.23.07-.357.07s-.248-.024-.36-.07-.208-.108-.288-.188-.143-.177-.19-.286c-.045-.11-.068-.23-.068-.357zM90.586 276.22c-.448 0-.857-.062-1.227-.18-.37-.122-.688-.292-.952-.512-.264-.22-.47-.485-.615-.798s-.22-.66-.22-1.044c0-.512.127-.944.38-1.3s.643-.616 1.175-.788c-.424-.177-.74-.427-.95-.75-.21-.324-.316-.714-.316-1.17 0-.328.067-.634.2-.918.135-.284.322-.53.562-.74.24-.21.527-.375.86-.493.335-.117.702-.177 1.102-.177s.767.06 1.1.177c.335.118.622.282.862.492.24.21.427.456.56.74.135.284.202.59.202.918 0 .456-.106.846-.318 1.17-.212.323-.528.573-.948.75.532.172.924.435 1.176.79.252.353.378.786.378 1.298 0 .384-.073.73-.22 1.044s-.35.578-.614.798c-.264.22-.58.39-.95.51s-.78.18-1.228.18zm0-1.16c.244 0 .458-.034.642-.104.184-.07.34-.166.465-.29.126-.124.22-.272.285-.444s.096-.357.096-.56c0-.475-.132-.835-.396-1.08-.264-.243-.628-.364-1.092-.364s-.828.12-1.092.365c-.264.244-.396.604-.396 1.08 0 .2.032.387.096.56s.16.32.285.442c.125.125.28.222.464.29.184.07.398.106.642.106zm0-4.007c.24 0 .442-.038.606-.114.164-.076.296-.178.396-.304s.17-.27.213-.433.064-.328.064-.5c0-.164-.026-.32-.078-.47-.052-.147-.13-.278-.234-.392-.104-.113-.236-.204-.396-.272-.16-.068-.35-.102-.57-.102-.22 0-.41.033-.57.102-.16.068-.293.16-.4.273-.105.114-.183.245-.233.394-.05.148-.075.305-.075.47 0 .17.02.337.063.5s.114.306.214.432.232.228.396.303c.164.075.366.113.606.113zM95.476 275.013h1.758v-5.058c0-.196.006-.402.018-.62l-1.248 1.046c-.072.057-.143.092-.213.105-.07.015-.135.015-.197.003s-.117-.033-.165-.063-.084-.063-.108-.1l-.468-.642 2.646-2.25h1.218v7.578h1.56v1.11h-4.8v-1.107zM105.496 269.547c0 .328-.055.623-.165.888-.11.265-.256.49-.44.675-.184.186-.398.33-.642.43-.244.1-.498.15-.762.15-.288 0-.554-.05-.798-.15-.244-.1-.455-.244-.633-.43s-.317-.41-.417-.675c-.1-.265-.15-.56-.15-.888 0-.336.05-.64.15-.912.1-.27.24-.502.417-.69.178-.188.39-.333.633-.435.244-.102.51-.153.798-.153s.555.052.8.153c.247.102.46.246.64.435.18.188.32.42.42.69s.15.576.15.912zm2.886-1.866c.052-.06.113-.113.183-.16.07-.05.17-.072.297-.072h1.08l-6.444 8.453c-.052.065-.114.118-.186.16-.072.042-.16.063-.264.063h-1.104l6.438-8.442zm-4.026 1.867c0-.232-.023-.426-.07-.582-.045-.156-.107-.282-.185-.38-.077-.095-.17-.163-.275-.206-.106-.042-.22-.064-.34-.064s-.23.02-.335.063c-.104.042-.193.11-.267.206-.074.097-.133.223-.177.38-.044.155-.066.35-.066.58 0 .225.022.41.066.562.044.15.103.27.177.363s.163.16.267.198c.104.04.216.06.336.06s.233-.02.34-.06c.105-.04.197-.105.275-.197.08-.09.14-.212.187-.362.046-.15.07-.337.07-.56zm6.042 4.535c0 .328-.055.625-.165.89s-.257.487-.44.674c-.185.187-.4.33-.643.433-.244.1-.498.15-.762.15-.288 0-.554-.05-.798-.15-.244-.104-.455-.247-.633-.434s-.317-.41-.417-.675c-.1-.263-.15-.56-.15-.888 0-.336.05-.64.15-.912.1-.27.24-.502.417-.69.178-.187.39-.332.633-.435.244-.102.51-.152.798-.152.288 0 .555.05.8.152.247.103.46.248.637.436.178.19.318.42.42.69.102.272.153.576.153.912zm-1.146 0c0-.23-.022-.426-.066-.582-.044-.155-.105-.28-.183-.377-.078-.097-.17-.166-.276-.207-.106-.043-.22-.063-.34-.063-.12 0-.23.02-.335.063-.104.04-.194.11-.27.207-.076.096-.135.222-.177.377-.042.156-.063.35-.063.582 0 .225.02.412.063.564s.1.273.177.366c.076.092.166.157.27.198.104.04.216.06.336.06.12 0 .233-.02.34-.06.105-.04.197-.106.275-.198.078-.093.14-.214.183-.366.044-.152.066-.34.066-.564z"/></g><g fill="#903F98"><path d="M148.295 223.684c-.448 0-.857-.06-1.227-.18s-.687-.29-.95-.512c-.265-.22-.47-.485-.616-.797-.146-.313-.22-.66-.22-1.045 0-.512.127-.944.38-1.3.25-.353.643-.616 1.175-.788-.424-.176-.74-.426-.95-.75s-.316-.713-.316-1.17c0-.328.068-.634.202-.918.134-.283.32-.53.56-.74.24-.21.528-.375.862-.492.334-.118.7-.178 1.1-.178s.768.06 1.102.178c.334.117.62.28.86.492.24.21.428.457.562.74.134.284.2.59.2.918 0 .457-.105.846-.317 1.17-.21.324-.527.574-.947.75.532.172.924.436 1.176.79.25.353.377.786.377 1.298 0 .385-.073.732-.22 1.045-.145.312-.35.578-.614.797-.264.22-.58.39-.95.51s-.78.182-1.228.182zm0-1.16c.244 0 .458-.034.642-.104s.34-.167.465-.29.22-.272.285-.444.096-.358.096-.56c0-.476-.132-.835-.396-1.08-.264-.243-.628-.364-1.092-.364s-.828.12-1.092.365c-.264.244-.396.604-.396 1.08 0 .2.032.387.096.56s.16.318.285.442.28.22.465.29.398.105.642.105zm0-4.006c.24 0 .442-.04.606-.115.165-.075.297-.176.397-.303.1-.125.17-.27.213-.432s.063-.33.063-.5c0-.165-.026-.32-.078-.47-.052-.147-.13-.278-.234-.392-.103-.115-.235-.205-.395-.273-.16-.068-.35-.102-.57-.102-.22 0-.41.034-.57.103-.16.068-.293.158-.4.273-.105.113-.183.244-.233.393-.05.147-.075.303-.075.467 0 .172.02.34.063.5s.113.308.213.433c.1.127.232.228.396.303.164.076.366.115.605.115zM152.292 222.77c0-.124.023-.24.07-.353s.108-.208.188-.288.176-.146.288-.192c.112-.05.232-.072.36-.072s.247.023.357.072c.11.047.206.11.288.19s.147.177.195.29c.048.11.072.228.072.353 0 .128-.024.247-.072.357-.048.11-.113.205-.195.285s-.178.144-.288.188c-.11.047-.23.07-.357.07s-.248-.023-.36-.07c-.112-.045-.208-.108-.288-.188s-.143-.175-.19-.285-.068-.23-.068-.356zM156.035 222.477h1.758v-5.058c0-.197.006-.402.018-.62l-1.247 1.045c-.072.056-.143.09-.213.104-.07.014-.136.015-.198.003s-.117-.033-.165-.063-.084-.063-.108-.1l-.47-.643 2.647-2.25h1.218v7.578h1.56v1.11h-4.8v-1.108zM165.533 220.22c.068-.083.132-.165.192-.245s.118-.16.174-.24c-.2.13-.42.226-.66.29-.24.067-.493.1-.757.1-.3 0-.594-.052-.882-.155s-.543-.26-.767-.47-.405-.472-.543-.78c-.138-.31-.207-.674-.207-1.09 0-.388.072-.752.216-1.092s.345-.64.605-.895c.26-.256.572-.457.936-.605.365-.148.767-.223 1.207-.223.444 0 .843.07 1.197.21.354.14.656.337.906.59s.442.553.576.905c.134.352.2.737.2 1.157 0 .27-.022.522-.068.763-.046.24-.11.47-.195.692s-.186.438-.306.65c-.12.213-.254.423-.402.63l-1.986 2.833c-.07.096-.17.177-.307.243-.136.065-.29.1-.462.1h-1.36l2.693-3.367zm.978-2.693c0-.236-.035-.447-.107-.633-.072-.187-.174-.344-.306-.472s-.29-.226-.47-.294-.382-.102-.598-.102c-.225 0-.427.037-.607.11-.18.074-.334.177-.462.31-.127.132-.225.29-.293.47s-.102.382-.102.6c0 .482.125.852.375 1.105s.605.382 1.065.382c.24 0 .454-.038.642-.114s.346-.18.474-.312c.13-.132.226-.288.292-.468.066-.18.1-.374.1-.58zM173.015 217.01c0 .33-.055.625-.165.89-.11.264-.257.488-.44.675-.185.186-.4.328-.643.43-.244.1-.498.148-.762.148-.288 0-.554-.05-.798-.15-.244-.1-.455-.242-.633-.428-.178-.187-.317-.41-.417-.676-.1-.265-.15-.56-.15-.89 0-.335.05-.64.15-.91.1-.272.24-.502.417-.69.178-.19.39-.333.633-.435.244-.103.51-.154.798-.154s.555.053.8.155c.247.102.46.246.64.434s.32.418.42.69c.1.27.15.575.15.91zm2.886-1.865c.053-.06.114-.113.184-.162.07-.047.17-.07.297-.07h1.08l-6.443 8.453c-.052.063-.114.117-.186.158-.07.043-.16.063-.263.063h-1.104l6.438-8.442zm-4.025 1.866c0-.23-.023-.425-.07-.58-.045-.156-.107-.283-.185-.38-.078-.095-.17-.164-.276-.206s-.22-.063-.34-.063-.23.022-.335.064-.194.11-.268.207-.133.224-.177.38c-.044.155-.066.35-.066.58 0 .225.02.412.065.563.044.15.103.27.177.363.074.092.163.157.267.197s.215.06.335.06.233-.02.34-.06.197-.105.275-.197c.078-.093.14-.214.186-.363.046-.15.07-.34.07-.562zm6.042 4.537c0 .328-.055.624-.165.89-.11.263-.257.487-.44.673-.185.187-.4.33-.643.433s-.5.153-.763.153c-.288 0-.554-.05-.798-.153s-.456-.246-.634-.433c-.178-.186-.317-.41-.417-.674-.1-.265-.15-.56-.15-.89 0-.335.05-.64.15-.91.1-.272.238-.503.416-.69.178-.188.39-.334.633-.436s.51-.152.797-.152c.288 0 .555.05.8.152s.46.247.637.436c.178.188.318.418.42.69.102.27.153.575.153.91zm-1.146 0c0-.232-.02-.426-.065-.582-.044-.156-.105-.28-.183-.378s-.17-.165-.276-.207c-.106-.042-.22-.063-.34-.063-.12 0-.23.02-.335.063s-.193.11-.27.207c-.075.097-.134.222-.176.378s-.063.35-.063.582c0 .225.022.412.064.564s.1.274.177.366c.077.092.167.158.27.198s.217.06.337.06c.12 0 .233-.02.34-.06.105-.04.197-.106.275-.198s.14-.213.183-.365c.044-.15.066-.34.066-.563z"/></g><g fill="#903F98"><path d="M219.13 210.94v.644c0 .19-.02.347-.06.465-.04.116-.08.216-.12.296l-3.29 6.768c-.066.14-.163.26-.287.357s-.29.147-.498.147H213.8l3.355-6.63c.07-.136.146-.26.22-.374.073-.115.156-.224.248-.328h-4.146c-.092 0-.172-.033-.24-.102-.067-.068-.102-.148-.102-.24v-1.002h5.994zM224.008 213.04c0 .33-.056.626-.166.89-.11.264-.257.488-.44.675-.185.187-.398.33-.642.43-.244.1-.498.15-.763.15-.288 0-.554-.05-.798-.15-.245-.1-.456-.243-.634-.43s-.317-.41-.418-.675c-.1-.264-.15-.56-.15-.89 0-.335.05-.638.15-.91.1-.272.24-.502.418-.69.178-.188.39-.333.633-.435.243-.103.51-.153.797-.153s.556.05.802.153c.244.102.458.247.638.435s.32.418.42.69c.1.272.15.575.15.91zm2.885-1.864c.053-.06.113-.114.184-.162s.17-.072.297-.072h1.08l-6.443 8.454c-.052.063-.114.117-.186.16-.072.04-.16.062-.265.062h-1.105l6.438-8.442zm-4.026 1.865c0-.23-.023-.425-.068-.58-.048-.156-.11-.282-.188-.378-.078-.096-.17-.166-.276-.207-.105-.043-.22-.063-.34-.063s-.23.02-.335.063c-.103.04-.19.11-.266.207s-.133.222-.178.377c-.044.155-.066.35-.066.58 0 .226.022.413.066.563.045.15.104.27.178.363.074.092.162.157.267.198.105.04.217.06.337.06s.233-.02.34-.06c.104-.04.197-.106.275-.198.077-.093.14-.214.187-.363.044-.15.067-.337.067-.562zm6.042 4.538c0 .328-.057.623-.166.888-.11.264-.258.49-.44.675s-.398.33-.643.433c-.243.103-.497.153-.762.153-.287 0-.553-.05-.797-.153-.243-.102-.454-.246-.632-.432-.18-.185-.318-.41-.418-.674-.1-.265-.15-.56-.15-.888 0-.336.05-.64.15-.912.1-.272.24-.502.418-.69.178-.188.39-.333.633-.435.245-.102.51-.152.798-.152.29 0 .556.05.802.153s.458.247.636.436.318.418.42.69c.1.272.153.576.153.912zm-1.146 0c0-.232-.022-.426-.066-.582-.045-.156-.105-.282-.184-.38-.078-.095-.17-.163-.275-.206-.107-.04-.22-.063-.34-.063-.12 0-.232.02-.337.063-.104.043-.193.11-.27.207-.076.097-.135.223-.177.38s-.063.35-.063.58c0 .225.02.413.063.564.042.153.1.275.177.367s.166.158.27.197c.104.04.217.06.336.06.12 0 .232-.02.34-.06.104-.04.196-.105.274-.197s.14-.214.184-.366c.043-.15.066-.338.066-.562z"/></g><g fill="#903F98"><path d="M259.28 273.092l-.16.19c-.05.062-.1.124-.146.188.168-.084.35-.15.543-.198.194-.048.405-.072.633-.072.328 0 .647.055.957.162.31.108.583.27.82.49s.425.488.57.812c.143.324.214.7.214 1.134 0 .403-.073.782-.22 1.137s-.357.663-.625.927-.59.473-.97.625c-.377.15-.794.228-1.25.228-.464 0-.88-.074-1.248-.222-.368-.148-.683-.355-.942-.62-.26-.268-.46-.587-.597-.962-.138-.372-.207-.788-.207-1.243 0-.408.084-.827.25-1.258.166-.43.423-.878.77-1.34l2.07-2.78c.072-.096.177-.178.315-.246.138-.067.297-.102.477-.102h1.32l-2.573 3.15zm-1.207 2.802c0 .24.033.46.1.657.065.198.163.368.294.508.13.14.29.25.482.327.19.078.413.117.665.117.236 0 .453-.04.65-.12s.37-.192.51-.336.254-.313.334-.507c.08-.195.12-.406.12-.634 0-.248-.04-.472-.115-.67-.076-.197-.184-.365-.324-.504-.14-.138-.307-.242-.503-.314-.195-.072-.412-.108-.647-.108-.236 0-.45.04-.642.12-.192.08-.356.19-.492.333-.137.142-.242.31-.318.504s-.115.403-.115.627zM267.578 272.04c0 .33-.056.626-.166.89-.11.264-.257.488-.44.675-.185.187-.398.33-.642.43-.244.1-.498.15-.763.15-.288 0-.554-.05-.798-.15-.245-.1-.456-.243-.634-.43s-.317-.41-.418-.675c-.1-.264-.15-.56-.15-.89 0-.335.05-.638.15-.91.1-.272.24-.502.418-.69.178-.188.39-.333.633-.435.243-.103.51-.153.797-.153s.556.05.802.153c.244.102.458.247.638.435s.32.418.42.69c.1.272.15.575.15.91zm2.885-1.864c.053-.06.113-.114.184-.162s.17-.072.297-.072h1.08l-6.443 8.454c-.052.063-.114.117-.186.16-.072.04-.16.062-.265.062h-1.105l6.438-8.442zm-4.025 1.865c0-.23-.023-.425-.068-.58-.047-.156-.11-.282-.187-.378-.078-.096-.17-.166-.276-.207-.105-.043-.22-.063-.34-.063s-.23.02-.335.063c-.104.04-.192.11-.267.207s-.133.222-.178.377c-.044.155-.066.35-.066.58 0 .226.023.413.067.563.045.15.104.27.178.363.074.092.162.157.267.198.104.04.216.06.336.06s.233-.02.34-.06c.104-.04.197-.106.275-.198.077-.093.14-.214.187-.363.044-.15.068-.337.068-.562zm6.04 4.538c0 .328-.055.623-.164.888-.11.264-.258.49-.44.675s-.398.33-.643.433c-.243.103-.497.153-.762.153-.287 0-.553-.05-.797-.153-.243-.102-.454-.246-.632-.432-.18-.185-.318-.41-.418-.674-.1-.265-.15-.56-.15-.888 0-.336.05-.64.15-.912.1-.272.24-.502.418-.69.178-.188.39-.333.633-.435.245-.102.51-.152.798-.152.29 0 .556.05.802.153s.458.247.636.436.318.418.42.69c.102.272.153.576.153.912zm-1.144 0c0-.232-.022-.426-.066-.582-.045-.156-.105-.282-.184-.38-.078-.095-.17-.163-.275-.206-.107-.04-.22-.063-.34-.063-.12 0-.232.02-.337.063-.104.043-.193.11-.27.207-.076.097-.135.223-.177.38s-.063.35-.063.58c0 .225.02.413.063.564.042.153.1.275.177.367s.166.158.27.197c.104.04.217.06.336.06.12 0 .232-.02.34-.06.104-.04.196-.105.274-.197s.14-.214.184-.366c.044-.15.066-.338.066-.562z"/></g><g fill="#903F98"><path d="M230.215 132.842l-.16.192s-.098.122-.146.186c.167-.084.35-.15.542-.198.194-.048.405-.072.633-.072.328 0 .647.054.957.162.31.108.584.27.82.49.235.217.426.488.57.812.143.324.215.702.215 1.134 0 .404-.074.783-.223 1.137-.147.354-.355.663-.623.927-.267.264-.59.472-.968.624-.38.152-.795.228-1.252.228-.463 0-.88-.074-1.248-.222-.367-.148-.682-.355-.94-.62s-.46-.587-.6-.96c-.136-.375-.206-.79-.206-1.246 0-.408.084-.827.25-1.257s.422-.878.77-1.342l2.07-2.778c.072-.096.178-.178.316-.246.137-.068.297-.102.477-.102h1.32l-2.575 3.15zm-1.207 2.802c0 .24.033.46.1.657.066.2.164.368.294.508s.29.25.483.327c.19.078.414.117.666.117.237 0 .454-.04.65-.12.2-.08.37-.192.51-.336.144-.144.255-.313.335-.507.08-.195.12-.406.12-.634 0-.248-.038-.47-.114-.67-.075-.197-.183-.365-.323-.503s-.31-.243-.504-.315c-.196-.072-.412-.108-.648-.108s-.45.04-.642.12-.356.19-.492.333-.24.31-.316.504c-.077.194-.116.403-.116.627zM238.513 131.792c0 .328-.056.624-.165.888-.11.264-.258.49-.44.675s-.4.33-.643.43c-.244.1-.498.15-.763.15-.287 0-.554-.05-.797-.15-.244-.1-.455-.244-.634-.43-.177-.186-.316-.41-.416-.675s-.15-.56-.15-.888c0-.336.05-.64.15-.912s.24-.502.417-.69c.18-.188.39-.333.635-.435.243-.102.51-.153.797-.153.29 0 .556.05.802.153.245.102.46.247.64.435s.318.418.42.69.15.576.15.912zm2.885-1.866c.052-.06.113-.114.184-.162.07-.048.168-.072.297-.072h1.08l-6.445 8.454c-.052.064-.114.117-.187.16s-.16.062-.264.062h-1.104l6.438-8.442zm-4.025 1.866c0-.232-.023-.426-.07-.582-.045-.156-.107-.282-.186-.378-.078-.096-.17-.165-.275-.207-.106-.042-.22-.063-.34-.063-.12 0-.23.02-.336.063-.104.042-.192.11-.267.207-.075.096-.134.222-.178.378-.045.156-.066.35-.066.582 0 .224.02.41.066.56.044.15.103.272.177.364.073.092.162.158.266.198.104.04.217.06.336.06.12 0 .233-.02.34-.06.105-.04.197-.106.275-.198.078-.092.14-.213.187-.363s.07-.337.07-.56zm6.04 4.536c0 .328-.054.624-.163.888-.11.264-.258.49-.44.675s-.4.33-.644.433-.498.153-.762.153c-.287 0-.554-.05-.798-.153s-.455-.246-.633-.432c-.18-.185-.317-.41-.417-.674-.1-.264-.15-.56-.15-.888 0-.336.05-.64.15-.912s.238-.502.417-.69c.178-.188.39-.333.633-.435s.51-.152.798-.152c.288 0 .555.05.8.153s.46.248.638.436.318.418.42.69.152.576.152.912zm-1.144 0c0-.232-.023-.426-.066-.582-.045-.156-.105-.282-.184-.378s-.17-.165-.275-.207c-.107-.04-.22-.062-.34-.062-.12 0-.232.02-.336.063s-.194.112-.27.208-.136.222-.18.378c-.04.156-.062.35-.062.582 0 .224.02.412.063.564.044.152.103.274.18.366.075.092.165.158.27.198s.216.06.335.06c.12 0 .232-.02.34-.06.105-.04.197-.106.275-.198.078-.092.14-.214.184-.366.042-.152.065-.34.065-.564z"/></g><g fill="#903F98"><path d="M138.557 109.072c0 .212-.066.384-.198.516-.133.132-.357.198-.673.198h-2.382l-.312 1.812c.392-.08.748-.12 1.068-.12.457 0 .86.068 1.207.204.348.136.64.324.876.564.236.24.414.52.534.843.12.32.18.668.18 1.04 0 .46-.08.88-.243 1.26-.162.38-.387.705-.675.975s-.63.48-1.024.627-.823.222-1.287.222c-.273 0-.53-.028-.775-.084-.244-.056-.473-.13-.687-.225-.214-.094-.412-.202-.594-.324-.182-.12-.345-.25-.49-.386l.457-.63c.097-.136.223-.204.38-.204.1 0 .2.032.305.096s.223.134.357.21c.134.076.292.146.474.21s.4.096.657.096c.272 0 .512-.044.72-.132s.38-.21.52-.37c.137-.157.24-.345.31-.563.07-.218.106-.455.106-.71 0-.473-.138-.842-.412-1.108s-.68-.4-1.215-.4c-.412 0-.834.076-1.266.228l-.924-.264.72-4.212h4.284v.63zM140.04 116.302c0-.124.022-.242.068-.354s.11-.208.19-.288.175-.144.287-.192c.112-.048.232-.072.36-.072s.247.024.357.072c.11.048.206.112.288.192s.147.176.195.288c.048.112.072.23.072.354 0 .128-.024.247-.072.357-.048.11-.113.204-.195.284s-.178.143-.288.19c-.11.045-.23.068-.357.068s-.248-.023-.36-.07-.208-.108-.288-.188-.143-.175-.19-.285-.068-.23-.068-.358zM147.934 113.848h1.092v.858c0 .08-.026.15-.078.207-.052.058-.126.087-.222.087h-.792v2.118h-1.29V115h-3.66c-.1 0-.188-.03-.264-.093-.076-.062-.124-.14-.144-.23l-.156-.75 4.11-5.49h1.404v5.41zm-1.29-2.838c0-.268.018-.562.054-.882l-2.694 3.72h2.64v-2.838zM152.938 108.346c.4 0 .76.057 1.083.17.323.115.598.273.826.475s.403.44.525.712.184.566.184.882c0 .276-.03.52-.093.73s-.15.392-.27.548c-.117.156-.26.288-.43.396-.17.108-.364.198-.58.27.52.164.908.414 1.164.75.256.336.384.758.384 1.266 0 .432-.08.814-.24 1.146-.16.333-.376.61-.648.837s-.587.397-.945.513c-.358.116-.737.174-1.137.174-.436 0-.816-.05-1.14-.15-.324-.1-.606-.248-.846-.444s-.444-.436-.612-.72c-.168-.284-.312-.612-.432-.984l.654-.27c.172-.072.333-.09.483-.057.15.033.26.114.327.242.072.14.15.278.237.414.085.136.188.257.308.363.12.105.26.19.423.257s.356.1.58.1c.252 0 .472-.042.66-.124s.345-.19.47-.32c.127-.133.22-.28.283-.442s.093-.324.093-.488c0-.208-.022-.397-.066-.567-.044-.17-.136-.315-.276-.435s-.34-.214-.603-.282c-.26-.068-.612-.102-1.052-.102v-1.056c.364-.004.666-.038.906-.102s.43-.153.573-.267c.142-.113.24-.25.297-.41.056-.16.084-.336.084-.528 0-.408-.114-.718-.342-.93s-.532-.318-.912-.318c-.176 0-.338.025-.486.075-.148.05-.28.12-.4.21-.117.09-.216.194-.296.314-.08.12-.14.252-.18.396-.068.184-.157.306-.267.366-.11.06-.265.074-.465.042l-.78-.138c.06-.416.176-.78.348-1.095.172-.314.387-.576.645-.786.258-.21.554-.37.888-.475s.694-.16 1.078-.16zM160.762 110.542c0 .328-.055.624-.165.888-.11.264-.257.49-.44.675-.185.186-.4.33-.643.43-.244.1-.498.15-.762.15-.288 0-.554-.05-.798-.15-.244-.1-.455-.244-.633-.43-.177-.186-.316-.41-.416-.675-.1-.264-.15-.56-.15-.888 0-.336.05-.64.15-.912.1-.272.24-.502.417-.69.18-.188.39-.333.634-.435.244-.102.51-.153.798-.153s.555.05.8.153c.247.102.46.247.64.435s.32.418.42.69.15.576.15.912zm2.886-1.866c.052-.06.113-.114.183-.162.07-.048.17-.072.298-.072h1.08l-6.444 8.454c-.052.064-.114.117-.186.16-.072.04-.16.062-.264.062h-1.104l6.438-8.442zm-4.026 1.866c0-.232-.023-.426-.07-.582-.045-.156-.107-.282-.185-.378-.078-.096-.17-.165-.276-.207s-.218-.063-.338-.063-.232.02-.336.063-.193.11-.267.207c-.075.096-.134.222-.178.378-.044.156-.066.35-.066.582 0 .224.022.41.066.56.044.15.103.272.177.364.073.092.162.158.266.198s.216.06.336.06.233-.02.34-.06.197-.106.275-.198c.078-.092.14-.213.186-.363.046-.15.07-.337.07-.56zm6.042 4.536c0 .328-.055.624-.165.888-.11.264-.258.49-.442.675-.184.187-.398.33-.642.433s-.498.153-.762.153c-.288 0-.554-.05-.798-.153s-.455-.246-.633-.432c-.178-.185-.317-.41-.417-.674-.1-.264-.15-.56-.15-.888 0-.336.05-.64.15-.912.1-.272.24-.502.417-.69.178-.188.39-.333.633-.435s.51-.152.798-.152c.288 0 .555.05.8.153s.46.248.637.436c.18.188.32.418.42.69.103.272.154.576.154.912zm-1.146 0c0-.232-.022-.426-.066-.582-.044-.156-.105-.282-.183-.378s-.17-.165-.277-.207c-.106-.04-.22-.062-.34-.062-.12 0-.23.02-.335.063s-.194.112-.27.208c-.076.096-.135.222-.177.378-.04.156-.062.35-.062.582 0 .224.02.412.063.564.043.152.102.274.178.366.076.092.166.158.27.198s.216.06.336.06c.12 0 .233-.02.34-.06.105-.04.197-.106.275-.198.077-.092.138-.214.182-.366.044-.152.066-.34.066-.564z"/></g><g fill="#E81F64"><path d="M261.19 283.346c.4 0 .76.057 1.083.17.32.115.597.273.824.475.23.204.403.44.525.712.122.272.184.566.184.883 0 .275-.03.52-.094.73s-.152.392-.27.548c-.118.156-.262.29-.433.396-.17.106-.363.196-.58.27.52.163.908.413 1.164.75s.385.757.385 1.265c0 .433-.08.814-.24 1.146s-.378.612-.65.84c-.27.225-.586.395-.944.51-.357.118-.736.176-1.137.176-.437 0-.817-.05-1.14-.15-.325-.1-.607-.247-.848-.444-.24-.195-.443-.436-.61-.72-.17-.284-.314-.612-.433-.983l.652-.272c.173-.07.333-.09.483-.057s.26.115.326.244c.073.14.152.277.24.414.085.136.187.257.308.363.12.106.26.192.423.26.163.064.355.098.58.098.252 0 .472-.04.66-.123.188-.082.345-.188.47-.32.127-.133.22-.28.282-.442.063-.162.094-.324.094-.488 0-.208-.02-.396-.066-.566-.044-.172-.136-.317-.275-.437-.14-.12-.342-.214-.604-.282-.26-.066-.612-.102-1.052-.102v-1.055c.363-.005.666-.04.906-.103s.43-.153.572-.267c.143-.115.24-.252.297-.412.057-.158.084-.335.084-.526 0-.408-.113-.72-.342-.93-.228-.213-.53-.318-.912-.318-.176 0-.338.025-.485.074-.147.05-.28.12-.4.21-.116.09-.216.196-.296.315-.08.12-.14.252-.18.396-.068.185-.157.307-.268.366-.11.06-.265.074-.465.043l-.78-.14c.06-.416.176-.78.348-1.095s.387-.576.645-.786.555-.368.89-.475.694-.16 1.076-.16zM271.096 283.44v.644c0 .19-.02.347-.06.465-.04.116-.08.216-.12.296l-3.288 6.768c-.067.14-.164.26-.288.357s-.29.147-.498.147h-1.074l3.354-6.63c.07-.136.146-.26.22-.374.073-.115.156-.224.248-.328h-4.146c-.092 0-.172-.033-.24-.102-.067-.068-.102-.148-.102-.24v-1.002h5.994z"/></g><g fill="#E81F64"><path d="M217.578 224.727c.4 0 .766.06 1.098.176.332.12.616.285.853.502.234.216.42.476.55.78.134.304.2.642.2 1.014 0 .318-.05.615-.143.887s-.22.532-.377.78c-.158.248-.344.487-.556.72s-.435.47-.666.708l-1.962 1.998c.19-.056.38-.1.566-.13.187-.03.363-.044.53-.044h2.228c.16 0 .287.044.38.134.095.09.142.21.142.356v.89h-5.95v-.493c0-.1.02-.205.062-.314.042-.11.11-.21.2-.297l2.635-2.64c.22-.225.416-.44.59-.644.174-.203.32-.405.436-.605.115-.2.205-.402.267-.61.062-.204.093-.42.093-.65 0-.207-.03-.39-.09-.548s-.145-.292-.255-.4-.24-.188-.395-.243c-.154-.054-.328-.08-.52-.08-.176 0-.34.024-.488.074-.15.052-.283.12-.4.212-.115.09-.213.194-.293.314-.08.12-.14.252-.18.396-.068.184-.156.305-.265.365s-.266.074-.47.042l-.78-.14c.06-.415.177-.78.35-1.095.172-.313.387-.576.645-.785.258-.21.554-.368.888-.475.332-.106.69-.158 1.075-.158zM222.385 232.39h1.758v-5.06c0-.195.006-.402.018-.618l-1.247 1.044c-.072.057-.143.092-.213.105s-.137.016-.198.004c-.062-.013-.116-.033-.165-.063-.048-.028-.084-.062-.107-.098l-.47-.642 2.647-2.25h1.218v7.578h1.56v1.11h-4.8v-1.11z"/></g><g fill="#E81F64"><path d="M232.125 143.21c.4 0 .762.058 1.084.172.32.114.596.272.823.474.23.202.403.44.525.71s.184.567.184.883c0 .275-.03.518-.094.728s-.152.393-.27.55c-.118.155-.262.287-.433.395-.17.108-.362.198-.58.27.522.164.91.414 1.165.75s.385.758.385 1.266c0 .43-.08.813-.24 1.145-.16.333-.377.61-.648.837s-.587.397-.945.513c-.357.116-.736.174-1.137.174-.436 0-.816-.05-1.14-.15-.324-.1-.606-.25-.847-.445-.24-.196-.443-.436-.61-.72-.17-.284-.314-.612-.433-.984l.653-.27c.173-.07.333-.09.483-.056.15.034.26.115.327.243.072.14.15.278.238.414.086.137.188.258.31.364.118.106.26.192.422.258s.354.1.58.1c.25 0 .47-.042.66-.124.187-.082.344-.19.47-.32.126-.133.22-.28.28-.442.064-.162.095-.325.095-.49 0-.207-.02-.396-.066-.566-.044-.17-.136-.315-.275-.435-.14-.12-.34-.214-.603-.282-.262-.068-.613-.102-1.053-.102v-1.055c.363-.004.666-.038.906-.102s.43-.153.572-.267c.143-.114.24-.25.297-.41.056-.16.083-.337.083-.53 0-.407-.113-.717-.342-.93-.227-.21-.53-.317-.91-.317-.177 0-.34.024-.486.074-.147.05-.28.12-.4.21-.116.09-.216.195-.296.315-.08.12-.14.25-.18.395-.068.184-.157.306-.268.366-.11.06-.265.075-.465.043l-.78-.138c.06-.416.177-.78.35-1.095s.386-.576.644-.786.554-.368.888-.474.694-.16 1.077-.16zM242.03 143.308v.642c0 .192-.02.347-.06.465-.04.118-.08.217-.12.297l-3.287 6.768c-.067.14-.164.26-.288.357s-.29.147-.498.147h-1.074l3.354-6.63c.07-.136.146-.26.22-.375.073-.115.156-.224.248-.328h-4.146c-.093 0-.173-.034-.24-.102-.068-.068-.103-.148-.103-.24v-1.002h5.994z"/></g><g fill="#E81F64"><path d="M147.947 125.713h1.092v.858c0 .08-.027.15-.08.208-.05.058-.125.087-.22.087h-.793v2.118h-1.29v-2.118h-3.66c-.1 0-.188-.03-.264-.093-.076-.062-.124-.14-.144-.23l-.157-.75 4.11-5.49h1.404v5.41zm-1.29-2.838c0-.268.018-.562.054-.882l-2.693 3.72h2.64v-2.838zM154.907 125.713H156v.858c0 .08-.027.15-.08.208-.05.058-.125.087-.22.087h-.793v2.118h-1.29v-2.118h-3.66c-.1 0-.188-.03-.264-.093-.076-.062-.124-.14-.144-.23l-.157-.75 4.11-5.49h1.404v5.41zm-1.29-2.838c0-.268.018-.562.054-.882l-2.693 3.72h2.64v-2.838z"/></g><g fill="#E81F64"><path d="M156.047 234.873h1.758v-5.058c0-.196.006-.4.018-.618l-1.248 1.044c-.072.057-.143.092-.213.105-.07.015-.136.016-.198.004s-.117-.034-.165-.064c-.05-.03-.085-.063-.11-.1l-.467-.643 2.646-2.25h1.217v7.578h1.56v1.11h-4.8v-1.107zM168.257 231.646c0 .756-.08 1.413-.243 1.97s-.386 1.02-.672 1.385c-.286.364-.624.636-1.014.814s-.81.268-1.263.268c-.452 0-.87-.09-1.257-.268s-.72-.45-1.005-.813c-.284-.364-.506-.825-.666-1.383-.16-.558-.24-1.215-.24-1.97 0-.762.08-1.42.24-1.975.16-.557.382-1.017.666-1.38.284-.364.62-.636 1.005-.814s.805-.268 1.257-.268c.452 0 .873.09 1.263.268s.728.45 1.014.813c.286.365.51.825.672 1.382.162.556.243 1.213.243 1.974zm-1.53 0c0-.628-.046-1.147-.138-1.56-.093-.412-.216-.74-.37-.984s-.33-.415-.53-.514c-.2-.098-.41-.146-.625-.146-.212 0-.417.05-.615.146-.198.1-.373.27-.525.514-.152.244-.273.572-.363.984-.09.412-.135.932-.135 1.56s.045 1.147.135 1.56c.09.412.21.74.363.984.152.244.327.415.525.514.198.098.403.146.615.146.216 0 .424-.05.624-.146.2-.1.376-.27.53-.514.154-.244.277-.572.37-.984.09-.413.137-.933.137-1.56z"/></g><g fill="#E81F64"><path d="M67.55 179.71c.4 0 .765.06 1.097.178.332.118.616.285.852.5.235.217.42.477.55.78.133.305.2.643.2 1.015 0 .32-.048.616-.142.888-.094.273-.22.533-.378.78-.158.25-.343.49-.555.72-.212.232-.434.47-.666.71l-1.963 1.997c.192-.057.38-.1.567-.13.186-.03.363-.044.53-.044h2.227c.16 0 .288.045.382.135.094.09.14.21.14.357v.888h-5.95v-.492c0-.1.02-.203.062-.314.042-.11.11-.21.2-.297l2.635-2.64c.22-.225.416-.44.59-.643.174-.204.32-.406.435-.606.116-.2.205-.402.267-.608s.093-.423.093-.65c0-.21-.03-.392-.09-.55-.06-.158-.145-.29-.255-.4-.11-.107-.242-.188-.396-.242-.154-.054-.327-.08-.52-.08-.175 0-.338.024-.488.074-.15.05-.283.12-.4.21-.115.09-.213.195-.293.315-.08.12-.14.25-.18.395-.068.184-.156.306-.264.366s-.265.075-.47.043l-.78-.138c.06-.416.177-.78.35-1.095.17-.314.386-.576.644-.786.258-.21.554-.368.888-.474s.693-.16 1.077-.16zM77.497 179.808v.642c0 .192-.02.347-.06.465-.04.118-.08.217-.12.297l-3.288 6.768c-.07.14-.165.26-.29.356-.123.1-.29.147-.497.147H72.17l3.353-6.63c.072-.136.145-.26.22-.375.073-.114.156-.223.248-.327h-4.145c-.092 0-.172-.033-.24-.1-.068-.07-.102-.15-.102-.24v-1.003h5.994z"/></g><g fill="#E81F64"><path d="M88.528 288.744h1.758v-5.058c0-.196.006-.4.018-.618l-1.248 1.044c-.072.056-.143.09-.213.104-.07.015-.136.016-.198.004s-.117-.033-.165-.063-.084-.063-.108-.1l-.468-.643 2.646-2.25h1.218v7.578h1.56v1.11h-4.8v-1.108zM99.64 286.584h1.092v.858c0 .08-.026.15-.078.207-.052.057-.126.086-.222.086h-.792v2.118h-1.29v-2.118h-3.66c-.1 0-.188-.03-.264-.093-.076-.062-.124-.14-.144-.23l-.156-.75 4.11-5.49h1.404v5.41zm-1.29-2.838c0-.268.018-.562.054-.882l-2.694 3.72h2.64v-2.838z"/></g><g fill="#58595B"><path d="M140.032 93.297h1.575c.164 0 .3.04.41.116.11.077.183.18.22.312l1.723 6.055c.038.15.074.312.108.487.035.175.07.36.11.556.036-.196.077-.38.122-.556.044-.175.092-.337.143-.487l1.988-6.055c.038-.107.112-.206.22-.294.11-.088.245-.132.404-.132h.553c.164 0 .296.04.4.12.102.078.18.18.23.307l1.98 6.055c.1.29.188.623.267 1 .06-.368.128-.7.203-1l1.722-6.055c.027-.117.098-.217.212-.3s.25-.127.41-.127h1.477l-3.144 10.122h-1.7l-2.213-6.916c-.033-.088-.063-.184-.09-.287-.03-.103-.057-.21-.085-.322-.023.112-.05.22-.08.322-.03.103-.06.2-.088.287l-2.233 6.916h-1.708l-3.138-10.123zM157.644 103.42h-1.89V93.296h1.89v10.122z"/></g><g fill="#58595B"><path d="M233.22 122.24c.066.16.133.322.198.485.065-.172.133-.34.203-.5s.146-.316.225-.465l2.99-5.607c.036-.07.076-.126.118-.168s.088-.073.137-.09.104-.03.164-.036c.06-.005.133-.008.217-.008h1.422v10.122h-1.658v-6.538c0-.12.003-.254.01-.4.008-.144.018-.29.032-.44l-3.06 5.74c-.145.275-.366.413-.665.413h-.265c-.3 0-.52-.14-.665-.414l-3.094-5.76c.014.153.025.303.035.45.01.148.015.284.015.41v6.538h-1.66v-10.122h1.422c.084 0 .156.002.217.007.06.004.116.016.165.034s.092.05.132.09.078.1.115.17l3.03 5.62c.08.15.153.304.222.465zM243.035 125.974h-1.89v-10.122h1.89v10.122z"/></g></svg>