<svg xmlns="http://www.w3.org/2000/svg" width="375" height="367" viewBox="0 0 375 367"><path fill="none" stroke="#D9D9D8" stroke-linejoin="round" stroke-miterlimit="10" d="M27.054 287.424H373.67M27.054 233.996H373.67"/><path fill="none" stroke="#D9D9D8" stroke-width=".5" stroke-miterlimit="10" d="M27.054 179.917H373.67M27.054 126.49H373.67M27.054 73.062H373.67M27.054 19.635H373.67"/><path fill-rule="evenodd" clip-rule="evenodd" fill="#80CBC4" d="M26.9 70.406l8.06 14.67 8.06 1.398 8.06 7.22 8.06-14.105 8.06 2.27 8.06-7.937 8.06-.236 8.06 2.877 8.06 1.325 8.06-.184 8.062 30.253 8.06 12.806 8.06 3.673 8.06 42.302 8.06-24.393 8.06-1.194 8.06 8.752 8.06-.442 8.06.757 8.06 40.434 8.06.073 8.062 9.01 8.06.487 8.06-1.595 8.06-.368 8.06 5.715 8.06.942 8.06.19 8.06-3.01 8.06-.012 8.06 5.55 8.06-3.4 8.062 3.37 8.06-1.222 8.06.646 8.06-1.437 8.06 5.944 8.06 1.663 8.06 4.042 8.06 10.92 8.06-3.265 8.06-4.423 8.06.69v119.634H26.9V70.407"/><path fill="none" stroke="#9B9B9B" stroke-width=".5" stroke-linejoin="round" stroke-miterlimit="10" d="M27.054 340.842H373.67M27.236 338.842v3.365M67.33 338.842v3.365M107.603 338.842v3.365M147.877 338.842v3.365M188.152 338.842v3.365M228.427 338.842v3.365M268.7 338.842v3.365M308.975 338.842v3.365M349.25 338.842v3.365"/><g fill="#4E4E4E"><path d="M10.666 339.912c0 .627-.067 1.168-.203 1.627-.135.458-.32.837-.552 1.136-.232.3-.508.523-.827.672-.318.146-.66.22-1.022.22-.366 0-.707-.073-1.02-.22-.316-.148-.59-.37-.824-.672-.233-.3-.417-.678-.55-1.137s-.2-1-.2-1.628.067-1.17.2-1.63c.133-.46.316-.84.55-1.144.233-.3.508-.525.823-.672s.655-.22 1.02-.22c.364 0 .705.073 1.023.22s.594.37.828.672c.234.303.418.684.553 1.143.135.462.203 1.005.203 1.632zm-.925 0c0-.547-.045-1.006-.137-1.377-.092-.373-.215-.672-.37-.898-.155-.227-.334-.39-.538-.488-.203-.1-.415-.147-.635-.147s-.432.05-.635.146c-.203.1-.38.26-.535.487s-.276.525-.368.898c-.092.37-.137.83-.137 1.377s.045 1.004.137 1.375c.092.37.214.668.368.895s.332.39.535.488c.204.098.415.146.635.146s.432-.05.635-.146c.204-.1.383-.262.538-.488.155-.227.278-.525.37-.895.092-.37.138-.828.138-1.375zM14.775 338.057c0 .28-.043.53-.13.752-.087.222-.203.407-.348.56s-.313.268-.505.348-.394.12-.607.12c-.223 0-.432-.04-.625-.12s-.36-.195-.502-.348-.252-.338-.333-.56c-.08-.222-.12-.474-.12-.753 0-.287.04-.54.12-.766.08-.222.19-.41.333-.563.142-.152.31-.27.502-.35s.402-.12.625-.12c.227 0 .437.04.63.12s.362.197.505.35c.144.154.255.342.335.564.08.226.12.48.12.767zm2.536-1.58c.034-.04.073-.074.12-.105.044-.03.104-.045.18-.045h.646l-5.24 7.02c-.03.044-.068.08-.115.105-.045.027-.102.04-.17.04h-.654l5.235-7.015zm-3.225 1.58c0-.22-.023-.406-.07-.56-.047-.153-.11-.28-.192-.378-.082-.1-.178-.17-.288-.214-.11-.043-.227-.064-.35-.064-.124 0-.238.02-.345.064-.106.043-.2.115-.28.213s-.144.224-.19.376c-.047.154-.07.34-.07.56 0 .218.023.4.07.554.046.152.11.275.19.37.08.095.173.163.28.204.107.043.222.063.345.063.123 0 .24-.02.35-.063.11-.04.206-.11.288-.205.082-.095.146-.218.192-.37.047-.153.07-.337.07-.553zm4.656 3.744c0 .282-.042.532-.13.75-.085.222-.2.407-.346.56s-.313.268-.505.348c-.192.08-.395.12-.608.12-.227 0-.436-.04-.627-.12-.19-.08-.358-.195-.5-.348s-.252-.338-.333-.56c-.08-.218-.12-.468-.12-.75 0-.284.04-.54.12-.765.08-.227.19-.416.333-.568.142-.154.31-.27.5-.35.192-.08.4-.12.627-.12.224 0 .433.04.627.12.194.08.362.195.504.35.142.152.253.342.335.568.08.225.12.48.12.766zm-.69 0c0-.218-.023-.405-.07-.562-.047-.154-.11-.28-.192-.377-.082-.095-.178-.165-.288-.208s-.227-.066-.35-.066c-.123 0-.24.023-.347.066-.108.043-.203.113-.283.21-.08.097-.143.222-.188.376-.045.156-.067.344-.067.563 0 .218.022.4.067.552s.107.273.188.367c.08.095.174.163.283.204.108.043.224.063.347.063.124 0 .24-.02.35-.063.11-.04.206-.11.288-.205.082-.095.146-.218.192-.368s.07-.334.07-.55z"/></g><g fill="#4E4E4E"><path d="M1.076 289.277H2.61v-4.886c0-.14.006-.287.016-.443l-1.275 1.095c-.042.037-.085.06-.13.067-.042.008-.082.01-.12.002s-.07-.02-.102-.04c-.032-.02-.056-.042-.072-.065l-.28-.385 2.135-1.845h.726v6.5h1.41v.68h-3.84v-.68zM11.326 286.377c0 .627-.067 1.17-.203 1.628-.135.458-.32.837-.552 1.137-.232.3-.508.523-.827.67-.318.147-.66.22-1.022.22-.366 0-.707-.072-1.02-.22-.316-.146-.59-.37-.824-.67-.233-.3-.417-.68-.55-1.137-.133-.46-.2-1-.2-1.628s.067-1.17.2-1.63.316-.84.55-1.143.508-.525.823-.673c.314-.145.655-.22 1.02-.22.364 0 .705.074 1.023.22.318.148.594.372.828.674s.418.683.553 1.143c.135.46.203 1.003.203 1.63zm-.925 0c0-.547-.045-1.006-.137-1.377-.092-.372-.215-.67-.37-.898-.155-.227-.334-.39-.538-.487-.203-.098-.415-.147-.635-.147s-.432.05-.635.147c-.203.1-.38.26-.535.487-.153.228-.276.526-.368.898-.092.37-.137.83-.137 1.377s.045 1.005.137 1.375.214.668.368.896c.153.227.332.39.535.487.204.098.415.147.635.147s.432-.05.635-.147c.204-.1.383-.26.538-.487.155-.228.278-.525.37-.896s.138-.828.138-1.375zM14.775 284.522c0 .28-.043.53-.13.752-.087.222-.203.408-.348.56-.145.152-.313.268-.505.348s-.394.12-.607.12c-.223 0-.432-.04-.625-.12s-.36-.195-.502-.347c-.142-.152-.252-.34-.333-.56s-.12-.474-.12-.753c0-.287.04-.542.12-.766.08-.223.19-.41.333-.564s.31-.27.502-.35.402-.12.625-.12c.227 0 .437.04.63.12s.362.196.505.35c.144.153.255.342.335.564.08.224.12.48.12.766zm2.536-1.58c.034-.04.073-.075.12-.105.044-.03.104-.045.18-.045h.646l-5.24 7.02c-.03.044-.068.08-.115.105-.045.026-.102.04-.17.04h-.654l5.235-7.015zm-3.225 1.58c0-.22-.023-.407-.07-.56-.047-.154-.11-.28-.192-.378-.082-.1-.178-.17-.288-.213-.11-.042-.227-.064-.35-.064-.124 0-.238.022-.345.065-.106.044-.2.115-.28.214-.08.098-.144.224-.19.377-.047.154-.07.34-.07.562 0 .216.023.4.07.552.046.152.11.275.19.37s.173.163.28.205c.107.04.222.062.345.062.123 0 .24-.02.35-.063.11-.043.206-.11.288-.206.082-.095.146-.218.192-.37.047-.15.07-.336.07-.552zm4.656 3.745c0 .28-.042.53-.13.75-.085.22-.2.406-.346.558-.145.152-.313.268-.505.348-.192.08-.395.12-.608.12-.227 0-.436-.04-.627-.12-.19-.08-.358-.195-.5-.348-.142-.15-.252-.337-.333-.558-.08-.22-.12-.47-.12-.75 0-.286.04-.542.12-.767.08-.226.19-.415.333-.568s.31-.27.5-.35c.192-.08.4-.12.627-.12.224 0 .433.04.627.12.194.08.362.196.504.35.142.153.253.343.335.568.08.225.12.48.12.767zm-.69 0c0-.22-.023-.407-.07-.563-.047-.154-.11-.28-.192-.377s-.178-.167-.288-.21-.227-.065-.35-.065c-.123 0-.24.022-.347.065-.108.043-.203.113-.283.21s-.143.223-.188.377c-.045.155-.067.343-.067.563 0 .217.022.4.067.55.045.15.107.273.188.368s.174.163.283.205c.108.042.224.063.347.063.124 0 .24-.02.35-.063s.206-.11.288-.205.146-.218.192-.367c.047-.15.07-.335.07-.55z"/></g><g fill="#4E4E4E"><path d="M2.78 229.178c.304 0 .587.045.85.135.264.09.493.22.686.393.193.172.345.38.455.627.11.246.166.527.166.84 0 .268-.04.516-.12.742-.08.23-.188.447-.325.652-.136.207-.293.41-.472.605-.178.197-.367.395-.567.596l-1.89 1.93c.134-.037.27-.066.406-.088s.268-.03.395-.03h2.4c.098 0 .174.026.23.083s.086.13.086.22v.54H.296v-.305c0-.063.013-.13.04-.195.027-.066.068-.127.125-.184l2.296-2.308c.19-.193.363-.38.52-.557.156-.178.29-.357.4-.537s.195-.363.255-.55c.06-.183.09-.38.09-.59 0-.21-.032-.396-.1-.554-.066-.158-.157-.29-.272-.393-.115-.103-.25-.18-.407-.23-.156-.052-.324-.08-.504-.08-.184 0-.352.028-.505.08-.152.056-.288.13-.406.224-.12.096-.218.21-.297.338-.08.13-.137.273-.17.43-.04.117-.094.195-.162.232-.068.04-.165.05-.288.033l-.465-.08c.046-.326.137-.615.272-.867s.305-.463.51-.633.44-.3.703-.387c.262-.09.547-.132.854-.132zM11.326 232.842c0 .627-.067 1.17-.203 1.63-.135.456-.32.835-.552 1.136s-.508.523-.827.67-.66.22-1.022.22c-.366 0-.707-.073-1.02-.22s-.59-.37-.824-.67-.417-.68-.55-1.137c-.133-.458-.2-1-.2-1.628s.067-1.17.2-1.63c.133-.46.316-.84.55-1.142.233-.303.508-.525.823-.674.314-.146.655-.22 1.02-.22.364 0 .705.073 1.023.22.318.148.594.37.828.674.234.3.418.682.553 1.143.135.46.203 1.002.203 1.63zm-.925 0c0-.547-.045-1.006-.137-1.377s-.215-.67-.37-.898c-.155-.227-.334-.39-.538-.486-.203-.097-.415-.147-.635-.147s-.432.05-.635.148c-.203.1-.38.26-.535.487-.153.23-.276.527-.368.898s-.137.83-.137 1.377.045 1.006.137 1.375c.092.37.214.668.368.896.153.227.332.39.535.486.204.097.415.147.635.147s.432-.05.635-.148c.204-.1.383-.26.538-.487.155-.23.278-.525.37-.896.092-.37.138-.828.138-1.375zM14.775 230.988c0 .28-.043.53-.13.752-.087.22-.203.408-.348.56-.145.15-.313.267-.505.347s-.394.12-.607.12c-.223 0-.432-.04-.625-.12s-.36-.195-.502-.346c-.142-.15-.252-.34-.333-.56-.08-.223-.12-.473-.12-.752 0-.287.04-.543.12-.766s.19-.412.333-.564c.142-.154.31-.27.502-.352s.402-.12.625-.12c.227 0 .437.04.63.12s.362.197.505.352c.144.152.255.342.335.564.08.223.12.48.12.766zm2.536-1.58c.034-.04.073-.076.12-.105.044-.03.104-.045.18-.045h.646l-5.24 7.02c-.03.043-.068.078-.115.105-.045.025-.102.04-.17.04h-.654l5.235-7.015zm-3.225 1.58c0-.22-.023-.408-.07-.56-.047-.155-.11-.28-.192-.378-.082-.1-.178-.17-.288-.213-.11-.043-.227-.066-.35-.066-.124 0-.238.024-.345.067-.106.043-.2.113-.28.213-.08.098-.144.223-.19.377-.047.152-.07.34-.07.56 0 .216.023.4.07.552.046.15.11.274.19.37.08.094.173.162.28.205.107.04.222.063.345.063.123 0 .24-.02.35-.063.11-.043.206-.11.288-.205.082-.096.146-.22.192-.37.047-.15.07-.337.07-.552zm4.656 3.744c0 .28-.042.53-.13.75-.085.22-.2.406-.346.557-.145.15-.313.267-.505.347-.192.08-.395.12-.608.12-.227 0-.436-.04-.627-.12-.19-.08-.358-.195-.5-.348-.142-.15-.252-.337-.333-.558s-.12-.47-.12-.75c0-.287.04-.543.12-.768s.19-.414.333-.568c.142-.152.31-.27.5-.35.192-.08.4-.12.627-.12.224 0 .433.04.627.12.194.08.362.197.504.35.142.154.253.344.335.568.08.225.12.48.12.768zm-.69 0c0-.22-.023-.408-.07-.563s-.11-.282-.192-.378c-.082-.098-.178-.168-.288-.21s-.227-.065-.35-.065c-.123 0-.24.02-.347.064-.108.044-.203.114-.283.212-.08.096-.143.223-.188.377s-.067.34-.067.562c0 .217.022.4.067.55.045.15.107.272.188.368.08.094.174.162.283.205.108.04.224.063.347.063.124 0 .24-.02.35-.063.11-.043.206-.11.288-.205.082-.096.146-.22.192-.367.047-.15.07-.334.07-.55z"/></g><g fill="#4E4E4E"><path d="M2.816 175.642c.303 0 .583.043.84.13.256.087.478.21.663.37.184.16.328.354.43.58.105.227.156.48.156.755 0 .227-.03.43-.087.607-.06.18-.143.335-.25.47-.11.135-.24.25-.394.342-.153.094-.325.168-.515.225.468.125.818.33 1.054.62.235.29.353.654.353 1.09 0 .33-.063.628-.188.89s-.297.488-.514.673-.47.327-.757.425c-.29.098-.6.147-.93.147-.38 0-.704-.047-.974-.143s-.498-.226-.685-.393c-.186-.168-.34-.365-.46-.593-.12-.23-.22-.476-.304-.743l.385-.16c.1-.043.2-.055.293-.035.095.02.164.074.208.164.044.093.1.205.164.335.065.13.154.254.268.374.113.12.257.222.433.305.175.082.397.124.667.124.25 0 .47-.04.657-.123.187-.08.344-.187.47-.316s.218-.275.28-.435c.064-.16.096-.32.096-.476 0-.193-.025-.37-.075-.53-.05-.16-.142-.298-.28-.415s-.323-.21-.562-.276c-.238-.066-.544-.1-.917-.1v-.645c.308-.004.568-.038.783-.1.215-.064.39-.15.525-.26.135-.11.233-.243.295-.396.062-.153.092-.323.092-.51 0-.207-.032-.387-.098-.54-.065-.153-.154-.28-.267-.38-.114-.1-.248-.175-.403-.225-.155-.05-.322-.076-.502-.076s-.348.027-.502.08-.292.127-.41.222-.217.208-.297.338c-.08.13-.137.273-.17.43-.043.117-.098.194-.163.232-.065.04-.16.05-.282.033l-.464-.08c.047-.328.137-.617.27-.868.133-.252.303-.463.508-.633.205-.17.44-.3.705-.388.263-.085.55-.13.856-.13zM11.326 179.307c0 .627-.067 1.17-.203 1.627-.135.458-.32.837-.552 1.138-.232.3-.508.523-.827.67s-.66.22-1.022.22c-.366 0-.707-.074-1.02-.22s-.59-.37-.824-.67c-.233-.3-.417-.68-.55-1.138-.133-.458-.2-1-.2-1.627 0-.626.067-1.17.2-1.63s.316-.84.55-1.143.508-.526.823-.672c.314-.147.655-.22 1.02-.22.364 0 .705.073 1.023.22.318.146.594.37.828.672s.418.683.553 1.143c.135.46.203 1.004.203 1.63zm-.925 0c0-.546-.045-1.006-.137-1.377s-.215-.67-.37-.897c-.155-.227-.334-.39-.538-.487-.203-.1-.415-.148-.635-.148s-.432.05-.635.148c-.203.098-.38.26-.535.487s-.276.526-.368.897-.137.83-.137 1.377.045 1.005.137 1.375.214.668.368.895.332.39.535.488c.204.098.415.147.635.147s.432-.05.635-.147c.204-.1.383-.26.538-.488.155-.227.278-.525.37-.895s.138-.828.138-1.375zM14.775 177.452c0 .28-.043.53-.13.752-.087.222-.203.41-.348.56-.145.152-.313.268-.505.348s-.394.12-.607.12c-.223 0-.432-.04-.625-.12s-.36-.196-.502-.348c-.142-.15-.252-.338-.333-.56s-.12-.472-.12-.752c0-.287.04-.542.12-.765.08-.223.19-.412.333-.565s.31-.27.502-.35c.193-.08.402-.12.625-.12.227 0 .437.04.63.12.193.08.362.197.505.35.144.153.255.342.335.565.08.224.12.48.12.765zm2.536-1.58c.034-.04.073-.075.12-.105.044-.03.104-.045.18-.045h.646l-5.24 7.02c-.03.043-.068.08-.115.105-.045.027-.102.04-.17.04h-.654l5.235-7.015zm-3.225 1.58c0-.22-.023-.407-.07-.56-.047-.153-.11-.28-.192-.377-.082-.098-.178-.17-.288-.212-.11-.043-.227-.065-.35-.065-.124 0-.238.02-.345.065-.106.043-.2.114-.28.212-.08.1-.144.224-.19.377-.047.153-.07.34-.07.56 0 .217.023.4.07.553.046.15.11.275.19.37.08.095.173.164.28.205.107.042.222.063.345.063.123 0 .24-.02.35-.063.11-.042.206-.11.288-.205.082-.095.146-.218.192-.37.047-.152.07-.336.07-.553zm4.656 3.745c0 .28-.042.53-.13.75-.085.22-.2.406-.346.558-.145.15-.313.267-.505.347-.192.08-.395.12-.608.12-.227 0-.436-.04-.627-.12-.19-.08-.358-.196-.5-.347-.142-.152-.252-.338-.333-.558-.08-.22-.12-.47-.12-.75 0-.287.04-.542.12-.768s.19-.415.333-.568.31-.27.5-.35c.192-.08.4-.12.627-.12.224 0 .433.04.627.12.194.08.362.197.504.35.142.153.253.342.335.567.08.225.12.48.12.767zm-.69 0c0-.22-.023-.408-.07-.563-.047-.155-.11-.28-.192-.377s-.178-.167-.288-.21c-.11-.043-.227-.065-.35-.065-.123 0-.24.02-.347.065-.108.043-.203.113-.283.21s-.143.222-.188.377c-.045.155-.067.342-.067.563 0 .217.022.4.067.55s.107.272.188.368c.08.095.174.163.283.205.108.042.224.063.347.063.124 0 .24-.02.35-.063.11-.042.206-.11.288-.205.082-.095.146-.218.192-.368s.07-.333.07-.55z"/></g><g fill="#4E4E4E"><path d="M4.256 126.768H5.34v.51c0 .054-.015.1-.047.135s-.08.055-.147.055h-.89v1.885h-.78v-1.885H.296c-.067 0-.125-.02-.173-.058-.048-.04-.08-.086-.092-.143l-.09-.455 3.486-4.625h.83v4.58zm-.78-2.955c0-.086.002-.18.008-.282.005-.1.016-.205.032-.312l-2.61 3.55h2.57v-2.955zM11.326 125.773c0 .627-.067 1.17-.203 1.627-.135.458-.32.837-.552 1.138-.232.3-.508.523-.827.67s-.66.22-1.022.22c-.366 0-.707-.074-1.02-.22s-.59-.37-.824-.67c-.233-.3-.417-.68-.55-1.138-.133-.458-.2-1-.2-1.627 0-.626.067-1.17.2-1.63s.316-.84.55-1.143.508-.526.823-.672c.314-.147.655-.22 1.02-.22.364 0 .705.073 1.023.22.318.146.594.37.828.672s.418.683.553 1.143c.135.46.203 1.003.203 1.63zm-.925 0c0-.546-.045-1.006-.137-1.377s-.215-.67-.37-.897c-.155-.228-.334-.39-.538-.488-.203-.1-.415-.148-.635-.148s-.432.05-.635.148c-.203.098-.38.26-.535.487s-.276.525-.368.896-.137.83-.137 1.377.045 1.005.137 1.375.214.668.368.895.332.39.535.488c.204.1.415.148.635.148s.432-.05.635-.147c.204-.098.383-.26.538-.487.155-.227.278-.525.37-.895s.138-.828.138-1.375zM14.775 123.918c0 .28-.043.53-.13.752-.087.222-.203.41-.348.56-.145.152-.313.268-.505.348s-.394.12-.607.12c-.223 0-.432-.04-.625-.12s-.36-.196-.502-.348c-.142-.15-.252-.338-.333-.56s-.12-.472-.12-.752c0-.287.04-.542.12-.765.08-.223.19-.412.333-.565s.31-.27.502-.35c.193-.08.402-.12.625-.12.227 0 .437.04.63.12.193.08.362.197.505.35.144.153.255.342.335.565.08.223.12.478.12.765zm2.536-1.58c.034-.04.073-.075.12-.105.044-.03.104-.045.18-.045h.646l-5.24 7.02c-.03.043-.068.08-.115.105-.045.027-.102.04-.17.04h-.654l5.235-7.015zm-3.225 1.58c0-.22-.023-.407-.07-.56-.047-.153-.11-.28-.192-.377-.082-.097-.178-.168-.288-.21-.11-.044-.227-.066-.35-.066-.124 0-.238.02-.345.065-.106.042-.2.113-.28.21-.08.1-.144.225-.19.378-.047.153-.07.34-.07.56 0 .217.023.4.07.553.046.152.11.276.19.37.08.096.173.165.28.206.107.042.222.063.345.063.123 0 .24-.022.35-.064.11-.042.206-.11.288-.205.082-.094.146-.217.192-.37.047-.15.07-.335.07-.552zm4.656 3.745c0 .28-.042.53-.13.75-.085.22-.2.406-.346.558-.145.152-.313.268-.505.348-.192.08-.395.12-.608.12-.227 0-.436-.04-.627-.12-.19-.08-.358-.196-.5-.347-.142-.15-.252-.337-.333-.557-.08-.22-.12-.47-.12-.75 0-.287.04-.542.12-.768s.19-.414.333-.567.31-.27.5-.35c.192-.08.4-.12.627-.12.224 0 .433.04.627.12.194.08.362.197.504.35.142.153.253.342.335.567.08.226.12.48.12.768zm-.69 0c0-.22-.023-.408-.07-.563-.047-.155-.11-.28-.192-.377s-.178-.167-.288-.21c-.11-.043-.227-.065-.35-.065-.123 0-.24.02-.347.065-.108.043-.203.113-.283.21s-.143.222-.188.377c-.045.155-.067.342-.067.563 0 .217.022.4.067.55s.107.272.188.368c.08.096.174.164.283.206.108.042.224.063.347.063.124 0 .24-.022.35-.064.11-.042.206-.11.288-.205.082-.094.146-.217.192-.367s.07-.333.07-.55z"/></g><g fill="#4E4E4E"><path d="M4.736 69.043c0 .126-.04.23-.118.313s-.212.123-.402.123h-2.25l-.33 1.88c.19-.044.37-.075.538-.094.168-.018.333-.027.492-.027.374 0 .704.054.99.164s.526.262.717.455c.192.192.337.42.435.684s.147.55.147.86c0 .38-.066.724-.197 1.03-.132.307-.313.57-.545.787-.232.22-.504.387-.818.503-.313.117-.65.175-1.015.175-.21 0-.412-.02-.605-.063-.193-.042-.375-.098-.542-.167-.168-.07-.324-.15-.468-.24-.143-.09-.27-.185-.38-.285l.275-.38c.06-.086.138-.13.235-.13.067 0 .142.026.225.078s.185.11.305.173c.12.063.26.12.422.172.162.052.354.078.578.078.25 0 .475-.04.675-.12.2-.08.372-.194.515-.342.143-.147.253-.325.33-.532.077-.207.115-.438.115-.695 0-.223-.032-.425-.097-.605s-.164-.333-.295-.46c-.13-.126-.295-.225-.492-.295-.197-.07-.427-.105-.69-.105-.18 0-.368.015-.563.045-.195.03-.395.078-.598.145l-.56-.165.575-3.35h3.395v.39zM11.326 72.238c0 .627-.067 1.17-.203 1.627-.135.458-.32.837-.552 1.138-.232.3-.508.523-.827.67s-.66.22-1.022.22c-.366 0-.707-.074-1.02-.22s-.59-.37-.824-.67c-.233-.3-.417-.68-.55-1.138-.133-.458-.2-1-.2-1.627 0-.626.067-1.17.2-1.63s.316-.84.55-1.143.508-.526.823-.672c.314-.147.655-.22 1.02-.22.364 0 .705.073 1.023.22.318.146.594.37.828.672s.418.683.553 1.143c.135.46.203 1.004.203 1.63zm-.925 0c0-.546-.045-1.006-.137-1.377s-.215-.67-.37-.896c-.155-.227-.334-.39-.538-.487-.203-.1-.415-.148-.635-.148s-.432.048-.635.147c-.203.098-.38.26-.535.487s-.276.526-.368.897-.137.832-.137 1.378c0 .547.045 1.005.137 1.375s.214.668.368.895.332.39.535.488c.204.098.415.147.635.147s.432-.05.635-.147c.204-.1.383-.26.538-.488.155-.227.278-.525.37-.895s.138-.828.138-1.375zM14.775 70.383c0 .28-.043.53-.13.752-.087.222-.203.41-.348.56-.145.152-.313.268-.505.348s-.394.12-.607.12c-.223 0-.432-.04-.625-.12s-.36-.196-.502-.348c-.142-.15-.252-.338-.333-.56s-.12-.472-.12-.752c0-.287.04-.542.12-.765.08-.223.19-.412.333-.565s.31-.27.502-.35c.193-.08.402-.12.625-.12.227 0 .437.04.63.12.193.08.362.197.505.35.144.153.255.342.335.565.08.224.12.48.12.765zm2.536-1.58c.034-.04.073-.075.12-.105.044-.03.104-.045.18-.045h.646l-5.24 7.02c-.03.043-.068.08-.115.105-.045.027-.102.04-.17.04h-.654l5.235-7.015zm-3.225 1.58c0-.22-.023-.407-.07-.56-.047-.153-.11-.28-.192-.377-.082-.098-.178-.17-.288-.212-.11-.043-.227-.065-.35-.065-.124 0-.238.02-.345.064-.106.043-.2.114-.28.212-.08.1-.144.224-.19.377-.047.153-.07.34-.07.56 0 .217.023.4.07.553.046.15.11.275.19.37.08.095.173.164.28.205.107.043.222.064.345.064.123 0 .24-.02.35-.063.11-.04.206-.11.288-.204.082-.095.146-.218.192-.37.047-.152.07-.336.07-.553zm4.656 3.745c0 .28-.042.53-.13.75-.085.22-.2.406-.346.558-.145.15-.313.267-.505.347-.192.08-.395.12-.608.12-.227 0-.436-.04-.627-.12-.19-.08-.358-.196-.5-.347-.142-.152-.252-.338-.333-.558-.08-.22-.12-.47-.12-.75 0-.287.04-.542.12-.768s.19-.414.333-.567.31-.27.5-.35c.192-.08.4-.12.627-.12.224 0 .433.04.627.12.194.08.362.197.504.35.142.153.253.342.335.567.08.226.12.482.12.768zm-.69 0c0-.22-.023-.408-.07-.563-.047-.155-.11-.28-.192-.377s-.178-.167-.288-.21c-.11-.043-.227-.065-.35-.065-.123 0-.24.02-.347.065-.108.043-.203.113-.283.21s-.143.222-.188.377c-.045.155-.067.342-.067.563 0 .217.022.4.067.55s.107.272.188.368c.08.095.174.163.283.205.108.043.224.064.347.064.124 0 .24-.02.35-.063.11-.04.206-.11.288-.204.082-.095.146-.218.192-.368s.07-.333.07-.55z"/></g><g fill="#4E4E4E"><path d="M2.196 17.804c-.067.08-.128.158-.185.235s-.112.15-.17.224c.17-.117.358-.208.564-.272s.427-.098.667-.098c.29 0 .564.048.82.143.258.095.482.233.673.415.192.182.344.405.458.67s.17.567.17.908c0 .33-.06.637-.18.92s-.287.53-.5.74c-.216.21-.475.375-.776.495-.302.12-.634.18-.998.18-.36 0-.687-.058-.98-.172-.293-.115-.542-.278-.748-.49-.205-.21-.363-.468-.475-.77s-.167-.64-.167-1.013c0-.313.07-.647.208-1.002s.36-.734.663-1.137l1.82-2.444c.047-.06.11-.11.192-.152.08-.042.175-.063.282-.063h.79l-2.126 2.684zm-.975 2.27c0 .23.034.44.1.63.067.19.165.354.293.49s.285.242.47.317.396.113.633.113c.24 0 .458-.038.652-.115s.362-.184.5-.32.245-.298.32-.485c.075-.187.113-.39.113-.61 0-.233-.036-.444-.11-.632-.073-.187-.177-.348-.312-.48-.135-.13-.296-.23-.483-.3-.187-.07-.392-.106-.615-.106-.24 0-.457.04-.65.123-.193.082-.358.19-.493.33-.135.138-.238.298-.31.48s-.106.37-.106.567zM11.326 18.704c0 .627-.067 1.17-.203 1.627-.135.46-.32.838-.552 1.14-.232.3-.508.522-.827.67s-.66.22-1.022.22c-.366 0-.707-.075-1.02-.22s-.59-.37-.824-.67c-.233-.3-.417-.68-.55-1.14-.133-.457-.2-1-.2-1.626 0-.626.067-1.17.2-1.63s.316-.84.55-1.143.508-.525.823-.67c.314-.148.655-.22 1.02-.22.364 0 .705.072 1.023.22.318.145.594.37.828.67s.418.684.553 1.144c.135.46.203 1.003.203 1.63zm-.925 0c0-.546-.045-1.006-.137-1.377s-.215-.67-.37-.897c-.155-.227-.334-.39-.538-.487-.203-.1-.415-.148-.635-.148s-.432.05-.635.148c-.203.098-.38.26-.535.487s-.276.526-.368.897-.137.83-.137 1.377.045 1.005.137 1.375.214.667.368.894.332.39.535.488c.204.098.415.147.635.147s.432-.05.635-.148c.204-.1.383-.26.538-.488.155-.227.278-.525.37-.895s.138-.83.138-1.376zM14.775 16.85c0 .28-.043.53-.13.75-.087.223-.203.41-.348.56-.145.153-.313.27-.505.35s-.394.12-.607.12c-.223 0-.432-.04-.625-.12s-.36-.197-.502-.35c-.142-.15-.252-.337-.333-.56s-.12-.47-.12-.75c0-.288.04-.543.12-.766.08-.223.19-.412.333-.565s.31-.27.502-.35c.193-.08.402-.12.625-.12.227 0 .437.04.63.12.193.08.362.196.505.35.144.152.255.34.335.564.08.223.12.478.12.765zm2.536-1.58c.034-.04.073-.076.12-.106.044-.03.104-.045.18-.045h.646l-5.24 7.02c-.03.042-.068.078-.115.104-.045.027-.102.04-.17.04h-.654l5.235-7.015zm-3.225 1.58c0-.22-.023-.408-.07-.56-.047-.154-.11-.28-.192-.378-.082-.098-.178-.17-.288-.212-.11-.043-.227-.065-.35-.065-.124 0-.238.02-.345.065-.106.043-.2.114-.28.212-.08.1-.144.224-.19.377-.047.152-.07.34-.07.56 0 .216.023.4.07.552.046.15.11.275.19.37.08.095.173.164.28.205.107.042.222.063.345.063.123 0 .24-.02.35-.063.11-.042.206-.11.288-.205.082-.095.146-.218.192-.37.047-.152.07-.337.07-.553zm4.656 3.744c0 .28-.042.53-.13.75-.085.22-.2.406-.346.558-.145.15-.313.267-.505.347-.192.08-.395.12-.608.12-.227 0-.436-.04-.627-.12-.19-.08-.358-.197-.5-.348-.142-.152-.252-.338-.333-.558-.08-.22-.12-.47-.12-.75 0-.287.04-.542.12-.768s.19-.414.333-.567.31-.27.5-.35c.192-.08.4-.12.627-.12.224 0 .433.04.627.12.194.08.362.196.504.35.142.152.253.34.335.566.08.225.12.48.12.768zm-.69 0c0-.22-.023-.408-.07-.563-.047-.154-.11-.28-.192-.376s-.178-.167-.288-.21c-.11-.043-.227-.065-.35-.065-.123 0-.24.02-.347.064-.108.043-.203.113-.283.21s-.143.222-.188.377c-.045.156-.067.343-.067.564 0 .217.022.4.067.55s.107.272.188.368c.08.095.174.163.283.205.108.042.224.063.347.063.124 0 .24-.02.35-.063.11-.042.206-.11.288-.205.082-.095.146-.218.192-.368s.07-.333.07-.55z"/></g><g fill="#4E4E4E"><path d="M16.263 356.347h1.535v-4.886c0-.14.005-.287.015-.443l-1.275 1.095c-.043.037-.086.06-.13.067-.043.008-.083.01-.12.002s-.07-.02-.103-.04c-.032-.02-.056-.042-.072-.065l-.28-.385 2.135-1.845h.725v6.5h1.41v.68h-3.84v-.68zM24.607 354.17c.073-.095.142-.187.205-.273.063-.087.123-.174.18-.26-.183.146-.39.258-.62.335-.23.076-.473.114-.73.114-.27 0-.526-.045-.767-.135-.242-.09-.455-.222-.638-.396-.184-.175-.33-.39-.438-.645s-.164-.55-.164-.88c0-.312.06-.605.175-.88.117-.272.28-.51.49-.714s.46-.363.75-.48c.29-.116.61-.175.956-.175.343 0 .655.058.935.17.28.114.52.272.72.477.2.203.355.446.464.73.108.282.162.596.162.94 0 .205-.02.4-.057.586-.04.186-.095.367-.166.545-.072.18-.16.355-.263.53s-.22.354-.35.537l-1.744 2.52c-.043.064-.105.115-.185.153s-.17.058-.274.058h-.82l2.18-2.855zm.825-2.18c0-.222-.036-.425-.107-.606s-.17-.336-.297-.463c-.127-.125-.277-.223-.453-.29-.175-.07-.367-.104-.578-.104-.22 0-.42.036-.6.107-.18.072-.335.17-.465.298-.13.127-.23.28-.3.456s-.105.37-.105.58c0 .227.032.43.098.607.065.178.158.33.28.452s.27.217.445.28c.175.063.37.095.588.095.24 0 .452-.04.637-.117s.34-.183.468-.313c.126-.13.223-.28.29-.45.066-.168.1-.345.1-.53zM31.957 349.86v.4c0 .114-.012.207-.037.28-.025.073-.05.136-.073.186l-2.97 5.984c-.043.087-.104.16-.18.223s-.178.093-.305.093h-.64l3.01-5.91c.043-.083.087-.16.132-.23.045-.07.096-.136.153-.2h-3.74c-.057 0-.106-.02-.15-.066s-.065-.096-.065-.152v-.605h4.865zM38.152 353.446c0 .627-.067 1.17-.203 1.628-.136.458-.32.837-.553 1.137-.233.302-.51.524-.828.672-.32.146-.66.22-1.023.22-.367 0-.708-.073-1.022-.22-.315-.147-.59-.37-.823-.67-.233-.3-.417-.68-.55-1.138-.133-.46-.2-1-.2-1.628s.067-1.17.2-1.63.316-.84.55-1.143.508-.525.823-.673c.315-.146.656-.22 1.022-.22.363 0 .704.073 1.022.22.317.147.593.37.827.673s.417.683.552 1.143c.135.46.202 1.003.202 1.63zm-.924 0c0-.547-.046-1.006-.138-1.377-.092-.373-.215-.672-.37-.9-.155-.226-.334-.388-.538-.486-.203-.098-.415-.147-.635-.147s-.432.05-.635.147c-.203.1-.38.26-.535.487-.153.23-.276.527-.368.9-.093.37-.138.83-.138 1.376s.045 1.005.137 1.375.213.67.367.897c.153.227.332.39.535.487.204.098.415.147.635.147s.432-.05.635-.146c.204-.1.383-.26.538-.487.155-.228.278-.525.37-.896s.138-.827.138-1.374z"/></g><g fill="#4E4E4E"><path d="M56.537 356.347h1.535v-4.886c0-.14.005-.287.015-.443l-1.275 1.095c-.043.037-.086.06-.13.067-.043.008-.083.01-.12.002s-.07-.02-.103-.04c-.033-.02-.057-.042-.073-.065l-.28-.385 2.135-1.845h.725v6.5h1.41v.68h-3.84v-.68zM64.88 354.17c.074-.095.143-.187.206-.273.063-.087.123-.174.18-.26-.183.146-.39.258-.62.335-.23.076-.473.114-.73.114-.27 0-.526-.045-.767-.135-.243-.09-.456-.222-.64-.396-.183-.175-.328-.39-.437-.645s-.163-.55-.163-.88c0-.312.06-.605.175-.88.116-.272.28-.51.49-.714s.46-.363.75-.48c.29-.116.608-.175.955-.175.343 0 .655.058.935.17.28.114.52.272.72.477.2.203.354.446.463.73.108.282.162.596.162.94 0 .205-.02.4-.057.586-.04.186-.094.367-.165.545-.072.18-.16.355-.263.53s-.22.354-.35.537l-1.745 2.52c-.043.064-.105.115-.185.153s-.172.058-.275.058h-.82l2.18-2.855zm.826-2.18c0-.222-.036-.425-.107-.606s-.172-.336-.298-.463c-.127-.125-.277-.223-.453-.29-.176-.07-.368-.104-.58-.104-.22 0-.42.036-.6.107-.18.072-.334.17-.464.298-.13.127-.23.28-.3.456s-.105.37-.105.58c0 .227.033.43.1.607.064.178.157.33.28.452s.27.217.444.28c.175.063.37.095.588.095.24 0 .452-.04.637-.117s.34-.183.467-.313c.126-.13.223-.28.29-.45.066-.168.1-.345.1-.53zM72.23 349.86v.4c0 .114-.01.207-.036.28-.025.073-.05.136-.073.186l-2.97 5.984c-.042.087-.103.16-.18.223s-.177.093-.304.093h-.64l3.01-5.91c.043-.083.087-.16.132-.23.045-.07.096-.136.153-.2h-3.74c-.056 0-.105-.02-.15-.066s-.064-.096-.064-.152v-.605h4.865zM77.836 350.25c0 .128-.04.232-.118.314-.078.082-.212.123-.402.123h-2.25l-.33 1.88c.19-.043.37-.074.538-.093.168-.018.333-.027.492-.027.374 0 .704.055.99.165s.526.262.717.455c.192.193.337.422.435.685.098.264.147.55.147.86 0 .38-.066.724-.197 1.03-.132.307-.313.57-.545.787-.232.218-.504.385-.818.502-.313.116-.65.175-1.015.175-.21 0-.412-.02-.605-.063-.193-.042-.375-.098-.542-.168-.168-.07-.324-.15-.468-.24-.143-.09-.27-.185-.38-.284l.275-.38c.06-.087.138-.13.235-.13.067 0 .142.025.225.077s.185.108.305.172c.12.063.26.12.422.172s.354.078.578.078c.25 0 .475-.04.675-.12.2-.08.372-.194.515-.343.143-.15.253-.327.33-.533.077-.207.115-.438.115-.695 0-.224-.032-.425-.097-.605s-.164-.333-.295-.46c-.13-.126-.295-.225-.492-.295-.197-.07-.427-.104-.69-.104-.18 0-.368.015-.563.045-.195.03-.395.078-.598.145l-.56-.165.575-3.35h3.395v.388z"/></g><g fill="#4E4E4E"><path d="M96.81 356.347h1.536v-4.886c0-.14.005-.287.015-.443l-1.274 1.095c-.043.037-.086.06-.13.067-.043.008-.083.01-.12.002s-.07-.02-.103-.04c-.032-.02-.056-.042-.072-.065l-.28-.385 2.136-1.845h.725v6.5h1.41v.68h-3.84v-.68zM105.156 354.17c.073-.095.142-.187.205-.273.064-.087.124-.174.18-.26-.182.146-.39.258-.62.335-.23.076-.472.114-.73.114-.27 0-.525-.045-.766-.135-.242-.09-.455-.222-.638-.396-.184-.175-.33-.39-.438-.645s-.163-.55-.163-.88c0-.312.06-.605.175-.88.116-.272.28-.51.49-.714s.46-.363.75-.48c.29-.116.608-.175.955-.175.343 0 .655.058.935.17.28.114.52.272.72.477.2.203.354.446.463.73.108.282.162.596.162.94 0 .205-.02.4-.057.586-.04.186-.094.367-.165.545-.072.18-.16.355-.263.53s-.22.354-.35.537l-1.745 2.52c-.043.064-.105.115-.185.153s-.172.058-.275.058h-.82l2.18-2.855zm.824-2.18c0-.222-.036-.425-.107-.606s-.17-.336-.297-.463c-.127-.125-.277-.223-.453-.29-.175-.07-.367-.104-.578-.104-.22 0-.42.036-.6.107-.18.072-.335.17-.465.298-.13.127-.23.28-.3.456s-.105.37-.105.58c0 .227.032.43.098.607.065.178.158.33.28.452s.27.217.445.28c.175.063.37.095.588.095.24 0 .452-.04.637-.117s.34-.183.468-.313c.127-.13.224-.28.29-.45.067-.168.1-.345.1-.53zM110 357.106c-.356 0-.683-.048-.98-.143s-.552-.23-.765-.407-.378-.39-.495-.643-.175-.534-.175-.848c0-.46.12-.84.36-1.138.24-.298.583-.51 1.03-.638-.377-.14-.66-.35-.853-.628s-.288-.61-.288-.998c0-.263.052-.51.155-.74.102-.23.25-.43.44-.6s.416-.303.682-.4c.265-.096.56-.145.887-.145.322 0 .617.048.884.145.267.097.495.23.685.4.19.17.335.37.44.6.102.23.154.477.154.74 0 .386-.097.72-.29.997s-.477.487-.85.627c.447.126.79.34 1.03.637.24.3.36.678.36 1.138 0 .313-.06.596-.177.848-.12.252-.284.466-.495.643-.212.177-.466.313-.763.407-.296.096-.623.143-.98.143zm0-.71c.233 0 .442-.032.627-.098s.342-.156.47-.275c.128-.118.227-.26.295-.425s.103-.348.103-.547c0-.246-.04-.457-.123-.632s-.192-.317-.33-.428c-.138-.11-.297-.19-.478-.242-.18-.052-.368-.078-.565-.078s-.386.026-.566.078-.34.133-.478.242c-.138.11-.248.253-.33.428-.082.175-.123.386-.123.633 0 .2.034.383.103.548s.167.307.295.425c.13.12.286.21.47.275s.397.098.63.098zm0-3.44c.233 0 .433-.035.598-.107.165-.072.3-.167.402-.286.104-.118.178-.254.225-.407s.07-.312.07-.475c0-.167-.027-.323-.083-.47-.055-.147-.137-.275-.245-.386-.108-.11-.244-.196-.405-.26s-.35-.095-.563-.095-.402.032-.564.096-.296.15-.405.26c-.107.11-.19.238-.244.385-.055.148-.083.305-.083.472 0 .163.023.32.07.475.047.153.122.29.225.407.104.12.238.214.403.285.168.07.367.106.6.106zM118.7 353.446c0 .627-.066 1.17-.202 1.628-.135.458-.32.837-.552 1.137-.233.302-.51.524-.828.672-.318.146-.66.22-1.022.22-.367 0-.708-.073-1.022-.22-.315-.147-.59-.37-.823-.67-.232-.3-.416-.68-.55-1.138-.132-.46-.2-1-.2-1.628s.068-1.17.2-1.63.317-.84.55-1.143.51-.525.824-.673c.315-.146.656-.22 1.022-.22.363 0 .704.073 1.022.22.318.147.594.37.828.673s.417.683.552 1.143c.135.46.203 1.003.203 1.63zm-.924 0c0-.547-.046-1.006-.138-1.377-.092-.373-.215-.672-.37-.9-.155-.226-.334-.388-.538-.486-.203-.098-.415-.147-.635-.147s-.432.05-.635.147c-.203.1-.38.26-.535.487-.153.23-.276.527-.368.9-.092.37-.137.83-.137 1.376s.045 1.005.137 1.375.214.67.368.897c.153.227.332.39.535.487.204.098.415.147.635.147s.432-.05.635-.146c.204-.1.383-.26.538-.487.155-.228.278-.525.37-.896s.138-.827.138-1.374z"/></g><g fill="#4E4E4E"><path d="M137.085 356.347h1.535v-4.886c0-.14.005-.287.015-.443l-1.275 1.095c-.043.037-.086.06-.13.067-.043.008-.083.01-.12.002s-.07-.02-.103-.04c-.032-.02-.056-.042-.072-.065l-.28-.385 2.135-1.845h.725v6.5h1.41v.68h-3.84v-.68zM145.43 354.17c.073-.095.142-.187.205-.273.063-.087.123-.174.18-.26-.183.146-.39.258-.62.335-.23.076-.473.114-.73.114-.27 0-.526-.045-.767-.135-.242-.09-.455-.222-.638-.396-.184-.175-.33-.39-.438-.645s-.163-.55-.163-.88c0-.312.058-.605.174-.88.116-.272.28-.51.49-.714s.46-.363.75-.48c.29-.116.608-.175.955-.175.342 0 .654.058.934.17.28.114.52.272.72.477.2.203.354.446.463.73.108.282.162.596.162.94 0 .205-.02.4-.058.586-.04.186-.094.367-.165.545-.072.18-.16.355-.263.53s-.22.354-.35.537l-1.745 2.52c-.044.064-.106.115-.186.153s-.172.058-.275.058h-.82l2.18-2.855zm.824-2.18c0-.222-.036-.425-.107-.606s-.17-.336-.297-.463c-.127-.125-.277-.223-.453-.29-.175-.07-.367-.104-.578-.104-.22 0-.42.036-.6.107-.18.072-.336.17-.466.298-.13.127-.23.28-.3.456s-.105.37-.105.58c0 .227.03.43.097.607.065.178.158.33.28.452s.27.217.445.28c.175.063.37.095.588.095.24 0 .452-.04.637-.117s.34-.183.468-.313c.126-.13.223-.28.29-.45.066-.168.1-.345.1-.53zM150.274 357.106c-.356 0-.683-.048-.98-.143s-.552-.23-.765-.407-.38-.39-.496-.643-.175-.534-.175-.848c0-.46.12-.84.36-1.138.24-.298.582-.51 1.03-.638-.378-.14-.662-.35-.854-.628s-.288-.61-.288-.998c0-.263.052-.51.155-.74.103-.23.25-.43.44-.6s.417-.303.683-.4c.265-.096.56-.145.887-.145.323 0 .618.048.885.145.267.097.495.23.685.4.19.17.336.37.44.6.103.23.155.477.155.74 0 .386-.097.72-.29.997s-.477.487-.85.627c.447.126.79.34 1.03.637.24.3.36.678.36 1.138 0 .313-.06.596-.177.848-.118.252-.283.466-.494.643-.212.177-.466.313-.763.407-.295.096-.622.143-.98.143zm0-.71c.233 0 .442-.032.627-.098s.343-.156.47-.275c.13-.118.228-.26.296-.425s.103-.348.103-.547c0-.246-.042-.457-.124-.632s-.192-.317-.33-.428c-.138-.11-.297-.19-.478-.242-.18-.052-.368-.078-.565-.078s-.385.026-.565.078-.34.133-.478.242c-.138.11-.248.253-.33.428-.082.175-.123.386-.123.633 0 .2.034.383.103.548s.167.307.295.425c.128.12.285.21.47.275s.396.098.63.098zm0-3.44c.233 0 .433-.035.598-.107.165-.072.3-.167.402-.286.104-.118.178-.254.225-.407s.07-.312.07-.475c0-.167-.028-.323-.084-.47-.055-.147-.137-.275-.245-.386-.107-.11-.243-.196-.404-.26s-.35-.095-.563-.095-.4.032-.563.096-.296.15-.405.26c-.108.11-.19.238-.245.385-.055.148-.083.305-.083.472 0 .163.023.32.07.475.047.153.122.29.225.407.104.12.238.214.403.285.167.07.366.106.6.106zM158.385 350.25c0 .128-.04.232-.118.314-.078.082-.212.123-.402.123h-2.25l-.33 1.88c.19-.043.37-.074.538-.093.168-.018.333-.027.492-.027.374 0 .704.055.99.165s.526.262.717.455c.192.193.337.422.435.685.098.264.147.55.147.86 0 .38-.066.724-.197 1.03-.132.307-.313.57-.545.787-.232.218-.504.385-.818.502-.313.116-.65.175-1.015.175-.21 0-.413-.02-.606-.063-.193-.042-.375-.098-.542-.168-.168-.07-.324-.15-.468-.24-.143-.09-.27-.185-.38-.284l.275-.38c.06-.087.137-.13.234-.13.067 0 .142.025.225.077s.184.108.304.172c.12.063.26.12.422.172s.354.078.578.078c.25 0 .475-.04.675-.12.2-.08.37-.194.514-.343.143-.15.253-.327.33-.533.077-.207.115-.438.115-.695 0-.224-.033-.425-.098-.605s-.164-.333-.295-.46c-.13-.126-.295-.225-.492-.295-.197-.07-.427-.104-.69-.104-.18 0-.368.015-.563.045-.195.03-.395.078-.598.145l-.56-.165.575-3.35h3.394v.388z"/></g><g fill="#4E4E4E"><path d="M177.36 356.347h1.535v-4.886c0-.14.005-.287.015-.443l-1.275 1.095c-.043.037-.086.06-.13.067-.043.008-.083.01-.12.002s-.07-.02-.103-.04c-.032-.02-.056-.042-.072-.065l-.28-.385 2.135-1.845h.725v6.5h1.41v.68h-3.84v-.68zM185.705 354.17c.073-.095.142-.187.205-.273.063-.087.123-.174.18-.26-.183.146-.39.258-.62.335-.23.076-.473.114-.73.114-.27 0-.526-.045-.767-.135-.242-.09-.455-.222-.638-.396-.184-.175-.33-.39-.438-.645s-.163-.55-.163-.88c0-.312.06-.605.175-.88.115-.272.28-.51.49-.714s.46-.363.75-.48c.29-.116.607-.175.954-.175.343 0 .655.058.935.17.28.114.52.272.72.477.2.203.353.446.462.73.108.282.162.596.162.94 0 .205-.02.4-.057.586-.04.186-.094.367-.165.545-.072.18-.16.355-.263.53s-.22.354-.35.537l-1.746 2.52c-.043.064-.105.115-.185.153s-.173.058-.276.058h-.82l2.18-2.855zm.825-2.18c0-.222-.036-.425-.107-.606s-.17-.336-.297-.463c-.127-.125-.277-.223-.453-.29-.175-.07-.367-.104-.578-.104-.22 0-.42.036-.6.107-.18.072-.335.17-.465.298-.13.127-.23.28-.3.456s-.105.37-.105.58c0 .227.032.43.098.607.065.178.158.33.28.452s.27.217.445.28c.175.063.37.095.588.095.24 0 .452-.04.637-.117s.34-.183.468-.313c.127-.13.224-.28.29-.45.067-.168.1-.345.1-.53zM191.145 354.17c.074-.095.143-.187.205-.273.064-.087.123-.174.18-.26-.184.146-.39.258-.62.335-.23.076-.472.114-.73.114-.27 0-.524-.045-.767-.135s-.453-.222-.637-.396-.33-.39-.438-.645-.163-.55-.163-.88c0-.312.06-.605.175-.88.116-.272.28-.51.49-.714.21-.203.46-.363.75-.48.29-.116.607-.175.955-.175.344 0 .654.058.936.17.28.114.52.272.72.477.2.203.355.446.463.73.11.282.162.596.162.94 0 .205-.018.4-.057.586-.04.186-.094.367-.166.545-.07.18-.158.355-.262.53s-.22.354-.35.537l-1.746 2.52c-.043.064-.104.115-.184.153s-.172.058-.275.058h-.82l2.18-2.855zm.826-2.18c0-.222-.036-.425-.106-.606-.072-.182-.172-.336-.3-.463-.126-.125-.276-.223-.45-.29-.176-.07-.37-.104-.578-.104-.22 0-.42.036-.6.107-.18.072-.336.17-.465.298-.13.127-.23.28-.3.456s-.105.37-.105.58c0 .227.033.43.098.607.064.178.158.33.28.452.122.123.27.217.444.28.176.063.37.095.588.095.24 0 .453-.04.64-.117.183-.078.34-.183.466-.313s.224-.28.29-.45c.068-.168.1-.345.1-.53zM199.25 353.446c0 .627-.067 1.17-.202 1.628-.136.458-.32.837-.553 1.137-.233.302-.51.524-.827.672-.318.146-.66.22-1.023.22-.366 0-.707-.073-1.022-.22-.314-.147-.59-.37-.822-.67-.232-.3-.416-.68-.55-1.138-.133-.46-.2-1-.2-1.628s.067-1.17.2-1.63c.134-.46.317-.84.55-1.143s.51-.525.823-.673c.315-.146.656-.22 1.022-.22.363 0 .705.073 1.023.22.317.147.594.37.827.673s.417.683.553 1.143c.135.46.202 1.003.202 1.63zm-.925 0c0-.547-.046-1.006-.138-1.377-.092-.373-.215-.672-.37-.9-.155-.226-.334-.388-.537-.486-.204-.098-.415-.147-.636-.147-.22 0-.432.05-.635.147-.204.1-.383.26-.536.487-.153.23-.275.527-.367.9-.092.37-.138.83-.138 1.376s.045 1.005.137 1.375.214.67.367.897c.153.227.332.39.535.487.202.098.414.147.634.147.22 0 .432-.05.636-.146.203-.1.382-.26.537-.487.155-.228.278-.525.37-.896s.138-.827.138-1.374z"/></g><g fill="#4E4E4E"><path d="M217.635 356.347h1.535v-4.886c0-.14.005-.287.015-.443l-1.274 1.095c-.043.037-.086.06-.13.067-.043.008-.083.01-.12.002-.036-.007-.07-.02-.102-.04-.032-.02-.057-.042-.073-.065l-.28-.385 2.136-1.845h.726v6.5h1.41v.68h-3.84v-.68zM225.98 354.17l.204-.273s.123-.174.18-.26c-.184.146-.39.258-.62.335-.23.076-.473.114-.73.114-.27 0-.525-.045-.767-.135-.242-.09-.454-.222-.638-.396s-.33-.39-.44-.645-.16-.55-.16-.88c0-.312.057-.605.174-.88.116-.272.28-.51.49-.714s.46-.363.75-.48c.29-.116.607-.175.954-.175.344 0 .655.058.936.17s.52.272.72.477c.2.203.354.446.463.73s.162.596.162.94c0 .205-.02.4-.06.586-.037.186-.092.367-.164.545-.07.18-.16.355-.262.53-.104.175-.22.354-.35.537l-1.746 2.52c-.043.064-.104.115-.185.153s-.172.058-.275.058h-.818l2.18-2.855zm.825-2.18c0-.222-.036-.425-.107-.606-.072-.182-.17-.336-.298-.463-.127-.125-.277-.223-.452-.29-.176-.07-.368-.104-.578-.104-.22 0-.42.036-.6.107-.18.072-.335.17-.465.298-.13.127-.23.28-.3.456-.07.177-.105.37-.105.58 0 .227.032.43.098.607.064.178.158.33.28.452.12.123.27.217.444.28s.37.095.588.095c.24 0 .452-.04.638-.117.185-.078.34-.183.467-.313s.224-.28.29-.45c.066-.168.1-.345.1-.53zM231.42 354.17c.073-.095.142-.187.205-.273s.123-.174.18-.26c-.184.146-.39.258-.62.335-.23.076-.473.114-.73.114-.27 0-.525-.045-.767-.135-.242-.09-.454-.222-.638-.396s-.33-.39-.438-.645-.162-.55-.162-.88c0-.312.058-.605.175-.88.116-.272.28-.51.49-.714s.46-.363.75-.48c.29-.116.607-.175.954-.175.343 0 .654.058.935.17s.52.272.72.477c.2.203.354.446.463.73s.162.596.162.94c0 .205-.02.4-.058.586-.038.186-.093.367-.165.545-.07.18-.16.355-.262.53-.104.175-.22.354-.35.537l-1.746 2.52c-.044.064-.105.115-.186.153s-.172.058-.275.058h-.82l2.18-2.855zm.825-2.18c0-.222-.036-.425-.107-.606-.072-.182-.17-.336-.298-.463-.127-.125-.277-.223-.452-.29-.176-.07-.368-.104-.578-.104-.22 0-.42.036-.6.107-.18.072-.335.17-.465.298-.13.127-.23.28-.3.456-.07.177-.105.37-.105.58 0 .227.032.43.098.607.064.178.158.33.28.452.12.123.27.217.444.28s.37.095.588.095c.24 0 .452-.04.638-.117.185-.078.34-.183.467-.313s.224-.28.29-.45c.067-.168.1-.345.1-.53zM238.935 350.25c0 .128-.04.232-.117.314-.08.082-.213.123-.403.123h-2.25l-.33 1.88c.19-.043.37-.074.538-.093.168-.018.332-.027.492-.027.373 0 .703.055.99.165.286.11.525.262.718.455.19.193.336.422.435.685.1.264.147.55.147.86 0 .38-.065.724-.197 1.03s-.313.57-.545.787c-.23.218-.505.385-.817.502-.313.116-.652.175-1.016.175-.21 0-.41-.02-.604-.063s-.374-.098-.543-.168c-.168-.07-.324-.15-.467-.24-.144-.09-.27-.185-.38-.284l.274-.38c.06-.087.14-.13.235-.13.066 0 .142.025.225.077s.186.108.305.172c.12.063.26.12.423.172s.354.078.577.078c.25 0 .476-.04.676-.12.2-.08.372-.194.516-.343s.253-.327.33-.533c.076-.207.115-.438.115-.695 0-.224-.032-.425-.097-.605s-.163-.333-.295-.46c-.132-.126-.296-.225-.493-.295-.196-.07-.427-.104-.69-.104-.18 0-.366.015-.562.045s-.395.078-.598.145l-.56-.165.574-3.35h3.395v.388z"/></g><g fill="#4E4E4E"><path d="M259.613 349.78c.303 0 .587.046.85.136.264.09.492.222.686.393.192.17.344.38.454.627.11.246.165.526.165.84 0 .267-.04.515-.12.742-.08.228-.19.445-.326.65-.137.208-.294.41-.473.606s-.366.395-.566.595l-1.89 1.932c.133-.037.268-.066.404-.088s.27-.032.396-.032h2.4c.096 0 .173.028.23.085s.084.13.084.22v.54h-4.78v-.305c0-.063.014-.13.04-.195.027-.066.068-.128.125-.185l2.295-2.306c.19-.193.363-.38.52-.558.157-.178.29-.357.4-.537.11-.18.195-.36.256-.547.06-.185.09-.382.09-.592s-.033-.394-.1-.552c-.067-.158-.158-.29-.273-.393s-.25-.18-.406-.232c-.157-.052-.325-.078-.505-.078-.185 0-.353.027-.506.08-.153.054-.29.128-.408.223-.118.096-.217.208-.297.338s-.138.273-.17.43c-.04.117-.096.194-.164.232-.068.04-.164.05-.287.033l-.466-.08c.047-.326.138-.615.272-.867.135-.25.305-.462.51-.632s.44-.3.702-.387c.263-.088.55-.132.855-.132zM268.258 353.446c0 .627-.067 1.17-.202 1.628-.136.458-.32.837-.553 1.137-.233.302-.51.524-.827.672-.318.146-.66.22-1.023.22-.366 0-.707-.073-1.022-.22-.313-.147-.588-.37-.82-.67-.234-.3-.418-.68-.55-1.138-.135-.46-.2-1-.2-1.628s.065-1.17.2-1.63c.132-.46.315-.84.55-1.143s.507-.525.82-.673c.316-.146.657-.22 1.023-.22.363 0 .705.073 1.023.22.317.147.594.37.827.673s.417.683.553 1.143c.134.46.202 1.003.202 1.63zm-.925 0c0-.547-.046-1.006-.138-1.377-.092-.373-.215-.672-.37-.9-.155-.226-.334-.388-.537-.486-.204-.098-.415-.147-.636-.147-.22 0-.432.05-.635.147-.203.1-.382.26-.535.487-.153.23-.275.527-.367.9-.092.37-.138.83-.138 1.376s.046 1.005.138 1.375.214.67.367.897c.153.227.332.39.535.487.203.098.415.147.635.147.22 0 .432-.05.636-.146.203-.1.382-.26.537-.487.155-.228.278-.525.37-.896s.138-.827.138-1.374zM273.698 353.446c0 .627-.067 1.17-.202 1.628-.136.458-.32.837-.553 1.137-.233.302-.51.524-.827.672-.318.146-.66.22-1.023.22-.366 0-.707-.073-1.022-.22-.313-.147-.588-.37-.82-.67-.234-.3-.418-.68-.55-1.138-.135-.46-.2-1-.2-1.628s.065-1.17.2-1.63c.132-.46.315-.84.55-1.143s.507-.525.82-.673c.316-.146.657-.22 1.023-.22.363 0 .705.073 1.023.22.317.147.594.37.827.673s.417.683.553 1.143c.135.46.202 1.003.202 1.63zm-.925 0c0-.547-.046-1.006-.138-1.377-.092-.373-.215-.672-.37-.9-.155-.226-.334-.388-.537-.486-.204-.098-.415-.147-.636-.147-.22 0-.432.05-.635.147-.203.1-.382.26-.535.487-.153.23-.275.527-.367.9-.092.37-.138.83-.138 1.376s.046 1.005.138 1.375.214.67.367.897c.153.227.332.39.535.487.203.098.415.147.635.147.22 0 .432-.05.636-.146.203-.1.382-.26.537-.487.155-.228.278-.525.37-.896s.138-.827.138-1.374zM279.798 353.446c0 .627-.067 1.17-.202 1.628-.136.458-.32.837-.553 1.137-.233.302-.51.524-.827.672-.318.146-.66.22-1.023.22-.366 0-.707-.073-1.022-.22-.313-.147-.588-.37-.82-.67-.234-.3-.418-.68-.55-1.138-.135-.46-.2-1-.2-1.628s.065-1.17.2-1.63c.132-.46.315-.84.55-1.143s.507-.525.82-.673c.316-.146.657-.22 1.023-.22.363 0 .705.073 1.023.22.317.147.594.37.827.673s.417.683.553 1.143c.134.46.202 1.003.202 1.63zm-.925 0c0-.547-.046-1.006-.138-1.377-.092-.373-.215-.672-.37-.9-.155-.226-.334-.388-.537-.486-.204-.098-.415-.147-.636-.147-.22 0-.432.05-.635.147-.203.1-.382.26-.535.487-.153.23-.275.527-.367.9-.092.37-.138.83-.138 1.376s.046 1.005.138 1.375.214.67.367.897c.153.227.332.39.535.487.203.098.415.147.635.147.22 0 .432-.05.636-.146.203-.1.382-.26.537-.487.155-.228.278-.525.37-.896s.138-.827.138-1.374z"/></g><g fill="#4E4E4E"><path d="M299.89 349.78c.302 0 .586.046.85.136.263.09.49.222.685.393.193.17.345.38.455.627.11.246.165.526.165.84 0 .267-.04.515-.12.742-.08.228-.188.445-.325.65-.137.208-.294.41-.473.606s-.367.395-.567.595l-1.89 1.932c.133-.037.268-.066.404-.088s.27-.032.396-.032h2.4c.096 0 .173.028.23.085s.084.13.084.22v.54h-4.78v-.305c0-.063.014-.13.04-.195.027-.066.068-.128.125-.185l2.294-2.306c.19-.193.363-.38.52-.558.157-.178.29-.357.4-.537.11-.18.195-.36.256-.547.06-.185.09-.382.09-.592s-.033-.394-.1-.552c-.067-.158-.158-.29-.273-.393s-.25-.18-.407-.232c-.157-.052-.325-.078-.505-.078-.184 0-.352.027-.505.08-.153.054-.29.128-.408.223-.118.096-.217.208-.297.338s-.137.273-.17.43c-.04.117-.095.194-.163.232-.068.04-.164.05-.287.033l-.465-.08c.047-.326.138-.615.272-.867.135-.25.305-.462.51-.632s.44-.3.702-.387c.263-.088.548-.132.855-.132zM308.533 353.446c0 .627-.067 1.17-.202 1.628-.135.458-.318.837-.552 1.137-.233.302-.51.524-.827.672-.317.146-.66.22-1.022.22-.366 0-.707-.073-1.022-.22-.314-.147-.59-.37-.822-.67-.233-.3-.417-.68-.55-1.138-.134-.46-.2-1-.2-1.628s.066-1.17.2-1.63c.133-.46.316-.84.55-1.143s.508-.525.822-.673c.315-.146.656-.22 1.022-.22.363 0 .705.073 1.023.22.318.147.595.37.828.673s.417.683.553 1.143c.136.46.203 1.003.203 1.63zm-.925 0c0-.547-.046-1.006-.138-1.377-.092-.373-.215-.672-.37-.9-.155-.226-.334-.388-.537-.486-.204-.098-.415-.147-.636-.147-.22 0-.432.05-.635.147-.203.1-.382.26-.535.487-.153.23-.275.527-.367.9-.092.37-.138.83-.138 1.376s.046 1.005.138 1.375.214.67.367.897c.153.227.332.39.535.487.203.098.415.147.635.147.22 0 .432-.05.636-.146.203-.1.382-.26.537-.487.155-.228.278-.525.37-.896s.138-.827.138-1.374zM313.974 353.446c0 .627-.067 1.17-.202 1.628-.136.458-.32.837-.553 1.137-.234.302-.51.524-.828.672-.318.146-.66.22-1.023.22-.367 0-.708-.073-1.023-.22-.314-.147-.59-.37-.822-.67-.233-.3-.417-.68-.55-1.138-.134-.46-.2-1-.2-1.628s.066-1.17.2-1.63c.133-.46.316-.84.55-1.143s.508-.525.822-.673c.315-.146.656-.22 1.022-.22.362 0 .704.073 1.022.22.317.147.594.37.827.673s.416.683.552 1.143c.134.46.202 1.003.202 1.63zm-.925 0c0-.547-.047-1.006-.14-1.377-.09-.373-.214-.672-.37-.9-.154-.226-.333-.388-.536-.486-.204-.098-.415-.147-.636-.147-.22 0-.432.05-.635.147-.203.1-.382.26-.535.487-.153.23-.275.527-.367.9-.09.37-.137.83-.137 1.376s.046 1.005.138 1.375.215.67.368.897c.153.227.332.39.535.487.203.098.415.147.635.147.22 0 .432-.05.636-.146.203-.1.382-.26.537-.487.156-.228.28-.525.37-.896s.14-.827.14-1.374zM319.483 350.25c0 .128-.04.232-.117.314-.08.082-.213.123-.403.123h-2.25l-.33 1.88c.19-.043.37-.074.538-.093.17-.018.333-.027.493-.027.373 0 .703.055.99.165.286.11.525.262.718.455.192.193.337.422.436.685.1.264.147.55.147.86 0 .38-.065.724-.197 1.03s-.313.57-.545.787c-.23.218-.504.385-.816.502-.313.116-.652.175-1.016.175-.21 0-.41-.02-.604-.063s-.374-.098-.543-.168c-.167-.07-.323-.15-.466-.24-.144-.09-.27-.185-.38-.284l.274-.38c.06-.087.14-.13.235-.13.066 0 .142.025.225.077s.186.108.305.172c.12.063.26.12.423.172s.354.078.577.078c.25 0 .476-.04.676-.12.198-.08.37-.194.514-.343s.253-.327.33-.533c.076-.207.115-.438.115-.695 0-.224-.034-.425-.1-.605-.064-.18-.162-.333-.294-.46-.132-.126-.296-.225-.493-.295-.196-.07-.427-.104-.69-.104-.18 0-.366.015-.562.045s-.394.078-.597.145l-.56-.165.574-3.35h3.396v.388z"/></g><g fill="#4E4E4E"><path d="M340.163 349.78c.303 0 .587.046.85.136.264.09.492.222.686.393.192.17.344.38.454.627.11.246.165.526.165.84 0 .267-.04.515-.12.742-.08.228-.19.445-.326.65-.137.208-.294.41-.473.606s-.366.395-.566.595l-1.89 1.932c.133-.037.268-.066.404-.088s.27-.032.396-.032h2.4c.096 0 .173.028.23.085s.084.13.084.22v.54h-4.78v-.305c0-.063.014-.13.04-.195.027-.066.068-.128.125-.185l2.295-2.306c.19-.193.363-.38.52-.558.157-.178.29-.357.4-.537.11-.18.195-.36.256-.547.06-.185.09-.382.09-.592s-.033-.394-.1-.552c-.067-.158-.158-.29-.273-.393s-.25-.18-.406-.232c-.157-.052-.325-.078-.505-.078-.185 0-.353.027-.506.08-.153.054-.29.128-.408.223-.118.096-.217.208-.297.338s-.138.273-.17.43c-.04.117-.096.194-.164.232-.068.04-.164.05-.287.033l-.466-.08c.047-.326.138-.615.272-.867.135-.25.305-.462.51-.632s.44-.3.702-.387c.263-.088.548-.132.855-.132zM348.808 353.446c0 .627-.067 1.17-.202 1.628-.136.458-.32.837-.553 1.137-.233.302-.51.524-.827.672-.318.146-.66.22-1.023.22-.366 0-.707-.073-1.022-.22-.313-.147-.588-.37-.82-.67-.234-.3-.418-.68-.55-1.138-.135-.46-.2-1-.2-1.628s.065-1.17.2-1.63c.132-.46.315-.84.55-1.143s.507-.525.82-.673c.316-.146.657-.22 1.023-.22.363 0 .705.073 1.023.22.317.147.594.37.827.673s.417.683.553 1.143c.134.46.202 1.003.202 1.63zm-.925 0c0-.547-.046-1.006-.138-1.377-.092-.373-.215-.672-.37-.9-.155-.226-.334-.388-.537-.486-.204-.098-.415-.147-.636-.147-.22 0-.432.05-.635.147-.203.1-.382.26-.535.487-.153.23-.275.527-.367.9-.092.37-.138.83-.138 1.376s.046 1.005.138 1.375.214.67.367.897c.153.227.332.39.535.487.203.098.415.147.635.147.22 0 .432-.05.636-.146.203-.1.382-.26.537-.487.155-.228.278-.525.37-.896s.138-.827.138-1.374zM349.998 356.347h1.535v-4.886c0-.14.005-.287.015-.443l-1.274 1.095c-.044.037-.087.06-.13.067-.044.008-.084.01-.12.002-.037-.007-.07-.02-.103-.04-.03-.02-.056-.042-.072-.065l-.28-.385 2.136-1.845h.725v6.5h1.41v.68H350v-.68zM360.348 353.446c0 .627-.067 1.17-.202 1.628-.136.458-.32.837-.553 1.137-.233.302-.51.524-.827.672-.318.146-.66.22-1.023.22-.366 0-.707-.073-1.022-.22-.313-.147-.588-.37-.82-.67-.234-.3-.418-.68-.55-1.138-.135-.46-.2-1-.2-1.628s.065-1.17.2-1.63c.132-.46.315-.84.55-1.143s.507-.525.82-.673c.316-.146.657-.22 1.023-.22.363 0 .705.073 1.023.22.317.147.594.37.827.673s.417.683.553 1.143c.134.46.202 1.003.202 1.63zm-.925 0c0-.547-.046-1.006-.138-1.377-.092-.373-.215-.672-.37-.9-.155-.226-.334-.388-.537-.486-.204-.098-.415-.147-.636-.147-.22 0-.432.05-.635.147-.203.1-.382.26-.535.487-.153.23-.275.527-.367.9-.092.37-.138.83-.138 1.376s.046 1.005.138 1.375.214.67.367.897c.153.227.332.39.535.487.203.098.415.147.635.147.22 0 .432-.05.636-.146.203-.1.382-.26.537-.487.155-.228.278-.525.37-.896s.138-.827.138-1.374z"/></g></svg>