<svg xmlns="http://www.w3.org/2000/svg" width="561" height="252" viewBox="0 0 561 252"><path fill="none" stroke="#D9D9D8" stroke-width=".5" stroke-linejoin="round" stroke-miterlimit="10" d="M26.062 202.484H561M26.062 171.12H561M26.062 139.756H561M26.062 108.393H561M26.062 77.03H561M26.062 45.666H561M26.062 14.302H561"/><path fill="none" stroke="#D9D9D8" stroke-linejoin="round" stroke-miterlimit="10" d="M26.062 233.847H561"/><path fill="none" stroke="#9B9B9B" stroke-width=".5" stroke-linejoin="round" stroke-miterlimit="10" d="M26.062 231.638v4.418M90.863 231.638v4.418M155.002 231.638v4.418M219.803 231.638v4.418M283.943 231.638v4.418M348.744 231.638v4.418M412.884 231.638v4.418M477.023 231.638v4.418M541.824 231.638v4.418"/><path fill="none" stroke="#80CBC4" stroke-width="2.5" stroke-linecap="round" stroke-linejoin="round" stroke-miterlimit="10" d="M27.438 171.12h6.637l6.636-31.364h31.857l6.637 31.365h84.282l6.637-15.903h19.246l6.635-15.46h5.974l6.635-15.903h32.519l5.973-23.412h6.637l6.636 7.95H350.637l6.635-31.363H389.79l6.637-39.315H557.69"/><g fill="#4E4E4E"><path d="M9.61 234.703c0 .627-.066 1.168-.202 1.627-.135.46-.32.838-.552 1.137-.233.3-.51.523-.828.672-.318.145-.66.218-1.022.218-.367 0-.708-.072-1.022-.22-.315-.147-.59-.37-.823-.67-.232-.3-.416-.68-.55-1.138s-.2-1-.2-1.627.068-1.17.2-1.63c.134-.46.317-.84.55-1.144.234-.302.51-.526.824-.673s.656-.22 1.022-.22c.363 0 .704.073 1.022.22s.594.37.828.672c.233.302.417.683.552 1.142.135.46.203 1.004.203 1.63zm-.924 0c0-.547-.046-1.006-.138-1.377-.092-.373-.215-.672-.37-.898-.155-.227-.334-.39-.538-.488-.203-.098-.415-.146-.635-.146s-.432.05-.635.146c-.203.1-.38.262-.535.488s-.276.525-.368.898c-.092.37-.137.83-.137 1.377s.045 1.004.137 1.375c.092.37.214.668.368.895s.332.39.535.488c.204.1.415.147.635.147s.432-.05.635-.146c.204-.1.383-.26.538-.487.155-.227.278-.525.37-.895.092-.37.138-.828.138-1.375zM13.72 232.848c0 .28-.042.53-.13.752-.086.223-.202.408-.347.56s-.313.27-.505.35-.394.118-.607.118c-.222 0-.43-.04-.624-.12s-.36-.194-.502-.347-.252-.337-.333-.56c-.08-.22-.12-.473-.12-.752 0-.287.04-.54.12-.766.08-.223.192-.41.334-.564.142-.152.31-.27.502-.35s.402-.12.625-.12c.228 0 .438.04.63.12s.363.197.506.35c.144.154.255.342.335.564.08.225.12.48.12.766zm2.536-1.58c.033-.04.072-.074.118-.105.045-.03.105-.045.182-.045h.645l-5.24 7.02c-.03.044-.067.08-.114.105-.046.027-.103.04-.17.04h-.655l5.236-7.015zm-3.225 1.58c0-.22-.022-.406-.07-.56-.046-.153-.11-.28-.19-.378-.083-.098-.18-.17-.29-.213-.11-.043-.226-.064-.35-.064-.123 0-.237.02-.344.064-.106.043-.2.115-.28.213s-.144.225-.19.377c-.047.154-.07.34-.07.56 0 .218.023.4.07.554.046.153.11.276.19.37.08.096.173.164.28.205.107.043.222.063.345.063.124 0 .24-.02.35-.063.11-.04.207-.11.29-.205.08-.094.145-.217.19-.37.047-.152.07-.336.07-.552zm4.656 3.744c0 .28-.043.53-.13.75-.086.22-.202.406-.347.56s-.314.267-.506.347c-.19.08-.394.118-.607.118-.227 0-.436-.04-.627-.12-.19-.08-.358-.194-.5-.347s-.252-.337-.333-.558c-.08-.22-.12-.47-.12-.75 0-.285.04-.54.12-.766.08-.227.19-.416.333-.568.142-.154.31-.27.5-.35.192-.08.4-.12.627-.12.224 0 .433.04.627.12.195.08.363.195.505.35.14.152.252.342.334.568.08.225.122.48.122.766zm-.69 0c0-.22-.023-.406-.07-.563-.047-.155-.11-.28-.192-.378-.082-.096-.178-.166-.288-.21s-.227-.065-.35-.065c-.123 0-.24.023-.347.066-.11.043-.204.113-.284.21-.08.097-.143.222-.188.376-.045.155-.067.343-.067.562 0 .217.023.4.068.55s.107.274.188.368c.08.096.174.164.283.205.107.043.223.063.346.063.124 0 .24-.02.35-.063.11-.04.206-.11.288-.205.082-.094.146-.217.192-.367s.07-.334.07-.55z"/></g><g fill="#4E4E4E"><path d="M5.36 206.223h1.536v-4.887c0-.14.005-.287.015-.443l-1.274 1.094c-.043.037-.086.06-.13.068s-.083.01-.12.002c-.037-.006-.07-.02-.103-.04-.032-.02-.056-.042-.072-.065l-.28-.385 2.136-1.844h.725v6.5H9.2v.68H5.36v-.68zM13.72 201.467c0 .28-.042.53-.13.752-.086.222-.202.407-.347.56s-.313.268-.505.348-.394.12-.607.12c-.222 0-.43-.04-.624-.12s-.36-.195-.502-.348-.252-.338-.333-.56c-.08-.222-.12-.474-.12-.753 0-.287.04-.54.12-.766.08-.222.192-.41.334-.563.142-.152.31-.27.502-.35s.402-.12.625-.12c.228 0 .438.04.63.12s.363.197.506.35c.144.154.255.342.335.564.08.226.12.48.12.767zm2.536-1.58c.033-.04.072-.074.118-.105.045-.03.105-.045.182-.045h.645l-5.24 7.02c-.03.044-.067.08-.114.105-.046.027-.103.04-.17.04h-.655l5.236-7.015zm-3.225 1.58c0-.22-.022-.406-.07-.56-.046-.153-.11-.28-.19-.378-.083-.1-.18-.17-.29-.214-.11-.043-.226-.064-.35-.064-.123 0-.237.02-.344.064-.106.043-.2.115-.28.213s-.144.224-.19.376c-.047.154-.07.34-.07.56 0 .218.023.4.07.554.046.152.11.275.19.37.08.095.173.163.28.204.107.043.222.063.345.063.124 0 .24-.02.35-.063.11-.04.207-.11.29-.205.08-.095.145-.218.19-.37.047-.153.07-.336.07-.553zm4.656 3.744c0 .282-.043.532-.13.75-.086.222-.202.407-.347.56s-.314.268-.506.348c-.19.08-.394.12-.607.12-.227 0-.436-.04-.627-.12-.19-.08-.358-.195-.5-.348s-.252-.338-.333-.56c-.08-.218-.12-.468-.12-.75 0-.284.04-.54.12-.765.08-.227.19-.416.333-.568.142-.154.31-.27.5-.35.192-.08.4-.12.627-.12.224 0 .433.04.627.12.195.08.363.195.505.35.14.152.252.342.334.568.08.225.122.48.122.766zm-.69 0c0-.218-.023-.405-.07-.562-.047-.154-.11-.28-.192-.377-.082-.095-.178-.165-.288-.208s-.227-.066-.35-.066c-.123 0-.24.023-.347.066-.11.043-.204.113-.284.21-.08.097-.143.222-.188.376-.045.156-.067.344-.067.563 0 .218.023.4.068.552s.107.273.188.367c.08.095.174.163.283.204.107.043.223.063.346.063.124 0 .24-.02.35-.063.11-.04.206-.11.288-.205.082-.095.146-.218.192-.368s.07-.334.07-.55z"/></g><g fill="#4E4E4E"><path d="M7.066 168.275c.303 0 .586.045.85.135.263.092.492.223.685.393.194.172.346.38.456.63.11.245.165.524.165.84 0 .265-.04.513-.12.74-.08.23-.187.446-.324.653s-.294.408-.473.605c-.178.196-.367.396-.567.595l-1.89 1.932c.133-.037.27-.066.405-.088s.27-.034.396-.034h2.4c.097 0 .173.03.23.086s.085.13.085.22v.54H4.58v-.305c0-.064.014-.13.04-.195.028-.066.07-.13.126-.186l2.295-2.305c.19-.192.364-.378.52-.558.157-.178.29-.357.4-.537s.196-.36.256-.547.09-.383.09-.592c0-.21-.033-.395-.1-.553-.067-.158-.158-.29-.273-.393-.115-.104-.25-.182-.407-.232-.157-.053-.325-.078-.505-.078-.183 0-.35.027-.504.08s-.29.127-.407.223c-.12.096-.22.207-.298.338-.08.13-.137.274-.17.43-.04.118-.094.194-.162.233-.068.04-.165.05-.288.033l-.465-.08c.046-.328.137-.617.272-.87.134-.25.304-.46.51-.63s.438-.3.702-.39c.262-.086.547-.13.854-.13zM13.72 170.086c0 .28-.042.53-.13.752-.086.223-.202.408-.347.56s-.313.27-.505.35-.394.118-.607.118c-.222 0-.43-.04-.624-.12s-.36-.194-.502-.347-.252-.34-.333-.562c-.08-.22-.12-.473-.12-.752 0-.287.04-.54.12-.766.08-.223.192-.41.334-.564.142-.152.31-.27.502-.35s.402-.12.625-.12c.228 0 .438.04.63.12s.363.197.506.35c.144.154.255.342.335.564.08.225.12.48.12.766zm2.536-1.58c.033-.04.072-.074.118-.105.045-.028.105-.044.182-.044h.645l-5.24 7.02c-.03.044-.067.08-.114.105-.046.028-.103.042-.17.042h-.655l5.236-7.016zm-3.225 1.58c0-.22-.022-.406-.07-.56-.046-.153-.11-.28-.19-.378-.083-.098-.18-.17-.29-.213-.11-.043-.226-.064-.35-.064-.123 0-.237.022-.344.065-.106.043-.2.115-.28.213s-.144.225-.19.377c-.047.154-.07.34-.07.56 0 .218.023.4.07.554.046.15.11.274.19.368.08.096.173.164.28.205.107.043.222.063.345.063.124 0 .24-.02.35-.063.11-.04.207-.11.29-.205.08-.094.145-.217.19-.37.047-.152.07-.335.07-.552zm4.656 3.744c0 .28-.043.53-.13.75-.086.22-.202.406-.347.56s-.314.267-.506.347c-.19.08-.394.12-.607.12-.227 0-.436-.04-.627-.12-.19-.08-.358-.195-.5-.348s-.252-.34-.333-.56c-.08-.22-.12-.47-.12-.75 0-.285.04-.54.12-.766.08-.227.19-.416.333-.568.142-.154.31-.27.5-.35.192-.08.4-.12.627-.12.224 0 .433.04.627.12.195.08.363.195.505.35.14.152.252.342.334.568.08.225.122.48.122.766zm-.69 0c0-.22-.023-.406-.07-.563-.047-.154-.11-.28-.192-.377-.082-.096-.178-.166-.288-.21s-.227-.065-.35-.065c-.123 0-.24.023-.347.066-.11.044-.204.114-.284.21-.08.098-.143.223-.188.377-.045.156-.067.344-.067.563 0 .217.023.4.068.55s.107.274.188.368c.08.096.174.164.283.205.107.043.223.063.346.063.124 0 .24-.02.35-.063.11-.04.206-.11.288-.205.082-.094.146-.217.192-.367s.07-.333.07-.55z"/></g><g fill="#4E4E4E"><path d="M7.1 136.895c.304 0 .584.044.84.13.257.087.48.21.664.37s.33.354.432.58c.104.227.155.48.155.755 0 .227-.028.43-.086.607-.06.18-.142.335-.25.47-.108.136-.24.25-.393.343-.152.094-.324.17-.514.226.467.123.817.33 1.053.62.234.29.352.653.352 1.09 0 .33-.063.626-.188.89s-.296.487-.513.673c-.216.184-.468.325-.756.424-.29.1-.598.147-.928.147-.38 0-.705-.047-.975-.142s-.497-.226-.684-.393c-.187-.167-.34-.364-.46-.593-.12-.228-.222-.476-.305-.742l.386-.16c.1-.043.198-.055.292-.035.095.02.164.075.208.165.043.094.098.205.163.335s.153.255.267.375.257.222.433.306c.175.083.397.125.667.125.25 0 .47-.04.657-.122.188-.08.345-.188.47-.317s.22-.273.282-.434.095-.318.095-.476c0-.193-.024-.37-.074-.53-.05-.16-.143-.298-.28-.414-.137-.117-.324-.21-.563-.275s-.544-.1-.917-.1v-.645c.307-.003.567-.036.782-.1.215-.063.39-.15.525-.26.135-.11.233-.242.295-.396.062-.154.092-.324.092-.51 0-.208-.032-.388-.098-.54-.065-.154-.154-.28-.267-.38-.114-.102-.248-.177-.403-.227-.155-.05-.322-.075-.502-.075s-.348.027-.502.08c-.155.054-.292.128-.41.223-.118.097-.217.21-.297.34s-.136.272-.17.43c-.042.116-.097.193-.162.23-.065.04-.16.05-.282.034l-.465-.08c.048-.327.138-.616.27-.868.134-.25.304-.462.51-.632.204-.17.44-.3.704-.388.264-.088.55-.13.857-.13zM13.72 138.705c0 .28-.042.53-.13.752-.086.222-.202.408-.347.56-.145.152-.313.268-.505.348s-.394.12-.607.12c-.222 0-.43-.04-.624-.12s-.36-.195-.502-.347c-.142-.152-.252-.34-.333-.56s-.12-.474-.12-.753c0-.287.04-.542.12-.766.08-.224.192-.412.334-.565s.31-.27.502-.35.402-.12.625-.12c.228 0 .438.04.63.12s.363.196.506.35c.144.153.255.342.335.564.08.223.12.478.12.765zm2.536-1.58c.033-.04.072-.075.118-.105.045-.03.105-.045.182-.045h.645l-5.24 7.02c-.03.044-.067.08-.114.105-.046.026-.103.04-.17.04h-.655l5.236-7.015zm-3.225 1.58c0-.22-.022-.407-.07-.56-.046-.154-.11-.28-.19-.378-.083-.1-.18-.17-.29-.213-.11-.043-.226-.065-.35-.065-.123 0-.237.02-.344.064-.106.043-.2.114-.28.213-.08.098-.144.224-.19.377-.047.153-.07.34-.07.56 0 .217.023.4.07.553.046.152.11.275.19.37s.173.163.28.205c.107.042.222.063.345.063.124 0 .24-.02.35-.063.11-.042.207-.11.29-.205.08-.095.145-.218.19-.37.047-.152.07-.336.07-.552zm4.656 3.744c0 .28-.043.53-.13.75-.086.22-.202.405-.347.557-.146.152-.314.268-.506.348-.19.08-.394.12-.607.12-.227 0-.436-.04-.627-.12-.19-.08-.358-.195-.5-.348-.142-.15-.252-.337-.333-.558-.08-.22-.12-.47-.12-.75 0-.287.04-.543.12-.768.08-.226.19-.415.333-.568s.31-.27.5-.35c.192-.08.4-.12.627-.12.224 0 .433.04.627.12.195.08.363.196.505.35.14.153.252.343.334.568.08.225.122.48.122.767zm-.69 0c0-.22-.023-.408-.07-.564-.047-.154-.11-.28-.192-.377s-.178-.168-.288-.21-.227-.066-.35-.066c-.123 0-.24.022-.347.065-.11.042-.204.112-.284.21s-.143.222-.188.376c-.045.155-.067.343-.067.563 0 .216.023.4.068.55.045.15.107.272.188.367s.174.163.283.205c.107.042.223.063.346.063.124 0 .24-.02.35-.063s.206-.11.288-.205.146-.218.192-.367c.047-.15.07-.334.07-.55z"/></g><g fill="#4E4E4E"><path d="M8.54 110.172h1.086v.51c0 .054-.016.1-.048.135s-.08.055-.147.055h-.89v1.885h-.78v-1.885H4.58c-.066 0-.124-.02-.172-.058-.048-.04-.08-.086-.092-.143l-.09-.454 3.485-4.625h.83v4.582zm-.78-2.955c0-.086.003-.18.01-.282.004-.102.015-.206.03-.313l-2.61 3.55h2.57v-2.955zM13.72 107.322c0 .28-.042.53-.13.752-.086.222-.202.41-.347.56-.145.152-.313.268-.505.348s-.394.12-.607.12c-.222 0-.43-.04-.624-.12s-.36-.196-.502-.348c-.142-.15-.252-.338-.333-.56s-.12-.472-.12-.752c0-.287.04-.542.12-.765.08-.223.192-.412.334-.565s.31-.27.502-.35c.193-.08.402-.12.625-.12.228 0 .438.04.63.12.194.08.363.197.506.35.144.153.255.342.335.565.08.224.12.48.12.765zm2.536-1.58c.033-.04.072-.075.118-.105.045-.03.105-.045.182-.045h.645l-5.24 7.02c-.03.043-.067.08-.114.105-.046.027-.103.04-.17.04h-.655l5.236-7.015zm-3.225 1.58c0-.22-.022-.407-.07-.56-.046-.153-.11-.28-.19-.377-.083-.098-.18-.17-.29-.212-.11-.043-.226-.065-.35-.065-.123 0-.237.02-.344.065-.106.043-.2.114-.28.212-.08.1-.144.224-.19.377-.047.153-.07.34-.07.56 0 .217.023.4.07.553.046.15.11.275.19.37.08.095.173.164.28.205.107.042.222.063.345.063.124 0 .24-.02.35-.063.11-.042.207-.11.29-.205.08-.095.145-.218.19-.37.047-.152.07-.336.07-.553zm4.656 3.745c0 .28-.043.53-.13.75-.086.22-.202.406-.347.558-.146.15-.314.267-.506.347-.19.08-.394.12-.607.12-.227 0-.436-.04-.627-.12-.19-.08-.358-.196-.5-.347-.142-.152-.252-.338-.333-.558-.08-.22-.12-.47-.12-.75 0-.287.04-.542.12-.768s.19-.415.333-.568.31-.27.5-.35c.192-.08.4-.12.627-.12.224 0 .433.04.627.12.195.08.363.197.505.35.14.153.252.342.334.567.08.225.122.48.122.767zm-.69 0c0-.22-.023-.408-.07-.563-.047-.155-.11-.28-.192-.377s-.178-.167-.288-.21c-.11-.043-.227-.065-.35-.065-.123 0-.24.02-.347.065-.11.043-.204.113-.284.21s-.143.222-.188.377c-.045.155-.067.342-.067.563 0 .217.023.4.068.55s.107.272.188.368c.08.095.174.163.283.205.107.042.223.063.346.063.124 0 .24-.02.35-.063.11-.042.206-.11.288-.205.082-.095.146-.218.192-.368s.07-.333.07-.55z"/></g><g fill="#4E4E4E"><path d="M9.02 74.6c0 .127-.04.232-.117.314s-.212.123-.402.123H6.25l-.33 1.88c.19-.043.37-.074.54-.093.167-.018.332-.027.49-.027.375 0 .705.055.99.165s.527.262.718.455c.192.193.337.422.435.685s.147.55.147.86c0 .38-.066.724-.197 1.03-.132.307-.313.57-.545.787-.232.218-.504.385-.818.5-.313.118-.65.176-1.015.176-.21 0-.412-.02-.605-.063-.193-.042-.375-.098-.542-.167-.168-.07-.324-.15-.468-.24-.143-.09-.27-.185-.38-.285l.275-.38c.06-.085.138-.13.235-.13.067 0 .142.027.225.08s.185.108.305.17c.12.064.26.122.422.173.162.052.354.078.578.078.25 0 .475-.04.675-.12.2-.08.372-.193.515-.34.143-.15.253-.327.33-.534.077-.207.115-.438.115-.695 0-.222-.032-.424-.097-.604s-.164-.333-.295-.46c-.13-.126-.295-.225-.492-.295-.196-.07-.426-.104-.69-.104-.18 0-.367.015-.562.045-.195.03-.395.08-.598.146l-.56-.165.575-3.35H9.02v.39zM13.72 75.94c0 .28-.042.532-.13.753-.086.222-.202.41-.347.56-.145.152-.313.268-.505.348s-.394.12-.607.12c-.222 0-.43-.04-.624-.12s-.36-.195-.502-.347c-.142-.15-.252-.338-.333-.56s-.12-.472-.12-.752c0-.286.04-.54.12-.764.08-.223.192-.412.334-.565s.31-.27.502-.35c.193-.08.402-.12.625-.12.228 0 .438.04.63.12.194.08.363.198.506.35.144.154.255.343.335.566.08.223.12.478.12.765zm2.536-1.58c.033-.04.072-.074.118-.104.045-.03.105-.045.182-.045h.645l-5.24 7.02c-.03.044-.067.08-.114.106-.046.027-.103.04-.17.04h-.655l5.236-7.015zm-3.225 1.58c0-.22-.022-.406-.07-.56-.046-.152-.11-.278-.19-.376-.083-.098-.18-.17-.29-.212-.11-.043-.226-.065-.35-.065-.123 0-.237.02-.344.065-.106.043-.2.114-.28.212-.08.1-.144.224-.19.377-.047.154-.07.34-.07.56 0 .218.023.402.07.554.046.15.11.275.19.37.08.095.173.164.28.205.107.04.222.062.345.062.124 0 .24-.02.35-.063.11-.043.207-.11.29-.206.08-.095.145-.218.19-.37.047-.152.07-.336.07-.553zm4.656 3.746c0 .28-.043.53-.13.75-.086.22-.202.406-.347.558-.146.15-.314.267-.506.347-.19.08-.394.12-.607.12-.227 0-.436-.04-.627-.12-.19-.08-.358-.195-.5-.346-.142-.152-.252-.338-.333-.558-.08-.22-.12-.47-.12-.75 0-.287.04-.542.12-.768s.19-.414.333-.567.31-.27.5-.35c.192-.08.4-.12.627-.12.224 0 .433.04.627.12.195.08.363.198.505.35.14.154.252.343.334.568.08.226.122.48.122.768zm-.69 0c0-.22-.023-.408-.07-.563-.047-.155-.11-.28-.192-.377s-.178-.167-.288-.21c-.11-.043-.227-.065-.35-.065-.123 0-.24.022-.347.066-.11.043-.204.113-.284.21s-.143.222-.188.377c-.045.155-.067.342-.067.563 0 .217.023.4.068.55s.107.272.188.368c.08.095.174.163.283.205.107.04.223.062.346.062.124 0 .24-.02.35-.063.11-.043.206-.11.288-.206.082-.095.146-.218.192-.368s.07-.333.07-.55z"/></g><g fill="#4E4E4E"><path d="M6.48 45.515c-.066.08-.127.158-.184.235s-.113.152-.17.225c.17-.117.357-.208.563-.272s.426-.098.666-.098c.29 0 .563.048.82.143.257.095.48.233.672.415.192.182.344.405.458.67s.17.567.17.908c0 .33-.06.638-.18.92s-.288.53-.502.74c-.215.21-.474.376-.775.496-.303.12-.635.18-1 .18-.36 0-.686-.058-.98-.172-.292-.115-.54-.278-.747-.49-.205-.21-.363-.468-.475-.77s-.167-.64-.167-1.013c0-.312.07-.646.21-1s.358-.735.662-1.138l1.82-2.445c.047-.06.11-.11.192-.152.082-.042.176-.063.283-.063h.79L6.48 45.515zm-.974 2.27c0 .23.033.44.1.63.066.19.164.354.292.49s.285.242.47.317.396.112.633.112c.24 0 .46-.038.653-.115s.362-.185.5-.32c.138-.137.245-.3.32-.486.075-.187.113-.39.113-.61 0-.233-.037-.444-.11-.632-.074-.188-.178-.35-.313-.48s-.296-.232-.483-.302c-.187-.07-.392-.105-.615-.105-.24 0-.457.04-.65.123-.193.082-.358.19-.493.33-.135.138-.238.298-.31.48s-.106.37-.106.567zM13.72 44.56c0 .28-.042.53-.13.752-.086.222-.202.41-.347.56-.145.152-.313.268-.505.348s-.394.12-.607.12c-.222 0-.43-.04-.624-.12s-.36-.196-.502-.348c-.142-.15-.252-.338-.333-.56s-.12-.472-.12-.752c0-.287.04-.542.12-.765.08-.223.192-.412.334-.565s.31-.27.502-.35c.193-.08.402-.12.625-.12.228 0 .438.04.63.12.194.08.363.197.506.35.144.153.255.342.335.565.08.223.12.478.12.765zm2.536-1.58c.033-.04.072-.076.118-.106.045-.03.105-.045.182-.045h.645l-5.24 7.02c-.03.042-.067.078-.114.104-.046.027-.103.04-.17.04h-.655l5.236-7.015zm-3.225 1.58c0-.22-.022-.407-.07-.56-.046-.153-.11-.28-.19-.377-.083-.098-.18-.17-.29-.212-.11-.042-.226-.064-.35-.064-.123 0-.237.02-.344.065-.106.044-.2.115-.28.213-.08.1-.144.224-.19.377-.047.153-.07.34-.07.56 0 .217.023.4.07.553.046.15.11.275.19.37.08.095.173.164.28.205.107.042.222.063.345.063.124 0 .24-.02.35-.062.11-.042.207-.11.29-.205.08-.095.145-.218.19-.37.047-.153.07-.337.07-.553zm4.656 3.745c0 .28-.043.53-.13.75-.086.22-.202.406-.347.558-.146.15-.314.267-.506.347-.19.08-.394.12-.607.12-.227 0-.436-.04-.627-.12-.19-.08-.358-.196-.5-.347-.142-.152-.252-.338-.333-.558-.08-.22-.12-.47-.12-.75 0-.287.04-.542.12-.768s.19-.414.333-.567.31-.27.5-.35c.192-.08.4-.12.627-.12.224 0 .433.04.627.12.195.08.363.197.505.35.14.153.252.342.334.567.08.225.122.48.122.768zm-.69 0c0-.22-.023-.408-.07-.563-.047-.155-.11-.28-.192-.377s-.178-.167-.288-.21c-.11-.043-.227-.065-.35-.065-.123 0-.24.02-.347.065-.11.043-.204.113-.284.21s-.143.222-.188.377c-.045.155-.067.342-.067.563 0 .217.023.4.068.55s.107.272.188.368c.08.095.174.163.283.205.107.042.223.063.346.063.124 0 .24-.02.35-.062.11-.042.206-.11.288-.205.082-.095.146-.218.192-.368s.07-.334.07-.55z"/></g><g fill="#4E4E4E"><path d="M9.516 11.448v.4c0 .113-.012.207-.037.28-.026.073-.05.135-.074.185l-2.97 5.985c-.043.086-.104.16-.18.223-.077.063-.178.093-.305.093h-.64l3.01-5.91c.044-.083.088-.16.133-.23.045-.07.096-.137.153-.2h-3.74c-.057 0-.106-.022-.15-.068-.043-.045-.065-.096-.065-.152v-.605h4.866zM13.72 13.178c0 .28-.042.53-.13.752-.086.222-.202.41-.347.56-.145.152-.313.268-.505.348s-.394.12-.607.12c-.222 0-.43-.04-.624-.12s-.36-.196-.502-.348c-.142-.15-.252-.338-.333-.56s-.12-.472-.12-.752c0-.287.04-.542.12-.765.08-.223.192-.412.334-.565s.31-.27.502-.35c.193-.08.402-.12.625-.12.228 0 .438.04.63.12.194.08.363.197.506.35.144.153.255.342.335.565.08.224.12.48.12.765zm2.536-1.58c.033-.04.072-.075.118-.105.045-.03.105-.045.182-.045h.645l-5.24 7.02c-.03.043-.067.08-.114.105-.046.027-.103.04-.17.04h-.655l5.236-7.015zm-3.225 1.58c0-.22-.022-.407-.07-.56-.046-.153-.11-.28-.19-.377-.083-.097-.18-.168-.29-.21-.11-.044-.226-.066-.35-.066-.123 0-.237.02-.344.065-.106.042-.2.113-.28.21-.08.1-.144.225-.19.378-.047.153-.07.34-.07.56 0 .217.023.4.07.553.046.152.11.276.19.37.08.096.173.165.28.206.107.042.222.063.345.063.124 0 .24-.022.35-.064.11-.042.207-.11.29-.205.08-.094.145-.217.19-.37.047-.15.07-.335.07-.552zm4.656 3.745c0 .28-.043.53-.13.75-.086.22-.202.406-.347.558-.146.152-.314.268-.506.348-.19.08-.394.12-.607.12-.227 0-.436-.04-.627-.12-.19-.08-.358-.196-.5-.347-.142-.15-.252-.337-.333-.557-.08-.22-.12-.47-.12-.75 0-.287.04-.542.12-.768s.19-.414.333-.567.31-.27.5-.35c.192-.08.4-.12.627-.12.224 0 .433.04.627.12.195.08.363.197.505.35.14.153.252.342.334.567.08.226.122.482.122.768zm-.69 0c0-.22-.023-.408-.07-.563-.047-.155-.11-.28-.192-.377s-.178-.167-.288-.21c-.11-.043-.227-.065-.35-.065-.123 0-.24.02-.347.065-.11.043-.204.113-.284.21s-.143.222-.188.377c-.045.155-.067.342-.067.563 0 .217.023.4.068.55s.107.272.188.368c.08.096.174.164.283.206.107.042.223.063.346.063.124 0 .24-.022.35-.064.11-.042.206-.11.288-.205.082-.094.146-.217.192-.367s.07-.333.07-.55z"/></g><g fill="#4E4E4E"><path d="M15.346 250.32h1.577v-4.886c0-.14.005-.288.016-.444l-1.312 1.095c-.044.037-.09.06-.133.067-.044.01-.086.01-.124.003s-.072-.02-.104-.04c-.033-.02-.058-.042-.075-.065l-.287-.385 2.194-1.845h.745v6.5h1.45v.68h-3.947v-.68zM23.715 248.145c.076-.096.146-.188.21-.274s.127-.173.186-.26c-.187.147-.4.26-.636.336-.236.076-.486.114-.75.114-.278 0-.54-.045-.79-.135-.247-.09-.466-.223-.654-.397-.188-.175-.338-.39-.45-.645s-.167-.548-.167-.878c0-.313.06-.606.18-.88.12-.273.288-.512.503-.715s.473-.363.77-.48c.3-.116.626-.175.982-.175.353 0 .673.057.96.17.288.113.535.27.74.476.206.204.364.447.475.73s.167.597.167.94c0 .206-.02.402-.06.587-.04.186-.095.367-.168.545-.074.18-.164.355-.27.53-.106.175-.226.354-.36.537l-1.792 2.52c-.044.063-.108.114-.19.152s-.176.058-.283.058h-.842l2.24-2.855zm.848-2.18c0-.223-.037-.426-.11-.607-.074-.182-.176-.336-.307-.463-.13-.126-.285-.224-.465-.292s-.376-.103-.592-.103c-.226 0-.432.036-.617.107-.184.072-.343.17-.477.298-.133.126-.236.278-.308.455s-.108.37-.108.58c0 .227.033.43.1.607.067.178.163.33.288.452s.278.216.458.28.38.094.604.094c.247 0 .465-.04.655-.117s.35-.183.48-.313.23-.28.298-.45c.07-.17.103-.346.103-.53zM28.58 243.755c.313 0 .6.044.864.13.264.087.49.21.68.37.19.16.34.354.445.58.105.227.158.48.158.755 0 .227-.03.43-.09.607-.06.18-.146.335-.257.47-.11.136-.245.25-.402.343-.158.094-.334.17-.53.226.48.123.84.33 1.083.62s.363.653.363 1.09c0 .33-.064.626-.193.89s-.304.487-.526.673c-.223.184-.482.325-.778.424-.296.1-.614.147-.953.147-.39 0-.725-.047-1.002-.142-.277-.095-.51-.226-.703-.393s-.35-.364-.473-.593c-.124-.228-.228-.476-.313-.742l.397-.16c.103-.043.203-.055.3-.035.1.02.17.075.214.165.045.094.1.205.168.335.067.13.16.255.275.375.117.12.265.222.445.306.18.083.408.125.686.125.257 0 .482-.04.676-.122.193-.08.354-.188.483-.317s.226-.273.29-.434.1-.318.1-.476c0-.193-.027-.37-.078-.53-.05-.16-.147-.298-.288-.414-.14-.117-.333-.21-.578-.275-.246-.065-.56-.1-.944-.1v-.645c.315-.003.583-.036.804-.1.22-.063.4-.15.54-.26.14-.11.24-.242.303-.396.063-.154.095-.324.095-.51 0-.208-.033-.388-.1-.54s-.16-.28-.275-.38c-.117-.102-.254-.177-.414-.227s-.333-.075-.518-.075-.357.027-.516.08c-.16.054-.3.128-.42.223-.123.097-.225.21-.307.34s-.142.272-.176.43c-.044.116-.1.193-.167.23-.067.04-.164.05-.29.034l-.478-.08c.047-.327.14-.616.276-.868.137-.25.31-.462.52-.632.212-.17.453-.3.726-.388.27-.087.564-.13.88-.13zM34.644 243.755c.312 0 .6.044.863.13.264.087.49.21.68.37.19.16.34.354.445.58.106.227.16.48.16.755 0 .227-.03.43-.09.607-.06.18-.147.335-.258.47-.11.136-.246.25-.403.343-.157.094-.333.17-.528.226.48.123.84.33 1.082.62.242.29.362.653.362 1.09 0 .33-.064.626-.193.89s-.304.487-.526.673c-.223.184-.482.325-.778.424-.297.1-.615.147-.954.147-.39 0-.725-.047-1.002-.142-.278-.095-.512-.226-.704-.393s-.35-.364-.473-.593c-.124-.228-.228-.476-.313-.742l.396-.16c.103-.043.203-.055.3-.035.1.02.17.075.214.165.044.094.1.205.167.335.068.13.16.255.276.375.117.12.265.222.445.306.18.083.41.125.687.125.257 0 .482-.04.676-.122.193-.08.354-.188.483-.317s.226-.273.29-.434.1-.318.1-.476c0-.193-.027-.37-.078-.53-.05-.16-.147-.298-.288-.414-.14-.117-.333-.21-.578-.275-.245-.065-.56-.1-.943-.1v-.645c.314-.003.582-.036.803-.1.22-.063.4-.15.54-.26.14-.11.24-.242.303-.396.063-.154.095-.324.095-.51 0-.208-.032-.388-.1-.54s-.158-.28-.274-.38c-.117-.102-.254-.177-.414-.227s-.332-.075-.517-.075-.357.027-.516.08c-.16.054-.3.128-.422.223-.122.097-.224.21-.306.34s-.14.272-.175.43c-.044.116-.1.193-.167.23-.067.04-.164.05-.29.034l-.478-.08c.048-.327.14-.616.277-.868.136-.25.31-.462.52-.632.21-.17.452-.3.725-.388.27-.087.563-.13.88-.13z"/></g><g fill="#4E4E4E"><path d="M79.816 250.32h1.577v-4.886c0-.14.005-.288.016-.444l-1.312 1.095c-.044.037-.09.06-.133.067-.044.01-.086.01-.124.003s-.072-.02-.104-.04c-.033-.02-.058-.042-.075-.065l-.287-.385 2.194-1.845h.745v6.5h1.45v.68h-3.947v-.68zM88.185 248.145c.076-.096.146-.188.21-.274s.127-.173.186-.26c-.187.147-.4.26-.636.336-.236.076-.486.114-.75.114-.278 0-.54-.045-.79-.135-.247-.09-.466-.223-.654-.397-.188-.175-.338-.39-.45-.645s-.167-.548-.167-.878c0-.313.06-.606.18-.88.12-.273.288-.512.503-.715s.473-.363.77-.48c.3-.116.626-.175.982-.175.353 0 .673.057.96.17.288.113.535.27.74.476.206.204.364.447.475.73s.167.597.167.94c0 .206-.02.402-.06.587-.04.186-.095.367-.168.545-.074.18-.164.355-.27.53-.106.175-.226.354-.36.537l-1.792 2.52c-.044.063-.108.114-.19.152s-.176.058-.282.058h-.842l2.24-2.855zm.848-2.18c0-.223-.037-.426-.11-.607-.074-.182-.176-.336-.307-.463-.13-.126-.285-.224-.465-.292s-.376-.103-.592-.103c-.226 0-.432.036-.617.107-.184.072-.343.17-.477.298-.133.126-.236.278-.308.455s-.108.37-.108.58c0 .227.033.43.1.607.067.178.163.33.288.452s.278.216.458.28.38.094.604.094c.247 0 .465-.04.655-.117s.35-.183.48-.313.23-.28.298-.45c.07-.17.103-.346.103-.53zM94.53 248.415h1.116v.51c0 .054-.017.1-.05.135-.032.037-.082.056-.15.056h-.916V251h-.8v-1.885h-3.27c-.067 0-.126-.02-.176-.058s-.082-.086-.095-.143l-.093-.455 3.58-4.626h.854v4.58zm-.8-2.955c0-.087 0-.18.006-.282.005-.102.017-.206.034-.313l-2.682 3.55h2.64v-2.955zM99.114 243.755c.312 0 .6.044.863.13.264.087.49.21.68.37.19.16.34.354.445.58.106.227.16.48.16.755 0 .227-.03.43-.09.607-.06.18-.147.335-.258.47-.11.136-.246.25-.403.343-.157.094-.333.17-.528.226.48.123.84.33 1.082.62.242.29.362.653.362 1.09 0 .33-.064.626-.193.89s-.304.487-.526.673c-.223.184-.482.325-.778.424-.297.1-.615.147-.954.147-.39 0-.725-.047-1.002-.142-.278-.095-.512-.226-.704-.393s-.35-.364-.473-.593c-.124-.228-.228-.476-.313-.742l.396-.16c.103-.043.203-.055.3-.035.1.02.17.075.214.165.044.094.1.205.167.335.068.13.16.255.276.375.117.12.265.222.445.306.18.083.41.125.687.125.257 0 .482-.04.676-.122.193-.08.354-.188.483-.317s.226-.273.29-.434.1-.318.1-.476c0-.193-.027-.37-.078-.53-.05-.16-.147-.298-.288-.414-.14-.117-.333-.21-.578-.275-.245-.065-.56-.1-.943-.1v-.645c.314-.003.582-.036.803-.1.22-.063.4-.15.54-.26.14-.11.24-.242.303-.396.063-.154.095-.324.095-.51 0-.208-.032-.388-.1-.54s-.158-.28-.274-.38c-.117-.102-.254-.177-.414-.227s-.332-.075-.517-.075-.357.027-.516.08c-.16.054-.3.128-.422.223-.122.097-.224.21-.306.34s-.14.272-.175.43c-.044.116-.1.193-.167.23-.067.04-.164.05-.29.034l-.478-.08c.048-.327.14-.616.277-.868.136-.25.31-.462.52-.632.21-.17.452-.3.725-.388.27-.087.563-.13.88-.13z"/></g><g fill="#4E4E4E"><path d="M144.286 250.32h1.577v-4.886c0-.14.005-.288.016-.444l-1.312 1.095c-.044.037-.09.06-.133.067-.044.01-.086.01-.124.003s-.072-.02-.104-.04c-.033-.02-.058-.042-.075-.065l-.287-.385 2.194-1.845h.745v6.5h1.45v.68h-3.947v-.68zM152.655 248.145c.076-.096.146-.188.21-.274s.127-.173.186-.26c-.187.147-.4.26-.636.336-.236.076-.486.114-.75.114-.278 0-.54-.045-.79-.135-.247-.09-.466-.223-.654-.397-.188-.175-.338-.39-.45-.645s-.167-.548-.167-.878c0-.313.06-.606.18-.88.12-.273.288-.512.503-.715s.473-.363.77-.48c.3-.116.626-.175.982-.175.353 0 .673.057.96.17.288.113.535.27.74.476.206.204.364.447.475.73s.167.597.167.94c0 .206-.02.402-.06.587-.04.186-.095.367-.168.545-.074.18-.164.355-.27.53-.106.175-.226.354-.36.537l-1.792 2.52c-.044.063-.108.114-.19.152s-.176.058-.282.058h-.842l2.24-2.855zm.848-2.18c0-.223-.037-.426-.11-.607-.074-.182-.176-.336-.307-.463-.13-.126-.285-.224-.465-.292s-.376-.103-.592-.103c-.226 0-.432.036-.617.107-.184.072-.343.17-.477.298-.133.126-.236.278-.308.455s-.108.37-.108.58c0 .227.033.43.1.607.067.178.163.33.288.452s.278.216.458.28.38.094.604.094c.247 0 .465-.04.655-.117s.35-.183.48-.313.23-.28.298-.45c.07-.17.103-.346.103-.53zM159.494 244.225c0 .127-.04.23-.12.313-.082.082-.22.123-.415.123h-2.313l-.34 1.88c.196-.042.38-.073.553-.092.173-.018.342-.027.506-.027.384 0 .723.056 1.017.166.295.11.54.262.738.455.198.194.347.423.448.686.1.264.15.55.15.86 0 .38-.066.724-.202 1.03s-.322.57-.56.787c-.238.22-.518.386-.84.503-.322.116-.67.175-1.043.175-.216 0-.423-.02-.622-.062s-.384-.098-.557-.168c-.173-.07-.333-.15-.48-.24-.147-.09-.277-.185-.39-.284l.282-.38c.062-.087.142-.13.242-.13.068 0 .146.025.23.077.087.052.19.11.314.173.125.063.27.12.435.172.167.052.364.078.594.078.256 0 .487-.04.692-.12.206-.08.382-.194.53-.343.146-.148.26-.326.338-.532.08-.206.118-.437.118-.694 0-.224-.034-.425-.1-.605-.067-.18-.168-.332-.303-.46-.135-.125-.304-.224-.506-.294-.203-.07-.44-.104-.71-.104-.185 0-.377.015-.578.045-.2.03-.405.078-.614.145l-.576-.165.59-3.35h3.49v.388zM163.584 243.755c.312 0 .6.044.863.13.264.087.49.21.68.37.19.16.34.354.445.58.106.227.16.48.16.755 0 .227-.03.43-.09.607-.06.18-.147.335-.258.47-.11.136-.246.25-.403.343-.157.094-.333.17-.528.226.48.123.84.33 1.082.62.242.29.362.653.362 1.09 0 .33-.064.626-.193.89s-.304.487-.526.673c-.223.184-.482.325-.778.424-.297.1-.615.147-.954.147-.39 0-.725-.047-1.002-.142-.278-.095-.512-.226-.704-.393s-.35-.364-.473-.593c-.124-.228-.228-.476-.313-.742l.396-.16c.103-.043.203-.055.3-.035.1.02.17.075.214.165.044.094.1.205.167.335.068.13.16.255.276.375.117.12.265.222.445.306.18.083.41.125.687.125.257 0 .482-.04.676-.122.193-.08.354-.188.483-.317s.226-.273.29-.434.1-.318.1-.476c0-.193-.027-.37-.078-.53-.05-.16-.147-.298-.288-.414-.14-.117-.333-.21-.578-.275-.245-.065-.56-.1-.943-.1v-.645c.314-.003.582-.036.803-.1.22-.063.4-.15.54-.26.14-.11.24-.242.303-.396.063-.154.095-.324.095-.51 0-.208-.032-.388-.1-.54s-.158-.28-.274-.38c-.117-.102-.254-.177-.414-.227s-.332-.075-.517-.075-.357.027-.516.08c-.16.054-.3.128-.422.223-.122.097-.224.21-.306.34s-.14.272-.175.43c-.044.116-.1.193-.167.23-.067.04-.164.05-.29.034l-.478-.08c.048-.327.14-.616.277-.868.136-.25.31-.462.52-.632.21-.17.452-.3.725-.388.27-.087.564-.13.88-.13z"/></g><g fill="#4E4E4E"><path d="M208.757 250.32h1.577v-4.886c0-.14.005-.288.016-.444l-1.31 1.095c-.045.037-.09.06-.134.067-.044.01-.086.01-.124.003s-.073-.02-.105-.04c-.033-.02-.058-.042-.075-.065l-.288-.385 2.194-1.845h.745v6.5h1.45v.68h-3.947v-.68zM217.126 248.145c.076-.096.146-.188.21-.274s.127-.173.186-.26c-.188.147-.4.26-.637.336-.236.076-.486.114-.75.114-.278 0-.54-.045-.79-.135-.247-.09-.466-.223-.654-.397-.187-.175-.337-.39-.45-.645s-.166-.548-.166-.878c0-.313.06-.606.18-.88.12-.273.288-.512.503-.715s.473-.363.77-.48c.3-.116.626-.175.982-.175.352 0 .672.057.96.17.287.113.534.27.74.476.205.204.363.447.474.73s.167.597.167.94c0 .206-.02.402-.058.587-.04.186-.096.367-.17.545-.073.18-.163.355-.27.53-.105.175-.225.354-.358.537l-1.793 2.52c-.043.063-.107.114-.19.152s-.175.058-.28.058h-.843l2.24-2.855zm.848-2.18c0-.223-.037-.426-.11-.607-.074-.182-.176-.336-.307-.463-.13-.126-.285-.224-.465-.292s-.377-.103-.593-.103c-.227 0-.433.036-.618.107-.185.072-.344.17-.478.298-.133.126-.236.278-.308.455s-.108.37-.108.58c0 .227.033.43.1.607.067.178.163.33.288.452s.278.216.458.28.38.094.604.094c.247 0 .465-.04.655-.117s.35-.183.48-.313.23-.28.298-.45c.07-.17.104-.346.104-.53zM221.355 246.52c-.07.08-.132.16-.19.235-.058.077-.116.15-.174.226.175-.116.368-.207.58-.272.21-.064.438-.097.685-.097.298 0 .58.048.843.144.264.095.494.233.69.415.198.18.355.403.47.67.118.264.176.566.176.906 0 .33-.062.637-.185.92-.124.283-.296.53-.517.74-.22.21-.487.375-.796.495-.31.12-.652.18-1.025.18-.37 0-.706-.057-1.007-.172-.302-.114-.558-.278-.768-.49-.21-.21-.374-.468-.488-.77s-.173-.64-.173-1.013c0-.313.07-.647.213-1.002.142-.355.37-.734.68-1.138l1.872-2.445c.048-.06.114-.11.198-.152s.18-.063.29-.063h.812l-2.187 2.685zm-1.002 2.27c0 .23.034.44.103.63.07.19.17.354.3.49s.294.242.484.317.407.112.65.112c.247 0 .47-.04.67-.116.2-.076.372-.183.514-.32s.25-.298.33-.484.115-.39.115-.61c0-.232-.04-.443-.114-.632-.075-.188-.182-.35-.32-.48s-.305-.232-.497-.303c-.193-.07-.403-.104-.633-.104-.247 0-.47.042-.668.123-.2.082-.368.192-.507.33-.14.14-.245.3-.32.48s-.11.37-.11.567zM228.055 243.755c.312 0 .6.044.863.13.264.087.49.21.68.37.19.16.34.354.445.58.106.227.16.48.16.755 0 .227-.03.43-.09.607-.06.18-.147.335-.258.47-.11.136-.246.25-.403.343-.158.094-.334.17-.53.226.48.123.84.33 1.083.62.242.29.362.653.362 1.09 0 .33-.064.626-.193.89s-.304.487-.526.673c-.223.184-.482.325-.778.424-.296.1-.614.147-.953.147-.39 0-.725-.047-1.002-.142-.278-.095-.512-.226-.704-.393s-.35-.364-.472-.593c-.124-.228-.228-.476-.313-.742l.396-.16c.104-.043.204-.055.302-.035.098.02.168.075.213.165.044.094.1.205.167.335.067.13.16.255.275.375.117.12.265.222.445.306.18.083.408.125.686.125.257 0 .482-.04.676-.122.193-.08.354-.188.483-.317s.226-.273.29-.434.1-.318.1-.476c0-.193-.027-.37-.078-.53-.052-.16-.148-.298-.29-.414-.14-.117-.332-.21-.577-.275-.245-.065-.56-.1-.943-.1v-.645c.315-.003.583-.036.804-.1.22-.063.4-.15.54-.26.14-.11.24-.242.303-.396.063-.154.095-.324.095-.51 0-.208-.033-.388-.1-.54s-.16-.28-.275-.38c-.117-.102-.254-.177-.414-.227s-.332-.075-.517-.075-.357.027-.516.08c-.16.054-.3.128-.42.223-.123.097-.225.21-.307.34s-.14.272-.175.43c-.044.116-.1.193-.167.23-.066.04-.163.05-.29.034l-.477-.08c.048-.327.14-.616.277-.868.137-.25.31-.462.52-.632.212-.17.453-.3.726-.388.27-.087.563-.13.88-.13z"/></g><g fill="#4E4E4E"><path d="M273.227 250.32h1.577v-4.886c0-.14.005-.288.016-.444l-1.31 1.095c-.045.037-.09.06-.134.067-.044.01-.086.01-.124.003s-.073-.02-.105-.04c-.033-.02-.058-.042-.075-.065l-.288-.385 2.194-1.845h.745v6.5h1.45v.68h-3.947v-.68zM281.596 248.145c.076-.096.146-.188.21-.274.066-.086.128-.173.187-.26-.188.147-.4.26-.637.336-.236.076-.487.114-.75.114-.278 0-.54-.045-.79-.135-.247-.09-.466-.223-.654-.397-.188-.175-.338-.39-.45-.645s-.167-.548-.167-.878c0-.313.06-.606.18-.88.12-.273.288-.512.503-.715s.473-.363.77-.48c.3-.116.626-.175.982-.175.352 0 .672.057.96.17s.534.27.74.476c.206.204.364.447.476.73s.166.597.166.94c0 .206-.02.402-.06.587-.038.186-.095.367-.17.545-.072.18-.162.355-.27.53-.104.175-.226.354-.358.537l-1.793 2.52c-.043.063-.107.114-.19.152s-.175.058-.28.058h-.843l2.24-2.855zm.848-2.18c0-.223-.037-.426-.11-.607-.074-.182-.176-.336-.307-.463-.13-.126-.285-.224-.465-.292s-.377-.103-.593-.103c-.227 0-.433.036-.618.107-.185.072-.344.17-.478.298-.133.126-.236.278-.308.455s-.108.37-.108.58c0 .227.033.43.1.607.067.178.163.33.288.452s.278.216.458.28.38.094.604.094c.247 0 .465-.04.655-.117.19-.078.35-.183.48-.313s.23-.28.3-.45.1-.346.1-.53zM288.943 243.835v.4c0 .113-.012.206-.038.28-.025.072-.05.135-.074.185l-3.05 5.984c-.046.087-.107.16-.187.223-.078.062-.184.093-.313.093h-.657l3.093-5.91c.044-.083.09-.16.136-.23.047-.07.1-.136.157-.2h-3.844c-.06 0-.11-.02-.154-.066-.045-.045-.067-.096-.067-.152v-.605h4.998zM292.525 243.755c.31 0 .6.044.862.13.265.087.49.21.68.37.19.16.34.354.446.58.105.227.158.48.158.755 0 .227-.028.43-.09.607-.06.18-.144.335-.255.47-.11.136-.246.25-.404.343-.156.094-.333.17-.528.226.48.123.84.33 1.082.62.242.29.362.653.362 1.09 0 .33-.064.626-.192.89-.13.264-.305.487-.527.673-.223.184-.482.325-.777.424-.297.1-.615.147-.953.147-.39 0-.725-.047-1.002-.142-.278-.095-.513-.226-.705-.393-.19-.167-.35-.364-.473-.593-.123-.228-.228-.476-.313-.742l.395-.16c.103-.043.202-.055.3-.035.098.02.17.075.214.165.044.094.1.205.167.335s.16.255.275.375.265.222.444.306c.18.083.407.125.685.125.258 0 .482-.04.676-.122.194-.08.356-.188.484-.317s.226-.273.29-.434c.065-.16.098-.318.098-.476 0-.193-.025-.37-.076-.53-.052-.16-.148-.298-.288-.414-.14-.117-.333-.21-.578-.275s-.56-.1-.942-.1v-.645c.314-.003.582-.036.804-.1.22-.063.4-.15.54-.26.14-.11.24-.242.303-.396.063-.154.095-.324.095-.51 0-.208-.033-.388-.1-.54-.067-.154-.16-.28-.275-.38-.116-.102-.255-.177-.413-.227-.16-.05-.332-.075-.518-.075-.184 0-.356.027-.516.08-.16.054-.3.128-.422.223-.12.097-.223.21-.305.34s-.14.272-.175.43c-.044.116-.1.193-.166.23-.068.04-.165.05-.292.034l-.478-.08c.048-.327.14-.616.277-.868.138-.25.312-.462.52-.632.212-.17.453-.3.726-.388.273-.087.566-.13.882-.13z"/></g><g fill="#4E4E4E"><path d="M337.697 250.32h1.578v-4.886c0-.14.004-.288.014-.444l-1.31 1.095c-.045.037-.09.06-.135.067-.045.01-.086.01-.123.003s-.072-.02-.105-.04-.057-.042-.074-.065l-.287-.385 2.193-1.845h.743v6.5h1.45v.68h-3.946v-.68zM346.066 248.145c.076-.096.146-.188.21-.274s.128-.173.187-.26c-.19.147-.402.26-.64.336-.235.076-.485.114-.75.114-.276 0-.538-.045-.786-.135-.25-.09-.467-.223-.656-.397-.187-.175-.337-.39-.448-.645s-.168-.548-.168-.878c0-.313.06-.606.182-.88.12-.273.287-.512.502-.715.217-.203.473-.363.77-.48.3-.116.626-.175.98-.175.355 0 .675.057.962.17.29.113.535.27.74.476.205.204.365.447.477.73s.166.597.166.94c0 .206-.02.402-.06.587-.038.186-.095.367-.17.545-.073.18-.163.355-.27.53-.106.175-.226.354-.358.537l-1.793 2.52c-.045.063-.11.114-.19.152s-.177.058-.282.058h-.844l2.24-2.855zm.848-2.18c0-.223-.037-.426-.11-.607-.073-.182-.175-.336-.306-.463-.13-.126-.285-.224-.465-.292s-.377-.103-.594-.103c-.228 0-.433.036-.618.107-.184.072-.344.17-.477.298-.135.126-.236.278-.31.455s-.106.37-.106.58c0 .227.032.43.1.607.065.178.16.33.286.452s.277.216.457.28c.182.062.383.094.605.094.246 0 .465-.04.654-.117s.35-.183.48-.313.23-.28.3-.45c.07-.17.102-.346.102-.53zM350.84 251.08c-.367 0-.7-.048-1.008-.143-.305-.095-.566-.23-.785-.407s-.39-.39-.508-.643c-.122-.252-.183-.534-.183-.848 0-.46.125-.84.37-1.14.247-.297.6-.51 1.06-.637-.387-.14-.68-.35-.877-.627s-.295-.61-.295-.998c0-.263.053-.51.16-.74.105-.23.256-.43.45-.6s.43-.303.702-.4c.273-.096.576-.145.912-.145.33 0 .634.05.91.146.272.096.507.228.702.398s.346.37.453.6c.105.23.158.478.158.74 0 .387-.1.72-.297.998-.2.278-.49.487-.875.627.46.127.814.34 1.06.638.248.3.37.68.37 1.14 0 .312-.06.595-.183.847-.12.252-.29.466-.508.643-.22.177-.48.313-.784.407s-.64.143-1.006.143zm0-.71c.24 0 .455-.032.645-.098.19-.065.352-.156.484-.275.13-.118.23-.26.302-.425s.105-.348.105-.547c0-.247-.043-.458-.127-.633s-.197-.317-.338-.428c-.143-.11-.307-.19-.492-.242-.184-.052-.377-.078-.58-.078-.2 0-.396.026-.58.078-.186.052-.35.133-.49.242-.143.11-.256.253-.34.428s-.127.386-.127.633c0 .2.035.382.105.547s.172.307.305.425c.13.12.293.21.482.275s.405.098.645.098zm0-3.44c.24 0 .445-.035.613-.107.17-.07.31-.166.414-.285.107-.118.184-.254.232-.407.046-.152.07-.31.07-.474 0-.167-.028-.323-.085-.47-.057-.147-.14-.275-.252-.386-.11-.11-.25-.196-.416-.26s-.36-.095-.578-.095-.413.03-.58.095-.304.15-.415.26c-.11.11-.195.238-.252.385-.057.147-.084.304-.084.47 0 .164.022.322.07.476.048.154.126.29.23.408.106.12.245.214.415.285.17.072.375.107.615.107zM356.994 243.755c.313 0 .6.044.863.13.264.087.492.21.682.37s.337.354.442.58c.107.227.16.48.16.755 0 .227-.03.43-.09.607-.06.18-.146.335-.258.47-.11.136-.244.25-.402.343-.158.094-.334.17-.53.226.48.123.84.33 1.083.62.24.29.36.653.36 1.09 0 .33-.063.626-.19.89-.13.264-.305.487-.527.673-.223.184-.482.325-.78.424-.294.1-.612.147-.952.147-.39 0-.725-.047-1.002-.142s-.512-.226-.703-.393-.35-.364-.472-.593c-.123-.228-.23-.476-.314-.742l.396-.16c.104-.043.203-.055.3-.035.1.02.17.075.214.165.045.094.1.205.168.335.066.13.158.255.273.375.117.12.266.222.445.306.18.083.408.125.686.125.258 0 .482-.04.676-.122.193-.08.355-.188.482-.317.13-.13.227-.273.29-.434s.1-.318.1-.476c0-.193-.026-.37-.077-.53-.053-.16-.148-.298-.29-.414-.14-.117-.33-.21-.577-.275-.244-.065-.56-.1-.943-.1v-.645c.316-.003.584-.036.805-.1s.4-.15.54-.26c.138-.11.24-.242.304-.396.063-.154.094-.324.094-.51 0-.208-.033-.388-.1-.54s-.158-.28-.275-.38c-.115-.102-.254-.177-.414-.227-.157-.05-.33-.075-.515-.075s-.357.027-.516.08c-.16.054-.302.128-.423.223-.12.097-.223.21-.307.34-.082.13-.14.272-.174.43-.045.116-.1.193-.166.23-.068.04-.164.05-.29.034l-.48-.08c.05-.327.14-.616.277-.868.137-.25.31-.462.52-.632s.454-.3.726-.388c.274-.087.567-.13.88-.13z"/></g><g fill="#4E4E4E"><path d="M402.167 250.48h1.578v-4.888c0-.14.005-.287.015-.443l-1.31 1.093c-.045.037-.09.06-.134.068-.045.01-.086.01-.123.003-.038-.006-.073-.02-.105-.04-.033-.02-.058-.042-.074-.065l-.288-.385 2.193-1.844h.744v6.5h1.45v.68h-3.947v-.68zM410.537 248.303c.075-.096.146-.188.21-.275.065-.086.127-.174.186-.26-.188.146-.4.258-.638.336-.236.076-.486.113-.75.113-.277 0-.54-.045-.788-.135-.25-.09-.467-.223-.655-.396-.188-.176-.34-.39-.45-.645-.11-.255-.167-.548-.167-.878 0-.313.06-.605.18-.88.12-.272.288-.51.504-.714s.472-.363.77-.48c.3-.117.626-.176.98-.176.355 0 .675.057.962.17.288.113.534.27.74.477.205.202.364.444.476.728s.167.598.167.94c0 .206-.02.403-.06.587-.04.186-.096.367-.17.545-.073.18-.163.355-.27.53-.106.175-.226.355-.36.538l-1.792 2.52c-.045.064-.108.115-.19.152-.082.04-.177.06-.282.06h-.842l2.24-2.857zm.848-2.18c0-.223-.037-.426-.11-.607-.074-.182-.176-.336-.306-.463-.132-.127-.286-.225-.466-.293-.18-.068-.378-.102-.594-.102-.227 0-.432.035-.617.107s-.344.17-.478.297-.236.28-.31.455c-.07.178-.106.37-.106.58 0 .227.032.43.1.607.066.178.162.33.287.453s.277.217.457.28c.18.063.382.095.604.095.246 0 .465-.04.655-.117.19-.078.35-.184.48-.313.13-.13.228-.28.298-.45.07-.17.105-.345.105-.53zM415.922 248.303c.075-.096.146-.188.21-.275.065-.086.127-.174.186-.26-.188.146-.4.258-.638.336-.236.076-.486.113-.75.113-.277 0-.54-.045-.788-.135-.25-.09-.467-.223-.655-.396-.188-.176-.34-.39-.45-.645-.11-.255-.167-.548-.167-.878 0-.313.06-.605.18-.88.12-.272.288-.51.504-.714s.473-.363.77-.48c.3-.117.627-.176.982-.176.354 0 .674.057.96.17.29.113.535.27.74.477.206.202.365.444.477.728s.167.598.167.94c0 .206-.02.403-.06.587-.04.186-.096.367-.17.545-.073.18-.163.355-.27.53-.106.175-.226.355-.36.538l-1.792 2.52c-.045.064-.108.115-.19.152-.082.04-.177.06-.282.06h-.843l2.24-2.857zm.848-2.18c0-.223-.037-.426-.11-.607-.074-.182-.176-.336-.306-.463s-.285-.225-.465-.293c-.182-.068-.38-.102-.595-.102-.227 0-.432.035-.617.107s-.344.17-.478.297-.236.28-.31.455c-.07.178-.106.37-.106.58 0 .227.033.43.1.607.067.178.163.33.288.453s.277.217.457.28c.18.063.38.095.603.095.246 0 .465-.04.655-.117.19-.078.35-.184.48-.313.13-.13.228-.28.298-.45.07-.17.104-.345.104-.53zM421.465 243.912c.312 0 .6.045.863.13s.49.21.68.37c.19.16.34.354.445.58.106.227.16.48.16.756 0 .227-.03.43-.09.607-.06.178-.146.334-.258.47-.11.136-.245.25-.403.343-.157.094-.334.168-.528.225.48.123.84.33 1.08.62.242.29.363.653.363 1.09 0 .33-.064.626-.192.89-.13.264-.305.488-.527.674-.223.184-.48.326-.778.424-.296.1-.613.15-.953.15-.39 0-.725-.05-1.002-.144-.277-.096-.512-.227-.704-.393-.19-.168-.348-.365-.472-.594-.123-.228-.228-.476-.313-.743l.396-.16c.104-.043.203-.055.3-.035.1.02.17.076.215.166.044.094.1.205.167.334.066.13.158.256.274.375.116.12.265.223.444.307.18.082.41.125.687.125.257 0 .48-.042.676-.124.193-.082.354-.188.482-.318.13-.13.226-.273.29-.434.065-.16.098-.318.098-.477 0-.193-.025-.37-.076-.53-.052-.16-.147-.298-.288-.413-.142-.117-.334-.21-.58-.275s-.56-.1-.942-.1v-.647c.315-.002.584-.035.805-.1.22-.063.4-.15.54-.26s.24-.242.303-.395c.063-.154.095-.324.095-.51 0-.207-.032-.387-.1-.54-.066-.153-.158-.28-.274-.38-.116-.102-.254-.176-.414-.227-.16-.048-.33-.073-.516-.073s-.357.027-.517.08-.3.127-.422.223-.224.207-.307.338c-.08.13-.14.273-.173.43-.045.117-.1.193-.167.232-.067.04-.164.05-.29.033l-.48-.08c.05-.328.142-.617.278-.87.137-.25.31-.46.52-.63s.453-.3.726-.39.566-.13.88-.13z"/></g><g fill="#4E4E4E"><path d="M532.86 243.755c.312 0 .603.045.873.135.27.09.505.222.704.393.198.172.354.38.468.628.112.247.17.527.17.84 0 .268-.042.516-.124.743-.08.23-.192.446-.333.652-.14.207-.303.41-.485.605-.184.196-.378.395-.583.595l-1.943 1.93c.137-.036.275-.065.416-.087s.275-.032.406-.032h2.465c.1 0 .178.028.236.085s.088.13.088.22v.54h-4.91v-.305c0-.063.013-.13.04-.195s.07-.128.128-.185l2.358-2.306c.195-.194.373-.38.534-.56.16-.177.3-.356.41-.536.114-.18.2-.362.264-.548.062-.185.092-.382.092-.592s-.034-.395-.103-.553-.16-.288-.28-.392-.257-.18-.417-.232c-.16-.052-.334-.078-.52-.078-.188 0-.36.027-.52.08-.157.054-.297.128-.418.223-.122.097-.224.21-.306.34s-.142.272-.176.43c-.04.116-.097.193-.167.23-.07.04-.17.05-.296.034l-.477-.08c.048-.327.142-.616.28-.868.14-.25.313-.462.524-.632.21-.17.45-.3.722-.388.272-.087.565-.13.88-.13zM541.538 247.42c0 .627-.07 1.17-.21 1.628-.138.458-.326.837-.566 1.137-.24.3-.523.523-.85.67-.328.147-.678.22-1.052.22-.377 0-.727-.072-1.05-.22-.324-.146-.606-.37-.846-.67-.24-.3-.43-.68-.565-1.137-.138-.46-.206-1-.206-1.628s.068-1.17.205-1.63.324-.84.564-1.143c.24-.302.52-.525.845-.673.323-.146.673-.22 1.05-.22.374 0 .724.073 1.05.22.328.147.612.37.852.673.24.302.43.683.567 1.143.14.46.208 1.003.208 1.63zm-.95 0c0-.547-.048-1.006-.142-1.377-.095-.372-.222-.67-.38-.898-.16-.227-.345-.39-.553-.487-.21-.098-.427-.147-.653-.147-.226 0-.443.05-.652.148-.21.1-.393.26-.55.487-.157.228-.283.526-.378.898-.094.37-.14.83-.14 1.377s.046 1.005.14 1.375c.095.37.22.668.378.896.157.228.34.39.55.488.21.098.427.147.652.147.227 0 .444-.05.653-.147.208-.1.393-.26.552-.487.16-.227.286-.524.38-.895.095-.37.142-.828.142-1.375zM542.555 250.32h1.578v-4.886c0-.14.005-.288.015-.444l-1.31 1.095c-.045.037-.09.06-.134.067-.045.01-.086.01-.123.003-.037-.007-.072-.02-.104-.04-.033-.02-.058-.042-.074-.065l-.288-.385 2.193-1.845h.745v6.5h1.45v.68h-3.947v-.68zM550.405 243.755c.312 0 .6.044.863.13.264.087.49.21.68.37.19.16.34.354.445.58.106.227.16.48.16.755 0 .227-.03.43-.09.607-.06.18-.146.335-.258.47-.11.136-.245.25-.403.343-.157.094-.334.17-.528.226.48.123.84.33 1.08.62.242.29.363.653.363 1.09 0 .33-.064.626-.192.89-.13.264-.305.487-.527.673-.223.184-.48.325-.778.424-.296.1-.613.147-.953.147-.39 0-.725-.047-1.002-.142s-.512-.226-.704-.393c-.19-.167-.348-.364-.472-.593-.123-.228-.228-.476-.313-.742l.396-.16c.104-.043.203-.055.3-.035.1.02.17.075.215.165.044.094.1.205.167.335.066.13.158.255.274.375s.265.222.444.306c.18.083.41.125.687.125.257 0 .48-.04.676-.122.193-.08.354-.188.482-.317.13-.13.226-.273.29-.434.065-.16.098-.318.098-.476 0-.193-.025-.37-.076-.53-.052-.16-.147-.298-.288-.414-.142-.117-.334-.21-.58-.275s-.56-.1-.942-.1v-.645c.315-.003.584-.036.805-.1s.4-.15.54-.26c.138-.11.24-.242.303-.396s.095-.324.095-.51c0-.208-.032-.388-.1-.54-.066-.154-.158-.28-.274-.38-.116-.102-.254-.177-.414-.227-.16-.05-.33-.075-.516-.075s-.357.027-.517.08c-.16.054-.3.128-.422.223-.122.097-.224.21-.307.34-.08.13-.14.272-.173.43-.045.116-.1.193-.167.23-.067.04-.164.05-.29.034l-.48-.08c.05-.327.142-.616.278-.868.137-.25.31-.462.52-.632s.453-.3.726-.388c.273-.087.567-.13.88-.13z"/></g><g fill="#4E4E4E"><path d="M468.294 243.705c.313 0 .604.045.874.135.27.09.505.222.704.393.198.172.354.38.468.628.112.247.17.527.17.84 0 .268-.042.516-.124.743-.082.23-.193.446-.334.652-.14.207-.303.41-.485.605-.184.196-.378.395-.583.595l-1.942 1.93c.137-.036.275-.065.416-.087s.275-.032.406-.032h2.466c.1 0 .178.028.236.085s.087.13.087.22v.54h-4.91v-.304c0-.063.013-.13.04-.195s.07-.127.128-.184l2.36-2.306c.194-.193.372-.38.533-.558.16-.178.3-.357.41-.537.114-.18.2-.362.264-.548.062-.185.092-.382.092-.592s-.035-.395-.104-.553-.162-.29-.28-.393-.258-.182-.418-.233c-.16-.052-.334-.078-.52-.078-.188 0-.36.026-.52.08-.157.053-.297.127-.418.222-.122.096-.224.208-.306.338s-.14.273-.175.43c-.042.117-.098.194-.168.232-.07.04-.17.05-.296.033l-.478-.08c.048-.327.142-.616.28-.868.14-.25.313-.462.524-.632.21-.17.45-.3.722-.388.273-.088.565-.132.88-.132zM476.768 247.37c0 .627-.07 1.17-.21 1.628-.138.458-.326.837-.566 1.137-.24.3-.523.523-.85.67-.328.147-.678.22-1.052.22-.377 0-.727-.072-1.05-.22-.324-.146-.606-.37-.846-.67-.24-.3-.43-.68-.565-1.137-.138-.46-.206-1-.206-1.628s.068-1.17.205-1.63.324-.84.564-1.143c.24-.302.52-.525.845-.673.323-.146.673-.22 1.05-.22.374 0 .724.073 1.05.22.328.147.612.37.852.673.24.302.43.683.567 1.143.138.46.208 1.003.208 1.63zm-.952 0c0-.547-.047-1.006-.14-1.377-.096-.372-.223-.67-.382-.898-.16-.227-.344-.39-.552-.487-.21-.098-.427-.147-.653-.147-.227 0-.444.05-.653.148-.21.1-.393.26-.55.487-.157.228-.283.526-.378.898-.095.37-.142.83-.142 1.377s.047 1.005.14 1.375c.096.37.222.668.38.896.156.228.34.39.55.488.208.098.426.147.65.147.228 0 .445-.05.654-.147.208-.1.393-.26.552-.487.16-.227.286-.524.38-.895.096-.37.142-.828.142-1.375zM482.625 247.37c0 .627-.07 1.17-.21 1.628-.138.458-.326.837-.566 1.137-.24.3-.524.523-.852.67-.327.147-.677.22-1.05.22-.378 0-.728-.072-1.052-.22-.323-.146-.605-.37-.845-.67-.24-.3-.428-.68-.564-1.137-.137-.46-.205-1-.205-1.628s.07-1.17.206-1.63.325-.84.565-1.143c.24-.302.522-.525.846-.673.324-.146.674-.22 1.05-.22.375 0 .725.073 1.052.22.327.147.61.37.85.673.24.302.43.683.568 1.143.14.46.21 1.003.21 1.63zm-.95 0c0-.547-.048-1.006-.142-1.377-.095-.372-.222-.67-.38-.898-.16-.227-.345-.39-.553-.487-.21-.098-.427-.147-.653-.147-.226 0-.443.05-.652.148-.21.1-.393.26-.55.487-.157.228-.283.526-.378.898-.094.37-.14.83-.14 1.377s.046 1.005.14 1.375c.095.37.22.668.378.896.157.228.34.39.55.488.21.098.427.147.652.147.227 0 .444-.05.653-.147.208-.1.393-.26.552-.487.16-.227.286-.524.38-.895.095-.37.142-.828.142-1.375zM485.9 243.705c.313 0 .6.044.864.13.264.087.49.21.68.37.19.16.34.354.445.58.105.227.16.48.16.755 0 .227-.03.43-.09.607-.062.18-.147.335-.26.47-.11.136-.244.25-.402.343-.157.094-.334.17-.528.226.48.123.84.33 1.08.62.242.29.363.653.363 1.09 0 .33-.064.626-.192.89s-.304.487-.526.673c-.223.184-.48.325-.778.424-.296.1-.613.147-.953.147-.39 0-.725-.047-1.002-.142s-.51-.226-.703-.393c-.19-.167-.35-.364-.473-.593-.123-.228-.228-.476-.313-.742l.397-.16c.103-.043.202-.055.3-.035.098.02.17.075.214.165.045.094.1.205.168.335.066.13.158.255.274.375s.265.222.444.306c.18.083.41.125.687.125.257 0 .48-.04.676-.122.192-.08.353-.188.48-.317.13-.13.227-.273.29-.434.066-.16.1-.318.1-.476 0-.193-.026-.37-.077-.53-.052-.16-.147-.298-.288-.414-.14-.117-.333-.21-.578-.275s-.56-.1-.943-.1v-.645c.315-.003.584-.036.805-.1s.4-.15.538-.26c.14-.11.24-.242.304-.396s.095-.324.095-.51c0-.208-.033-.388-.1-.54-.067-.154-.16-.28-.275-.38-.116-.102-.254-.177-.414-.227-.16-.05-.33-.075-.516-.075s-.357.027-.517.08c-.16.054-.3.128-.42.223-.123.097-.225.21-.308.34-.082.13-.14.272-.174.43-.045.116-.1.193-.167.23-.067.04-.164.05-.29.034l-.48-.08c.05-.327.142-.616.278-.868.137-.25.31-.462.52-.632s.453-.3.726-.388c.273-.087.567-.13.88-.13z"/></g></svg>