<svg xmlns="http://www.w3.org/2000/svg" width="561" height="252" viewBox="0 0 561 252"><g fill="#7F3F98"><path d="M289.225 117.928h-1.813v-8.566h1.813v8.566zM292.488 109.126v8.802h-1.656v-8.802h1.656zM295.537 109.126v8.802h-1.656v-8.802h1.657zM298.818 110.11c0 .14-.027.267-.084.385s-.13.223-.225.313-.206.162-.33.213c-.128.053-.263.078-.406.078-.136 0-.265-.025-.388-.077-.12-.05-.23-.12-.32-.212-.092-.09-.165-.194-.22-.313-.054-.118-.08-.246-.08-.384s.026-.266.08-.386c.055-.12.128-.225.22-.315s.2-.162.32-.214c.123-.05.252-.076.388-.076.144 0 .278.025.405.076.124.052.235.122.33.213s.167.194.224.314.084.25.084.387zm-.197 1.73v6.088h-1.655v-6.087h1.656zM300.036 117.928v-6.087h1.02c.208 0 .347.096.415.285l.103.425c.123-.118.253-.227.387-.325s.275-.183.426-.254c.15-.07.313-.125.486-.164s.363-.06.566-.06c.336 0 .635.058.895.172s.48.273.657.48c.178.203.312.447.4.73s.136.595.136.933v3.868h-1.65v-3.867c0-.337-.08-.6-.238-.787-.16-.187-.396-.28-.71-.28-.235 0-.454.05-.655.15-.203.1-.396.237-.58.41v4.375h-1.657zM309.63 111.747c.464 0 .886.072 1.267.218.38.146.705.354.978.623s.48.598.63.983.223.82.223 1.306c0 .483-.074.92-.223 1.308s-.357.717-.63.988-.598.48-.978.626c-.38.146-.803.22-1.266.22-.468 0-.893-.074-1.274-.22-.383-.146-.71-.354-.98-.626s-.484-.6-.634-.988-.226-.824-.226-1.308c0-.484.076-.92.226-1.305s.36-.713.633-.982.6-.477.98-.623c.382-.146.807-.218 1.276-.218zm0 5.047c.472 0 .822-.16 1.05-.48.23-.32.343-.798.343-1.432 0-.63-.114-1.105-.343-1.426-.228-.32-.578-.48-1.05-.48-.483 0-.84.16-1.067.48-.23.32-.342.796-.342 1.426 0 .634.114 1.11.343 1.432.227.32.583.48 1.068.48zM315.672 110.11c0 .14-.027.267-.084.385s-.13.223-.225.313c-.094.09-.205.162-.33.213-.127.053-.262.078-.405.078-.136 0-.265-.025-.388-.077-.12-.05-.23-.12-.32-.212-.092-.09-.165-.194-.22-.313-.054-.118-.08-.246-.08-.384s.026-.266.08-.386c.055-.12.128-.225.22-.315s.2-.162.32-.214c.123-.05.252-.076.388-.076.144 0 .278.025.405.076.125.052.236.122.33.213s.168.194.225.314.084.25.084.387zm-.197 1.73v6.088h-1.656v-6.087h1.655zM320.736 113.093c-.045.067-.09.115-.135.145-.046.03-.108.044-.188.044s-.162-.02-.246-.06-.178-.08-.28-.126c-.106-.045-.225-.088-.358-.127-.135-.04-.29-.06-.465-.06-.27 0-.477.054-.625.162-.147.108-.222.25-.222.428 0 .122.042.225.126.307.084.083.195.155.333.216.138.062.296.118.472.17.176.055.356.112.543.176.186.062.367.135.543.217.176.083.332.187.47.31.14.125.25.274.334.45.084.175.126.386.126.634 0 .296-.055.568-.165.818s-.27.466-.483.646c-.212.182-.476.323-.79.426-.317.102-.682.153-1.094.153-.21 0-.42-.02-.63-.057-.207-.037-.405-.09-.593-.16-.188-.067-.364-.147-.528-.238-.165-.09-.307-.188-.427-.295l.384-.608c.044-.07.1-.126.165-.165s.15-.06.255-.06c.1 0 .192.025.276.074.084.05.178.103.282.16.104.057.227.11.37.16.14.048.317.072.53.072.16 0 .297-.018.413-.053s.21-.084.282-.145c.072-.062.125-.13.158-.207.035-.076.052-.155.052-.238 0-.134-.043-.243-.13-.327-.086-.085-.197-.158-.335-.222-.138-.063-.298-.12-.478-.17-.18-.053-.363-.11-.55-.173-.185-.063-.367-.138-.545-.224-.18-.087-.336-.196-.474-.328-.14-.132-.25-.294-.336-.487-.086-.19-.13-.426-.13-.7 0-.253.05-.492.15-.718.1-.227.25-.427.45-.6s.45-.31.747-.413.642-.154 1.033-.154c.44 0 .84.07 1.2.212s.656.327.89.556l-.377.58z"/></g><g fill="#F9A01B"><path d="M363.37 38.285h-1.4c-.154 0-.28-.036-.38-.11-.098-.07-.17-.165-.22-.28l-.587-1.635h-3.468l-.588 1.636c-.04.1-.11.188-.21.27-.1.08-.227.12-.38.12h-1.408l3.4-8.566h1.842l3.397 8.565zm-5.616-3.253h2.592l-.942-2.62c-.056-.14-.114-.3-.177-.485-.063-.185-.123-.384-.184-.596-.056.217-.113.42-.174.605-.06.188-.118.35-.175.487l-.94 2.61zM365.613 29.483v8.802h-1.656v-8.802h1.656zM368.66 29.483v8.802h-1.655v-8.802h1.656zM377.835 31.36c-.056.09-.112.156-.17.198-.06.04-.134.062-.226.062-.09 0-.185-.03-.286-.092-.102-.06-.22-.127-.357-.197-.136-.07-.292-.136-.468-.197-.178-.06-.383-.09-.62-.09-.415 0-.728.09-.935.273-.21.183-.313.422-.313.717 0 .19.057.346.17.47s.266.23.45.32c.187.092.397.173.634.243.236.07.48.148.727.233s.49.183.726.297.446.258.633.43c.186.175.336.386.45.636.113.25.17.555.17.912 0 .39-.07.755-.207 1.096-.138.34-.337.64-.597.892-.26.254-.582.454-.964.6-.383.146-.815.22-1.3.22-.275 0-.55-.03-.824-.084s-.538-.132-.792-.23-.493-.216-.717-.354c-.225-.138-.42-.292-.588-.46l.527-.84c.044-.062.102-.114.174-.156.072-.04.148-.062.23-.062.106 0 .22.04.34.118s.26.165.415.26.338.18.544.26.453.118.74.118c.42 0 .746-.095.976-.283.23-.19.345-.472.345-.846 0-.216-.057-.392-.17-.525-.115-.135-.264-.247-.447-.337-.185-.09-.395-.17-.63-.233-.237-.065-.48-.137-.727-.216-.247-.078-.488-.173-.725-.283s-.446-.255-.63-.436c-.185-.182-.333-.405-.447-.674-.114-.268-.17-.6-.17-.997 0-.32.062-.628.19-.927.13-.3.316-.565.564-.797.248-.233.553-.42.915-.563s.776-.212 1.245-.212c.523 0 1.01.08 1.455.24.445.158.822.38 1.13.663l-.442.832zM381.64 38.38c-.28 0-.528-.04-.745-.12-.216-.082-.398-.197-.546-.347s-.26-.33-.337-.543c-.075-.213-.114-.452-.114-.72v-3.283h-.583c-.088 0-.162-.027-.225-.082-.063-.056-.093-.138-.093-.248V32.4l.988-.178.336-1.576c.045-.178.166-.267.367-.267h.864v1.853h1.596v1.133h-1.596v3.177c0 .17.04.303.123.4s.2.148.352.148c.08 0 .146-.008.202-.025.057-.018.104-.038.145-.06l.11-.06c.034-.017.07-.025.105-.025.048 0 .088.01.12.032.03.02.064.058.096.11l.498.778c-.23.177-.486.31-.773.4-.29.094-.586.14-.894.14zM388.125 38.285c-.156 0-.275-.02-.357-.064-.082-.043-.148-.133-.2-.27l-.133-.385c-.155.135-.308.25-.453.352s-.298.186-.456.254c-.158.07-.326.122-.504.157-.178.036-.375.054-.59.054-.273 0-.522-.035-.745-.105-.224-.07-.417-.176-.58-.316-.16-.14-.286-.314-.374-.523-.088-.208-.132-.448-.132-.72 0-.225.06-.447.175-.67s.315-.425.597-.608c.283-.184.658-.336 1.13-.458.47-.122 1.058-.19 1.766-.207v-.315c0-.382-.082-.662-.246-.842-.164-.18-.4-.27-.708-.27-.23 0-.418.027-.57.08-.152.054-.285.11-.398.172-.114.062-.22.118-.32.17-.102.055-.217.08-.35.08-.115 0-.213-.027-.29-.085-.078-.057-.144-.124-.195-.203l-.293-.52c.364-.323.766-.563 1.206-.724.44-.16.916-.238 1.43-.238.366 0 .695.06.985.177s.536.282.738.493c.2.21.357.46.465.752.108.292.163.61.163.957v3.824h-.758zm-2.178-1.004c.27 0 .51-.047.713-.144.205-.096.406-.245.606-.445v-.943c-.403.016-.74.05-1.008.1-.27.052-.48.115-.64.192-.158.075-.27.164-.336.265-.065.1-.1.21-.1.327 0 .236.068.403.202.502s.323.147.563.147zM392.313 38.38c-.28 0-.527-.04-.744-.12-.217-.082-.4-.197-.547-.347s-.26-.33-.336-.543c-.075-.213-.114-.452-.114-.72v-3.283h-.582c-.087 0-.16-.027-.224-.082-.063-.056-.093-.138-.093-.248V32.4l.99-.178.335-1.576c.045-.178.166-.267.367-.267h.863v1.853h1.596v1.133h-1.596v3.177c0 .17.04.303.123.4s.2.148.353.148c.08 0 .147-.008.203-.025.057-.018.104-.038.145-.06l.112-.06c.033-.017.068-.025.104-.025.048 0 .088.01.12.032.03.02.064.058.096.11l.498.778c-.23.177-.486.31-.773.4-.29.094-.586.14-.894.14zM397.39 32.104c.395 0 .76.062 1.094.186s.622.304.864.54.43.526.564.87c.133.346.2.738.2 1.18 0 .12-.006.222-.02.3-.01.08-.03.142-.058.19-.03.046-.066.078-.115.096-.048.02-.11.027-.187.027h-3.714c.05.57.216.987.494 1.25.277.265.643.397 1.095.397.227 0 .424-.026.59-.08.166-.053.313-.11.438-.177.126-.064.24-.124.342-.177s.203-.08.304-.08c.127 0 .227.048.3.142l.48.59c-.177.2-.37.368-.583.5s-.43.236-.66.313c-.228.078-.457.13-.688.16-.232.03-.457.045-.672.045-.433 0-.836-.07-1.21-.21-.374-.14-.7-.347-.978-.62s-.497-.612-.656-1.018c-.16-.406-.24-.876-.24-1.41 0-.414.068-.804.207-1.17.138-.366.336-.685.597-.957.26-.27.575-.486.948-.646.372-.16.792-.24 1.26-.24zm.028 1.145c-.396 0-.705.11-.93.333s-.37.536-.438.94h2.58c0-.168-.023-.33-.07-.482-.045-.153-.118-.29-.22-.407-.1-.118-.225-.21-.376-.28-.15-.07-.333-.104-.546-.104zM404.984 33.45c-.044.067-.09.115-.135.145s-.11.044-.19.044-.162-.02-.246-.06-.178-.082-.28-.127c-.105-.045-.224-.088-.358-.127-.134-.04-.29-.06-.465-.06-.267 0-.476.055-.623.163s-.222.25-.222.427c0 .122.04.225.126.307.085.083.195.155.334.216.138.062.295.118.47.17.177.055.358.112.544.176.186.063.367.136.543.218.177.083.334.187.472.31.14.125.25.274.334.45.084.175.125.386.125.634 0 .295-.054.567-.163.817-.11.25-.27.466-.483.646-.212.183-.476.324-.792.427-.316.102-.68.153-1.092.153-.213 0-.422-.02-.63-.057-.208-.037-.406-.09-.595-.16-.188-.067-.363-.147-.527-.238-.164-.09-.307-.188-.426-.295l.383-.608c.045-.07.1-.126.166-.165.066-.04.15-.06.255-.06.1 0 .193.025.277.074.084.05.178.104.28.16.105.058.228.11.37.16.143.05.318.073.53.073.16 0 .3-.018.415-.053.115-.035.21-.084.28-.145.073-.062.126-.13.16-.207s.052-.156.052-.24c0-.133-.044-.242-.13-.326-.087-.085-.2-.158-.336-.222-.14-.063-.298-.12-.478-.17-.18-.053-.363-.11-.55-.173-.186-.063-.367-.138-.545-.224-.178-.087-.335-.196-.474-.328-.138-.132-.25-.294-.336-.487-.086-.192-.13-.427-.13-.702 0-.252.05-.49.15-.717.1-.228.25-.428.45-.6.2-.174.45-.312.748-.414.297-.103.643-.153 1.034-.153.44 0 .84.07 1.2.212s.656.327.89.556l-.378.58z"/></g><path fill="none" stroke="#D9D9D8" stroke-width=".5" stroke-linejoin="round" stroke-miterlimit="10" d="M36.822 196.87h522.33M36.822 161.16h522.33M36.822 125.45h522.33M36.822 89.258h522.33M36.822 53.548h522.33M36.822 17.84h522.33"/><path fill="none" stroke="#9B9B9B" stroke-width=".5" stroke-linejoin="round" stroke-miterlimit="10" d="M36.822 232.578h522.33M36.822 230.166v4.825M109.046 230.166v4.825M181.914 230.166v4.825M254.137 230.166v4.825M327.006 230.166v4.825M399.23 230.166v4.825M472.097 230.166v4.825M544.32 230.166v4.825"/><path fill="#7F3F98" d="M116.784 114.386c-.075 0-.15-.008-.222-.025l-14.832-3.377-14.257-4.362-14.823-5.783-13.922-2.842-14.65 2.383c-.544.094-1.06-.28-1.148-.826-.09-.545.28-1.06.826-1.147l14.832-2.413c.12-.02.242-.017.36.007l14.187 2.895c.056.012.11.028.164.048l14.83 5.79 14.116 4.32 14.602 3.32 13.917-1.42 14.472-4.707 14.008-15.723c.092-.104.206-.188.332-.245l14.832-6.755c.15-.068.316-.096.48-.087l13.95.948 14.612-6.18c.07-.03.146-.052.222-.065l14.186-2.414c.087-.014.177-.018.265-.01l14.832 1.45c.21.02.408.105.565.245l13.996 12.378L262.1 93.11c.114.026.223.072.32.135l13.79 8.91 14.377-4.68c.036-.01.072-.02.11-.028l14.186-2.896c.098-.02.197-.024.297-.014l14.832 1.448c.066.006.133.02.196.04l13.947 4.27 14.535-2.84 14.137-4.326c.064-.02.13-.033.195-.04l14.83-1.447c.56-.06 1.04.35 1.094.9.054.55-.35 1.038-.897 1.09l-14.732 1.44-14.09 4.312c-.034.01-.068.02-.103.025l-14.832 2.896c-.16.03-.326.023-.484-.025l-14.092-4.314-14.582-1.423-13.983 2.855-14.777 4.81c-.286.092-.6.052-.853-.112L261.48 95.02l-14.658-3.34c-.164-.036-.315-.114-.44-.225l-13.945-12.332-14.375-1.403-13.94 2.37-14.725 6.23c-.144.06-.302.087-.458.076l-13.935-.947-14.41 6.562-14.047 15.767c-.118.13-.27.23-.437.285l-14.83 4.825c-.07.02-.138.037-.21.043l-14.185 1.448c-.033.004-.067.006-.1.006z"/><path fill="none" stroke="#7F3F98" stroke-width="2" stroke-linecap="round" stroke-linejoin="round" stroke-miterlimit="10" d="M435.985 96.497l14.187-2.413 14.83-6.756 14.188 3.378 14.832 4.343 14.187 5.79 14.83 6.273 14.188-2.896 14.83-5.308"/><path fill="none" stroke="#F9A01B" stroke-width="2" stroke-linecap="round" stroke-linejoin="round" stroke-miterlimit="10" d="M43.916 120.625l14.832-5.79 14.186.482 14.832 4.342 14.186 3.378 14.832-1.93 14.186-2.896 14.832-11.582 14.187-9.168 14.83-6.274 14.187-2.895 14.832-5.31 14.185-1.446 14.832-1.93 14.187 2.895 14.83-1.447 14.19-1.448 14.83-5.79 14.186-5.31 14.832-2.894 14.187-3.378 14.83-5.79 14.187-5.31 14.83-.964 14.188.483 14.833 4.826 14.186.964 14.83-5.79 14.188-4.826 14.83-8.204 14.188-1.93 14.832 6.273 14.187 9.17 14.83 5.79 14.188-2.896 14.83-.964"/><g fill="#4E4E4E"><path d="M20.345 235.41c-.373-.035-.712-.135-1.02-.296-.305-.162-.57-.368-.79-.618l.25-.41c.023-.036.054-.066.09-.09.038-.022.078-.034.12-.034.06 0 .126.03.2.095.074.063.165.136.272.218.107.08.236.16.386.237.15.076.33.128.538.155l.172-2.655c-.216-.07-.427-.15-.635-.237-.208-.09-.394-.204-.56-.346-.164-.143-.296-.32-.396-.535-.1-.216-.15-.484-.15-.808 0-.243.045-.48.133-.713s.216-.438.386-.617c.168-.18.376-.328.623-.442.246-.115.528-.18.845-.193l.046-.72c.003-.063.025-.12.067-.17.043-.05.097-.075.165-.075h.305l-.065.99c.323.043.603.134.838.27.236.138.444.303.626.495l-.2.33c-.062.1-.132.15-.212.15-.043 0-.096-.02-.16-.063-.062-.043-.138-.09-.226-.147-.088-.055-.19-.11-.31-.164-.118-.057-.253-.096-.404-.12l-.152 2.42c.222.074.44.154.656.24.215.088.41.2.582.336.172.137.312.308.418.513.106.204.16.46.16.767 0 .3-.047.58-.14.845s-.227.495-.404.695c-.177.2-.395.362-.65.487-.258.125-.55.197-.88.218l-.057.88c-.002.063-.025.12-.068.167-.043.048-.097.072-.162.072h-.305l.07-1.13zm-.748-5.414c0 .16.026.3.078.418.053.118.125.223.217.313s.2.168.323.235c.123.066.257.126.402.18l.14-2.255c-.2.02-.375.063-.52.13-.147.066-.268.15-.36.25-.095.1-.165.213-.21.338-.047.124-.07.255-.07.39zm2.563 3.32c0-.166-.028-.31-.085-.43-.057-.12-.135-.224-.233-.31-.1-.087-.214-.162-.347-.226s-.274-.122-.425-.175l-.157 2.49c.204-.02.382-.068.536-.143.153-.075.283-.17.39-.288.105-.116.185-.252.24-.407.053-.153.08-.324.08-.51zM28.52 231.77c0 .628-.063 1.17-.187 1.63-.125.457-.295.836-.51 1.136-.216.3-.47.523-.765.67-.294.147-.61.22-.944.22-.34 0-.654-.072-.945-.22-.292-.146-.545-.37-.76-.67-.216-.3-.386-.68-.51-1.137-.122-.46-.184-1.002-.184-1.63s.062-1.17.185-1.63.293-.84.51-1.142c.215-.302.468-.525.76-.673.29-.146.605-.22.944-.22.335 0 .65.073.944.22.294.147.55.37.765.673.215.302.386.683.51 1.143s.187 1.005.187 1.63zm-.855 0c0-.546-.042-1.005-.127-1.376-.085-.372-.2-.67-.342-.898-.143-.227-.31-.39-.497-.487-.19-.1-.384-.148-.587-.148s-.4.05-.586.147c-.188.098-.353.26-.495.486-.142.228-.254.526-.34.898-.083.37-.126.83-.126 1.377s.042 1.006.127 1.376c.085.37.198.668.34.896.14.227.306.39.494.487.188.097.383.146.586.146s.398-.05.586-.147c.187-.1.353-.262.496-.488.143-.228.257-.525.342-.896.085-.37.127-.828.127-1.375z"/></g><g fill="#4E4E4E"><path d="M9.87 199.73c-.373-.037-.712-.137-1.02-.298-.305-.162-.57-.368-.79-.618l.25-.41c.023-.036.054-.066.09-.09.038-.022.078-.034.12-.034.06 0 .126.03.2.095.074.063.165.136.272.218.107.08.236.16.386.237.15.076.33.128.538.155l.17-2.655c-.215-.07-.426-.15-.634-.237-.208-.09-.394-.204-.56-.346-.164-.142-.296-.32-.396-.534-.1-.216-.15-.484-.15-.808 0-.243.044-.48.132-.713s.216-.438.386-.617c.17-.18.377-.328.624-.442.246-.115.528-.18.845-.193l.046-.72c.002-.063.024-.12.066-.17.042-.05.096-.075.164-.075h.305l-.065.99c.323.043.603.134.838.27.236.138.444.303.626.495l-.2.33c-.06.1-.13.15-.21.15-.044 0-.097-.02-.16-.063-.063-.042-.14-.09-.227-.146-.088-.054-.19-.108-.31-.163-.118-.056-.253-.095-.404-.118l-.152 2.42c.223.072.44.152.657.24.215.086.41.197.582.334.17.137.31.308.417.513.106.205.16.46.16.768 0 .3-.047.58-.14.845s-.227.495-.404.695c-.177.2-.395.362-.65.487-.258.125-.55.197-.88.218l-.057.88c-.003.063-.026.12-.07.167-.042.05-.096.073-.16.073H9.8l.07-1.13zm-.748-5.417c0 .16.026.3.078.418.053.12.125.224.217.314s.2.168.323.235c.123.065.257.125.402.18l.14-2.256c-.2.02-.375.063-.52.13-.147.066-.268.15-.36.25-.095.1-.165.213-.21.338-.047.125-.07.256-.07.39zm2.563 3.32c0-.165-.028-.31-.085-.43-.057-.12-.135-.223-.233-.31-.1-.086-.214-.16-.347-.225s-.274-.122-.425-.175l-.157 2.49c.204-.02.382-.068.536-.143.154-.075.284-.17.39-.288.106-.116.186-.252.24-.407.054-.154.08-.325.08-.51zM15.694 192.424c.28 0 .542.045.785.135.242.09.453.22.632.392.18.172.32.38.42.628.102.246.152.526.152.84 0 .267-.037.515-.11.742-.075.23-.175.446-.3.652-.127.207-.272.41-.438.605-.165.195-.34.394-.524.594l-1.746 1.93c.123-.036.248-.065.374-.087.126-.02.248-.032.365-.032h2.217c.09 0 .16.028.212.085s.08.13.08.22v.54h-4.417v-.305c0-.063.012-.13.037-.195.024-.066.063-.128.115-.185l2.12-2.306c.174-.194.334-.38.48-.56.144-.177.267-.356.37-.536.1-.18.18-.362.234-.548.055-.185.083-.382.083-.592s-.03-.395-.092-.553-.146-.288-.252-.392c-.106-.104-.23-.18-.376-.232-.145-.052-.3-.078-.467-.078-.17 0-.325.027-.466.08-.142.054-.267.128-.376.223-.11.097-.2.21-.275.34s-.126.272-.157.43c-.037.116-.087.193-.15.23-.063.04-.152.05-.266.034l-.43-.08c.043-.327.127-.616.252-.868.125-.25.282-.462.47-.632s.407-.3.65-.388c.245-.088.51-.132.792-.132zM22.978 196.09c0 .626-.063 1.168-.187 1.627-.124.458-.294.837-.51 1.137-.215.3-.47.523-.764.67-.294.147-.61.22-.944.22-.34 0-.654-.072-.945-.22-.29-.146-.544-.37-.76-.67-.215-.3-.385-.68-.508-1.137-.124-.46-.186-1-.186-1.628s.062-1.17.185-1.63.29-.842.507-1.144c.216-.302.47-.525.76-.673.29-.146.606-.22.945-.22.335 0 .65.073.944.22.294.147.55.37.765.673.216.302.387.683.51 1.143s.188 1.002.188 1.63zm-.855 0c0-.548-.042-1.007-.127-1.378-.085-.372-.2-.67-.342-.898-.143-.227-.31-.39-.497-.487-.188-.098-.383-.147-.586-.147s-.398.05-.585.147c-.188.1-.353.26-.495.487-.142.228-.254.526-.34.898-.083.37-.126.83-.126 1.377s.042 1.004.127 1.374c.086.37.2.668.34.896.142.227.307.39.495.487.188.098.383.147.586.147s.4-.05.587-.147c.188-.1.354-.26.497-.487.143-.228.257-.525.342-.896.085-.37.127-.828.127-1.375zM28.52 196.09c0 .626-.063 1.168-.187 1.627-.125.458-.295.837-.51 1.137-.216.3-.47.523-.765.67-.294.147-.61.22-.944.22-.34 0-.654-.072-.945-.22-.292-.146-.545-.37-.76-.67-.216-.3-.386-.68-.51-1.137-.122-.46-.184-1-.184-1.628s.062-1.17.185-1.63.293-.842.51-1.144c.215-.302.468-.525.76-.673.29-.146.605-.22.944-.22.335 0 .65.073.944.22.294.147.55.37.765.673.215.302.386.683.51 1.143s.187 1.002.187 1.63zm-.855 0c0-.548-.042-1.007-.127-1.378-.085-.372-.2-.67-.342-.898-.143-.227-.31-.39-.497-.487-.19-.098-.384-.147-.587-.147s-.4.05-.586.147c-.188.1-.353.26-.495.487-.142.228-.254.526-.34.898-.083.37-.126.83-.126 1.377s.042 1.004.127 1.374c.085.37.198.668.34.896.14.227.306.39.494.487.188.098.383.147.586.147s.398-.05.586-.147c.187-.1.353-.26.496-.487.143-.228.257-.525.342-.896.085-.37.127-.828.127-1.375z"/></g><g fill="#4E4E4E"><path d="M9.87 164.045c-.373-.036-.712-.136-1.02-.297-.305-.162-.57-.368-.79-.618l.25-.41c.023-.036.054-.066.09-.09.038-.022.078-.034.12-.034.06 0 .126.03.2.095.074.064.165.137.272.22.107.08.236.16.386.236.15.076.33.128.538.155l.17-2.654c-.215-.07-.426-.15-.634-.237-.208-.09-.394-.205-.56-.347-.164-.142-.296-.32-.396-.534-.1-.217-.15-.485-.15-.81 0-.242.044-.48.132-.712s.216-.438.386-.617c.17-.18.377-.327.624-.44.246-.116.528-.18.845-.194l.046-.72c.002-.063.024-.12.066-.17.042-.05.096-.075.164-.075h.305l-.065.99c.323.044.603.135.838.272.236.137.444.302.626.494l-.2.33c-.06.1-.13.15-.21.15-.044 0-.097-.02-.16-.063-.063-.042-.14-.09-.227-.146-.088-.055-.19-.11-.31-.164-.118-.056-.253-.095-.404-.118l-.152 2.42c.223.073.44.153.657.24.215.087.41.198.582.335.17.137.31.308.417.513.106.205.16.46.16.768 0 .3-.047.582-.14.846s-.227.495-.404.695c-.177.2-.395.363-.65.488-.258.125-.55.197-.88.218l-.057.88c-.003.063-.026.12-.07.167-.042.05-.096.073-.16.073H9.8l.07-1.13zm-.748-5.415c0 .16.026.3.078.418.053.118.125.223.217.313s.2.17.323.236c.123.066.257.126.402.18l.14-2.255c-.2.02-.375.064-.52.13-.147.067-.268.15-.36.25-.095.1-.165.214-.21.34-.047.123-.07.254-.07.39zm2.563 3.32c0-.166-.028-.31-.085-.43-.057-.12-.135-.224-.233-.31-.1-.087-.214-.162-.347-.226s-.274-.122-.425-.175l-.157 2.49c.204-.022.382-.07.536-.144.154-.075.284-.17.39-.288.106-.116.186-.252.24-.407.054-.152.08-.323.08-.51zM17.057 161.4h1.002v.51c0 .054-.016.1-.044.135-.03.037-.075.056-.137.056h-.823v1.886h-.72V162.1h-2.94c-.06 0-.114-.02-.158-.057-.046-.038-.074-.086-.086-.143l-.083-.455 3.22-4.625h.767v4.58zm-.72-2.955c0-.087 0-.18.006-.282.005-.102.015-.206.03-.313l-2.41 3.55h2.373v-2.955zM22.978 160.405c0 .627-.063 1.17-.187 1.628-.124.458-.294.837-.51 1.137-.215.3-.47.523-.764.67-.294.147-.61.22-.944.22-.34 0-.654-.072-.945-.22-.29-.146-.544-.37-.76-.67-.215-.3-.385-.68-.508-1.137-.124-.46-.186-1-.186-1.628s.062-1.17.185-1.63.29-.84.507-1.143c.216-.302.47-.525.76-.673.29-.147.606-.22.945-.22.335 0 .65.072.944.22.294.146.55.37.765.672.216.302.387.683.51 1.143s.188 1.003.188 1.63zm-.855 0c0-.547-.042-1.006-.127-1.377-.085-.372-.2-.67-.342-.898-.143-.227-.31-.39-.497-.487-.188-.098-.383-.147-.586-.147s-.398.05-.585.147c-.188.1-.353.26-.495.487-.142.228-.254.526-.34.898-.083.37-.126.83-.126 1.377s.042 1.005.127 1.375c.086.37.2.668.34.896.142.227.307.39.495.487.188.098.383.147.586.147s.4-.05.587-.147c.188-.1.354-.26.497-.487.143-.228.257-.525.342-.896.085-.37.127-.828.127-1.375zM28.52 160.405c0 .627-.063 1.17-.187 1.628-.125.458-.295.837-.51 1.137-.216.3-.47.523-.765.67-.294.147-.61.22-.944.22-.34 0-.654-.072-.945-.22-.292-.146-.545-.37-.76-.67-.216-.3-.386-.68-.51-1.137-.122-.46-.184-1-.184-1.628s.062-1.17.185-1.63.293-.84.51-1.143c.215-.302.468-.525.76-.673.29-.147.605-.22.944-.22.335 0 .65.072.944.22.294.146.55.37.765.672.215.302.386.683.51 1.143s.187 1.003.187 1.63zm-.855 0c0-.547-.042-1.006-.127-1.377-.085-.372-.2-.67-.342-.898-.143-.227-.31-.39-.497-.487-.19-.098-.384-.147-.587-.147s-.4.05-.586.147c-.188.1-.353.26-.495.487-.142.228-.254.526-.34.898-.083.37-.126.83-.126 1.377s.042 1.005.127 1.375c.085.37.198.668.34.896.14.227.306.39.494.487.188.098.383.147.586.147s.398-.05.586-.147c.187-.1.353-.26.496-.487.143-.228.257-.525.342-.896.085-.37.127-.828.127-1.375z"/></g><g fill="#4E4E4E"><path d="M9.87 128.363c-.373-.037-.712-.137-1.02-.297-.305-.162-.57-.368-.79-.618l.25-.41c.023-.036.054-.066.09-.09s.078-.035.12-.035c.06 0 .126.032.2.095.074.064.165.137.272.218.107.082.236.16.386.237.15.077.33.13.538.155l.17-2.655c-.215-.07-.426-.15-.634-.238s-.394-.203-.56-.345c-.164-.142-.296-.32-.396-.535s-.15-.484-.15-.808c0-.243.044-.48.132-.712.088-.23.216-.438.386-.618s.377-.327.624-.442c.246-.115.528-.18.845-.192l.046-.72c.002-.063.024-.12.066-.17.042-.05.096-.075.164-.075h.305l-.065.99c.323.043.603.133.838.27.236.137.444.302.626.495l-.2.33c-.06.1-.13.15-.21.15-.044 0-.097-.02-.16-.063-.063-.042-.14-.09-.227-.145s-.19-.11-.31-.165c-.118-.055-.253-.094-.404-.118l-.152 2.42c.223.073.44.153.657.24.215.087.41.198.582.335.17.137.31.308.417.513.106.205.16.46.16.768 0 .3-.047.582-.14.845s-.227.496-.404.695c-.177.2-.395.363-.65.488-.258.125-.55.197-.88.217l-.057.88c-.003.064-.026.12-.07.167-.042.05-.096.074-.16.074H9.8l.07-1.13zm-.748-5.415c0 .16.026.3.078.417.053.118.125.223.217.313s.2.168.323.235c.123.067.257.127.402.18l.14-2.255c-.2.02-.375.063-.52.13-.147.067-.268.15-.36.25-.095.1-.165.212-.21.337-.047.126-.07.257-.07.393zm2.563 3.32c0-.167-.028-.31-.085-.43-.057-.12-.135-.224-.233-.31-.1-.087-.214-.162-.347-.225s-.274-.122-.425-.175l-.157 2.49c.204-.02.382-.067.536-.143.154-.075.284-.17.39-.288.106-.115.186-.252.24-.407.054-.155.08-.325.08-.512zM15.154 123.823c-.062.08-.12.158-.17.235l-.158.225c.157-.117.33-.208.52-.272s.395-.097.617-.097c.268 0 .52.048.757.143.237.095.444.233.62.415.178.183.32.406.424.67s.157.568.157.91c0 .33-.055.636-.166.92-.11.283-.266.53-.464.74-.198.21-.437.373-.716.494-.28.12-.586.18-.92.18-.334 0-.635-.057-.906-.172s-.5-.28-.69-.49-.335-.47-.44-.77c-.102-.302-.153-.64-.153-1.013 0-.314.063-.648.19-1.003s.333-.734.613-1.137l1.682-2.445c.043-.06.102-.11.178-.152.075-.042.162-.063.26-.063h.73l-1.964 2.683zm-.9 2.27c0 .23.03.44.09.63s.153.353.272.49c.118.137.263.242.434.318.17.075.366.112.584.112.222 0 .423-.037.603-.114s.334-.184.462-.32c.126-.136.225-.298.294-.485.07-.187.104-.39.104-.61 0-.233-.034-.444-.102-.632-.068-.187-.164-.348-.29-.48-.124-.13-.272-.23-.445-.3s-.36-.106-.567-.106c-.222 0-.422.04-.6.123-.18.082-.33.19-.455.33-.125.138-.22.298-.287.48-.064.18-.097.37-.097.566zM22.978 124.723c0 .627-.063 1.17-.187 1.627-.124.458-.294.837-.51 1.138-.215.3-.47.523-.764.67s-.61.22-.944.22c-.34 0-.654-.073-.945-.22-.29-.146-.544-.37-.76-.67-.215-.3-.385-.68-.508-1.138-.124-.458-.186-1-.186-1.627 0-.626.062-1.17.185-1.63s.29-.84.507-1.143c.216-.302.47-.526.76-.672.29-.147.606-.22.945-.22.335 0 .65.073.944.22.294.146.55.37.765.672.216.302.387.683.51 1.143s.188 1.004.188 1.63zm-.855 0c0-.546-.042-1.006-.127-1.377-.085-.372-.2-.67-.342-.897s-.31-.39-.497-.488c-.188-.1-.383-.148-.586-.148s-.398.05-.585.148c-.188.098-.353.26-.495.487s-.254.525-.34.896c-.083.372-.126.83-.126 1.377s.042 1.005.127 1.375c.086.37.2.668.34.895s.307.39.495.487c.188.1.383.148.586.148s.4-.05.587-.148c.188-.098.354-.26.497-.487s.257-.525.342-.895c.085-.37.127-.828.127-1.375zM28.52 124.723c0 .627-.063 1.17-.187 1.627-.125.458-.295.837-.51 1.138-.216.3-.47.523-.765.67s-.61.22-.944.22c-.34 0-.654-.073-.945-.22-.292-.146-.545-.37-.76-.67-.216-.3-.386-.68-.51-1.138-.122-.458-.184-1-.184-1.627 0-.626.062-1.17.185-1.63s.293-.84.51-1.143c.215-.302.468-.526.76-.672.29-.147.605-.22.944-.22.335 0 .65.073.944.22.294.146.55.37.765.672.215.302.386.683.51 1.143s.187 1.004.187 1.63zm-.855 0c0-.546-.042-1.006-.127-1.377-.085-.372-.2-.67-.342-.897s-.31-.39-.497-.488c-.19-.1-.384-.148-.587-.148s-.4.05-.586.148c-.188.098-.353.26-.495.487s-.254.525-.34.896c-.083.372-.126.83-.126 1.377s.042 1.005.127 1.375c.085.37.198.668.34.895s.306.39.494.487c.188.1.383.148.586.148s.398-.05.586-.148c.187-.098.353-.26.496-.487s.257-.525.342-.895c.085-.37.127-.828.127-1.375z"/></g><g fill="#4E4E4E"><path d="M9.87 92.68c-.373-.037-.712-.136-1.02-.297-.305-.162-.57-.368-.79-.618l.25-.41c.023-.037.054-.066.09-.09s.078-.035.12-.035c.06 0 .126.032.2.095.074.063.165.136.272.217.107.082.236.16.386.238.15.077.33.128.538.155l.17-2.655c-.215-.07-.426-.15-.634-.238s-.394-.203-.56-.345c-.164-.142-.296-.32-.396-.535s-.15-.484-.15-.808c0-.243.044-.48.132-.712.088-.23.216-.438.386-.618s.377-.327.624-.442c.246-.115.528-.18.845-.192l.046-.72c.002-.063.024-.12.066-.17.042-.05.096-.075.164-.075h.305l-.065.99c.323.043.603.133.838.27.236.137.444.302.626.495l-.2.33c-.06.1-.13.15-.21.15-.044 0-.097-.02-.16-.063-.063-.042-.14-.09-.227-.145s-.19-.11-.31-.165c-.118-.055-.253-.094-.404-.118l-.152 2.42c.223.072.44.152.657.24.215.086.41.197.582.334.17.137.31.308.417.513.106.205.16.46.16.768 0 .3-.047.582-.14.845-.092.264-.227.495-.404.695-.177.2-.395.362-.65.487-.258.125-.55.197-.88.217l-.057.88c-.003.062-.026.118-.07.166-.042.048-.096.072-.16.072H9.8l.07-1.128zm-.748-5.415c0 .16.026.3.078.417.053.118.125.223.217.313s.2.168.323.235c.123.067.257.127.402.18l.14-2.255c-.2.02-.375.063-.52.13-.147.067-.268.15-.36.25-.095.1-.165.212-.21.337-.047.126-.07.256-.07.393zm2.563 3.32c0-.167-.028-.31-.085-.43-.057-.12-.135-.224-.233-.31-.1-.087-.214-.162-.347-.225s-.274-.122-.425-.175l-.157 2.49c.204-.02.382-.067.536-.143.154-.075.284-.17.39-.288.106-.116.186-.252.24-.407.054-.155.08-.325.08-.512zM15.643 92.7c-.33 0-.63-.047-.905-.143s-.51-.23-.707-.408c-.196-.177-.35-.392-.456-.643-.108-.252-.162-.534-.162-.848 0-.46.11-.84.333-1.14s.54-.51.95-.636c-.347-.14-.61-.35-.787-.627-.177-.278-.266-.61-.266-.998 0-.264.048-.51.144-.74.095-.23.23-.43.406-.6.176-.17.386-.304.63-.4.245-.098.518-.146.82-.146.3 0 .57.048.818.145.246.096.457.23.632.4.176.17.31.37.407.6.094.23.142.476.142.74 0 .386-.09.718-.268.997-.178.278-.44.487-.785.627.412.126.73.34.95.637s.334.68.334 1.14c0 .312-.055.595-.164.847-.11.25-.262.466-.457.642-.196.176-.43.312-.705.407s-.575.143-.905.143zm0-.71c.216 0 .41-.033.58-.098s.316-.157.435-.275c.118-.118.21-.26.272-.425.063-.165.095-.347.095-.547 0-.247-.038-.458-.113-.632-.076-.175-.177-.317-.305-.428-.127-.11-.274-.19-.44-.242-.167-.052-.34-.078-.523-.078s-.355.026-.522.078c-.166.052-.313.132-.44.242-.13.11-.23.252-.306.428-.076.175-.113.386-.113.632 0 .2.032.383.095.547.063.165.154.307.272.425s.263.21.434.275.364.098.58.098zm0-3.44c.216 0 .4-.036.552-.108.152-.07.276-.167.372-.285s.165-.254.208-.408c.043-.154.064-.313.064-.476 0-.167-.026-.323-.077-.47s-.126-.275-.226-.385c-.1-.11-.225-.197-.375-.26s-.322-.096-.52-.096c-.197 0-.37.032-.52.095s-.274.15-.374.26c-.1.11-.176.238-.227.384s-.075.303-.075.47c0 .164.02.322.065.475.043.152.112.29.208.407.096.118.22.213.372.285.154.072.338.108.553.108zM22.978 89.04c0 .627-.063 1.17-.187 1.627-.124.458-.294.837-.51 1.138-.215.3-.47.523-.764.67s-.61.22-.944.22c-.34 0-.654-.074-.945-.22-.29-.146-.544-.37-.76-.67-.215-.3-.385-.68-.508-1.138-.124-.458-.186-1-.186-1.627 0-.626.062-1.17.185-1.63s.29-.84.507-1.143c.216-.302.47-.526.76-.672.29-.147.606-.22.945-.22.335 0 .65.073.944.22.294.146.55.37.765.672.216.302.387.683.51 1.143s.188 1.004.188 1.63zm-.855 0c0-.546-.042-1.006-.127-1.377-.085-.372-.2-.67-.342-.897s-.31-.39-.497-.487c-.188-.1-.383-.15-.586-.15s-.398.05-.585.15c-.188.097-.353.26-.495.486s-.254.526-.34.897c-.083.372-.126.83-.126 1.377s.042 1.005.127 1.375c.086.37.2.668.34.895s.307.39.495.488c.188.098.383.147.586.147s.4-.05.587-.147c.188-.1.354-.26.497-.488s.257-.525.342-.895c.085-.37.127-.828.127-1.375zM28.52 89.04c0 .627-.063 1.17-.187 1.627-.125.458-.295.837-.51 1.138-.216.3-.47.523-.765.67s-.61.22-.944.22c-.34 0-.654-.074-.945-.22-.292-.146-.545-.37-.76-.67-.216-.3-.386-.68-.51-1.138-.122-.458-.184-1-.184-1.627 0-.626.062-1.17.185-1.63s.293-.84.51-1.143c.215-.302.468-.526.76-.672.29-.147.605-.22.944-.22.335 0 .65.073.944.22.294.146.55.37.765.672.215.302.386.683.51 1.143s.187 1.004.187 1.63zm-.855 0c0-.546-.042-1.006-.127-1.377-.085-.372-.2-.67-.342-.897s-.31-.39-.497-.487c-.19-.1-.384-.15-.587-.15s-.4.05-.586.15c-.188.097-.353.26-.495.486s-.254.526-.34.897c-.083.372-.126.83-.126 1.377s.042 1.005.127 1.375c.085.37.198.668.34.895s.306.39.494.488c.188.098.383.147.586.147s.398-.05.586-.147c.187-.1.353-.26.496-.488s.257-.525.342-.895c.085-.37.127-.828.127-1.375z"/></g><g fill="#4E4E4E"><path d="M2.175 56.998c-.373-.037-.712-.136-1.02-.297-.305-.16-.57-.367-.79-.617l.25-.41c.023-.037.054-.066.09-.09s.078-.035.12-.035c.06 0 .126.032.2.095.074.063.165.136.272.217.107.082.236.16.386.238.15.077.33.128.538.155l.172-2.655c-.216-.07-.427-.15-.635-.238s-.394-.203-.56-.345c-.164-.142-.296-.32-.396-.535s-.15-.484-.15-.808c0-.243.045-.48.133-.712.088-.23.216-.438.386-.618.168-.18.376-.327.623-.442.246-.115.528-.18.845-.192l.046-.72c.003-.063.025-.12.067-.17.043-.05.097-.075.165-.075h.305l-.065.99c.323.043.603.133.838.27.236.137.444.302.626.495l-.2.33c-.062.1-.132.15-.212.15-.043 0-.096-.02-.16-.063-.062-.042-.138-.09-.226-.145s-.19-.11-.31-.165c-.118-.055-.253-.094-.404-.118l-.152 2.42c.222.073.44.153.656.24.215.087.41.198.582.335s.312.308.418.513c.106.205.16.46.16.768 0 .3-.047.582-.14.845-.092.264-.227.495-.404.695-.177.2-.395.362-.65.487-.258.125-.55.197-.88.217l-.057.88c-.002.063-.025.12-.068.167-.043.048-.097.072-.162.072h-.304l.07-1.128zm-.748-5.415c0 .16.026.3.078.417.053.118.125.223.217.313s.2.168.323.235c.123.067.257.127.402.18l.14-2.255c-.2.02-.375.063-.52.13-.147.067-.268.15-.36.25-.095.1-.165.212-.21.337-.047.125-.07.256-.07.393zm2.563 3.32c0-.168-.028-.31-.085-.43-.057-.12-.135-.225-.233-.31-.1-.088-.214-.163-.347-.226s-.274-.12-.425-.174l-.157 2.49c.204-.02.382-.067.536-.143.153-.075.283-.17.39-.288.105-.116.185-.252.24-.407.053-.155.08-.326.08-.513zM6.424 56.257h1.418v-4.885c0-.14.004-.29.014-.445l-1.178 1.095c-.04.037-.08.06-.12.067s-.077.008-.11 0c-.035-.005-.066-.02-.096-.04s-.052-.04-.067-.064l-.26-.385L8 49.757h.67v6.5H9.97v.68H6.424v-.68zM11.12 56.322c0-.156.05-.29.15-.4.1-.11.234-.165.4-.165.092 0 .174.02.245.055s.13.087.178.152.084.14.11.225c.023.084.036.177.036.276 0 .15-.02.306-.06.468s-.095.322-.17.48c-.076.158-.167.313-.275.462s-.23.29-.37.415l-.138-.144c-.025-.023-.042-.045-.05-.065s-.015-.044-.015-.074c0-.023.007-.046.02-.07.015-.023.03-.045.05-.065.03-.036.07-.085.117-.146.047-.062.095-.133.145-.212.05-.08.095-.168.136-.265s.073-.2.09-.31h-.06c-.16 0-.29-.058-.39-.172-.1-.115-.15-.263-.15-.443zM17.804 53.357c0 .627-.063 1.17-.187 1.627-.125.458-.295.837-.51 1.138-.216.3-.47.523-.765.67s-.61.22-.944.22c-.34 0-.654-.074-.945-.22-.29-.146-.544-.37-.76-.67-.215-.3-.385-.68-.508-1.138-.123-.458-.185-1-.185-1.627 0-.626.062-1.17.185-1.63s.292-.84.508-1.143c.216-.302.47-.526.76-.672.29-.147.606-.22.945-.22.335 0 .65.073.944.22.294.146.55.37.765.672.215.302.386.683.51 1.143s.187 1.004.187 1.63zm-.854 0c0-.546-.042-1.006-.127-1.377-.085-.372-.2-.67-.342-.897s-.308-.39-.496-.487c-.188-.1-.383-.148-.586-.148s-.4.05-.586.148c-.188.098-.353.26-.495.487s-.254.526-.34.897c-.083.372-.126.83-.126 1.377s.043 1.005.128 1.375c.085.37.198.668.34.895s.306.39.494.488c.188.098.383.147.586.147s.398-.05.586-.147c.188-.1.354-.26.497-.488s.258-.525.343-.895c.084-.37.127-.828.127-1.375zM23.162 53.357c0 .627-.063 1.17-.187 1.627-.125.458-.295.837-.51 1.138-.216.3-.47.523-.765.67s-.61.22-.944.22c-.34 0-.654-.074-.945-.22-.29-.146-.543-.37-.76-.67-.214-.3-.384-.68-.507-1.138-.123-.458-.185-1-.185-1.627 0-.626.062-1.17.185-1.63s.292-.84.508-1.143c.217-.302.47-.526.76-.672.292-.147.607-.22.946-.22.335 0 .65.073.944.22.294.146.55.37.765.672.215.302.386.683.51 1.143s.187 1.004.187 1.63zm-.855 0c0-.546-.042-1.006-.127-1.377-.085-.372-.2-.67-.342-.897s-.31-.39-.497-.487c-.187-.1-.382-.148-.585-.148s-.4.05-.586.148c-.19.098-.354.26-.496.487s-.254.526-.34.897c-.083.372-.126.83-.126 1.377s.042 1.005.127 1.375c.085.37.198.668.34.895s.306.39.494.488c.187.098.382.147.585.147s.398-.05.586-.147c.19-.1.355-.26.498-.488s.257-.525.342-.895c.085-.37.127-.828.127-1.375zM28.52 53.357c0 .627-.064 1.17-.188 1.627-.125.458-.295.837-.51 1.138-.216.3-.47.523-.765.67s-.61.22-.944.22c-.34 0-.654-.074-.945-.22-.29-.146-.544-.37-.76-.67-.215-.3-.385-.68-.508-1.138-.123-.458-.185-1-.185-1.627 0-.626.062-1.17.185-1.63s.292-.84.508-1.143c.216-.302.47-.526.76-.672.29-.147.606-.22.945-.22.335 0 .65.073.944.22.294.146.55.37.765.672.215.302.386.683.51 1.143s.187 1.004.187 1.63zm-.855 0c0-.546-.042-1.006-.127-1.377-.085-.372-.2-.67-.342-.897s-.31-.39-.497-.487c-.19-.1-.384-.148-.587-.148s-.4.05-.586.148c-.188.098-.353.26-.495.487s-.254.526-.34.897c-.083.372-.126.83-.126 1.377s.042 1.005.127 1.375c.085.37.198.668.34.895s.306.39.494.488c.188.098.383.147.586.147s.398-.05.586-.147c.187-.1.353-.26.496-.488s.257-.525.342-.895c.084-.37.127-.828.127-1.375z"/></g><g fill="#4E4E4E"><path d="M2.175 21.315c-.373-.037-.712-.136-1.02-.297-.305-.162-.57-.368-.79-.618l.25-.41c.023-.037.054-.066.09-.09s.078-.035.12-.035c.06 0 .126.032.2.095.074.063.165.136.272.217.107.082.236.16.386.238.15.077.33.128.538.155l.172-2.655c-.216-.07-.427-.15-.635-.238s-.394-.203-.56-.345c-.164-.142-.296-.32-.396-.535s-.15-.484-.15-.808c0-.244.045-.48.133-.713.088-.23.216-.438.386-.618.168-.18.376-.328.623-.443.246-.115.528-.18.845-.192l.046-.72c.003-.063.025-.12.067-.17.043-.05.097-.075.165-.075h.305l-.065.99c.323.043.603.133.838.27.236.137.444.302.626.495l-.2.33c-.062.1-.132.15-.212.15-.043 0-.096-.02-.16-.063-.062-.042-.138-.09-.226-.145s-.19-.11-.31-.165c-.118-.055-.253-.094-.404-.118l-.152 2.42c.222.073.44.153.656.24.215.087.41.198.582.335.172.136.312.307.418.512.106.205.16.46.16.768 0 .3-.047.582-.14.845-.092.263-.227.495-.403.695-.178.2-.396.362-.652.487-.257.125-.55.197-.88.217l-.056.88c-.003.063-.026.12-.07.167-.042.05-.096.073-.16.073h-.306l.07-1.128zM1.427 15.9c0 .16.026.3.078.417.053.118.125.223.217.313s.2.168.323.235c.123.067.257.127.402.18l.14-2.255c-.2.02-.375.063-.52.13-.147.067-.268.15-.36.25-.095.1-.165.212-.21.337-.047.125-.07.256-.07.393zm2.563 3.32c0-.167-.028-.31-.085-.43-.057-.12-.135-.224-.233-.31-.1-.087-.214-.162-.347-.225s-.274-.122-.425-.175l-.157 2.49c.204-.02.382-.067.536-.143.153-.075.283-.17.39-.288.105-.117.185-.253.24-.408.053-.155.08-.325.08-.512zM6.424 20.575h1.418V15.69c0-.14.004-.29.014-.445L6.678 16.34c-.04.037-.08.06-.12.067s-.077.01-.11.002c-.035-.007-.066-.02-.096-.04s-.052-.043-.067-.066l-.258-.384L8 14.075h.67v6.5h1.3v.68H6.425v-.68zM11.12 20.64c0-.156.05-.29.15-.4.1-.11.234-.165.4-.165.092 0 .174.02.245.055s.13.087.178.152.084.14.11.225c.023.085.036.178.036.277 0 .15-.02.306-.06.468s-.095.322-.17.48c-.076.158-.167.313-.275.462s-.23.29-.37.415l-.138-.146c-.025-.023-.042-.045-.05-.065s-.015-.046-.015-.076c0-.023.007-.046.02-.07.015-.023.03-.045.05-.065l.117-.148c.047-.062.095-.133.145-.212.05-.08.095-.168.136-.265s.073-.2.09-.31h-.06c-.16 0-.29-.058-.39-.172-.1-.116-.15-.263-.15-.443zM15.453 14.01c.28 0 .542.045.785.135.243.09.454.22.633.393.18.17.32.38.42.627s.153.526.153.84c0 .267-.037.514-.11.743-.075.228-.175.446-.3.652-.127.207-.272.408-.438.605-.165.197-.34.395-.524.595l-1.745 1.93c.123-.037.248-.066.374-.087.125-.02.247-.033.364-.033h2.217c.09 0 .16.03.213.085s.08.13.08.22v.54h-4.417v-.305c0-.063.012-.128.037-.195.024-.066.063-.128.115-.185l2.12-2.305c.175-.193.335-.38.48-.557.145-.178.268-.357.37-.538.102-.18.18-.362.235-.547.055-.185.083-.383.083-.593s-.03-.394-.092-.552-.146-.29-.252-.393c-.106-.104-.23-.18-.376-.232-.145-.052-.3-.078-.467-.078-.17 0-.326.027-.467.08s-.267.127-.376.222c-.11.095-.2.208-.275.338-.074.13-.126.273-.157.43-.037.117-.087.194-.15.232-.063.04-.152.05-.266.033l-.43-.08c.042-.327.126-.616.25-.867.126-.252.283-.463.472-.633s.406-.3.65-.387.508-.133.79-.133zM23.162 17.675c0 .627-.063 1.17-.187 1.627-.125.458-.295.837-.51 1.138-.216.3-.47.523-.765.67s-.61.22-.944.22c-.34 0-.654-.074-.945-.22-.29-.146-.543-.37-.76-.67-.214-.3-.384-.68-.507-1.138-.123-.458-.185-1-.185-1.627 0-.626.062-1.17.185-1.63s.292-.84.508-1.143c.217-.302.47-.526.76-.672.292-.147.607-.22.946-.22.335 0 .65.073.944.22.294.146.55.37.765.672.215.302.386.683.51 1.143s.187 1.003.187 1.63zm-.855 0c0-.546-.042-1.006-.127-1.377-.085-.372-.2-.67-.342-.897s-.31-.388-.497-.486c-.187-.1-.382-.148-.585-.148s-.4.05-.586.148c-.19.098-.354.26-.496.487s-.254.527-.34.898c-.083.372-.126.83-.126 1.377s.042 1.005.127 1.375c.085.37.198.668.34.895s.306.39.494.488c.187.098.382.147.585.147s.398-.05.586-.147c.19-.1.355-.26.498-.488s.257-.525.342-.895c.085-.37.127-.828.127-1.375zM28.52 17.675c0 .627-.064 1.17-.188 1.627-.125.458-.295.837-.51 1.138-.216.3-.47.523-.765.67s-.61.22-.944.22c-.34 0-.654-.074-.945-.22-.29-.146-.544-.37-.76-.67-.215-.3-.385-.68-.508-1.138-.123-.458-.185-1-.185-1.627 0-.626.062-1.17.185-1.63s.292-.84.508-1.143c.216-.302.47-.526.76-.672.29-.147.606-.22.945-.22.335 0 .65.073.944.22.294.146.55.37.765.672.215.302.386.683.51 1.143s.187 1.003.187 1.63zm-.855 0c0-.546-.042-1.006-.127-1.377-.085-.372-.2-.67-.342-.897s-.31-.388-.497-.486c-.19-.1-.384-.148-.587-.148s-.4.05-.586.148c-.188.098-.353.26-.495.487s-.254.527-.34.898c-.083.372-.126.83-.126 1.377s.042 1.005.127 1.375c.085.37.198.668.34.895s.306.39.494.488c.188.098.383.147.586.147s.398-.05.586-.147c.187-.1.353-.26.496-.488s.257-.525.342-.895c.084-.37.127-.828.127-1.375z"/></g><g fill="#4E4E4E"><path d="M26.106 246.215h1.577v-4.886c0-.14.005-.29.016-.445l-1.312 1.095c-.044.037-.09.06-.133.067-.044.01-.086.01-.124.003s-.072-.02-.104-.04c-.033-.02-.058-.042-.075-.065l-.287-.385 2.194-1.845h.745v6.5h1.45v.68h-3.947v-.68zM34.476 244.04c.076-.097.146-.19.21-.275s.127-.174.186-.26c-.188.146-.4.258-.637.335-.236.076-.486.114-.75.114-.278 0-.54-.045-.79-.135-.247-.09-.466-.224-.654-.398-.187-.175-.337-.39-.45-.645s-.166-.548-.166-.878c0-.314.06-.607.18-.88.12-.274.288-.513.503-.716s.473-.363.77-.48c.3-.116.626-.175.982-.175.352 0 .672.056.96.17.287.112.534.27.74.475.205.203.363.446.474.73s.167.596.167.94c0 .205-.02.4-.058.586-.04.187-.096.368-.17.546-.073.18-.163.355-.27.53-.105.175-.225.354-.358.537l-1.793 2.52c-.043.064-.107.115-.19.153s-.175.058-.282.058h-.842l2.24-2.855zm.848-2.18c0-.224-.037-.427-.11-.608-.074-.182-.176-.336-.307-.463-.13-.127-.285-.225-.465-.293s-.377-.103-.593-.103c-.227 0-.433.036-.618.107-.185.073-.344.172-.478.3-.133.125-.236.277-.308.454s-.108.37-.108.58c0 .227.033.43.1.607.067.18.163.33.288.453s.278.217.458.28.38.095.604.095c.247 0 .465-.04.655-.117s.35-.182.48-.312.23-.28.298-.45c.07-.168.104-.345.104-.53zM41.823 239.73v.4c0 .112-.013.205-.04.278-.024.073-.05.136-.073.186l-3.052 5.984c-.044.087-.106.16-.185.223-.08.063-.183.094-.313.094h-.658l3.093-5.91c.044-.083.09-.16.136-.23.047-.07.1-.136.158-.2h-3.843c-.058 0-.11-.02-.154-.066s-.066-.096-.066-.152v-.605h5zM47.886 239.73v.4c0 .112-.013.205-.04.278-.024.073-.05.136-.073.186l-3.052 5.984c-.043.087-.105.16-.184.223-.08.063-.183.094-.313.094h-.658l3.093-5.91c.044-.083.09-.16.136-.23.046-.07.1-.136.157-.2H43.11c-.058 0-.11-.02-.154-.066s-.067-.096-.067-.152v-.605h5z"/></g><g fill="#4E4E4E"><path d="M98.623 246.215h1.577v-4.886c0-.14.005-.29.016-.445l-1.31 1.095c-.045.037-.09.06-.134.067-.044.01-.086.01-.124.003s-.073-.02-.105-.04c-.033-.02-.058-.042-.075-.065l-.288-.385 2.194-1.845h.745v6.5h1.448v.68h-3.946v-.68zM106.992 244.04c.076-.097.146-.19.21-.275s.127-.174.186-.26c-.188.146-.4.258-.637.335-.235.076-.485.114-.75.114-.277 0-.54-.045-.788-.135-.248-.09-.467-.224-.655-.398-.188-.175-.338-.39-.45-.645s-.167-.548-.167-.878c0-.314.06-.607.18-.88.12-.274.288-.513.503-.716s.473-.363.77-.48c.3-.116.626-.175.982-.175.353 0 .673.056.96.17.288.112.535.27.74.475.206.203.364.446.475.73s.167.596.167.94c0 .205-.02.4-.06.586-.04.187-.095.368-.168.546-.075.18-.165.355-.27.53-.107.175-.227.354-.36.537l-1.793 2.52c-.044.064-.108.115-.19.153s-.176.058-.283.058h-.842l2.24-2.855zm.848-2.18c0-.224-.037-.427-.11-.608-.074-.182-.176-.336-.307-.463-.13-.127-.285-.225-.465-.293s-.377-.103-.593-.103c-.226 0-.432.036-.617.107-.185.073-.344.172-.478.3-.133.125-.236.277-.308.454s-.108.37-.108.58c0 .227.033.43.1.607.067.18.163.33.288.453s.278.217.458.28.38.095.604.095c.247 0 .465-.04.655-.117s.35-.182.48-.312.228-.28.297-.45c.07-.168.103-.345.103-.53zM111.766 246.975c-.366 0-.702-.048-1.007-.143-.306-.095-.568-.23-.787-.407s-.39-.39-.51-.643c-.12-.252-.18-.534-.18-.848 0-.46.124-.84.37-1.138.248-.298.6-.51 1.06-.638-.387-.14-.68-.35-.876-.627-.197-.277-.295-.61-.295-.997 0-.263.053-.51.16-.74.105-.23.256-.43.45-.6s.43-.303.702-.4c.272-.096.577-.145.912-.145.333 0 .635.05.91.146.274.097.51.23.704.4.195.17.346.37.452.6.106.23.16.477.16.74 0 .386-.1.72-.298.997s-.49.488-.874.628c.46.127.812.34 1.06.638.246.3.37.678.37 1.138 0 .313-.062.596-.184.848s-.29.466-.51.643c-.216.177-.478.313-.782.407-.306.095-.642.143-1.008.143zm0-.71c.24 0 .455-.032.645-.098s.352-.156.484-.275c.132-.118.233-.26.303-.425s.105-.348.105-.547c0-.247-.042-.458-.126-.633s-.197-.317-.34-.428c-.14-.11-.305-.19-.49-.243s-.378-.078-.58-.078-.397.025-.582.077-.35.133-.49.242c-.143.11-.256.252-.34.427s-.126.386-.126.633c0 .2.035.382.105.547.07.165.17.307.303.425.132.12.293.21.483.275.19.065.406.098.646.098zm0-3.44c.24 0 .444-.036.614-.108.17-.07.307-.166.414-.285.106-.118.183-.254.23-.407s.073-.312.073-.475c0-.167-.028-.323-.085-.47-.057-.147-.14-.275-.252-.386-.11-.11-.25-.196-.416-.26s-.36-.095-.578-.095-.412.03-.578.094c-.166.063-.305.15-.416.26-.11.11-.195.238-.252.385-.056.146-.084.303-.084.47 0 .163.024.32.072.475s.125.29.23.407c.107.12.245.214.415.285.168.072.373.107.613.107zM117.885 239.65c.312 0 .603.044.874.134.27.09.504.222.703.393.198.172.354.38.467.628.113.246.17.526.17.84 0 .267-.042.515-.124.742-.083.23-.194.446-.334.652-.14.206-.302.408-.486.604-.183.196-.377.395-.583.595l-1.942 1.93c.138-.037.277-.066.418-.088.14-.02.275-.032.406-.032h2.466c.1 0 .178.028.236.085s.087.13.087.22v.54h-4.912v-.305c0-.063.015-.13.042-.195s.07-.128.128-.185l2.358-2.306c.195-.193.374-.38.535-.558.16-.178.298-.357.41-.537.114-.18.2-.363.263-.55.062-.184.093-.38.093-.59s-.036-.396-.104-.554-.162-.29-.28-.393-.258-.18-.42-.232-.333-.077-.518-.077c-.188 0-.36.027-.52.08-.156.054-.296.128-.417.223-.12.096-.223.208-.305.338-.083.13-.14.273-.175.43-.04.117-.097.194-.167.232-.07.04-.17.05-.295.033l-.478-.08c.048-.328.142-.617.28-.87.14-.25.313-.46.524-.63.21-.17.45-.3.722-.39.27-.087.563-.13.88-.13z"/></g><g fill="#4E4E4E"><path d="M171.14 246.215h1.577v-4.886c0-.14.005-.29.016-.445l-1.31 1.095c-.045.037-.09.06-.134.067-.045.01-.087.01-.125.003s-.073-.02-.105-.04c-.033-.02-.058-.042-.075-.065l-.288-.385 2.194-1.845h.746v6.5h1.45v.68h-3.947v-.68zM179.51 244.04l.21-.275s.126-.174.185-.26c-.188.146-.4.258-.637.335-.236.076-.486.114-.75.114-.278 0-.54-.045-.79-.135-.247-.09-.466-.224-.654-.398-.188-.175-.338-.39-.45-.645s-.167-.548-.167-.878c0-.314.06-.607.18-.88.12-.274.288-.513.503-.716s.473-.363.77-.48c.3-.116.626-.175.982-.175.353 0 .673.056.96.17.288.112.535.27.74.475.206.203.364.446.475.73s.167.596.167.94c0 .205-.02.4-.06.586-.04.187-.095.368-.168.546-.074.18-.164.355-.27.53-.106.175-.226.354-.36.537l-1.792 2.52c-.044.064-.108.115-.19.153s-.176.058-.283.058h-.84l2.24-2.855zm.847-2.18c0-.224-.037-.427-.11-.608-.074-.182-.176-.336-.307-.463-.13-.127-.285-.225-.465-.293s-.377-.103-.593-.103c-.226 0-.432.036-.617.107-.185.073-.344.172-.478.3-.133.125-.236.277-.308.454s-.11.37-.11.58c0 .227.034.43.1.607.068.18.164.33.29.453s.277.217.457.28.38.095.604.095c.248 0 .466-.04.656-.117s.35-.182.48-.312.23-.28.298-.45c.07-.168.103-.345.103-.53zM184.282 246.975c-.366 0-.702-.048-1.007-.143-.305-.095-.567-.23-.786-.407s-.39-.39-.51-.643c-.12-.252-.18-.534-.18-.848 0-.46.123-.84.37-1.138.247-.298.6-.51 1.06-.638-.388-.14-.68-.35-.877-.627-.197-.277-.295-.61-.295-.997 0-.263.053-.51.16-.74.105-.23.256-.43.45-.6s.43-.303.702-.4c.272-.096.577-.145.912-.145.333 0 .635.05.91.146.274.097.51.23.704.4.195.17.346.37.452.6.106.23.16.477.16.74 0 .386-.1.72-.298.997s-.49.488-.874.628c.46.127.812.34 1.06.638.246.3.37.678.37 1.138 0 .313-.062.596-.184.848s-.29.466-.51.643c-.216.177-.478.313-.782.407-.306.095-.64.143-1.008.143zm0-.71c.24 0 .455-.032.645-.098s.35-.156.483-.275c.132-.118.233-.26.303-.425s.105-.348.105-.547c0-.247-.042-.458-.126-.633s-.197-.317-.34-.428c-.14-.11-.305-.19-.49-.243s-.378-.078-.58-.078-.397.025-.582.077-.35.133-.49.242c-.143.11-.256.252-.34.427s-.126.386-.126.633c0 .2.035.382.105.547.07.165.17.307.302.425.132.12.293.21.483.275.193.065.407.098.647.098zm0-3.44c.24 0 .444-.036.614-.108.17-.07.307-.166.414-.285.106-.118.183-.254.23-.407s.073-.312.073-.475c0-.167-.028-.323-.085-.47-.057-.147-.14-.275-.252-.386-.11-.11-.25-.196-.416-.26s-.36-.095-.578-.095-.412.03-.578.094c-.166.063-.305.15-.416.26-.11.11-.195.238-.252.385-.056.146-.084.303-.084.47 0 .163.024.32.072.475s.125.29.23.407c.107.12.245.214.415.285.168.072.372.107.612.107zM192.92 239.73v.4c0 .112-.014.205-.04.278-.025.073-.05.136-.074.186l-3.052 5.984c-.044.087-.106.16-.185.223-.08.063-.184.094-.314.094h-.658l3.093-5.91c.045-.083.09-.16.137-.23.046-.07.1-.136.157-.2h-3.843c-.057 0-.11-.02-.153-.066s-.067-.096-.067-.152v-.605h5z"/></g><g fill="#4E4E4E"><path d="M243.656 246.215h1.577v-4.886c0-.14.005-.29.016-.445l-1.312 1.095c-.044.037-.09.06-.133.067-.044.01-.086.01-.124.003s-.072-.02-.104-.04c-.033-.02-.058-.042-.075-.065l-.287-.385 2.194-1.845h.745v6.5h1.45v.68h-3.947v-.68zM252.025 244.04c.076-.097.146-.19.21-.275s.127-.174.186-.26c-.187.146-.4.258-.636.335-.236.076-.486.114-.75.114-.278 0-.54-.045-.79-.135-.247-.09-.466-.224-.654-.398-.188-.175-.338-.39-.45-.645s-.167-.548-.167-.878c0-.314.06-.607.18-.88.12-.274.288-.513.503-.716s.473-.363.77-.48c.3-.116.626-.175.982-.175.353 0 .673.056.96.17.288.112.535.27.74.475.206.203.364.446.475.73s.167.596.167.94c0 .205-.02.4-.06.586-.04.187-.095.368-.168.546-.074.18-.164.355-.27.53-.106.175-.226.354-.36.537l-1.792 2.52c-.044.064-.108.115-.19.153s-.176.058-.283.058h-.842l2.24-2.855zm.85-2.18c0-.224-.038-.427-.112-.608-.073-.182-.175-.336-.306-.463-.13-.127-.285-.225-.465-.293s-.377-.103-.593-.103c-.227 0-.433.036-.618.107-.185.073-.344.172-.478.3-.133.125-.236.277-.308.454s-.108.37-.108.58c0 .227.033.43.1.607.067.18.163.33.288.453s.278.217.458.28.38.095.604.095c.247 0 .465-.04.655-.117s.35-.182.48-.312.23-.28.298-.45c.07-.168.104-.345.104-.53zM257.41 244.04c.076-.097.146-.19.21-.275s.127-.174.186-.26c-.188.146-.4.258-.637.335-.237.076-.487.114-.75.114-.28 0-.542-.045-.79-.135-.248-.09-.467-.224-.655-.398-.188-.175-.338-.39-.45-.645s-.167-.548-.167-.878c0-.314.06-.607.18-.88.12-.274.288-.513.503-.716s.474-.363.772-.48c.298-.116.625-.175.98-.175.354 0 .674.056.96.17.29.112.536.27.74.475.207.203.365.446.476.73s.167.596.167.94c0 .205-.02.4-.06.586-.04.187-.095.368-.168.546-.074.18-.164.355-.27.53-.106.175-.226.354-.36.537l-1.792 2.52c-.044.064-.108.115-.19.153s-.176.058-.283.058h-.842l2.24-2.855zm.848-2.18c0-.224-.037-.427-.11-.608-.074-.182-.176-.336-.307-.463-.13-.127-.284-.225-.464-.293s-.377-.103-.593-.103c-.226 0-.432.036-.617.107-.185.073-.344.172-.478.3-.133.125-.236.277-.308.454s-.108.37-.108.58c0 .227.033.43.1.607.067.18.163.33.288.453s.278.217.458.28.38.095.604.095c.247 0 .465-.04.655-.117s.35-.182.48-.312.23-.28.298-.45c.07-.168.103-.345.103-.53zM262.918 239.65c.312 0 .603.044.874.134.27.09.505.222.704.393.198.172.354.38.467.628.113.246.17.526.17.84 0 .267-.042.515-.124.742-.084.23-.195.446-.335.652-.14.206-.302.408-.486.604s-.378.395-.584.595l-1.942 1.93c.137-.037.276-.066.417-.088.14-.02.276-.032.407-.032h2.466c.1 0 .178.028.236.085s.086.13.086.22v.54h-4.912v-.305c0-.063.014-.13.04-.195s.07-.128.13-.185l2.357-2.306c.196-.193.375-.38.536-.558.16-.178.298-.357.41-.537.114-.18.2-.363.263-.55.06-.184.092-.38.092-.59s-.035-.396-.103-.554-.163-.29-.28-.393-.26-.18-.42-.232-.334-.077-.52-.077c-.187 0-.36.027-.518.08-.157.054-.297.128-.418.223-.122.096-.224.208-.306.338-.083.13-.14.273-.175.43-.04.117-.097.194-.167.232-.07.04-.17.05-.295.033l-.477-.08c.048-.328.142-.617.28-.87.14-.25.313-.46.524-.63.21-.17.45-.3.722-.39.27-.087.563-.13.878-.13z"/></g><g fill="#4E4E4E"><path d="M316.172 246.215h1.578v-4.886c0-.14.006-.29.016-.445l-1.31 1.095c-.046.037-.09.06-.134.067-.045.01-.086.01-.123.003-.04-.007-.075-.02-.106-.04-.033-.02-.06-.042-.074-.065l-.29-.385 2.194-1.845h.746v6.5h1.45v.68h-3.948v-.68zM324.543 244.04l.21-.275c.065-.087.126-.174.185-.26-.188.146-.4.258-.637.335-.235.076-.485.114-.75.114-.276 0-.54-.045-.788-.135s-.467-.224-.654-.398c-.19-.175-.34-.39-.45-.645s-.167-.548-.167-.878c0-.314.062-.607.18-.88s.288-.513.505-.716c.215-.203.473-.363.77-.48.3-.116.627-.175.982-.175.354 0 .674.056.96.17s.534.27.74.475c.206.203.364.446.476.73s.168.596.168.94c0 .205-.02.4-.06.586-.04.187-.096.368-.17.546-.072.18-.162.355-.27.53-.105.175-.225.354-.36.537l-1.792 2.52c-.045.064-.107.115-.19.153s-.177.058-.282.058h-.842l2.24-2.855zm.848-2.18c0-.224-.036-.427-.11-.608s-.176-.336-.305-.463c-.13-.127-.285-.225-.465-.293-.182-.068-.38-.103-.594-.103-.227 0-.432.036-.617.107-.187.073-.345.172-.48.3-.133.125-.236.277-.31.454-.07.177-.106.37-.106.58 0 .227.033.43.102.607.066.18.162.33.287.453s.277.217.457.28.38.095.604.095c.246 0 .465-.04.656-.117.19-.077.35-.182.48-.312s.23-.28.298-.45.103-.345.103-.53zM329.928 244.04l.21-.275c.065-.087.126-.174.185-.26-.188.146-.4.258-.637.335-.236.076-.486.114-.75.114-.277 0-.54-.045-.79-.135s-.466-.224-.653-.398c-.19-.175-.34-.39-.45-.645s-.167-.548-.167-.878c0-.314.06-.607.18-.88s.287-.513.504-.716c.215-.203.473-.363.77-.48.3-.116.627-.175.982-.175.354 0 .674.056.96.17s.534.27.74.475c.206.203.364.446.476.73s.168.596.168.94c0 .205-.02.4-.06.586-.04.187-.097.368-.17.546-.073.18-.163.355-.27.53-.106.175-.226.354-.36.537l-1.793 2.52c-.045.064-.107.115-.19.153s-.177.058-.282.058h-.84l2.238-2.855zm.847-2.18c0-.224-.037-.427-.11-.608s-.177-.336-.306-.463c-.132-.127-.286-.225-.466-.293-.182-.068-.38-.103-.594-.103-.227 0-.432.036-.617.107-.186.073-.344.172-.48.3-.132.125-.235.277-.308.454-.07.177-.107.37-.107.58 0 .227.033.43.102.607.066.18.162.33.287.453s.277.217.457.28.38.095.604.095c.246 0 .465-.04.656-.117.19-.077.35-.182.48-.312s.23-.28.298-.45.103-.345.103-.53zM337.953 239.73v.4c0 .112-.014.205-.04.278s-.05.136-.073.186l-3.053 5.984c-.045.087-.105.16-.186.223-.077.063-.183.094-.312.094h-.658l3.094-5.91c.045-.083.09-.16.137-.23.046-.07.1-.136.157-.2h-3.844c-.06 0-.11-.02-.154-.066s-.067-.096-.067-.152v-.605h5z"/></g><g fill="#4E4E4E"><path d="M390.44 239.65c.314 0 .605.044.874.134.27.09.506.222.705.393.196.172.353.38.466.628.113.246.17.526.17.84 0 .267-.04.515-.123.742-.082.23-.193.446-.334.652-.142.206-.304.408-.487.604s-.377.395-.582.595l-1.942 1.93c.137-.037.275-.066.416-.088s.275-.032.406-.032h2.467c.1 0 .178.028.236.085s.086.13.086.22v.54h-4.91v-.305c0-.063.013-.13.04-.195s.07-.128.127-.185l2.36-2.306c.194-.193.372-.38.532-.558.16-.178.298-.357.41-.537s.2-.363.263-.55c.063-.184.092-.38.092-.59s-.033-.396-.102-.554-.162-.29-.28-.393c-.118-.104-.26-.18-.42-.232s-.333-.077-.52-.077-.36.027-.517.08c-.158.054-.3.128-.42.223-.12.096-.223.208-.305.338s-.14.273-.175.43c-.04.117-.096.194-.166.232-.07.04-.17.05-.298.033l-.477-.08c.047-.328.14-.617.28-.87.138-.25.313-.46.524-.63.208-.17.45-.3.72-.39.274-.087.567-.13.88-.13zM399.12 243.314c0 .627-.07 1.17-.21 1.628-.14.458-.326.837-.566 1.137-.24.3-.523.522-.852.67-.326.146-.676.22-1.05.22-.378 0-.728-.073-1.052-.22-.322-.147-.605-.37-.844-.67-.24-.3-.43-.68-.566-1.138-.137-.46-.205-1-.205-1.628s.068-1.17.205-1.63.326-.84.566-1.143c.238-.3.52-.524.844-.672.324-.146.674-.22 1.05-.22s.726.073 1.052.22c.328.147.61.37.852.673s.428.684.566 1.144c.14.46.21 1.004.21 1.63zm-.952 0c0-.547-.047-1.006-.14-1.377-.095-.372-.222-.67-.382-.898-.158-.228-.344-.39-.55-.488-.21-.098-.43-.147-.655-.147-.224 0-.442.05-.65.147-.21.1-.394.26-.55.487-.158.227-.283.525-.38.897-.093.37-.14.83-.14 1.377s.047 1.005.14 1.375c.097.37.222.667.38.895.156.227.34.39.55.487.208.098.427.147.65.147.228 0 .446-.05.655-.148.207-.1.393-.26.55-.487.16-.228.288-.525.382-.896s.14-.83.14-1.376zM404.504 243.314c0 .627-.068 1.17-.21 1.628-.138.458-.325.837-.565 1.137-.24.3-.524.522-.853.67-.326.146-.676.22-1.05.22-.378 0-.728-.073-1.052-.22-.322-.147-.605-.37-.844-.67-.24-.3-.43-.68-.565-1.138-.137-.46-.205-1-.205-1.628s.068-1.17.205-1.63.326-.84.566-1.143c.24-.3.522-.524.845-.672.324-.146.674-.22 1.05-.22s.726.073 1.052.22c.328.147.61.37.852.673s.427.684.565 1.144c.14.46.21 1.004.21 1.63zm-.95 0c0-.547-.048-1.006-.142-1.377-.094-.372-.22-.67-.38-.898-.16-.228-.345-.39-.552-.488-.21-.098-.428-.147-.654-.147-.225 0-.443.05-.652.147-.21.1-.393.26-.55.487-.157.227-.282.525-.378.897-.094.37-.14.83-.14 1.377s.046 1.005.14 1.375c.096.37.22.667.38.895.155.227.34.39.548.487.21.098.428.147.652.147.227 0 .445-.05.654-.148.207-.1.393-.26.55-.487.16-.228.288-.525.382-.896s.14-.83.14-1.376zM407.95 239.65c.314 0 .605.044.874.134.27.09.506.222.705.393.196.172.353.38.466.628.113.246.17.526.17.84 0 .267-.04.515-.123.742-.082.23-.193.446-.334.652-.142.206-.304.408-.487.604s-.377.395-.582.595l-1.942 1.93c.137-.037.275-.066.416-.088s.275-.032.406-.032h2.467c.1 0 .178.028.236.085s.086.13.086.22v.54h-4.91v-.305c0-.063.013-.13.04-.195s.07-.128.127-.185l2.36-2.306c.194-.193.372-.38.532-.558.16-.178.298-.357.41-.537s.2-.363.263-.55c.063-.184.092-.38.092-.59s-.033-.396-.102-.554-.162-.29-.28-.393c-.118-.104-.26-.18-.42-.232s-.333-.077-.52-.077-.36.027-.517.08c-.158.054-.3.128-.42.223-.12.096-.223.208-.305.338s-.14.273-.175.43c-.04.117-.096.194-.166.232-.07.04-.17.05-.298.033l-.477-.08c.047-.328.14-.617.28-.87.138-.25.313-.46.524-.63.208-.17.45-.3.72-.39.274-.087.567-.13.88-.13z"/></g><g fill="#4E4E4E"><path d="M462.957 239.65c.313 0 .604.044.875.134.27.09.504.222.703.393.2.172.355.38.47.628.11.246.167.526.167.84 0 .267-.04.515-.123.742-.083.23-.194.446-.335.652-.14.206-.303.408-.484.604-.183.196-.378.395-.583.595l-1.94 1.93c.136-.037.274-.066.415-.088s.275-.032.406-.032h2.465c.1 0 .178.028.236.085s.087.13.087.22v.54h-4.912v-.305c0-.063.014-.13.04-.195s.07-.128.13-.185l2.357-2.306c.195-.193.373-.38.535-.558.16-.178.3-.357.41-.537.113-.18.2-.363.264-.55.062-.184.093-.38.093-.59s-.035-.396-.104-.554-.163-.29-.28-.393c-.12-.104-.258-.18-.418-.232-.162-.05-.334-.077-.52-.077-.19 0-.36.027-.52.08-.158.054-.297.128-.418.223-.123.096-.225.208-.307.338s-.14.273-.174.43c-.04.117-.098.194-.168.232-.07.04-.168.05-.295.033l-.48-.08c.05-.328.144-.617.282-.87.14-.25.313-.46.523-.63s.45-.3.723-.39c.272-.087.565-.13.88-.13zM471.637 243.314c0 .627-.07 1.17-.21 1.628-.138.458-.327.837-.567 1.137-.238.3-.523.522-.85.67-.328.146-.678.22-1.05.22-.378 0-.728-.073-1.052-.22-.324-.147-.605-.37-.846-.67-.24-.3-.428-.68-.564-1.138-.137-.46-.205-1-.205-1.628s.068-1.17.205-1.63.324-.84.564-1.143.52-.524.846-.672c.324-.146.674-.22 1.05-.22.374 0 .724.073 1.052.22.326.147.61.37.85.673.24.303.43.684.568 1.144s.21 1.004.21 1.63zm-.95 0c0-.547-.048-1.006-.142-1.377-.096-.372-.223-.67-.38-.898-.16-.228-.345-.39-.554-.488-.208-.098-.425-.147-.65-.147s-.444.05-.653.147c-.21.1-.393.26-.55.487-.157.227-.284.525-.378.897-.095.37-.142.83-.142 1.377s.047 1.005.14 1.375.222.667.378.895c.158.227.342.39.55.487.21.098.427.147.653.147s.442-.05.65-.148c.21-.1.394-.26.554-.487.158-.228.285-.525.38-.896.095-.37.142-.83.142-1.376zM477.02 243.314c0 .627-.07 1.17-.208 1.628-.14.458-.328.837-.568 1.137-.238.3-.523.522-.85.67-.328.146-.678.22-1.05.22-.378 0-.728-.073-1.052-.22-.324-.147-.605-.37-.846-.67-.24-.3-.428-.68-.564-1.138-.137-.46-.205-1-.205-1.628s.068-1.17.205-1.63.324-.84.564-1.143.52-.524.846-.672c.324-.146.674-.22 1.05-.22.374 0 .724.073 1.052.22.326.147.61.37.85.673.24.303.43.684.568 1.144s.21 1.004.21 1.63zm-.95 0c0-.547-.047-1.006-.14-1.377-.097-.372-.224-.67-.382-.898-.16-.228-.344-.39-.553-.488-.21-.098-.426-.147-.652-.147s-.443.05-.652.147c-.208.1-.392.26-.55.487-.156.227-.283.525-.377.897-.094.37-.14.83-.14 1.377s.046 1.005.14 1.375.22.667.377.895c.158.227.342.39.55.487.21.098.427.147.653.147s.443-.05.652-.148c.21-.1.393-.26.553-.487.158-.228.285-.525.38-.896.095-.37.142-.83.142-1.376zM482.986 239.73v.4c0 .112-.014.205-.04.278s-.05.136-.073.186l-3.053 5.984c-.045.087-.105.16-.186.223-.078.063-.184.094-.313.094h-.657l3.094-5.91c.045-.083.09-.16.137-.23.045-.07.098-.136.156-.2h-3.844c-.06 0-.11-.02-.154-.066s-.066-.096-.066-.152v-.605h5z"/></g><g fill="#4E4E4E"><path d="M535.475 239.65c.313 0 .604.044.873.134.27.09.506.222.705.393.197.172.354.38.467.628.113.246.17.526.17.84 0 .267-.04.515-.123.742-.082.23-.193.446-.334.652-.14.206-.303.408-.486.604s-.377.395-.582.595l-1.943 1.93c.137-.037.275-.066.416-.088s.275-.032.406-.032h2.467c.1 0 .18.028.237.085s.086.13.086.22v.54h-4.91v-.305c0-.063.014-.13.04-.195s.07-.128.128-.185l2.36-2.306c.195-.193.373-.38.533-.558.162-.178.3-.357.412-.537s.2-.363.262-.55c.063-.184.092-.38.092-.59s-.034-.396-.103-.554-.162-.29-.28-.393c-.118-.104-.26-.18-.42-.232s-.333-.077-.52-.077-.36.027-.517.08c-.158.054-.3.128-.42.223-.12.096-.223.208-.305.338s-.14.273-.176.43c-.042.117-.097.194-.167.232-.07.04-.17.05-.297.033l-.477-.08c.046-.328.14-.617.278-.87.14-.25.314-.46.525-.63.21-.17.45-.3.72-.39.274-.087.567-.13.882-.13zM544.152 243.314c0 .627-.068 1.17-.21 1.628-.138.458-.325.837-.565 1.137-.24.3-.523.522-.852.67-.326.146-.676.22-1.05.22-.378 0-.728-.073-1.052-.22-.322-.147-.605-.37-.844-.67-.24-.3-.43-.68-.567-1.138-.137-.46-.205-1-.205-1.628s.068-1.17.205-1.63.326-.84.566-1.143c.237-.3.52-.524.843-.672.324-.146.674-.22 1.05-.22s.726.073 1.052.22c.328.147.61.37.852.673s.428.684.566 1.144c.14.46.21 1.004.21 1.63zm-.95 0c0-.547-.048-1.006-.142-1.377-.094-.372-.22-.67-.38-.898-.16-.228-.345-.39-.552-.488-.21-.098-.428-.147-.654-.147-.225 0-.443.05-.652.147-.21.1-.393.26-.55.487-.157.227-.282.525-.378.897-.094.37-.14.83-.14 1.377s.046 1.005.14 1.375c.096.37.22.667.38.895.155.227.34.39.548.487.21.098.428.147.652.147.227 0 .445-.05.654-.148.207-.1.393-.26.55-.487.16-.228.288-.525.382-.896s.14-.83.14-1.376zM545.17 246.215h1.578v-4.886c0-.14.004-.29.014-.445l-1.31 1.095c-.044.037-.09.06-.134.067-.045.01-.086.01-.123.003s-.072-.02-.105-.04-.057-.042-.074-.065l-.287-.385 2.192-1.845h.744v6.5h1.45v.68h-3.946v-.68zM552.984 239.65c.313 0 .604.044.873.134.27.09.506.222.705.393.197.172.354.38.467.628.112.246.17.526.17.84 0 .267-.042.515-.124.742-.082.23-.193.446-.334.652-.14.206-.303.408-.486.604s-.377.395-.582.595l-1.943 1.93c.138-.037.276-.066.417-.088s.275-.032.406-.032h2.467c.1 0 .178.028.236.085s.086.13.086.22v.54h-4.91v-.305c0-.063.014-.13.04-.195s.07-.128.128-.185l2.36-2.306c.194-.193.372-.38.532-.558.162-.178.3-.357.412-.537s.2-.363.262-.55c.063-.184.092-.38.092-.59s-.033-.396-.102-.554-.162-.29-.28-.393c-.118-.104-.26-.18-.42-.232s-.333-.077-.52-.077-.36.027-.517.08c-.16.054-.3.128-.42.223-.122.096-.224.208-.306.338s-.14.273-.176.43c-.04.117-.096.194-.166.232-.07.04-.17.05-.297.033l-.477-.08c.047-.328.14-.617.28-.87.138-.25.313-.46.524-.63.21-.17.45-.3.72-.39.275-.087.568-.13.882-.13z"/></g><path fill="#6D6E71" d="M435.953 96.996l-.165-.01.064-1 .165.012-.064.998zm-1.164-.078l-.998-.066.066-.998.997.066-.066.998zm-1.996-.132l-.998-.066.066-.998.998.066-.066.998zm-1.996-.133l-.997-.066.067-.998.997.065-.066.998zm-1.995-.133l-.998-.066.066-.998 1 .066-.067.998zm-1.996-.133l-.997-.066.066-.997.997.066-.066.997zm-1.995-.133l-.998-.066.066-.998.998.066-.066.998zm-1.997-.132l-.997-.066.066-.998.997.066-.065.998zm-1.995-.133l-.998-.067.066-.998.998.066-.066 1zm-1.996-.134l-.997-.066.066-.998.997.066-.066.998zm-1.995-.132l-1-.066.067-.998.998.066-.066.998zm-1.997-.133l-.997-.065.066-.998.997.066-.067.998zm-1.995-.132l-.998-.066.066-.998.998.066-.066.998zm-1.996-.133l-.997-.066.066-1 .998.067-.066.998zm-1.995-.133l-.998-.066.065-.998.998.066-.066.998zm-1.995-.132l-.998-.066.066-.998.998.066-.066.998zm-1.997-.133l-.998-.066.066-.997.998.066-.065.997zm-1.995-.133l-.998-.066.066-.998.998.066-.066.998zm-1.996-.132l-.998-.066.066-.998.998.066-.066.998zm-1.995-.133l-1-.067.067-.998.998.066-.066 1zm-1.997-.134l-.998-.066.066-.998 1 .066-.067.998zm-1.995-.133l-.998-.066.066-.998.998.065-.066.998zm-1.996-.133l-.998-.066.066-.998.998.066-.066.998zm-1.995-.132l-.998-.066.065-.998.998.066-.066.998zm-1.996-.133l-.997-.066.066-1 .997.067-.066.998zm-1.994-.133l-.998-.066.066-.998.998.066-.066.998zM384.9 93.6l-1-.066.067-.998.998.066-.066.998zm-1.996-.133l-.998-.066.066-.997.998.066-.066.997zm-1.996-.133l-.998-.066.066-.998.998.066-.066.998zm-1.995-.133l-.998-.065.066-.998 1 .066-.067.998z"/><path fill-rule="evenodd" clip-rule="evenodd" fill="#7F3F98" d="M405.46 94.59c0 .8.673 1.45 1.507 1.45.832 0 1.508-.65 1.508-1.45s-.676-1.45-1.508-1.45c-.834 0-1.508.65-1.508 1.45z"/></svg>