<svg xmlns="http://www.w3.org/2000/svg" width="555.729" height="228.75" viewBox="0 0 555.729 228.75"><style>text, tspan { font-family: &apos;Lato&apos;; } .heavy { font-weight: 700; }</style><path stroke="#CDCCCC" stroke-width=".75" stroke-linejoin="round" stroke-miterlimit="10" d="M40.65 9.094h503.726M40.65 43.414h503.726M40.65 77.73h503.726M40.65 112.05h503.726M40.65 146.37h503.726M40.65 180.687h503.726" fill="none"/><path fill="#29AAE2" d="M40.65 149.312l29.59-.982 29.593-1.96 29.59-.982 29.593 2.942 29.59-1.96 29.592.98 30.264 5.883 29.59.98 29.593-3.923 29.592-5.883 29.59-6.862 29.593-1.962 29.59 1.962 29.593 16.67h29.59l29.592-6.864 29.59 1.962v65.694H40.65z"/><path fill="#CC333F" d="M40.65 114.01l29.59-4.902 29.593-4.902 29.59-2.94 29.593 3.92 29.59-2.942H218.2l30.264 14.71 29.59 4.902 29.593-8.826 29.592-13.727 29.59-23.532 29.593-6.864 29.59 6.865 29.593 37.26 29.59 3.924 29.592-8.826 29.59 2.942v38.242l-29.59-1.96-29.592 6.862h-29.59l-29.592-16.67-29.59-1.96-29.593 1.96-29.59 6.863-29.592 5.883-29.592 3.924-29.59-.98-30.265-5.883-29.59-.98-29.592 1.96-29.592-2.942-29.59.98-29.593 1.962-29.59.982z"/><path fill="#36699A" d="M40.65 107.147l29.59-5.88L99.834 94.4l29.59-3.92 29.593 4.9 29.59-2.94 29.592-1.96 30.264 16.667 29.59 5.883 29.593-10.786 29.592-15.688 29.59-33.338 29.593-.98 29.59 5.882 29.593 33.34 29.59 6.863 29.592-10.786 29.59 5.883v17.65l-29.59-2.942-29.592 8.826-29.59-3.924-29.592-37.26-29.59-6.864-29.593 6.865-29.59 23.533-29.592 13.727-29.592 8.826-29.59-4.902-30.265-14.71h-29.59l-29.592 2.943-29.592-3.92-29.59 2.94-29.593 4.9-29.59 4.904z"/><path stroke="#9B9B9B" stroke-linejoin="round" stroke-miterlimit="10" fill="none" d="M40.608 215.073h504.046M544.376 212.064v5.884m-29.59-5.884v5.884m-29.593-5.884v5.884m-29.59-5.884v5.884m-29.592-5.884v5.884m-29.59-5.884v5.884m-29.593-5.884v5.884m-29.59-5.884v5.884m-29.592-5.884v5.884m-29.592-5.884v5.884m-29.59-5.884v5.884m-30.265-5.884v5.884m-29.59-5.884v5.884m-29.592-5.884v5.884m-29.592-5.884v5.884m-29.59-5.884v5.884m-29.593-5.884v5.884m-29.59-5.884v5.884"/><text transform="translate(22.709 214.031)" fill="#4E4E4E" font-size="10">0</text><text transform="translate(11.11 179.734)" fill="#4E4E4E" font-size="10">200</text><text transform="translate(11.11 145.44)" fill="#4E4E4E" font-size="10">400</text><text transform="translate(11.11 111.142)" fill="#4E4E4E" font-size="10">600</text><text transform="translate(11.11 76.846)" fill="#4E4E4E" font-size="10">800</text><text transform="translate(3.04 42.55)" fill="#4E4E4E" font-size="10">1,000</text><text transform="translate(-2.76 8.254)" fill="#4E4E4E" font-size="10">$1,200</text><text transform="translate(28.59 228.417)" fill="#4E4E4E" font-size="10">1994</text><text transform="translate(58.24 228.417)" fill="#4E4E4E" font-size="10">1995</text><text transform="translate(87.89 228.417)" fill="#4E4E4E" font-size="10">1996</text><text transform="translate(117.651 228.417)" fill="#4E4E4E" font-size="10">1997</text><text transform="translate(146.852 228.417)" fill="#4E4E4E" font-size="10">1998</text><text transform="translate(176.503 228.417)" fill="#4E4E4E" font-size="10">1999</text><text transform="translate(206.647 228.417)" fill="#4E4E4E" font-size="10">2000</text><text transform="translate(236.408 228.417)" fill="#4E4E4E" font-size="10">2001</text><text transform="translate(266.058 228.417)" fill="#4E4E4E" font-size="10">2002</text><text transform="translate(295.595 228.417)" fill="#4E4E4E" font-size="10">2003</text><text transform="translate(325.246 228.417)" fill="#4E4E4E" font-size="10">2004</text><text transform="translate(354.896 228.417)" fill="#4E4E4E" font-size="10">2005</text><text transform="translate(384.546 228.417)" fill="#4E4E4E" font-size="10">2006</text><text transform="translate(414.306 228.417)" fill="#4E4E4E" font-size="10">2007</text><text transform="translate(443.509 228.417)" fill="#4E4E4E" font-size="10">2008</text><text transform="translate(473.157 228.417)" fill="#4E4E4E" font-size="10">2009</text><text transform="translate(503.144 228.417)" fill="#4E4E4E" font-size="10">2010</text><text transform="translate(532.907 228.417)" fill="#4E4E4E" font-size="10">2011</text><text transform="translate(229.113 64.784)" fill="#36699A" class="heavy" font-size="12">Foreign Income Taxes</text><text transform="translate(88.798 130.399)" fill="#fff" class="heavy" font-size="12">U.S. Income Taxes</text><text transform="translate(75.528 189.712)" fill="#fff" class="heavy" font-size="12">Other Taxes</text></svg>