<svg xmlns="http://www.w3.org/2000/svg" width="548.001" height="247.292" viewBox="0 0 548.001 247.292"><style>text, tspan { font-family: &apos;Lato&apos;; } .heavy { font-weight: 700; }</style><path stroke="#CDCCCC" stroke-width=".75" stroke-linejoin="round" stroke-miterlimit="10" d="M25.75 8.52h521.197m-521.197 24h521.197m-521.197 24h521.197M25.75 79.77h521.197m-521.197 24h521.197m-521.197 24h521.197m-521.197 24h521.197m-521.197 24h521.197m-521.197 24h521.197" fill="none"/><path fill="#21B573" d="M452.62 40.77h37.5v182.676h-37.5zM348.346 185.52h37.5v37.926h-37.5zM243.447 215.52h37.5v7.926h-37.5zM147.36 219.27h36.75v4.176h-36.75zM35.088 217.77h36.75v5.676h-36.75z"/><path fill="#4584A6" d="M499.982 60.27h37.5v163.176h-37.5zM396.21 172.77h37.5v50.676h-37.5zM290.81 211.77h37.5v11.676h-37.5zM193.537 217.77h37.5v5.676h-37.5zM82.264 216.27h37.5v7.176h-37.5z"/><path stroke="#9B9B9B" stroke-linejoin="round" stroke-miterlimit="10" fill="none" d="M25.463 223.446h521.484"/><text transform="translate(46.585 212.135)" fill="#808285" class="heavy" font-size="8">2%</text><text transform="translate(158.858 213.604)" fill="#808285" class="heavy" font-size="8">2%</text><text transform="translate(255.319 209.813)" fill="#808285" class="heavy" font-size="8">3%</text><text transform="translate(357.799 182.95)" fill="#808285" class="heavy" font-size="8">16%</text><text transform="translate(462.072 31.326)" fill="#808285" class="heavy" font-size="8">77%</text><text transform="translate(94.136 210.443)" fill="#808285" class="heavy" font-size="8">3%</text><text transform="translate(205.409 212.113)" fill="#808285" class="heavy" font-size="8">2%</text><text transform="translate(302.682 208.106)" fill="#808285" class="heavy" font-size="8">5%</text><text transform="translate(405.662 167.959)" fill="#808285" class="heavy" font-size="8">21%</text><text transform="translate(509.435 54.33)" fill="#808285" class="heavy" font-size="8">68%</text><text transform="translate(7.884 222.445)" fill="#4E4E4E" font-size="10">0</text><text transform="translate(1.682 198.555)" fill="#4E4E4E" font-size="10">10</text><text transform="translate(1.682 174.665)" fill="#4E4E4E" font-size="10">20</text><text transform="translate(1.682 150.776)" fill="#4E4E4E" font-size="10">30</text><text transform="translate(1.682 126.885)" fill="#4E4E4E" font-size="10">40</text><text transform="translate(1.682 102.996)" fill="#4E4E4E" font-size="10">50</text><text transform="translate(1.682 79.106)" fill="#4E4E4E" font-size="10">60</text><text transform="translate(1.682 55.216)" fill="#4E4E4E" font-size="10">70</text><text transform="translate(1.682 31.326)" fill="#4E4E4E" font-size="10">80</text><text transform="translate(.667 7.436)" fill="#4E4E4E" font-size="10">90%</text><text transform="translate(55.194 233.945)"><tspan x="0" y="0" fill="#4E4E4E" font-size="10">Under $1</tspan><tspan x="6.31" y="12" fill="#4E4E4E" font-size="10">million</tspan></text><text transform="translate(150.476 233.945)"><tspan x="0" y="0" fill="#4E4E4E" font-size="10">$1 million under</tspan><tspan x="11.218" y="12" fill="#4E4E4E" font-size="10">$10 million</tspan></text><text transform="translate(261.987 233.945)"><tspan x="0" y="0" fill="#4E4E4E" font-size="10">$10 million</tspan><tspan x="-17.018" y="12" fill="#4E4E4E" font-size="10">under $100 million</tspan></text><text transform="translate(364.242 233.945)"><tspan x="0" y="0" fill="#4E4E4E" font-size="10">$100 million</tspan><tspan x="-11.085" y="12" fill="#4E4E4E" font-size="10">under $2.5 billion</tspan></text><text transform="translate(472.496 233.945)"><tspan x="0" y="0" fill="#4E4E4E" font-size="10">$2.5 billion</tspan><tspan x="3.582" y="12" fill="#4E4E4E" font-size="10">and more</tspan></text><text transform="translate(59.854 52.288)" fill="#21B573" class="heavy" font-size="12">Share of Corporate Taxable Income</text><text transform="translate(59.854 73.363)" fill="#4584A6" class="heavy" font-size="12">Share of Corporate Income Tax Paid</text></svg>