<svg xmlns="http://www.w3.org/2000/svg" width="512.666" height="210.062" viewBox="0 0 512.666 210.062"><style>text, tspan { font-family: &apos;Lato&apos;; } .heavy { font-weight: 700; }</style><path fill="#01A0B0" d="M480.042 7.537H151.836V1.112H480.04v6.425zm-15.414 12.85H151.836v-6.425h312.792v6.425zm-.907 12.85H151.837v-6.425H463.72v6.425zm-2.718 12.85H151.836v-6.425h309.166v6.425zm-3.627 11.932h-305.54v-6.426h305.54v6.425zm-.906 12.85H151.835v-6.426H456.47v6.425zm-4.535 12.85h-300.1v-6.426h300.1v6.425zm-.906 12.848H151.835v-6.425h299.192v6.425zm-1.815 11.932h-297.38v-6.425h297.38v6.425zm-8.16 12.85h-289.22v-6.424h289.22v6.425zm0 12.85h-289.22v-6.425h289.22v6.425zm-3.626 12.85H151.835v-6.425H437.43v6.425zm-.907 11.932H151.836v-6.426h284.687v6.426zm-1.814 12.85H151.835v-6.425H434.71v6.425zm-9.974 12.85h-272.9v-6.425h272.9v6.425zm-6.346 12.85H151.836v-6.426H418.39v6.425zm-13.6 11.932H151.837v-6.425H404.79v6.424z"/><text transform="translate(413.893 209.231)" fill="#808285" class="heavy" font-size="8">27.8%</text><text transform="translate(427.158 196.611)" fill="#808285" class="heavy" font-size="8">29.3%</text><text transform="translate(434.088 183.994)" fill="#808285" class="heavy" font-size="8">30.0%</text><text transform="translate(444.188 171.375)" fill="#808285" class="heavy" font-size="8">31.1%</text><text transform="translate(445.21 158.758)" fill="#808285" class="heavy" font-size="8">31.3%</text><text transform="translate(446.793 146.139)" fill="#808285" class="heavy" font-size="8">31.4%</text><text transform="translate(449.836 133.522)" fill="#808285" class="heavy" font-size="8">31.8%</text><text transform="translate(450.389 120.902)" fill="#808285" class="heavy" font-size="8">31.8%</text><text transform="translate(458.088 108.285)" fill="#808285" class="heavy" font-size="8">32.7%</text><text transform="translate(460.218 95.666)" fill="#808285" class="heavy" font-size="8">32.9%</text><text transform="translate(460.608 83.048)" fill="#808285" class="heavy" font-size="8">33.0%</text><text transform="translate(465.102 70.43)" fill="#808285" class="heavy" font-size="8">33.4%</text><text transform="translate(466.56 57.812)" fill="#808285" class="heavy" font-size="8">33.6%</text><text transform="translate(470.092 45.193)" fill="#808285" class="heavy" font-size="8">34.0%</text><text transform="translate(473.09 32.576)" fill="#808285" class="heavy" font-size="8">34.3%</text><text transform="translate(473.748 19.957)" fill="#808285" class="heavy" font-size="8">34.4%</text><text transform="translate(488.93 7.339)" fill="#808285" class="heavy" font-size="8">36.1%</text><text transform="translate(.282 208.231)" fill="#5D5E5E" font-size="8">Agriculture, forestry, ﬁshing, and hunting</text><text transform="translate(92.641 195.611)" fill="#5D5E5E" font-size="8">Other services</text><text transform="translate(23.566 182.994)" fill="#5D5E5E" font-size="8">Professional and business services</text><text transform="translate(97.92 170.375)" fill="#5D5E5E" font-size="8">Construction</text><text transform="translate(39.637 157.758)" fill="#5D5E5E" font-size="8">Real estate, rental and leasing</text><text transform="translate(8.05 145.139)" fill="#5D5E5E" font-size="8">Arts, entertainment, food services, etc.</text><text transform="translate(116.481 132.522)" fill="#5D5E5E" font-size="8">Utilities</text><text transform="translate(3.53 119.902)" fill="#5D5E5E" font-size="8">Administrative, waste management, etc.</text><text transform="translate(92.005 107.285)" fill="#5D5E5E" font-size="8">Manufacturing</text><text transform="translate(29.593 94.666)" fill="#5D5E5E" font-size="8">Transportation and warehousing</text><text transform="translate(28.901 82.048)" fill="#5D5E5E" font-size="8">Health care and social assistance</text><text transform="translate(71.965 69.43)" fill="#5D5E5E" font-size="8">Wholesale and retail</text><text transform="translate(102.277 56.812)" fill="#5D5E5E" font-size="8">Information</text><text transform="translate(42.914 44.193)" fill="#5D5E5E" font-size="8">Petroleum and coal products</text><text transform="translate(65.605 31.576)" fill="#5D5E5E" font-size="8">Finance and insurance</text><text transform="translate(72.365 18.957)" fill="#5D5E5E" font-size="8">Educational services</text><text transform="translate(119.36 6.339)" fill="#5D5E5E" font-size="8">Mining</text></svg>