<svg xmlns="http://www.w3.org/2000/svg" width="320.875" height="340" viewBox="0 0 320.875 340"><style>text, tspan { font-family: &apos;Lato&apos;; } .heavy { font-weight: 700; }</style><path fill-rule="evenodd" clip-rule="evenodd" fill="#CC333F" d="M160.265 21.09c42.29 0 82.843 16.836 112.698 46.787L160.265 180.22V21.09z"/><path stroke="#fff" stroke-width="1.5" stroke-linejoin="round" stroke-miterlimit="10" d="M160.265 21.09c42.29 0 82.843 16.836 112.698 46.787L160.265 180.22V21.09z" fill="none"/><path fill-rule="evenodd" clip-rule="evenodd" fill="#05AFBE" d="M272.963 67.876c62.048 62.243 61.888 163-.354 225.043-62.244 62.045-163 61.887-225.045-.355-62.045-62.243-61.885-162.998.355-225.044 29.828-29.733 70.227-46.43 112.344-46.43v159.13l112.7-112.344z"/><path stroke="#fff" stroke-width="1.5" stroke-linejoin="round" stroke-miterlimit="10" d="M272.963 67.876c62.048 62.243 61.888 162.997-.354 225.043-62.244 62.045-163 61.887-225.045-.355-62.045-62.243-61.885-162.998.355-225.044 29.828-29.733 70.227-46.43 112.344-46.43v159.13l112.7-112.344z" fill="none"/><text transform="translate(175.658 64.503)" fill="#fff" font-size="18.618">$148</text><text transform="translate(188.468 82.03)" fill="#fff" font-size="18.618">13%</text><text transform="translate(62.51 271.069)" fill="#fff" font-size="18.618">$1,036</text><text transform="translate(82.891 293.596)" fill="#fff" font-size="18.618">87%</text><text transform="translate(58.697 226.448)"><tspan x="0" y="0" fill="#fff" class="heavy" font-size="14">Individual Tax</tspan><tspan x="0" y="16.8" fill="#fff" class="heavy" font-size="14">Expenditures</tspan></text><text transform="translate(226.96 11.597)" fill="#CC333F" class="heavy" font-size="14">Corporate Tax</text><text transform="translate(226.96 30.584)" fill="#CC333F" class="heavy" font-size="14">Expenditures</text></svg>