<svg xmlns="http://www.w3.org/2000/svg" width="510.167" height="250.833" viewBox="0 0 510.167 250.833"><style>text, tspan { font-family: &apos;Lato&apos;; } .heavy { font-weight: 700; }</style><path id="HI" fill="#91BB96" stroke="#fff" d="M106.606 210.664l.947-1.74 1.106-.156.157.396-1.027 1.5h-1.184zm4.975-1.818l3.003 1.265 1.026-.157.79-1.896-.317-1.658-2.053-.238-1.975.87-.474 1.814zm15.006 4.897l1.817 2.686 1.185-.16.552-.235.71.632 1.818-.078.474-.712-1.422-.87-.947-1.816-1.028-1.736-2.843 1.42-.316.867zm9.872 4.344l.632-.95 2.29.476.317-.236 3 .316-.158.63-1.264.712-2.133-.158-2.685-.79zm2.606 2.526l.947 1.896 1.502-.554.16-.79-.79-1.025-1.817-.158v.63zm3.396-.55l1.105-1.423 2.29 1.185 2.134.552 2.13 1.344v.948l-1.737.87-2.37.473-1.184-.71-2.37-3.238zm8.134 7.58l.79-.63 1.658.786 3.71 1.738 1.66 1.025.79 1.186.947 2.132 1.974 1.263-.158.63-1.895 1.582-2.052.71-.71-.315-1.5.87-1.186 1.58-1.105 1.42-.87-.08-1.736-1.262-.157-2.213.315-1.184-.79-2.767-1.025-.867-.08-1.266 1.106-.473 1.026-1.5.236-.473-.79-.868-.158-1.027z"/><path id="AK" fill="#D4C564" stroke="#fff" d="M76.315 178.6l-.158 41.697.79.475 1.5.08.71-.555h1.264l.08 1.422 3.396 3.315.237 1.265 1.66-.948.314-.08.158-1.5.71-.79.554-.077.946-.71 1.5 1.026.317 1.42.947.555.552 1.185 1.896.868 1.658 2.922 1.343 1.896 1.105 1.342.71 1.818 2.45.867 2.527 1.027.473 2.13.238 1.503-.475 1.658-.87 1.107-.79-.396-.71-1.5-1.342-.712-.87-.55-.395.394.712 1.343.08 1.816-.553.236-.948-.946-1.027-.633.237.79.63.868-.394.396s-.395-.158-.63-.474c-.238-.313-1.028-1.658-1.028-1.658l-.475-1.104s-.157.63-.473.475c-.316-.16-.632-.713-.632-.713l.87-.947-.71-.71v-2.447h-.395l-.396 1.658-.554.236-.474-1.816-.315-1.815-.396-.238.16 2.765v.555l-.71-.633-1.738-2.922-1.027-.238-.315-1.815-.79-1.424-.79-.553V229.7l1.027-.634-.236-.158-1.263.316-1.658-1.185-1.265-1.422-2.37-1.263-1.974-1.266.633-1.58v-.79l-.87.79-1.42.553-1.816-.553-2.765-1.185h-2.686l-.315.237-3.16-1.895-1.026-.16-1.342-2.842-1.737.158-1.738.71.237 2.212.554-1.422.474.158-.71 2.132 1.58-1.343.314.79-1.895 2.132-.632-.157-.236-.948-.632-.395-.63.554-1.343-.87-1.5 1.028-.87 1.026-1.66 1.025-2.29-.078-.236-1.027 1.817-.315v-.63l-1.104-.318.473-1.185 1.105-1.895v-.87l.08-.395 2.133-1.105.474.632h1.343l-.63-1.264-1.818-.158-2.448 1.342-1.185 1.657-.87 1.265-.553 1.106-2.054.71-1.5 1.264-.158.788 1.105.476.395 1.025-1.343 1.58-3.16 2.054-3.79 2.054-1.027.553-2.606.555-2.607 1.104.87.632-.713.71-.236.553-1.343-.472-1.578.077-.395 1.105h-.474l.158-1.183-1.737.63-1.42.474-1.66-.633-1.42.948h-1.58l-1.027.633-.79.396-1.026-.16-1.264-.552-1.105.315-.473.474-.79-.553v-.948l1.5-.632 3.08.315 2.133-.79 1.027-1.027 1.42-.315.87-.396 1.342.08.79.63.473-.156 1.106-1.343 1.498-.473 1.66-.316.63-.157.317.237h.394l.63-1.816 1.975-.71.947-1.82 1.106-2.21.79-.71.158-1.264-.79.632-1.658.315-.316-1.183-.63-.158-.476.473-.08 1.423-.71-.08-.71-2.845-.63.634-.555-.237-.156-.947-1.975.08-1.028.55-1.264-.156.71-.71.238-1.264-.316-.948.71-.475.63-.078-.314-.87v-2.133l-.474-.473-.396.71h-3l-.71-.63-.317-1.896-1.027-1.74v-.472l1.026-.395.078-1.026.554-.553-.396-.236-.63.237-.554-1.342.474-2.448 2.21-1.58 1.264-.79.948-1.815 1.342-.633 1.264.555.158 1.184 1.185-.157 1.58-1.184.788.314.475.315h.79l1.105-.632.395-2.134s.158-1.422.474-1.658.474-.474.474-.474l-.552-.948-1.264.396-1.58.395-.946-.237-1.737-.87-2.45-.078-1.736-1.815.237-1.897.316-1.184-1.026-.868-.95-1.817.24-.397 3.316-.236h1.026l.475.474h.315l-.08-.788 1.897-.316 1.262.157.71.554-.71 1.025-.237.712 1.342.79 2.45.868.867-.475-1.105-2.13-.475-1.58.474-.397-1.66-.947-.236-.552.237-.79-.395-1.896-1.42-2.29-1.186-2.052 1.42-.948h1.58l.87.316 2.053-.08 1.816-1.737.552-1.5 1.816-1.184.79.472 1.343-.315 1.818-1.028.552-.08.474.397 2.213-.08 1.34-1.5h.555l1.737 1.185.946 1.027-.237.55.314.554.79-.788 1.896.158.158 1.814.948.714 3.475.314 3.08 2.053.71-.474 2.528 1.264 1.027-.316.948-.394 2.37.946 2.132 1.424zm-56.23 14.137l1.027 2.605-.08.473-1.42-.157-.87-1.974-.87-.71H16.69l-.08-1.265.87-1.186.552 1.185.71.712 1.345.315zm-1.263 16.347l1.815.394 1.817.474.395.474-.79 1.817-1.502-.078-1.66-1.738-.076-1.343zm-10.11-6.872l.554 1.265.552.79-.552.395-1.028-1.5v-.95h.475zM2 237.91l1.66-1.104 1.657-.475 1.264.16.238.79.948.234.947-.946-.158-.79 1.343-.315 1.42 1.265-.553.866-2.13.554-1.344-.236-1.816-.554-2.132.712-.79.156L2 237.91zm23.93-2.212l.79.948 1.026-.79-.71-.63-1.107.472zm1.42 1.5l.554-1.104 1.027.16-.394.945H27.35zm11.53-.946l.71.868.475-.554-.396-.948-.79.634zm4.266-6.083l.553 2.842 1.42.396 2.448-1.42 2.132-1.265-.79-1.185.237-1.185-1.026.63-1.42-.393.79-.552.947.394 1.894-.87.24-.71-1.186-.394.395-.948-1.343.948-2.29 1.736-2.37 1.422-.63.553zm20.69-9.713l1.187-.71-.475-.87-.87.474.16 1.107z"/><path id="FL" fill="#79B8A9" stroke="#fff" d="M363.72 191.208l.995 3.217 1.64 4.283 2.345 4.12 1.635 2.773 2.133 2.417 1.776 1.635.71 1.278-.498.57-.354.567 1.277 3.27 1.278 1.278 1.137 2.346 1.564 2.56 1.988 3.624.57 3.342.212 5.257.284.783-.143 1.492-1.064.567.142.854-.284.85.143 1.067.212.853-1.207 1.422-1.352.64-1.704.07-.64.71-1.066.428-.57-.215-.495-.426-.144-1.28-.354-1.492-1.492-2.273-1.562-.996-1.706-.142-.354.568-1.353-1.92-.285-1.562-1.136-1.777-.783-.497-.71.924-.782-.142-.925-2.202-1.278-1.707-1.278-2.345-1.136-1.352-1.565-1.634.924-1.066 1.42-2.417-.07-.71-1.99-.428-.71.285.143.284 1.138.428-.64 1.99-.355.213-.783-1.776-.567-2.13-.143-1.21.64-2.062v-4.192l-1.35-1.634-.57-1.35-2.273-.57-.853-.284-.71-1.137-1.492-.71-.5-1.493-1.208-.426-1.064-1.635-1.848-.64-1.28-.64h-1.137l-1.776.356-.072.853.356.425-.214.498-1.35-.07-1.636 1.563-1.562.852h-1.706l-1.422.568-.142-1.208-.712-.853-1.278-.497-.71-.64-3.554-1.707-3.34-.78-1.92.285-2.63.213-2.628.924-1.53.27-.104-3.538-1.136-.854-.783-.782.142-1.35 4.477-.57 11.23-1.278 2.982-.285 2.39.124 1.137 1.705.64.64 3.56.227 4.757-.284 9.457-.568 2.395-.297 2.245.09.188 1.28.98.353.105-2.033-.673-1.836.575-.633 2.442.2 2.273.144zm5.514 58.206l1.067-.285.57-.107.64-1.03 1.03-.71.568.214.746.14.18.465-1.53.532-1.847.64-1.03.532-.393-.392zm5.934-2.204l.533.463 1.21-.924 2.344-1.85 1.636-1.706 1.103-2.913.426-.746.07-1.492-.32.213-.427 1.244-.64 2.024-1.42 2.31-1.92 1.848-1.493.854-1.102.674z"/><path id="NH" fill="#C3C370" stroke="#fff" d="M416.905 60.767l.383-.473.48-1.447-1.118-.4-.214-1.352-1.706-.498-.142-1.208-3.197-10.306-2.023-6.393h-.393l-.284.71-.285-.214-.426-.426-.64.853-.022 2.212.138 2.49.852 1.21V47.3l-1.634 2.226-1.137.498v.498l.496.782v3.767l-.354 4.05-.07 2.133.424.57-.07 1.99-.215.78.427.313 7.38-1.945.956-.263.81-1.22 1.582-.71z"/><path id="MI" fill="#85B99F" stroke="#fff" d="M290.508 31.015l-1.002.248-2.362 1.704-.962.357-.798.907.7.495.908-.398 1.455-.85 2.268-2.268-.207-.195zm4.89 6.25l-2.06.22-1.91 1.06-1.002 1.002-.562.77-.784.356-.85 1.277-.07.577-1.924.92-1.06.853-2.636.426-.288.288v.425l-1.553.99-1.21.356-.316.26 1.637 2.254 3.462.508 3.627.962 1.25.454 5.33 1.195.905 1.002 1.554.604.85 4.534.604.454.52.453 1.39-3.077.426-1.786.865-1.91.343-.083.508.715h.275l1.993-1.058.646.7.205.07.576-.496.496-1.345 1.058-.358 3.063-.288.852-1.127 2.267-.083 2.57.577h.78l1.416-.646.988.07.936-.274 1.636.206.356.15.564-.15-.564-.426-.576-.275-1.416-1.36v-3.05l-.646-.218-.494.508-2.706.7-.852.22-1.278-.356-.206-.137V42.39l-.646-.083-1.14.577-1.978.852-2.927.137-1.483.495-1.787 1.566-.7.425h-.51l-.562.356-.713-.206-.7-.577-.646.425-1.702.07-1.21-1.21-.646-1.346-.632-.494-1.43-.426h-.988l-.563-.563-1.566 1.277-.427.494-.355-.218.137-1.127 1.07-1.43.207-1.07 1.003-.345.632-1.36 1.635-.426.15-.426-.508-.492zm29.25 10.195l-.962.11-.7.07-.152.493.427.22.29 1.1 1.427.068.563-.52s-.036-.644-.18-.714c-.14-.073-.713-.826-.713-.826zm-7.144 4.093l-1.28.783-1.275.99.136 1.565.427.14.935.218.205.357-1.14.358-1.126.137-.646.784-.137.92.138.714.14 2.418-1.554.92-.29-.068v-1.854l.564-1.06.288-1.07-.357-.357-.85.357-.426 1.854-1.21.495-.782.852-.068.426.288.36-.288 1.14-.99.205v.495l.344 1.07-.494 2.693-.7 1.787.274 2.06.22.495-.357 1.07-.137.345-.152 1.21 1.567 2.636 1.277 2.844.646 2.13-.357 2.06-.426 2.624-1.072 2.28-.137 1.21-1.43 1.36 1.94-.084 9.41-.99 3.2-.44.042.744 3.008-.536 4.534-.66 1.69-.206.067-.26.067-.633.92-1.635.88-.77-.097-2.226.7-.7.482-.153.096-1.552.673-1.333.468.26.07.29.355.068.854-.426-.14-4.19-1.427-3.627-.99-3.984L333 67.05l-1.14-.783-.7.495-1.72.783-.85 2.198-1.21 1.634-.495.29-.632-.29s-1.143-.636-1.07-.92c.07-.284.218-2.198.218-2.198l1.485-.578.357-1.483.29-1.142 1.057-.714-.14-4.41-.714-.99-.562-.357-.357-.92.357-.357.714.138.068-.715-1.07-.99-.564-1.14h-1.14l-1.992-.63-2.417-1.498h-1.21l-.273.288-.427-.22-1.36-.99z"/><path id="VT" fill="#C3C370" stroke="#fff" d="M400.94 65.88l.14-2.35-1.27-4.74-.284-.142-1.28-.57.354-1.278-.355-.925-1.185-2.04.425-1.705-.354-2.274-1.066-2.842-.354-2.164 11.614-2.96.136 2.428.843 1.206V47.3l-1.63 2.224-1.137.502-.005.493.575.667-.135 3.56-.27 4.07-.1 2.442.425.567-.07 2.01-.213.743.445.32-3.27.66-1.976.32z"/><path id="ME" fill="#CCC469" stroke="#fff" d="M435.386 32.81l.853.923.995 1.634v.853l-.924 2.062-.853.284-1.49 1.35-2.134 2.417h-.568c-.284 0-.426-.924-.426-.924l-.784.07-.425.64-1.065.64-.426.64.71.64-.215.284-.213 1.208-.854-.07v-.71l-.142-.57-.64.143-.782-1.42-.924.567.568.64.143.497-.353.568.142 1.35.07.71-.71 1.138-1.28.212-.142 1.28-2.346 1.35-.567.213-.71-.64-1.352 1.564.427 1.42-.64.57-.072 1.918-.492 2.753-1.083-.508-.213-1.35-1.706-.5-.143-1.207-3.197-10.305-2.066-6.436.625-.053.666.18V37.7l.575-1.977 1.137-2.06.64-1.777-.852-1.066v-2.63l.354-.426.355-1.208-.07-.64-.07-2.13.78-2.133 1.278-3.91.924-1.847h.568l.568.07v.5l.57.994 1.207.284.354-.355v-.427l1.776-1.28.782-.78.64.07 2.63 1.067.852.426 3.98 13.148h2.63l.356.853.07 2.132 1.278.994h.356l.07-.214-.212-.497 1.212-.074zm-9.2 13.253l.673-.676.603.463.25 1.066-.747.39-.78-1.243zm2.947-2.595l.782.818s.57.035.57-.107c0-.144.104-.89.104-.89l.39-.355-.354-.782-.888.32-.605.995z"/><path id="RI" fill="#CEC467" stroke="#fff" d="M413.946 76.8l-1.625-6.576 2.76-.81.96.846 1.454 1.9 1.183 1.936-1.318.713-.57-.072-.497.782-1.066.853-1.28.426z"/><path id="NY" fill="#A3BF89" stroke="#fff" d="M394.74 81.13l-.497-.428-1.138-.07-.994-.853-.716-2.695-1.52.04-1.076-1.19-8.52 1.925-18.906 3.838-3.31.54-.324-2.844.628-.495.57-.5.424-.71.783-.496.852-.782.214-.71.923-1.21.498-.425-.07-.426-.568-1.35-.782-.07-.853-2.702 1.28-.782 1.918-.64 1.775-.57 1.422-.212 2.772-.07.854.567.71.073.923-.57 1.14-.497 2.274-.214.923-.782.782-1.42.71-.854h.923l.853-.498.072-.995-.64-.924-.144-.64.498-.925v-.64h-.78l-.783-.356-.355-.5-.072-1.136 2.56-2.417.283-.355.64-1.28 1.28-1.99 1.207-1.633.925-1.067 1.062-.803 1.354-.55 2.417-.567 1.423.072 1.99-.64 3.325-.91.23 2.188 1.064 2.843.355 2.274-.426 1.706 1.138 1.99.354.923-.354 1.278 1.28.568.282.142 1.352 4.833-.235 2.225-.214 4.762.355 2.417.354 1.563.64 3.198v3.554l-.496.994.81.875.35.738-.854.782.138.574.567-.142.64-.568.996-1.137.497-.284.71.284.995.07 3.482-1.704 1.28-1.208.567-.64 1.85.71-1.494 1.563-1.704 1.278-3.128 2.346-1.137.427-2.56.85-1.776.5-.516-.236-.108-1.62.214-1.21-.07-.923-1.236-.746-1.99-.427-1.707-.497-1.63-.78z"/><path id="PA" fill="#DBC55F" stroke="#fff" d="M392.428 96.933l.576-.12 1.024-.55.533-1.092.71-.995 1.423-1.35v-.355l-1.067-.71-1.562-1.066-.426-1.137-1.21-.142-.07-.498-.354-1.208.995-.498.07-1.066-.57-.568.073-.71.852-1.352v-1.35L394.61 81l-.403-.297-1.11-.084-1.008-.852-.683-2.688-1.54.044-1.08-1.188-7.953 1.845-18.904 3.838-3.907.64-.274-2.867-2.357 2.23-.568.212-1.85 1.322 1.28 8.414 1.092 4.276 1.57 8.468 1.437-.28 5.25-.66 16.674-3.37 6.54-1.242 3.648-.713.117-.104.925-.71.92-.3z"/><path id="NJ" fill="#CEC467" stroke="#fff" d="M394.43 81.004l-1.02 1.202v1.35l-.853 1.35-.07.71.568.57-.07 1.065-.995.5.354 1.208.07.498 1.21.142.427 1.138 1.563 1.066 1.066.71v.355l-1.313 1.185-.71.995-.64 1.21-.995.567-.203.704-.107.534-.27 1.145.482.987 1.42 1.28 2.132.993 1.777.284.07.64-.354.427.142 1.208h.356l.923-1.066.357-2.132 1.207-1.777 1.35-2.842.5-2.416-.285-.498-.072-4.122-.71-1.492-.498.355-1.207.142-.215-.213.5-.426.922-.853.028-.48-.17-1.51.253-1.208-.05-.866-1.234-.768-2.24-.517-1.818-.607-1.577-.724z"/><path id="DE" fill="#C9C46B" stroke="#fff" d="M392.65 98.51l.162-.946.164-.743-.712.176-.71.206-.97.775.755 2.216.994 2.488.923 4.265.712 2.77 2.2-.07 2.7-.52-.994-3.246-.427.212-1.564-1.066-.78-2.06-.854-1.565-1.384-1.26-.38-.923.163-.708z"/><path id="MD" fill="#C1C272" stroke="#fff" d="M398.876 109.12l-2.64.528-2.262.052-.81-3.044-.846-4.03-1.13-2.72-.567-1.934-3.3.713-6.54 1.24-16.464 3.32.498 2.204.426 2.487.142-.142.925-1.066.994-1.153 1.068-.27.64-.64.78-1.138.568.283 1.28-.14 1.136-.926.883-.638.812-.215.723.497 1.28.64.853.78.532.676 1.812.747v1.28l2.417.568.502.238.62-.89 1.268.865-.562 1.09-.336 1.753-.782 1.137v.924l.284.78 2.227.597 1.895-.026 1.352.426.923.142.427-.924-.64-.924v-.782l-1.065-.924-.925-2.416.568-2.345-.07-.924-.57-.57s.64-.71.64-.994c0-.285.214-.924.214-.924l.854-.568.854-.71.213.425-.64.71-.57 1.635.144.498.78.142.215 2.416-.925.428.143 1.562.213-.07.498-.853.71.782-.71.567-.143 1.492 1.14 1.492 1.705.213.71-.355 1.424 1.84.595.235 2.926-1.23.884-1.768-.198-2.158zm-7.02 3.967l.5 1.103.07.782.497.817s.39-.392.39-.534c0-.142-.318-1.352-.318-1.352l-.32-1.03-.82.213z"/><path id="VA" fill="#85B99F" stroke="#fff" d="M395.292 115.12l-.063-.854 2.838-1.12-.34 1.413-1.284 1.66-.182 2.016.202 1.49-.805 2.19-.953.84-.646-2.04.197-2.395.697-1.84.338-1.36zm1.47 12.443l-25.574 5.53-16.454 2.32-2.935-.166-1.137.847-3.228.097-3.685.43-4.798.71 4.603-2.465-.007-.913.67-.943 4.64-5.058 1.734 1.97 1.663.423 1.118-.5.982-.578 1.116.59 1.722-.627.825-2.002 1.143.236 1.256-.938.79.22 1.243-1.618.152-.916-.425-.56.44-.823 2.32-5.398.27-2.52.54-.23.958 1.073 1.73-.133.848-3.33 1.23-.245.46-1.204 1.134-1.032 1.22-2.503.037-2.227 4.318 1.68c.3.15.365-2.22.365-2.22l1.605.703.03 1.29 2.543.573.938.517.73.903-.288 1.604-.856 1.138.047.905.26.815 2.187.557 1.956.018 1.35.422.855.136.315 1.36 1.402.176.38.527-.19 2.062.603.484-.21.848.54.348-.098.608-1.184-.04.04.708 1 .678.055.62.78.785.216 1.11-1.123.607.692.657 2.55-.742 1.59 2.645z"/><path id="WV" fill="#91BB96" stroke="#fff" d="M364.32 103.207l.49 2.174.477 2.653.937-1.134.995-1.352 1.115-.27.64-.64.78-1.137.636.285 1.28-.143 1.137-.923.883-.64.81-.212.575.446 1.602.8.852.782.603.57-.335 2.44-2.564-1.117-1.866-.714-.046 2.277-1.207 2.433-1.11 1.067-.526 1.21-1.162.22-.395 1.582-.46 1.736-1.744.15-1.022-1.072-.47.246-.28 2.405-.593 1.553-2.18 4.816.395.508-.09.838-1.235 1.71-.795-.24-1.306.95-1.117-.253-.88 2.003s-1.433.63-1.724.6c-.07-.004-1.086-.548-1.086-.548l-1.027.607-1.06.458-1.646-.39-.49-.515-.966-1.33-1.382-.872-.752-1.594-1.883-1.524-.284-.995-1.137-.64-.356-.71-.106-2.31.96-.035.853-.355.072-1.208.71-.64.07-2.204.427-1.704.568-.285.567.498.213.782.783-.427.214-.71-.498-.78v-1.067l.427-.568.994-1.492.57-.64.923.214.994-.71 1.352-1.493.993-1.705.142-2.488.214-2.203v-2.06l-.498-1.35.427-.64.564-.57 1.532 8.716 2.037-.33 5.46-.79z"/><path id="OH" fill="#2CABE0" stroke="#fff" d="M352.954 83.144l-2.68 1.782-1.705.995-1.494 1.635-1.776 1.705-1.42.355-1.28.215-2.417 1.136-.923.072-1.493-1.35-2.273.284-1.138-.64-1.048-.594-2.15.31-4.477.71-4.926.96.568 6.43.782 6.042 1.137 10.305.25 2.125 1.812-.058 1.065-.355 1.48.66.91 1.92 2.26-.008.83.93.774-.03 1.117-.59 1.1.164 2.385.212.76-.938 1.03-.568.91-.3.284 1.21.78.425 1.53 1.03.96-.035.585-.216.082-1.214.697-.64.042-2.107.45-1.806.572-.265.58.504.235.746.756-.457.192-.642-.49-.836.028-1.018.33-.472.946-1.454.462-.68.925.215.993-.712 1.35-1.493 1.22-1.792.14-2.223.214-2.203-.077-2.333-.42-1.273.155-.522.792-.77-1.006-3.977-1.276-8.506z"/><path id="IN" fill="#AFC080" stroke="#fff" d="M302.065 130.025l.03-1.257.212-1.99.995-1.28.78-1.704 1.138-1.848-.213-2.56-.78-1.207-.144-1.422.355-2.417-.213-3.054-.57-7.036-.567-6.75-.427-5.154 1.352.392.64.426.497-.143.924-.852 1.243-.71 2.24-.07 9.664-.997 2.452-.233.66 7.014 1.87 16.198.263 2.537-.163.995.54.79.04.6-1.106.705-1.556.682-1.408.242-.264 2.14-2.01 1.455-1.23 1.764.143 1.042-.255.675h-1.463l-.696-.71-1.098.554-1.18.66.072 1.345-.524.113-.206-.447-.952-.66-1.43.59-.683 1.32-.63-.353-.64-.704-1.964.214-2.458.426-1.277.682z"/><path id="IL" fill="#D6C562" stroke="#fff" d="M302.053 130.188l.014-1.42.25-2.042 1.024-1.282.822-1.79.98-1.757-.163-2.31-.88-1.558-.044-1.472.306-2.316-.362-3.155-.47-6.936-.567-6.602-.405-5.117-.12-.404-.355-1.137-.567-1.636-.712-.78-.64-1.14-.102-2.41-20.133 1.142.1 1.042 1.005.302.4.502.2.805 1.71 1.507.303 1.004-.303 1.508-.804 1.61-.3 1.104-1.006.805-.804.3-2.312.604-.303.803-.3.904.3.604.806.704-.1 1.81-.806.704-.3.704v1.206l-.807.2-.702.503-.102.605.102.903-.753.58-.453 1.23.2 1.607 1.005 3.216 3.216 3.317 2.414 1.608-.102 1.91.403.603 2.813.2 1.205.604-.3 1.608-1.006 2.614-.302 1.407 1.005 1.71 2.814 2.31 2.01.303.904 2.21.905 1.408-.402 1.308.705 1.81.804.904.62-.387.4-.913.972-.77.938-.27 1.144.52 1.596.605.522-.132.088-.993-.566-1.06.134-1.044.808-.594 1.328-.356.556-.2-.27-.61-.35-1.035.632-.432.51-1.412z"/><path id="CT" fill="#CEC467" stroke="#fff" d="M413.946 76.785l-1.617-6.54-2.074.404-9.334 2.084.44 1.418.64 3.198.078 3.942-.538.956.845.85 1.88-1.718 1.56-1.42.855-.925.354.284 1.21-.64 2.27-.5 3.43-1.395z"/><path id="WI" fill="#B7C17A" stroke="#fff" d="M300.085 84.92l-.03-1.388-.518-1.99-.284-2.7-.498-1.067.428-1.35.354-1.28.64-1.137-.284-1.492-.285-1.563.214-.782.853-1.065.07-1.208-.354-.57.285-1.136-.198-1.833 1.207-2.487 1.28-2.985.07-.994-.143-.426-.354.213-1.848 2.77-1.207 1.778-.853.782-.355.994-.858.356-.5.854-.638-.143-.07-.78.568-1.068.924-2.062.78-.71.437-1.037-1.126-.835-.87-4.557-1.558-.59-.856-1.015-5.332-1.196-1.265-.446-3.61-.95-3.482-.51-1.654-2.256-.33.244-.527-.07-.283-.498-.588.13-.497.07-.783.427-.426-.284.284-.853.854-1.35.497-.498-.853-.64-.923.355-1.28.853-3.27 1.42-1.278.286-1.28-.213-.43-.387-.93 1.247-.103 1.206v3.718l-.503.703-2.312 1.71-1.007 2.613.202.1 1.106.906.3 1.406-.804 1.407v1.708l.202 2.916 1.307 1.307h1.508l.804 1.407 1.51.2 1.707 2.514 3.114 1.81.904 1.205.402 3.266.302 1.457 1.005.704.1.604-.904 1.508.102 1.407 1.104 1.708 1.105.503 1.308.2.59.607 19.912-1.173z"/><path id="NC" fill="#85B99F" stroke="#fff" d="M396.763 127.538l.917 2.163 1.563 2.843 1.066 1.068.283.994-1.066.07.354.285-.142 1.848-1.137.567-.284.925-.567 1.278-1.636.71-1.066-.142-.64-.07-.712-.57.144.57v.425h.854l.354.57-.853 2.77h1.847l.285.712.995-.995.568-.214-.854 1.563-1.35 2.132h-.57l-.497-.212-1.208.283-2.275 1.065-2.843 2.345-1.492 2.06-.852 2.844-.213 1.067-2.062.215-2.396.587-4.374-3.606-5.542-3.34-1.28-.354-5.543.64-1.88.33-.71-1.422-1.307-.93-7.248.213-3.2.354-3.978 1.99-2.7 1.136-9.31 1.14.218-1.784.783-.64 1.207-.285.285-1.634 1.847-1.208 1.705-.64 1.85-1.56 1.918-.927.285-1.35 1.706-1.706.284-.072s0 .498.354.498c.355 0 .854.143.854.143l.993-1.564.925-.284.995.14.71-1.56 1.277-1.138.215-.924.083-1.603 1.88-.01 3.165-.378 6.927-.99 6.654-.918 9.513-2.075 8.785-1.87 4.912-1.06 2.226-.51zm1.877 14.598l1.138-1.1 1.384-1.14.677-.284.07-.89-.285-2.698-.64-1.03-.284-.818.32-.106 1.21 2.416.177 1.956-.07 1.49-1.493.677-1.244 1.064-.497.533-.463-.07z"/><path id="DC" fill="#DBC55F" stroke="#fff" d="M383.943 108.43l-.817-.804-.542-.3.635-.89 1.27.856-.547 1.137z"/><path id="MA" fill="#B9C177" stroke="#fff" d="M425.18 74.32l.954-.303.202-.754.452.05.452 1.006-.554.2-1.707.05.2-.25zm-4.12.35l1.005-1.155h.703l.804.653-1.056.453-.954.453-.503-.402zm-15.3-9.665l7.76-2.04.994-.286.842-1.23 1.643-.73 1.27 1.94-1.065 2.273-.144.64.854 1.136.498-.355h.78l.996 1.137 1.706 2.63 1.562.213.995-.426.782-.783-.354-1.208-.923-.712-.64.355-.427-.568.213-.214.926-.07.78.355.854 1.066.427 1.28.143 1.066-1.848.64-1.707.854-1.705 1.99-.852.64v-.426l1.065-.64.213-.782-.355-1.35-1.277.64-.355.64.213.995-.908.44-1.207-1.99-1.49-1.92-.912-.795-2.87.824-2.24.462-9.09 2.02-.294-2.097.283-4.654 1.887-.39 2.98-.57z"/><path id="TN" fill="#91BB96" stroke="#fff" d="M335.962 138.063l-22.812 2.203-6.93.78-2.03.227-1.7-.012-.097 1.804-3.6.116-3.055.284-3.557-.055-.62 3.11-.747 2.408-1.447 1.21-.593 1.925-.143 1.137-1.777.995.64 1.563-.426 1.92-.427.347 47.548-4.575.178-1.74.796-.654 1.246-.33.297-1.633 1.802-1.19 1.778-.655 1.796-1.57 1.95-.89.23-1.35 1.787-1.75.242-.05s.012.496.368.496c.355 0 .852.157.852.157l.996-1.577.91-.285 1 .13.703-1.554 1.297-1.16.187-.854.136-1.632-.944-.087-1.145.892-3.072.014-8.07 1.05-3.546.837z"/><path id="AR" fill="#91BB96" stroke="#fff" d="M290.748 148.964l-1.75.313-2.248-.277.185-.704 1.31-1.128.415-1.607-.804-1.306-34.474 1.104.705 3.016v3.62l.602 4.824.1 16.632 1.006.855 1.307-.604 1.205.503.3 2.89 24.45-.5.505-.92-.126-1.56-.802-1.308.702-.653-.702-1.104.3-1.104.603-2.465 1.106-.907-.302-1.005 1.607-2.36 1.205-.6-.05-.657-.15-.803 1.255-2.462 1.057-.553.168-1.506.778-.546-1.382-.213-.588-1.764 1.232-1.045.243-.89.562-1.776.468-1.428z"/><path id="MO" fill="#8EBB99" stroke="#fff" d="M275.193 107.228l-1.108-1.358-.503-1.004-28.292 1.055-1.005.05.553 1.106-.1 1.005 1.104 1.71 1.356 1.81 1.357 1.205.95.1.657.403v1.306l-.805.704-.2 1.005.905 1.508 1.105 1.307 1.105.805.604 5.125.14 15.86.1 2.06.2 2.366 9.86-.38 10.203-.304 9.145-.354 5.123-.1.955 1.505-.3 1.455-1.358 1.057-.25.807 2.363.2 1.71-.302.758-2.414.285-2.575.924-1.125 1.14-.652.023-1.34.446-.854-.744-1.12-.586.434-.877-.98-.564-2.092.354-1.106-.855-1.506-.804-2.012-2.11-.35-3.063-2.464-.756-1.81.35-1.405.905-2.664.202-1.26-.857-.452-3.014-.35-.452-.753-.05-1.86-2.41-1.507-3.067-3.416-1.006-3.216-.1-1.856.353-1.006z"/><path id="GA" fill="#85B99F" stroke="#fff" d="M325.244 154.458v.96l.07.924.283 1.492 1.493 3.482 1.067 4.335.64 2.7.71 2.134.638 3.056.925 2.77 1.137 1.493.213 1.492.853.356.07.924-.78 2.13-.213 1.423-.07.854.71 1.92.143 2.347-.355 1.064.285.357.64.354.088 1.417.983 1.47.988.952 3.484.07 4.757-.284 9.456-.57 2.395-.295 2.014.013.07 1.28 1.138.354.143-1.92-.71-1.99.495-.707 2.56.354 2.187.14-.34-2.77.994-4.405.642-1.85-.215-1.136 1.466-2.745-.224-.596-.843.31-1.138-.568-.286-.924-.566-1.562-.996-.924-1.136-.285-.712-2.132-1.285-2.784-1.85-.853-.923-.85-.567-1.14-.925-.853-.994-.57-.994-1.277-1.35-.994-1.99-.783-.214-.64-1.066-1.278-.213-.64-1.492-2.185-1.548.044-1.65-1.037-.623-.567-.143-.78.382-.855.978-.488-.278-.923-18.406 2.194z"/><path id="SC" fill="#6BB5B1" stroke="#fff" d="M365.973 177.588l-.78.425-1.14-.567-.283-.924-.568-1.562-.995-.924-1.136-.285-.71-2.13-1.21-2.63-1.847-.854-.924-.853-.57-1.137-.922-.854-.995-.567-.995-1.28-1.35-.995-1.99-.78-.213-.64-1.067-1.28-.213-.64-1.493-2.273-1.49.07-1.777-1.066-.57-.567-.14-.78.353-.855.994-.427-.223-1.005 2.535-1.026 4.006-2.02 3.42-.355 7.083-.186 1.16.824.738 1.478 1.894-.27 5.542-.64 1.278.356 5.545 3.34 4.44 3.57-2.383 2.4-1.136 2.7-.213 2.77-.71.355-.5 1.208-1.063.285-.925 1.563-1.21 1.208-.993 1.492-.712.355-1.563 1.493-1.278.07.427 1.42-2.204 2.418-.923.574z"/><path id="KY" fill="#85B99F" stroke="#fff" d="M348.85 127.96l-1.008 1.054-1.573 1.756-2.166 2.403-.534.754-.027.924-1.926.952-2.487 1.492-3.18.79-22.8 2.154-6.93.78-2.032.228-1.7-.013-.1 1.856-3.597.06-3.054.286-3.512-.027.53-.582 1.1-.676.1-1.408.403-.805-.706-1.116.354-.84.995-.78.922-.285 1.208.568 1.563.57.498-.143.072-.997-.57-1.065.143-.994.854-.64 1.137-.285.71-.284-.355-.78-.284-.854.663-.438c.002-.016.552-1.548.545-1.607l1.342-.65 2.34-.426 1.975-.213.61.717.673.382.7-1.368 1.4-.562.97.652.18.44.518-.116-.07-1.3 1.375-.767.944-.474.672.73 1.46-.02.257-.69-.16-.995 1.144-1.756 2.1-1.51.31-2.127 1.287-.2 1.667-.724 1.074-.75-.085-.69-.504-.637.25-1.317 1.84-.053 1.012-.328 1.47.626.905 1.92 2.256.004.9.97.71-.064 1.146-.562 2.302.252 1.13.095.743-.902 1.15-.627.827-.31.285 1.246.897.466 1.163.915.05 2.494.356.692 1.138.684.34 1.01 1.83 1.51.793 1.593 1.078.73z"/><path id="AL" fill="#43AFCF" stroke="#fff" d="M307.225 200.56l-.655-6.298-1.208-8.244.07-6.183.355-13.646-.07-7.32.072-2.822 19.555-1.592-.065.96.07.924.285 1.492 1.49 3.483 1.068 4.335.64 2.7.71 2.132.64 3.057.924 2.77 1.138 1.493.213 1.49.853.358.072.923-.78 2.13-.215 1.424-.07.853.71 1.92.142 2.346-.356 1.065.285.356.64.354.142 1.272-2.46-.158-2.984.284-11.23 1.28-4.576.618-.098 1.266.782.782 1.136.853.257 3.488-2.438 1.13-1.208-.14 1.208-.854v-.426l-1.35-2.63-.996-.283-.64 1.92-.568 1.208-.284-.07h-1.21z"/><path id="LA" fill="#4DB0C8" stroke="#fff" d="M296.964 200.006l-1.443-1.39.445-2.42-.292-.392-4.07.443-11.004.2-.3-1.053.4-3.718 1.457-2.613 2.213-3.82-.254-1.055.553-.3.2-.858-1.004-.903-.048-.854-.806-1.91-.065-2.787-24.387.407.014 4.208.3 4.122.303 1.71 1.105 1.808.402 2.212 1.91 2.41.1 1.41.302.3-.3 3.718-1.308 2.21.703.907-.3 1.104-.303 3.218-.604 1.406.054 1.59 2.06-.668 5.327.09 4.548 1.565 2.844.498 1.635-.64 1.422.498 1.422.426.354-.925-1.422-.496-1.138.212-1.207-.71s.07-.567.356-.64c.284-.07 1.35-.425 1.35-.425l.783.64.78-.427 1.42.284.642 1.067.142.995 1.99.142.782.78-.356.712-.567.354.71.71 3.696 1.564 1.56-.57.428-1.066 1.137-.283.782-.64.568.427.354 1.278-.995.354.285.283 1.492-.567.994-1.493.355-.213-.923-.143.354-.71-.07-.64.925-.214.498-.57.284.356s-.072 1.35.284 1.35 1.85.285 1.85.285l1.775.853.426.64h1.28l.497.427.996-1.35v-.64h-.57l-1.49-1.21-2.56-.355-1.42-.994.496-1.208.994.142.07-.282-.78-.428v-.213h1.42l.782-1.35-.568-.854-.144-1.21-.64.072-.852.924-.284 1.137-1.352-.284-.426-.783.782-.852.838-1.516-.468-1.06-.508-1.746z"/><path id="MS" fill="#6BB5B1" stroke="#fff" d="M307.336 200.087l-.112.552h-2.274l-.64-.355-.924-.142-2.984.853-.78-.355-1.14 1.85-.484.34-.493-1.093-.503-1.708-1.508-1.408.503-2.438-.3-.402-.805.1-3.482.386-10.79.164-.34-.98.385-3.68 1.37-2.495 2.3-4.02-.197-1.07.545-.287.19-.844-1.02-.915-.05-.94-.807-1.812-.047-2.62.58-1.09-.097-1.503-.777-1.354.672-.652-.69-1.1.2-.725.693-2.868 1.093-.896-.28-1.042 1.607-2.33 1.244-.597-.098-.735-.126-.738 1.265-2.447 1.03-.542.066-.394 16.417-1.705.083 2.76.07 7.32-.355 13.646-.07 6.183 1.207 8.244.654 5.883z"/><path id="IA" fill="#79B8A9" stroke="#fff" d="M279.918 85.894l.117 1.225.977.252.42.54.22.815 1.667 1.477.3 1.05-.296 1.506-.694 1.42-.352 1.206-.957.704-.75.252-2.454.817-.612 1.69.32.604.81.74-.124 1.775-.775.674-.34.722.057 1.22-.83.202-.714.485-.122.595.122.93-.682.49-1.086-1.377-.557-1.076-28.896 1.106-.404.072-.903-1.985-.1-2.915-.704-1.808-.3-2.312-1.007-1.608-.403-2.11-1.205-3.317-.502-2.362-.604-.954-.704-1.205.86-2.13.603-2.512-1.206-.905-.2-1.206.4-1.106h.753l36.335-.557.368 1.838.99.686.113.625-.895 1.49.085 1.41 1.105 1.67 1.11.567 1.354.22.288.367z"/><path id="MN" fill="#DAC65F" stroke="#fff" d="M238.615 54.787l-.2-3.72-.804-3.215-.804-5.93-.2-4.32-.804-1.51-.703-2.21V29.36l.3-1.71-.8-2.396 13.246.016.14-3.625.286-.07.995.213.853.355.355 2.417.64 2.7.71.71h2.133l.14.64 2.773.144v.923h2.132l.143-.568.498-.5.994-.283.568.427h1.28l1.706 1.137 2.345 1.067 1.066.213.215-.426.64-.213.213 1.28 1.137.57.214-.214.568.07v.925l1.137.427h1.35l.712-.355 1.42-1.42 1.138-.213.355.78.213.57h.427l.426-.356 3.908-.142.782 1.35h.285l.313-.477 1.95-.163-.267 1.002-1.73.808-4.066 1.785-2.1.882-1.35 1.136-1.065 1.563-.995 1.704-.782.356-1.99 2.203-.568.07-1.902 1.213-1.083 1.41-.1 1.403.042 3.535-.605.743-2.235 1.652-.98 2.63 1.262.982.3 1.42-.817 1.423.075 1.647.16 2.96 1.333 1.318h1.465l.832 1.378 1.484.22 1.697 2.495 3.116 1.81.942 1.264.295 2.83-35.702.504-.148-15.683-.2-1.307-1.81-1.507-.502-.804v-.705l.904-.703.604-.603.1-1.413z"/><path id="OK" fill="#85B99F" stroke="#fff" d="M196.898 139.19l-7.334-.558-.387 4.814 8.997.51 14.09.57-1.025 10.736-.202 7.84.102.703 1.91 1.607.903.504.302-.103.3-.903.604.804h.903v-.603l1.206.604-.2 1.71 1.808.1 1.105.503 1.81.302 1.104.804 1.006-.905 1.507.302 1.106 1.507h.402v1.005l1.004.3 1.005-1.004.805.3h1.105l.402 1.107 2.77.914.603-.3.804-1.81h.503l.502.904 1.81.3 1.607.605 1.305.4.805-.4.302-1.105h1.91l.903.402 1.207-.906h.5l.304.705h1.81l.703-.903.803.2.903 1.105 1.408.805 1.407.402.854.49-.17-16.36-.604-4.824-.07-3.9-.634-2.873-.342-3.156-.028-1.676-5.336.14-20.403-.2-19.8-.906-10.68-.607z"/><path id="TX" fill="#2CABE0" stroke="#fff" d="M188.6 143.478l9.975.478 13.668.502-1.026 10.312-.13 7.98.03.916 1.908 1.678.874.637.52-.245.164-.8.5.794.93.018v-.636l.732.425.5.18-.158 1.744 1.797.043 1.286.526 1.74.23 1.047.915.934-.915 1.638.272.977 1.416.473.142-.07.863.973.35 1.025-.904.938.27.98.015.41 1.07 2.783.93.7-.336.654-1.84h.15l.397.037.54.91 1.728.292 1.466.492 1.508.527.81-.43.312-1.106 1.958.02.795.41 1.23-.927.483.02.375.706h1.784l.668-.893.82.18.855 1.056 1.55.9 1.255.354.667.352 1.073.877 1.338-.583 1.184.5.25 2.684-.02 4.267.303 4.192.308 1.583 1.176 1.943.397 2.177 1.854 2.433.088 1.383.327.347-.32 3.684-1.263 2.2.673.948-.276 1.026-.296 3.257-.66 1.467.13 1.54-2.49.698-4.335 1.99-.43.852-1.135.853-.926.64-.567.355-2.488 2.345-1.21.924-2.343 1.422-2.49 1.065-2.77 1.493-.78.64-2.56 1.563-1.492.284-1.706 2.417-1.776.142-.426.852.994.854-.64 2.416-.568 1.99-.498 1.705-.354 1.99.354 1.066.782 3.057.426 2.7.782 1.208-.426.64-1.35.853-2.488-1.706-2.416-.496-.57.212-1.42-.283-1.847-1.35-2.275-.5-3.34-1.49-.924-1.707-.568-2.842-1.42-.854-.286-.993.285-.284.142-1.492-.57-.285-.283-.426.568-1.92-.71-.994-1.422-.568-1.492-1.92-1.563-2.913-1.85-1.138.072-.854-2.345-5.4-.354-1.85-.782-.852-.07-.64-2.63-2.345-1.138-1.35v-.498l-1.137-.924-2.984-.498-3.268-.284-1.352-.994-1.99.78-1.562.64-.995 1.423-.427 1.635-1.92 2.7-1.065 1.065-1.138-.426-.782-.498-.853-.284-1.706-.994v-.285l-.782-.854-2.275-.925-3.27-3.41-.995-2.06v-3.554l-1.42-2.843-.214-1.208-.71-.427-.498-.923-2.203-.925-.57-.71-3.126-3.483-.57-1.422-2.06-.994-.64-1.918-1.137-1.28-.853-.21-.285-2.058 3.518.3 12.764 1.206 12.764.704.98-8.554 1.71-24.424.704-8.24.603.012m43.537 100.96l-.25-3.128-1.207-3.162-.25-3.092.676-3.624 1.458-3.02 1.528-2.382 1.386-1.562.283.105-2.096 2.915-1.92 2.878-.888 2.913-.142 2.274.39 2.7 1.138 3.162.213 2.274.072.64-.39.107z"/><path id="NM" fill="#A7BF86" stroke="#fff" d="M156.37 184.555l-.34-2.087 3.8.23 13.263 1.296 11.988.742.975-8.223 1.695-24.564.764-8.524.69.056.364-4.907-45.722-4.675-7.69 52.944 6.795.874.57-4.407 12.85 1.245z"/><path id="KS" fill="#A3BF89" stroke="#fff" d="M252.965 140.756l-5.547.09-20.262-.2-19.588-.906-10.828-.553 1.712-28.396 9.708.297 17.71.37 19.476.434h2.242l.96.952.887-.01.72.445-.026 1.323-.806.76-.146.98.812 1.496 1.296 1.404 1.024.71.57 4.94.085 15.866z"/><path id="NE" fill="#B7C17A" stroke="#fff" d="M243.39 103.97l1.42 3.085-.057 1.012 1.52 2.414 1.195 1.388h-2.22l-19.115-.414-17.93-.39-9.782-.345.473-9.376-14.208-1.284 1.91-19.347 6.834.453 8.843.502 7.84.503 10.453.503 4.724-.2.904 1.004 2.11 1.306.503.402 1.91-.603 1.708-.2 1.207-.102.804.604 1.784.703 1.307.704.2.704.4.905h.806l.352.02.393 2.058 1.284 3.723.25 1.652 1.11 1.66.25 2.248.708 1.863.11 2.846z"/><path id="SD" fill="#2CABE0" stroke="#fff" d="M239.147 87.846l-.02-.255-1.274-2.13.818-2.07.656-2.587-1.223-.915-.17-1.206.35-1.123 1.4.006-.053-2.2-.146-13.266-.27-1.657-1.79-1.464-.432-.738-.028-.708.89-.672.674-.733.107-1.168-25.61-.704-24.092-1.516-2.34 28 6.413.397 8.77.53 7.8.407 10.454.574 5.268-.186.864.986 2.284 1.43.335.32 1.998-.64 2.875-.27.736.587 1.848.702 1.295.718.174.653.458.985.982-.09z"/><path id="ND" fill="#5CB3BC" stroke="#fff" d="M238.645 54.83l-.27-3.71-.74-2.996-.83-5.725-.2-4.83-.766-1.353-.773-2.284.014-4.59.275-1.683-.806-2.402-12.592-.25-8.172-.283-11.655-.57-10.087-.937-3.075 29.53 24.15 1.472 25.527.61z"/><path id="WY" fill="#2CABE0" stroke="#fff" d="M188.122 61.14l-46.926-5.916-6.19 38.888 49.792 5.973 3.324-38.945z"/><path id="MT" fill="#9BBC90" stroke="#fff" d="M192.004 23.2l-13.484-1.235-12.863-1.563-12.864-1.776-14.213-2.345-8.1-1.49-14.387-3.05-1.97 9.385 1.508 3.316-.602 2.01.804 2.01 1.407.605 2.03 4.734 1.185 1.395.2.503 1.51.502.2.904-3.116 7.74v1.104l1.105 1.407h.4l2.11-1.307.303-.502.704.3-.1 2.313 1.205 5.526 1.306 1.106.402.3.804 1.006-.202 1.507.302 1.507.502.402 1.004-1.004h1.207l1.407.703 1.106-.402h1.81l1.607.705 1.207-.2.2-1.307 1.307-.302.603.603.2 1.406.628.367.83-4.852 46.926 5.905 3.87-37.936z"/><path id="CO" fill="#60B3B9" stroke="#fff" d="M196.762 139.254l2.156-37.95-49.847-5.558-5.37 38.66 53.062 4.848z"/><path id="ID" fill="#ABC082" stroke="#fff" d="M94.97 75.738l3.855-15.483.603-1.86 1.105-2.612-.553-1.005-1.105.05-.353-.452.2-.502.152-1.357 1.96-2.412.804-.2.502-.504.25-1.406.403-.3 1.708-2.564 1.71-1.91.1-1.658-1.507-1.156-.675-1.934 5.99-27.846 5.94 1.11-1.937 9.4 1.566 3.292-.696 2.05.867 2.04 1.38.55 1.685 4.202 1.545 1.95.223.503 1.47.502.16.922-3.063 7.64-.073 1.127 1.156 1.46.398-.02 2.16-1.33.297-.482.687.29-.123 2.353 1.203 5.532 1.722 1.397.74.952-.316 1.795.468 1.235.467.48 1.09-1.035 1.252.02 1.283.588 1.223-.3 1.667-.07 1.75.704 1.206-.13.22-1.335 1.288-.336.554.668.193 1.294.627.534-3.686 23.567c.003-.002-38.667-7.344-41.74-8.005z"/><path id="UT" fill="#6BB5B1" stroke="#fff" d="M143.774 134.48l-36.817-5.22 9.05-49.474 20.566 3.845-.653 4.674-1.016 5.79 3.433.41 7.212.792 3.61.377-5.386 38.807z"/><path id="AZ" fill="#91BB96" stroke="#fff" d="M93.4 166.363l-1.154.948-.143.642.213.426 8.315 4.69 5.33 3.34 6.468 3.768 7.39 4.406 5.402 1.064 10.97 1.19 7.584-52.37-36.81-5.24-1.36 7.216-.707.007-.754 1.155-1.105-.05-.552-1.206-1.206-.152-.402-.5h-.402l-.402.25-.854.45-.05 3.067-.1.753-.252 5.527-.653.957-.25 1.456 1.205 2.16.553 2.565.352.45.452.252-.05 1.005-.703.604-1.508.753-.854.855-.653 1.607-.252 2.16-1.256 1.207-.905.3.06.365-.2.755.2.352 1.608.25-.25 1.206-.654.955-1.66.403z"/><path id="NV" fill="#2CABE0" stroke="#fff" d="M116.032 79.736l-10.393 56.632-.806.153-.69 1.06-1.044.005-.647-1.206-1.15-.167-.34-.487-.456-.023-1.222.724-.136 2.98-.16 2.54-.153 3.778-.636.918-1.07-.472-30.37-45.81 8.348-29.71 40.924 9.086z"/><path id="OR" fill="#AFC080" stroke="#fff" d="M95.076 75.32l3.89-15.3.462-1.858 1.034-2.472-.27-.51-1.105-.022-.564-.734.2-.644.223-1.428 1.96-2.412.803-.483.502-.502.652-1.568 1.78-2.492 1.566-1.698.1-1.517-1.436-1.085-.784-2.04-5.567-1.59-6.633-1.557-6.784.05-.2-.603-2.414.905-1.96-.25-1.055-.704-.552.302-2.06-.102-.755-.603-2.312-.904-.35.048-1.91-.652-.855.804-2.713-.15-2.613-1.81.302-.352.1-3.417-1.005-1.708-1.81-.252-.302-1.105-1.034-.205-2.55.906-.994 2.843-1.42 4.404-1.422 2.843-2.204 6.183-2.843 5.97-3.553 5.542-.853 1.28-.354 3.766.17 5.31 49.49 11.572z"/><path id="WA" fill="#2CABE0" stroke="#fff" d="M74.568 1.5l1.918.64 4.264 1.208 3.767.852 8.812 2.488 10.09 2.488 6.693 1.41-5.993 27.953-5.47-1.55-6.818-1.57-6.696.014-.2-.59-2.462.957-2.02-.323-.944-.697-.577.29-2.082-.062-.746-.593-2.313-.928-.322.064-1.93-.67-.833.8-2.753-.132-2.605-1.814.342-.41.053-3.375-1.003-1.69-1.81-.266-.297-1.104-1-.2-1.563.54-.995-1.415.142-1.28 1.208-.14.71-1.778L60 20.12l.07-1.635 1.92-.285-1.21-1.208-.64-3.127.285-1.28v-3.48l-.782-1.422.995-4.122.925.214 1.065 1.28 1.208 1.136 1.42.853 1.99.924 1.35.284 1.28.64 1.492.427.995-.07V8.178l.57-.498.922-.568.142.497.142.783-.996.214-.142.923.782.64.497 1.067.286.852.64-.072.07-.568-.426-.568-.21-1.422.354-.782-.284-.64v-.994l.782-1.563-.498-1.136-1.066-2.132.142-.355.498-.357zM70.41 4.13l.89-.07.212.602.676-.71h1.03l.356.676-.675.747.283.355-.32.89-.604.177s-.392.035-.392-.107.64-1.137.64-1.137l-.747-.25-.14.64-.32.286-.676-.997-.214-1.104z"/><path id="CA" fill="#C9C46B" stroke="#fff" d="M93.305 166.172l1.732-.214.653-.884.24-1.294-1.562-.26-.226-.293.21-.895-.07-.257.845-.274 1.338-1.244.255-2.195.606-1.495.854-.952 1.547-.7.728-.704.03-.928-.438-.255-.45-.473-.508-2.57-1.18-2.124.248-1.54-1.064-.453-30.358-45.797 8.31-29.718-29.49-6.902-.662 2.08-.07 3.27-2.274 5.19-1.35 1.136-.143.498-.782.355-.64 1.847-.355 1.42 1.208 1.85.71 1.847.498 1.563-.142 2.843L40.77 89l-.283 2.56-.426 1.633.782 1.706 1.208 1.99.995 2.13.57 1.777-.143 1.42-.142.214v.926l2.487 2.77-.213 1.068-.285.994-.285.853.07 3.626.924 1.634.852 1.137 1.21.214.424 1.21-.498 1.562-.924.71H46.6l-.356 1.706.214 1.28 1.42 1.918.71 2.346.64 2.06.57 1.352 1.492 2.56.64 1.136.214 1.28.71.425v1.066l-.354.855-.782 3.127-.213.852 1.066 1.208 1.85.214 1.99.783 1.704.922h1.28l1.278 1.35 1.137 2.134.497.994 1.706.924 2.133.354.64.924.284 1.423-.64.284.142.424 1.42.355 1.21.07 1.388-.742 1.706 1.848.355.995 1.14 1.85.14 1.42v4.123l.214.78 4.406.64 8.67 1.208 6.085.592zM54.56 146.955l.568.676-.07.57-1.422-.036-.248-.533-.285-.64 1.457-.035zm.853 0l.533-.284 1.563.925 1.35.533-.392.283-1.99-.104-.71-.71-.355-.64zm9.096 8.706l.78 1.032.357.426.675.25.25-.642-.427-.78-1.173-.89-.462.07v.535zm-.64 3.803l.78 1.385.534.854-.64.105-.568-.532s-.32-.64-.32-.816v-.962l.213-.035z"/><text transform="translate(371.352 117.025)" fill="#fff" class="heavy" font-size="6.811">VA</text><text transform="translate(366.577 123.156)" fill="#fff" font-size="6.811">38.9%</text><text transform="translate(369.975 129.286)" fill="#fff" font-size="6.811">#30</text><text transform="translate(370.291 140.094)" fill="#fff" class="heavy" font-size="6.811">NC</text><text transform="translate(359.245 146.423)" fill="#fff" font-size="6.811">38.9% #30</text><text transform="translate(354.168 156.302)" fill="#fff" class="heavy" font-size="6.811">SC</text><text transform="translate(350.327 162.631)" fill="#fff" font-size="6.811">38.3%</text><text transform="translate(356.096 168.962)" fill="#fff" font-size="6.811">#38</text><text transform="translate(338.846 169.863)" fill="#fff" class="heavy" font-size="6.811">GA</text><text transform="translate(334.402 176.195)" fill="#fff" font-size="6.811">38.9%</text><text transform="translate(337.801 182.525)" fill="#fff" font-size="6.811">#30</text><text transform="translate(363.549 218.177)" fill="#fff" class="heavy" font-size="6.811">FL</text><text transform="translate(360.282 224.307)" fill="#fff" font-size="6.811">38.6%</text><text transform="translate(363.354 230.436)" fill="#fff" font-size="6.811">#37</text><text transform="translate(314.077 171.187)" fill="#fff" class="heavy" font-size="6.811">AL</text><text transform="translate(308.932 177.517)" fill="#fff" font-size="6.811">37.0%</text><text transform="translate(312.331 183.847)" fill="#fff" font-size="6.811">#44</text><text transform="translate(290.106 172.841)" fill="#fff" class="heavy" font-size="6.811">MS</text><text transform="translate(285.776 179.171)" fill="#fff" font-size="6.811">38.3%</text><text transform="translate(289.175 185.5)" fill="#fff" font-size="6.811">#38</text><text transform="translate(304.323 146.491)" fill="#fff" class="heavy" font-size="6.811">TN</text><text transform="translate(313.524 146.491)" fill="#fff" font-size="6.811">39.2%</text><text transform="translate(312.661 152.821)" fill="#fff" font-size="6.811">#24</text><text transform="translate(319.407 129.64)" fill="#fff" class="heavy" font-size="6.811">KY</text><text transform="translate(308.105 135.77)" fill="#fff" font-size="6.811">38.9% #30</text><text transform="translate(332.143 99.737)" fill="#fff" class="heavy" font-size="6.811">OH</text><text transform="translate(328.117 106.067)" fill="#fff" font-size="6.811">35.0%</text><text transform="translate(331.516 112.398)" fill="#fff" font-size="6.811">#45</text><text transform="translate(310.245 105.691)" fill="#fff" class="heavy" font-size="6.811">IN</text><text transform="translate(304.564 111.821)" fill="#fff" font-size="6.811">39.9%</text><text transform="translate(307.962 117.95)" fill="#fff" font-size="6.811">#18</text><text transform="translate(288.963 103.375)" fill="#fff" class="heavy" font-size="6.811">IL</text><text transform="translate(282.469 109.705)" fill="#fff" font-size="6.811">41.2%</text><text transform="translate(287.842 116.037)" fill="#fff" font-size="6.811">#3</text><text transform="translate(261.424 121.899)" fill="#fff" class="heavy" font-size="6.811">MO</text><text transform="translate(257.99 128.23)" fill="#fff" font-size="6.811">39.1%</text><text transform="translate(261.389 134.561)" fill="#fff" font-size="6.811">#29</text><text transform="translate(265.643 156.962)" fill="#fff" class="heavy" font-size="6.811">AR</text><text transform="translate(260.967 163.293)" fill="#fff" font-size="6.811">39.2%</text><text transform="translate(264.366 169.624)" fill="#fff" font-size="6.811">#24</text><text transform="translate(263.502 196.988)" fill="#fff" class="heavy" font-size="6.811">LA</text><text transform="translate(262.502 205.118)" fill="#fff" font-size="6.811">37.4% #43</text><text transform="translate(254.897 86.836)" fill="#fff" class="heavy" font-size="6.811">IA</text><text transform="translate(249.059 93.166)" fill="#fff" font-size="6.811">38.6%</text><text transform="translate(252.459 99.497)" fill="#fff" font-size="6.811">#36</text><text transform="translate(245.696 52.435)" fill="#fff" class="heavy" font-size="6.811">MN</text><text transform="translate(242.114 58.766)" fill="#fff" font-size="6.811">41.4%</text><text transform="translate(247.487 65.096)" fill="#fff" font-size="6.811">#2</text><text transform="translate(280.213 65.004)" fill="#fff" class="heavy" font-size="6.811">WI</text><text transform="translate(275.522 71.335)" fill="#fff" font-size="6.811">40.1%</text><text transform="translate(278.92 77.665)" fill="#fff" font-size="6.811">#15</text><text transform="translate(314.777 74.266)" fill="#fff" class="heavy" font-size="6.811">MI</text><text transform="translate(311.002 80.396)" fill="#fff" font-size="6.811">38.9%</text><text transform="translate(314.401 86.525)" fill="#fff" font-size="6.811">#30</text><text transform="translate(370.868 85.843)" fill="#fff" class="heavy" font-size="6.811">PA</text><text transform="translate(365.827 92.174)" fill="#fff" font-size="6.811">41.5%</text><text transform="translate(371.2 98.504)" fill="#fff" font-size="6.811">#1</text><text transform="translate(385.077 60.881)" fill="#fff" class="heavy" font-size="6.811">NY</text><text transform="translate(380.557 67.01)" fill="#fff" font-size="6.811">39.6%</text><text transform="translate(383.956 73.14)" fill="#fff" font-size="6.811">#21</text><text transform="translate(416.877 29.213)" fill="#fff" class="heavy" font-size="6.811">ME</text><text transform="translate(413.327 35.343)" fill="#fff" font-size="6.811">40.8%</text><text transform="translate(418.7 41.473)" fill="#fff" font-size="6.811">#8</text><text transform="translate(212.697 187.065)" fill="#fff" class="heavy" font-size="6.811">TX</text><text transform="translate(207.712 193.395)" fill="#fff" font-size="6.811">35.0%</text><text transform="translate(211.11 199.726)" fill="#fff" font-size="6.811">#45</text><text transform="translate(226.16 151.008)" fill="#fff" class="heavy" font-size="6.811">OK</text><text transform="translate(221.935 157.339)" fill="#fff" font-size="6.811">38.9%</text><text transform="translate(225.334 163.669)" fill="#fff" font-size="6.811">#30</text><text transform="translate(218.786 122.561)" fill="#fff" class="heavy" font-size="6.811">KS</text><text transform="translate(213.666 128.892)" fill="#fff" font-size="6.811">39.6%</text><text transform="translate(217.065 135.222)" fill="#fff" font-size="6.811">#22</text><text transform="translate(211.189 93.452)" fill="#fff" class="heavy" font-size="6.811">NE</text><text transform="translate(206.389 99.782)" fill="#fff" font-size="6.811">40.1%</text><text transform="translate(209.787 106.112)" fill="#fff" font-size="6.811">#16</text><text transform="translate(209.685 64.012)" fill="#fff" class="heavy" font-size="6.811">SD</text><text transform="translate(204.735 70.343)" fill="#fff" font-size="6.811">35.0%</text><text transform="translate(208.133 76.672)" fill="#fff" font-size="6.811">#45</text><text transform="translate(208.608 35.895)" fill="#fff" class="heavy" font-size="6.811">ND</text><text transform="translate(204.404 42.226)" fill="#fff" font-size="6.811">37.9%</text><text transform="translate(207.802 48.556)" fill="#fff" font-size="6.811">#42</text><text transform="translate(151.31 33.249)" fill="#fff" class="heavy" font-size="6.811">MT</text><text transform="translate(147.178 39.58)" fill="#fff" font-size="6.811">39.4%</text><text transform="translate(150.577 45.91)" fill="#fff" font-size="6.811">#23</text><text transform="translate(155.34 73.274)" fill="#fff" class="heavy" font-size="6.811">WY</text><text transform="translate(151.81 79.605)" fill="#fff" font-size="6.811">35.0%</text><text transform="translate(155.208 85.935)" fill="#fff" font-size="6.811">#45</text><text transform="translate(167.374 113.63)" fill="#fff" class="heavy" font-size="6.811">CO</text><text transform="translate(163.056 119.96)" fill="#fff" font-size="6.811">38.0%</text><text transform="translate(166.455 126.291)" fill="#fff" font-size="6.811">#41</text><text transform="translate(157.707 155.308)" fill="#fff" class="heavy" font-size="6.811">NM</text><text transform="translate(154.125 161.639)" fill="#fff" font-size="6.811">39.7%</text><text transform="translate(157.523 167.969)" fill="#fff" font-size="6.811">#20</text><text transform="translate(115.266 152)" fill="#fff" class="heavy" font-size="6.811">AZ</text><text transform="translate(110.461 158.331)" fill="#fff" font-size="6.811">39.2%</text><text transform="translate(113.86 164.662)" fill="#fff" font-size="6.811">#24</text><text transform="translate(125.204 107.014)" fill="#fff" class="heavy" font-size="6.811">UT</text><text transform="translate(120.385 113.344)" fill="#fff" font-size="6.811">38.3%</text><text transform="translate(123.784 119.675)" fill="#fff" font-size="6.811">#38</text><text transform="translate(87.007 97.09)" fill="#fff" class="heavy" font-size="6.811">NV</text><text transform="translate(82.675 103.42)" fill="#fff" font-size="6.811">35.0%</text><text transform="translate(86.074 109.751)" fill="#fff" font-size="6.811">#45</text><text transform="translate(110.878 56.405)" fill="#fff" class="heavy" font-size="6.811">ID</text><text transform="translate(105.168 62.734)" fill="#fff" font-size="6.811">39.8%</text><text transform="translate(108.567 69.065)" fill="#fff" font-size="6.811">#19</text><text transform="translate(72.492 49.789)" fill="#fff" class="heavy" font-size="6.811">OR</text><text transform="translate(68.122 56.118)" fill="#fff" font-size="6.811">39.9%</text><text transform="translate(71.519 62.449)" fill="#fff" font-size="6.811">#17</text><text transform="translate(79.603 16.049)" fill="#fff" class="heavy" font-size="6.811">WA</text><text transform="translate(76.06 22.378)" fill="#fff" font-size="6.811">35.0%</text><text transform="translate(79.459 28.71)" fill="#fff" font-size="6.811">#45</text><text transform="translate(55.874 110.652)" fill="#fff" class="heavy" font-size="6.811">CA</text><text transform="translate(51.251 116.983)" fill="#fff" font-size="6.811">40.7%</text><text transform="translate(56.624 123.314)" fill="#fff" font-size="6.811">#9</text><text transform="translate(49.765 191.157)" fill="#fff" class="heavy" font-size="7.569">AK</text><text transform="translate(44.733 198.191)" fill="#fff" font-size="7.569">41.1%</text><text transform="translate(50.705 205.226)" fill="#fff" font-size="7.569">#4</text><text transform="translate(127.765 229.386)" fill="#4E4E4E" class="heavy" font-size="7.569">HI</text><text transform="translate(121.452 236.419)" fill="#4E4E4E" font-size="7.569">39.2%</text><text transform="translate(125.231 243.454)" fill="#4E4E4E" font-size="7.569">#28</text><text transform="translate(350.975 114.115)" fill="#fff" class="heavy" font-size="6.811">WV</text><text transform="translate(345.975 119.904)" fill="#fff" font-size="6.811">39.2</text><text transform="translate(359.27 119.904)" fill="#fff" font-size="5.903">%</text><text transform="translate(345.975 125.693)" fill="#fff" font-size="5.903">#</text><text transform="translate(351.676 125.693)" fill="#fff" font-size="6.811">24</text><path id="marect" fill="#B9C177" stroke="#fff" d="M480.594 14.02h7.91v7.91h-7.91z"/><text transform="translate(456.835 28.874)" fill="#4E4E4E" font-size="6.811">40.2% #14</text><text transform="translate(467.623 20.439)" fill="#4E4E4E" class="heavy" font-size="6.811">MA</text><path id="rirect" fill="#CEC467" stroke="#fff" d="M480.594 32.183h7.91v7.91h-7.91z"/><text transform="translate(460.786 47.036)" fill="#4E4E4E" font-size="6.811">40.9% #5</text><text transform="translate(472.79 38.601)" fill="#4E4E4E" class="heavy" font-size="6.811">RI</text><path id="ctrect" fill="#CEC467" stroke="#fff" d="M480.594 50.345h7.91v7.91h-7.91z"/><text transform="translate(460.786 65.199)" fill="#4E4E4E" font-size="6.811">40.9% #5</text><text transform="translate(470.248 56.763)" fill="#4E4E4E" class="heavy" font-size="6.811">CT</text><path id="njrect" fill="#CEC467" stroke="#fff" d="M480.594 68.508h7.91v7.91h-7.91z"/><text transform="translate(460.786 83.361)" fill="#4E4E4E" font-size="6.811">40.9% #5</text><text transform="translate(471.153 74.898)" fill="#4E4E4E" class="heavy" font-size="6.811">NJ</text><path id="derect" fill="#C9C46B" stroke="#fff" d="M480.594 86.67h7.91v7.91h-7.91z"/><text transform="translate(456.835 101.523)" fill="#4E4E4E" font-size="6.811">40.7% #10</text><text transform="translate(470.081 93.087)" fill="#4E4E4E" class="heavy" font-size="6.811">DE</text><path id="mdrect" fill="#C1C272" stroke="#fff" d="M480.594 104.833h7.91v7.91h-7.91z"/><text transform="translate(456.835 119.686)" fill="#4E4E4E" font-size="6.811">40.4% #13</text><text transform="translate(467.577 111.249)" fill="#4E4E4E" class="heavy" font-size="6.811">MD</text><path id="dcrect" fill="#DBC55F" stroke="#fff" d="M480.594 122.996h7.91v7.91h-7.91z"/><text transform="translate(431.575 137.847)" fill="#4E4E4E" font-size="6.811">41.5% (Not ranked)</text><text transform="translate(469.284 129.412)" fill="#4E4E4E" class="heavy" font-size="6.811">DC</text><path id="vtrect" fill="#C3C370" stroke="#fff" d="M353.108 12.734h7.91v7.91h-7.91z"/><text transform="translate(329.377 26.604)" fill="#4E4E4E" font-size="6.811">40.5% #11</text><text transform="translate(342.842 19.868)" fill="#4E4E4E" class="heavy" font-size="6.811">VT</text><path id="nhrect" fill="#C3C370" stroke="#fff" d="M393.973 12.734h7.91v7.91h-7.91z"/><text transform="translate(370.243 26.604)" fill="#4E4E4E" font-size="6.811">40.5% #11</text><text transform="translate(382.465 19.868)" fill="#4E4E4E" class="heavy" font-size="6.811">NH</text><text transform="translate(391.902 206.209)" fill="#4E4E4E" font-size="8">Combined Federal and Top State</text><text transform="translate(414.322 215.425)" fill="#4E4E4E" font-size="8">Corporate Tax Rates</text><path id="dcrect-1" fill="#2CABE0" d="M394.418 221.515h8.09v11.573h-8.09z"/><path id="dcrect-1-7" fill="#60B3B9" d="M404.774 221.515h8.088v11.573h-8.088z"/><path id="dcrect-1-4" fill="#79B8A9" d="M415.125 221.515h8.09v11.573h-8.09z"/><path id="dcrect-1-0" fill="#85B99F" d="M425.48 221.515h8.09v11.573h-8.09z"/><path id="dcrect-1-7-9" fill="#91BB96" d="M435.833 221.515h8.09v11.573h-8.09z"/><path id="dcrect-1-4-4" fill="#A7BF86" d="M446.187 221.515h8.09v11.573h-8.09z"/><path id="dcrect-1-8" fill="#B7C17A" d="M456.542 221.515h8.088v11.573h-8.088z"/><path id="dcrect-1-7-8" fill="#C9C46B" d="M466.894 221.515h8.09v11.573h-8.09z"/><path id="dcrect-1-4-2" fill="#CEC467" d="M477.25 221.515h8.09v11.573h-8.09z"/><path id="dcrect-1-45" fill="#D6C562" d="M487.602 221.515h8.09v11.573h-8.09z"/><path id="dcrect-1-7-5" fill="#DBC55F" d="M497.956 221.515h8.09v11.573h-8.09z"/><g id="g4238" fill="#4E4E4E" font-size="5.772"><text transform="translate(4.179 -20.181) translate(385.86 261.013)">Lower</text><text transform="translate(4.179 -20.181) translate(387.868 268.228)">Rate</text><text transform="translate(4.179 -20.181) translate(488.444 260.568)">Higher</text><text transform="translate(4.179 -20.181) translate(491.208 267.783)">Rate</text></g></svg>