<svg xmlns="http://www.w3.org/2000/svg" width="561" height="252" viewBox="0 0 561 252"><path fill="none" stroke="#D8D8D7" stroke-width=".5" stroke-linejoin="round" stroke-miterlimit="10" d="M34.926 60.387h524.852"/><path fill="#6D6E71" d="M406.262 72.188l-.717-.006.008-1 .717.006-.008 1zm-1.717-.014l-1-.008.008-1 1 .008-.008 1zm-2-.015l-1-.01.008-1 1 .01-.008 1zm-2-.017l-1-.008.008-1 1 .008-.008 1zm-2-.016l-1-.008.008-1 1 .007-.008 1zm-2-.015l-1-.008.008-1 1 .008-.008 1zm-2-.016l-1-.008.008-1 1 .008-.008 1zm-2-.015l-1-.007.01-1 1 .008-.01 1zm-2-.015l-1-.008.01-1 1 .008-.01 1zm-2-.016l-1-.01.01-1 1 .01-.01 1zm-2-.017l-1-.008.01-1 1 .008-.01 1zm-2-.015l-1-.008.01-1 1 .008-.01 1zm-2-.016l-1-.008.01-1 1 .008-.01 1zm-2-.016l-1-.008.01-1 1 .008-.01 1zm-2-.015l-1-.007.01-1 1 .008-.01 1zM406.793 71.976l-.463-.886.886-.463.463.886-.887.463zm1.772-.926l-.463-.887.886-.463.463.887-.885.463zm1.773-.926l-.463-.887.887-.463.463.887-.887.464zm1.772-.926l-.463-.887.887-.462.463.887-.887.463zm1.773-.926l-.463-.887.887-.463.463.887-.887.462zm1.772-.926l-.463-.887.887-.464.462.887-.887.463zm1.774-.927l-.464-.888.886-.463.463.886-.886.463zm1.77-.927l-.462-.887.886-.463.463.887-.886.463zm1.774-.926l-.463-.887.888-.463.463.887-.886.463zm1.772-.926l-.463-.886.887-.463.463.888-.887.463zm1.773-.925l-.464-.887.887-.463.463.887-.887.463zm1.772-.926l-.463-.888.885-.463.463.886-.886.463zm1.772-.928l-.463-.887.887-.463.463.887-.886.462zm1.773-.926l-.463-.886.886-.463.463.886-.886.463zm1.772-.926l-.464-.887.887-.463.463.887-.887.463zm1.772-.926l-.463-.887.886-.463.463.887-.888.464zm1.772-.926l-.463-.887.888-.462.463.887-.886.463z"/><path fill="none" stroke="#D8D8D7" stroke-width=".5" stroke-linejoin="round" stroke-miterlimit="10" d="M34.926 207.628h524.852M34.926 183.112h524.852M34.926 158.523h524.852M34.926 134.008h524.852M34.926 109.492h524.852M34.926 84.902h524.852M34.926 35.87h524.852M34.926 11.355h524.852"/><path fill="none" stroke="#99999A" stroke-width=".5" stroke-linejoin="round" stroke-miterlimit="10" d="M34.926 232.144h524.852M34.926 229.936v4.578M107.777 229.854v4.58M180.73 229.854v4.58M253.58 229.854v4.58M326.534 229.854v4.58M399.385 229.854v4.58M472.338 229.854v4.58M545.188 229.854v4.58"/><path fill="#009688" d="M100.533 138.483c-.063 0-.126-.006-.188-.017l-14.59-2.584c-.193-.034-.372-.12-.52-.247l-14.41-12.47-14.222-4.103-14.443-.146c-.597-.006-1.075-.495-1.07-1.09.007-.594.49-1.07 1.08-1.07h.012l14.59.148c.1 0 .196.015.29.042l14.59 4.21c.15.042.29.118.407.22l14.365 12.432 14.17 2.51 14.33-.943 14.362-4.538 14.572-4.13 14.54-5.667 14.588-5.758c.096-.038.196-.062.298-.07l14.45-1.316 14.457-5.34c.243-.09.51-.09.753 0l14.16 5.304 14.178-6.744c.198-.095.42-.126.637-.09l28.695 4.646 14.11-11.794c.032-.027.066-.053.102-.076l14.59-9.526c.084-.055.175-.098.27-.127l14.592-4.505c.15-.046.308-.06.464-.038l14.592 1.993 14.513 2.276 14.094-.428L362.24 76.64c.093-.08.198-.147.313-.194l14.59-5.98c.55-.227 1.183.036 1.41.59.226.55-.038 1.182-.59 1.408l-14.42 5.91-14.45 12.945c-.19.17-.435.267-.69.274l-14.59.443c-.07.002-.134-.002-.2-.013l-14.59-2.29-14.334-1.957-14.22 4.39-14.41 9.407-14.438 12.07c-.24.2-.556.284-.866.236l-28.85-4.672-14.286 6.796c-.264.126-.567.14-.843.036l-14.213-5.323-14.215 5.25c-.09.034-.183.055-.277.064l-14.437 1.315-14.447 5.703-14.595 5.687c-.032.013-.064.023-.098.033l-14.59 4.136-14.458 4.568c-.084.025-.17.042-.255.048l-14.59.96-.072.003z"/><path fill="none" stroke="#009688" stroke-width="2.16" stroke-linecap="round" stroke-linejoin="round" stroke-miterlimit="10" d="M435.81 56.25l14.59-12.478 14.59-3.544 14.59-8.862 14.592 10.707 14.592 8.344 14.59 10.117 14.59 3.987 14.59 1.847"/><path fill="none" stroke="#E81F63" stroke-width="2.16" stroke-linecap="round" stroke-linejoin="round" stroke-miterlimit="10" d="M42.17 129.43l14.59 1.107 14.59 5.907 14.592 9.378 14.59 4.43 14.592-1.33 14.487-2.288 14.592-3.912 14.59-3.177 14.59-2.215 14.592-2.363 14.59-2.584 14.59.96 14.592.738 14.59-.516 14.59-4.947 14.49-3.62 14.59-1.77 14.59.442 14.592.295 14.59-.665 14.59-1.255 14.59-1.994 14.592 2.585 14.592 1.477 14.59-1.993 14.59-4.506 14.488-3.175 14.59-.592 14.59-5.17 14.59-2.583 14.592 2.067 14.592 1.846 14.59-.664 14.59-5.243 14.59 1.7"/><g fill="#4E4E4E"><path d="M6.136 15.497c-.403-.036-.77-.132-1.103-.29-.332-.157-.618-.358-.857-.6l.27-.4c.027-.036.06-.065.1-.087.04-.023.083-.034.13-.034.063 0 .135.03.215.092s.18.132.296.212c.117.08.256.156.417.23s.356.126.583.152l.185-2.583c-.232-.07-.46-.147-.687-.232s-.427-.198-.605-.335c-.178-.14-.322-.313-.43-.523-.108-.21-.163-.47-.163-.786 0-.237.048-.468.143-.693.095-.224.234-.425.417-.6.184-.175.408-.318.675-.43.267-.112.57-.174.915-.188l.05-.7c.004-.062.028-.117.073-.166.045-.048.104-.073.178-.073h.33l-.07.963c.35.042.653.13.908.263s.48.292.678.48l-.217.322c-.066.097-.143.146-.23.146-.047 0-.104-.02-.172-.06l-.245-.142c-.095-.053-.207-.107-.335-.16-.128-.054-.274-.092-.437-.115l-.166 2.356c.24.072.477.15.71.234s.443.193.63.326.338.3.453.5c.115.198.172.447.172.746 0 .292-.05.566-.15.822-.1.256-.246.482-.438.676-.19.195-.427.353-.705.475s-.596.192-.952.212l-.06.856c-.003.062-.028.116-.075.163-.046.047-.105.07-.175.07h-.33l.076-1.1zm-.81-5.27c0 .156.028.29.085.406s.136.216.236.304c.1.087.217.164.35.23s.278.122.435.174l.15-2.193c-.216.02-.404.06-.562.126s-.29.146-.39.243-.177.207-.228.33c-.05.12-.074.248-.074.38zm2.775 3.23c0-.16-.03-.3-.092-.417-.062-.117-.146-.217-.252-.3-.106-.085-.23-.16-.375-.22-.142-.062-.295-.118-.46-.17l-.17 2.423c.22-.02.415-.066.58-.14.168-.072.31-.166.423-.28.115-.113.202-.245.26-.395.058-.152.088-.32.088-.5zM12.98 12.66c.073-.094.142-.183.205-.268.063-.084.123-.168.18-.253-.183.142-.39.25-.62.325-.23.074-.473.112-.73.112-.27 0-.526-.044-.767-.13-.242-.09-.455-.218-.638-.388-.184-.17-.33-.38-.438-.628s-.163-.533-.163-.854c0-.305.058-.59.174-.856.116-.266.28-.498.49-.696.21-.198.46-.354.75-.467.29-.115.608-.17.955-.17.342 0 .654.054.934.165.28.11.52.264.72.462.2.198.354.435.463.71.108.276.162.58.162.915 0 .2-.02.392-.058.572-.04.18-.094.356-.165.53-.072.173-.16.345-.263.516s-.22.345-.35.523l-1.745 2.452c-.044.062-.106.11-.186.148-.08.038-.172.056-.275.056h-.82l2.18-2.78zm.825-2.122c0-.217-.036-.414-.107-.59s-.17-.328-.297-.45c-.126-.124-.276-.22-.452-.286-.175-.066-.367-.1-.578-.1-.22 0-.42.035-.6.104-.18.07-.335.167-.465.29-.13.124-.23.27-.3.443s-.105.36-.105.564c0 .22.032.417.098.59.065.175.158.322.28.44.122.12.27.212.445.273.175.062.37.093.588.093.24 0 .453-.038.638-.115.185-.076.34-.177.468-.304.126-.125.223-.27.29-.437.066-.164.1-.336.1-.515zM20.785 11.954c0 .61-.067 1.138-.203 1.584-.135.446-.32.815-.552 1.107-.233.292-.51.51-.828.652s-.66.214-1.022.214c-.367 0-.708-.07-1.022-.213s-.59-.36-.823-.652-.417-.66-.55-1.107c-.133-.446-.2-.974-.2-1.584s.067-1.14.2-1.586c.133-.448.316-.818.55-1.112s.508-.512.823-.654c.315-.143.656-.214 1.022-.214.363 0 .704.07 1.022.214.318.143.594.36.828.654.233.293.417.664.552 1.112.136.447.203.976.203 1.586zm-.925 0c0-.532-.046-.98-.138-1.34s-.215-.653-.37-.874c-.155-.22-.334-.378-.538-.474-.202-.096-.414-.143-.634-.143s-.432.048-.635.144c-.203.095-.38.253-.535.473-.153.22-.276.512-.368.874s-.137.81-.137 1.34c0 .532.045.978.137 1.338.092.36.214.65.368.87.153.222.332.38.535.476.204.096.415.144.635.144s.432-.048.635-.144c.204-.096.383-.254.538-.475.155-.22.278-.51.37-.87.09-.36.137-.807.137-1.34zM26.585 11.954c0 .61-.067 1.138-.203 1.584-.135.446-.32.815-.552 1.107-.233.292-.51.51-.828.652s-.66.214-1.022.214c-.367 0-.708-.07-1.022-.213s-.59-.36-.823-.652-.417-.66-.55-1.107c-.133-.446-.2-.974-.2-1.584s.067-1.14.2-1.586c.133-.448.316-.818.55-1.112s.508-.512.823-.654c.315-.143.656-.214 1.022-.214.363 0 .704.07 1.022.214.318.143.594.36.828.654.233.293.417.664.552 1.112.136.447.203.976.203 1.586zm-.925 0c0-.532-.046-.98-.138-1.34s-.215-.653-.37-.874c-.155-.22-.334-.378-.538-.474-.202-.096-.414-.143-.634-.143s-.432.048-.635.144c-.203.095-.382.253-.535.473-.153.22-.276.512-.368.874s-.137.81-.137 1.34c0 .532.045.978.137 1.338.092.36.214.65.368.87.153.222.332.38.535.476.204.096.415.144.635.144s.432-.048.635-.144c.204-.096.383-.254.538-.475.155-.22.278-.51.37-.87.09-.36.137-.807.137-1.34z"/></g><g fill="#4E4E4E"><path d="M6.135 39.968c-.403-.036-.77-.132-1.103-.29-.332-.157-.618-.358-.857-.6l.27-.4c.027-.036.06-.065.1-.087.04-.022.083-.033.13-.033.063 0 .135.03.215.092s.178.13.295.21c.117.08.256.157.417.232s.356.125.583.15l.185-2.582c-.233-.068-.462-.146-.688-.23s-.427-.2-.605-.336c-.178-.138-.322-.312-.43-.52-.108-.21-.163-.472-.163-.787 0-.237.048-.468.143-.693.095-.226.234-.426.417-.6.184-.176.408-.32.675-.43.266-.113.57-.175.914-.19l.05-.7c.003-.062.027-.117.072-.166.045-.048.104-.073.178-.073h.33l-.07.963c.35.042.653.13.908.263s.48.294.678.482l-.215.32c-.066.098-.143.147-.23.147-.047 0-.104-.02-.172-.062-.068-.04-.15-.087-.245-.14-.095-.054-.207-.108-.335-.16-.128-.055-.274-.093-.438-.116l-.165 2.356c.24.072.477.15.71.234s.443.193.63.326.338.3.453.5c.115.198.172.447.172.746 0 .292-.05.566-.15.822-.1.256-.246.482-.438.676-.19.195-.427.353-.705.475s-.595.19-.952.21l-.06.857c-.003.062-.028.116-.075.163-.046.047-.105.07-.175.07h-.33l.075-1.1zm-.81-5.27c0 .157.028.292.085.407s.135.216.235.304c.1.086.217.163.35.228s.278.123.435.175l.15-2.194c-.217.018-.404.06-.563.125s-.29.146-.39.243-.177.207-.227.33c-.05.12-.075.247-.075.38zM8.1 37.93c0-.16-.03-.3-.093-.417-.062-.116-.146-.216-.252-.3-.106-.084-.23-.158-.375-.22-.143-.06-.296-.117-.46-.17l-.17 2.424c.22-.02.414-.066.58-.14.167-.072.308-.166.422-.28.115-.113.202-.245.26-.395.06-.153.088-.32.088-.5zM12.385 39.987c-.356 0-.683-.046-.98-.14-.297-.09-.552-.223-.765-.395-.213-.172-.378-.38-.495-.625s-.175-.52-.175-.825c0-.448.12-.817.36-1.107.24-.29.583-.497 1.03-.62-.377-.137-.66-.34-.853-.61s-.288-.596-.288-.972c0-.256.05-.497.154-.72.103-.224.25-.418.44-.584s.417-.296.683-.39c.265-.094.56-.14.887-.14.323 0 .618.046.885.14.266.094.494.224.684.39.19.165.336.36.44.583.103.224.155.464.155.72 0 .376-.098.7-.29.97s-.478.475-.85.61c.446.125.79.33 1.03.622.24.29.36.66.36 1.107 0 .305-.06.58-.178.825-.12.245-.284.453-.495.625-.212.172-.466.304-.763.396-.296.093-.622.14-.98.14zm0-.69c.233 0 .442-.032.627-.096.185-.062.342-.15.47-.267s.227-.253.295-.414.103-.34.103-.534c0-.24-.04-.445-.123-.616-.082-.17-.192-.31-.33-.416-.138-.107-.297-.186-.478-.236-.18-.05-.37-.075-.566-.075s-.384.027-.564.077-.34.13-.478.236c-.138.107-.248.246-.33.416-.082.17-.123.375-.123.616 0 .195.033.372.102.533s.167.3.295.415c.128.115.285.205.47.268.185.062.394.093.628.093zm0-3.348c.233 0 .433-.036.598-.106.165-.07.3-.162.402-.277.104-.115.178-.247.225-.396.046-.148.07-.302.07-.46 0-.163-.027-.316-.083-.46-.055-.142-.137-.267-.245-.374-.108-.107-.244-.19-.405-.253-.162-.062-.35-.093-.563-.093s-.4.03-.563.093c-.16.062-.295.146-.404.253-.108.107-.19.232-.245.375s-.082.296-.082.46c0 .158.023.312.07.46.047.15.122.283.225.397.104.115.238.208.403.277.166.07.365.105.6.105zM20.785 36.426c0 .61-.067 1.138-.203 1.584-.135.446-.32.815-.552 1.107-.233.292-.51.51-.828.652s-.66.213-1.022.213c-.367 0-.708-.07-1.022-.214s-.59-.36-.823-.653-.417-.66-.55-1.107c-.133-.446-.2-.974-.2-1.584s.067-1.14.2-1.586c.133-.448.316-.818.55-1.112s.508-.512.823-.654c.315-.143.656-.214 1.022-.214.363 0 .704.07 1.022.214.318.143.594.36.828.654.233.293.417.664.552 1.112.135.447.203.976.203 1.586zm-.925 0c0-.532-.046-.98-.138-1.34s-.215-.653-.37-.874c-.155-.22-.334-.378-.538-.474-.203-.096-.415-.144-.635-.144s-.433.048-.636.144c-.203.096-.38.254-.535.474-.154.22-.277.512-.37.874s-.136.81-.136 1.34c0 .532.045.978.137 1.338.093.36.215.65.37.87.152.222.33.38.534.476.204.096.415.144.635.144s.43-.048.634-.144c.204-.096.383-.254.538-.475.155-.22.278-.51.37-.87.092-.36.138-.807.138-1.34zM26.584 36.426c0 .61-.067 1.138-.203 1.584-.134.446-.318.815-.55 1.107-.234.292-.51.51-.83.652s-.658.213-1.02.213c-.368 0-.71-.07-1.023-.214s-.59-.36-.823-.653-.417-.66-.55-1.107c-.133-.446-.2-.974-.2-1.584s.067-1.14.2-1.586c.133-.448.316-.818.55-1.112s.508-.512.823-.654c.315-.143.656-.214 1.022-.214.362 0 .703.07 1.02.214.32.143.595.36.83.654.232.293.416.664.55 1.112.137.447.204.976.204 1.586zm-.924 0c0-.532-.046-.98-.138-1.34s-.215-.653-.37-.874c-.155-.22-.334-.378-.538-.474-.203-.096-.415-.144-.635-.144s-.433.048-.636.144c-.203.096-.38.254-.535.474-.154.22-.277.512-.37.874s-.136.81-.136 1.34c0 .532.045.978.137 1.338.093.36.215.65.37.87.152.222.33.38.534.476.204.096.415.144.635.144s.43-.048.634-.144c.204-.096.383-.254.538-.475.155-.22.278-.51.37-.87.092-.36.138-.807.138-1.34z"/></g><g fill="#4E4E4E"><path d="M6.136 64.44c-.403-.036-.77-.132-1.103-.29-.332-.157-.618-.358-.857-.6l.27-.4c.027-.036.06-.065.1-.087.04-.023.083-.034.13-.034.063 0 .135.03.215.09s.18.133.296.213c.117.08.256.156.417.23s.356.126.583.152l.185-2.583c-.232-.068-.46-.146-.687-.23s-.427-.2-.605-.336c-.178-.138-.322-.312-.43-.52-.108-.21-.163-.472-.163-.787 0-.238.048-.47.143-.694.095-.226.234-.426.417-.6.184-.176.408-.32.675-.43.267-.113.57-.175.915-.19l.05-.7c.003-.062.027-.117.072-.166.045-.048.104-.073.178-.073h.33l-.07.963c.35.042.653.13.908.263s.48.293.678.48l-.214.322c-.066.097-.143.146-.23.146-.047 0-.104-.02-.172-.06-.068-.04-.15-.087-.245-.14-.096-.054-.208-.108-.336-.16-.128-.055-.274-.093-.438-.116L6.98 60.46c.24.07.477.148.71.233s.443.193.63.326c.187.132.338.298.453.498.115.2.172.448.172.747 0 .292-.05.566-.15.822-.1.256-.246.482-.438.676-.19.195-.427.353-.705.475s-.595.192-.95.212l-.06.856c-.004.062-.03.116-.076.163-.047.046-.106.07-.175.07h-.33l.076-1.1zm-.81-5.27c0 .156.028.29.085.406s.136.216.236.304c.1.087.217.164.35.23s.278.122.435.174l.15-2.194c-.216.02-.403.062-.562.126s-.29.146-.39.243-.177.207-.228.33c-.05.12-.074.247-.074.38zM8.1 62.4c0-.16-.03-.3-.092-.417-.062-.117-.146-.217-.252-.3-.106-.085-.23-.16-.375-.22-.142-.062-.295-.118-.46-.17l-.17 2.423c.22-.02.415-.066.58-.14.168-.072.31-.166.423-.28.115-.113.202-.245.26-.395.058-.15.088-.317.088-.5zM14.89 57.41v.388c0 .11-.012.2-.037.272-.025.07-.05.13-.073.18l-2.97 5.824c-.043.084-.104.157-.18.217s-.178.09-.305.09h-.64l3.01-5.75c.043-.08.087-.156.132-.224.045-.068.096-.133.153-.194h-3.74c-.057 0-.106-.022-.15-.066s-.065-.093-.065-.148v-.588h4.865zM20.785 60.897c0 .61-.067 1.138-.203 1.584-.135.447-.32.816-.552 1.108-.233.292-.51.51-.828.652s-.66.214-1.022.214c-.367 0-.708-.07-1.022-.214s-.59-.36-.823-.652-.417-.66-.55-1.107c-.133-.445-.2-.973-.2-1.583s.067-1.14.2-1.586c.133-.447.316-.817.55-1.11s.508-.513.823-.655c.315-.143.656-.214 1.022-.214.363 0 .704.072 1.022.215.318.143.594.36.828.654.233.292.417.663.552 1.11.136.45.203.978.203 1.587zm-.925 0c0-.532-.046-.98-.138-1.34s-.215-.653-.37-.874c-.155-.22-.334-.378-.538-.474-.203-.097-.415-.145-.635-.145s-.433.048-.636.144c-.203.095-.38.253-.535.473-.154.22-.277.512-.37.874s-.136.81-.136 1.34c0 .532.045.978.137 1.338.093.36.215.65.37.87.152.222.33.38.534.476.204.097.415.145.635.145s.43-.048.634-.144c.204-.095.383-.253.538-.474.155-.22.278-.51.37-.87.092-.36.138-.806.138-1.34zM26.585 60.897c0 .61-.067 1.138-.203 1.584-.135.447-.32.816-.552 1.108-.233.292-.51.51-.828.652s-.66.214-1.022.214c-.367 0-.708-.07-1.022-.214s-.59-.36-.823-.652-.417-.66-.55-1.107c-.133-.445-.2-.973-.2-1.583s.067-1.14.2-1.586c.133-.447.316-.817.55-1.11s.508-.513.823-.655c.315-.143.656-.214 1.022-.214.363 0 .704.072 1.022.215.318.143.594.36.828.654.233.292.417.663.552 1.11.136.45.203.978.203 1.587zm-.925 0c0-.532-.046-.98-.138-1.34s-.215-.653-.37-.874c-.155-.22-.334-.378-.538-.474-.203-.097-.415-.145-.635-.145s-.433.048-.636.144c-.203.095-.38.253-.535.473-.154.22-.277.512-.37.874s-.136.81-.136 1.34c0 .532.045.978.137 1.338.093.36.215.65.37.87.152.222.33.38.534.476.204.097.415.145.635.145s.43-.048.634-.144c.204-.095.383-.253.538-.474.155-.22.278-.51.37-.87.092-.36.138-.806.138-1.34z"/></g><g fill="#4E4E4E"><path d="M6.135 88.912c-.403-.036-.77-.132-1.103-.29-.332-.157-.618-.358-.857-.6l.27-.4c.027-.036.06-.065.1-.087.04-.023.083-.034.13-.034.063 0 .135.032.215.093s.178.132.295.212c.117.08.256.156.417.23s.356.126.583.152l.185-2.583c-.233-.068-.462-.146-.688-.23s-.427-.2-.605-.336c-.178-.138-.322-.312-.43-.52-.108-.21-.163-.472-.163-.787 0-.236.048-.467.143-.692.095-.226.234-.426.417-.6.184-.176.408-.32.675-.43.266-.113.57-.175.914-.19l.05-.7c.004-.063.028-.118.073-.167.045-.047.104-.072.178-.072h.33l-.07.963c.35.043.653.13.908.264s.48.293.678.48l-.214.322c-.066.097-.143.146-.23.146-.047 0-.104-.02-.172-.06-.068-.042-.15-.088-.245-.142-.096-.053-.208-.107-.336-.16-.128-.054-.274-.092-.438-.115L6.98 84.93c.24.073.477.15.71.235s.443.193.63.326c.187.134.338.3.453.5.115.2.172.448.172.747 0 .292-.05.566-.15.822-.1.255-.246.48-.438.675-.19.195-.427.353-.705.475s-.595.192-.952.21l-.06.857c-.003.062-.028.116-.075.163-.046.047-.105.07-.175.07h-.33l.075-1.098zm-.81-5.27c0 .156.028.29.085.406s.135.216.235.304c.1.087.217.164.35.23s.278.122.435.174l.15-2.194c-.217.02-.404.062-.563.126s-.29.146-.39.243-.177.208-.227.33c-.05.122-.075.25-.075.382zm2.775 3.23c0-.16-.03-.3-.093-.417-.062-.117-.146-.217-.252-.3-.106-.085-.23-.16-.375-.22-.143-.062-.296-.118-.46-.17l-.17 2.423c.22-.02.414-.066.58-.14.167-.072.308-.166.422-.28.115-.113.202-.245.26-.395.06-.152.088-.32.088-.5zM11.855 84.494c-.067.078-.128.154-.185.23s-.113.146-.17.218c.17-.113.357-.202.563-.265.205-.063.427-.095.667-.095.29 0 .563.046.82.14s.48.226.672.403c.192.177.344.394.458.652s.17.552.17.883c0 .32-.06.62-.18.895-.12.276-.288.516-.502.72-.215.205-.474.365-.775.482-.302.117-.634.175-.998.175-.36 0-.687-.056-.98-.167-.293-.112-.542-.27-.748-.477s-.363-.456-.475-.75c-.112-.293-.167-.62-.167-.984 0-.305.07-.63.208-.976.138-.346.36-.714.663-1.107l1.82-2.378c.047-.06.11-.108.192-.148s.176-.06.283-.06h.79l-2.125 2.61zm-.975 2.21c0 .223.033.427.1.612.066.185.164.344.292.477.128.133.285.236.47.31.185.072.396.11.633.11.24 0 .458-.04.652-.113.195-.074.362-.178.5-.31.138-.134.245-.292.32-.473.075-.182.113-.38.113-.594 0-.227-.037-.432-.11-.615-.073-.183-.177-.34-.312-.467s-.296-.225-.483-.293c-.187-.068-.392-.102-.615-.102-.24 0-.457.04-.65.12-.193.08-.358.186-.493.32s-.238.29-.31.467-.107.36-.107.55zM20.785 85.37c0 .61-.067 1.137-.203 1.583-.135.446-.32.815-.552 1.107-.233.292-.51.51-.828.652s-.66.214-1.022.214c-.367 0-.708-.07-1.022-.214s-.59-.36-.823-.652-.417-.66-.55-1.107c-.133-.446-.2-.974-.2-1.584s.067-1.14.2-1.587c.133-.448.316-.818.55-1.112s.508-.51.823-.653c.315-.143.656-.214 1.022-.214.363 0 .704.07 1.022.214.318.143.594.36.828.654.233.294.417.665.552 1.113.135.447.203.976.203 1.586zm-.925 0c0-.533-.046-.98-.138-1.34s-.215-.654-.37-.875c-.155-.22-.334-.378-.538-.474-.203-.095-.415-.143-.635-.143s-.433.048-.636.144c-.203.097-.38.255-.535.475-.154.22-.277.512-.37.874s-.136.808-.136 1.34c0 .53.045.977.137 1.337.093.36.215.65.37.87.152.222.33.38.534.476.204.096.415.144.635.144s.43-.048.634-.144c.204-.096.383-.254.538-.475.155-.22.278-.51.37-.87.092-.36.138-.807.138-1.34zM26.584 85.37c0 .61-.067 1.137-.203 1.583-.134.446-.318.815-.55 1.107-.234.292-.51.51-.83.652s-.658.214-1.02.214c-.368 0-.71-.07-1.023-.214s-.59-.36-.823-.652-.417-.66-.55-1.107c-.133-.446-.2-.974-.2-1.584s.067-1.14.2-1.587c.133-.448.316-.818.55-1.112s.508-.51.823-.653c.315-.143.656-.214 1.022-.214.362 0 .703.07 1.02.214.32.143.595.36.83.654.232.294.416.665.55 1.113.137.447.204.976.204 1.586zm-.924 0c0-.533-.046-.98-.138-1.34s-.215-.654-.37-.875c-.155-.22-.334-.378-.538-.474-.203-.095-.415-.143-.635-.143s-.433.048-.636.144c-.203.097-.38.255-.535.475-.154.22-.277.512-.37.874s-.136.808-.136 1.34c0 .53.045.977.137 1.337.093.36.215.65.37.87.152.222.33.38.534.476.204.096.415.144.635.144s.43-.048.634-.144c.204-.096.383-.254.538-.475.155-.22.278-.51.37-.87.092-.36.138-.807.138-1.34z"/></g><g fill="#4E4E4E"><path d="M6.136 113.383c-.403-.036-.77-.132-1.103-.29-.332-.157-.618-.358-.857-.6l.27-.4c.027-.036.06-.065.1-.087.04-.023.083-.034.13-.034.063 0 .135.03.215.092s.18.132.296.212c.117.08.256.156.417.23s.356.126.583.152l.185-2.583c-.232-.068-.46-.146-.687-.23s-.427-.2-.605-.336c-.178-.14-.322-.313-.43-.522-.108-.21-.163-.47-.163-.786 0-.237.048-.468.143-.693.095-.227.234-.427.417-.602.184-.175.408-.318.675-.43.267-.112.57-.174.915-.188l.05-.7c.003-.063.027-.118.072-.167.045-.048.104-.073.178-.073h.33l-.07.963c.35.042.653.13.908.263s.48.293.678.48l-.214.322c-.066.097-.143.146-.23.146-.047 0-.104-.02-.172-.06-.068-.042-.15-.088-.245-.142-.096-.053-.208-.107-.336-.16-.128-.054-.274-.092-.438-.115l-.165 2.355c.24.072.478.15.71.234s.444.193.63.326c.188.133.34.3.454.5.115.198.172.447.172.746 0 .292-.05.566-.15.822-.1.256-.246.482-.438.676-.19.195-.427.353-.705.475s-.596.193-.952.213l-.06.856c-.002.06-.027.115-.074.162-.046.047-.105.07-.175.07h-.33l.076-1.1zm-.81-5.27c0 .157.028.292.085.407s.136.216.236.304c.1.087.217.164.35.23s.278.122.435.174l.15-2.194c-.216.02-.403.062-.562.126s-.29.146-.39.243-.177.207-.228.33c-.05.12-.074.247-.074.38zm2.775 3.23c0-.16-.03-.3-.092-.417-.062-.117-.146-.217-.252-.3-.106-.085-.23-.16-.375-.22-.142-.062-.295-.118-.46-.17l-.17 2.423c.22-.02.415-.067.58-.14.168-.073.31-.167.423-.28.115-.114.202-.246.26-.396.058-.152.088-.318.088-.5zM14.396 106.732c0 .123-.04.225-.118.304-.078.08-.212.12-.402.12h-2.25l-.33 1.828c.19-.042.37-.072.538-.09.168-.018.333-.027.492-.027.374 0 .704.054.99.16s.526.256.717.444c.192.19.337.41.435.668s.147.535.147.837c0 .37-.066.704-.197 1.002-.132.298-.313.554-.545.766-.232.212-.504.375-.818.49-.313.112-.65.17-1.015.17-.21 0-.412-.02-.605-.062-.193-.04-.375-.094-.542-.162-.168-.068-.324-.146-.468-.233-.143-.088-.27-.18-.38-.277l.275-.37c.06-.084.138-.126.235-.126.067 0 .142.025.225.076s.185.106.305.168c.12.062.26.117.422.167s.354.076.578.076c.25 0 .475-.04.675-.118.2-.078.372-.19.515-.333.143-.145.253-.318.33-.52s.115-.426.115-.675c0-.217-.032-.414-.097-.59-.065-.174-.164-.323-.295-.447-.13-.123-.295-.22-.492-.287-.197-.067-.427-.1-.69-.1-.18 0-.368.014-.563.043-.195.03-.395.076-.598.14l-.56-.16.575-3.26h3.395v.38zM20.785 109.84c0 .61-.067 1.14-.203 1.585-.135.446-.32.815-.552 1.107-.233.292-.51.51-.828.652s-.66.214-1.022.214c-.367 0-.708-.07-1.022-.214s-.59-.36-.823-.652-.417-.66-.55-1.107c-.133-.446-.2-.974-.2-1.584s.067-1.138.2-1.585c.133-.448.316-.818.55-1.112s.508-.512.823-.654c.315-.144.656-.215 1.022-.215.363 0 .704.07 1.022.214.318.142.594.36.828.653.233.293.417.664.552 1.112.136.447.203.976.203 1.586zm-.925 0c0-.53-.046-.978-.138-1.34s-.215-.652-.37-.873c-.155-.22-.334-.378-.538-.474-.203-.096-.415-.144-.635-.144s-.433.047-.636.143c-.203.096-.38.254-.535.474-.154.22-.277.512-.37.874s-.136.81-.136 1.34c0 .533.045.98.137 1.34.093.36.215.65.37.87.152.22.33.38.534.475.204.096.415.144.635.144s.43-.05.634-.145c.204-.096.383-.254.538-.475.155-.22.278-.51.37-.87.092-.36.138-.807.138-1.34zM26.585 109.84c0 .61-.067 1.14-.203 1.585-.135.446-.32.815-.552 1.107-.233.292-.51.51-.828.652s-.66.214-1.022.214c-.367 0-.708-.07-1.022-.214s-.59-.36-.823-.652-.417-.66-.55-1.107c-.133-.446-.2-.974-.2-1.584s.067-1.138.2-1.585c.133-.448.316-.818.55-1.112s.508-.512.823-.654c.315-.144.656-.215 1.022-.215.363 0 .704.07 1.022.214.318.142.594.36.828.653.233.293.417.664.552 1.112.136.447.203.976.203 1.586zm-.925 0c0-.53-.046-.978-.138-1.34s-.215-.652-.37-.873c-.155-.22-.334-.378-.538-.474-.203-.096-.415-.144-.635-.144s-.433.047-.636.143c-.203.096-.38.254-.535.474-.154.22-.277.512-.37.874s-.136.81-.136 1.34c0 .533.045.98.137 1.34.093.36.215.65.37.87.152.22.33.38.534.475.204.096.415.144.635.144s.43-.05.634-.145c.204-.096.383-.254.538-.475.155-.22.278-.51.37-.87.092-.36.138-.807.138-1.34z"/></g><g fill="#4E4E4E"><path d="M6.136 137.854c-.403-.036-.77-.132-1.103-.29-.332-.156-.618-.357-.857-.6l.27-.4c.027-.035.06-.064.1-.087s.083-.034.13-.034c.063 0 .135.03.215.092.08.063.18.133.296.213.117.078.256.156.417.23s.356.125.583.15l.185-2.583c-.232-.068-.46-.146-.687-.23s-.427-.198-.605-.337c-.178-.138-.322-.31-.43-.52-.108-.21-.163-.472-.163-.787 0-.235.048-.466.143-.692.095-.225.234-.426.417-.6.184-.176.408-.32.675-.432.267-.11.57-.174.915-.188l.05-.7c.003-.062.027-.116.072-.165.045-.05.104-.073.178-.073h.33l-.07.964c.35.04.653.13.908.262s.48.294.678.482l-.214.32c-.066.098-.143.146-.23.146-.047 0-.104-.02-.172-.06l-.245-.143c-.096-.053-.208-.105-.336-.16s-.274-.09-.438-.113l-.165 2.354c.24.072.478.15.71.234.234.085.444.193.63.326.188.133.34.3.454.5.115.198.172.447.172.746 0 .29-.05.566-.15.822s-.246.48-.438.676c-.19.195-.427.354-.705.475s-.596.19-.952.21l-.06.857c-.002.06-.027.115-.074.162-.046.046-.105.07-.175.07h-.33l.076-1.096zm-.81-5.27c0 .156.028.292.085.407s.136.217.236.305.217.164.35.23c.133.064.278.122.435.175l.15-2.194c-.216.02-.403.062-.562.126-.158.065-.29.146-.39.244-.102.097-.177.206-.228.328-.05.12-.074.247-.074.38zm2.775 3.23c0-.16-.03-.3-.092-.418-.062-.116-.146-.217-.252-.3-.106-.085-.23-.16-.375-.22-.142-.063-.295-.12-.46-.17l-.17 2.422c.22-.02.415-.065.58-.14.168-.07.31-.165.423-.278.115-.113.202-.246.26-.396.058-.15.088-.317.088-.5zM13.916 135.28H15v.497c0 .05-.016.096-.048.13s-.08.054-.147.054h-.89v1.836h-.78v-1.835h-3.18c-.067 0-.125-.017-.173-.054-.048-.038-.08-.084-.092-.14l-.09-.442 3.485-4.5h.83v4.456zm-.78-2.876c0-.084 0-.176.007-.274.005-.1.016-.2.032-.304l-2.61 3.454h2.57v-2.876zM20.785 134.313c0 .61-.067 1.137-.203 1.584-.135.445-.32.814-.552 1.106-.233.292-.51.51-.828.65s-.66.216-1.022.216c-.367 0-.708-.073-1.022-.216s-.59-.36-.823-.65-.417-.662-.55-1.107c-.133-.447-.2-.975-.2-1.584 0-.61.067-1.14.2-1.586.133-.448.316-.818.55-1.112s.508-.512.823-.654c.315-.143.656-.213 1.022-.213.363 0 .704.07 1.022.214.318.144.594.36.828.655.233.294.417.664.552 1.112.136.447.203.975.203 1.586zm-.925 0c0-.532-.046-.98-.138-1.34s-.215-.654-.37-.875c-.155-.22-.334-.378-.538-.474-.203-.096-.415-.144-.635-.144s-.433.048-.636.144c-.203.096-.38.254-.535.474-.154.22-.277.512-.37.874s-.136.81-.136 1.34c0 .532.045.98.137 1.34.093.358.215.65.37.87s.33.38.534.475c.204.096.415.143.635.143s.43-.047.634-.143c.204-.096.383-.254.538-.475.155-.22.278-.512.37-.87.092-.362.138-.808.138-1.34zM26.585 134.313c0 .61-.067 1.137-.203 1.584-.135.445-.32.814-.552 1.106-.233.292-.51.51-.828.65s-.66.216-1.022.216c-.367 0-.708-.073-1.022-.216s-.59-.36-.823-.65-.417-.662-.55-1.107c-.133-.447-.2-.975-.2-1.584 0-.61.067-1.14.2-1.586.133-.448.316-.818.55-1.112s.508-.512.823-.654c.315-.143.656-.213 1.022-.213.363 0 .704.07 1.022.214.318.144.594.36.828.655.233.294.417.664.552 1.112.136.447.203.975.203 1.586zm-.925 0c0-.532-.046-.98-.138-1.34s-.215-.654-.37-.875c-.155-.22-.334-.378-.538-.474-.203-.096-.415-.144-.635-.144s-.433.048-.636.144c-.203.096-.38.254-.535.474-.154.22-.277.512-.37.874s-.136.81-.136 1.34c0 .532.045.98.137 1.34.093.358.215.65.37.87s.33.38.534.475c.204.096.415.143.635.143s.43-.047.634-.143c.204-.096.383-.254.538-.475.155-.22.278-.512.37-.87.092-.362.138-.808.138-1.34z"/></g><g fill="#4E4E4E"><path d="M6.136 162.326c-.403-.037-.77-.133-1.103-.29-.332-.157-.618-.358-.857-.6l.27-.4c.027-.036.06-.065.1-.087.04-.024.083-.036.13-.036.063 0 .135.03.215.093s.18.132.296.212c.117.078.256.155.417.23.162.074.356.124.583.15l.185-2.583c-.232-.068-.46-.146-.687-.232s-.427-.197-.605-.335-.322-.312-.43-.52-.163-.472-.163-.787c0-.237.048-.468.143-.693.095-.226.234-.426.417-.6.184-.177.408-.32.675-.432.267-.112.57-.175.915-.188l.05-.7c.003-.063.027-.117.072-.166.045-.05.104-.072.178-.072h.33l-.07.963c.35.042.653.13.908.263s.48.294.678.48l-.214.322c-.066.097-.143.146-.23.146-.047 0-.104-.02-.172-.06s-.15-.09-.245-.142c-.096-.054-.208-.107-.336-.16-.128-.055-.274-.092-.438-.115l-.165 2.354c.24.07.478.148.71.233s.444.192.63.325c.188.134.34.3.454.5.115.2.172.447.172.746 0 .292-.05.566-.15.822s-.246.482-.438.676c-.19.195-.427.354-.705.475-.278.123-.596.194-.952.214l-.06.855c-.002.06-.027.115-.074.162-.046.047-.105.07-.175.07h-.33l.076-1.096zm-.81-5.27c0 .156.028.292.085.407s.136.216.236.304c.1.087.217.163.35.23s.278.122.435.174l.15-2.192c-.216.02-.403.06-.562.126s-.29.146-.39.243-.177.207-.228.328c-.05.12-.074.248-.074.382zm2.775 3.23c0-.16-.03-.3-.092-.418-.062-.116-.146-.218-.252-.302-.106-.084-.23-.157-.375-.22-.142-.06-.295-.117-.46-.17l-.17 2.424c.22-.02.415-.065.58-.14s.31-.166.423-.28c.115-.112.202-.244.26-.395.058-.15.088-.316.088-.498zM12.476 155.217c.303 0 .583.042.84.127.256.084.478.204.663.36.184.155.328.343.43.563.105.22.156.466.156.734 0 .222-.03.42-.087.593-.06.174-.143.326-.25.457-.11.132-.24.242-.394.334-.153.09-.325.164-.515.22.468.118.818.32 1.054.603.235.28.352.635.352 1.06 0 .32-.063.61-.188.866-.125.257-.295.475-.512.654-.217.18-.47.318-.757.414-.29.097-.6.145-.93.145-.38 0-.704-.046-.974-.14s-.498-.22-.685-.38c-.186-.163-.34-.355-.46-.577-.12-.223-.22-.463-.304-.723l.385-.156c.1-.043.2-.054.293-.034.095.02.164.072.208.16.044.09.1.2.164.326s.154.248.268.365c.113.116.257.215.433.297.175.08.397.12.667.12.25 0 .47-.038.657-.118s.344-.183.47-.31c.124-.126.218-.267.28-.423s.096-.31.096-.463c0-.188-.025-.36-.075-.516-.05-.155-.142-.29-.28-.403-.136-.112-.323-.2-.562-.267s-.544-.097-.917-.097v-.63c.308 0 .568-.034.783-.096.215-.062.39-.146.525-.253.135-.107.233-.235.295-.385.062-.148.092-.314.092-.496 0-.2-.033-.376-.098-.525s-.154-.27-.267-.368c-.114-.098-.248-.17-.403-.22-.155-.048-.322-.073-.502-.073s-.348.025-.502.077-.292.124-.41.217c-.118.092-.217.2-.297.328s-.137.266-.17.418c-.043.114-.098.19-.163.227s-.16.05-.282.03l-.464-.076c.047-.316.137-.598.27-.844.133-.244.303-.45.508-.615.205-.164.44-.29.705-.376.263-.084.548-.127.856-.127zM20.785 158.783c0 .61-.067 1.138-.203 1.584-.135.445-.32.814-.552 1.107-.233.29-.51.51-.828.65s-.66.215-1.022.215c-.367 0-.708-.072-1.022-.215s-.59-.36-.823-.65c-.233-.294-.417-.663-.55-1.108-.133-.446-.2-.975-.2-1.584s.067-1.14.2-1.586.316-.818.55-1.11c.233-.295.508-.513.823-.655.315-.144.656-.215 1.022-.215.363 0 .704.07 1.022.215.318.143.594.36.828.654.233.293.417.664.552 1.11.136.45.203.978.203 1.587zm-.925 0c0-.53-.046-.98-.138-1.34-.092-.362-.215-.653-.37-.874-.155-.22-.334-.38-.538-.475-.203-.096-.415-.145-.635-.145s-.433.05-.636.145c-.203.096-.38.254-.535.474-.154.22-.277.51-.37.873-.09.36-.136.81-.136 1.34 0 .532.045.98.137 1.338.093.36.215.65.37.872s.33.38.534.475c.204.096.415.144.635.144s.43-.047.634-.143c.204-.096.383-.254.538-.475.155-.22.278-.51.37-.87.092-.36.138-.807.138-1.34zM26.585 158.783c0 .61-.067 1.138-.203 1.584-.135.445-.32.814-.552 1.107-.233.29-.51.51-.828.65s-.66.215-1.022.215c-.367 0-.708-.072-1.022-.215s-.59-.36-.823-.65c-.233-.294-.417-.663-.55-1.108-.133-.446-.2-.975-.2-1.584s.067-1.14.2-1.586.316-.818.55-1.11c.233-.295.508-.513.823-.655.315-.144.656-.215 1.022-.215.363 0 .704.07 1.022.215.318.143.594.36.828.654.233.293.417.664.552 1.11.136.45.203.978.203 1.587zm-.925 0c0-.53-.046-.98-.138-1.34-.092-.362-.215-.653-.37-.874-.155-.22-.334-.38-.538-.475-.203-.096-.415-.145-.635-.145s-.433.05-.636.145c-.203.096-.38.254-.535.474-.154.22-.277.51-.37.873-.09.36-.136.81-.136 1.34 0 .532.045.98.137 1.338.093.36.215.65.37.872s.33.38.534.475c.204.096.415.144.635.144s.43-.047.634-.143c.204-.096.383-.254.538-.475.155-.22.278-.51.37-.87.092-.36.138-.807.138-1.34z"/></g><g fill="#4E4E4E"><path d="M6.136 186.797c-.403-.035-.77-.132-1.103-.29-.332-.156-.618-.356-.857-.6l.27-.4c.027-.034.06-.063.1-.087.04-.022.083-.033.13-.033.063 0 .135.03.215.092s.18.132.296.21.256.157.417.232c.162.074.356.125.583.15l.185-2.584c-.232-.068-.46-.145-.687-.23s-.427-.198-.605-.336c-.178-.14-.322-.312-.43-.52-.108-.21-.163-.472-.163-.786 0-.236.048-.468.143-.693.095-.226.234-.426.417-.602.184-.173.408-.317.675-.43.267-.11.57-.173.915-.187l.05-.7c.003-.062.027-.117.072-.166.045-.048.104-.073.178-.073h.33l-.07.964c.35.042.653.13.908.263s.48.294.678.482l-.214.32c-.066.1-.143.147-.23.147-.047 0-.104-.022-.172-.063l-.245-.142c-.096-.053-.208-.106-.336-.16-.128-.053-.274-.092-.438-.114l-.165 2.355c.24.072.478.15.71.234s.444.192.63.325c.188.133.34.3.454.498.115.2.172.45.172.747 0 .292-.05.566-.15.822-.1.257-.246.48-.438.677-.19.193-.427.352-.705.474-.278.12-.596.19-.952.21l-.06.857c-.002.063-.027.117-.074.164-.046.047-.105.07-.175.07h-.33l.076-1.097zm-.81-5.27c0 .156.028.29.085.406s.136.217.236.305.217.164.35.23.278.122.435.175l.15-2.195c-.216.02-.403.063-.562.127s-.29.146-.39.243-.177.206-.228.33c-.05.12-.074.247-.074.38zm2.775 3.23c0-.16-.03-.3-.092-.417-.062-.117-.146-.217-.252-.3-.106-.086-.23-.16-.375-.22-.142-.063-.295-.12-.46-.172l-.17 2.424c.22-.02.415-.066.58-.14.168-.072.31-.165.423-.278.115-.114.202-.246.26-.396.058-.152.088-.32.088-.5zM12.44 179.688c.303 0 .586.044.85.132.263.087.49.215.685.38.193.17.345.372.455.612.11.24.165.513.165.817 0 .26-.04.5-.12.722-.08.222-.188.434-.325.635s-.294.397-.473.59-.367.384-.567.578l-1.89 1.878c.133-.035.27-.064.405-.085s.268-.032.395-.032h2.4c.097 0 .173.027.23.083s.085.125.085.213v.525h-4.78v-.297c0-.06.013-.124.04-.188.027-.064.068-.125.125-.18l2.295-2.243c.19-.19.363-.37.52-.543.156-.174.29-.348.4-.523s.195-.354.255-.533.09-.37.09-.575c0-.205-.033-.384-.1-.537-.067-.154-.158-.282-.273-.383-.115-.1-.25-.176-.407-.227-.157-.05-.325-.074-.505-.074-.184 0-.352.025-.505.077s-.29.125-.407.218c-.12.093-.218.202-.297.328-.08.126-.137.267-.17.42-.04.112-.094.187-.162.226-.068.037-.165.047-.288.03l-.465-.077c.047-.318.138-.6.273-.844.135-.245.305-.45.51-.615s.44-.29.703-.377c.263-.087.548-.13.854-.13zM20.785 183.255c0 .61-.067 1.138-.203 1.584-.135.445-.32.814-.552 1.105-.233.293-.51.51-.828.652s-.66.214-1.022.214c-.367 0-.708-.07-1.022-.213s-.59-.36-.823-.652c-.233-.29-.417-.66-.55-1.106s-.2-.975-.2-1.585.067-1.14.2-1.586c.133-.45.316-.82.55-1.113.233-.293.508-.512.823-.654s.656-.214 1.022-.214c.363 0 .704.07 1.022.213s.594.36.828.654c.233.294.417.664.552 1.112.136.446.203.975.203 1.585zm-.925 0c0-.532-.046-.98-.138-1.34-.092-.362-.215-.653-.37-.874-.155-.22-.334-.378-.538-.474-.203-.096-.415-.143-.635-.143s-.433.047-.636.143c-.203.096-.38.254-.535.475s-.277.513-.37.874c-.09.362-.136.81-.136 1.34s.045.98.137 1.34c.093.36.215.65.37.87.152.22.33.38.534.475.204.095.415.143.635.143s.43-.048.634-.144c.204-.097.383-.255.538-.476.155-.22.278-.51.37-.87.092-.362.138-.807.138-1.34zM26.585 183.255c0 .61-.067 1.138-.203 1.584-.135.445-.32.814-.552 1.105-.233.293-.51.51-.828.652s-.66.214-1.022.214c-.367 0-.708-.07-1.022-.213s-.59-.36-.823-.652c-.233-.29-.417-.66-.55-1.106s-.2-.975-.2-1.585.067-1.14.2-1.586c.133-.45.316-.82.55-1.113.233-.293.508-.512.823-.654s.656-.214 1.022-.214c.363 0 .704.07 1.022.213s.594.36.828.654c.233.294.417.664.552 1.112.136.446.203.975.203 1.585zm-.925 0c0-.532-.046-.98-.138-1.34-.092-.362-.215-.653-.37-.874-.155-.22-.334-.378-.538-.474-.203-.096-.415-.143-.635-.143s-.433.047-.636.143c-.203.096-.38.254-.535.475s-.277.513-.37.874c-.09.362-.136.81-.136 1.34s.045.98.137 1.34c.093.36.215.65.37.87.152.22.33.38.534.475.204.095.415.143.635.143s.43-.048.634-.144c.204-.097.383-.255.538-.476.155-.22.278-.51.37-.87.092-.362.138-.807.138-1.34z"/></g><g fill="#4E4E4E"><path d="M6.135 211.27c-.403-.037-.77-.133-1.103-.29-.332-.157-.618-.358-.857-.602l.27-.4c.027-.034.06-.063.1-.086s.083-.034.13-.034c.063 0 .135.03.215.092.08.063.178.133.295.213.117.078.256.156.417.23s.356.125.583.15l.185-2.583c-.233-.068-.462-.146-.688-.23s-.427-.198-.605-.337c-.178-.138-.322-.31-.43-.52-.108-.21-.163-.472-.163-.787 0-.236.048-.467.143-.693.095-.225.234-.426.417-.6.184-.176.408-.32.675-.432.266-.11.57-.173.914-.187l.05-.7c.003-.062.027-.116.072-.165.045-.05.104-.073.178-.073h.33l-.07.964c.35.04.653.128.908.26s.48.295.678.483l-.215.32c-.066.098-.143.146-.23.146-.047 0-.104-.02-.172-.062s-.15-.088-.245-.142c-.095-.054-.207-.106-.335-.16s-.274-.092-.438-.114l-.165 2.354c.24.07.477.15.71.233.233.084.443.192.63.325s.338.3.453.5c.115.198.172.447.172.746 0 .292-.05.567-.15.823s-.246.48-.438.676c-.19.194-.427.353-.705.474s-.596.192-.952.212l-.06.856c-.003.06-.028.115-.075.162-.046.047-.105.07-.175.07h-.33l.075-1.095zm-.81-5.27c0 .154.028.29.085.405s.135.216.235.304.217.163.35.228c.133.065.278.123.435.176l.15-2.194c-.217.02-.404.062-.563.126-.158.065-.29.146-.39.244-.102.097-.177.206-.228.328-.05.12-.075.247-.075.38zm2.775 3.23c0-.163-.03-.303-.093-.42-.062-.116-.146-.217-.252-.3-.106-.085-.23-.16-.375-.22-.143-.063-.296-.12-.46-.17l-.17 2.422c.22-.02.414-.065.58-.14.167-.07.308-.165.422-.278.115-.113.202-.246.26-.396.06-.15.088-.317.088-.5zM10.735 210.55h1.535v-4.755c0-.137.005-.28.015-.434l-1.275 1.067c-.043.035-.086.057-.13.064-.043.01-.083.01-.12.004s-.07-.02-.103-.04c-.032-.018-.056-.04-.072-.062l-.28-.374 2.135-1.796h.725v6.326h1.41v.66h-3.84v-.66zM20.785 207.727c0 .61-.067 1.137-.203 1.584-.135.446-.32.815-.552 1.107-.233.292-.51.51-.828.65s-.66.216-1.022.216c-.367 0-.708-.072-1.022-.215s-.59-.36-.823-.65-.417-.662-.55-1.107c-.133-.446-.2-.974-.2-1.583 0-.61.067-1.14.2-1.586.133-.447.316-.817.55-1.11s.508-.513.823-.655c.315-.144.656-.214 1.022-.214.363 0 .704.07 1.022.215.318.143.594.36.828.654.233.293.417.663.552 1.11.135.448.203.976.203 1.587zm-.925 0c0-.532-.046-.98-.138-1.34s-.215-.654-.37-.875c-.155-.22-.334-.378-.538-.474-.203-.096-.415-.144-.635-.144s-.433.048-.636.144c-.203.096-.38.254-.535.474-.154.22-.277.512-.37.874s-.136.81-.136 1.34c0 .532.045.98.137 1.34.093.358.215.65.37.87s.33.38.534.475c.204.097.415.144.635.144s.43-.047.634-.143c.204-.095.383-.253.538-.474.155-.22.278-.512.37-.87.092-.362.138-.808.138-1.34zM26.584 207.727c0 .61-.067 1.137-.203 1.584-.134.446-.318.815-.55 1.107-.234.292-.51.51-.83.65s-.658.216-1.02.216c-.368 0-.71-.072-1.023-.215s-.59-.36-.823-.65-.417-.662-.55-1.107c-.133-.446-.2-.974-.2-1.583 0-.61.067-1.14.2-1.586.133-.447.316-.817.55-1.11s.508-.513.823-.655c.315-.144.656-.214 1.022-.214.362 0 .703.07 1.02.215.32.143.595.36.83.654.232.293.416.663.55 1.11.137.448.204.976.204 1.587zm-.924 0c0-.532-.046-.98-.138-1.34s-.215-.654-.37-.875c-.155-.22-.334-.378-.538-.474-.203-.096-.415-.144-.635-.144s-.433.048-.636.144c-.203.096-.38.254-.535.474-.154.22-.277.512-.37.874s-.136.81-.136 1.34c0 .532.045.98.137 1.34.093.358.215.65.37.87s.33.38.534.475c.204.097.415.144.635.144s.43-.047.634-.143c.204-.095.383-.253.538-.474.155-.22.278-.512.37-.87.092-.362.138-.808.138-1.34z"/></g><g fill="#4E4E4E"><path d="M17.735 235.74c-.403-.035-.77-.132-1.103-.29-.332-.156-.618-.356-.857-.6l.27-.4c.027-.034.06-.063.1-.087.04-.022.083-.033.13-.033.063 0 .135.03.215.092s.178.133.295.212.256.156.417.23c.162.075.356.126.583.15l.185-2.583c-.233-.067-.462-.144-.688-.23s-.427-.197-.605-.335c-.178-.14-.322-.312-.43-.52-.108-.21-.163-.472-.163-.786 0-.237.048-.47.143-.694.095-.226.234-.426.417-.602.184-.174.408-.318.675-.43.266-.112.57-.174.914-.188l.05-.7c.003-.062.027-.117.072-.166.045-.048.104-.073.178-.073h.33l-.07.964c.35.043.653.13.908.264s.48.293.678.48l-.215.322c-.066.098-.143.146-.23.146-.047 0-.104-.02-.172-.062l-.245-.142c-.095-.053-.207-.106-.335-.16-.128-.053-.274-.092-.438-.114l-.165 2.354c.24.072.477.15.71.234s.443.193.63.326.338.3.453.498c.115.2.172.45.172.747 0 .292-.05.566-.15.822-.1.257-.246.48-.438.677-.19.194-.427.353-.705.475-.278.12-.596.19-.952.21l-.06.857c-.003.062-.028.116-.075.163-.046.047-.105.07-.175.07h-.33l.075-1.097zm-.81-5.27c0 .157.028.292.085.407s.135.217.235.305.217.164.35.23.278.122.435.175l.15-2.195c-.217.02-.404.063-.563.127s-.29.145-.39.242-.177.205-.227.328c-.05.12-.075.248-.075.38zm2.775 3.23c0-.16-.03-.3-.093-.417-.062-.117-.146-.217-.252-.3-.106-.086-.23-.16-.375-.22-.143-.063-.296-.12-.46-.172l-.17 2.425c.22-.02.414-.066.58-.14.167-.072.308-.165.422-.278.115-.114.202-.246.26-.396.06-.15.088-.317.088-.5zM26.585 232.198c0 .61-.067 1.138-.203 1.584-.135.446-.32.815-.552 1.106-.233.293-.51.51-.828.652s-.66.214-1.022.214c-.367 0-.708-.07-1.022-.214s-.59-.36-.823-.652c-.233-.29-.417-.66-.55-1.106s-.2-.974-.2-1.584.067-1.14.2-1.586c.133-.448.316-.818.55-1.112.233-.293.508-.512.823-.654s.656-.214 1.022-.214c.363 0 .704.07 1.022.214s.594.36.828.654c.233.294.417.664.552 1.112.136.448.203.976.203 1.586zm-.925 0c0-.532-.046-.98-.138-1.34-.092-.362-.215-.653-.37-.874-.155-.22-.334-.38-.538-.475-.203-.097-.415-.144-.635-.144s-.433.047-.636.143c-.203.095-.38.253-.535.474s-.277.512-.37.873c-.09.362-.136.81-.136 1.34s.045.98.137 1.34c.093.36.215.65.37.87.152.22.33.38.534.475.204.096.415.144.635.144s.43-.048.634-.144c.204-.096.383-.254.538-.475.155-.22.278-.51.37-.87.092-.36.138-.807.138-1.34z"/></g><path fill="#4E4E4E" d="M25.402 246.812h1.535v-4.753c0-.138.005-.282.015-.435l-1.275 1.065c-.043.036-.086.058-.13.066-.043.008-.083.01-.12.002s-.07-.02-.103-.04-.056-.04-.072-.062l-.28-.374 2.135-1.796h.725v6.325h1.41v.663h-3.84v-.66zM32.692 244.695l.205-.268c.063-.084.123-.17.18-.253-.183.143-.39.25-.62.326-.23.074-.473.11-.73.11-.27 0-.526-.042-.767-.13-.242-.088-.455-.217-.638-.387-.184-.17-.33-.38-.438-.628s-.163-.533-.163-.854c0-.305.06-.59.176-.855.116-.267.28-.498.49-.696.21-.198.46-.355.75-.468s.608-.17.955-.17c.344 0 .656.055.936.165.28.11.52.265.72.462.2.197.354.434.463.71.107.275.16.58.16.914 0 .2-.018.392-.056.572-.04.18-.094.356-.165.53-.073.174-.16.346-.264.516s-.22.345-.35.523l-1.745 2.452c-.042.062-.104.11-.184.148s-.172.056-.275.056h-.82l2.182-2.775zm.825-2.12c0-.22-.036-.416-.107-.593s-.17-.326-.297-.45c-.127-.123-.277-.218-.453-.284-.175-.066-.367-.1-.578-.1-.22 0-.42.035-.6.104-.18.07-.335.166-.465.29-.13.123-.23.27-.3.442s-.105.36-.105.564c0 .22.032.418.098.59.065.175.158.32.28.44s.27.212.445.273c.175.063.37.094.588.094.24 0 .452-.038.637-.114s.34-.178.468-.305c.126-.126.223-.272.29-.438.065-.163.1-.335.1-.513zM40.27 240.5v.39c0 .11-.01.202-.036.273-.025.07-.05.13-.073.18l-2.97 5.824c-.042.085-.103.156-.18.217-.076.06-.177.09-.304.09h-.64l3.01-5.75c.043-.082.087-.157.132-.225.045-.07.096-.135.153-.196h-3.74c-.056 0-.105-.02-.15-.065s-.064-.094-.064-.15v-.588h4.865zM46.032 240.5v.39c0 .11-.012.202-.037.273-.025.07-.05.13-.073.18l-2.97 5.824c-.043.085-.104.156-.18.217-.077.06-.178.09-.305.09h-.64l3.01-5.75c.043-.082.087-.157.132-.225.044-.07.095-.135.152-.196h-3.74c-.057 0-.106-.02-.15-.065s-.065-.094-.065-.15v-.588h4.865zM97.677 246.812h1.535v-4.753c0-.138.005-.282.015-.435l-1.275 1.065c-.043.036-.086.058-.13.066-.043.008-.083.01-.12.002s-.07-.02-.103-.04-.057-.04-.073-.062l-.28-.374 2.135-1.796h.725v6.325h1.41v.663h-3.84v-.66zM105.592 244.695l.205-.268c.063-.084.123-.17.18-.253-.183.143-.39.25-.62.326-.23.074-.473.11-.73.11-.27 0-.526-.042-.767-.13-.242-.088-.455-.217-.638-.387-.184-.17-.33-.38-.438-.628s-.163-.533-.163-.854c0-.305.06-.59.176-.855.116-.267.28-.498.49-.696.21-.198.46-.355.75-.468s.608-.17.955-.17c.344 0 .656.055.936.165.28.11.52.265.72.462.2.197.354.434.463.71.107.275.16.58.16.914 0 .2-.018.392-.056.572-.04.18-.094.356-.165.53-.073.174-.16.346-.264.516s-.22.345-.35.523l-1.745 2.452c-.042.062-.104.11-.184.148s-.172.056-.275.056h-.82l2.182-2.775zm.825-2.12c0-.22-.036-.416-.107-.593s-.17-.326-.297-.45c-.127-.123-.277-.218-.453-.284-.175-.066-.367-.1-.578-.1-.22 0-.42.035-.6.104-.18.07-.335.166-.465.29-.13.123-.23.27-.3.442s-.105.36-.105.564c0 .22.032.418.098.59.065.175.158.32.28.44s.27.212.445.273c.175.063.37.094.588.094.24 0 .452-.038.637-.114s.34-.178.468-.305c.126-.126.223-.272.29-.438.065-.163.1-.335.1-.513zM110.667 247.552c-.356 0-.683-.047-.98-.14-.297-.092-.552-.224-.765-.395s-.378-.38-.495-.626c-.117-.243-.175-.52-.175-.823 0-.447.12-.816.36-1.107.24-.29.583-.497 1.03-.62-.377-.136-.66-.34-.853-.61s-.29-.595-.29-.97c0-.257.053-.497.156-.72.103-.226.25-.42.44-.585.19-.166.417-.296.683-.39.264-.094.56-.14.886-.14.323 0 .618.046.885.14.268.094.496.224.686.39.19.165.336.36.44.584.103.223.155.463.155.72 0 .375-.096.7-.29.97s-.476.475-.85.61c.448.123.79.33 1.03.62s.36.66.36 1.107c0 .305-.058.58-.176.824-.12.246-.284.455-.495.627-.213.172-.467.304-.764.396-.295.092-.622.14-.98.14zm0-.692c.233 0 .442-.03.627-.095s.342-.152.47-.268.227-.253.295-.413c.067-.16.102-.34.102-.533 0-.24-.04-.444-.123-.614-.083-.17-.193-.31-.33-.416-.14-.107-.298-.186-.48-.236-.18-.05-.367-.075-.564-.075s-.385.024-.565.074c-.18.05-.338.13-.477.236-.138.106-.248.245-.33.416-.082.17-.123.375-.123.615 0 .195.034.373.103.534.068.16.167.298.295.413.128.115.285.204.47.268s.396.095.63.095zm0-3.347c.233 0 .433-.034.598-.104.165-.07.3-.163.402-.278.104-.115.178-.247.225-.396.046-.15.07-.303.07-.462 0-.162-.027-.314-.083-.458-.056-.143-.138-.268-.246-.374-.108-.107-.244-.19-.405-.253s-.35-.094-.564-.094-.4.03-.563.093-.296.145-.405.252c-.108.106-.19.23-.245.374-.055.144-.083.296-.083.458 0 .16.023.313.07.462.047.15.122.28.225.396.104.115.238.208.403.277.166.07.366.103.6.103zM116.482 240.424c.303 0 .586.043.85.13.263.09.49.216.685.383s.345.37.455.61c.11.24.165.513.165.818 0 .26-.04.5-.12.722-.08.223-.188.435-.325.636s-.294.397-.473.588c-.18.192-.368.386-.568.58l-1.89 1.88c.133-.037.27-.065.405-.087.137-.02.268-.03.395-.03h2.4c.097 0 .173.026.23.082.057.055.085.126.085.214v.524h-4.78v-.297c0-.062.013-.125.04-.19.027-.064.068-.124.125-.18l2.295-2.242c.19-.188.363-.37.52-.543.156-.174.29-.348.4-.523.11-.176.195-.354.255-.533.06-.18.09-.372.09-.577 0-.204-.033-.383-.1-.537-.067-.154-.158-.28-.273-.382-.116-.1-.25-.175-.408-.226-.157-.05-.325-.075-.505-.075-.184 0-.352.024-.505.077-.153.052-.29.124-.407.216-.12.093-.218.202-.297.33-.08.125-.137.265-.17.417-.04.113-.094.19-.162.227-.068.037-.165.048-.288.03l-.465-.077c.046-.317.137-.6.272-.844.135-.245.305-.45.51-.615.205-.165.44-.29.703-.376.262-.087.547-.13.854-.13zM170.567 246.812h1.535v-4.753c0-.138.005-.282.015-.435l-1.275 1.065c-.043.036-.086.058-.13.066-.043.008-.083.01-.12.002s-.07-.02-.103-.04-.057-.04-.073-.062l-.28-.374 2.135-1.796h.725v6.325h1.41v.663h-3.84v-.66zM178.482 244.695l.205-.268c.063-.084.123-.17.18-.253-.183.143-.39.25-.62.326-.23.074-.473.11-.73.11-.27 0-.526-.042-.767-.13-.242-.088-.455-.217-.638-.387-.184-.17-.33-.38-.438-.628s-.163-.533-.163-.854c0-.305.06-.59.176-.855.116-.267.28-.498.49-.696.21-.198.46-.355.75-.468s.608-.17.955-.17c.344 0 .656.055.936.165.28.11.52.265.72.462.2.197.354.434.463.71.107.275.16.58.16.914 0 .2-.018.392-.056.572-.04.18-.094.356-.165.53-.073.174-.16.346-.264.516s-.22.345-.35.523l-1.745 2.452c-.042.062-.104.11-.184.148s-.172.056-.275.056h-.82l2.182-2.775zm.825-2.12c0-.22-.036-.416-.107-.593s-.17-.326-.297-.45c-.127-.123-.277-.218-.453-.284-.175-.066-.367-.1-.578-.1-.22 0-.42.035-.6.104-.18.07-.335.166-.465.29-.13.123-.23.27-.3.442s-.105.36-.105.564c0 .22.032.418.098.59.065.175.158.32.28.44s.27.212.445.273c.175.063.37.094.588.094.24 0 .452-.038.637-.114s.34-.178.468-.305c.126-.126.223-.272.29-.438.065-.163.1-.335.1-.513zM183.557 247.552c-.356 0-.683-.047-.98-.14-.297-.092-.552-.224-.765-.395s-.378-.38-.495-.626c-.117-.243-.175-.52-.175-.823 0-.447.12-.816.36-1.107.24-.29.583-.497 1.03-.62-.377-.136-.66-.34-.853-.61s-.29-.595-.29-.97c0-.257.053-.497.156-.72.103-.226.25-.42.44-.585.19-.166.417-.296.683-.39.264-.094.56-.14.886-.14.323 0 .618.046.885.14.268.094.496.224.686.39.19.165.336.36.44.584.103.223.155.463.155.72 0 .375-.096.7-.29.97s-.476.475-.85.61c.448.123.79.33 1.03.62s.36.66.36 1.107c0 .305-.058.58-.176.824-.12.246-.284.455-.495.627-.213.172-.467.304-.764.396-.296.092-.622.14-.98.14zm0-.692c.233 0 .442-.03.627-.095s.342-.152.47-.268.227-.253.295-.413c.067-.16.102-.34.102-.533 0-.24-.04-.444-.123-.614-.083-.17-.193-.31-.33-.416-.14-.107-.298-.186-.48-.236-.18-.05-.367-.075-.564-.075s-.385.024-.565.074c-.18.05-.338.13-.477.236-.138.106-.248.245-.33.416-.082.17-.123.375-.123.615 0 .195.034.373.103.534.068.16.167.298.295.413.128.115.285.204.47.268s.395.095.63.095zm0-3.347c.233 0 .433-.034.598-.104.165-.07.3-.163.402-.278.104-.115.178-.247.225-.396.046-.15.07-.303.07-.462 0-.162-.027-.314-.083-.458-.056-.143-.138-.268-.246-.374-.108-.107-.244-.19-.405-.253s-.35-.094-.564-.094-.4.03-.563.093-.296.145-.405.252c-.108.106-.19.23-.245.374-.055.144-.083.296-.083.458 0 .16.023.313.07.462.047.15.122.28.225.396.104.115.238.208.403.277.166.07.365.103.6.103zM191.822 240.5v.39c0 .11-.012.202-.037.273-.025.07-.05.13-.073.18l-2.97 5.824c-.043.085-.104.156-.18.217-.077.06-.178.09-.305.09h-.64l3.01-5.75c.043-.082.087-.157.132-.225.044-.07.095-.135.152-.196h-3.74c-.057 0-.106-.02-.15-.065s-.065-.094-.065-.15v-.588h4.865zM243.467 246.812h1.535v-4.753c0-.138.005-.282.015-.435l-1.275 1.065c-.043.036-.086.058-.13.066-.043.008-.083.01-.12.002s-.07-.02-.103-.04-.057-.04-.073-.062l-.28-.374 2.135-1.796h.725v6.325h1.41v.663h-3.84v-.66zM251.382 244.695l.205-.268c.063-.084.123-.17.18-.253-.183.143-.39.25-.62.326-.23.074-.473.11-.73.11-.27 0-.526-.042-.767-.13-.242-.088-.455-.217-.638-.387-.184-.17-.33-.38-.438-.628s-.163-.533-.163-.854c0-.305.06-.59.176-.855.116-.267.28-.498.49-.696.21-.198.46-.355.75-.468s.608-.17.955-.17c.344 0 .656.055.936.165.28.11.52.265.72.462.2.197.354.434.463.71.107.275.16.58.16.914 0 .2-.018.392-.056.572-.04.18-.094.356-.165.53-.073.174-.16.346-.264.516s-.22.345-.35.523l-1.745 2.452c-.042.062-.104.11-.184.148s-.172.056-.275.056h-.82l2.182-2.775zm.825-2.12c0-.22-.036-.416-.107-.593s-.17-.326-.297-.45c-.127-.123-.277-.218-.453-.284-.175-.066-.367-.1-.578-.1-.22 0-.42.035-.6.104-.18.07-.335.166-.465.29-.13.123-.23.27-.3.442s-.105.36-.105.564c0 .22.032.418.098.59.065.175.158.32.28.44s.27.212.445.273c.175.063.37.094.588.094.24 0 .452-.038.637-.114s.34-.178.468-.305c.126-.126.223-.272.29-.438.065-.163.1-.335.1-.513zM257.052 244.695l.205-.268c.063-.084.123-.17.18-.253-.183.143-.39.25-.62.326-.23.074-.473.11-.73.11-.27 0-.526-.042-.767-.13-.242-.088-.455-.217-.638-.387-.184-.17-.33-.38-.438-.628s-.163-.533-.163-.854c0-.305.06-.59.176-.855.116-.267.28-.498.49-.696.21-.198.46-.355.75-.468s.608-.17.955-.17c.344 0 .656.055.936.165.28.11.52.265.72.462.2.197.354.434.463.71.107.275.16.58.16.914 0 .2-.018.392-.056.572-.04.18-.094.356-.165.53-.073.174-.16.346-.264.516s-.22.345-.35.523l-1.745 2.452c-.042.062-.104.11-.184.148s-.172.056-.275.056h-.82l2.182-2.775zm.824-2.12c0-.22-.036-.416-.107-.593s-.172-.326-.298-.45c-.127-.123-.277-.218-.453-.284-.176-.066-.368-.1-.58-.1-.22 0-.42.035-.6.104-.18.07-.334.166-.464.29-.13.123-.23.27-.3.442s-.105.36-.105.564c0 .22.033.418.1.59.064.175.157.32.28.44s.27.212.444.273c.175.063.37.094.588.094.24 0 .452-.038.637-.114s.34-.178.467-.305c.126-.126.223-.272.29-.438.066-.163.1-.335.1-.513zM262.272 240.424c.303 0 .586.043.85.13.263.09.49.216.685.383s.345.37.455.61c.11.24.165.513.165.818 0 .26-.04.5-.12.722-.08.223-.188.435-.325.636s-.294.397-.473.588c-.18.192-.368.386-.568.58l-1.89 1.88c.133-.037.27-.065.405-.087.137-.02.268-.03.395-.03h2.4c.097 0 .173.026.23.082.057.055.085.126.085.214v.524h-4.78v-.297c0-.062.013-.125.04-.19.027-.064.068-.124.125-.18l2.295-2.242c.19-.188.363-.37.52-.543.156-.174.29-.348.4-.523.11-.176.195-.354.255-.533.06-.18.09-.372.09-.577 0-.204-.033-.383-.1-.537-.067-.154-.158-.28-.273-.382-.116-.1-.25-.175-.408-.226-.157-.05-.325-.075-.505-.075-.184 0-.352.024-.505.077-.153.052-.29.124-.407.216-.12.093-.218.202-.297.33-.08.125-.137.265-.17.417-.04.113-.094.19-.162.227-.068.037-.165.048-.288.03l-.465-.077c.046-.317.137-.6.272-.844.135-.245.305-.45.51-.615.205-.165.44-.29.703-.376.262-.087.547-.13.854-.13zM316.356 246.812h1.535v-4.753c0-.138.006-.282.016-.435l-1.274 1.065c-.044.036-.087.058-.13.066-.044.008-.084.01-.12.002-.037-.007-.07-.02-.103-.04-.033-.02-.058-.04-.074-.062l-.28-.374 2.136-1.796h.725v6.325h1.41v.663h-3.84v-.66zM324.272 244.695l.205-.268s.123-.17.18-.253c-.184.143-.39.25-.62.326-.23.074-.473.11-.73.11-.27 0-.525-.042-.767-.13s-.454-.217-.638-.387-.33-.38-.438-.628-.162-.533-.162-.854c0-.305.058-.59.175-.855.116-.267.28-.498.49-.696.21-.198.46-.355.75-.468s.607-.17.954-.17c.345 0 .656.055.937.165s.52.265.72.462c.2.197.354.434.463.71.108.275.162.58.162.914 0 .2-.02.392-.058.572-.038.18-.093.356-.165.53-.072.174-.16.346-.263.516-.104.17-.22.345-.35.523l-1.746 2.452c-.042.062-.103.11-.184.148s-.172.056-.275.056h-.818l2.18-2.775zm.826-2.12c0-.22-.036-.416-.107-.593-.07-.177-.17-.326-.297-.45-.127-.123-.277-.218-.452-.284-.175-.066-.367-.1-.577-.1-.22 0-.42.035-.6.104-.18.07-.335.166-.465.29-.13.123-.23.27-.3.442-.07.172-.105.36-.105.564 0 .22.032.418.098.59.065.175.16.32.28.44.122.12.27.212.445.273s.37.094.588.094c.24 0 .452-.038.638-.114.186-.076.342-.178.468-.305.127-.126.224-.272.29-.438.066-.163.1-.335.1-.513zM329.942 244.695l.205-.268s.123-.17.18-.253c-.184.143-.39.25-.62.326-.23.074-.473.11-.73.11-.27 0-.525-.042-.767-.13s-.454-.217-.638-.387-.33-.38-.438-.628-.162-.533-.162-.854c0-.305.058-.59.175-.855.116-.267.28-.498.49-.696.21-.198.46-.355.75-.468s.607-.17.954-.17c.345 0 .656.055.937.165s.52.265.72.462c.2.197.354.434.463.71.108.275.162.58.162.914 0 .2-.02.392-.058.572-.038.18-.093.356-.165.53-.072.174-.16.346-.263.516-.104.17-.22.345-.35.523l-1.746 2.452c-.042.062-.103.11-.184.148s-.172.056-.275.056h-.818l2.18-2.775zm.826-2.12c0-.22-.036-.416-.107-.593-.07-.177-.17-.326-.297-.45-.127-.123-.277-.218-.452-.284-.175-.066-.367-.1-.577-.1-.22 0-.42.035-.6.104-.18.07-.335.166-.465.29-.13.123-.23.27-.3.442-.07.172-.105.36-.105.564 0 .22.032.418.098.59.065.175.16.32.28.44.122.12.27.212.445.273s.37.094.588.094c.24 0 .452-.038.638-.114.186-.076.342-.178.468-.305.127-.126.224-.272.29-.438.066-.163.1-.335.1-.513zM337.612 240.5v.39c0 .11-.013.202-.038.273-.024.07-.05.13-.072.18l-2.97 5.824c-.044.085-.104.156-.18.217-.077.06-.18.09-.306.09h-.64l3.01-5.75c.043-.082.088-.157.133-.225.044-.07.095-.135.15-.196h-3.74c-.056 0-.105-.02-.148-.065-.044-.045-.065-.094-.065-.15v-.588h4.865zM390.952 240.424c.303 0 .587.043.85.13.264.09.492.216.686.383s.345.37.455.61c.11.24.165.513.165.818 0 .26-.04.5-.12.722-.08.223-.188.435-.325.636s-.294.397-.473.588c-.18.192-.367.386-.567.58l-1.89 1.88c.133-.037.268-.065.404-.087.137-.02.27-.03.396-.03h2.4c.096 0 .173.026.23.082.056.055.084.126.084.214v.524h-4.78v-.297c0-.062.014-.125.04-.19.027-.064.068-.124.125-.18l2.295-2.242c.19-.188.363-.37.52-.543.157-.174.29-.348.4-.523.11-.176.195-.354.256-.533.06-.18.09-.372.09-.577 0-.204-.033-.383-.1-.537-.067-.154-.158-.28-.273-.382s-.25-.175-.407-.226c-.157-.05-.325-.075-.505-.075-.184 0-.352.024-.505.077-.153.052-.29.124-.408.216-.118.093-.217.202-.297.33-.08.125-.137.265-.17.417-.04.113-.095.19-.163.227s-.164.048-.287.03l-.465-.077c.047-.317.138-.6.272-.844s.305-.45.51-.615c.205-.165.44-.29.702-.376.263-.087.55-.13.855-.13zM399.167 243.99c0 .61-.067 1.138-.202 1.583-.136.446-.32.815-.553 1.107s-.51.51-.827.652c-.318.143-.66.214-1.023.214-.366 0-.707-.07-1.022-.214-.314-.144-.59-.36-.822-.652s-.417-.66-.55-1.107c-.134-.445-.2-.974-.2-1.583 0-.61.066-1.14.2-1.587.133-.447.316-.817.55-1.11s.508-.513.822-.655c.315-.143.656-.214 1.022-.214.363 0 .705.07 1.023.214.317.143.594.36.827.654s.417.664.553 1.11c.135.45.202.978.202 1.588zm-.925 0c0-.532-.046-.98-.138-1.34s-.215-.653-.37-.874-.334-.38-.537-.475c-.204-.095-.415-.143-.636-.143-.22 0-.43.048-.634.144s-.382.255-.535.476-.274.512-.366.873-.138.808-.138 1.34c0 .53.046.978.138 1.338.092.36.214.65.367.87s.333.38.536.475.415.144.635.144c.222 0 .433-.048.637-.144.203-.096.382-.253.537-.474s.278-.513.37-.872c.092-.36.138-.807.138-1.338zM404.837 243.99c0 .61-.067 1.138-.202 1.583-.136.446-.32.815-.553 1.107s-.51.51-.827.652c-.318.143-.66.214-1.023.214-.366 0-.707-.07-1.022-.214-.314-.144-.59-.36-.822-.652s-.417-.66-.55-1.107c-.134-.445-.2-.974-.2-1.583 0-.61.066-1.14.2-1.587.133-.447.316-.817.55-1.11s.508-.513.822-.655c.315-.143.656-.214 1.022-.214.363 0 .705.07 1.023.214.317.143.594.36.827.654s.417.664.553 1.11c.135.45.202.978.202 1.588zm-.925 0c0-.532-.046-.98-.138-1.34s-.215-.653-.37-.874-.334-.38-.537-.475c-.204-.095-.415-.143-.636-.143-.22 0-.43.048-.634.144s-.382.255-.535.476-.274.512-.366.873-.138.808-.138 1.34c0 .53.046.978.138 1.338.092.36.214.65.367.87s.333.38.536.475.415.144.635.144c.222 0 .433-.048.637-.144.203-.096.382-.253.537-.474s.278-.513.37-.872c.092-.36.138-.807.138-1.338zM408.052 240.424c.303 0 .587.043.85.13.264.09.492.216.686.383s.345.37.455.61c.11.24.165.513.165.818 0 .26-.04.5-.12.722-.08.223-.188.435-.325.636s-.294.397-.473.588c-.18.192-.367.386-.567.58l-1.89 1.88c.133-.037.268-.065.404-.087.137-.02.27-.03.396-.03h2.4c.096 0 .173.026.23.082.056.055.084.126.084.214v.524h-4.78v-.297c0-.062.014-.125.04-.19.027-.064.068-.124.125-.18l2.295-2.242c.19-.188.363-.37.52-.543.157-.174.29-.348.4-.523.11-.176.195-.354.256-.533.06-.18.09-.372.09-.577 0-.204-.033-.383-.1-.537-.067-.154-.158-.28-.273-.382s-.25-.175-.407-.226c-.157-.05-.325-.075-.505-.075-.184 0-.352.024-.505.077-.153.052-.29.124-.408.216-.118.093-.217.202-.297.33-.08.125-.137.265-.17.417-.04.113-.095.19-.163.227s-.164.048-.287.03l-.465-.077c.047-.317.138-.6.272-.844s.305-.45.51-.615c.205-.165.44-.29.702-.376.263-.087.548-.13.855-.13zM463.852 240.424c.303 0 .587.043.85.13.264.09.492.216.686.383s.345.37.455.61c.11.24.165.513.165.818 0 .26-.04.5-.12.722-.08.223-.188.435-.325.636s-.294.397-.473.588c-.18.192-.367.386-.567.58l-1.89 1.88c.133-.037.268-.065.404-.087.137-.02.27-.03.396-.03h2.4c.096 0 .173.026.23.082.056.055.084.126.084.214v.524h-4.78v-.297c0-.062.014-.125.04-.19.027-.064.068-.124.125-.18l2.295-2.242c.19-.188.363-.37.52-.543.157-.174.29-.348.4-.523.11-.176.195-.354.256-.533.06-.18.09-.372.09-.577 0-.204-.033-.383-.1-.537-.067-.154-.158-.28-.273-.382s-.25-.175-.407-.226c-.157-.05-.325-.075-.505-.075-.184 0-.352.024-.505.077-.153.052-.29.124-.408.216-.118.093-.217.202-.297.33-.08.125-.137.265-.17.417-.04.113-.095.19-.163.227s-.164.048-.287.03l-.465-.077c.047-.317.138-.6.272-.844s.305-.45.51-.615c.205-.165.44-.29.702-.376.263-.087.548-.13.855-.13zM472.067 243.99c0 .61-.067 1.138-.202 1.583-.136.446-.32.815-.553 1.107s-.51.51-.827.652c-.318.143-.66.214-1.023.214-.366 0-.707-.07-1.022-.214-.314-.144-.59-.36-.822-.652s-.417-.66-.55-1.107c-.134-.445-.2-.974-.2-1.583 0-.61.066-1.14.2-1.587.133-.447.316-.817.55-1.11s.508-.513.822-.655c.315-.143.656-.214 1.022-.214.363 0 .705.07 1.023.214.317.143.594.36.827.654s.417.664.553 1.11c.135.45.202.978.202 1.588zm-.924 0c0-.532-.046-.98-.138-1.34s-.215-.653-.37-.874-.334-.38-.537-.475c-.204-.095-.415-.143-.636-.143-.22 0-.432.048-.635.144s-.382.255-.535.476-.275.512-.367.873-.138.808-.138 1.34c0 .53.046.978.138 1.338.092.36.214.65.367.87s.332.38.535.475.415.144.635.144c.22 0 .432-.048.636-.144.203-.096.382-.253.537-.474s.278-.513.37-.872c.092-.36.138-.807.138-1.338zM477.737 243.99c0 .61-.067 1.138-.202 1.583-.136.446-.32.815-.553 1.107s-.51.51-.827.652c-.318.143-.66.214-1.023.214-.366 0-.707-.07-1.022-.214-.314-.144-.59-.36-.822-.652s-.417-.66-.55-1.107c-.134-.445-.2-.974-.2-1.583 0-.61.066-1.14.2-1.587.133-.447.316-.817.55-1.11s.508-.513.822-.655c.315-.143.656-.214 1.022-.214.363 0 .705.07 1.023.214.317.143.594.36.827.654s.417.664.553 1.11c.135.45.202.978.202 1.588zm-.924 0c0-.532-.046-.98-.138-1.34s-.215-.653-.37-.874-.334-.38-.537-.475c-.204-.095-.415-.143-.636-.143-.22 0-.432.048-.635.144s-.382.255-.535.476-.275.512-.367.873-.138.808-.138 1.34c0 .53.046.978.138 1.338.092.36.214.65.367.87s.332.38.535.475.415.144.635.144c.22 0 .432-.048.636-.144.203-.096.382-.253.537-.474s.278-.513.37-.872c.092-.36.138-.807.138-1.338zM483.402 240.5v.39c0 .11-.013.202-.038.273-.024.07-.05.13-.072.18l-2.97 5.824c-.044.085-.104.156-.18.217-.077.06-.18.09-.306.09h-.64l3.01-5.75c.043-.082.088-.157.133-.225.044-.07.095-.135.15-.196h-3.74c-.056 0-.105-.02-.148-.065-.044-.045-.065-.094-.065-.15v-.588h4.865zM536.752 240.424c.303 0 .587.043.85.13.264.09.492.216.686.383s.345.37.455.61c.11.24.165.513.165.818 0 .26-.04.5-.12.722-.08.223-.188.435-.325.636s-.294.397-.473.588c-.18.192-.367.386-.567.58l-1.89 1.88c.133-.037.268-.065.404-.087.137-.02.27-.03.396-.03h2.4c.096 0 .173.026.23.082.056.055.084.126.084.214v.524h-4.78v-.297c0-.062.014-.125.04-.19.027-.064.068-.124.125-.18l2.295-2.242c.19-.188.363-.37.52-.543.157-.174.29-.348.4-.523.11-.176.195-.354.256-.533.06-.18.09-.372.09-.577 0-.204-.033-.383-.1-.537-.067-.154-.158-.28-.273-.382s-.25-.175-.407-.226c-.157-.05-.325-.075-.505-.075-.184 0-.352.024-.505.077-.153.052-.29.124-.408.216-.118.093-.217.202-.297.33-.08.125-.137.265-.17.417-.04.113-.095.19-.163.227s-.164.048-.287.03l-.465-.077c.047-.317.138-.6.272-.844s.305-.45.51-.615c.205-.165.44-.29.702-.376.263-.087.548-.13.855-.13zM544.967 243.99c0 .61-.067 1.138-.202 1.583-.136.446-.32.815-.553 1.107s-.51.51-.827.652c-.318.143-.66.214-1.023.214-.366 0-.707-.07-1.022-.214-.314-.144-.59-.36-.822-.652s-.417-.66-.55-1.107c-.134-.445-.2-.974-.2-1.583 0-.61.066-1.14.2-1.587.133-.447.316-.817.55-1.11s.508-.513.822-.655c.315-.143.656-.214 1.022-.214.363 0 .705.07 1.023.214.317.143.594.36.827.654s.417.664.553 1.11c.134.45.202.978.202 1.588zm-.925 0c0-.532-.046-.98-.138-1.34s-.215-.653-.37-.874-.334-.38-.537-.475c-.204-.095-.415-.143-.636-.143-.22 0-.43.048-.634.144s-.382.255-.535.476-.274.512-.366.873-.138.808-.138 1.34c0 .53.046.978.138 1.338.092.36.214.65.367.87s.333.38.536.475.415.144.635.144c.222 0 .433-.048.637-.144.203-.096.382-.253.537-.474s.278-.513.37-.872c.092-.36.138-.807.138-1.338zM546.387 246.812h1.535v-4.753c0-.138.005-.282.015-.435l-1.274 1.065c-.044.036-.087.058-.13.066-.044.008-.084.01-.12.002-.037-.007-.07-.02-.103-.04-.032-.02-.057-.04-.073-.062l-.28-.374 2.136-1.796h.725v6.325h1.41v.663h-3.84v-.66zM553.852 240.424c.303 0 .587.043.85.13.264.09.492.216.686.383s.345.37.455.61c.11.24.165.513.165.818 0 .26-.04.5-.12.722-.08.223-.188.435-.325.636s-.294.397-.473.588c-.18.192-.367.386-.567.58l-1.89 1.88c.133-.037.268-.065.404-.087.137-.02.27-.03.396-.03h2.4c.096 0 .173.026.23.082.056.055.084.126.084.214v.524h-4.78v-.297c0-.062.014-.125.04-.19.027-.064.068-.124.125-.18l2.295-2.242c.19-.188.363-.37.52-.543.157-.174.29-.348.4-.523.11-.176.195-.354.256-.533.06-.18.09-.372.09-.577 0-.204-.033-.383-.1-.537-.067-.154-.158-.28-.273-.382s-.25-.175-.407-.226c-.157-.05-.325-.075-.505-.075-.184 0-.352.024-.505.077-.153.052-.29.124-.408.216-.118.093-.217.202-.297.33-.08.125-.137.265-.17.417-.04.113-.095.19-.163.227s-.164.048-.287.03l-.465-.077c.047-.317.138-.6.272-.844s.305-.45.51-.615c.205-.165.44-.29.702-.376.263-.087.548-.13.855-.13z"/><g fill="#E81F63"><path d="M182.856 155.254h-1.398c-.156 0-.283-.036-.38-.11-.1-.07-.172-.165-.22-.28l-.588-1.634h-3.468l-.588 1.635c-.04.1-.11.188-.21.27-.1.08-.226.12-.378.12h-1.41l3.402-8.566h1.842l3.396 8.564zM177.24 152h2.593l-.942-2.62c-.055-.138-.114-.3-.176-.484-.062-.185-.123-.384-.183-.596-.055.216-.113.418-.173.604-.06.188-.118.35-.174.487l-.942 2.61zM185.1 146.452v8.802h-1.655v-8.802h1.656zM188.148 146.452v8.802h-1.656v-8.802h1.656zM197.322 148.33c-.056.09-.113.155-.17.197-.06.04-.134.062-.226.062-.088 0-.183-.03-.285-.093-.1-.06-.22-.127-.356-.197-.136-.07-.292-.137-.468-.198-.176-.06-.382-.09-.618-.09-.416 0-.728.09-.936.273-.208.183-.312.422-.312.717 0 .19.057.346.17.47.115.124.265.23.45.32.187.092.398.173.634.243s.478.148.726.233.49.184.726.298.447.258.633.43c.185.175.335.386.45.636.113.25.17.555.17.912 0 .39-.07.755-.207 1.096-.138.34-.337.638-.597.89-.26.255-.58.455-.963.6-.382.147-.815.22-1.3.22-.275 0-.55-.028-.824-.083-.275-.055-.54-.132-.793-.23-.254-.098-.493-.216-.717-.354s-.42-.292-.588-.46l.528-.84c.044-.062.102-.114.174-.156.072-.04.148-.062.228-.062.108 0 .222.04.342.118s.258.165.414.26c.156.095.337.18.543.26s.454.118.742.118c.42 0 .745-.094.975-.282.23-.19.345-.47.345-.845 0-.216-.057-.392-.17-.525-.115-.134-.264-.246-.448-.336-.184-.09-.394-.17-.63-.233-.236-.066-.478-.138-.726-.217-.248-.078-.49-.173-.726-.283-.236-.11-.446-.256-.63-.437-.184-.182-.333-.405-.447-.674-.114-.27-.17-.6-.17-.998 0-.32.063-.628.19-.927.13-.3.317-.565.565-.797.248-.232.553-.42.915-.562.362-.142.777-.212 1.245-.212.524 0 1.01.08 1.455.24.446.158.823.38 1.13.663l-.443.832zM201.126 155.35c-.28 0-.528-.042-.744-.122-.216-.08-.398-.196-.546-.346s-.26-.33-.336-.543c-.076-.214-.114-.453-.114-.722v-3.282h-.582c-.088 0-.163-.027-.225-.082-.063-.056-.094-.138-.094-.248v-.638l.99-.177.336-1.575c.044-.178.166-.267.366-.267h.864v1.854h1.596v1.133h-1.596v3.177c0 .17.04.303.123.4s.2.148.35.148c.08 0 .15-.01.205-.026.056-.018.104-.038.144-.06l.11-.06s.07-.025.106-.025c.048 0 .088.01.12.03.032.022.064.06.096.11l.498.78c-.228.176-.486.31-.774.4-.288.093-.586.14-.894.14zM207.612 155.254c-.156 0-.275-.02-.357-.064-.082-.044-.15-.134-.2-.272l-.133-.384c-.156.135-.307.25-.453.352s-.3.186-.457.254c-.158.07-.326.12-.504.156-.18.036-.376.054-.592.054-.272 0-.52-.036-.744-.106-.224-.07-.417-.176-.58-.316-.16-.14-.286-.313-.374-.522-.088-.208-.132-.448-.132-.72 0-.225.058-.447.174-.67.116-.223.315-.425.597-.608.28-.183.657-.335 1.127-.457.47-.12 1.06-.19 1.767-.206v-.313c0-.38-.082-.66-.246-.84-.164-.18-.4-.27-.708-.27-.228 0-.418.026-.57.08-.152.053-.285.11-.4.17-.113.063-.22.12-.32.172-.1.054-.216.08-.348.08-.116 0-.213-.028-.29-.086-.08-.057-.144-.124-.196-.203l-.294-.52c.364-.323.766-.563 1.206-.724.44-.16.916-.24 1.428-.24.368 0 .697.06.987.178s.536.282.738.493c.203.21.358.462.466.753.108.292.162.61.162.957v3.825h-.756zm-2.178-1.004c.272 0 .51-.048.714-.145.204-.096.406-.245.606-.445v-.944c-.404.016-.74.05-1.008.1-.268.052-.48.115-.64.192-.157.076-.27.165-.335.266s-.098.21-.098.327c0 .237.067.404.2.503.135.098.322.147.562.147zM211.8 155.35c-.28 0-.528-.042-.744-.122-.216-.08-.398-.196-.546-.346s-.26-.33-.336-.543c-.076-.214-.114-.453-.114-.722v-3.282h-.582c-.088 0-.163-.027-.225-.082-.062-.056-.093-.138-.093-.248v-.638l.99-.177.336-1.575c.044-.178.166-.267.366-.267h.864v1.854h1.596v1.133h-1.596v3.177c0 .17.04.303.123.4s.198.148.35.148c.08 0 .148-.01.204-.026.056-.018.104-.038.144-.06l.11-.06s.07-.025.106-.025c.048 0 .088.01.12.03.032.022.064.06.096.11l.498.78c-.228.176-.486.31-.774.4-.288.093-.586.14-.894.14zM216.876 149.073c.396 0 .76.062 1.095.186s.623.303.865.54c.242.235.43.525.564.87.133.345.2.737.2 1.178 0 .122-.006.223-.018.3-.012.08-.032.143-.06.19-.028.047-.066.08-.114.097-.048.02-.11.027-.186.027h-3.714c.052.57.217.987.495 1.25.278.265.643.397 1.095.397.228 0 .425-.027.59-.08.167-.054.313-.112.44-.178l.34-.177s.204-.08.304-.08c.128 0 .228.048.3.142l.48.59c-.176.2-.37.368-.582.5s-.432.236-.66.313c-.228.077-.458.13-.69.16-.232.03-.456.044-.672.044-.432 0-.835-.07-1.21-.21s-.7-.347-.977-.62-.496-.612-.656-1.018c-.16-.406-.24-.876-.24-1.41 0-.414.07-.804.207-1.17s.338-.685.598-.957c.26-.272.576-.487.948-.647.372-.16.792-.24 1.26-.24zm.03 1.145c-.396 0-.706.11-.93.334s-.37.536-.438.94h2.58c0-.168-.023-.33-.07-.482-.045-.154-.118-.29-.218-.408s-.226-.21-.378-.28c-.152-.07-.334-.104-.546-.104zM224.47 150.42c-.043.066-.088.114-.134.144s-.11.044-.19.044-.16-.02-.245-.06-.177-.08-.28-.126-.224-.088-.358-.127c-.134-.04-.29-.06-.465-.06-.268 0-.476.055-.624.163s-.222.25-.222.428c0 .122.043.225.127.307.084.083.195.155.333.216.138.06.295.117.47.17.177.054.358.11.544.175.186.063.367.136.543.218.176.083.333.187.47.31.14.125.25.274.334.45.085.175.127.386.127.634 0 .295-.055.567-.165.817s-.27.466-.483.646c-.213.182-.477.323-.793.426-.316.102-.68.153-1.092.153-.212 0-.422-.02-.63-.058-.208-.037-.406-.09-.594-.16-.187-.067-.363-.147-.527-.238-.164-.09-.306-.188-.426-.295l.384-.61c.045-.07.1-.125.166-.164s.15-.06.255-.06c.1 0 .193.025.277.074.084.05.178.103.282.16.103.057.226.11.368.16.142.048.32.072.53.072.16 0 .3-.018.415-.053.116-.036.21-.085.282-.146.072-.062.125-.13.16-.207.033-.076.05-.156.05-.24 0-.133-.043-.242-.13-.326-.085-.084-.197-.157-.335-.22-.138-.064-.297-.12-.477-.172-.18-.052-.363-.108-.55-.172-.185-.063-.367-.138-.545-.224-.178-.087-.336-.196-.474-.328-.138-.132-.25-.294-.336-.487-.086-.192-.13-.427-.13-.702 0-.252.05-.49.15-.717.1-.227.25-.427.45-.6s.45-.31.748-.413c.298-.103.643-.153 1.035-.153.44 0 .84.07 1.2.212s.657.327.89.556l-.38.58z"/></g><g fill="#009688"><path d="M315.228 79.842h-1.812v-8.566h1.812v8.566zM318.49 71.04v8.802h-1.654V71.04h1.655zM321.54 71.04v8.802h-1.656V71.04h1.655zM324.82 72.025c0 .138-.027.266-.083.384s-.13.222-.225.312-.204.162-.33.212c-.126.05-.262.077-.405.077-.136 0-.265-.024-.387-.076-.122-.05-.23-.122-.32-.212-.093-.09-.166-.195-.22-.313-.055-.12-.08-.247-.08-.385s.025-.267.08-.387c.054-.12.127-.225.22-.315.09-.09.198-.162.32-.213.122-.05.25-.077.387-.077.144 0 .28.026.405.077.126.05.235.122.33.213.094.09.17.196.225.315.056.12.084.25.084.387zm-.197 1.73v6.086h-1.655v-6.085h1.655zM326.04 79.842v-6.086h1.02c.208 0 .346.094.414.283l.102.424c.124-.118.253-.227.388-.325.134-.1.275-.184.426-.255.15-.07.312-.126.485-.166.175-.04.363-.06.567-.06.336 0 .634.057.894.17.26.115.48.274.657.48.178.204.313.448.402.73.09.284.135.595.135.934v3.867h-1.65v-3.866c0-.338-.08-.6-.24-.788s-.395-.28-.707-.28c-.236 0-.455.05-.657.15-.202.1-.396.237-.58.41v4.375h-1.657zM335.633 73.66c.464 0 .887.074 1.267.22s.706.353.978.623.482.597.63.983c.148.386.223.82.223 1.305s-.073.92-.222 1.31c-.147.387-.357.716-.63.988-.27.272-.598.48-.978.626s-.803.218-1.267.218c-.468 0-.893-.073-1.274-.218s-.71-.354-.982-.626c-.27-.27-.482-.6-.633-.99s-.225-.822-.225-1.307c0-.483.074-.918.225-1.304s.36-.713.633-.983c.272-.27.6-.477.98-.623s.807-.22 1.275-.22zm0 5.048c.473 0 .822-.16 1.05-.48.23-.322.343-.8.343-1.433 0-.63-.114-1.104-.342-1.425-.23-.32-.578-.48-1.05-.48-.484 0-.84.16-1.068.48-.23.32-.342.796-.342 1.425 0 .634.113 1.11.342 1.432.227.32.583.48 1.067.48zM341.675 72.025c0 .138-.028.266-.084.384s-.13.222-.224.312c-.095.09-.204.162-.33.212-.126.05-.262.077-.405.077-.135 0-.264-.024-.386-.076-.122-.05-.23-.122-.32-.212-.093-.09-.166-.195-.22-.313-.055-.12-.08-.247-.08-.385s.025-.267.08-.387c.054-.12.127-.225.22-.315.09-.09.198-.162.32-.213.122-.05.25-.077.387-.077.145 0 .28.026.406.077.126.05.235.122.33.213.094.09.17.196.225.315.056.12.085.25.085.387zm-.198 1.73v6.086h-1.655v-6.085h1.655zM346.74 75.007c-.045.067-.09.115-.137.145-.046.03-.108.044-.188.044s-.162-.02-.246-.06l-.283-.126c-.104-.045-.223-.087-.356-.127-.134-.04-.288-.06-.464-.06-.27 0-.477.055-.624.164-.148.108-.223.25-.223.428 0 .122.04.225.125.307s.195.154.333.215c.14.06.295.118.472.17.176.054.356.112.543.175.186.063.366.136.543.218.176.083.333.186.47.31.14.124.25.273.334.448.084.175.126.387.126.635 0 .295-.055.568-.165.818s-.27.466-.482.647c-.212.18-.476.323-.792.425-.315.103-.68.153-1.092.153-.212 0-.422-.02-.63-.056-.208-.04-.406-.092-.594-.16-.188-.07-.364-.15-.528-.24-.164-.09-.306-.188-.426-.295l.384-.608c.044-.07.1-.126.165-.166.066-.038.15-.058.255-.058.1 0 .192.025.276.074.084.05.178.103.282.16.104.057.227.11.368.16.143.048.32.073.53.073.16 0 .3-.02.415-.054.117-.036.21-.084.283-.145s.125-.13.16-.206c.032-.077.05-.156.05-.24 0-.133-.043-.242-.13-.327-.085-.085-.197-.16-.335-.222-.14-.063-.297-.12-.478-.17-.18-.052-.362-.11-.55-.172-.185-.063-.367-.138-.545-.225-.178-.086-.336-.195-.474-.328-.138-.132-.25-.294-.335-.487-.087-.193-.13-.427-.13-.703 0-.252.05-.49.15-.717.1-.226.25-.426.45-.6s.45-.31.747-.412c.298-.102.643-.153 1.035-.153.44 0 .84.07 1.2.213.36.142.655.327.888.555l-.376.582z"/></g><path fill="#009688" d="M407.5 71.688c0-.682-.553-1.234-1.234-1.234s-1.233.552-1.233 1.234.552 1.234 1.233 1.234 1.234-.552 1.234-1.234"/></svg>