<svg xmlns="http://www.w3.org/2000/svg" width="561" height="252" viewBox="0 0 561 252"><path fill="none" stroke="#D8D8D7" stroke-width=".5" stroke-linejoin="round" stroke-miterlimit="10" d="M21.633 197.665h539.31M21.633 160.384h539.31M21.633 123.174h539.31M21.633 85.893h539.31M21.633 48.61h539.31M21.633 11.4h539.31"/><path fill="none" stroke="#D9D9D9" stroke-width=".72" stroke-linejoin="round" stroke-miterlimit="10" d="M21.633 234.875h539.31"/><path fill="none" stroke="#99999A" stroke-width=".5" stroke-linejoin="round" stroke-miterlimit="10" d="M21.633 232.67v4.41M52.273 232.67v4.41M82.914 232.67v4.41M113.554 232.67v4.41M144.194 232.67v4.41M174.834 232.67v4.41M205.475 232.67v4.41M236.115 232.67v4.41M266.755 232.67v4.41M297.396 232.67v4.41M328.142 232.67v4.41M358.78 232.67v4.41M389.422 232.67v4.41M420.063 232.67v4.41M450.702 232.67v4.41M481.343 232.67v4.41M511.982 232.67v4.41M542.623 232.67v4.41"/><path fill="#F9A01B" d="M30.794 235.875c-.298 0-.583-.134-.774-.367l-6.107-7.47c-.35-.43-.286-1.06.142-1.408.426-.35 1.058-.286 1.407.142l5.174 6.33 5.497-9.884c.177-.317.51-.514.874-.514h128.39l5.867-3.555c.156-.096.335-.146.518-.146h5.827l5.972-3.625c.157-.097.336-.147.52-.147h79.325l5.976-3.56c.155-.092.332-.14.512-.14h5.717l5.82-5.356c.185-.17.426-.265.677-.265h79.07l5.838-12.445c.084-.18.22-.328.387-.43l12.214-7.4c.155-.095.335-.145.518-.145h17.83l5.824-10.72 6.09-12.205c.17-.34.517-.554.896-.554h30.413l6.007-2.89c.136-.064.283-.1.434-.1h110.243c.553 0 1 .448 1 1s-.447 1-1 1H447.876l-6.006 2.89c-.136.065-.283.1-.434.1h-30.022l-5.83 11.684-6.123 11.272c-.174.32-.512.52-.878.52h-18.146l-11.716 7.1-5.98 12.746c-.164.35-.517.575-.904.575H282.52l-5.82 5.356c-.185.17-.426.265-.677.265h-5.832l-5.975 3.56c-.155.093-.332.142-.512.142H184.38l-5.973 3.625c-.157.096-.336.146-.52.146h-5.827l-5.868 3.555c-.156.095-.335.145-.518.145H37.594l-5.926 10.657c-.16.29-.455.48-.785.51-.03.004-.06.005-.09.005z"/><path fill="#51AFE2" d="M30.794 235.875c-.528 0-.966-.41-.998-.94l-6.107-101.1c-.034-.552.386-1.025.937-1.06.536-.033 1.025.388 1.058.94l4.91 81.265 5.412-134.463c.013-.335.194-.642.48-.815l5.818-3.524 5.983-15.266 6.086-18.938c.023-.072.055-.142.094-.207L60.68 31.38c.158-.265.428-.44.733-.48.308-.042.61.065.83.282l6.048 5.99 5.963 4.237 6.02 2.734c.12.055.228.132.317.23l5.547 5.945 5.515-3.412c.04-.024.08-.045.12-.064l6.108-2.704c.195-.086.412-.107.62-.062l6.108 1.352c.25.055.467.203.61.414l6.107 8.965c.05.072.09.15.118.235l6.065 17.523 5.978 8.967 5.835 2.515 6.192 3.385c.168.092.307.23.398.4l6.107 11.24c.024.045.045.092.062.14l6.06 16.877 5.75 8.167 5.46-1.21c.14-.03.29-.03.43 0l5.145 1.14 5.88-24.867c.067-.286.258-.528.52-.66.262-.134.57-.146.84-.032l4.973 2.087 5.978-30.74c.05-.26.203-.49.424-.638s.493-.202.752-.152l5.964 1.18 5.962-.554c.152-.016.308.007.452.062l6.107 2.348c.105.04.203.1.29.172l6.106 5.194 5.955 4.155 5.89 1.03c.072.012.145.033.213.062l6.035 2.53 6.03 1.477 6.2 1.42 6.183 1.94 6.097 1.848 6.167 2.297c.064.023.125.053.184.09l4.97 3.127 5.853-20.977c.096-.347.37-.614.72-.702.348-.088.717.02.966.28l4.807 5.04 5.706-26.262c.085-.396.403-.702.803-.772.404-.072.803.107 1.02.45l6.07 9.617 6 7.063 6.142 4.993c.08.064.147.14.204.225l6.105 9.25c.034.053.064.11.09.168l6.086 14.68 6.025 11.087 6.024 6.598 6.223 7.056 6.14 7.722c.03.035.055.073.078.112l6.108 10.316 6.074 10.758 5.96 7.29 4.86 3.285 5.8-27.292c.052-.24.188-.452.387-.597l6.105-4.483 6.09-4.683c.26-.2.605-.26.92-.157l6.106 1.992c.068.02.134.05.194.087l6.213 3.628 5.096 3.382 5.674-15.665 6.11-16.443c.112-.306.368-.537.684-.62.314-.082.65-.006.9.206l6.15 5.21 6.033 3.586 6.1 3.553 6.034 2.88 5.82 2.98 5.866-1.21c.2-.04.403-.02.59.058l6.05 2.538 6.047 1.69 6.195 2.377c.045.018.088.037.13.06l6.107 3.416 6.06 2.772 6.02 1.543 6.198 2.235 6.146 2.504 6.177 3.09 6.173 2.757 6.076 2.478 5.948 3.044 5.84-.272c.086-.007.17.003.253.02l6.107 1.28c.057.013.113.03.167.052l6.157 2.468 6.05 1.62 12.126 2.115c.544.096.908.613.813 1.157-.096.544-.614.902-1.157.813l-12.214-2.134-6.194-1.657c-.038-.01-.076-.022-.113-.038l-6.13-2.457-5.898-1.236-5.98.278c-.176.01-.347-.03-.502-.11l-6.107-3.13-6.028-2.453-6.243-2.788-6.146-3.08-6.035-2.457-6.07-2.19-6.015-1.538c-.058-.015-.114-.035-.168-.06l-6.212-2.846-6.117-3.417-6.04-2.322-6.018-1.677c-.04-.01-.08-.024-.117-.04l-5.822-2.443-5.908 1.218c-.225.045-.456.014-.658-.09l-6.107-3.13-6.08-2.904-6.18-3.595-6.115-3.634c-.048-.03-.094-.06-.136-.097l-5.125-4.344-5.61 15.1-6.104 16.853c-.104.287-.336.512-.627.608-.292.094-.61.053-.867-.117l-6.107-4.055-6.07-3.544-5.504-1.795-5.69 4.375-5.816 4.27-6.028 28.37c-.07.326-.296.596-.604.72-.306.123-.658.09-.934-.1l-6.212-4.196c-.08-.054-.153-.12-.215-.195l-6.106-7.472c-.036-.044-.068-.092-.097-.142l-6.106-10.814-6.06-10.24-6.066-7.63-6.18-7.003-6.094-6.676c-.055-.06-.102-.126-.14-.197l-6.108-11.24c-.017-.032-.03-.063-.045-.095l-6.07-14.64-5.97-9.04-6.094-4.956c-.048-.04-.092-.082-.13-.128l-6.107-7.186c-.03-.036-.06-.074-.084-.114l-4.804-7.61L277 83.474c-.078.362-.35.65-.706.75-.356.1-.74-.005-.994-.273l-4.893-5.13-5.74 20.575c-.084.304-.308.55-.602.664-.295.114-.626.08-.893-.087l-6.02-3.788-6.01-2.24-6.05-1.83-6.116-1.925-6.135-1.402-6.12-1.498c-.052-.012-.102-.03-.15-.05l-6.003-2.517-5.996-1.048c-.143-.025-.28-.082-.4-.165l-6.21-4.34-6.053-5.14-5.73-2.204-5.874.547c-.096.01-.193.004-.287-.015l-5.123-1.015-6.02 30.96c-.058.295-.246.55-.51.69-.266.144-.582.157-.86.042l-5.018-2.105-5.835 24.678c-.126.532-.658.86-1.19.747l-5.89-1.304-5.89 1.305c-.397.085-.803-.07-1.035-.4l-6.212-8.823c-.05-.073-.093-.153-.123-.238l-6.08-16.932-5.932-10.916-5.85-3.203-6.02-2.59c-.178-.078-.33-.204-.437-.365l-6.21-9.32c-.048-.07-.086-.147-.114-.228l-6.063-17.52-5.81-8.526-5.398-1.195-5.744 2.542-6.153 3.806c-.406.25-.932.18-1.257-.168l-5.97-6.4-5.93-2.69c-.058-.027-.114-.06-.166-.096l-6.107-4.34c-.044-.03-.086-.066-.125-.104l-5.2-5.15-5.5 9.194-6.07 18.888-6.13 15.64c-.08.205-.224.377-.412.49l-5.647 3.422-6.19 153.78c-.022.533-.457.955-.99.96h-.01z"/><g fill="#4E4E4E"><path d="M9.23 233.682c0 .584-.06 1.088-.175 1.516-.116.426-.274.78-.475 1.06s-.438.487-.71.624c-.275.137-.568.205-.88.205-.316 0-.61-.068-.88-.205s-.507-.346-.707-.625c-.2-.28-.358-.633-.473-1.06-.115-.427-.172-.93-.172-1.515s.058-1.09.172-1.518.272-.783.473-1.064c.2-.28.436-.488.707-.625s.564-.205.88-.205c.312 0 .605.068.88.205.272.137.51.346.71.625.2.28.36.637.475 1.064.116.428.174.934.174 1.518zm-.796 0c0-.51-.04-.936-.118-1.283-.08-.347-.185-.624-.318-.835-.133-.213-.288-.363-.462-.455s-.357-.137-.546-.137c-.19 0-.37.045-.546.137s-.328.242-.46.455c-.132.21-.237.488-.316.834-.08.347-.118.772-.118 1.282s.04.936.118 1.28c.08.345.184.622.316.833.132.21.285.363.46.455s.357.137.546.137c.19 0 .372-.045.546-.137s.33-.244.462-.455.24-.488.318-.832c.078-.346.118-.772.118-1.28zM11.904 237.066c-.264-.03-.507-.107-.73-.23s-.414-.287-.575-.49c-.163-.205-.29-.45-.38-.732-.09-.28-.135-.6-.135-.953 0-.345.047-.66.142-.952.095-.29.232-.543.413-.756.18-.215.403-.385.667-.51.264-.127.566-.193.907-.203l.056-.835c.006-.06.027-.115.064-.16.038-.045.086-.066.146-.066h.288l-.07 1.083c.236.037.448.105.635.203.188.098.36.223.514.375l-.198.288c-.024.035-.046.06-.068.078s-.052.025-.092.025c-.035 0-.075-.013-.12-.038l-.168-.096c-.066-.037-.144-.074-.232-.11-.09-.04-.193-.07-.314-.09l-.228 3.548c.18-.014.332-.043.454-.092.122-.05.225-.098.31-.15.084-.053.154-.102.208-.145.054-.045.104-.066.15-.066.032 0 .06.01.086.022s.046.03.06.053l.21.295c-.17.22-.39.39-.657.504-.268.117-.554.186-.86.207l-.053.815c-.006.06-.027.11-.064.156s-.087.07-.15.07h-.284l.064-1.044zm-1.058-2.406c0 .5.097.898.29 1.197.194.3.464.486.812.557l.228-3.537c-.44.033-.77.207-.994.52-.224.314-.336.736-.336 1.263z"/></g><g fill="#4E4E4E"><path d="M.61 199.135h1.32v-4.55c0-.13.005-.268.014-.413l-1.097 1.02c-.037.034-.075.055-.112.063s-.072.01-.103.003c-.032-.007-.06-.02-.088-.038s-.048-.038-.062-.06l-.24-.36 1.835-1.718H2.7v6.053h1.214v.633H.61v-.633zM9.23 196.435c0 .583-.06 1.088-.175 1.515-.116.427-.274.78-.475 1.06s-.438.487-.71.624c-.275.137-.568.205-.88.205-.316 0-.61-.07-.88-.206s-.507-.345-.707-.624c-.2-.28-.358-.633-.473-1.06s-.172-.932-.172-1.515c0-.584.058-1.09.172-1.518.115-.43.272-.783.473-1.064.2-.28.436-.49.707-.626s.564-.205.88-.205c.312 0 .605.068.88.205.272.137.51.346.71.626.2.28.36.636.475 1.064.116.428.174.934.174 1.518zm-.796 0c0-.51-.04-.937-.118-1.283-.08-.346-.185-.624-.318-.835-.133-.212-.288-.362-.462-.454s-.357-.138-.546-.138c-.19 0-.37.046-.546.138s-.328.242-.46.454c-.132.21-.237.49-.316.835-.08.347-.118.773-.118 1.283 0 .51.04.936.118 1.28.08.344.184.622.316.833.132.21.285.362.46.454s.357.137.546.137c.19 0 .372-.046.546-.138s.33-.243.462-.454.24-.49.318-.833c.078-.345.118-.772.118-1.28zM11.904 199.818c-.264-.03-.507-.107-.73-.23-.22-.122-.414-.286-.575-.49-.163-.205-.29-.45-.38-.73s-.135-.602-.135-.955c0-.345.047-.662.142-.952s.232-.542.413-.756.403-.384.667-.51.566-.193.907-.202l.056-.834c.006-.062.027-.115.064-.16.038-.045.086-.067.146-.067h.288l-.07 1.086c.236.037.448.104.635.202.188.098.36.223.514.375l-.198.288c-.024.035-.046.062-.068.078-.02.018-.052.025-.092.025-.035 0-.075-.013-.12-.04l-.168-.095c-.066-.037-.144-.074-.232-.11-.09-.04-.193-.068-.314-.09l-.228 3.548c.18-.013.332-.043.454-.09.122-.05.225-.1.31-.152.084-.053.154-.102.208-.145.054-.045.104-.066.15-.066.032 0 .06.007.086.02.026.015.046.032.06.054l.21.294c-.17.22-.39.39-.657.505-.268.116-.554.186-.86.207l-.053.814c-.006.06-.027.11-.064.156s-.087.067-.15.067h-.284l.064-1.042zm-1.058-2.406c0 .5.097.9.29 1.198.194.3.464.485.812.557l.228-3.538c-.44.033-.77.207-.994.52s-.336.735-.336 1.262z"/></g><g fill="#4E4E4E"><path d="M2.078 155.77c.26 0 .505.044.73.128.228.084.424.205.59.365.166.16.297.354.39.584.096.23.143.49.143.78 0 .25-.033.48-.102.692-.07.212-.162.415-.28.606-.118.193-.253.38-.406.564s-.316.367-.488.555l-1.625 1.797c.114-.035.23-.063.348-.082.117-.02.23-.03.34-.03H3.78c.084 0 .15.026.2.08s.072.12.072.204v.502H-.06v-.283c0-.06.01-.12.034-.182s.06-.118.108-.17l1.974-2.147c.164-.18.313-.354.447-.52s.25-.332.344-.5c.094-.168.167-.338.22-.51s.076-.357.076-.553-.028-.367-.086-.514c-.057-.146-.135-.27-.234-.365-.1-.095-.216-.167-.35-.216s-.28-.072-.435-.072c-.158 0-.303.025-.435.074-.132.05-.25.12-.35.207-.102.09-.188.193-.256.314-.07.12-.118.256-.146.4-.033.11-.08.182-.14.217-.058.035-.14.045-.247.03l-.4-.075c.04-.304.12-.573.234-.808.116-.234.263-.432.44-.59s.376-.277.603-.36c.23-.08.474-.12.738-.12zM9.23 159.186c0 .582-.06 1.088-.175 1.514-.116.428-.274.78-.475 1.06s-.438.487-.71.624c-.275.137-.568.205-.88.205-.316 0-.61-.07-.88-.206s-.507-.344-.707-.623c-.2-.278-.358-.632-.473-1.06-.115-.426-.172-.932-.172-1.514 0-.584.058-1.09.172-1.518.115-.43.272-.783.473-1.064.2-.28.436-.49.707-.627s.564-.205.88-.205c.312 0 .605.068.88.205.272.137.51.346.71.627s.36.635.475 1.064c.116.428.174.934.174 1.518zm-.796 0c0-.51-.04-.938-.118-1.283-.08-.346-.185-.625-.318-.836s-.288-.36-.462-.453-.357-.14-.546-.14c-.19 0-.37.048-.546.14s-.328.242-.46.453c-.132.21-.237.49-.316.836-.08.346-.118.773-.118 1.283 0 .508.04.936.118 1.28.08.343.184.622.316.833.132.21.285.36.46.452s.357.137.546.137c.19 0 .372-.046.546-.138s.33-.242.462-.453.24-.49.318-.835c.078-.344.118-.772.118-1.28zM11.904 162.568c-.264-.03-.507-.107-.73-.23-.22-.12-.414-.285-.575-.49-.163-.205-.29-.45-.38-.73-.09-.283-.135-.602-.135-.955 0-.344.047-.662.142-.95.095-.292.232-.544.413-.76.18-.212.403-.382.667-.51.264-.124.566-.192.907-.2l.056-.834c.006-.064.027-.116.064-.16.038-.046.086-.07.146-.07h.288l-.07 1.087c.236.037.448.104.635.2.188.1.36.224.514.376l-.198.29c-.024.032-.046.06-.068.075-.02.018-.052.025-.092.025-.035 0-.075-.012-.12-.04-.047-.024-.103-.058-.168-.095-.066-.037-.144-.074-.232-.11s-.193-.067-.314-.09l-.228 3.548c.18-.012.332-.043.454-.09.122-.05.225-.1.31-.152.084-.053.154-.102.208-.145.054-.044.104-.065.15-.065.032 0 .06.006.086.02.026.015.046.032.06.054l.21.292c-.17.22-.39.39-.657.506-.268.115-.554.186-.86.207l-.053.814c-.006.058-.027.11-.064.155s-.087.066-.15.066h-.284l.064-1.042zm-1.058-2.406c0 .5.097.9.29 1.2.194.298.464.483.812.556l.228-3.54c-.44.036-.77.21-.994.522-.224.315-.336.735-.336 1.262z"/></g><g fill="#4E4E4E"><path d="M2.108 118.524c.26 0 .5.04.722.12.22.082.41.197.57.346.16.15.283.33.372.54s.133.445.133.703c0 .21-.025.4-.075.565s-.122.312-.215.438-.206.232-.338.32c-.132.086-.28.156-.443.21.4.114.703.306.905.576s.302.608.302 1.015c0 .308-.054.583-.16.83-.108.245-.255.453-.442.625s-.403.304-.65.396c-.25.092-.515.138-.8.138-.326 0-.605-.044-.837-.133-.232-.088-.43-.21-.59-.366-.16-.155-.29-.34-.395-.55-.104-.214-.19-.444-.263-.692l.332-.15c.086-.04.17-.05.25-.032.083.02.142.07.18.153.037.087.083.19.14.312.055.12.13.238.23.35.096.11.22.206.37.283.15.08.343.117.575.117.215 0 .404-.038.566-.114.162-.076.296-.175.404-.296.108-.12.188-.256.243-.405s.082-.296.082-.442c0-.18-.02-.345-.064-.494s-.123-.277-.24-.386c-.12-.108-.28-.194-.485-.256s-.468-.093-.79-.093v-.6c.265-.003.49-.034.674-.093.185-.06.335-.14.452-.242.116-.102.2-.225.254-.368.053-.143.08-.3.08-.475 0-.192-.028-.36-.084-.503-.056-.144-.133-.262-.23-.355-.098-.093-.213-.163-.346-.21-.133-.045-.277-.07-.432-.07s-.3.026-.432.076-.25.12-.353.208c-.1.088-.186.193-.255.314s-.117.254-.146.4c-.038.108-.085.18-.14.216-.057.036-.138.046-.244.03l-.4-.075c.04-.304.118-.573.232-.808.114-.234.26-.43.437-.59.176-.157.378-.277.606-.36.228-.08.474-.12.738-.12zM9.23 121.936c0 .583-.06 1.09-.175 1.516-.116.427-.274.78-.475 1.06s-.438.486-.71.623c-.275.136-.568.205-.88.205-.316 0-.61-.068-.88-.205-.27-.137-.507-.345-.707-.624-.2-.278-.358-.63-.473-1.058s-.172-.932-.172-1.516.058-1.09.172-1.518.272-.783.473-1.064c.2-.28.436-.49.707-.626s.564-.205.88-.205c.312 0 .605.068.88.205.272.137.51.345.71.626.2.28.36.636.475 1.064.116.43.174.935.174 1.518zm-.796 0c0-.51-.04-.937-.118-1.282-.08-.346-.185-.625-.318-.836s-.288-.362-.462-.454c-.175-.092-.357-.138-.546-.138-.19 0-.37.046-.546.138-.175.09-.328.243-.46.454-.132.21-.237.49-.316.836-.08.346-.118.773-.118 1.282 0 .51.04.936.118 1.28.08.345.184.623.316.833.132.21.285.36.46.453.175.09.357.137.546.137.19 0 .372-.046.546-.137.175-.092.33-.243.462-.454s.24-.49.318-.834c.078-.344.118-.77.118-1.28zM11.904 125.32c-.264-.03-.507-.107-.73-.23s-.414-.285-.575-.49c-.163-.205-.29-.448-.38-.73-.09-.283-.135-.602-.135-.955 0-.345.047-.662.142-.952.095-.29.232-.542.413-.757.18-.214.403-.384.667-.51.264-.125.566-.193.907-.202l.056-.833c.006-.06.027-.115.064-.16.038-.045.086-.067.146-.067h.288l-.07 1.084c.236.038.448.105.635.203.188.098.36.223.514.375l-.198.29c-.024.033-.046.06-.068.076s-.052.026-.092.026c-.035 0-.075-.013-.12-.04l-.168-.095c-.066-.036-.144-.074-.232-.11s-.193-.067-.314-.09l-.228 3.548c.18-.012.332-.042.454-.09.122-.05.225-.1.31-.152.084-.053.154-.1.208-.144.054-.043.104-.065.15-.065.032 0 .06.007.086.02.026.015.046.033.06.055l.21.293c-.17.22-.39.39-.657.505-.268.116-.554.186-.86.207l-.053.815c-.006.06-.027.11-.064.156s-.087.068-.15.068h-.284l.064-1.045zm-1.058-2.406c0 .5.097.9.29 1.2.194.298.464.484.812.555l.228-3.54c-.44.035-.77.21-.994.522s-.336.734-.336 1.262z"/></g><g fill="#4E4E4E"><path d="M3.346 85.615h.934v.475c0 .05-.014.092-.04.126s-.07.05-.128.05h-.766v1.756h-.67v-1.755H-.06c-.058 0-.107-.018-.148-.054s-.068-.08-.08-.133l-.077-.424 2.997-4.306h.714v4.265zm-.67-2.752c0-.08 0-.168.006-.263.004-.095.013-.19.028-.29L.465 85.614h2.21v-2.752zM9.23 84.688c0 .583-.06 1.09-.175 1.516-.116.427-.274.78-.475 1.06s-.438.486-.71.623c-.275.136-.568.205-.88.205-.316 0-.61-.068-.88-.205-.27-.137-.507-.345-.707-.624-.2-.28-.358-.632-.473-1.06s-.172-.93-.172-1.515.058-1.09.172-1.518.272-.783.473-1.064c.2-.28.436-.49.707-.626s.564-.205.88-.205c.312 0 .605.068.88.205.272.137.51.345.71.626.2.28.36.636.475 1.064.116.43.174.934.174 1.518zm-.796 0c0-.51-.04-.937-.118-1.282-.08-.346-.186-.625-.32-.836s-.287-.362-.46-.454c-.176-.092-.358-.138-.547-.138-.19 0-.372.046-.547.138-.175.09-.328.243-.46.454-.132.21-.237.49-.316.836-.08.346-.118.773-.118 1.282 0 .51.04.936.117 1.28.08.345.184.623.316.833.132.212.285.363.46.455.175.09.357.137.546.137.188 0 .37-.046.545-.137.175-.092.33-.243.462-.454s.24-.488.318-.832c.08-.344.12-.77.12-1.28zM11.904 88.073c-.264-.03-.507-.108-.73-.23s-.414-.286-.575-.49c-.163-.206-.29-.45-.38-.732-.09-.28-.135-.6-.135-.953 0-.345.047-.662.142-.952.095-.29.232-.542.413-.757.18-.214.403-.384.667-.51.264-.125.566-.193.907-.202l.056-.833c.006-.062.027-.116.064-.16.038-.046.086-.068.146-.068h.288l-.07 1.084c.236.037.448.104.635.202.188.098.36.223.514.375l-.198.29c-.024.033-.046.06-.068.076s-.052.025-.092.025c-.035 0-.075-.013-.12-.04l-.168-.095c-.066-.037-.144-.075-.232-.112s-.193-.065-.314-.087l-.228 3.547c.18-.012.332-.042.454-.09.122-.05.225-.1.31-.152.084-.053.154-.1.208-.144.054-.043.104-.065.15-.065.032 0 .06.006.086.02.026.014.046.032.06.054l.21.293c-.17.22-.39.39-.657.505-.268.116-.554.186-.86.207l-.053.814c-.006.06-.027.11-.064.156s-.087.068-.15.068h-.284l.064-1.045zm-1.058-2.407c0 .5.097.9.29 1.2.194.298.464.484.812.555l.228-3.537c-.44.034-.77.208-.994.52s-.336.735-.336 1.263z"/></g><g fill="#4E4E4E"><path d="M3.76 44.465c0 .118-.035.215-.102.29s-.182.115-.346.115H1.377l-.284 1.75c.164-.04.318-.07.462-.086s.286-.026.424-.026c.32 0 .603.05.85.154s.453.244.617.424c.165.18.29.393.375.638.084.245.126.512.126.8 0 .355-.057.674-.17.96s-.27.53-.47.733c-.198.203-.433.36-.702.468-.27.108-.56.163-.873.163-.18 0-.354-.02-.52-.06-.168-.038-.323-.09-.468-.155-.145-.065-.28-.14-.402-.224-.124-.084-.232-.173-.327-.266l.237-.354c.052-.08.12-.12.202-.12.057 0 .122.023.193.07.072.05.16.103.262.162.104.06.225.113.364.16.14.05.304.073.497.073.216 0 .41-.037.582-.112s.32-.18.443-.32c.123-.137.218-.302.284-.495.065-.192.098-.408.098-.647 0-.207-.028-.395-.084-.562-.056-.167-.14-.31-.254-.428-.113-.118-.254-.21-.423-.274-.17-.065-.367-.098-.593-.098-.155 0-.316.014-.484.042-.168.028-.34.073-.514.135l-.48-.154.494-3.118h2.92v.363zM9.23 47.44c0 .582-.06 1.088-.175 1.515-.116.427-.274.78-.475 1.06s-.438.486-.71.623c-.275.136-.568.205-.88.205-.316 0-.61-.068-.88-.205-.27-.137-.507-.345-.707-.624-.2-.28-.358-.632-.473-1.06s-.172-.93-.172-1.515.058-1.09.172-1.52.272-.782.473-1.063c.2-.28.436-.49.707-.626s.564-.204.88-.204c.312 0 .605.068.88.205.272.138.51.346.71.627.2.28.36.636.475 1.064.116.43.174.936.174 1.52zm-.796 0c0-.51-.04-.938-.118-1.283-.08-.346-.185-.625-.318-.836s-.288-.36-.462-.453c-.176-.09-.358-.137-.548-.137-.19 0-.37.046-.546.138-.175.09-.328.243-.46.454-.132.21-.237.49-.316.836-.08.346-.118.773-.118 1.282 0 .51.04.936.118 1.28.08.345.184.623.316.833.132.21.285.362.46.454.175.09.357.137.546.137.19 0 .372-.046.546-.137.175-.092.33-.243.462-.454s.24-.49.318-.833c.08-.345.12-.77.12-1.28zM11.904 50.824c-.264-.03-.507-.108-.73-.23s-.414-.286-.575-.49c-.163-.206-.29-.45-.38-.732-.09-.282-.135-.6-.135-.954 0-.345.047-.662.142-.952.095-.29.232-.542.413-.757.18-.215.403-.385.667-.51.264-.126.566-.194.907-.203l.056-.833c.006-.062.027-.116.064-.16.038-.046.086-.068.146-.068h.288l-.07 1.084c.236.038.448.105.635.203.188.098.36.223.514.375l-.198.29c-.024.033-.046.06-.068.076s-.052.025-.092.025c-.035 0-.075-.014-.12-.04l-.168-.096c-.066-.037-.144-.075-.232-.112s-.193-.066-.314-.088l-.228 3.546c.18-.012.332-.042.454-.09.122-.05.225-.1.31-.152.084-.053.154-.1.208-.144.054-.043.104-.065.15-.065.032 0 .06.006.086.02.026.014.046.032.06.054l.21.293c-.17.22-.39.39-.657.505-.268.116-.554.186-.86.207l-.053.814c-.006.06-.027.11-.064.156s-.087.068-.15.068h-.284l.064-1.044zm-1.058-2.407c0 .5.097.9.29 1.2.194.298.464.484.812.555l.228-3.538c-.44.034-.77.208-.994.52s-.336.736-.336 1.263z"/></g><g fill="#4E4E4E"><path d="M1.575 9.353c-.058.074-.11.147-.16.218-.048.073-.097.143-.146.21.145-.107.307-.192.483-.252s.368-.09.574-.09c.25 0 .484.043.705.13.22.09.414.218.58.388.164.17.295.377.393.624.097.247.146.53.146.845 0 .307-.05.593-.154.856-.103.265-.247.495-.432.69-.185.196-.407.35-.667.46-.26.113-.545.17-.858.17-.31 0-.592-.055-.844-.162-.252-.107-.467-.26-.643-.457-.176-.196-.313-.435-.41-.716S0 11.67 0 11.322c0-.292.06-.603.18-.933.118-.332.308-.685.57-1.06l1.564-2.277c.04-.056.096-.103.166-.142.07-.038.15-.057.243-.057h.68l-1.828 2.5zm-.84 2.113c0 .214.03.41.087.586.058.177.142.33.252.456.11.127.245.226.404.296.16.07.34.104.544.104.206 0 .394-.036.56-.107.17-.07.312-.17.43-.297.12-.127.21-.278.276-.452.065-.173.097-.362.097-.567 0-.217-.032-.414-.095-.59s-.153-.323-.27-.446c-.115-.123-.253-.216-.414-.28-.16-.066-.337-.1-.53-.1-.206 0-.392.04-.558.115-.166.076-.308.18-.423.307-.116.128-.205.277-.267.446-.06.17-.092.347-.092.53zM9.23 10.19c0 .583-.06 1.09-.175 1.516-.116.427-.274.78-.475 1.06s-.438.486-.71.623c-.275.135-.568.204-.88.204-.316 0-.61-.068-.88-.205-.27-.138-.507-.346-.707-.625-.2-.28-.358-.632-.473-1.06s-.172-.93-.172-1.515.058-1.09.172-1.518.27-.782.472-1.063c.2-.282.436-.49.707-.627s.563-.205.878-.205c.313 0 .606.068.88.205.274.137.51.345.712.626.2.28.36.635.475 1.063.116.428.174.934.174 1.517zm-.796 0c0-.51-.04-.937-.118-1.282-.08-.346-.186-.625-.32-.836s-.287-.362-.46-.453c-.176-.093-.358-.14-.548-.14-.19 0-.37.047-.546.14-.174.09-.328.24-.46.452-.132.21-.237.49-.316.836-.08.346-.118.774-.118 1.282 0 .51.04.936.118 1.28.08.345.184.623.316.833.132.21.285.362.46.454.175.09.357.137.546.137.19 0 .372-.046.546-.137.175-.092.33-.243.462-.454s.24-.49.318-.833c.08-.344.12-.77.12-1.28zM11.904 13.575c-.264-.03-.507-.108-.73-.23s-.414-.286-.575-.49c-.163-.206-.29-.45-.38-.732-.09-.282-.135-.6-.135-.954 0-.346.047-.663.142-.953.095-.29.232-.542.413-.757.18-.214.403-.384.667-.51.264-.125.566-.193.907-.202l.056-.833c.006-.062.027-.116.064-.16.038-.046.086-.068.146-.068h.288l-.07 1.084c.236.04.448.106.635.204.188.098.36.223.514.375l-.197.287c-.023.034-.045.06-.067.077s-.052.025-.092.025c-.034 0-.074-.014-.12-.04-.046-.027-.102-.06-.167-.096-.066-.037-.144-.075-.232-.112s-.192-.066-.313-.088l-.228 3.547c.18-.01.33-.04.453-.09.122-.048.225-.098.31-.15.084-.054.154-.102.208-.145.055-.043.105-.065.15-.065.033 0 .06.007.087.02.026.015.046.033.06.055l.21.293c-.17.22-.39.39-.657.505-.267.116-.553.186-.86.207l-.052.815c-.006.06-.027.11-.064.156s-.087.07-.15.07h-.284l.064-1.045zm-1.058-2.407c0 .5.097.9.29 1.2.194.298.464.484.812.555l.228-3.538c-.44.034-.77.208-.994.52s-.336.736-.336 1.263z"/></g><g fill="#4E4E4E"><path d="M11.784 248.14h1.535v-4.755c0-.137.004-.28.014-.434l-1.275 1.067c-.044.035-.087.057-.13.066-.044.008-.084.008-.12.002-.038-.008-.072-.02-.104-.04s-.056-.04-.072-.063l-.28-.373 2.135-1.798h.724v6.326h1.41v.662h-3.84v-.66zM19.55 246.02l.204-.267c.063-.084.123-.168.18-.252-.183.144-.39.25-.62.327-.23.074-.473.11-.73.11-.27 0-.526-.042-.767-.13-.242-.088-.455-.217-.638-.387-.185-.172-.33-.38-.44-.63s-.162-.532-.162-.853c0-.305.06-.59.175-.855.116-.268.28-.498.49-.697.21-.197.46-.354.75-.467s.608-.17.955-.17c.343 0 .655.055.935.166.28.11.52.264.72.46.2.2.354.437.463.712.108.275.162.58.162.914 0 .2-.02.393-.057.572-.038.18-.093.357-.164.53-.072.175-.16.347-.263.517s-.22.343-.35.522l-1.745 2.45c-.043.064-.105.112-.185.15s-.172.056-.275.056h-.82l2.18-2.777zm.824-2.12c0-.217-.036-.414-.107-.592-.072-.176-.17-.326-.297-.45-.127-.122-.277-.218-.453-.284-.175-.066-.367-.1-.578-.1-.22 0-.42.035-.6.105-.18.067-.336.165-.466.288-.13.123-.23.27-.3.443s-.105.36-.105.565c0 .22.03.418.097.59.065.174.158.32.28.44.122.12.27.212.445.272.175.063.37.094.588.094.24 0 .452-.038.637-.114s.34-.178.468-.305c.126-.124.223-.27.29-.437.066-.163.1-.335.1-.513zM24.53 241.75c.302 0 .585.043.85.13.262.09.49.216.684.384.193.166.345.37.455.61.11.24.164.513.164.817 0 .26-.04.5-.12.724-.08.223-.188.434-.325.635s-.295.397-.474.587c-.178.19-.367.385-.567.58l-1.89 1.88c.132-.038.268-.065.404-.087s.268-.03.395-.03h2.4c.096 0 .172.026.23.08s.084.128.084.216v.525h-4.78v-.296c0-.063.013-.125.04-.19.027-.065.068-.124.125-.18l2.294-2.243c.19-.187.363-.368.52-.542.156-.174.29-.348.4-.523.11-.174.195-.352.255-.53.06-.183.09-.374.09-.58 0-.202-.034-.382-.1-.536-.068-.155-.16-.282-.274-.382-.115-.102-.25-.176-.407-.227s-.326-.075-.506-.075c-.184 0-.352.025-.505.078s-.29.125-.408.217c-.12.092-.218.2-.297.328-.08.127-.137.266-.17.418-.04.113-.094.19-.162.227-.068.037-.165.05-.288.03l-.465-.077c.046-.316.137-.598.272-.844.135-.244.305-.45.51-.615s.44-.29.703-.377c.262-.087.547-.13.854-.13zM32.588 241.828v.39c0 .11-.012.2-.037.272-.024.07-.048.13-.072.18l-2.97 5.824c-.043.084-.104.156-.18.217-.077.06-.178.09-.305.09h-.64l3.01-5.75c.043-.08.087-.157.132-.224.045-.068.096-.135.153-.195h-3.74c-.057 0-.106-.02-.15-.065-.043-.043-.065-.092-.065-.148v-.588h4.865z"/></g><g fill="#4E4E4E"><path d="M42.463 248.14h1.535v-4.755c0-.137.005-.28.015-.434l-1.275 1.067c-.043.035-.086.057-.13.066-.043.008-.083.008-.12.002-.037-.008-.07-.02-.103-.04s-.056-.04-.072-.063l-.28-.373 2.135-1.798h.725v6.326h1.41v.662h-3.84v-.66zM50.228 246.02c.073-.093.142-.183.205-.267.063-.084.123-.168.18-.252-.183.144-.39.25-.62.327-.23.074-.473.11-.73.11-.27 0-.526-.042-.767-.13-.242-.088-.455-.217-.638-.387-.184-.172-.33-.38-.438-.63s-.163-.532-.163-.853c0-.305.06-.59.175-.855.116-.268.28-.498.49-.697.21-.197.46-.354.75-.467s.608-.17.955-.17c.343 0 .655.055.935.166.28.11.52.264.72.46.2.2.354.437.463.712.108.275.162.58.162.914 0 .2-.02.393-.057.572-.04.18-.094.357-.165.53-.072.175-.16.347-.263.517s-.22.343-.35.522l-1.745 2.45c-.043.064-.105.112-.185.15s-.172.056-.275.056h-.82l2.18-2.777zm.825-2.12c0-.217-.036-.414-.107-.592-.072-.176-.17-.326-.297-.45-.128-.122-.278-.218-.454-.284-.175-.066-.367-.1-.578-.1-.22 0-.42.035-.6.105-.18.067-.335.165-.465.288-.13.123-.23.27-.3.443s-.105.36-.105.565c0 .22.032.418.098.59.065.174.158.32.28.44.122.12.27.212.445.272.176.063.372.094.59.094.24 0 .45-.038.636-.114s.34-.178.468-.305c.126-.124.223-.27.29-.437.066-.163.1-.335.1-.513zM55.243 241.75c.303 0 .583.043.84.127.256.084.478.203.663.36s.33.343.432.563c.104.22.155.465.155.734 0 .22-.03.418-.087.592-.06.174-.142.326-.25.457-.108.13-.24.242-.393.334-.153.09-.325.164-.515.22.467.118.817.32 1.053.603.236.28.354.635.354 1.06 0 .32-.063.61-.188.866-.125.258-.296.475-.513.654-.217.182-.47.318-.757.414-.29.096-.598.145-.928.145-.38 0-.705-.048-.975-.14-.27-.094-.498-.22-.685-.383-.187-.162-.34-.354-.46-.576-.12-.222-.222-.462-.305-.722l.385-.156c.1-.04.198-.053.292-.033.095.02.164.07.208.16.043.09.098.198.163.325s.155.248.27.365c.112.115.256.215.432.297.175.08.397.12.667.12.25 0 .468-.038.656-.118s.345-.185.47-.31c.125-.127.22-.268.282-.424s.095-.31.095-.463c0-.188-.025-.36-.075-.516-.05-.154-.143-.29-.28-.404-.137-.113-.324-.2-.563-.268-.238-.064-.544-.096-.917-.096v-.63c.307-.002.567-.035.782-.098.215-.06.39-.145.525-.252.135-.107.233-.234.295-.385.062-.148.092-.314.092-.496 0-.202-.032-.378-.098-.526-.065-.148-.154-.273-.267-.37-.114-.097-.248-.17-.403-.218-.155-.05-.322-.074-.502-.074s-.348.025-.502.078-.292.125-.41.217-.217.2-.297.328-.137.266-.17.418c-.043.113-.098.19-.163.227s-.16.05-.282.03l-.465-.077c.047-.316.137-.598.27-.844.133-.245.303-.45.508-.616.206-.166.44-.29.706-.377.264-.084.55-.127.857-.127zM60.817 241.75c.303 0 .586.043.85.13.263.09.492.216.685.384.193.166.345.37.455.61.11.24.165.513.165.817 0 .26-.04.5-.12.724-.08.223-.188.434-.325.635s-.294.397-.473.587c-.178.19-.367.385-.567.58l-1.89 1.88c.133-.038.27-.065.405-.087s.268-.03.395-.03h2.4c.097 0 .173.026.23.08s.085.128.085.216v.525h-4.78v-.296c0-.063.013-.125.04-.19.027-.065.068-.124.125-.18l2.295-2.243c.19-.187.363-.368.52-.542.156-.174.29-.348.4-.523.11-.174.195-.352.255-.53.06-.183.09-.374.09-.58 0-.202-.033-.382-.1-.536-.067-.155-.158-.282-.273-.382-.115-.102-.25-.176-.407-.227s-.325-.075-.505-.075c-.184 0-.352.025-.505.078s-.29.125-.407.217c-.12.092-.218.2-.297.328-.08.127-.137.266-.17.418-.04.113-.094.19-.162.227-.067.037-.164.05-.287.03l-.465-.077c.046-.316.137-.598.272-.844.135-.244.305-.45.51-.615s.44-.29.703-.377c.263-.087.548-.13.854-.13z"/></g><g fill="#4E4E4E"><path d="M73.14 248.14h1.535v-4.755c0-.137.005-.28.015-.434l-1.275 1.067c-.043.035-.086.057-.13.066-.043.008-.083.008-.12.002-.037-.008-.07-.02-.103-.04s-.056-.04-.072-.063l-.28-.373 2.135-1.798h.725v6.326h1.41v.662h-3.84v-.66zM80.905 246.02c.073-.093.142-.183.205-.267.063-.084.123-.168.18-.252-.183.144-.39.25-.62.327-.23.074-.473.11-.73.11-.27 0-.526-.042-.767-.13-.242-.088-.455-.217-.638-.387-.184-.172-.33-.38-.438-.63s-.163-.532-.163-.853c0-.305.06-.59.175-.855.115-.268.28-.498.49-.697.21-.197.46-.354.75-.467s.607-.17.954-.17c.343 0 .655.055.935.166.28.11.52.264.72.46.2.2.353.437.462.712.108.275.162.58.162.914 0 .2-.02.393-.057.572-.04.18-.094.357-.165.53-.072.175-.16.347-.263.517s-.22.343-.35.522l-1.746 2.45c-.043.064-.105.112-.185.15s-.173.056-.276.056h-.82l2.18-2.777zm.825-2.12c0-.217-.036-.414-.107-.592-.072-.176-.17-.326-.297-.45-.127-.122-.277-.218-.453-.284-.175-.066-.367-.1-.578-.1-.22 0-.42.035-.6.105-.18.067-.335.165-.465.288-.13.123-.23.27-.3.443s-.105.36-.105.565c0 .22.032.418.098.59.065.174.158.32.28.44.122.12.27.212.445.272.175.063.37.094.588.094.24 0 .452-.038.637-.114s.34-.178.468-.305c.127-.124.224-.27.29-.437.067-.163.1-.335.1-.513zM85.92 241.75c.303 0 .583.043.84.127.256.084.478.203.663.36s.33.343.432.563c.104.22.155.465.155.734 0 .22-.03.418-.087.592-.06.174-.142.326-.25.457-.108.13-.24.242-.393.334-.153.09-.325.164-.515.22.467.118.817.32 1.053.603.235.28.353.635.353 1.06 0 .32-.062.61-.187.866-.125.258-.296.475-.513.654-.217.182-.47.318-.757.414-.29.096-.598.145-.928.145-.38 0-.705-.048-.975-.14-.27-.094-.498-.22-.685-.383-.187-.162-.34-.354-.46-.576-.12-.222-.222-.462-.305-.722l.385-.156c.1-.04.198-.053.292-.033.095.02.164.07.208.16.043.09.098.198.163.325s.154.248.268.365c.113.115.257.215.433.297.174.08.396.12.666.12.25 0 .47-.038.657-.118s.345-.185.47-.31c.125-.127.22-.268.282-.424s.095-.31.095-.463c0-.188-.025-.36-.075-.516-.05-.154-.143-.29-.28-.404-.137-.113-.324-.2-.563-.268-.238-.064-.544-.096-.917-.096v-.63c.307-.002.567-.035.782-.098.215-.06.39-.145.525-.252.135-.107.233-.234.295-.385.062-.148.092-.314.092-.496 0-.202-.033-.378-.1-.526-.064-.148-.153-.273-.266-.37-.114-.097-.248-.17-.403-.218-.154-.05-.32-.074-.5-.074s-.35.025-.503.078-.292.125-.41.217-.217.2-.297.328-.137.266-.17.418c-.043.113-.098.19-.163.227s-.16.05-.282.03l-.465-.077c.047-.316.137-.598.27-.844.133-.245.303-.45.508-.616.205-.166.44-.29.705-.377.264-.084.55-.127.857-.127zM93.944 241.828v.39c0 .11-.012.2-.037.272-.025.07-.05.13-.073.18l-2.97 5.824c-.043.084-.104.156-.18.217-.077.06-.178.09-.305.09h-.64l3.01-5.75c.042-.08.086-.157.13-.224.046-.068.097-.135.154-.195h-3.74c-.057 0-.106-.02-.15-.065-.043-.043-.065-.092-.065-.148v-.588h4.864z"/></g><g fill="#4E4E4E"><path d="M103.818 248.14h1.535v-4.755c0-.137.005-.28.015-.434l-1.275 1.067c-.043.035-.086.057-.13.066-.043.008-.083.008-.12.002-.037-.008-.07-.02-.103-.04s-.056-.04-.072-.063l-.28-.373 2.135-1.798h.725v6.326h1.41v.662h-3.84v-.66zM111.583 246.02c.073-.093.142-.183.205-.267.063-.084.123-.168.18-.252-.183.144-.39.25-.62.327-.23.074-.473.11-.73.11-.27 0-.526-.042-.767-.13-.24-.088-.454-.217-.637-.387-.184-.172-.33-.38-.438-.63s-.163-.532-.163-.853c0-.305.06-.59.175-.855.116-.268.28-.498.49-.697.21-.197.46-.354.75-.467s.608-.17.955-.17c.343 0 .655.055.935.166.28.11.52.264.72.46.2.2.354.437.463.712.108.275.162.58.162.914 0 .2-.02.393-.057.572-.04.18-.094.357-.165.53-.072.175-.16.347-.263.517s-.22.343-.35.522l-1.745 2.45c-.043.064-.105.112-.185.15s-.172.056-.275.056h-.82l2.18-2.777zm.825-2.12c0-.217-.036-.414-.107-.592-.07-.176-.17-.326-.296-.45-.127-.122-.277-.218-.453-.284-.174-.066-.366-.1-.577-.1-.22 0-.42.035-.6.105-.18.067-.335.165-.465.288-.13.123-.23.27-.3.443s-.105.36-.105.565c0 .22.032.418.098.59.066.174.16.32.28.44.123.12.27.212.446.272.175.063.37.094.588.094.24 0 .452-.038.637-.114s.342-.178.47-.305c.125-.124.222-.27.29-.437.065-.163.098-.335.098-.513zM118.038 246.285h1.085v.496c0 .052-.016.097-.048.132s-.08.055-.147.055h-.89v1.834h-.78v-1.833h-3.18c-.067 0-.125-.02-.173-.057s-.08-.084-.092-.14l-.09-.442 3.485-4.5h.83v4.457zm-.78-2.875c0-.086 0-.178.007-.275.005-.1.016-.2.032-.305l-2.61 3.455h2.57v-2.875zM122.172 241.75c.303 0 .586.043.85.13.263.09.492.216.685.384.193.166.345.37.455.61.11.24.165.513.165.817 0 .26-.04.5-.12.724-.08.223-.188.434-.325.635s-.294.397-.473.587c-.18.19-.368.385-.568.58l-1.89 1.88c.133-.038.27-.065.405-.087s.268-.03.395-.03h2.4c.097 0 .173.026.23.08s.085.128.085.216v.525h-4.78v-.296c0-.063.013-.125.04-.19.027-.065.068-.124.125-.18l2.295-2.243c.19-.187.363-.368.52-.542.156-.174.29-.348.4-.523.11-.174.195-.352.255-.53.06-.183.09-.374.09-.58 0-.202-.033-.382-.1-.536-.067-.155-.158-.282-.273-.382-.116-.102-.25-.176-.408-.227s-.325-.075-.505-.075c-.184 0-.352.025-.505.078s-.29.125-.407.217c-.12.092-.218.2-.297.328-.08.127-.137.266-.17.418-.04.113-.094.19-.162.227-.068.037-.165.05-.288.03l-.465-.077c.046-.316.137-.598.272-.844.135-.244.305-.45.51-.615s.44-.29.703-.377c.263-.087.548-.13.854-.13z"/></g><g fill="#4E4E4E"><path d="M134.497 248.14h1.535v-4.755c0-.137.005-.28.015-.434l-1.275 1.067c-.043.035-.086.057-.13.066-.043.008-.083.008-.12.002-.037-.008-.07-.02-.103-.04s-.057-.04-.073-.063l-.28-.373 2.135-1.798h.725v6.326h1.41v.662h-3.84v-.66zM142.262 246.02c.073-.093.142-.183.205-.267.063-.084.123-.168.18-.252-.183.144-.39.25-.62.327-.23.074-.473.11-.73.11-.27 0-.526-.042-.767-.13-.242-.088-.455-.217-.638-.387-.184-.172-.33-.38-.438-.63s-.163-.532-.163-.853c0-.305.06-.59.176-.855.116-.268.28-.498.49-.697.21-.197.46-.354.75-.467s.608-.17.955-.17c.344 0 .656.055.936.166.28.11.52.264.72.46.2.2.354.437.463.712.107.275.16.58.16.914 0 .2-.018.393-.056.572-.04.18-.094.357-.165.53-.073.175-.16.347-.264.517s-.22.343-.35.522l-1.745 2.45c-.042.064-.104.112-.184.15s-.172.056-.275.056h-.82l2.182-2.777zm.824-2.12c0-.217-.036-.414-.107-.592-.073-.176-.172-.326-.298-.45-.127-.122-.277-.218-.453-.284-.176-.066-.368-.1-.58-.1-.22 0-.42.035-.6.105-.18.067-.334.165-.464.288-.13.123-.23.27-.3.443s-.105.36-.105.565c0 .22.033.418.1.59.064.174.157.32.28.44.12.12.27.212.444.272.175.063.37.094.588.094.24 0 .452-.038.637-.114s.34-.178.467-.305c.126-.124.223-.27.29-.437.066-.163.1-.335.1-.513zM148.716 246.285h1.085v.496c0 .052-.015.097-.047.132s-.08.055-.147.055h-.89v1.834h-.78v-1.833h-3.18c-.067 0-.125-.02-.173-.057s-.08-.084-.092-.14l-.09-.442 3.486-4.5h.83v4.457zm-.78-2.875c0-.086.002-.178.008-.275.005-.1.016-.2.032-.305l-2.61 3.455h2.57v-2.875zM155.3 241.828v.39c0 .11-.01.2-.036.272-.025.07-.05.13-.073.18l-2.97 5.824c-.042.084-.103.156-.18.217-.076.06-.177.09-.304.09h-.64l3.01-5.75c.043-.08.087-.157.132-.224.045-.068.096-.135.153-.195h-3.74c-.056 0-.105-.02-.15-.065-.042-.043-.064-.092-.064-.148v-.588h4.865z"/></g><g fill="#4E4E4E"><path d="M165.174 248.14h1.535v-4.755c0-.137.004-.28.014-.434l-1.275 1.067c-.044.035-.087.057-.13.066-.044.008-.084.008-.12.002-.038-.008-.072-.02-.104-.04s-.056-.04-.072-.063l-.28-.373 2.135-1.798h.724v6.326h1.41v.662h-3.84v-.66zM172.94 246.02l.204-.267c.063-.084.123-.168.18-.252-.183.144-.39.25-.62.327-.23.074-.473.11-.73.11-.27 0-.526-.042-.767-.13-.242-.088-.455-.217-.638-.387-.185-.172-.33-.38-.44-.63s-.162-.532-.162-.853c0-.305.06-.59.175-.855.116-.268.28-.498.49-.697.21-.197.46-.354.75-.467s.608-.17.955-.17c.343 0 .655.055.935.166.28.11.52.264.72.46.2.2.354.437.463.712.108.275.162.58.162.914 0 .2-.02.393-.057.572-.038.18-.093.357-.164.53-.072.175-.16.347-.263.517s-.22.343-.35.522l-1.745 2.45c-.043.064-.105.112-.185.15s-.172.056-.275.056h-.82l2.18-2.777zm.824-2.12c0-.217-.036-.414-.107-.592-.072-.176-.17-.326-.297-.45-.127-.122-.277-.218-.453-.284-.175-.066-.367-.1-.578-.1-.22 0-.42.035-.6.105-.18.067-.336.165-.466.288-.13.123-.23.27-.3.443s-.105.36-.105.565c0 .22.03.418.097.59.065.174.158.32.28.44.122.12.27.212.445.272.175.063.37.094.588.094.24 0 .452-.038.637-.114s.34-.178.468-.305c.126-.124.223-.27.29-.437.065-.163.1-.335.1-.513zM179.874 242.207c0 .123-.04.225-.118.305s-.212.12-.402.12h-2.25l-.33 1.83c.19-.044.37-.073.538-.09.168-.02.333-.028.492-.028.374 0 .704.053.99.16s.526.254.717.443c.193.188.338.41.436.666s.147.535.147.838c0 .37-.066.704-.197 1.003-.132.3-.313.553-.545.766-.23.212-.503.374-.817.487-.313.115-.65.172-1.015.172-.21 0-.412-.022-.605-.064-.193-.04-.375-.094-.542-.162-.167-.068-.323-.146-.467-.234-.143-.086-.27-.18-.38-.277l.275-.37c.06-.083.138-.126.235-.126.067 0 .142.025.225.076s.185.105.305.168c.12.062.26.118.422.17s.354.073.578.073c.25 0 .475-.037.675-.115.2-.078.372-.19.515-.334.143-.145.253-.316.33-.518s.115-.428.115-.678c0-.217-.032-.412-.097-.588-.064-.176-.163-.324-.294-.447-.13-.123-.295-.22-.492-.287s-.427-.102-.69-.102c-.18 0-.368.014-.563.043-.194.03-.394.076-.597.14l-.56-.16.575-3.26h3.395v.38zM183.528 241.75c.303 0 .586.043.85.13.263.09.492.216.685.384.193.166.345.37.455.61.11.24.165.513.165.817 0 .26-.04.5-.12.724-.08.223-.188.434-.325.635s-.294.397-.473.587c-.178.19-.367.385-.567.58l-1.89 1.88c.133-.038.27-.065.405-.087s.268-.03.395-.03h2.4c.097 0 .173.026.23.08s.085.128.085.216v.525h-4.78v-.296c0-.063.013-.125.04-.19.027-.065.068-.124.125-.18l2.295-2.243c.19-.187.363-.368.52-.542.156-.174.29-.348.4-.523.11-.174.195-.352.255-.53.06-.183.09-.374.09-.58 0-.202-.033-.382-.1-.536-.067-.155-.158-.282-.273-.382-.115-.102-.25-.176-.407-.227s-.325-.075-.505-.075c-.184 0-.352.025-.505.078s-.29.125-.407.217c-.118.092-.217.2-.296.328-.08.127-.137.266-.17.418-.04.113-.094.19-.162.227-.068.037-.165.05-.288.03l-.465-.077c.045-.316.136-.598.27-.844.136-.244.306-.45.51-.615s.44-.29.704-.377c.263-.087.548-.13.854-.13z"/></g><g fill="#4E4E4E"><path d="M195.852 248.14h1.535v-4.755c0-.137.005-.28.015-.434l-1.275 1.067c-.043.035-.086.057-.13.066-.043.008-.083.008-.12.002-.037-.008-.07-.02-.103-.04s-.056-.04-.072-.063l-.28-.373 2.135-1.798h.725v6.326h1.41v.662h-3.84v-.66zM203.617 246.02c.073-.093.142-.183.205-.267.063-.084.123-.168.18-.252-.183.144-.39.25-.62.327-.23.074-.473.11-.73.11-.27 0-.526-.042-.767-.13-.242-.088-.455-.217-.638-.387-.184-.172-.33-.38-.438-.63s-.164-.532-.164-.853c0-.305.06-.59.175-.855.117-.268.28-.498.49-.697.21-.197.46-.354.75-.467s.61-.17.956-.17c.343 0 .655.055.935.166.28.11.52.264.72.46.2.2.355.437.464.712.108.275.162.58.162.914 0 .2-.02.393-.057.572-.04.18-.095.357-.166.53-.072.175-.16.347-.263.517s-.22.343-.35.522l-1.744 2.45c-.043.064-.105.112-.185.15s-.17.056-.274.056h-.82l2.18-2.777zm.825-2.12c0-.217-.036-.414-.107-.592-.072-.176-.17-.326-.297-.45-.127-.122-.277-.218-.453-.284-.175-.066-.367-.1-.578-.1-.22 0-.42.035-.6.105-.18.067-.335.165-.465.288-.13.123-.23.27-.3.443s-.105.36-.105.565c0 .22.032.418.098.59.065.174.158.32.28.44.122.12.27.212.445.272.175.063.37.094.588.094.24 0 .452-.038.637-.114s.34-.178.468-.305c.126-.124.223-.27.29-.437.066-.163.1-.335.1-.513zM210.552 242.207c0 .123-.04.225-.118.305s-.212.12-.402.12h-2.25l-.33 1.83c.19-.044.37-.073.538-.09.168-.02.333-.028.492-.028.374 0 .704.053.99.16s.526.254.717.443c.19.188.336.41.434.666s.147.535.147.838c0 .37-.065.704-.196 1.003-.132.3-.313.553-.545.766-.233.212-.505.374-.82.487-.312.115-.65.172-1.014.172-.21 0-.412-.022-.605-.064-.192-.04-.374-.094-.54-.162-.17-.068-.325-.146-.47-.234-.142-.086-.27-.18-.38-.277l.276-.37c.06-.083.138-.126.235-.126.068 0 .143.025.226.076s.185.105.305.168c.12.062.262.118.423.17s.354.073.578.073c.25 0 .476-.037.676-.115.2-.078.372-.19.515-.334.144-.145.254-.316.33-.518s.116-.428.116-.678c0-.217-.032-.412-.097-.588-.066-.176-.165-.324-.296-.447-.13-.123-.295-.22-.492-.287s-.427-.102-.69-.102c-.18 0-.368.014-.563.043-.196.03-.396.076-.6.14l-.56-.16.576-3.26h3.395v.38zM216.656 241.828v.39c0 .11-.012.2-.037.272-.026.07-.05.13-.074.18l-2.97 5.824c-.043.084-.104.156-.18.217-.077.06-.178.09-.305.09h-.64l3.01-5.75c.044-.08.088-.157.133-.224.045-.068.096-.135.153-.195h-3.74c-.057 0-.106-.02-.15-.065-.043-.043-.065-.092-.065-.148v-.588h4.866z"/></g><g fill="#4E4E4E"><path d="M226.53 248.14h1.535v-4.755c0-.137.005-.28.015-.434l-1.275 1.067c-.043.035-.086.057-.13.066-.043.008-.083.008-.12.002-.037-.008-.07-.02-.103-.04s-.056-.04-.072-.063l-.28-.373 2.135-1.798h.725v6.326h1.41v.662h-3.84v-.66zM234.295 246.02c.073-.093.142-.183.205-.267.063-.084.123-.168.18-.252-.183.144-.39.25-.62.327-.23.074-.473.11-.73.11-.27 0-.526-.042-.767-.13-.242-.088-.455-.217-.638-.387-.184-.172-.33-.38-.438-.63s-.163-.532-.163-.853c0-.305.06-.59.175-.855.115-.268.28-.498.49-.697.21-.197.46-.354.75-.467s.607-.17.954-.17c.343 0 .655.055.935.166.28.11.52.264.72.46.2.2.353.437.462.712.108.275.162.58.162.914 0 .2-.02.393-.057.572-.04.18-.094.357-.165.53-.072.175-.16.347-.263.517s-.22.343-.35.522l-1.746 2.45c-.043.064-.105.112-.185.15s-.173.056-.276.056h-.82l2.18-2.777zm.825-2.12c0-.217-.036-.414-.107-.592-.072-.176-.17-.326-.297-.45-.127-.122-.277-.218-.453-.284-.175-.066-.367-.1-.578-.1-.22 0-.42.035-.6.105-.18.067-.335.165-.465.288-.13.123-.23.27-.3.443s-.105.36-.105.565c0 .22.032.418.098.59.065.174.158.32.28.44.122.12.27.212.445.272.175.063.37.094.588.094.24 0 .452-.038.637-.114s.34-.178.468-.305c.127-.124.224-.27.29-.437.067-.163.1-.335.1-.513zM238.69 244.44c-.067.08-.128.155-.185.23l-.17.22c.17-.114.357-.204.563-.267s.427-.096.667-.096c.29 0 .563.047.82.14.257.093.48.228.672.403.192.178.344.395.458.652s.17.553.17.883c0 .322-.06.62-.18.896s-.288.517-.502.72c-.215.205-.474.365-.775.482-.302.117-.634.176-.998.176-.36 0-.687-.057-.98-.168-.293-.113-.542-.27-.748-.477-.205-.207-.363-.457-.475-.75s-.167-.623-.167-.986c0-.305.07-.63.208-.975s.36-.715.663-1.107l1.82-2.38c.048-.058.112-.106.193-.147s.176-.06.283-.06h.79l-2.126 2.613zm-.975 2.21c0 .223.033.428.1.613.066.184.164.344.292.477s.285.234.47.31c.185.07.396.108.633.108.24 0 .458-.037.652-.11.195-.077.362-.18.5-.314s.245-.29.32-.47c.075-.183.113-.382.113-.595 0-.23-.037-.435-.11-.618-.074-.182-.178-.338-.313-.467-.135-.127-.296-.227-.483-.293-.188-.068-.393-.104-.616-.104-.24 0-.457.04-.65.12-.193.08-.358.187-.493.32s-.237.29-.31.468c-.07.177-.105.363-.105.554zM244.885 241.75c.303 0 .586.043.85.13.263.09.492.216.685.384.193.166.345.37.455.61.11.24.165.513.165.817 0 .26-.04.5-.12.724-.08.223-.188.434-.325.635s-.294.397-.473.587c-.178.19-.367.385-.567.58l-1.89 1.88c.133-.038.27-.065.405-.087s.268-.03.395-.03h2.4c.097 0 .173.026.23.08s.085.128.085.216v.525h-4.78v-.296c0-.063.013-.125.04-.19.027-.065.068-.124.125-.18l2.295-2.243c.19-.187.363-.368.52-.542.156-.174.29-.348.4-.523.11-.174.195-.352.255-.53.06-.183.09-.374.09-.58 0-.202-.033-.382-.1-.536-.067-.155-.158-.282-.273-.382-.115-.102-.25-.176-.407-.227s-.325-.075-.505-.075c-.184 0-.352.025-.505.078s-.29.125-.407.217c-.12.092-.218.2-.297.328-.08.127-.136.266-.17.418-.04.113-.093.19-.16.227-.07.037-.166.05-.29.03l-.464-.077c.046-.316.137-.598.272-.844.135-.244.305-.45.51-.615s.44-.29.703-.377c.263-.087.548-.13.855-.13z"/></g><g fill="#4E4E4E"><path d="M257.208 248.14h1.535v-4.755c0-.137.005-.28.015-.434l-1.275 1.067c-.043.035-.086.057-.13.066-.043.008-.083.008-.12.002-.037-.008-.07-.02-.103-.04s-.056-.04-.072-.063l-.28-.373 2.135-1.798h.725v6.326h1.41v.662h-3.84v-.66zM264.973 246.02c.073-.093.142-.183.205-.267.063-.084.123-.168.18-.252-.183.144-.39.25-.62.327-.23.074-.473.11-.73.11-.27 0-.526-.042-.767-.13-.24-.088-.454-.217-.637-.387-.184-.172-.33-.38-.438-.63s-.163-.532-.163-.853c0-.305.06-.59.175-.855.116-.268.28-.498.49-.697.21-.197.46-.354.75-.467s.608-.17.955-.17c.343 0 .655.055.935.166.28.11.52.264.72.46.2.2.354.437.463.712.108.275.162.58.162.914 0 .2-.02.393-.057.572-.04.18-.094.357-.165.53-.072.175-.16.347-.263.517s-.22.343-.35.522l-1.745 2.45c-.043.064-.105.112-.185.15s-.172.056-.275.056h-.82l2.18-2.777zm.825-2.12c0-.217-.036-.414-.107-.592-.07-.176-.17-.326-.296-.45-.127-.122-.277-.218-.453-.284-.174-.066-.366-.1-.577-.1-.22 0-.42.035-.6.105-.18.067-.335.165-.465.288-.13.123-.23.27-.3.443s-.105.36-.105.565c0 .22.032.418.098.59.066.174.16.32.28.44.123.12.27.212.446.272.175.063.37.094.588.094.24 0 .452-.038.637-.114s.342-.178.47-.305c.125-.124.222-.27.29-.437.065-.163.098-.335.098-.513zM269.368 244.44c-.067.08-.128.155-.185.23l-.17.22c.17-.114.357-.204.563-.267s.427-.096.667-.096c.29 0 .563.047.82.14.257.093.48.228.672.403.192.178.344.395.458.652s.17.553.17.883c0 .322-.06.62-.18.896s-.288.517-.502.72c-.214.205-.473.365-.774.482-.302.117-.634.176-.998.176-.36 0-.687-.057-.98-.168-.293-.113-.542-.27-.748-.477-.205-.207-.363-.457-.475-.75s-.167-.623-.167-.986c0-.305.07-.63.208-.975s.36-.715.663-1.107l1.82-2.38c.046-.058.11-.106.19-.147s.177-.06.284-.06h.79l-2.126 2.613zm-.975 2.21c0 .223.033.428.1.613.066.184.164.344.292.477s.285.234.47.31c.185.07.396.108.633.108.24 0 .458-.037.652-.11.195-.077.362-.18.5-.314s.245-.29.32-.47c.075-.183.113-.382.113-.595 0-.23-.037-.435-.11-.618-.074-.182-.178-.338-.313-.467-.135-.127-.296-.227-.483-.293-.187-.068-.392-.104-.615-.104-.24 0-.457.04-.65.12-.193.08-.358.187-.493.32s-.24.29-.31.468c-.072.177-.107.363-.107.554zM278.012 241.828v.39c0 .11-.012.2-.037.272-.025.07-.05.13-.073.18l-2.97 5.824c-.043.084-.104.156-.18.217-.077.06-.178.09-.305.09h-.64l3.01-5.75c.043-.08.087-.157.132-.224.044-.068.095-.135.152-.195h-3.74c-.057 0-.106-.02-.15-.065-.043-.043-.065-.092-.065-.148v-.588h4.865z"/></g><g fill="#4E4E4E"><path d="M287.887 248.14h1.535v-4.755c0-.137.004-.28.014-.434l-1.274 1.067c-.044.035-.087.057-.13.066-.043.008-.084.008-.12.002-.036-.008-.07-.02-.103-.04s-.057-.04-.073-.063l-.28-.373 2.136-1.798h.725v6.326h1.41v.662h-3.84v-.66zM295.65 246.02c.074-.093.143-.183.205-.267.064-.084.123-.168.18-.252-.182.144-.39.25-.62.327-.23.074-.472.11-.73.11-.27 0-.524-.042-.766-.13s-.455-.217-.64-.387c-.183-.172-.328-.38-.437-.63s-.162-.532-.162-.853c0-.305.06-.59.176-.855.116-.268.28-.498.49-.697.21-.197.46-.354.75-.467.29-.113.608-.17.954-.17.344 0 .654.055.936.166.28.11.52.264.72.46.2.2.354.437.462.712.11.275.162.58.162.914 0 .2-.018.393-.057.572s-.094.357-.166.53c-.07.175-.158.347-.262.517s-.22.343-.35.522l-1.744 2.45c-.043.064-.104.112-.185.15s-.172.056-.275.056h-.82l2.18-2.777zm.827-2.12c0-.217-.037-.414-.107-.592-.072-.176-.172-.326-.3-.45s-.276-.218-.45-.284c-.176-.066-.367-.1-.578-.1-.22 0-.42.035-.6.105-.18.067-.335.165-.465.288-.13.123-.23.27-.3.443-.07.173-.105.36-.105.565 0 .22.032.418.098.59.065.174.158.32.28.44.12.12.27.212.444.272.175.063.37.094.588.094.24 0 .452-.038.638-.114.184-.076.34-.178.467-.305.127-.124.223-.27.29-.437.066-.163.1-.335.1-.513zM303.082 241.828v.39c0 .11-.014.2-.04.272-.022.07-.048.13-.07.18l-2.97 5.824c-.045.084-.104.156-.182.217-.076.06-.178.09-.305.09h-.64l3.01-5.75c.044-.08.09-.157.134-.224.044-.068.095-.135.15-.195h-3.74c-.056 0-.106-.02-.15-.065-.042-.043-.063-.092-.063-.148v-.588h4.865zM306.24 241.75c.303 0 .588.043.85.13.264.09.492.216.686.384.193.166.346.37.455.61.11.24.167.513.167.817 0 .26-.04.5-.12.724s-.19.434-.325.635-.295.397-.473.587c-.18.19-.368.385-.57.58l-1.888 1.88c.133-.038.268-.065.404-.087s.268-.03.395-.03h2.4c.097 0 .175.026.23.08s.085.128.085.216v.525h-4.78v-.296c0-.063.015-.125.04-.19.027-.065.068-.124.125-.18l2.295-2.243c.19-.187.363-.368.52-.542.157-.174.29-.348.4-.523.11-.174.194-.352.255-.53.06-.183.09-.374.09-.58 0-.202-.033-.382-.1-.536s-.158-.282-.273-.382c-.115-.102-.25-.176-.406-.227-.157-.05-.325-.075-.505-.075-.184 0-.352.025-.504.078-.153.053-.288.125-.407.217s-.217.2-.297.328-.137.266-.17.418c-.04.113-.096.19-.164.227s-.164.05-.287.03l-.465-.077c.047-.316.14-.598.273-.844.135-.244.305-.45.51-.615s.44-.29.7-.377c.265-.087.55-.13.857-.13z"/></g><g fill="#4E4E4E"><path d="M318.564 248.14h1.535v-4.755c0-.137.003-.28.013-.434l-1.273 1.067c-.045.035-.088.057-.13.066-.044.008-.085.008-.12.002-.037-.008-.072-.02-.104-.04s-.057-.04-.072-.063l-.28-.373 2.136-1.798h.725v6.326h1.41v.662h-3.84v-.66zM326.328 246.02c.074-.093.143-.183.205-.267.064-.084.123-.168.18-.252-.184.144-.39.25-.62.327-.23.074-.472.11-.73.11-.27 0-.524-.042-.767-.13s-.453-.217-.637-.387c-.185-.172-.33-.38-.44-.63-.108-.247-.16-.532-.16-.853 0-.305.056-.59.173-.855.117-.268.28-.498.49-.697.21-.197.46-.354.75-.467.29-.113.607-.17.955-.17.344 0 .654.055.936.166.28.11.52.264.72.46.2.2.354.437.462.712.11.275.162.58.162.914 0 .2-.018.393-.057.572s-.093.357-.165.53c-.07.175-.158.347-.262.517s-.22.343-.35.522l-1.746 2.45c-.043.064-.104.112-.184.15s-.172.056-.275.056h-.82l2.18-2.777zm.826-2.12c0-.217-.037-.414-.107-.592-.072-.176-.172-.326-.3-.45s-.276-.218-.45-.284c-.176-.066-.37-.1-.578-.1-.222 0-.42.035-.6.105-.18.067-.337.165-.466.288-.13.123-.23.27-.3.443s-.106.36-.106.565c0 .22.033.418.098.59.064.174.158.32.28.44.122.12.27.212.444.272.176.063.37.094.588.094.24 0 .453-.038.64-.114.183-.076.34-.178.466-.305.127-.124.223-.27.29-.437.067-.163.1-.335.1-.513zM333.76 241.828v.39c0 .11-.014.2-.04.272-.022.07-.048.13-.07.18l-2.97 5.824c-.045.084-.104.156-.182.217-.076.06-.178.09-.305.09h-.64l3.01-5.75c.044-.08.09-.157.134-.224.045-.068.096-.135.152-.195h-3.74c-.058 0-.108-.02-.15-.065-.044-.043-.065-.092-.065-.148v-.588h4.865zM339.37 241.828v.39c0 .11-.015.2-.04.272-.023.07-.05.13-.072.18l-2.97 5.824c-.044.084-.103.156-.18.217-.077.06-.18.09-.306.09h-.64l3.01-5.75c.044-.08.09-.157.134-.224.045-.068.096-.135.152-.195h-3.74c-.057 0-.107-.02-.15-.065-.043-.043-.064-.092-.064-.148v-.588h4.865z"/></g><g fill="#4E4E4E"><path d="M349.242 248.14h1.535v-4.755c0-.137.005-.28.015-.434l-1.274 1.067c-.044.035-.087.057-.13.066-.044.008-.084.008-.12.002-.037-.008-.07-.02-.103-.04-.032-.02-.057-.04-.073-.063l-.28-.373 2.136-1.798h.725v6.326h1.41v.662h-3.84v-.66zM357.007 246.02c.073-.093.142-.183.205-.267s.123-.168.18-.252c-.184.144-.39.25-.62.327-.23.074-.473.11-.73.11-.27 0-.525-.042-.767-.13s-.454-.217-.638-.387c-.184-.172-.33-.38-.438-.63s-.163-.532-.163-.853c0-.305.058-.59.175-.855.116-.268.28-.498.49-.697.21-.197.46-.354.75-.467s.607-.17.954-.17c.344 0 .655.055.936.166.28.11.52.264.72.46.2.2.354.437.463.712s.162.58.162.914c0 .2-.02.393-.058.572-.04.18-.094.357-.166.53-.07.175-.16.347-.262.517-.104.17-.22.343-.35.522l-1.746 2.45c-.043.064-.104.112-.185.15s-.17.056-.274.056h-.82l2.18-2.777zm.825-2.12c0-.217-.036-.414-.107-.592-.072-.176-.17-.326-.298-.45s-.277-.218-.452-.284c-.176-.066-.368-.1-.578-.1-.22 0-.42.035-.6.105-.18.067-.335.165-.465.288s-.23.27-.3.443c-.07.173-.105.36-.105.565 0 .22.032.418.098.59.064.174.158.32.28.44.12.12.27.212.444.272.174.063.37.094.587.094.24 0 .452-.038.638-.114.185-.076.34-.178.467-.305.127-.124.224-.27.29-.437.067-.163.1-.335.1-.513zM361.933 248.88c-.357 0-.684-.048-.98-.14-.297-.094-.552-.225-.765-.396-.214-.172-.38-.38-.495-.627-.117-.244-.175-.52-.175-.824 0-.447.12-.816.36-1.107.24-.29.583-.496 1.03-.62-.378-.136-.662-.34-.854-.61-.19-.27-.287-.594-.287-.97 0-.257.052-.497.154-.722.105-.223.25-.418.44-.582.19-.166.418-.297.684-.39.265-.095.56-.142.888-.142.323 0 .618.047.885.14s.495.226.685.392c.19.164.337.36.44.582.104.225.155.465.155.72 0 .378-.097.702-.29.972-.193.27-.478.475-.85.61.446.124.79.33 1.03.62s.36.66.36 1.107c0 .305-.06.58-.18.824-.117.246-.282.455-.494.627s-.466.303-.763.396c-.295.092-.62.14-.977.14zm0-.692c.232 0 .442-.03.627-.096.186-.063.342-.152.47-.268.13-.115.228-.252.296-.412.067-.162.102-.34.102-.533 0-.24-.04-.446-.122-.616-.082-.172-.19-.31-.33-.416-.14-.107-.298-.186-.478-.236s-.368-.076-.564-.076c-.197 0-.386.025-.565.076s-.34.13-.48.236c-.138.105-.247.244-.33.416-.08.17-.12.375-.12.615 0 .192.033.37.102.532.068.16.166.297.295.412.128.115.285.205.47.268.182.064.392.096.626.096zm0-3.348c.232 0 .432-.035.597-.105.165-.068.3-.162.403-.277.103-.115.178-.246.225-.396.047-.148.07-.303.07-.46 0-.163-.027-.315-.083-.46-.055-.143-.137-.268-.245-.373-.108-.108-.243-.192-.404-.255-.162-.06-.35-.092-.563-.092-.214 0-.4.03-.563.092-.162.063-.297.146-.405.254-.108.104-.19.23-.245.372-.055.145-.082.297-.082.46 0 .157.022.312.07.46.046.15.12.28.225.396.103.115.237.21.402.277.165.07.364.105.598.105zM367.597 241.75c.303 0 .587.043.85.13.264.09.492.216.686.384.193.166.345.37.455.61.11.24.165.513.165.817 0 .26-.04.5-.12.724s-.188.434-.325.635-.294.397-.473.587c-.18.19-.367.385-.567.58l-1.89 1.88c.133-.038.268-.065.404-.087s.27-.03.396-.03h2.4c.096 0 .173.026.23.08s.084.128.084.216v.525h-4.78v-.296c0-.063.014-.125.04-.19.027-.065.068-.124.125-.18l2.295-2.243c.19-.187.363-.368.52-.542.157-.174.29-.348.4-.523.11-.174.195-.352.256-.53.06-.183.09-.374.09-.58 0-.202-.033-.382-.1-.536-.067-.155-.158-.282-.273-.382-.115-.102-.25-.176-.407-.227-.157-.05-.325-.075-.505-.075-.184 0-.352.025-.505.078s-.29.125-.408.217-.217.2-.297.328-.137.266-.17.418c-.04.113-.095.19-.163.227s-.164.05-.287.03l-.465-.077c.047-.316.138-.598.272-.844.135-.244.305-.45.51-.615s.44-.29.702-.377c.263-.087.548-.13.855-.13z"/></g><g fill="#4E4E4E"><path d="M379.92 248.14h1.535v-4.755c0-.137.006-.28.016-.434l-1.274 1.067c-.043.035-.086.057-.13.066-.044.008-.083.008-.12.002-.037-.008-.07-.02-.102-.04-.033-.02-.057-.04-.074-.063l-.28-.373 2.136-1.798h.725v6.326h1.41v.662h-3.84v-.66zM387.686 246.02l.205-.267c.064-.084.124-.168.18-.252-.183.144-.39.25-.62.327-.23.074-.473.11-.73.11-.27 0-.526-.042-.767-.13-.242-.088-.455-.217-.64-.387-.183-.172-.327-.38-.437-.63-.107-.247-.162-.532-.162-.853 0-.305.06-.59.176-.855.115-.268.28-.498.49-.697.21-.197.46-.354.75-.467.29-.113.607-.17.953-.17.344 0 .656.055.936.166.28.11.52.264.72.46.2.2.354.437.463.712.107.275.162.58.162.914 0 .2-.02.393-.06.572-.036.18-.09.357-.163.53s-.16.347-.262.517c-.104.17-.22.343-.352.522l-1.744 2.45c-.043.064-.105.112-.186.15s-.172.056-.275.056h-.818l2.18-2.777zm.824-2.12c0-.217-.035-.414-.107-.592-.072-.176-.17-.326-.297-.45s-.277-.218-.453-.284-.367-.1-.578-.1c-.22 0-.42.035-.6.105-.18.067-.334.165-.465.288-.13.123-.23.27-.3.443-.07.173-.105.36-.105.565 0 .22.03.418.098.59.064.174.158.32.28.44.12.12.27.212.444.272.174.063.37.094.588.094.24 0 .45-.038.637-.114s.342-.178.467-.305c.126-.124.224-.27.29-.437s.1-.335.1-.513zM392.61 248.88c-.356 0-.683-.048-.98-.14-.296-.094-.552-.225-.765-.396s-.38-.38-.494-.627c-.116-.244-.175-.52-.175-.824 0-.447.12-.816.36-1.107.24-.29.583-.496 1.03-.62-.377-.136-.662-.34-.854-.61-.19-.27-.286-.594-.286-.97 0-.257.053-.497.154-.722.104-.223.25-.418.44-.582.19-.166.417-.297.683-.39s.562-.142.89-.142c.322 0 .617.047.885.14.266.095.494.226.684.392.19.164.337.36.44.582.104.225.154.465.154.72 0 .378-.096.702-.29.972-.192.27-.478.475-.85.61.446.124.79.33 1.03.62s.36.66.36 1.107c0 .305-.06.58-.18.824-.116.246-.282.455-.493.627-.212.172-.466.303-.763.396-.294.092-.62.14-.976.14zm0-.692c.233 0 .442-.03.628-.096.186-.063.342-.152.47-.268.128-.115.228-.252.296-.412.066-.162.102-.34.102-.533 0-.24-.04-.446-.123-.616-.082-.172-.19-.31-.33-.416-.14-.107-.297-.186-.477-.236s-.37-.076-.564-.076c-.197 0-.387.025-.566.076s-.338.13-.477.236c-.14.105-.25.244-.33.416-.083.17-.124.375-.124.615 0 .192.035.37.104.532.068.16.166.297.295.412.127.115.285.205.47.268.183.064.392.096.626.096zm0-3.348c.233 0 .433-.035.597-.105.166-.068.3-.162.404-.277.103-.115.18-.246.226-.396.047-.148.07-.303.07-.46 0-.163-.027-.315-.084-.46-.055-.143-.137-.268-.244-.373-.11-.108-.244-.192-.404-.255-.162-.06-.35-.092-.563-.092-.214 0-.4.03-.562.092-.162.063-.297.146-.406.254-.107.104-.19.23-.244.372-.055.145-.082.297-.082.46 0 .157.02.312.068.46.047.15.123.28.227.396.103.115.237.21.403.277.165.07.364.105.598.105zM400.725 241.828v.39c0 .11-.012.2-.037.272-.025.07-.05.13-.072.18l-2.97 5.824c-.044.084-.105.156-.18.217-.077.06-.18.09-.306.09h-.64l3.01-5.75c.042-.08.087-.157.132-.224.045-.068.096-.135.152-.195h-3.74c-.057 0-.105-.02-.148-.065-.045-.043-.066-.092-.066-.148v-.588h4.865z"/></g><g fill="#4E4E4E"><path d="M410.598 248.14h1.535v-4.755c0-.137.004-.28.014-.434l-1.273 1.067c-.045.035-.088.057-.13.066-.044.008-.085.008-.12.002-.037-.008-.072-.02-.104-.04s-.057-.04-.072-.063l-.28-.373 2.136-1.798h.725v6.326h1.41v.662h-3.84v-.66zM418.36 246.02c.075-.093.144-.183.206-.267.064-.084.123-.168.18-.252-.184.144-.39.25-.62.327-.23.074-.472.11-.73.11-.27 0-.524-.042-.767-.13s-.454-.217-.638-.387c-.184-.172-.33-.38-.438-.63-.11-.247-.162-.532-.162-.853 0-.305.057-.59.174-.855.117-.268.28-.498.49-.697.21-.197.46-.354.75-.467.29-.113.607-.17.955-.17.345 0 .655.055.937.166.28.11.52.264.72.46.2.2.354.437.462.712.108.275.16.58.16.914 0 .2-.017.393-.056.572s-.094.357-.166.53c-.07.175-.158.347-.262.517s-.22.343-.35.522l-1.746 2.45c-.043.064-.104.112-.184.15s-.172.056-.275.056h-.82l2.18-2.777zm.828-2.12c0-.217-.037-.414-.107-.592-.07-.176-.17-.326-.298-.45s-.277-.218-.45-.284c-.177-.066-.37-.1-.58-.1-.22 0-.42.035-.6.105-.18.067-.335.165-.464.288-.13.123-.23.27-.3.443s-.106.36-.106.565c0 .22.033.418.098.59.064.174.158.32.28.44.122.12.27.212.444.272.176.063.37.094.588.094.24 0 .453-.038.64-.114.183-.076.34-.178.466-.305.127-.124.223-.27.29-.437.066-.163.1-.335.1-.513zM423.883 246.02l.205-.267c.063-.084.123-.168.18-.252-.184.144-.39.25-.62.327-.23.074-.474.11-.73.11-.27 0-.527-.042-.768-.13-.242-.088-.455-.217-.64-.387-.183-.172-.327-.38-.437-.63-.107-.247-.162-.532-.162-.853 0-.305.06-.59.177-.855.115-.268.28-.498.49-.697.21-.197.46-.354.75-.467.29-.113.607-.17.953-.17.344 0 .656.055.936.166.28.11.52.264.72.46.2.2.355.437.464.712.107.275.162.58.162.914 0 .2-.02.393-.06.572-.036.18-.09.357-.163.53s-.16.347-.263.517c-.104.17-.22.343-.352.522l-1.744 2.45c-.042.064-.104.112-.185.15s-.172.056-.275.056h-.818l2.18-2.777zm.824-2.12c0-.217-.035-.414-.107-.592-.072-.176-.17-.326-.297-.45s-.277-.218-.453-.284-.367-.1-.578-.1c-.22 0-.42.035-.6.105-.18.067-.334.165-.465.288-.13.123-.23.27-.3.443-.07.173-.105.36-.105.565 0 .22.03.418.098.59.064.174.158.32.28.44.12.12.27.212.444.272.174.063.37.094.588.094.24 0 .45-.038.637-.114s.34-.178.466-.305c.127-.124.225-.27.29-.437s.1-.335.1-.513zM428.95 241.75c.304 0 .59.043.85.13.265.09.493.216.687.384.193.166.346.37.455.61.11.24.166.513.166.817 0 .26-.04.5-.12.724s-.19.434-.325.635-.295.397-.473.587c-.18.19-.367.385-.568.58l-1.89 1.88c.134-.038.27-.065.405-.087s.268-.03.395-.03h2.4c.096 0 .174.026.23.08s.084.128.084.216v.525h-4.78v-.296c0-.063.015-.125.04-.19.027-.065.068-.124.125-.18l2.296-2.243c.19-.187.363-.368.52-.542.157-.174.29-.348.4-.523.11-.174.194-.352.255-.53.062-.183.09-.374.09-.58 0-.202-.032-.382-.1-.536s-.157-.282-.272-.382c-.115-.102-.25-.176-.406-.227-.158-.05-.326-.075-.506-.075-.184 0-.352.025-.504.078-.154.053-.29.125-.408.217s-.217.2-.297.328-.137.266-.17.418c-.04.113-.096.19-.164.227s-.164.05-.287.03l-.465-.077c.048-.316.14-.598.274-.844.135-.244.305-.45.51-.615s.44-.29.7-.377c.265-.087.55-.13.857-.13z"/></g><g fill="#4E4E4E"><path d="M441.275 248.14h1.535v-4.755c0-.137.005-.28.015-.434l-1.274 1.067c-.043.035-.086.057-.13.066-.043.008-.083.008-.12.002-.036-.008-.07-.02-.102-.04-.032-.02-.057-.04-.073-.063l-.28-.373 2.136-1.798h.726v6.326h1.41v.662h-3.84v-.66zM449.04 246.02c.073-.093.142-.183.205-.267s.123-.168.18-.252c-.184.144-.39.25-.62.327-.23.074-.473.11-.73.11-.27 0-.525-.042-.767-.13s-.454-.217-.638-.387c-.184-.172-.33-.38-.438-.63s-.162-.532-.162-.853c0-.305.058-.59.175-.855.116-.268.28-.498.49-.697.21-.197.46-.354.75-.467s.607-.17.954-.17c.343 0 .654.055.935.166.28.11.52.264.72.46.2.2.354.437.463.712s.162.58.162.914c0 .2-.02.393-.058.572-.038.18-.093.357-.165.53-.07.175-.16.347-.262.517-.104.17-.22.343-.35.522l-1.746 2.45c-.044.064-.105.112-.186.15s-.172.056-.275.056h-.82l2.18-2.777zm.825-2.12c0-.217-.036-.414-.107-.592-.072-.176-.17-.326-.298-.45s-.277-.218-.452-.284c-.176-.066-.368-.1-.578-.1-.22 0-.42.035-.6.105-.18.067-.335.165-.465.288s-.23.27-.3.443c-.07.173-.105.36-.105.565 0 .22.032.418.098.59.064.174.158.32.28.44.12.12.27.212.444.272.175.063.37.094.588.094.24 0 .452-.038.638-.114.185-.076.34-.178.467-.305.127-.124.224-.27.29-.437.067-.163.1-.335.1-.513zM454.56 246.02c.074-.093.143-.183.206-.267s.123-.168.18-.252c-.184.144-.39.25-.62.327-.23.074-.473.11-.73.11-.27 0-.525-.042-.767-.13-.243-.088-.455-.217-.64-.387-.183-.172-.328-.38-.437-.63s-.162-.532-.162-.853c0-.305.06-.59.176-.855.116-.268.28-.498.49-.697.21-.197.46-.354.75-.467s.607-.17.954-.17c.344 0 .655.055.936.166.28.11.52.264.72.46.2.2.354.437.463.712s.16.58.16.914c0 .2-.018.393-.057.572-.038.18-.093.357-.165.53-.07.175-.16.347-.262.517-.104.17-.22.343-.35.522l-1.746 2.45c-.043.064-.104.112-.185.15s-.172.056-.275.056h-.82l2.18-2.777zm.826-2.12c0-.217-.036-.414-.107-.592-.073-.176-.172-.326-.3-.45s-.276-.218-.45-.284c-.177-.066-.37-.1-.58-.1-.22 0-.42.035-.6.105-.18.067-.334.165-.464.288s-.23.27-.3.443c-.07.173-.105.36-.105.565 0 .22.033.418.1.59.063.174.157.32.28.44.12.12.27.212.443.272.175.063.37.094.588.094.24 0 .453-.038.64-.114.184-.076.34-.178.466-.305.127-.124.224-.27.29-.437.067-.163.1-.335.1-.513zM462.08 241.828v.39c0 .11-.013.2-.038.272-.024.07-.05.13-.072.18l-2.97 5.824c-.044.084-.104.156-.18.217-.077.06-.18.09-.306.09h-.64l3.01-5.75c.043-.08.088-.157.133-.224.045-.068.096-.135.152-.195h-3.74c-.058 0-.107-.02-.15-.065-.044-.043-.065-.092-.065-.148v-.588h4.865z"/></g><g fill="#4E4E4E"><path d="M473.658 241.75c.303 0 .588.043.85.13.264.09.492.216.686.384.193.166.346.37.455.61.108.24.165.513.165.817 0 .26-.04.5-.12.724s-.19.434-.325.635-.295.397-.473.587c-.18.19-.367.385-.568.58l-1.89 1.88c.133-.038.268-.065.404-.087s.268-.03.395-.03h2.4c.095 0 .173.026.23.08s.083.128.083.216v.525h-4.78v-.296c0-.063.015-.125.04-.19.027-.065.068-.124.125-.18l2.295-2.243c.19-.187.363-.368.52-.542.157-.174.29-.348.4-.523.11-.174.194-.352.255-.53.06-.183.09-.374.09-.58 0-.202-.033-.382-.1-.536s-.158-.282-.273-.382c-.115-.102-.25-.176-.406-.227-.16-.05-.327-.075-.507-.075-.184 0-.352.025-.504.078-.155.053-.29.125-.41.217s-.216.2-.296.328-.137.266-.17.418c-.04.113-.096.19-.164.227s-.164.05-.287.03l-.465-.077c.047-.316.14-.598.273-.844.136-.244.306-.45.51-.615s.44-.29.702-.377c.264-.087.55-.13.856-.13zM481.723 245.316c0 .61-.066 1.14-.2 1.584-.138.445-.32.814-.554 1.107-.235.29-.51.508-.83.652-.317.142-.66.212-1.022.212-.365 0-.707-.07-1.02-.213-.315-.146-.59-.362-.823-.653-.234-.293-.418-.662-.55-1.107s-.2-.975-.2-1.584.066-1.14.2-1.586.315-.818.55-1.11c.232-.296.508-.513.822-.655s.656-.215 1.02-.215.706.072 1.024.215.595.36.83.654c.23.292.415.663.552 1.11.134.448.2.977.2 1.586zm-.924 0c0-.53-.048-.98-.14-1.34s-.215-.652-.37-.873c-.155-.22-.333-.38-.536-.475-.205-.096-.416-.145-.637-.145-.22 0-.432.05-.635.145s-.38.254-.535.475c-.152.22-.275.512-.367.873s-.137.81-.137 1.34.045.98.137 1.338.215.65.367.87c.154.222.332.38.535.476s.416.143.635.143c.22 0 .432-.047.637-.143.203-.096.38-.254.537-.475.155-.22.278-.512.37-.87s.14-.807.14-1.34zM487.244 245.316c0 .61-.068 1.14-.203 1.584s-.317.814-.552 1.107c-.232.29-.51.508-.826.652-.318.142-.66.212-1.023.212-.368 0-.708-.07-1.024-.213-.314-.146-.588-.362-.822-.653-.232-.293-.416-.662-.55-1.107-.134-.445-.2-.975-.2-1.584s.066-1.14.2-1.586c.134-.447.317-.818.55-1.11.234-.296.508-.513.822-.655.316-.143.656-.215 1.023-.215.362 0 .704.072 1.022.215.316.143.594.36.826.654.234.292.418.663.553 1.11s.204.977.204 1.586zm-.926 0c0-.53-.045-.98-.137-1.34s-.214-.652-.37-.873c-.154-.22-.334-.38-.537-.475s-.414-.145-.635-.145-.432.05-.635.145-.383.254-.535.475c-.154.22-.275.512-.367.873s-.138.81-.138 1.34.047.98.14 1.338.212.65.366.87c.152.222.332.38.535.476s.414.143.635.143.432-.047.635-.143.383-.254.537-.475c.156-.22.28-.512.37-.87s.138-.807.138-1.34zM490.31 241.75c.302 0 .585.043.85.13s.49.216.685.384c.193.166.344.37.455.61.11.24.164.513.164.817 0 .26-.04.5-.12.724s-.188.434-.325.635-.294.397-.474.587c-.178.19-.367.385-.566.58l-1.89 1.88c.132-.038.267-.065.403-.087s.27-.03.396-.03h2.397c.098 0 .174.026.23.08s.086.128.086.216v.525h-4.78v-.296c0-.063.013-.125.04-.19.027-.065.068-.124.125-.18l2.295-2.243c.19-.187.363-.368.52-.542s.29-.348.4-.523c.11-.174.195-.352.256-.53.058-.183.09-.374.09-.58 0-.202-.034-.382-.103-.536-.066-.155-.156-.282-.27-.382-.116-.102-.253-.176-.41-.227s-.323-.075-.503-.075c-.184 0-.352.025-.506.078-.152.053-.29.125-.408.217-.117.092-.217.2-.297.328s-.137.266-.17.418c-.04.113-.094.19-.162.227s-.163.05-.286.03l-.465-.077c.046-.316.136-.598.27-.844.135-.244.305-.45.51-.615s.44-.29.703-.377.55-.13.856-.13z"/></g><g fill="#4E4E4E"><path d="M504.336 241.75c.303 0 .588.043.85.13.264.09.492.216.686.384.193.166.346.37.455.61.11.24.166.513.166.817 0 .26-.04.5-.12.724s-.19.434-.325.635-.295.397-.473.587c-.18.19-.367.385-.568.58l-1.89 1.88c.134-.038.27-.065.405-.087s.268-.03.395-.03h2.4c.096 0 .174.026.23.08s.084.128.084.216v.525h-4.778v-.296c0-.063.014-.125.04-.19.026-.065.067-.124.124-.18l2.295-2.243c.192-.187.364-.368.522-.542.156-.174.29-.348.398-.523.11-.174.195-.352.256-.53.06-.183.09-.374.09-.58 0-.202-.033-.382-.1-.536s-.158-.282-.273-.382c-.115-.102-.25-.176-.406-.227-.158-.05-.326-.075-.506-.075-.183 0-.35.025-.503.078-.154.053-.29.125-.408.217s-.218.2-.298.328-.137.266-.17.418c-.04.113-.096.19-.164.227s-.164.05-.287.03l-.464-.077c.047-.316.14-.598.273-.844.134-.244.304-.45.51-.615s.438-.29.7-.377c.264-.087.55-.13.856-.13zM512.4 245.316c0 .61-.066 1.14-.2 1.584-.138.445-.32.814-.554 1.107-.234.29-.51.508-.828.652-.318.142-.66.212-1.023.212-.365 0-.707-.07-1.02-.213-.315-.146-.59-.362-.823-.653-.234-.293-.418-.662-.55-1.107s-.2-.975-.2-1.584.066-1.14.2-1.586.315-.818.55-1.11c.232-.296.508-.513.822-.655s.656-.215 1.02-.215.706.072 1.024.215.594.36.828.654c.232.292.416.663.553 1.11.134.448.2.977.2 1.586zm-.923 0c0-.53-.047-.98-.14-1.34s-.214-.652-.368-.873c-.157-.22-.335-.38-.538-.475-.205-.096-.416-.145-.637-.145-.22 0-.432.05-.635.145s-.38.254-.535.475c-.152.22-.275.512-.367.873s-.137.81-.137 1.34.046.98.138 1.338.215.65.367.87c.154.222.332.38.535.476s.416.143.635.143c.22 0 .432-.047.637-.143.203-.096.38-.254.537-.475.153-.22.276-.512.368-.87s.14-.807.14-1.34zM517.922 245.316c0 .61-.068 1.14-.203 1.584s-.32.814-.554 1.107c-.232.29-.51.508-.826.652-.318.142-.66.212-1.023.212-.367 0-.707-.07-1.023-.213-.314-.146-.588-.362-.822-.653-.232-.293-.416-.662-.55-1.107-.134-.445-.2-.975-.2-1.584s.066-1.14.2-1.586c.134-.447.317-.818.55-1.11.234-.296.508-.513.822-.655.316-.143.656-.215 1.023-.215.363 0 .705.072 1.023.215.316.143.594.36.826.654.234.292.418.663.553 1.11s.202.977.202 1.586zm-.926 0c0-.53-.045-.98-.137-1.34s-.216-.652-.372-.873c-.154-.22-.334-.38-.537-.475s-.413-.145-.634-.145-.432.05-.635.145-.382.254-.534.475c-.154.22-.275.512-.367.873s-.14.81-.14 1.34.047.98.14 1.338.212.65.366.87c.152.222.332.38.535.476s.415.143.636.143.432-.047.635-.143.384-.254.538-.475c.156-.22.28-.512.37-.87s.138-.807.138-1.34zM523.436 241.828v.39c0 .11-.012.2-.037.272-.026.07-.05.13-.073.18l-2.97 5.824c-.044.084-.105.156-.18.217-.077.06-.18.09-.306.09h-.64l3.01-5.75c.043-.08.088-.157.133-.224.045-.068.096-.135.152-.195h-3.74c-.057 0-.105-.02-.148-.065-.045-.043-.066-.092-.066-.148v-.588h4.866z"/></g><g fill="#4E4E4E"><path d="M535.015 241.75c.303 0 .587.043.85.13.264.09.492.216.686.384.194.166.346.37.456.61.11.24.165.513.165.817 0 .26-.04.5-.12.724s-.187.434-.324.635-.294.397-.473.587c-.18.19-.367.385-.567.58l-1.89 1.88c.133-.038.268-.065.404-.087s.27-.03.396-.03h2.4c.096 0 .173.026.23.08s.084.128.084.216v.525h-4.78v-.296c0-.063.014-.125.04-.19.027-.065.068-.124.125-.18l2.295-2.243c.19-.187.363-.368.52-.542.157-.174.29-.348.4-.523.11-.174.195-.352.256-.53.06-.183.09-.374.09-.58 0-.202-.033-.382-.1-.536-.067-.155-.158-.282-.273-.382-.115-.102-.25-.176-.407-.227-.157-.05-.325-.075-.505-.075-.183 0-.35.025-.504.078s-.29.125-.408.217-.217.2-.297.328-.136.266-.17.418c-.04.113-.094.19-.162.227s-.164.05-.287.03l-.464-.077c.047-.316.138-.598.272-.844.135-.244.305-.45.51-.615s.44-.29.702-.377c.263-.087.548-.13.855-.13zM543.08 245.316c0 .61-.068 1.14-.203 1.584-.136.445-.32.814-.553 1.107-.233.29-.51.508-.827.652-.318.142-.66.212-1.023.212-.366 0-.707-.07-1.022-.213-.314-.146-.59-.362-.822-.653-.233-.293-.417-.662-.55-1.107-.134-.445-.2-.975-.2-1.584s.066-1.14.2-1.586c.133-.447.316-.818.55-1.11.233-.296.508-.513.822-.655.315-.143.656-.215 1.022-.215.363 0 .705.072 1.023.215.317.143.594.36.827.654.233.292.417.663.553 1.11.135.448.202.977.202 1.586zm-.926 0c0-.53-.046-.98-.138-1.34s-.215-.652-.37-.873-.334-.38-.537-.475c-.205-.096-.416-.145-.637-.145-.22 0-.432.05-.635.145s-.382.254-.535.475-.275.512-.367.873-.138.81-.138 1.34.046.98.138 1.338.214.65.367.87.332.38.535.476.415.143.635.143c.22 0 .432-.047.636-.143.202-.096.38-.254.536-.475s.278-.512.37-.87.138-.807.138-1.34zM544.35 248.14h1.535v-4.755c0-.137.005-.28.015-.434l-1.274 1.067c-.044.035-.087.057-.13.066-.044.008-.084.008-.12.002-.037-.008-.07-.02-.103-.04-.032-.02-.057-.04-.073-.063l-.28-.373 2.136-1.798h.725v6.326h1.41v.662h-3.84v-.66zM551.664 241.75c.303 0 .587.043.85.13.264.09.492.216.686.384.193.166.345.37.455.61.11.24.165.513.165.817 0 .26-.04.5-.12.724s-.188.434-.325.635-.294.397-.473.587c-.18.19-.367.385-.567.58l-1.89 1.88c.133-.038.268-.065.404-.087s.268-.03.395-.03h2.4c.096 0 .173.026.23.08s.084.128.084.216v.525h-4.78v-.296c0-.063.013-.125.04-.19.026-.065.067-.124.124-.18l2.295-2.243c.19-.187.362-.368.52-.542.156-.174.29-.348.4-.523.11-.174.194-.352.255-.53.06-.183.09-.374.09-.58 0-.202-.033-.382-.1-.536-.067-.155-.158-.282-.273-.382-.115-.102-.25-.176-.407-.227-.157-.05-.325-.075-.505-.075-.184 0-.352.025-.505.078s-.29.125-.408.217-.217.2-.297.328-.137.266-.17.418c-.04.113-.095.19-.163.227s-.164.05-.287.03l-.465-.077c.047-.316.138-.598.272-.844.135-.244.305-.45.51-.615s.44-.29.702-.377c.262-.087.547-.13.854-.13z"/></g><g fill="#51AFE2"><path d="M139.09 51.796v1.452h-2.586v7.254h-1.835v-7.254h-2.586v-1.452h7.005zM144.12 60.502c-.16 0-.28-.02-.363-.066-.083-.044-.15-.136-.204-.275l-.134-.39c-.16.137-.313.256-.46.357s-.304.188-.464.258c-.16.07-.332.123-.512.16-.18.035-.38.053-.6.053-.278 0-.53-.036-.757-.107-.228-.07-.424-.18-.588-.32s-.293-.32-.382-.53-.134-.457-.134-.732c0-.23.06-.455.177-.682.12-.226.32-.432.607-.617.287-.188.67-.343 1.146-.467s1.077-.193 1.796-.21v-.317c0-.39-.084-.673-.25-.855-.168-.18-.408-.27-.72-.27-.232 0-.426.025-.58.08-.154.054-.29.11-.405.174l-.327.174s-.22.08-.354.08c-.118 0-.216-.028-.296-.086-.08-.06-.145-.127-.198-.207l-.3-.528c.37-.328.78-.573 1.227-.735.447-.16.93-.242 1.45-.242.375 0 .71.06 1.004.18.296.12.546.287.75.5.206.215.364.47.473.766.11.297.165.62.165.973v3.887h-.768zm-2.213-1.02c.276 0 .518-.05.726-.147.207-.098.413-.25.616-.453v-.96c-.412.016-.753.05-1.025.103-.272.052-.49.116-.65.194s-.273.167-.34.27c-.067.102-.1.213-.1.333 0 .24.067.41.203.51s.325.15.57.15zM147.64 57.31l-2.05-2.993h1.616c.122 0 .21.016.268.048.057.032.108.084.153.155l1.226 1.963c.024-.068.053-.137.085-.204.032-.07.07-.14.116-.21l.945-1.52c.097-.156.223-.233.377-.233h1.543l-2.05 2.922 2.136 3.263h-1.616c-.122 0-.22-.03-.296-.09-.075-.06-.135-.13-.18-.21l-1.238-2.034c-.037.135-.09.255-.16.36l-1.06 1.673c-.05.076-.11.145-.18.207-.07.062-.162.093-.27.093h-1.5l2.133-3.193zM157.65 57.184v3.318h-1.83v-8.706h2.782c.618 0 1.146.063 1.585.19s.8.3 1.08.523c.28.224.486.49.616.8.13.31.195.65.195 1.023 0 .288-.042.56-.125.82-.083.257-.205.49-.363.704-.16.212-.354.4-.585.563-.232.164-.498.296-.8.396.12.063.23.14.333.23.104.09.196.197.278.32l2.06 3.133h-1.652c-.31 0-.532-.117-.67-.35l-1.683-2.67c-.068-.103-.145-.18-.228-.228-.083-.048-.206-.072-.37-.072h-.62zm0-1.266h.94c.297 0 .553-.037.77-.11.214-.074.39-.177.53-.307s.24-.282.304-.458c.065-.176.098-.368.098-.576 0-.412-.14-.73-.418-.96-.278-.228-.702-.342-1.27-.342h-.952v2.754zM167.67 60.502c-.16 0-.28-.02-.363-.066-.083-.044-.15-.136-.204-.275l-.134-.39c-.16.137-.313.256-.46.357s-.304.188-.464.258c-.16.07-.332.123-.512.16-.18.035-.38.053-.6.053-.278 0-.53-.036-.757-.107-.228-.07-.424-.18-.588-.32s-.293-.32-.382-.53-.134-.457-.134-.732c0-.23.06-.455.177-.682.12-.226.32-.432.607-.617.287-.188.67-.343 1.146-.467s1.077-.193 1.796-.21v-.317c0-.39-.084-.673-.25-.855-.168-.18-.408-.27-.72-.27-.232 0-.426.025-.58.08-.154.054-.29.11-.405.174l-.327.174s-.22.08-.354.08c-.118 0-.216-.028-.296-.086-.08-.06-.145-.127-.198-.207l-.3-.528c.37-.328.78-.573 1.227-.735.447-.16.93-.242 1.45-.242.375 0 .71.06 1.004.18.296.12.546.287.75.5.206.215.364.47.473.766.11.297.165.62.165.973v3.887h-.768zm-2.213-1.02c.276 0 .518-.05.726-.147.207-.098.413-.25.616-.453v-.96c-.412.016-.753.05-1.025.103-.272.052-.49.116-.65.194s-.273.167-.34.27c-.067.102-.1.213-.1.333 0 .24.067.41.203.51s.325.15.57.15zM171.927 60.598c-.285 0-.537-.04-.756-.123-.218-.082-.403-.198-.554-.35s-.265-.337-.342-.553c-.077-.217-.116-.46-.116-.732v-3.336h-.59c-.09 0-.167-.028-.23-.084s-.094-.14-.094-.252v-.648l1.006-.18.342-1.602c.044-.18.168-.27.372-.27h.878v1.883h1.622v1.153h-1.622v3.23c0 .17.042.307.125.406.083.1.202.15.357.15.08 0 .15-.01.207-.028.058-.018.107-.038.147-.06l.113-.06c.035-.02.07-.027.106-.027.05 0 .09.01.122.033.033.02.065.06.098.11l.506.792c-.232.18-.494.316-.787.408-.293.094-.595.14-.908.14zM177.085 54.22c.402 0 .773.063 1.113.19s.632.308.878.548c.246.24.437.535.573.885.135.35.203.75.203 1.197 0 .124-.006.226-.018.306s-.033.145-.06.192c-.03.048-.068.08-.117.1-.048.018-.112.026-.19.026h-3.773c.053.58.22 1.004.503 1.27.283.27.653.403 1.113.403.233 0 .433-.027.602-.08.17-.055.317-.115.445-.18l.348-.182c.104-.054.206-.08.308-.08.13 0 .23.048.305.144l.488.6c-.18.203-.376.372-.59.507-.217.134-.44.24-.672.317s-.465.132-.7.162-.464.045-.684.045c-.44 0-.85-.07-1.23-.212s-.71-.352-.993-.63c-.283-.278-.505-.623-.668-1.035s-.245-.89-.245-1.434c0-.42.07-.817.21-1.19.14-.37.342-.695.606-.97.265-.277.586-.496.965-.658.378-.16.805-.242 1.28-.242zm.03 1.164c-.402 0-.717.113-.944.34-.227.226-.375.544-.444.956h2.622c0-.172-.023-.336-.07-.492-.047-.155-.12-.294-.223-.413-.102-.12-.23-.216-.384-.285-.153-.07-.338-.106-.554-.106zM185.727 52.558c0 .14-.03.27-.085.39-.057.12-.133.227-.23.318-.094.093-.206.164-.334.217-.128.052-.266.077-.412.077-.14 0-.27-.025-.394-.077-.124-.053-.233-.124-.326-.217-.094-.092-.168-.197-.223-.317s-.082-.25-.082-.392c0-.14.028-.27.083-.393s.13-.23.223-.32c.093-.093.202-.165.326-.217s.255-.078.394-.078c.146 0 .283.026.412.078.128.052.24.124.335.216.096.092.172.2.23.32.055.123.084.254.084.394zm-.202 1.758v6.186h-1.683v-6.186h1.683zM186.964 60.502v-6.186H188c.212 0 .353.096.422.287l.104.433c.126-.12.257-.23.393-.33s.28-.187.432-.258c.152-.072.317-.128.494-.168.177-.04.37-.06.576-.06.34 0 .644.058.91.173.263.116.486.278.666.486.18.207.317.455.41.743s.136.604.136.948v3.93h-1.677v-3.93c0-.344-.082-.61-.244-.8-.163-.19-.402-.285-.72-.285-.24 0-.462.05-.667.152-.206.103-.402.24-.588.417V60.5h-1.684zM199.708 51.7c.418 0 .8.06 1.143.183.345.122.64.292.882.51.244.22.433.48.567.79.133.308.2.647.2 1.02 0 .32-.047.616-.14.888-.094.273-.22.532-.382.778s-.347.484-.558.717-.435.466-.67.702l-1.88 1.89c.208-.056.414-.102.617-.138s.395-.055.573-.055h1.988c.183 0 .326.05.43.15.104.1.155.23.155.395v.972H196.5v-.54c0-.104.02-.217.066-.34s.12-.232.226-.332l2.622-2.586c.224-.22.42-.43.592-.633.17-.2.313-.4.427-.594.114-.193.2-.39.256-.59.056-.2.084-.41.084-.63 0-.39-.102-.684-.305-.886s-.49-.303-.86-.303c-.164 0-.313.022-.45.068s-.257.11-.365.19c-.108.08-.2.173-.277.28-.078.108-.134.227-.17.355-.074.2-.173.333-.297.4-.123.064-.3.08-.526.044l-.89-.156c.064-.424.186-.796.365-1.116.178-.32.4-.586.67-.798.268-.212.575-.37.92-.477.348-.104.72-.157 1.118-.157zM209.953 56.146c0 .76-.083 1.42-.25 1.98-.167.56-.396 1.023-.69 1.39-.292.365-.64.638-1.04.815s-.83.268-1.294.268c-.465 0-.896-.09-1.294-.267s-.742-.45-1.03-.815c-.29-.365-.516-.83-.68-1.39s-.248-1.22-.248-1.98.083-1.418.247-1.976.39-1.02.68-1.387.632-.64 1.03-.816.83-.267 1.294-.267c.462 0 .894.09 1.294.267s.747.45 1.04.816c.292.366.522.828.69 1.386.166.557.25 1.216.25 1.976zm-1.738 0c0-.615-.044-1.123-.13-1.523s-.203-.716-.345-.948c-.143-.23-.306-.394-.49-.486-.186-.093-.376-.14-.57-.14-.196 0-.384.047-.565.14-.18.092-.34.254-.48.485-.142.232-.254.548-.34.948-.084.4-.127.908-.127 1.523 0 .62.043 1.13.128 1.53.085.4.198.716.338.948.14.232.3.394.48.486.182.092.37.138.565.138.194 0 .384-.046.57-.138.184-.093.348-.254.49-.486.142-.232.257-.548.344-.948.087-.4.13-.91.13-1.53zM211.618 59.284h1.756V54.52c0-.203.006-.418.02-.642l-1.154.942c-.08.06-.16.098-.238.113-.077.017-.15.018-.22.003-.068-.014-.13-.037-.182-.07s-.094-.07-.122-.106l-.53-.702 2.72-2.268h1.384v7.494h1.53v1.218h-4.964v-1.218zM223.057 57.178h1.025v.937c0 .088-.03.163-.09.225-.058.063-.14.093-.246.093h-.69v2.07h-1.462v-2.07h-3.653c-.104 0-.2-.03-.29-.096-.086-.063-.14-.147-.16-.252l-.178-.828 4.146-5.466h1.598v5.388zm-1.463-2.592c0-.136.004-.28.012-.432.008-.152.022-.313.043-.48l-2.556 3.504h2.5v-2.592zM234.223 58.36c.102 0 .187.035.256.107l.725.762c-.358.447-.802.787-1.333 1.02-.53.232-1.162.348-1.894.348-.663 0-1.258-.11-1.787-.333-.527-.222-.977-.53-1.347-.927-.37-.396-.654-.866-.854-1.41s-.3-1.138-.3-1.782c0-.432.047-.843.143-1.232s.235-.75.418-1.077c.184-.328.404-.624.663-.888.258-.266.55-.49.875-.676.325-.187.68-.328 1.064-.427.384-.098.794-.146 1.23-.146.324 0 .632.028.923.085.29.056.562.134.814.233.25.1.484.222.697.363.213.144.405.298.576.466l-.616.828c-.037.052-.083.1-.14.138-.057.04-.134.06-.232.06s-.196-.033-.296-.102c-.1-.067-.223-.144-.367-.228-.145-.084-.325-.16-.543-.23-.217-.066-.493-.1-.826-.1-.37 0-.71.065-1.018.197-.31.13-.575.322-.796.572-.222.25-.394.557-.516.92-.122.364-.183.778-.183 1.242 0 .47.067.886.2 1.25.13.367.312.677.54.93s.5.44.806.57c.307.132.635.196.985.196.208 0 .396-.01.565-.03.168-.02.325-.054.47-.102.144-.048.28-.11.408-.186.128-.076.257-.173.387-.288.045-.036.092-.066.14-.09.053-.022.106-.034.163-.034zM238.73 54.22c.4 0 .772.063 1.112.19s.632.308.878.548c.246.24.437.535.573.885.136.35.204.75.204 1.197 0 .124-.006.226-.018.306s-.034.145-.062.192c-.03.048-.067.08-.116.1-.048.018-.112.026-.19.026h-3.773c.052.58.22 1.004.502 1.27.283.27.653.403 1.113.403.232 0 .432-.027.6-.08.17-.055.318-.115.446-.18l.35-.182c.103-.054.205-.08.307-.08.13 0 .23.048.305.144l.488.6c-.18.203-.376.372-.59.507-.217.134-.44.24-.672.317s-.465.132-.7.162-.464.045-.684.045c-.44 0-.85-.07-1.23-.212s-.71-.352-.993-.63c-.282-.278-.504-.623-.667-1.035s-.244-.89-.244-1.434c0-.42.07-.817.21-1.19.14-.37.34-.695.605-.97.264-.277.585-.496.964-.658.377-.16.803-.242 1.28-.242zm.03 1.164c-.403 0-.718.113-.945.34-.228.226-.376.544-.445.956h2.622c0-.172-.023-.336-.07-.492-.047-.155-.12-.294-.223-.413-.103-.12-.23-.216-.385-.285-.155-.07-.34-.106-.555-.106zM242.54 60.502v-6.186h1.038c.21 0 .352.096.42.287l.105.433c.126-.12.257-.23.393-.33s.28-.187.433-.258c.15-.072.316-.128.493-.168.177-.04.37-.06.576-.06.34 0 .643.058.908.173.264.116.487.278.667.486.18.207.317.455.41.743s.136.604.136.948v3.93h-1.676v-3.93c0-.344-.082-.61-.244-.8-.163-.19-.402-.285-.72-.285-.24 0-.462.05-.667.152-.206.103-.402.24-.588.417V60.5h-1.684zM251.626 60.598c-.285 0-.537-.04-.756-.123-.22-.082-.404-.198-.555-.35s-.265-.337-.342-.553c-.077-.217-.116-.46-.116-.732v-3.336h-.59c-.09 0-.167-.028-.23-.084s-.094-.14-.094-.252v-.648l1.006-.18.34-1.602c.045-.18.17-.27.373-.27h.878v1.883h1.623v1.153h-1.622v3.23c0 .17.043.307.126.406.083.1.202.15.357.15.08 0 .15-.01.207-.028.057-.018.106-.038.146-.06l.113-.06c.034-.02.07-.027.105-.027.05 0 .09.01.122.033.033.02.065.06.098.11l.506.792c-.23.18-.493.316-.786.408-.292.094-.595.14-.908.14zM257.968 55.588c-.045.068-.09.117-.137.147-.046.03-.11.045-.19.045-.083 0-.166-.02-.25-.06-.086-.04-.182-.084-.288-.13-.106-.046-.227-.09-.363-.13-.138-.04-.295-.06-.474-.06-.272 0-.484.056-.634.166-.15.11-.226.255-.226.435 0 .125.042.23.128.313.085.085.198.157.338.22.14.062.3.12.48.174.178.054.362.113.55.177.19.064.374.138.553.222.18.085.338.19.48.315.14.127.252.28.337.457.085.178.128.393.128.645 0 .3-.056.577-.168.83-.112.256-.275.475-.49.658-.216.185-.485.328-.806.433-.32.104-.69.155-1.11.155-.215 0-.43-.02-.64-.057s-.413-.09-.604-.16c-.19-.07-.37-.152-.537-.244-.167-.092-.31-.19-.433-.3l.39-.618c.045-.072.1-.128.168-.168.067-.04.153-.06.26-.06.1 0 .194.024.28.075.084.05.18.104.286.16.105.06.23.113.375.163s.325.075.54.075c.164 0 .304-.018.422-.054.118-.037.213-.086.287-.148.072-.062.126-.132.16-.21s.053-.16.053-.243c0-.137-.043-.247-.13-.334-.09-.086-.203-.16-.343-.225-.14-.062-.302-.12-.485-.173-.183-.052-.37-.11-.558-.174-.19-.064-.374-.14-.555-.23-.18-.087-.34-.198-.48-.332-.142-.133-.255-.298-.343-.494-.088-.195-.132-.434-.132-.714 0-.256.05-.5.152-.73.102-.23.254-.433.458-.608.203-.176.456-.315.76-.42.302-.104.653-.156 1.05-.156.448 0 .855.072 1.22.216.366.145.667.332.903.564l-.382.59z"/></g><g fill="#F9A01B"><path d="M197.09 185.796v1.452h-2.586v7.254h-1.835v-7.254h-2.586v-1.452h7.005zM202.12 194.502c-.16 0-.28-.02-.363-.066-.083-.044-.15-.136-.204-.275l-.134-.39c-.16.137-.313.256-.46.357s-.304.188-.464.258c-.16.07-.332.123-.512.16-.18.035-.38.053-.6.053-.278 0-.53-.036-.757-.107-.228-.07-.424-.18-.588-.32s-.293-.32-.382-.53-.134-.457-.134-.732c0-.23.06-.455.177-.682.12-.226.32-.432.607-.617.287-.188.67-.343 1.146-.467s1.077-.193 1.796-.21v-.317c0-.39-.084-.673-.25-.855-.168-.18-.408-.27-.72-.27-.232 0-.426.025-.58.08-.154.054-.29.11-.405.174l-.327.174s-.22.08-.354.08c-.118 0-.216-.028-.296-.086-.08-.06-.145-.127-.198-.207l-.3-.528c.37-.328.78-.573 1.227-.735.447-.16.93-.242 1.45-.242.375 0 .71.06 1.004.18.296.12.546.287.75.5.206.215.364.47.473.766.11.297.165.62.165.973v3.887h-.768zm-2.213-1.02c.276 0 .518-.05.726-.147.207-.098.413-.25.616-.453v-.96c-.412.016-.753.05-1.025.103-.272.052-.49.116-.65.194s-.273.167-.34.27c-.067.102-.1.213-.1.333 0 .24.067.41.203.51s.325.15.57.15zM205.64 191.31l-2.05-2.993h1.616c.122 0 .21.016.268.048.057.032.108.084.153.155l1.226 1.963c.024-.068.053-.137.085-.204.032-.07.07-.14.116-.21l.945-1.52c.097-.156.223-.233.377-.233h1.543l-2.05 2.922 2.136 3.263h-1.616c-.122 0-.22-.03-.296-.09-.075-.06-.135-.13-.18-.21l-1.238-2.034c-.037.135-.09.255-.16.36l-1.06 1.673c-.05.076-.11.145-.18.207-.07.062-.162.093-.27.093h-1.5l2.133-3.193zM215.65 191.184v3.318h-1.83v-8.706h2.782c.618 0 1.146.063 1.585.19s.8.3 1.08.523c.28.224.486.49.616.8.13.31.195.65.195 1.023 0 .288-.042.56-.125.82-.083.257-.205.49-.363.704-.16.212-.354.4-.585.563-.232.164-.498.296-.8.396.12.063.23.14.333.23.104.09.196.197.278.32l2.06 3.133h-1.652c-.31 0-.532-.117-.67-.35l-1.683-2.67c-.068-.103-.145-.18-.228-.228-.083-.048-.206-.072-.37-.072h-.62zm0-1.266h.94c.297 0 .553-.037.77-.11.214-.074.39-.177.53-.307s.24-.282.304-.458c.065-.176.098-.368.098-.576 0-.412-.14-.73-.418-.96-.278-.228-.702-.342-1.27-.342h-.952v2.754zM225.67 194.502c-.16 0-.28-.02-.363-.066-.083-.044-.15-.136-.204-.275l-.134-.39c-.16.137-.313.256-.46.357s-.304.188-.464.258c-.16.07-.332.123-.512.16-.18.035-.38.053-.6.053-.278 0-.53-.036-.757-.107-.228-.07-.424-.18-.588-.32s-.293-.32-.382-.53-.134-.457-.134-.732c0-.23.06-.455.177-.682.12-.226.32-.432.607-.617.287-.188.67-.343 1.146-.467s1.077-.193 1.796-.21v-.317c0-.39-.084-.673-.25-.855-.168-.18-.408-.27-.72-.27-.232 0-.426.025-.58.08-.154.054-.29.11-.405.174l-.327.174s-.22.08-.354.08c-.118 0-.216-.028-.296-.086-.08-.06-.145-.127-.198-.207l-.3-.528c.37-.328.78-.573 1.227-.735.447-.16.93-.242 1.45-.242.375 0 .71.06 1.004.18.296.12.546.287.75.5.206.215.364.47.473.766.11.297.165.62.165.973v3.887h-.768zm-2.213-1.02c.276 0 .518-.05.726-.147.207-.098.413-.25.616-.453v-.96c-.412.016-.753.05-1.025.103-.272.052-.49.116-.65.194s-.273.167-.34.27c-.067.102-.1.213-.1.333 0 .24.067.41.203.51s.325.15.57.15zM229.927 194.598c-.285 0-.537-.04-.756-.123-.218-.082-.403-.198-.554-.35s-.265-.337-.342-.553c-.077-.217-.116-.46-.116-.732v-3.336h-.59c-.09 0-.167-.028-.23-.084s-.094-.14-.094-.252v-.648l1.006-.18.342-1.602c.044-.18.168-.27.372-.27h.878v1.883h1.622v1.153h-1.622v3.23c0 .17.042.307.125.406.083.1.202.15.357.15.08 0 .15-.01.207-.028.058-.018.107-.038.147-.06l.113-.06c.035-.02.07-.027.106-.027.05 0 .09.01.122.033.033.02.065.06.098.11l.506.792c-.232.18-.494.316-.787.408-.293.094-.595.14-.908.14zM235.085 188.22c.402 0 .773.063 1.113.19s.632.308.878.548c.246.24.437.535.573.885.135.35.203.75.203 1.197 0 .124-.006.226-.018.306s-.033.145-.06.192c-.03.048-.068.08-.117.1-.048.018-.112.026-.19.026h-3.773c.053.58.22 1.004.503 1.27.283.27.653.403 1.113.403.233 0 .433-.027.602-.08.17-.055.317-.115.445-.18l.348-.182c.104-.054.206-.08.308-.08.13 0 .23.048.305.144l.488.6c-.18.203-.376.372-.59.507-.217.134-.44.24-.672.317s-.465.132-.7.162-.464.045-.684.045c-.44 0-.85-.07-1.23-.212s-.71-.352-.993-.63c-.283-.278-.505-.623-.668-1.035s-.245-.89-.245-1.434c0-.42.07-.817.21-1.19.14-.37.342-.695.606-.97.265-.277.586-.496.965-.658.378-.16.805-.242 1.28-.242zm.03 1.164c-.402 0-.717.113-.944.34-.227.226-.375.544-.444.956h2.622c0-.172-.023-.336-.07-.492-.047-.155-.12-.294-.223-.413-.102-.12-.23-.216-.384-.285-.153-.07-.338-.106-.554-.106zM243.727 186.558c0 .14-.03.27-.085.39-.057.12-.133.227-.23.318-.094.093-.206.164-.334.217-.128.052-.266.077-.412.077-.14 0-.27-.025-.394-.077-.124-.053-.233-.124-.326-.217-.094-.092-.168-.197-.223-.317s-.082-.25-.082-.392c0-.14.028-.27.083-.393s.13-.23.223-.32c.093-.093.202-.165.326-.217s.255-.078.394-.078c.146 0 .283.026.412.078.128.052.24.124.335.216.096.092.172.2.23.32.055.123.084.254.084.394zm-.202 1.758v6.186h-1.683v-6.186h1.683zM244.964 194.502v-6.186H246c.212 0 .353.096.422.287l.104.433c.126-.12.257-.23.393-.33s.28-.187.432-.258c.152-.072.317-.128.494-.168.177-.04.37-.06.576-.06.34 0 .644.058.91.173.263.116.486.278.666.486.18.207.317.455.41.743s.136.604.136.948v3.93h-1.677v-3.93c0-.344-.082-.61-.244-.8-.163-.19-.402-.285-.72-.285-.24 0-.462.05-.667.152-.206.103-.402.24-.588.417v4.446h-1.684zM256.168 185.805c.055.006.105.02.15.042.044.022.086.052.127.087.04.036.085.084.134.145l4.438 5.55c-.016-.153-.028-.3-.037-.445-.007-.144-.01-.28-.01-.407v-4.98h1.615v8.706h-.945c-.142 0-.262-.023-.36-.07s-.193-.124-.287-.235l-4.41-5.516c.013.14.022.277.028.41.007.135.01.26.01.376v5.034h-1.616v-8.706h.964c.08-.002.146 0 .2.007zM267.045 188.22c.472 0 .9.074 1.287.223.386.147.718.358.994.633.276.273.49.606.64 1 .15.39.226.833.226 1.325s-.075.936-.226 1.33c-.15.394-.364.728-.64 1.005-.276.275-.608.487-.994.636-.386.148-.815.223-1.287.223-.476 0-.908-.074-1.296-.222-.39-.147-.722-.36-.998-.635-.276-.276-.49-.61-.643-1.006-.154-.395-.23-.838-.23-1.33 0-.49.076-.934.23-1.325.15-.393.366-.726.642-1 .276-.273.61-.484.997-.632.387-.15.82-.223 1.295-.223zm0 5.13c.48 0 .835-.162 1.067-.488.23-.326.347-.812.347-1.455 0-.64-.117-1.123-.348-1.45-.232-.325-.588-.488-1.067-.488-.492 0-.854.162-1.085.488s-.348.81-.348 1.45c0 .643.116 1.128.348 1.454s.593.488 1.085.488zM271.252 194.502v-6.186h1.037c.21 0 .35.096.42.287l.097.402c.11-.112.223-.216.338-.312.116-.097.24-.18.375-.25.134-.07.28-.124.436-.164.157-.04.327-.062.51-.062.385 0 .705.102.957.304.252.2.443.47.573.807.102-.197.227-.366.375-.508.15-.143.312-.257.49-.346.176-.088.363-.152.56-.194s.396-.063.595-.063c.354 0 .667.052.94.155.27.104.5.257.685.46s.326.448.424.74.146.624.146.996v3.93h-1.683v-3.93c0-.724-.315-1.085-.945-1.085-.142 0-.273.022-.393.068-.12.046-.227.115-.318.207-.09.093-.163.206-.213.342-.052.137-.077.292-.077.47v3.93H274.9v-3.93c0-.394-.078-.672-.235-.838-.156-.166-.387-.25-.692-.25-.195 0-.38.046-.552.136-.17.09-.333.215-.483.375v4.506h-1.685zM283.473 186.558c0 .14-.03.27-.086.39s-.133.227-.23.318c-.095.093-.206.164-.334.217-.128.052-.266.077-.41.077-.14 0-.27-.025-.396-.077-.123-.053-.232-.124-.326-.217-.093-.092-.167-.197-.222-.317s-.082-.25-.082-.392c0-.14.027-.27.082-.393s.13-.23.223-.32.204-.165.327-.217c.125-.052.256-.078.395-.078.146 0 .283.026.41.078s.24.124.336.216.172.2.23.32.085.254.085.394zm-.202 1.758v6.186h-1.683v-6.186h1.684zM284.71 194.502v-6.186h1.037c.212 0 .352.096.42.287l.105.433c.126-.12.257-.23.393-.33.137-.1.28-.187.434-.258.15-.072.315-.128.493-.168.177-.04.37-.06.576-.06.34 0 .644.058.907.173.265.116.487.278.668.486.182.207.317.455.408.743.092.288.138.604.138.948v3.93h-1.676v-3.93c0-.344-.082-.61-.244-.8-.162-.19-.402-.285-.72-.285-.24 0-.462.05-.667.152-.206.103-.402.24-.59.417v4.446h-1.682zM295.784 194.502c-.16 0-.28-.02-.362-.066-.084-.044-.152-.136-.205-.275l-.134-.39c-.16.137-.312.256-.46.357s-.303.188-.464.258c-.162.07-.332.123-.514.16-.18.035-.38.053-.6.053-.277 0-.53-.036-.757-.107-.23-.07-.425-.18-.59-.32-.164-.142-.29-.32-.38-.53s-.135-.457-.135-.732c0-.23.06-.455.177-.682.117-.226.32-.432.606-.617.286-.188.67-.343 1.146-.467s1.077-.193 1.796-.21v-.317c0-.39-.084-.673-.25-.855-.166-.18-.406-.27-.72-.27-.23 0-.425.025-.58.08-.153.054-.288.11-.404.174l-.327.174s-.22.08-.355.08c-.117 0-.216-.028-.295-.086-.08-.06-.146-.127-.2-.207l-.298-.528c.37-.328.78-.573 1.227-.735.446-.16.93-.242 1.45-.242.374 0 .71.06 1.003.18.295.12.545.287.75.5.206.215.363.47.473.766.11.297.165.62.165.973v3.887h-.766zm-2.214-1.02c.277 0 .52-.05.727-.147.207-.098.412-.25.615-.453v-.96c-.41.016-.752.05-1.024.103-.272.052-.49.116-.65.194s-.273.167-.34.27c-.067.102-.1.213-.1.333 0 .24.066.41.202.51.137.1.326.15.57.15zM299.565 185.556v8.946h-1.683v-8.946h1.683zM310.12 192.36c.103 0 .188.035.257.107l.726.762c-.358.447-.802.787-1.333 1.02-.53.232-1.16.348-1.893.348-.663 0-1.26-.11-1.787-.333-.528-.222-.978-.53-1.348-.927-.37-.396-.654-.866-.854-1.41s-.3-1.138-.3-1.782c0-.432.048-.843.144-1.232s.235-.75.418-1.077c.184-.328.404-.624.662-.888.258-.266.55-.49.875-.676.325-.187.68-.328 1.064-.427.385-.098.794-.146 1.23-.146.325 0 .633.028.924.085.29.056.563.134.814.233.252.1.484.222.697.363.214.144.406.298.576.466l-.614.828c-.037.052-.084.1-.14.138-.058.04-.135.06-.232.06s-.196-.033-.296-.102c-.1-.067-.222-.144-.365-.228-.145-.084-.326-.16-.543-.23-.218-.066-.493-.1-.826-.1-.37 0-.71.065-1.02.197-.31.13-.574.322-.795.572-.223.25-.395.557-.517.92-.12.364-.183.778-.183 1.242 0 .47.065.886.198 1.25.132.367.313.677.543.93.23.25.5.44.806.57.307.132.635.196.984.196.207 0 .396-.01.564-.03.168-.02.325-.054.47-.102.144-.048.28-.11.408-.186.128-.076.257-.173.388-.288.045-.036.092-.066.14-.09.05-.022.104-.034.16-.034zM314.627 188.22c.402 0 .773.063 1.113.19.34.125.632.308.878.548.245.24.437.535.573.885.138.35.205.75.205 1.197 0 .124-.006.226-.02.306-.01.08-.03.145-.06.192-.03.048-.067.08-.116.1-.05.018-.113.026-.19.026h-3.774c.053.58.22 1.004.504 1.27.282.27.652.403 1.112.403.23 0 .433-.027.6-.08.17-.055.318-.115.446-.18l.348-.182c.104-.054.206-.08.31-.08.128 0 .23.048.304.144l.487.6c-.18.203-.376.372-.59.507-.218.134-.44.24-.673.317-.23.078-.465.132-.7.162-.236.03-.464.045-.684.045-.438 0-.85-.07-1.23-.212s-.71-.352-.993-.63-.505-.623-.668-1.035-.244-.89-.244-1.434c0-.42.07-.817.21-1.19.14-.37.343-.695.606-.97.264-.277.586-.496.964-.658s.805-.242 1.28-.242zm.03 1.164c-.402 0-.718.113-.944.34-.23.226-.377.544-.445.956h2.62c0-.172-.022-.336-.068-.492-.047-.155-.12-.294-.223-.413-.102-.12-.23-.216-.384-.285-.154-.07-.34-.106-.555-.106zM318.438 194.502v-6.186h1.036c.212 0 .352.096.422.287l.104.433c.125-.12.256-.23.393-.33s.28-.187.434-.258c.152-.072.316-.128.494-.168.177-.04.37-.06.577-.06.34 0 .644.058.908.173.264.116.486.278.668.486.18.207.316.455.408.743s.138.604.138.948v3.93h-1.676v-3.93c0-.344-.082-.61-.244-.8-.163-.19-.402-.285-.72-.285-.24 0-.463.05-.668.152-.206.103-.4.24-.59.417v4.446h-1.682zM327.524 194.598c-.284 0-.536-.04-.757-.123-.22-.082-.404-.198-.555-.35s-.264-.337-.342-.553c-.076-.217-.115-.46-.115-.732v-3.336h-.592c-.09 0-.166-.028-.23-.084s-.093-.14-.093-.252v-.648l1.006-.18.342-1.602c.044-.18.168-.27.37-.27h.88v1.883h1.62v1.153h-1.62v3.23c0 .17.04.307.125.406.082.1.2.15.356.15.08 0 .148-.01.206-.028.058-.018.106-.038.146-.06l.112-.06c.035-.02.07-.027.107-.027.05 0 .09.01.122.033.033.02.065.06.098.11l.507.792c-.23.18-.494.316-.786.408-.29.094-.592.14-.906.14zM333.865 189.588c-.045.068-.09.117-.137.147-.047.03-.11.045-.19.045-.083 0-.167-.02-.25-.06-.087-.04-.183-.084-.288-.13s-.227-.09-.363-.13-.293-.06-.473-.06c-.27 0-.483.056-.634.166-.15.11-.226.255-.226.435 0 .125.043.23.128.313.085.085.198.157.34.22.14.062.298.12.478.174.18.054.363.113.552.177.188.064.373.138.552.222.18.085.338.19.48.315s.253.28.337.457c.087.178.13.393.13.645 0 .3-.057.577-.168.83-.11.256-.275.475-.49.658-.216.185-.484.328-.806.433-.32.104-.69.155-1.11.155-.215 0-.428-.02-.64-.057s-.413-.09-.604-.16c-.19-.07-.37-.152-.536-.244-.168-.092-.312-.19-.434-.3l.39-.618c.046-.072.1-.128.17-.168.065-.04.15-.06.258-.06.102 0 .194.024.28.075.086.05.18.104.287.16.105.06.23.113.375.163.144.05.324.075.54.075.16 0 .302-.018.42-.054s.214-.086.286-.148c.074-.062.127-.132.162-.21s.052-.16.052-.243c0-.137-.044-.247-.13-.334-.09-.086-.203-.16-.343-.225-.14-.062-.303-.12-.486-.173-.182-.052-.368-.11-.557-.174-.19-.064-.375-.14-.556-.23s-.34-.198-.48-.332-.254-.298-.342-.494c-.088-.195-.13-.434-.13-.714 0-.256.05-.5.15-.73.103-.23.255-.433.458-.608s.457-.315.76-.42c.303-.104.653-.156 1.052-.156.447 0 .854.072 1.22.216.365.145.666.332.902.564l-.385.59z"/></g></svg>