<svg xmlns="http://www.w3.org/2000/svg" width="307.5" height="341.75" viewBox="0 0 307.5 341.75"><style>text, tspan { font-family: &apos;Lato&apos;; } .heavy { font-weight: 700; }</style><text transform="translate(166.603 14.309)" fill="#4D4D4E" font-size="18.618">5%</text><path fill-rule="evenodd" clip-rule="evenodd" fill="#CC333F" d="M153.5 38.447c15.85 0 31.6 2.494 46.672 7.39L153.5 189.48V38.446z"/><path stroke="#fff" stroke-width="1.5" stroke-linejoin="round" stroke-miterlimit="10" d="M153.5 38.447c15.85 0 31.6 2.494 46.672 7.39L153.5 189.48V38.446z" fill="none"/><path fill-rule="evenodd" clip-rule="evenodd" fill="#29AAE2" d="M200.172 45.837c79.33 25.777 122.746 110.982 96.97 190.314-25.775 79.332-110.982 122.746-190.313 96.97C27.497 307.346-15.918 222.14 9.86 142.81c20.218-62.23 78.208-104.36 143.64-104.36v151.03l46.672-143.64z"/><path stroke="#fff" stroke-width="1.5" stroke-linejoin="round" stroke-miterlimit="10" d="M200.172 45.837c79.33 25.777 122.746 110.982 96.97 190.314-25.775 79.332-110.982 122.746-190.313 96.97C27.497 307.346-15.918 222.14 9.86 142.81c20.218-62.23 78.208-104.36 143.64-104.36v151.03l46.672-143.64z" fill="none"/><text transform="translate(61.688 14.309)" fill="#666766" class="heavy" font-size="14">U.S. Population</text><text transform="translate(131.978 220.883)"><tspan x="0" y="0" fill="#fff" class="heavy" font-size="14">World</tspan><tspan x="-14.493" y="16.8" fill="#fff" class="heavy" font-size="14">Population</tspan></text><text transform="translate(132.918 263.079)" fill="#fff" font-size="18.618">95%</text><path stroke="#808080" stroke-miterlimit="10" fill="none" d="M173.75 38.447l3.086-20.197"/></svg>