<svg xmlns="http://www.w3.org/2000/svg" width="556.833" height="242.376" viewBox="0 0 556.833 242.376"><style>text, tspan { font-family: &apos;Lato&apos;; } .heavy { font-weight: 700; }</style><text transform="matrix(1.008 -.004 .004 1 214.682 91.635)" fill="#29AAE2" font-family="'Lato-Heavy'" font-size="12">Foreign Taxable Income</text><text transform="matrix(1.008 -.004 .004 1 233.505 177.969)" fill="#F79420" font-family="'Lato-Heavy'" font-size="12">Foreign Taxes Paid</text><path stroke="#E0E1E0" stroke-linejoin="round" stroke-miterlimit="10" d="M29.137 8.486h516.57M29.136 30.86h516.57M29.136 52.517h516.57M29.136 74.17h516.57M29.136 96.545h516.57M29.136 118.2h516.57m-516.57 22.374h516.57m-516.57 21.653h516.57m-516.57 22.377h516.57m-516.57 21.653h516.57" fill="none"/><path stroke="#9B9B9B" stroke-linejoin="round" stroke-miterlimit="10" fill="none" d="M29.262 228.195h516.444M545.706 225.727v4.777m-28.935-4.777v4.777m-28.482-4.777v4.777m-28.484-4.777v4.777m-29.053-4.777v4.777m-28.48-4.777v4.777m-28.485-4.777v4.777m-29.053-4.777v4.777m-28.483-4.777v4.777m-28.485-4.777v4.777m-29.053-4.777v4.777m-28.483-4.777v4.777m-29.054-4.777v4.777m-28.483-4.777v4.777m-28.484-4.777v4.777m-29.053-4.777v4.777m-28.484-4.777v4.777m-28.484-4.777v4.777m-29.053-4.777v4.777"/><path stroke="#32BBE8" stroke-width="3" stroke-linecap="round" stroke-linejoin="round" stroke-miterlimit="10" d="M516.77 42.41l28.936-20.932m-57.418 23.098l28.483-2.166m-56.966 4.332l28.483-2.166m-57.536 24.54l29.054-22.374m-57.535-15.88l28.48 38.255m-56.965 36.81l28.484-75.065m-57.538 90.946l29.053-15.88m-57.536 36.81l28.482-20.93m-56.967 17.32l28.483 3.61m-57.536-23.817l29.053 20.21m-57.536-6.495l28.482-13.714m-57.536 23.098l29.053-9.383m-57.537 1.443l28.483 7.94m-56.967-5.775l28.483-2.165m-57.536 18.044l29.052-15.88M86.672 162.95l28.484-10.828M58.19 165.115l28.482-2.165m-57.535 5.774l29.053-3.608" fill="none"/><path stroke="#FAA526" stroke-width="3" stroke-linecap="round" stroke-linejoin="round" stroke-miterlimit="10" d="M516.77 181.716l28.936-9.384m-57.418 2.166l28.483 7.218m-56.966.72l28.483-7.937m-57.536 12.99l29.054-5.054m-57.535-8.66l28.48 13.714m-56.965 9.383l28.484-23.097m-57.538 27.427l29.053-4.33m-57.536 9.384l28.482-5.054m-56.967 2.888l28.483 2.167m-57.536-7.22l29.053 5.054m-57.536.723l28.482-5.775m-57.536 5.053l29.053.724m-57.537-3.61l28.483 2.887m-56.967-.72l28.483-2.167m-57.536 7.22l29.052-5.054m-57.537 7.94l28.484-2.888m-56.968 4.33l28.482-1.442m-57.535 1.442H58.19" fill="none"/><text transform="matrix(1.008 0 0 1 18.283 227.893)" fill="#4E4E4E" font-size="10">0</text><text transform="translate(11.864 205.94)" fill="#4E4E4E" font-size="10">50</text><text transform="translate(3.115 183.983)" fill="#4E4E4E" font-size="10">100</text><text transform="translate(3.115 162.029)" fill="#4E4E4E" font-size="10">150</text><text transform="translate(3.115 140.074)" fill="#4E4E4E" font-size="10">200</text><text transform="translate(3.115 118.119)" fill="#4E4E4E" font-size="10">250</text><text transform="translate(3.115 96.165)" fill="#4E4E4E" font-size="10">300</text><text transform="translate(3.115 74.21)" fill="#4E4E4E" font-size="10">350</text><text transform="translate(3.115 52.255)" fill="#4E4E4E" font-size="10">400</text><text transform="translate(3.115 30.301)" fill="#4E4E4E" font-size="10">450</text><text transform="translate(-2.685 8.346)" fill="#4E4E4E" font-size="10">$500</text><text transform="translate(17.217 241.991)" fill="#4E4E4E" font-size="10">1992</text><text transform="translate(45.779 241.991)" fill="#4E4E4E" font-size="10">1993</text><text transform="translate(74.6 241.991)" fill="#4E4E4E" font-size="10">1994</text><text transform="translate(103.162 241.991)" fill="#4E4E4E" font-size="10">1995</text><text transform="translate(131.853 241.991)" fill="#4E4E4E" font-size="10">1996</text><text transform="translate(160.673 241.991)" fill="#4E4E4E" font-size="10">1997</text><text transform="translate(188.951 241.991)" fill="#4E4E4E" font-size="10">1998</text><text transform="translate(217.927 241.991)" fill="#4E4E4E" font-size="10">1999</text><text transform="translate(246.618 241.991)" fill="#4E4E4E" font-size="10">2000</text><text transform="translate(275.438 241.991)" fill="#4E4E4E" font-size="10">2001</text><text transform="translate(304.13 241.991)" fill="#4E4E4E" font-size="10">2002</text><text transform="translate(332.691 241.991)" fill="#4E4E4E" font-size="10">2003</text><text transform="translate(361.51 241.991)" fill="#4E4E4E" font-size="10">2004</text><text transform="translate(390.074 241.991)" fill="#4E4E4E" font-size="10">2005</text><text transform="translate(418.765 241.991)" fill="#4E4E4E" font-size="10">2006</text><text transform="translate(447.586 241.991)" fill="#4E4E4E" font-size="10">2007</text><text transform="translate(475.862 241.991)" fill="#4E4E4E" font-size="10">2008</text><text transform="translate(504.838 241.991)" fill="#4E4E4E" font-size="10">2009</text><text transform="translate(533.532 241.991)" fill="#4E4E4E" font-size="10">2010</text></svg>