<svg xmlns="http://www.w3.org/2000/svg" width="353.285" height="323.594" viewBox="0 0 353.285 323.594"><style>text, tspan { font-family: &apos;Lato&apos;; } .heavy { font-weight: 700; }</style><path stroke="#CDCCCC" stroke-linejoin="round" stroke-miterlimit="10" d="M27.86 9.54h325.23M27.86 53.025h325.23M27.86 95.365h325.23M27.86 138.853h325.23M27.86 182.338h325.23M27.86 268.164h325.23M27.86 311.65h325.23" fill="none"/><path fill="#58B78D" d="M239.455 55.314H304.5v170.51h-65.045V55.313zM77.233 85.067h65.046v140.756H77.232V85.067z"/><path fill="#F79420" d="M239.455 270.453H304.5v-44.63h-65.045v44.63zm-162.222 0h65.046v-44.63H77.232v44.63z"/><path fill="#CC333F" d="M77.233 270.453h65.046v30.897H77.232z"/><path stroke="#9B9B9B" stroke-linejoin="round" stroke-miterlimit="10" fill="none" d="M28.143 225.345h325.142"/><text transform="translate(102.611 159.786)" fill="#fff" class="heavy" font-size="9.155">$65</text><text transform="translate(264.897 144.679)" fill="#fff" class="heavy" font-size="9.155">$79</text><text transform="translate(101.357 252.581)" fill="#fff" class="heavy" font-size="9.155">-$21</text><text transform="translate(263.928 252.581)" fill="#fff" class="heavy" font-size="9.155">-$21</text><text transform="translate(101.308 290.348)" fill="#fff" class="heavy" font-size="9.155">-$14</text><text transform="translate(7.263 310.523)" fill="#4E4E4E" font-size="10">-40</text><text transform="translate(4.703 267.362)" fill="#4E4E4E" font-size="10">-20</text><text transform="translate(15.778 224.2)" fill="#4E4E4E" font-size="10">0</text><text transform="translate(8.89 181.04)" fill="#4E4E4E" font-size="10">20</text><text transform="translate(8.89 137.879)" fill="#4E4E4E" font-size="10">40</text><text transform="translate(8.89 94.717)" fill="#4E4E4E" font-size="10">60</text><text transform="translate(8.89 51.557)" fill="#4E4E4E" font-size="10">80</text><text transform="translate(-2.71 8.396)" fill="#4E4E4E" font-size="10">$100</text><text transform="translate(72.567 26.99)" fill="#4E4E4E" font-size="12">U.S. Company</text><text transform="translate(228.449 26.99)" fill="#4E4E4E" font-size="12">French Company</text><text transform="translate(146.356 122.582)" fill="#58B78D" class="heavy" font-size="12">After-Tax Proﬁt</text><text transform="translate(151.821 245.248)"><tspan x="0" y="0" fill="#F79420" class="heavy" font-size="12">UK Corporate</tspan><tspan x="6.276" y="14.4" fill="#F79420" class="heavy" font-size="12">Income Tax</tspan></text><text transform="translate(149.253 293.902)"><tspan x="0" y="0" fill="#CC333F" class="heavy" font-size="12">Additional U.S.</tspan><tspan x="1.407" y="14.4" fill="#CC333F" class="heavy" font-size="12">Tax on Foreign</tspan><tspan x="18.786" y="28.8" fill="#CC333F" class="heavy" font-size="12">Income</tspan></text></svg>