<svg xmlns="http://www.w3.org/2000/svg" width="357.75" height="349.828" viewBox="0 0 357.75 349.828"><style>text, tspan { font-family: &apos;Lato&apos;; } .heavy { font-weight: 700; }</style><path stroke="#CDCCCC" stroke-linejoin="round" stroke-miterlimit="10" d="M20.68 8.288h335.164M20.68 54.615h335.164M20.68 100.94h335.164M20.68 147.27h335.164M20.68 193.596h335.164M20.68 239.924h335.164M20.68 286.25h335.164" fill="none"/><path stroke="#9B9B9B" stroke-linejoin="round" stroke-miterlimit="10" fill="none" d="M20.942 332.63h334.902M344.612 329.186v6.78m-27.08-6.78v6.78m-26.04-6.78v6.78m-27.082-6.78v6.78m-27.08-6.78v6.78m-27.082-6.78v6.78m-27.08-6.78v6.78m-27.083-6.78v6.78m-27.08-6.78v6.78m-27.082-6.78v6.78m-27.08-6.78v6.78m-27.082-6.78v6.78m-27.08-6.78v6.78"/><path stroke="#6CACDE" stroke-width="3" stroke-linecap="round" stroke-linejoin="round" stroke-miterlimit="10" d="M351.903 276.98h2.083m-5.208 0h3.125m-5.208 0h2.083m-5.208-8.81l3.125 8.81m-5.208-8.81h2.083m-5.208-28.246l3.125 28.247m-6.25-28.246h3.125m-5.208-9.04l2.084 9.04m-5.208-18.08l3.124 9.04m-5.207-19.21l2.083 10.17m-5.208-47.456l3.125 37.286m-6.25-46.326l3.125 9.04m-5.208-9.04h2.083m-5.208 0h3.124m-5.208-9.04l2.083 9.04m-5.21-9.04h3.126m-6.25-9.04l3.125 9.04m-5.207-9.04h2.084m-5.208 0h3.123m-5.208 0h2.084m-5.21 0h3.125m-6.25 0h3.126m-5.207-19.208l2.083 19.208m-5.208-28.247l3.125 9.04m-5.208-18.08l2.083 9.04m-5.208-18.08l3.125 9.04m-6.25 0l3.125-9.04m-5.208 9.04h2.083m-5.207 0h3.124m-5.208 0h2.084m-5.208 0h3.124m-5.208 0h2.084m-5.208 0h3.124m-6.25 0h3.126m-5.208 0h2.083m-5.208-9.04l3.124 9.04m-5.208-9.04h2.083m-5.21 0h3.126m-6.25 0h3.125m-5.207 0h2.083m-5.207 0h3.123m-5.208 0h2.084m-5.21-9.038l3.125 9.04m-6.25-9.04h3.126m-5.207 0h2.083m-5.208 0h3.125m-5.208-10.17l2.083 10.17m-5.208-10.17h3.125m-6.25 0h3.125m-5.208 0h2.083m-5.208 0h3.125m-5.208 0h2.083m-5.207-9.04l3.124 9.04m-6.25-9.04h3.126m-5.208 0h2.083m-5.208 0h3.125m-5.208 0h2.083m-5.208 0h3.124m-5.208 0h2.083m-5.21 0h3.126m-6.25-9.038l3.125 9.04m-5.207-9.04h2.083m-5.208 0h3.125m-5.208-9.04l2.083 9.04M179 54.615h3.125m-6.25 0H179m-5.208 0h2.083m-5.208 0h3.125m-5.208 0h2.083m-5.208 0h3.124m-6.25 0h3.126m-5.21 0h2.084m-5.207 0h3.125m-5.21 0h2.084m-5.207-9.038l3.124 9.04m-6.25-9.04h3.125m-5.21 0h2.084m-5.208 0h3.125m-5.207 0h2.083m-5.208 0h3.125m-6.25 0h3.125m-5.208 0h2.083m-5.207 0h3.125m-5.208 0h2.083m-5.207 0h3.125m-6.25 0h3.125m-5.208 0h2.083m-5.208 0h3.125m-5.208 0h2.083m-5.208 0h3.125m-5.208 0h2.083m-5.208 0h3.124m-6.25 0h3.125m-5.208 0h2.083m-5.208-10.17l3.125 10.17m-5.208-10.17h2.083m-5.208 0h3.124m-6.25 0h3.125m-5.21 0h2.084m-5.207 0h3.125m-5.21-9.04l2.084 9.04m-5.207-9.04h3.124m-6.25 0h3.125m-5.21 0h2.084m-5.208 0H73.8m-5.207 0h2.083m-5.208 0h3.125m-6.25 0h3.125m-5.208 0h2.083m-5.208 0h3.125m-5.208 0h2.083m-5.207 0h3.125m-6.25 0h3.125m-5.208 0h2.083m-5.208 0h3.125m-5.208 0h2.083m-5.208 0h3.125m-5.208 0h2.083m-5.208 0h3.124m-6.25 0h3.125m-5.21 0h2.084m-5.208 0h3.125m-5.207 0h2.083" fill="none"/><text transform="translate(6.39 332.283)" fill="#4E4E4E" font-size="10">0</text><text transform="translate(6.39 285.905)" fill="#4E4E4E" font-size="10">5</text><text transform="translate(.59 239.527)" fill="#4E4E4E" font-size="10">10</text><text transform="translate(.59 193.149)" fill="#4E4E4E" font-size="10">15</text><text transform="translate(.59 146.772)" fill="#4E4E4E" font-size="10">20</text><text transform="translate(.59 100.395)" fill="#4E4E4E" font-size="10">25</text><text transform="translate(.59 54.017)" fill="#4E4E4E" font-size="10">30</text><text transform="translate(.59 7.639)" fill="#4E4E4E" font-size="10">35</text><text transform="translate(9.451 349.709)" fill="#4E4E4E" font-size="10">1891</text><text transform="translate(36.459 349.709)" fill="#4E4E4E" font-size="10">1901</text><text transform="translate(63.467 349.709)" fill="#4E4E4E" font-size="10">1911</text><text transform="translate(90.475 349.709)" fill="#4E4E4E" font-size="10">1921</text><text transform="translate(117.484 349.709)" fill="#4E4E4E" font-size="10">1931</text><text transform="translate(144.492 349.709)" fill="#4E4E4E" font-size="10">1941</text><text transform="translate(171.5 349.709)" fill="#4E4E4E" font-size="10">1951</text><text transform="translate(198.508 349.709)" fill="#4E4E4E" font-size="10">1961</text><text transform="translate(225.517 349.709)" fill="#4E4E4E" font-size="10">1971</text><text transform="translate(252.524 349.709)" fill="#4E4E4E" font-size="10">1981</text><text transform="translate(279.533 349.709)" fill="#4E4E4E" font-size="10">1991</text><text transform="translate(306.541 349.709)" fill="#4E4E4E" font-size="10">2001</text><text transform="translate(333.549 349.709)" fill="#4E4E4E" font-size="10">2011</text></svg>