<svg xmlns="http://www.w3.org/2000/svg" width="539.979" height="240.668" viewBox="0 0 539.979 240.668"><style>text, tspan { font-family: &apos;Lato&apos;; } .heavy { font-weight: 700; }</style><path stroke="#E0E1E0" stroke-linejoin="round" stroke-miterlimit="10" d="M26.684 8.094H527.29M26.685 50.62H527.29M26.685 94.233H527.29M26.685 137.85H527.29M26.685 180.373H527.29" fill="none"/><path stroke="#9B9B9B" stroke-linejoin="round" stroke-miterlimit="10" fill="none" d="M26.767 223.99H527.29M527.29 220.718v6.542m-28.123-6.542v6.542m-27.613-6.542v6.542m-27.613-6.542v6.542m-27.61-6.542v6.542m-27.614-6.542v6.542m-28.635-6.542v6.542m-27.612-6.542v6.542m-27.613-6.542v6.542m-27.613-6.542v6.542m-27.612-6.542v6.542m-28.635-6.542v6.542m-27.613-6.542v6.542m-27.612-6.542v6.542m-27.613-6.542v6.542m-27.613-6.542v6.542m-28.635-6.542v6.542m-27.614-6.542v6.542m-27.612-6.542v6.542"/><path stroke="#32BBE8" stroke-width="3" stroke-linecap="round" stroke-linejoin="round" stroke-miterlimit="10" d="M499.167 94.234l28.124-19.627M471.555 57.16l27.613 37.074m-55.226-2.18l27.613-34.893M416.33 88.783l27.61 3.27m-55.224-21.806l27.613 18.537m-56.25 2.18l28.636-20.717m-56.248 22.898l27.613-2.18m-55.225-3.273l27.612 5.453m-55.225-16.355l27.613 10.903m-55.225-8.72l27.612-2.182m-56.247 18.02l28.635-15.84m-56.248-7.632l27.613 23.47M165.77 63.704l27.613 7.633m-55.226 3.27l27.613-10.903m-55.226 25.08l27.612-14.176M81.91 84.42l28.635 4.362m-56.25 5.452L81.91 84.42m-55.224 1.09l27.613 8.724" fill="none"/><path stroke="#FAA526" stroke-width="3" stroke-linecap="round" stroke-linejoin="round" stroke-miterlimit="10" stroke-dasharray="6.0003,6.0003" d="M499.167 82.157h28.124m-55.736 0h27.613m-55.226 0h27.613m-55.224 0h27.61m-55.224 0h27.613m-56.25 0h28.636m-56.248 0h27.613m-55.225 0h27.612m-55.225 0h27.613m-55.225 0h27.612m-56.247 0h28.635m-56.248 0h27.613m-55.225 0h27.613m-55.226 0h27.613m-55.226 0h27.612m-56.247 0h28.635m-56.25 0H81.91m-55.224 0h27.613" fill="none"/><text transform="translate(-.104 223.916)" fill="#4E4E4E" font-size="10">10</text><text transform="translate(-.104 180.645)" fill="#4E4E4E" font-size="10">15</text><text transform="translate(-.104 137.377)" fill="#4E4E4E" font-size="10">20</text><text transform="translate(-.104 94.107)" fill="#4E4E4E" font-size="10">25</text><text transform="translate(-.104 50.837)" fill="#4E4E4E" font-size="10">30</text><text transform="translate(-.104 7.568)" fill="#4E4E4E" font-size="10">35%</text><text transform="translate(14.428 240.346)" fill="#4E4E4E" font-size="10">1992</text><text transform="translate(42.759 240.346)" fill="#4E4E4E" font-size="10">1993</text><text transform="translate(70.041 240.346)" fill="#4E4E4E" font-size="10">1994</text><text transform="translate(99.373 240.346)" fill="#4E4E4E" font-size="10">1995</text><text transform="translate(127.18 240.346)" fill="#4E4E4E" font-size="10">1996</text><text transform="translate(154.462 240.346)" fill="#4E4E4E" font-size="10">1997</text><text transform="translate(182.282 240.346)" fill="#4E4E4E" font-size="10">1998</text><text transform="translate(210.601 240.346)" fill="#4E4E4E" font-size="10">1999</text><text transform="translate(238.407 240.346)" fill="#4E4E4E" font-size="10">2000</text><text transform="translate(266.69 240.346)" fill="#4E4E4E" font-size="10">2001</text><text transform="translate(294.497 240.346)" fill="#4E4E4E" font-size="10">2002</text><text transform="translate(321.828 240.346)" fill="#4E4E4E" font-size="10">2003</text><text transform="translate(350.11 240.346)" fill="#4E4E4E" font-size="10">2004</text><text transform="translate(377.441 240.346)" fill="#4E4E4E" font-size="10">2005</text><text transform="translate(405.248 240.346)" fill="#4E4E4E" font-size="10">2006</text><text transform="translate(433.531 240.346)" fill="#4E4E4E" font-size="10">2007</text><text transform="translate(460.351 240.346)" fill="#4E4E4E" font-size="10">2008</text><text transform="translate(488.669 240.346)" fill="#4E4E4E" font-size="10">2009</text><text transform="translate(516.476 240.346)" fill="#4E4E4E" font-size="10">2010</text><text transform="translate(183.757 62.427)" fill="#29AAE2" class="heavy" font-size="12">Effective Tax Rate</text><text transform="translate(70.976 106.216)" fill="#F8B668" class="heavy" font-size="12">Average (1992–2010)</text></svg>