<svg xmlns="http://www.w3.org/2000/svg" width="550" height="231" viewBox="0 0 550 231"><style>text, tspan { font-family: &apos;Lato&apos;; } .heavy { font-weight: 700; }</style><path stroke="#CDCCCC" stroke-width=".75" stroke-linejoin="round" stroke-miterlimit="10" d="M23.405 8.586h524.33m-524.33 32.58h524.33M23.406 75.05h524.33m-524.33 32.578h524.33M23.406 141.51h524.33m-524.33 32.582h524.33" fill="none"/><path fill="#36699A" d="M488.975 197.548h21.47v10.404h-21.47v-10.404zm-75.71 0h22.6v10.404h-22.6v-10.404zm-74.582-11.73h22.6v22.134h-22.6V185.82zm-74.58-10.424h21.47v32.56h-21.47v-32.56zm-75.714-18.245h22.6v50.802h-22.6V157.15zm-74.582-7.82h22.6v58.622h-22.6V149.33zM39.226 62.017h21.47v145.935h-21.47V62.017z"/><path fill="none" d="M23.123 7.936h525.46v200.69H23.124z"/><path fill="#CF7178" d="M510.445 189.728h22.6v18.225h-22.6v-18.225zm-74.58 9.124h21.47v9.1h-21.47v-9.1zm-74.583-15.638h21.47v24.738h-21.47v-24.738zm-75.71-15.64h22.6v40.378h-22.6v-40.378zm-74.583 20.852h21.47v19.526h-21.47v-19.526zm-74.582-36.488h21.47v56.015h-21.47v-56.015zM60.696 42.47h22.6v165.482h-22.6V42.47z"/><path fill="none" d="M23.123 7.936h525.46v200.69H23.124z"/><path stroke="#9B9B9B" stroke-linejoin="round" stroke-miterlimit="10" fill="none" d="M23.574 207.952H548.16"/><text transform="translate(6.763 207.641)" fill="#4E4E4E" font-size="10">0</text><text transform="translate(.963 174.356)" fill="#4E4E4E" font-size="10">10</text><text transform="translate(.963 141.071)" fill="#4E4E4E" font-size="10">20</text><text transform="translate(.963 107.789)" fill="#4E4E4E" font-size="10">30</text><text transform="translate(.963 74.504)" fill="#4E4E4E" font-size="10">40</text><text transform="translate(.948 41.221)" fill="#4E4E4E" font-size="10">50</text><text transform="translate(.948 7.936)" fill="#4E4E4E" font-size="10">60%</text><text transform="translate(47.455 220.5)" fill="#4E4E4E" font-size="8">Europe</text><text transform="translate(134.77 220.5)" fill="#4E4E4E" font-size="8">Asia</text><text transform="translate(193.901 220.5)" fill="#4E4E4E" font-size="8">All Other</text><text transform="translate(192.86 229.863)" fill="#4E4E4E" font-size="8">Countries</text><text transform="translate(260.659 220.5)" fill="#4E4E4E" font-size="8">Latin America</text><text transform="translate(348.434 220.5)" fill="#4E4E4E" font-size="8">Canada</text><text transform="translate(417.934 220.5)" fill="#4E4E4E" font-size="8">Oceania</text><text transform="translate(502.821 220.5)" fill="#4E4E4E" font-size="8">Africa</text><text transform="translate(44.098 23.128)" fill="#36699A" class="heavy" font-size="14">Taxable Income</text><text transform="translate(169.344 23.128)" fill="#CF7178" class="heavy" font-size="14">Taxes Paid</text><text transform="translate(387.586 95.79)"><tspan x="0" y="0" fill="#808285" class="heavy" font-size="8">Canada was the 3rd largest</tspan><tspan x="0" y="9.6" fill="#808285" class="heavy" font-size="8">county in terms of foreign</tspan><tspan x="0" y="19.2" fill="#808285" class="heavy" font-size="8">income and taxes paid by</tspan><tspan x="0" y="28.8" fill="#808285" class="heavy" font-size="8">U.S. corporations</tspan></text><path stroke="#999" stroke-width=".75" stroke-linejoin="round" d="M357.072 174.537c1.16-66.855 6.52-80.072 27.178-80.287" fill="none"/><path fill="#999" d="M360.313 173.688L357 179.113l-3.042-5.582z"/></svg>