<svg xmlns="http://www.w3.org/2000/svg" width="358.312" height="327.156" viewBox="0 0 358.312 327.156"><style>text, tspan { font-family: &apos;Lato&apos;; } .heavy { font-weight: 700; }</style><path stroke="#CDCCCC" stroke-linejoin="round" stroke-miterlimit="10" d="M22.988 8.104H357.14M22.988 67.262H357.14m-334.152 58.29H357.14m-334.152 59.16H357.14m-334.152 58.29H357.14" fill="none"/><path fill="#58B78D" d="M324.146 13.323H343.1v288.693h-18.954V13.323zm-47.736 91.35h18.954v197.344H276.41V104.672zm-47.736 16.53h18.954v180.814h-18.954V121.202zm-47.735 6.96h18.952v173.853H180.94V128.162zm-47.738 21.75h18.954v152.104h-18.954V149.912zM85.467 174.27h18.954v127.746H85.468V174.27zM37.73 241.26h18.954v60.757H37.73V241.26z"/><path stroke="#9B9B9B" stroke-linejoin="round" stroke-miterlimit="10" fill="none" d="M23.1 302.017h334.322"/><text transform="translate(39.986 234.611)" fill="#808285" class="heavy" font-size="8">10%</text><text transform="translate(87.746 167.507)" fill="#808285" class="heavy" font-size="8">22%</text><text transform="translate(135.506 143.07)" fill="#808285" class="heavy" font-size="8">26%</text><text transform="translate(183.267 121.362)" fill="#808285" class="heavy" font-size="8">30%</text><text transform="translate(231.026 114.842)" fill="#808285" class="heavy" font-size="8">31%</text><text transform="translate(278.786 98.441)" fill="#808285" class="heavy" font-size="8">34%</text><text transform="translate(325.547 6.524)" fill="#808285" class="heavy" font-size="8">49%</text><text transform="translate(5.674 301.496)" fill="#4E4E4E" font-size="10">0</text><text transform="translate(-.126 242.739)" fill="#4E4E4E" font-size="10">10</text><text transform="translate(-.126 183.98)" fill="#4E4E4E" font-size="10">20</text><text transform="translate(-.126 125.222)" fill="#4E4E4E" font-size="10">30</text><text transform="translate(-.126 66.464)" fill="#4E4E4E" font-size="10">40</text><text transform="translate(-.126 7.704)" fill="#4E4E4E" font-size="10">50%</text><text transform="translate(27.692 316.516)" fill="#4E4E4E" font-size="10">All Other</text><text transform="translate(26.392 326.957)" fill="#4E4E4E" font-size="10">Countries</text><text transform="translate(80.081 316.516)" fill="#4E4E4E" font-size="10">Oceania</text><text transform="translate(137.187 316.516)" fill="#4E4E4E" font-size="10">Asia</text><text transform="translate(174.192 316.516)" fill="#4E4E4E" font-size="10">Canada</text><text transform="translate(219.27 316.516)" fill="#4E4E4E" font-size="10">Europe</text><text transform="translate(269.772 316.516)"><tspan x="0" y="0" fill="#4E4E4E" font-size="10">Latin</tspan><tspan x="-7.107" y="10" fill="#4E4E4E" font-size="10">America</tspan></text><text transform="translate(327.995 316.516)" fill="#4E4E4E" font-size="10">Africa</text></svg>