<svg xmlns="http://www.w3.org/2000/svg" width="349.875" height="284" viewBox="0 0 349.875 284"><style>text, tspan { font-family: &apos;Lato&apos;; } .heavy { font-weight: 700; }</style><path fill="#F79420" d="M327.04 14.554H131.27v-14h195.77v14zm-4.064 26H131.27v-13h191.706v13zm-18.29 27H131.27v-13h173.416v13zm-5.42 27H131.27v-14h167.997v14zm-21 26H131.27v-13h146.997v13zm-14.225 27H131.27v-14h132.77v14zm-11.515 26H131.27v-13h121.256v13zm-1.355 27h-119.9v-13h119.9v13zm-16.258 27H131.27v-14h103.643v14zm-27.773 26h-75.87v-13h75.87v13zm-46.065 27H131.27v-14h29.805v14z"/><text transform="translate(167.077 275.626)" fill="#808285" class="heavy" font-size="8">6%</text><text transform="translate(212.61 249.024)" fill="#808285" class="heavy" font-size="8">14%</text><text transform="translate(240.797 222.423)" fill="#808285" class="heavy" font-size="8">19%</text><text transform="translate(257.06 195.822)" fill="#808285" class="heavy" font-size="8">22%</text><text transform="translate(258.552 169.221)" fill="#808285" class="heavy" font-size="8">22%</text><text transform="translate(269.527 142.619)" fill="#808285" class="heavy" font-size="8">24%</text><text transform="translate(284.163 116.019)" fill="#808285" class="heavy" font-size="8">27%</text><text transform="translate(305.303 89.417)" fill="#808285" class="heavy" font-size="8">31%</text><text transform="translate(310.182 62.815)" fill="#808285" class="heavy" font-size="8">32%</text><text transform="translate(328.612 36.215)" fill="#808285" class="heavy" font-size="8">35%</text><text transform="translate(332.948 9.613)" fill="#808285" class="heavy" font-size="8">36%</text><text transform="translate(44.169 272.626)"><tspan x="0" y="0" fill="#5D5E5E" class="heavy" font-size="8">Agriculture, forestry,</tspan><tspan x="0" y="9.6" fill="#5D5E5E" class="heavy" font-size="8">ﬁshing and hunting</tspan></text><text transform="translate(.653 251.024)" fill="#5D5E5E" class="heavy" font-size="8">Transportation and warehousing</text><text transform="translate(7.269 218.423)"><tspan x="0" y="0" fill="#5D5E5E" class="heavy" font-size="8">Finance, insurance, real estate,</tspan><tspan x="0" y="9.6" fill="#5D5E5E" class="heavy" font-size="8">rental and leasing</tspan></text><text transform="translate(78.429 197.822)" fill="#5D5E5E" class="heavy" font-size="8">Information</text><text transform="translate(66.884 171.221)" fill="#5D5E5E" class="heavy" font-size="8">Manufacturing</text><text transform="translate(45.738 144.619)" fill="#5D5E5E" class="heavy" font-size="8">Wholesale and retail</text><text transform="translate(74.156 118.019)" fill="#5D5E5E" class="heavy" font-size="8">Construction</text><text transform="translate(93.376 91.417)" fill="#5D5E5E" class="heavy" font-size="8">Utilities</text><text transform="translate(91.804 64.815)" fill="#5D5E5E" class="heavy" font-size="8">Services</text><text transform="translate(96.864 38.215)" fill="#5D5E5E" class="heavy" font-size="8">Mining</text><text transform="translate(14.945 11.613)" fill="#5D5E5E" class="heavy" font-size="8">Petroleum and coal products</text></svg>