<svg xmlns="http://www.w3.org/2000/svg" width="561" height="252" viewBox="0 0 561 252"><path fill="none" stroke="#6D6E71" stroke-miterlimit="10" stroke-dasharray="1,1" d="M376.97 96.046l25.928-4.722M402.898 91.324l32.16-9.372"/><path fill="none" stroke="#D9D9D8" stroke-width=".5" stroke-miterlimit="10" d="M45.463 188.003h504.533M45.463 144.53h504.533M45.463 101.056h504.533M45.463 57.584h504.533M45.463 14.11h504.533"/><path fill="none" stroke="#9B9B9B" stroke-linejoin="round" stroke-miterlimit="10" d="M45.463 231.476h504.533M45.463 229.19v4.57m72.12-4.57v4.57m72.018-4.57v4.57m72.12-4.57v4.57m72.018-4.57v4.57m72.12-4.57v4.57m72.02-4.57v4.57m72.118-4.57v4.57"/><path fill="none" stroke="#007BC3" stroke-width="2.16" stroke-linecap="round" stroke-linejoin="round" stroke-miterlimit="10" d="M45.463 128.982l14.444 4.42 14.444 3.317 14.345 5.894 14.444.958 14.443-.442 14.344-7.958 14.444-3.39 14.445.958 14.343-.81 14.444.073 14.444-8.474 14.444-.222 14.343-7.073 14.444.073 14.444-5.82 14.345-5.822 14.444-1.032 14.442-2.947 14.344-2.432 14.443-.442 14.443-1.4 14.444-4.2 14.343 3.832M434.646 81.9l14.443 1.84 14.343-4.2 14.444-4.346 14.443.884 14.444-12.6 14.344-1.18 14.443.075 14.445-3.316"/><path fill="none" stroke="#EF4438" stroke-width="2.16" stroke-linecap="round" stroke-linejoin="round" stroke-miterlimit="10" d="M45.463 137.75l14.444 2.212 14.444 11.936 14.344 6.336 14.444 1.548 14.444-1.548 14.344-3.094 14.444-2.285 14.443-2.283 14.344-3.76 14.444-3.166 14.445-3.39 14.444-1.694 14.342-2.653 14.444-2.064 14.444-2.948 14.343-1.105 14.445-.295 14.443.59 14.345.885 14.443-1.106 14.445-2.653 14.444-1.03 14.343 2.725 14.444-1.696 14.443-3.316 14.344-3.315 14.446-3.832 14.443-1.325 14.343-4.863 14.444-3.39 14.443-.442 14.445-7 14.343.37 14.444 4.42 14.444 3.39"/><g fill="#4E4E4E"><path d="M28.188 234.632c-.403-.036-.77-.136-1.103-.297-.332-.162-.618-.368-.857-.618l.27-.41c.027-.036.06-.066.1-.09.04-.022.083-.034.13-.034.063 0 .135.03.215.095s.178.136.295.218c.117.08.256.16.417.237.162.076.356.128.583.155l.185-2.655c-.233-.07-.462-.15-.688-.237-.225-.09-.427-.204-.605-.346s-.322-.32-.43-.534c-.108-.216-.163-.484-.163-.808 0-.243.048-.48.143-.713.095-.23.234-.438.417-.617.184-.18.408-.328.675-.442.267-.115.57-.18.915-.193l.05-.72c.003-.063.027-.12.072-.17.044-.05.103-.075.177-.075h.33l-.07.99c.35.043.653.134.908.27s.48.303.678.495l-.215.33c-.066.1-.143.15-.23.15-.046 0-.104-.02-.172-.063s-.15-.09-.245-.146c-.094-.055-.206-.11-.334-.164-.128-.056-.274-.095-.438-.118l-.165 2.42c.24.073.477.153.71.24s.443.198.63.335.338.308.453.513c.115.205.172.46.172.768 0 .3-.05.58-.15.845s-.246.495-.438.695c-.19.2-.427.362-.705.487s-.596.197-.952.218l-.06.88c-.003.063-.028.12-.075.167-.046.05-.105.073-.175.073h-.33l.075-1.13zm-.81-5.415c0 .16.027.3.084.418s.135.223.235.313.217.168.35.235c.133.066.278.126.435.18l.15-2.255c-.217.02-.404.063-.563.13s-.29.15-.39.25-.178.213-.23.338c-.048.124-.073.255-.073.39zm2.774 3.32c0-.166-.03-.31-.093-.43s-.147-.224-.253-.31c-.106-.087-.23-.162-.375-.226-.143-.062-.296-.12-.46-.174l-.17 2.49c.22-.02.414-.068.58-.143.167-.075.308-.17.422-.288.115-.116.202-.252.26-.407.06-.153.088-.324.088-.51zM37.037 230.992c0 .627-.067 1.17-.203 1.628-.135.458-.32.837-.552 1.137-.233.3-.51.523-.828.67-.318.147-.66.22-1.022.22-.367 0-.708-.072-1.022-.22-.315-.146-.59-.37-.823-.67-.233-.3-.417-.68-.55-1.137-.133-.46-.2-1-.2-1.628s.067-1.17.2-1.63.316-.84.55-1.143.508-.526.823-.674c.315-.146.656-.22 1.022-.22.363 0 .704.073 1.022.22.318.147.594.37.828.673s.417.682.552 1.142c.136.46.203 1.003.203 1.63zm-.925 0c0-.547-.046-1.006-.138-1.377-.092-.372-.215-.67-.37-.898-.155-.227-.334-.39-.538-.487-.203-.098-.415-.147-.635-.147s-.43.05-.634.147c-.203.1-.38.26-.535.487-.152.228-.275.526-.367.898-.092.37-.137.83-.137 1.377s.045 1.005.137 1.375.214.668.368.896c.154.227.333.39.536.487.204.098.415.147.635.147s.433-.05.636-.147c.204-.1.383-.26.538-.487.155-.228.278-.525.37-.896s.138-.828.138-1.375z"/></g><g fill="#4E4E4E"><path d="M16.558 191.297c-.403-.036-.77-.136-1.103-.297-.332-.162-.618-.368-.857-.618l.27-.41c.027-.036.06-.066.1-.09.04-.022.083-.034.13-.034.063 0 .135.03.215.095s.178.136.295.218c.117.082.256.16.417.238.162.076.356.128.583.155l.185-2.655c-.233-.07-.462-.15-.688-.237-.225-.088-.427-.203-.605-.345s-.322-.32-.43-.534c-.108-.215-.163-.483-.163-.807 0-.243.048-.48.143-.713.095-.23.234-.438.417-.617.184-.18.408-.328.675-.442.267-.114.57-.18.915-.192l.05-.72c.003-.063.027-.12.072-.17.044-.05.103-.075.177-.075h.33l-.07.99c.35.043.653.134.908.27s.48.303.678.495l-.215.33c-.066.1-.143.15-.23.15-.046 0-.104-.02-.172-.063s-.15-.09-.245-.146c-.094-.056-.206-.11-.334-.165-.128-.056-.274-.095-.438-.118l-.165 2.42c.24.073.477.153.71.24s.443.198.63.335.338.308.453.513c.115.205.172.46.172.768 0 .3-.05.58-.15.845s-.246.495-.438.695c-.19.2-.427.362-.705.487s-.596.197-.952.218l-.06.88c-.003.063-.028.12-.075.167-.046.05-.105.073-.175.073h-.33l.075-1.13zm-.81-5.415c0 .16.028.3.085.418s.135.223.235.313.217.168.35.235c.133.066.278.126.435.18l.15-2.255c-.217.02-.404.063-.563.13s-.29.15-.39.25-.177.213-.228.338c-.05.125-.074.256-.074.392zm2.774 3.32c0-.166-.03-.31-.093-.43s-.147-.224-.253-.31c-.106-.087-.23-.162-.375-.226-.143-.063-.296-.122-.46-.175l-.17 2.49c.22-.02.414-.067.58-.142.167-.075.308-.17.422-.288.115-.116.202-.252.26-.407.06-.153.088-.324.088-.51zM24.817 184.462c0 .127-.04.23-.118.313-.08.082-.213.123-.403.123h-2.25l-.33 1.88c.19-.043.37-.074.538-.093.168-.018.333-.027.492-.027.374 0 .704.055.99.165s.526.262.717.455c.192.193.337.422.435.685.097.264.146.55.146.86 0 .38-.066.724-.197 1.03-.133.307-.314.57-.546.787-.232.22-.504.386-.818.503-.313.116-.65.175-1.015.175-.21 0-.41-.02-.604-.063-.193-.042-.375-.098-.542-.168-.168-.07-.324-.15-.468-.24-.143-.09-.27-.185-.38-.284l.275-.38c.06-.087.14-.13.236-.13.067 0 .142.025.225.077s.186.11.306.173c.12.063.26.12.422.172s.354.078.578.078c.25 0 .475-.04.675-.12.2-.08.373-.194.516-.343.143-.148.253-.326.33-.532.077-.207.115-.438.115-.695 0-.224-.03-.425-.096-.605-.065-.18-.164-.333-.295-.46-.132-.126-.296-.225-.493-.295-.197-.07-.427-.104-.69-.104-.18 0-.368.014-.563.044-.195.03-.395.078-.598.145l-.56-.166.575-3.35h3.396v.388zM31.177 187.657c0 .627-.067 1.17-.203 1.628-.135.458-.32.837-.552 1.137-.233.3-.51.523-.828.67-.318.147-.66.22-1.022.22-.367 0-.708-.072-1.022-.22-.315-.146-.59-.37-.823-.67-.233-.3-.417-.68-.55-1.137-.133-.46-.2-1-.2-1.628s.067-1.17.2-1.63.316-.84.55-1.143.508-.525.823-.673c.315-.145.656-.22 1.022-.22.363 0 .704.074 1.022.22.318.148.594.372.828.674s.417.683.552 1.143c.136.46.203 1.003.203 1.63zm-.925 0c0-.547-.046-1.006-.138-1.377-.092-.372-.215-.67-.37-.898-.155-.227-.334-.39-.538-.487-.203-.098-.415-.147-.635-.147s-.43.05-.634.147c-.203.1-.38.26-.535.487-.152.228-.275.526-.367.898-.092.37-.137.83-.137 1.377s.045 1.005.137 1.375.214.668.368.896c.154.227.333.39.536.487.204.098.415.147.635.147s.433-.05.636-.147c.204-.1.383-.26.538-.487.155-.228.278-.525.37-.896s.138-.828.138-1.375zM37.037 187.657c0 .627-.067 1.17-.203 1.628-.135.458-.32.837-.552 1.137-.233.3-.51.523-.828.67-.318.147-.66.22-1.022.22-.367 0-.708-.072-1.022-.22-.315-.146-.59-.37-.823-.67-.233-.3-.417-.68-.55-1.137-.133-.46-.2-1-.2-1.628s.067-1.17.2-1.63.316-.84.55-1.143.508-.525.823-.673c.315-.145.656-.22 1.022-.22.363 0 .704.074 1.022.22.318.148.594.372.828.674s.417.683.552 1.143c.135.46.203 1.003.203 1.63zm-.925 0c0-.547-.046-1.006-.138-1.377-.092-.372-.215-.67-.37-.898-.155-.227-.334-.39-.538-.487-.203-.098-.415-.147-.635-.147s-.43.05-.634.147c-.203.1-.38.26-.535.487-.152.228-.275.526-.367.898-.092.37-.137.83-.137 1.377s.045 1.005.137 1.375.214.668.368.896c.154.227.333.39.536.487.204.098.415.147.635.147s.433-.05.636-.147c.204-.1.383-.26.538-.487.155-.228.278-.525.37-.896s.138-.828.138-1.375z"/></g><g fill="#4E4E4E"><path d="M8.598 147.963c-.403-.037-.77-.137-1.103-.297-.332-.162-.618-.37-.857-.62l.27-.407c.027-.038.06-.07.1-.093.04-.02.083-.033.13-.033.063 0 .135.03.215.094.08.064.178.137.295.22.117.08.256.16.417.235s.356.13.583.156l.185-2.657c-.233-.07-.462-.148-.688-.236-.225-.09-.427-.205-.605-.346-.178-.142-.322-.32-.43-.534s-.163-.484-.163-.807c0-.245.048-.483.143-.714.095-.232.234-.438.417-.617.184-.183.408-.33.675-.444.267-.115.57-.18.915-.193l.05-.72c.003-.063.027-.12.072-.17.044-.05.103-.075.177-.075h.33l-.07.99c.35.043.653.135.908.27s.48.302.678.495l-.215.33c-.066.1-.143.15-.23.15-.046 0-.104-.02-.172-.063-.068-.043-.15-.09-.245-.146-.094-.055-.206-.11-.334-.164s-.274-.094-.438-.117l-.165 2.42c.24.072.477.152.71.24.233.086.443.197.63.334s.338.31.453.514c.115.206.172.462.172.77 0 .298-.05.58-.15.843s-.246.496-.438.695c-.19.2-.427.363-.705.488s-.596.197-.952.217l-.06.88c-.003.064-.028.12-.075.167-.046.05-.105.074-.175.074h-.33l.075-1.13zm-.81-5.416c0 .16.028.3.085.418.057.12.135.223.235.313s.217.168.35.236c.133.066.278.125.435.18l.15-2.256c-.217.02-.404.064-.563.13s-.29.15-.39.25-.177.214-.228.34c-.05.123-.074.254-.074.39zm2.775 3.32c0-.166-.03-.31-.093-.43-.062-.12-.146-.223-.252-.31-.106-.087-.23-.16-.375-.226-.143-.062-.296-.12-.46-.173l-.17 2.49c.22-.02.414-.068.58-.143.167-.076.308-.172.422-.29.115-.114.202-.25.26-.405.058-.155.088-.325.088-.513zM13.197 147.223h1.535v-4.885c0-.14.005-.29.015-.445l-1.275 1.096c-.043.036-.086.058-.13.065-.043.01-.083.01-.12.004-.037-.01-.07-.022-.103-.042s-.057-.04-.073-.064l-.28-.385 2.135-1.847h.725v6.5h1.41v.68h-3.84v-.68zM18.252 147.287c0-.156.054-.29.162-.398.108-.112.253-.167.433-.167.1 0 .188.018.265.055s.14.088.192.152c.052.066.09.14.118.227.026.084.04.176.04.277 0 .148-.02.305-.063.467-.043.163-.105.323-.186.48s-.18.314-.297.464c-.117.148-.25.287-.4.414l-.15-.145c-.027-.023-.045-.045-.055-.066-.01-.02-.015-.045-.015-.074 0-.023.007-.047.022-.07s.03-.045.05-.064c.035-.038.077-.087.13-.15.05-.06.103-.13.156-.21s.103-.17.147-.266c.045-.098.078-.2.098-.31h-.064c-.173 0-.314-.058-.423-.173-.106-.115-.16-.26-.16-.443zM25.497 144.322c0 .627-.067 1.17-.203 1.63-.135.456-.32.835-.552 1.136s-.51.523-.828.67-.66.22-1.022.22c-.367 0-.708-.073-1.022-.22s-.59-.37-.823-.67-.417-.68-.55-1.137c-.133-.458-.2-1-.2-1.628s.067-1.17.2-1.63c.133-.46.316-.84.55-1.142.233-.303.508-.525.823-.674.315-.146.656-.22 1.022-.22.363 0 .704.073 1.022.22.318.148.594.37.828.674.233.3.417.682.552 1.143.136.46.203 1.002.203 1.63zm-.925 0c0-.547-.046-1.006-.138-1.377s-.215-.67-.37-.898c-.155-.227-.334-.39-.538-.486-.203-.097-.415-.147-.635-.147s-.43.05-.634.148c-.203.1-.38.26-.535.487-.152.23-.275.527-.367.898s-.137.83-.137 1.377.045 1.006.137 1.375c.092.37.214.668.368.896.154.227.333.39.536.486.204.097.415.147.635.147s.433-.05.636-.148c.204-.1.383-.26.538-.487.155-.23.278-.525.37-.896.092-.37.138-.828.138-1.375zM31.267 144.322c0 .627-.067 1.17-.203 1.63-.135.456-.32.835-.552 1.136s-.51.523-.828.67-.66.22-1.022.22c-.367 0-.708-.073-1.022-.22s-.59-.37-.823-.67-.417-.68-.55-1.137c-.133-.458-.2-1-.2-1.628s.067-1.17.2-1.63c.133-.46.316-.84.55-1.142.233-.303.508-.525.823-.674.315-.146.656-.22 1.022-.22.363 0 .704.073 1.022.22.318.148.594.37.828.674.233.3.417.682.552 1.143.136.46.203 1.002.203 1.63zm-.925 0c0-.547-.046-1.006-.138-1.377s-.215-.67-.37-.898c-.155-.227-.334-.39-.538-.486-.203-.097-.415-.147-.635-.147s-.43.05-.634.148c-.203.1-.38.26-.535.487-.152.23-.275.527-.367.898s-.137.83-.137 1.377.045 1.006.137 1.375c.092.37.214.668.368.896.154.227.333.39.536.486.204.097.415.147.635.147s.433-.05.636-.148c.204-.1.383-.26.538-.487.155-.23.278-.525.37-.896.092-.37.138-.828.138-1.375zM37.037 144.322c0 .627-.067 1.17-.203 1.63-.135.456-.32.835-.552 1.136s-.51.523-.828.67-.66.22-1.022.22c-.367 0-.708-.073-1.022-.22s-.59-.37-.823-.67-.417-.68-.55-1.137c-.133-.458-.2-1-.2-1.628s.067-1.17.2-1.63c.133-.46.316-.84.55-1.142.233-.303.508-.525.823-.674.315-.146.656-.22 1.022-.22.363 0 .704.073 1.022.22.318.148.594.37.828.674.233.3.417.682.552 1.143.135.46.203 1.002.203 1.63zm-.925 0c0-.547-.046-1.006-.138-1.377s-.215-.67-.37-.898c-.155-.227-.334-.39-.538-.486-.203-.097-.415-.147-.635-.147s-.43.05-.634.148c-.203.1-.38.26-.535.487-.152.23-.275.527-.367.898s-.137.83-.137 1.377.045 1.006.137 1.375c.092.37.214.668.368.896.154.227.333.39.536.486.204.097.415.147.635.147s.433-.05.636-.148c.204-.1.383-.26.538-.487.155-.23.278-.525.37-.896.092-.37.138-.828.138-1.375z"/></g><g fill="#4E4E4E"><path d="M8.598 104.628c-.403-.037-.77-.136-1.103-.297-.332-.16-.618-.367-.857-.617l.27-.41c.027-.037.06-.066.1-.09s.083-.035.13-.035c.063 0 .135.032.215.095s.178.136.295.217c.117.082.256.16.417.238s.356.128.583.155l.185-2.655c-.233-.07-.462-.15-.688-.238s-.427-.203-.605-.345-.322-.32-.43-.535-.163-.484-.163-.808c0-.243.048-.48.143-.712.095-.23.234-.438.417-.618.184-.18.408-.327.675-.442.267-.115.57-.18.915-.192l.05-.72c.003-.063.027-.12.072-.17.044-.05.103-.075.177-.075h.33l-.07.99c.35.043.653.133.908.27s.48.302.678.495l-.215.33c-.066.1-.143.15-.23.15-.046 0-.104-.02-.172-.063s-.15-.09-.245-.145c-.094-.055-.206-.11-.334-.165s-.274-.094-.438-.118l-.165 2.42c.24.073.477.153.71.24.233.087.443.198.63.335s.338.308.453.513c.115.205.172.46.172.768 0 .3-.05.582-.15.845-.1.264-.246.495-.438.695-.19.2-.427.362-.705.487s-.596.197-.952.217l-.06.88c-.003.063-.028.12-.075.167-.046.048-.105.072-.175.072h-.33l.075-1.128zm-.81-5.415c0 .16.028.3.085.417s.135.223.235.313.217.168.35.235c.133.067.278.127.435.18l.15-2.255c-.217.02-.404.063-.563.13s-.29.15-.39.25-.177.212-.228.337c-.05.125-.074.256-.074.393zm2.775 3.32c0-.167-.03-.31-.093-.43-.062-.12-.146-.224-.252-.31-.106-.087-.23-.162-.375-.225-.143-.063-.296-.122-.46-.175l-.17 2.49c.22-.02.414-.067.58-.143.167-.075.308-.17.422-.288.115-.116.202-.252.26-.407.058-.155.088-.325.088-.512zM13.197 103.888h1.535v-4.885c0-.14.005-.29.015-.445l-1.275 1.095c-.043.037-.086.06-.13.067s-.083.01-.12.002c-.037-.006-.07-.02-.103-.04-.033-.02-.057-.042-.073-.065l-.28-.385 2.135-1.845h.725v6.5h1.41v.68h-3.84v-.68zM18.252 103.953c0-.156.054-.29.162-.4.108-.11.253-.165.433-.165.1 0 .188.02.265.055s.14.087.192.152.09.14.118.225c.026.085.04.178.04.277 0 .15-.02.306-.063.468-.043.162-.105.322-.186.48s-.18.313-.297.462c-.117.15-.25.29-.4.415l-.15-.145c-.027-.023-.045-.045-.055-.065-.01-.02-.015-.045-.015-.075 0-.023.007-.046.022-.07s.03-.045.05-.065c.035-.037.077-.086.13-.147.05-.062.103-.133.156-.212.053-.08.103-.168.147-.265s.078-.2.098-.31h-.064c-.173 0-.314-.058-.423-.172-.106-.116-.16-.263-.16-.443zM24.907 97.793c0 .126-.04.23-.118.313s-.213.123-.403.123h-2.25l-.33 1.88c.19-.044.37-.075.538-.094.168-.018.333-.027.492-.027.374 0 .704.054.99.164s.526.262.717.455c.192.192.337.42.435.684s.146.55.146.86c0 .38-.066.724-.197 1.03-.133.307-.314.57-.546.787-.232.22-.504.387-.818.503-.313.117-.65.175-1.015.175-.21 0-.41-.02-.604-.063-.193-.042-.375-.098-.542-.167-.168-.07-.324-.15-.468-.24-.143-.09-.27-.185-.38-.285l.275-.38c.06-.086.14-.13.236-.13.067 0 .142.026.225.078s.186.11.306.173c.12.063.26.12.422.172.162.052.354.078.578.078.25 0 .475-.04.675-.12.2-.08.373-.194.516-.342.143-.147.253-.325.33-.532.077-.207.115-.438.115-.695 0-.223-.03-.425-.096-.605-.065-.18-.164-.333-.295-.46-.132-.126-.296-.225-.493-.295-.197-.07-.427-.105-.69-.105-.18 0-.368.015-.563.045-.195.03-.395.078-.598.145l-.56-.165.575-3.35h3.396v.39zM31.267 100.988c0 .627-.067 1.17-.203 1.627-.135.458-.32.837-.552 1.138-.233.3-.51.523-.828.67s-.66.22-1.022.22c-.367 0-.708-.074-1.022-.22s-.59-.37-.823-.67c-.233-.3-.417-.68-.55-1.138-.133-.458-.2-1-.2-1.627 0-.626.067-1.17.2-1.63s.316-.84.55-1.143.508-.526.823-.672c.315-.147.656-.22 1.022-.22.363 0 .704.073 1.022.22.318.146.594.37.828.672s.417.683.552 1.143c.136.46.203 1.003.203 1.63zm-.925 0c0-.546-.046-1.006-.138-1.377s-.215-.67-.37-.896c-.155-.227-.334-.39-.538-.487-.203-.1-.415-.148-.635-.148s-.43.048-.634.147c-.203.098-.38.26-.535.487s-.275.526-.367.897-.137.832-.137 1.378c0 .547.045 1.005.137 1.375s.214.668.368.895.333.39.536.488c.204.098.415.147.635.147s.433-.05.636-.147c.204-.1.383-.26.538-.488.155-.227.278-.525.37-.895s.138-.828.138-1.375zM37.037 100.988c0 .627-.067 1.17-.203 1.627-.135.458-.32.837-.552 1.138-.233.3-.51.523-.828.67s-.66.22-1.022.22c-.367 0-.708-.074-1.022-.22s-.59-.37-.823-.67c-.233-.3-.417-.68-.55-1.138-.133-.458-.2-1-.2-1.627 0-.626.067-1.17.2-1.63s.316-.84.55-1.143.508-.526.823-.672c.315-.147.656-.22 1.022-.22.363 0 .704.073 1.022.22.318.146.594.37.828.672s.417.683.552 1.143c.135.46.203 1.003.203 1.63zm-.925 0c0-.546-.046-1.006-.138-1.377s-.215-.67-.37-.896c-.155-.227-.334-.39-.538-.487-.203-.1-.415-.148-.635-.148s-.43.047-.634.146c-.203.098-.38.26-.535.487s-.275.526-.367.897-.137.83-.137 1.377.045 1.005.137 1.375.214.668.368.895.333.39.536.488c.204.098.415.147.635.147s.433-.05.636-.147c.204-.1.383-.26.538-.488.155-.227.278-.525.37-.895s.138-.827.138-1.374z"/></g><g fill="#4E4E4E"><path d="M8.598 61.293c-.403-.037-.77-.136-1.103-.297-.332-.162-.618-.368-.857-.618l.27-.41c.027-.037.06-.066.1-.09s.083-.035.13-.035c.063 0 .135.032.215.095s.178.136.295.217c.117.082.256.16.417.238s.356.128.583.155l.185-2.655c-.233-.07-.462-.15-.688-.238s-.427-.203-.605-.345-.322-.32-.43-.535-.163-.484-.163-.808c0-.243.048-.48.143-.712.095-.23.234-.438.417-.618.184-.18.408-.327.675-.442.267-.115.57-.18.915-.192l.05-.72c.003-.063.027-.12.072-.17.044-.05.103-.075.177-.075h.33l-.07.99c.35.043.653.133.908.27s.48.302.678.495l-.215.33c-.066.1-.143.15-.23.15-.046 0-.104-.02-.172-.063s-.15-.09-.245-.145c-.094-.055-.206-.11-.334-.165s-.274-.094-.438-.118l-.165 2.42c.24.073.477.153.71.24.233.087.443.198.63.335s.338.308.453.513c.115.205.172.46.172.768 0 .3-.05.582-.15.845-.1.264-.246.495-.438.695-.19.2-.427.362-.705.487s-.596.197-.952.217l-.06.88c-.003.063-.028.12-.075.167-.046.047-.105.07-.175.07h-.33l.075-1.127zm-.81-5.415c0 .16.028.3.085.417s.135.223.235.313.217.168.35.235c.133.067.278.127.435.18l.15-2.255c-.217.02-.404.063-.563.13s-.29.15-.39.25-.177.212-.228.337c-.05.126-.074.257-.074.393zm2.775 3.32c0-.167-.03-.31-.093-.43-.062-.12-.146-.224-.252-.31-.106-.087-.23-.162-.375-.225-.143-.063-.296-.122-.46-.175l-.17 2.49c.22-.02.414-.067.58-.143.167-.075.308-.17.422-.288.115-.116.202-.252.26-.407.058-.154.088-.325.088-.512zM14.902 53.988c.303 0 .586.045.85.135.263.09.492.22.685.393.193.17.345.38.455.627.11.247.165.526.165.84 0 .267-.04.514-.12.743-.08.228-.188.446-.325.652s-.294.408-.473.605-.368.395-.568.595l-1.89 1.93c.133-.037.27-.066.405-.087s.268-.032.395-.032h2.4c.097 0 .173.03.23.085s.085.13.085.22v.54h-4.78v-.305c0-.063.013-.128.04-.195.027-.066.068-.128.125-.185l2.295-2.305c.19-.193.363-.38.52-.557.156-.178.29-.357.4-.538s.195-.362.255-.547.09-.382.09-.592-.033-.394-.1-.552c-.067-.158-.158-.29-.273-.393-.116-.104-.25-.18-.408-.232s-.325-.077-.505-.077c-.184 0-.352.027-.505.08s-.29.127-.407.222c-.12.095-.218.208-.297.338-.08.13-.137.273-.17.43-.04.117-.094.194-.162.232-.068.04-.165.05-.288.033l-.465-.08c.046-.327.137-.616.272-.867.135-.25.305-.462.51-.632s.44-.3.703-.387c.263-.087.548-.132.854-.132zM18.252 60.618c0-.156.054-.29.162-.4.108-.11.253-.165.433-.165.1 0 .188.02.265.055s.14.087.192.152.09.14.118.225c.026.085.04.178.04.277 0 .15-.02.306-.063.468-.043.162-.105.322-.186.48s-.18.313-.297.462c-.117.15-.25.29-.4.415l-.15-.145c-.027-.023-.045-.045-.055-.065-.01-.02-.015-.045-.015-.075 0-.023.007-.046.022-.07s.03-.045.05-.065c.035-.037.077-.086.13-.147.05-.062.103-.133.156-.212.053-.08.103-.168.147-.265s.078-.2.098-.31h-.064c-.173 0-.314-.058-.423-.172-.106-.114-.16-.262-.16-.442zM25.497 57.653c0 .627-.067 1.17-.203 1.627-.135.458-.32.837-.552 1.138-.233.3-.51.523-.828.67s-.66.22-1.022.22c-.367 0-.708-.074-1.022-.22s-.59-.37-.823-.67c-.233-.3-.417-.68-.55-1.138-.133-.458-.2-1-.2-1.627 0-.626.067-1.17.2-1.63s.316-.84.55-1.143.508-.526.823-.672c.315-.147.656-.22 1.022-.22.363 0 .704.073 1.022.22.318.146.594.37.828.672s.417.683.552 1.143c.136.46.203 1.004.203 1.63zm-.925 0c0-.546-.046-1.006-.138-1.377s-.215-.67-.37-.897c-.155-.228-.334-.39-.538-.488-.203-.1-.415-.148-.635-.148s-.43.05-.634.148c-.203.098-.38.26-.535.487s-.275.525-.367.896-.137.83-.137 1.377.045 1.005.137 1.375.214.668.368.895.333.39.536.488c.204.1.415.148.635.148s.433-.05.636-.147c.204-.098.383-.26.538-.487.155-.227.278-.525.37-.895s.138-.828.138-1.375zM31.267 57.653c0 .627-.067 1.17-.203 1.627-.135.458-.32.837-.552 1.138-.233.3-.51.523-.828.67s-.66.22-1.022.22c-.367 0-.708-.074-1.022-.22s-.59-.37-.823-.67c-.233-.3-.417-.68-.55-1.138-.133-.458-.2-1-.2-1.627 0-.626.067-1.17.2-1.63s.316-.84.55-1.143.508-.526.823-.672c.315-.147.656-.22 1.022-.22.363 0 .704.073 1.022.22.318.146.594.37.828.672s.417.683.552 1.143c.136.46.203 1.004.203 1.63zm-.925 0c0-.546-.046-1.006-.138-1.377s-.215-.67-.37-.897c-.155-.228-.334-.39-.538-.488-.203-.1-.415-.148-.635-.148s-.43.05-.634.148c-.203.098-.38.26-.535.487s-.275.525-.367.896-.137.83-.137 1.377.045 1.005.137 1.375.214.668.368.895.333.39.536.488c.204.1.415.148.635.148s.433-.05.636-.147c.204-.098.383-.26.538-.487.155-.227.278-.525.37-.895s.138-.828.138-1.375zM37.037 57.653c0 .627-.067 1.17-.203 1.627-.135.458-.32.837-.552 1.138-.233.3-.51.523-.828.67s-.66.22-1.022.22c-.367 0-.708-.074-1.022-.22s-.59-.37-.823-.67c-.233-.3-.417-.68-.55-1.138-.133-.458-.2-1-.2-1.627 0-.626.067-1.17.2-1.63s.316-.84.55-1.143.508-.526.823-.672c.315-.147.656-.22 1.022-.22.363 0 .704.073 1.022.22.318.146.594.37.828.672s.417.683.552 1.143c.135.46.203 1.004.203 1.63zm-.925 0c0-.546-.046-1.006-.138-1.377s-.215-.67-.37-.897c-.155-.228-.334-.39-.538-.488-.203-.1-.415-.148-.635-.148s-.43.048-.634.147c-.203.1-.38.262-.535.488s-.275.526-.367.897-.137.83-.137 1.377.045 1.005.137 1.375.214.668.368.895.333.39.536.488c.204.098.415.147.635.147s.433-.05.636-.147c.204-.1.383-.26.538-.488.155-.227.278-.525.37-.895s.138-.827.138-1.374z"/></g><g fill="#4E4E4E"><path d="M8.628 17.958c-.403-.037-.77-.136-1.103-.297-.332-.16-.618-.367-.857-.617l.27-.41c.027-.037.06-.066.1-.09s.083-.035.13-.035c.063 0 .135.032.215.095s.178.136.295.217c.117.082.256.16.417.238s.356.128.583.155l.185-2.655c-.233-.07-.462-.15-.688-.238s-.427-.203-.605-.345-.322-.32-.43-.535-.163-.484-.163-.808c0-.243.048-.48.143-.712.095-.23.234-.438.417-.618.184-.18.408-.327.675-.442.267-.115.57-.18.915-.192l.05-.72c.003-.063.027-.12.072-.17.044-.05.103-.075.177-.075h.33l-.07.99c.35.043.653.133.908.27s.48.302.678.495l-.215.33c-.066.1-.143.15-.23.15-.046 0-.104-.02-.172-.063s-.15-.09-.245-.145c-.094-.055-.206-.11-.334-.165s-.274-.094-.438-.118l-.165 2.42c.24.073.477.153.71.24.233.087.443.198.63.335s.338.308.453.513c.115.205.172.46.172.768 0 .3-.05.582-.15.845-.1.264-.246.495-.438.695-.19.2-.427.362-.705.487s-.596.197-.952.217l-.06.88c-.003.063-.028.12-.075.167-.046.048-.105.072-.175.072h-.33l.075-1.128zm-.81-5.415c0 .16.028.3.085.417s.135.223.235.313.217.168.35.235c.133.067.278.127.435.18l.15-2.255c-.217.02-.404.063-.563.13s-.29.15-.39.25-.177.212-.228.337c-.05.126-.074.257-.074.393zm2.775 3.32c0-.167-.03-.31-.093-.43-.062-.12-.146-.224-.252-.31-.106-.087-.23-.162-.375-.225-.143-.063-.296-.122-.46-.175l-.17 2.49c.22-.02.414-.067.58-.143.167-.075.308-.17.422-.288.115-.116.202-.252.26-.407.058-.154.088-.325.088-.512zM14.903 10.653c.303 0 .586.045.85.135.263.09.492.22.685.393.193.172.345.382.455.628.11.247.165.526.165.84 0 .267-.04.514-.12.743-.08.23-.188.447-.325.653s-.294.408-.473.605-.367.395-.567.595l-1.89 1.93c.133-.037.27-.066.405-.087s.268-.033.395-.033h2.4c.097 0 .173.03.23.085s.085.13.085.22v.54h-4.78v-.305c0-.063.013-.128.04-.195.027-.066.068-.128.125-.185l2.295-2.305c.19-.193.363-.38.52-.557.156-.177.29-.356.4-.537s.195-.362.255-.547.09-.383.09-.593-.033-.394-.1-.552c-.067-.157-.158-.288-.273-.392-.115-.104-.25-.18-.407-.232s-.325-.078-.505-.078c-.184 0-.352.027-.505.08s-.29.127-.407.222c-.12.095-.218.208-.297.338-.08.13-.138.273-.17.43-.04.117-.095.194-.163.232-.068.04-.165.05-.288.033l-.466-.08c.046-.327.137-.616.272-.867.135-.252.305-.463.51-.633s.44-.3.703-.387c.26-.088.546-.133.853-.133zM18.252 17.283c0-.156.054-.29.162-.4.108-.11.253-.165.433-.165.1 0 .188.02.265.055s.14.087.192.152.09.14.118.225c.026.085.04.178.04.277 0 .15-.02.306-.063.468-.043.162-.105.322-.186.48s-.18.313-.297.462c-.117.15-.25.29-.4.415l-.15-.145c-.027-.023-.045-.045-.055-.065-.01-.02-.015-.045-.015-.075 0-.023.007-.046.022-.07s.03-.045.05-.065c.035-.037.077-.086.13-.147.05-.062.103-.133.156-.212.053-.08.103-.168.147-.265s.078-.2.098-.31h-.064c-.173 0-.314-.058-.423-.172-.106-.115-.16-.263-.16-.443zM24.908 11.124c0 .126-.04.23-.118.313s-.212.123-.402.123h-2.25l-.33 1.88c.19-.043.37-.074.538-.093.168-.018.333-.027.492-.027.374 0 .704.055.99.165s.526.262.717.455c.192.193.337.422.435.685s.147.55.147.86c0 .38-.066.724-.197 1.03-.132.307-.313.57-.545.787-.232.22-.504.386-.818.502-.313.117-.65.175-1.015.175-.21 0-.412-.022-.605-.064s-.375-.098-.542-.167c-.168-.07-.324-.15-.468-.24-.143-.09-.27-.186-.38-.286l.275-.38c.06-.086.138-.13.235-.13.067 0 .142.026.225.078s.185.11.305.172c.12.063.26.12.422.172.16.052.353.078.577.078.25 0 .475-.04.675-.12.2-.08.372-.194.515-.342.143-.148.253-.326.33-.533.077-.208.115-.44.115-.696 0-.223-.032-.425-.097-.605s-.164-.334-.295-.46c-.13-.127-.295-.226-.492-.296-.197-.07-.427-.105-.69-.105-.18 0-.368.014-.563.044-.195.03-.395.078-.598.145l-.56-.166.575-3.35h3.395v.39zM31.267 14.318c0 .627-.067 1.17-.203 1.627-.135.458-.32.837-.552 1.138-.233.3-.51.523-.828.67s-.66.22-1.022.22c-.367 0-.708-.074-1.022-.22s-.59-.37-.823-.67c-.233-.3-.417-.68-.55-1.138-.133-.458-.2-1-.2-1.627 0-.626.067-1.17.2-1.63s.316-.84.55-1.143.508-.526.823-.672c.315-.147.656-.22 1.022-.22.363 0 .704.073 1.022.22.318.146.594.37.828.672s.417.683.552 1.143c.136.46.203 1.004.203 1.63zm-.925 0c0-.546-.046-1.006-.138-1.377s-.215-.67-.37-.896c-.155-.227-.334-.39-.538-.487-.203-.1-.415-.148-.635-.148s-.43.048-.634.147c-.203.098-.38.26-.535.487s-.275.526-.367.897-.137.832-.137 1.378c0 .547.045 1.005.137 1.375s.214.668.368.895.333.39.536.488c.204.098.415.147.635.147s.433-.05.636-.147c.204-.1.383-.26.538-.488.155-.227.278-.525.37-.895s.138-.828.138-1.375zM37.037 14.318c0 .627-.067 1.17-.203 1.627-.135.458-.32.837-.552 1.138-.233.3-.51.523-.828.67s-.66.22-1.022.22c-.367 0-.708-.074-1.022-.22s-.59-.37-.823-.67c-.233-.3-.417-.68-.55-1.138-.133-.458-.2-1-.2-1.627 0-.626.067-1.17.2-1.63s.316-.84.55-1.143.508-.526.823-.672c.315-.147.656-.22 1.022-.22.363 0 .704.073 1.022.22.318.146.594.37.828.672s.417.683.552 1.143c.136.46.203 1.004.203 1.63zm-.925 0c0-.546-.046-1.006-.138-1.377s-.215-.67-.37-.896c-.155-.227-.334-.39-.538-.487-.203-.1-.415-.148-.635-.148s-.43.048-.633.146c-.203.098-.38.26-.535.487s-.276.526-.368.897-.137.83-.137 1.377.045 1.005.137 1.375.214.668.368.895.332.39.535.488c.204.098.415.147.635.147s.432-.05.635-.147c.204-.1.383-.26.538-.488.155-.227.278-.525.37-.895s.137-.827.137-1.374z"/></g><g fill="#4E4E4E"><path d="M35.028 245.86h1.535v-4.885c0-.14.005-.288.015-.444l-1.275 1.096c-.043.037-.086.06-.13.067-.043.01-.083.01-.12.003s-.07-.02-.103-.04c-.032-.02-.056-.042-.072-.065l-.28-.384 2.135-1.845h.725v6.5h1.41v.68h-3.84v-.68zM43.043 243.686c.073-.096.142-.188.205-.274.063-.087.123-.174.18-.26-.183.146-.39.258-.62.335-.23.076-.473.114-.73.114-.27 0-.526-.044-.767-.134-.24-.09-.454-.223-.637-.397-.184-.176-.33-.39-.438-.646s-.163-.548-.163-.878c0-.313.06-.606.175-.88.116-.273.28-.512.49-.715s.46-.362.75-.48c.29-.115.608-.174.955-.174.343 0 .655.057.935.17.28.113.52.27.72.476.2.203.354.446.463.73.108.282.162.596.162.94 0 .205-.02.4-.057.586-.04.186-.094.367-.165.545-.072.18-.16.355-.263.53s-.22.354-.35.537l-1.745 2.52c-.043.064-.105.115-.185.153s-.172.058-.275.058h-.82l2.18-2.854zm.825-2.18c0-.223-.036-.426-.107-.607s-.17-.337-.296-.464c-.127-.126-.277-.224-.453-.292-.174-.068-.366-.103-.577-.103-.22 0-.42.037-.6.108-.18.072-.335.17-.465.298-.13.126-.23.278-.3.455s-.105.37-.105.58c0 .228.032.43.098.608s.16.33.28.452.27.217.446.28c.175.063.37.095.588.095.24 0 .452-.04.637-.117s.342-.183.47-.313c.125-.13.222-.28.29-.45.064-.17.098-.346.098-.53zM50.722 239.376v.4c0 .113-.012.206-.037.28-.025.072-.05.135-.073.185l-2.97 5.985c-.043.087-.104.16-.18.223s-.178.093-.305.093h-.64l3.01-5.91c.043-.082.087-.16.132-.228.044-.07.095-.137.152-.2h-3.74c-.057 0-.106-.022-.15-.067s-.065-.096-.065-.152v-.605h4.865zM56.582 239.376v.4c0 .113-.012.206-.037.28-.025.072-.05.135-.073.185l-2.97 5.985c-.043.087-.104.16-.18.223s-.178.093-.305.093h-.64l3.01-5.91c.043-.082.087-.16.132-.228.044-.07.095-.137.152-.2h-3.74c-.057 0-.106-.022-.15-.067s-.065-.096-.065-.152v-.605h4.865z"/></g><g fill="#4E4E4E"><path d="M107.067 245.86h1.535v-4.885c0-.14.005-.288.015-.444l-1.275 1.096c-.043.037-.086.06-.13.067-.043.01-.083.01-.12.003s-.07-.02-.103-.04c-.033-.02-.057-.042-.073-.065l-.28-.384 2.135-1.845h.725v6.5h1.41v.68h-3.84v-.68zM115.082 243.686c.073-.096.142-.188.205-.274.063-.087.123-.174.18-.26-.183.146-.39.258-.62.335-.23.076-.473.114-.73.114-.27 0-.526-.044-.767-.134-.242-.09-.455-.223-.638-.397-.184-.176-.33-.39-.438-.646s-.163-.548-.163-.878c0-.313.06-.606.176-.88.116-.273.28-.512.49-.715s.46-.362.75-.48c.29-.115.608-.174.955-.174.344 0 .656.057.936.17.28.113.52.27.72.476.2.203.354.446.463.73.107.282.16.596.16.94 0 .205-.018.4-.056.586-.04.186-.094.367-.165.545-.073.18-.16.355-.264.53s-.22.354-.35.537l-1.745 2.52c-.042.064-.104.115-.184.153s-.172.058-.275.058h-.82l2.182-2.854zm.825-2.18c0-.223-.036-.426-.107-.607s-.17-.337-.297-.464c-.127-.126-.277-.224-.453-.292-.175-.068-.367-.103-.578-.103-.22 0-.42.037-.6.108-.18.072-.335.17-.465.298-.13.126-.23.278-.3.455s-.105.37-.105.58c0 .228.032.43.098.608.065.178.158.33.28.452s.27.217.445.28c.175.063.37.095.588.095.24 0 .452-.04.637-.117s.34-.183.468-.313c.126-.13.223-.28.29-.45.066-.17.1-.346.1-.53zM120.256 246.62c-.356 0-.683-.047-.98-.142s-.552-.23-.765-.407-.377-.39-.494-.642-.175-.534-.175-.848c0-.46.12-.84.36-1.138.24-.298.584-.51 1.03-.638-.376-.14-.66-.35-.852-.627s-.288-.61-.288-.998c0-.264.052-.51.155-.74.103-.23.25-.43.44-.6s.417-.304.683-.4c.265-.097.56-.146.887-.146.323 0 .618.05.885.146.267.097.495.23.685.4.19.17.336.37.44.6.103.23.155.477.155.74 0 .386-.097.72-.29.997s-.477.487-.85.627c.447.127.79.34 1.03.638.24.3.36.678.36 1.138 0 .313-.06.596-.177.848-.12.252-.284.466-.495.643-.212.178-.466.314-.763.408-.295.095-.622.143-.98.143zm0-.71c.233 0 .442-.03.627-.097s.342-.156.47-.275c.128-.118.227-.26.295-.425s.103-.348.103-.547c0-.247-.04-.458-.122-.633s-.192-.317-.33-.428c-.138-.11-.297-.19-.478-.242-.18-.052-.368-.078-.565-.078s-.385.026-.565.078-.34.133-.478.242c-.138.11-.248.253-.33.428-.082.175-.123.386-.123.633 0 .2.033.382.102.547s.167.307.295.425c.128.12.285.21.47.275s.396.098.63.098zm0-3.44c.233 0 .433-.034.598-.106.165-.07.3-.166.402-.285.104-.12.178-.255.225-.408s.07-.312.07-.475c0-.167-.026-.323-.082-.47-.055-.147-.137-.275-.245-.386-.108-.108-.244-.195-.405-.26s-.35-.094-.563-.094-.4.03-.563.095-.296.15-.405.26c-.108.11-.19.24-.245.386-.055.147-.083.304-.083.47 0 .164.022.322.07.476.046.153.12.29.224.407.104.118.238.213.403.284.167.072.366.107.6.107zM126.17 239.296c.304 0 .587.045.85.135.264.092.493.223.686.394.193.172.345.38.455.628.11.246.166.526.166.84 0 .267-.04.515-.12.742-.08.23-.188.446-.325.652-.136.207-.293.41-.472.605s-.367.396-.567.596l-1.89 1.93c.134-.036.27-.065.406-.087s.268-.033.395-.033h2.4c.098 0 .174.028.23.085s.086.13.086.22v.54h-4.78v-.305c0-.063.013-.13.04-.195.027-.066.068-.128.125-.185l2.296-2.306c.19-.192.363-.378.52-.557.156-.178.29-.357.4-.537s.195-.362.255-.548c.06-.185.09-.382.09-.592s-.032-.395-.1-.553c-.066-.158-.157-.29-.272-.393-.115-.104-.25-.18-.407-.232s-.324-.078-.504-.078c-.184 0-.352.027-.505.08-.152.054-.288.128-.406.223-.12.096-.218.208-.297.338-.08.13-.137.274-.17.43-.04.118-.094.195-.162.233-.068.04-.165.05-.288.033l-.465-.08c.046-.327.137-.616.272-.868.135-.25.305-.462.51-.632s.44-.3.703-.388c.263-.088.548-.132.854-.132z"/></g><g fill="#4E4E4E"><path d="M179.106 245.86h1.535v-4.885c0-.14.006-.288.016-.444l-1.275 1.096c-.042.037-.085.06-.13.067-.042.01-.082.01-.12.003s-.07-.02-.102-.04c-.032-.02-.056-.042-.072-.065l-.28-.384 2.135-1.845h.726v6.5h1.41v.68h-3.84v-.68zM187.12 243.686c.074-.096.143-.188.206-.274.063-.087.123-.174.18-.26-.183.146-.39.258-.62.335-.23.076-.473.114-.73.114-.27 0-.526-.044-.767-.134-.243-.09-.456-.223-.64-.397-.183-.176-.328-.39-.437-.646s-.163-.548-.163-.878c0-.313.06-.606.175-.88.116-.273.28-.512.49-.715s.46-.362.75-.48c.29-.115.608-.174.955-.174.343 0 .655.057.935.17.28.113.52.27.72.476.2.203.354.446.463.73.108.282.162.596.162.94 0 .205-.02.4-.057.586-.04.186-.094.367-.165.545-.072.18-.16.355-.263.53s-.22.354-.35.537l-1.745 2.52c-.043.064-.105.115-.185.153s-.172.058-.275.058h-.82l2.18-2.854zm.826-2.18c0-.223-.036-.426-.107-.607s-.172-.337-.298-.464c-.127-.126-.277-.224-.453-.292-.176-.068-.368-.103-.58-.103-.22 0-.42.037-.6.108-.18.072-.334.17-.464.298-.13.126-.23.278-.3.455s-.105.37-.105.58c0 .228.033.43.1.608.064.178.157.33.28.452s.27.217.444.28c.175.063.37.095.588.095.24 0 .452-.04.637-.117s.34-.183.467-.313c.126-.13.223-.28.29-.45.066-.17.1-.346.1-.53zM192.295 246.62c-.356 0-.683-.047-.98-.142s-.552-.23-.765-.407-.378-.39-.495-.642-.175-.534-.175-.848c0-.46.12-.84.36-1.138.24-.298.583-.51 1.03-.638-.377-.14-.66-.35-.853-.627s-.288-.61-.288-.998c0-.264.05-.51.154-.74.103-.23.25-.43.44-.6s.417-.304.683-.4c.265-.097.56-.146.887-.146.323 0 .618.05.885.146.266.097.494.23.684.4.19.17.336.37.44.6.103.23.155.477.155.74 0 .386-.098.72-.29.997s-.478.487-.85.627c.446.127.79.34 1.03.638.24.3.36.678.36 1.138 0 .313-.06.596-.178.848-.12.252-.284.466-.495.643-.212.178-.466.314-.763.408-.295.095-.622.143-.98.143zm0-.71c.233 0 .442-.03.627-.097s.342-.156.47-.275c.128-.118.227-.26.295-.425s.103-.348.103-.547c0-.247-.04-.458-.123-.633s-.192-.317-.33-.428c-.138-.11-.297-.19-.478-.242-.18-.052-.37-.078-.566-.078s-.385.026-.565.078-.34.133-.48.242c-.137.11-.247.253-.33.428-.08.175-.122.386-.122.633 0 .2.034.382.103.547s.168.307.296.425c.128.12.285.21.47.275s.396.098.63.098zm0-3.44c.233 0 .433-.034.598-.106.165-.07.3-.166.402-.285.104-.12.178-.255.225-.408s.07-.312.07-.475c0-.167-.027-.323-.083-.47-.055-.147-.137-.275-.245-.386-.108-.108-.244-.195-.405-.26s-.35-.094-.563-.094-.4.03-.563.095-.295.15-.404.26c-.108.11-.19.24-.245.386-.054.147-.082.304-.082.47 0 .164.023.322.07.476.047.153.122.29.225.407.104.118.238.213.403.284.167.072.366.107.6.107zM200.66 239.376v.4c0 .113-.012.206-.037.28-.025.072-.05.135-.073.185l-2.97 5.985c-.043.087-.104.16-.18.223s-.178.093-.305.093h-.64l3.01-5.91c.043-.082.087-.16.132-.228.045-.07.096-.137.153-.2h-3.74c-.057 0-.106-.022-.15-.067s-.065-.096-.065-.152v-.605h4.865z"/></g><g fill="#4E4E4E"><path d="M251.145 245.86h1.535v-4.885c0-.14.005-.288.015-.444l-1.275 1.096c-.043.037-.086.06-.13.067-.043.01-.083.01-.12.003s-.07-.02-.103-.04c-.032-.02-.056-.042-.072-.065l-.28-.384 2.135-1.845h.725v6.5h1.41v.68h-3.84v-.68zM259.16 243.686c.073-.096.142-.188.205-.274.063-.087.123-.174.18-.26-.183.146-.39.258-.62.335-.23.076-.473.114-.73.114-.27 0-.526-.044-.767-.134-.242-.09-.455-.223-.638-.397-.184-.176-.33-.39-.438-.646s-.163-.548-.163-.878c0-.313.058-.606.174-.88.116-.273.28-.512.49-.715s.46-.362.75-.48c.29-.115.608-.174.955-.174.342 0 .654.057.934.17.28.113.52.27.72.476.2.203.354.446.463.73.108.282.162.596.162.94 0 .205-.02.4-.058.586-.04.186-.094.367-.165.545-.072.18-.16.355-.263.53s-.22.354-.35.537l-1.745 2.52c-.044.064-.106.115-.186.153s-.172.058-.275.058h-.82l2.18-2.854zm.825-2.18c0-.223-.036-.426-.107-.607s-.17-.337-.297-.464c-.126-.126-.276-.224-.452-.292-.175-.068-.367-.103-.578-.103-.22 0-.42.037-.6.108-.18.072-.335.17-.465.298-.13.126-.23.278-.3.455s-.105.37-.105.58c0 .228.032.43.098.608.065.178.158.33.28.452s.27.217.445.28c.175.063.37.095.588.095.24 0 .453-.04.638-.117s.34-.183.468-.313c.126-.13.223-.28.29-.45.066-.17.1-.346.1-.53zM264.93 243.686c.073-.096.142-.188.205-.274.063-.087.123-.174.18-.26-.183.146-.39.258-.62.335-.23.076-.473.114-.73.114-.27 0-.526-.044-.767-.134-.242-.09-.455-.223-.638-.397-.184-.176-.33-.39-.438-.646s-.163-.548-.163-.878c0-.313.058-.606.174-.88.116-.273.28-.512.49-.715s.46-.362.75-.48c.29-.115.608-.174.955-.174.342 0 .654.057.934.17.28.113.52.27.72.476.2.203.354.446.463.73.108.282.162.596.162.94 0 .205-.02.4-.058.586-.04.186-.094.367-.165.545-.072.18-.16.355-.263.53s-.22.354-.35.537l-1.745 2.52c-.044.064-.106.115-.186.153s-.172.058-.275.058h-.82l2.18-2.854zm.824-2.18c0-.223-.036-.426-.107-.607s-.17-.337-.297-.464c-.127-.126-.277-.224-.453-.292-.175-.068-.367-.103-.578-.103-.22 0-.42.037-.6.108-.18.072-.336.17-.466.298-.13.126-.23.278-.3.455s-.105.37-.105.58c0 .228.03.43.097.608.065.178.158.33.28.452s.27.217.445.28c.175.063.37.095.588.095.24 0 .452-.04.637-.117s.34-.183.468-.313c.126-.13.223-.28.29-.45.066-.17.1-.346.1-.53zM270.25 239.296c.303 0 .586.045.85.135.263.092.492.223.685.394.193.172.345.38.455.628.11.246.165.526.165.84 0 .267-.04.515-.12.742-.08.23-.188.446-.325.652-.137.207-.294.41-.473.605s-.367.396-.567.596l-1.89 1.93c.133-.036.27-.065.405-.087s.268-.033.395-.033h2.4c.097 0 .173.028.23.085s.085.13.085.22v.54h-4.78v-.305c0-.063.013-.13.04-.195.027-.066.068-.128.125-.185l2.295-2.306c.19-.192.363-.378.52-.557.156-.178.29-.357.4-.537s.195-.362.255-.548c.06-.185.09-.382.09-.592s-.033-.395-.1-.553c-.067-.158-.158-.29-.273-.393-.115-.104-.25-.18-.407-.232s-.325-.078-.505-.078c-.184 0-.352.027-.505.08-.153.054-.29.128-.407.223-.12.096-.218.208-.297.338-.08.13-.137.274-.17.43-.04.118-.094.195-.162.233-.068.04-.165.05-.288.033l-.465-.08c.047-.327.138-.616.273-.868.135-.25.305-.462.51-.632s.44-.3.703-.388c.262-.088.547-.132.854-.132z"/></g><g fill="#4E4E4E"><path d="M323.184 245.86h1.535v-4.885c0-.14.004-.288.014-.444l-1.274 1.096c-.044.037-.087.06-.13.067-.044.01-.084.01-.12.003-.037-.007-.07-.02-.103-.04-.032-.02-.057-.042-.073-.065l-.28-.384 2.136-1.845h.725v6.5h1.41v.68h-3.84v-.68zM331.198 243.686c.073-.096.142-.188.205-.274s.123-.174.18-.26c-.184.146-.39.258-.62.335-.23.076-.473.114-.73.114-.27 0-.525-.044-.767-.134-.242-.09-.454-.223-.638-.397s-.33-.39-.438-.646-.162-.548-.162-.878c0-.313.058-.606.175-.88.116-.273.28-.512.49-.715s.46-.362.75-.48c.29-.115.607-.174.954-.174.344 0 .655.057.936.17s.52.27.72.476c.2.203.354.446.463.73s.162.596.162.94c0 .205-.02.4-.058.586-.038.186-.093.367-.165.545-.07.18-.16.355-.262.53-.104.175-.22.354-.35.537l-1.746 2.52c-.043.064-.104.115-.185.153s-.172.058-.275.058h-.82l2.18-2.854zm.825-2.18c0-.223-.036-.426-.107-.607-.072-.183-.17-.337-.298-.464-.127-.126-.277-.224-.452-.292-.176-.068-.368-.103-.578-.103-.22 0-.42.037-.6.108-.18.072-.335.17-.465.298-.13.126-.23.278-.3.455-.07.178-.105.37-.105.58 0 .228.032.43.098.608.064.178.158.33.28.452.12.123.27.217.444.28s.37.095.588.095c.24 0 .452-.04.638-.117.185-.078.34-.183.467-.313s.224-.28.29-.45c.067-.17.1-.346.1-.53zM336.97 243.686l.204-.274s.123-.174.18-.26c-.184.146-.39.258-.62.335-.23.076-.473.114-.73.114-.27 0-.525-.044-.767-.134-.242-.09-.454-.223-.638-.397s-.33-.39-.44-.646-.16-.548-.16-.878c0-.313.057-.606.174-.88.116-.273.28-.512.49-.715s.46-.362.75-.48c.29-.115.607-.174.954-.174.344 0 .655.057.936.17s.52.27.72.476c.2.203.354.446.463.73s.162.596.162.94c0 .205-.02.4-.06.586-.037.186-.092.367-.164.545-.07.18-.16.355-.262.53-.104.175-.22.354-.35.537l-1.746 2.52c-.043.064-.104.115-.185.153s-.172.058-.275.058h-.82l2.18-2.854zm.824-2.18c0-.223-.036-.426-.107-.607-.072-.183-.17-.337-.298-.464-.128-.126-.278-.224-.453-.292-.176-.068-.368-.103-.578-.103-.22 0-.42.037-.6.108-.18.072-.336.17-.466.298-.13.126-.23.278-.3.455-.07.178-.105.37-.105.58 0 .228.03.43.097.608.064.178.158.33.28.452.12.123.27.217.444.28s.372.095.59.095c.24 0 .45-.04.637-.117.185-.078.34-.183.467-.313s.224-.28.29-.45c.067-.17.1-.346.1-.53zM344.738 239.376v.4c0 .113-.013.206-.038.28-.024.072-.05.135-.072.185l-2.97 5.985c-.044.087-.104.16-.18.223-.077.062-.18.093-.306.093h-.64l3.01-5.91c.043-.082.088-.16.133-.228.045-.07.096-.137.152-.2h-3.74c-.057 0-.106-.022-.15-.067-.043-.045-.064-.096-.064-.152v-.605h4.865z"/></g><g fill="#4E4E4E"><path d="M396.928 239.296c.303 0 .587.045.85.135.264.092.492.223.686.394.193.172.345.38.455.628.108.246.164.526.164.84 0 .267-.04.515-.12.742-.08.23-.188.446-.325.652-.138.207-.295.41-.474.605s-.367.396-.567.596l-1.89 1.93c.132-.036.267-.065.403-.087s.27-.033.396-.033h2.398c.097 0 .174.028.23.085s.085.13.085.22v.54h-4.78v-.305c0-.063.014-.13.04-.195.027-.066.068-.128.125-.185l2.295-2.306c.19-.192.363-.378.52-.557.157-.178.29-.357.4-.537.11-.18.195-.362.256-.548.06-.185.09-.382.09-.592s-.034-.395-.102-.553c-.066-.158-.157-.29-.272-.393s-.25-.18-.407-.232c-.158-.052-.326-.078-.506-.078-.184 0-.352.027-.505.08-.154.054-.29.128-.41.223-.117.096-.216.208-.296.338s-.137.274-.17.43c-.04.118-.095.195-.163.233-.067.04-.163.05-.286.033l-.465-.08c.046-.327.137-.616.27-.868.136-.25.306-.462.51-.632s.44-.3.703-.388c.263-.088.548-.132.855-.132zM405.242 242.96c0 .628-.067 1.17-.202 1.63-.136.457-.32.836-.553 1.136-.233.3-.51.523-.827.67-.318.147-.66.22-1.023.22-.366 0-.707-.072-1.022-.22-.314-.146-.59-.37-.822-.67-.233-.3-.417-.68-.55-1.137-.134-.46-.2-1.002-.2-1.63s.066-1.17.2-1.63c.133-.46.316-.84.55-1.142s.508-.525.822-.673c.315-.146.656-.22 1.022-.22.363 0 .705.073 1.023.22.317.147.594.37.827.673s.417.683.553 1.143c.135.46.202 1.004.202 1.63zm-.925 0c0-.546-.046-1.005-.138-1.376-.093-.372-.216-.67-.37-.898-.156-.227-.335-.39-.538-.487-.204-.1-.415-.148-.636-.148-.22 0-.432.05-.635.147-.202.098-.38.26-.534.486-.153.228-.275.526-.367.898-.093.37-.14.83-.14 1.377s.047 1.006.14 1.376.213.668.366.896c.153.227.332.39.535.487.204.097.416.146.636.146.22 0 .432-.05.636-.147.203-.1.382-.262.537-.488.154-.228.277-.525.37-.896s.137-.828.137-1.375zM411.013 242.96c0 .628-.067 1.17-.202 1.63-.135.457-.318.836-.552 1.136-.233.3-.51.523-.827.67-.317.147-.66.22-1.022.22-.366 0-.707-.072-1.022-.22-.314-.146-.59-.37-.822-.67-.233-.3-.417-.68-.55-1.137-.134-.46-.2-1.002-.2-1.63s.066-1.17.2-1.63c.133-.46.316-.84.55-1.142s.508-.525.822-.673c.315-.146.656-.22 1.022-.22.363 0 .705.073 1.023.22.318.147.595.37.828.673s.417.683.553 1.143c.135.46.203 1.004.203 1.63zm-.925 0c0-.546-.046-1.005-.138-1.376-.092-.372-.215-.67-.37-.898-.155-.227-.334-.39-.537-.487-.204-.1-.415-.148-.636-.148-.22 0-.432.05-.635.147-.203.098-.382.26-.535.486-.153.228-.275.526-.367.898-.092.37-.138.83-.138 1.377s.046 1.006.138 1.376.214.668.367.896c.153.227.332.39.535.487.203.097.415.146.635.146.22 0 .432-.05.636-.147.203-.1.382-.262.537-.488.155-.228.278-.525.37-.896s.138-.828.138-1.375zM414.327 239.296c.303 0 .587.045.85.135.264.092.492.223.686.394.193.172.345.38.455.628.11.246.165.526.165.84 0 .267-.04.515-.12.742-.08.23-.188.446-.325.652-.137.207-.294.41-.473.605s-.367.396-.567.596l-1.89 1.93c.133-.036.268-.065.404-.087s.27-.033.396-.033h2.4c.096 0 .173.028.23.085s.084.13.084.22v.54h-4.78v-.305c0-.063.014-.13.04-.195.027-.066.068-.128.125-.185l2.295-2.306c.19-.192.363-.378.52-.557.157-.178.29-.357.4-.537.11-.18.195-.362.256-.548.06-.185.09-.382.09-.592s-.033-.395-.1-.553c-.067-.158-.158-.29-.273-.393s-.25-.18-.407-.232c-.157-.052-.325-.078-.505-.078-.184 0-.352.027-.505.08-.153.054-.29.128-.408.223-.118.096-.217.208-.297.338s-.137.274-.17.43c-.04.118-.095.195-.163.233-.068.04-.164.05-.287.033l-.465-.08c.047-.327.138-.616.272-.868.135-.25.305-.462.51-.632s.44-.3.702-.388c.263-.088.55-.132.855-.132z"/></g><g fill="#4E4E4E"><path d="M468.967 239.296c.303 0 .587.045.85.135.264.092.492.223.686.394.193.172.345.38.455.628.11.246.165.526.165.84 0 .267-.04.515-.12.742-.08.23-.188.446-.325.652-.137.207-.294.41-.473.605s-.367.396-.567.596l-1.89 1.93c.133-.036.268-.065.404-.087s.27-.033.396-.033h2.4c.096 0 .173.028.23.085s.084.13.084.22v.54h-4.78v-.305c0-.063.014-.13.04-.195.027-.066.068-.128.125-.185l2.295-2.306c.19-.192.363-.378.52-.557.157-.178.29-.357.4-.537.11-.18.195-.362.256-.548.06-.185.09-.382.09-.592s-.033-.395-.1-.553c-.067-.158-.158-.29-.273-.393s-.25-.18-.407-.232c-.157-.052-.325-.078-.505-.078-.184 0-.352.027-.505.08-.153.054-.29.128-.408.223-.118.096-.217.208-.297.338s-.137.274-.17.43c-.04.118-.095.195-.163.233-.068.04-.164.05-.287.033l-.465-.08c.047-.327.138-.616.272-.868.135-.25.305-.462.51-.632s.44-.3.702-.388c.263-.088.548-.132.855-.132zM477.28 242.96c0 .628-.066 1.17-.2 1.63-.137.457-.32.836-.554 1.136-.233.3-.51.523-.827.67-.32.147-.66.22-1.024.22-.366 0-.707-.072-1.022-.22-.314-.146-.59-.37-.822-.67-.233-.3-.417-.68-.55-1.137-.134-.46-.2-1.002-.2-1.63s.066-1.17.2-1.63c.133-.46.316-.84.55-1.142s.508-.525.822-.673c.315-.146.656-.22 1.022-.22.363 0 .705.073 1.023.22.316.147.593.37.826.673s.417.683.553 1.143c.134.46.2 1.004.2 1.63zm-.924 0c0-.546-.046-1.005-.138-1.376-.092-.372-.215-.67-.37-.898-.155-.227-.334-.39-.537-.487-.203-.1-.414-.148-.635-.148-.22 0-.432.05-.635.147-.203.098-.382.26-.535.486-.153.228-.275.526-.367.898-.092.37-.138.83-.138 1.377s.046 1.006.138 1.376.214.668.367.896c.153.227.332.39.535.487.203.097.415.146.635.146.22 0 .432-.05.636-.147.204-.1.383-.262.538-.488.155-.228.278-.525.37-.896s.138-.828.138-1.375zM483.052 242.96c0 .628-.067 1.17-.202 1.63-.136.457-.32.836-.553 1.136-.233.3-.51.523-.827.67-.318.147-.66.22-1.023.22-.366 0-.707-.072-1.022-.22-.314-.146-.59-.37-.822-.67-.233-.3-.417-.68-.55-1.137-.134-.46-.2-1.002-.2-1.63s.066-1.17.2-1.63c.133-.46.316-.84.55-1.142s.508-.525.822-.673c.315-.146.656-.22 1.022-.22.363 0 .705.073 1.023.22.317.147.594.37.827.673s.417.683.553 1.143c.134.46.202 1.004.202 1.63zm-.925 0c0-.546-.046-1.005-.138-1.376-.093-.372-.216-.67-.37-.898-.156-.227-.335-.39-.538-.487-.204-.1-.415-.148-.636-.148-.22 0-.432.05-.635.147-.202.098-.38.26-.534.486-.153.228-.275.526-.367.898-.093.37-.14.83-.14 1.377s.047 1.006.14 1.376.213.668.366.896c.153.227.332.39.535.487.204.097.416.146.636.146.22 0 .432-.05.636-.147.203-.1.382-.262.537-.488.154-.228.277-.525.37-.896s.137-.828.137-1.375zM488.816 239.376v.4c0 .113-.013.206-.038.28-.024.072-.05.135-.072.185l-2.97 5.985c-.044.087-.104.16-.18.223-.077.062-.18.093-.306.093h-.64l3.01-5.91c.043-.082.088-.16.133-.228.045-.07.096-.137.152-.2h-3.74c-.057 0-.106-.022-.15-.067-.043-.045-.064-.096-.064-.152v-.605h4.866z"/></g><g fill="#4E4E4E"><path d="M541.006 239.296c.303 0 .587.045.85.135.264.092.492.223.686.394.193.172.345.38.455.628.11.246.165.526.165.84 0 .267-.04.515-.12.742-.08.23-.188.446-.325.652-.137.207-.294.41-.473.605s-.367.396-.567.596l-1.89 1.93c.133-.036.268-.065.404-.087s.27-.033.397-.033h2.4c.096 0 .173.028.23.085s.084.13.084.22v.54h-4.78v-.305c0-.063.015-.13.04-.195.028-.066.07-.128.126-.185l2.295-2.306c.19-.192.364-.378.522-.557.156-.178.29-.357.4-.537.11-.18.194-.362.255-.548.06-.185.09-.382.09-.592s-.033-.395-.1-.553c-.067-.158-.158-.29-.273-.393s-.25-.18-.407-.232c-.157-.052-.325-.078-.505-.078-.184 0-.352.027-.505.08-.153.054-.29.128-.408.223-.12.096-.218.208-.298.338s-.137.274-.17.43c-.04.118-.095.195-.163.233-.07.04-.165.05-.288.033l-.465-.08c.047-.327.138-.616.272-.868.134-.25.304-.462.51-.632s.438-.3.7-.388c.264-.088.55-.132.856-.132zM549.32 242.96c0 .628-.067 1.17-.202 1.63-.136.457-.32.836-.553 1.136-.233.3-.51.523-.827.67-.318.147-.66.22-1.023.22-.366 0-.707-.072-1.022-.22-.314-.146-.59-.37-.822-.67-.232-.3-.416-.68-.55-1.137-.133-.46-.2-1.002-.2-1.63s.067-1.17.2-1.63c.134-.46.317-.84.55-1.142s.51-.525.823-.673c.315-.146.656-.22 1.022-.22.363 0 .705.073 1.023.22.317.147.594.37.827.673s.417.683.553 1.143c.135.46.202 1.004.202 1.63zm-.924 0c0-.546-.046-1.005-.138-1.376-.092-.372-.215-.67-.37-.898-.155-.227-.334-.39-.537-.487-.203-.1-.414-.148-.635-.148-.22 0-.432.05-.635.147-.203.098-.382.26-.535.486-.153.228-.275.526-.367.898-.092.37-.138.83-.138 1.377s.046 1.006.138 1.376.214.668.367.896c.153.227.332.39.535.487.203.097.415.146.635.146.22 0 .432-.05.636-.147.204-.1.383-.262.538-.488.155-.228.278-.525.37-.896s.138-.828.138-1.375zM550.84 245.86h1.536v-4.885c0-.14.005-.288.015-.444l-1.273 1.096c-.044.037-.087.06-.13.067-.044.01-.084.01-.12.003-.037-.007-.07-.02-.103-.04-.032-.02-.057-.042-.073-.065l-.278-.384 2.135-1.845h.725v6.5h1.41v.68h-3.84v-.68zM558.405 239.296c.303 0 .587.045.85.135.264.092.492.223.686.394.194.172.346.38.456.628.11.246.165.526.165.84 0 .267-.04.515-.12.742-.08.23-.187.446-.324.652-.137.207-.294.41-.473.605s-.367.396-.567.596l-1.89 1.93c.133-.036.268-.065.404-.087s.27-.033.396-.033h2.4c.096 0 .173.028.23.085s.084.13.084.22v.54h-4.78v-.305c0-.063.014-.13.04-.195.027-.066.068-.128.125-.185l2.295-2.306c.19-.192.363-.378.52-.557.157-.178.29-.357.4-.537.11-.18.195-.362.256-.548.06-.185.09-.382.09-.592s-.033-.395-.1-.553c-.067-.158-.158-.29-.273-.393s-.25-.18-.407-.232c-.157-.052-.325-.078-.505-.078-.183 0-.35.027-.504.08-.153.054-.29.128-.408.223-.118.096-.217.208-.297.338s-.136.274-.17.43c-.04.118-.094.195-.162.233-.068.04-.164.05-.287.033l-.464-.08c.047-.327.138-.616.272-.868.135-.25.305-.462.51-.632s.44-.3.702-.388c.263-.088.55-.132.855-.132z"/></g><g fill="#007BC3"><path d="M323.78 83.555h-1.798V74.85h1.798v8.705zM327.018 74.61v8.945h-1.643V74.61h1.643zM330.09 74.61v8.945h-1.644V74.61h1.643zM333.284 75.61c0 .142-.028.272-.084.392s-.13.226-.223.317c-.094.092-.202.163-.327.216-.125.052-.26.077-.402.077-.135 0-.263-.025-.384-.077-.12-.053-.227-.124-.318-.217-.09-.093-.163-.198-.217-.318s-.082-.25-.082-.39.027-.272.08-.394.127-.23.218-.32c.092-.093.197-.165.318-.217s.25-.077.384-.077c.143 0 .277.026.402.078s.233.125.327.217c.093.092.167.2.223.32s.084.254.084.394zm-.197 1.76v6.186h-1.643V77.37h1.643zM334.492 83.555V77.37h1.012c.206 0 .343.096.41.287l.102.433c.123-.12.25-.23.384-.33s.273-.187.423-.258c.148-.072.31-.128.48-.168.174-.04.36-.06.564-.06.333 0 .63.058.887.173.258.116.476.278.65.486.178.208.31.456.4.744.09.288.134.604.134.948v3.93H338.3v-3.93c0-.345-.078-.61-.237-.802-.158-.19-.393-.284-.702-.284-.233 0-.45.05-.65.15-.2.104-.392.242-.574.418v4.446h-1.644zM344.032 77.273c.46 0 .878.074 1.255.223.377.147.7.358.97.633.27.272.48.605.626.998.146.392.22.834.22 1.326 0 .49-.073.935-.22 1.328-.147.395-.355.73-.625 1.006-.27.275-.594.487-.97.636-.378.147-.796.222-1.256.222-.465 0-.887-.074-1.265-.222-.38-.148-.704-.36-.974-.636s-.48-.61-.628-1.006c-.148-.394-.223-.837-.223-1.328 0-.492.074-.935.223-1.326.15-.393.358-.726.628-1 .27-.273.594-.484.974-.632.38-.15.8-.223 1.265-.223zm0 5.13c.468 0 .814-.162 1.04-.488s.34-.812.34-1.455c0-.64-.112-1.123-.34-1.45s-.572-.488-1.04-.488c-.48 0-.834.163-1.06.49-.227.325-.34.808-.34 1.448 0 .644.113 1.13.34 1.455.226.326.58.488 1.06.488zM350.062 75.61c0 .142-.028.272-.084.392s-.13.226-.223.317c-.094.092-.202.163-.327.216-.125.052-.26.077-.402.077-.135 0-.263-.025-.384-.077-.12-.053-.227-.124-.318-.217-.09-.093-.163-.198-.217-.318s-.08-.25-.08-.39.026-.272.08-.394.126-.23.217-.32c.092-.093.197-.165.318-.217s.25-.077.384-.077c.143 0 .277.026.402.078s.233.125.327.217c.093.092.167.2.223.32s.084.254.084.394zm-.198 1.76v6.186h-1.643V77.37h1.644zM355.084 78.64c-.044.07-.088.118-.134.148-.046.03-.108.045-.188.045s-.16-.02-.244-.06-.177-.084-.28-.13c-.103-.046-.22-.09-.353-.13s-.286-.06-.46-.06c-.267 0-.474.056-.62.166-.146.108-.22.254-.22.434 0 .124.04.228.125.312.083.085.193.157.33.22.137.062.292.12.467.174s.354.113.54.177c.184.064.362.138.537.222.175.084.33.188.468.314.137.126.246.278.33.456.083.178.125.393.125.645 0 .3-.055.577-.164.83-.11.256-.27.475-.48.658-.21.185-.472.328-.785.433-.313.104-.675.155-1.083.155-.21 0-.42-.018-.625-.056s-.402-.092-.59-.162-.36-.15-.522-.243c-.163-.093-.304-.192-.423-.3l.38-.62c.045-.07.1-.127.164-.167.065-.04.15-.06.252-.06.1 0 .19.024.274.075.083.05.177.104.28.16.103.06.225.113.365.163.142.052.317.076.527.076.16 0 .296-.018.41-.054s.21-.085.28-.147c.07-.062.124-.132.158-.21.033-.078.05-.16.05-.243 0-.136-.042-.246-.127-.333-.086-.087-.197-.16-.334-.226-.137-.063-.294-.122-.473-.174s-.36-.11-.544-.174c-.185-.064-.365-.14-.54-.23-.178-.087-.335-.198-.472-.332s-.248-.3-.333-.495c-.085-.196-.127-.435-.127-.715 0-.256.05-.5.148-.73.1-.23.25-.433.447-.608s.445-.315.74-.42c.297-.104.64-.156 1.027-.156.437 0 .833.073 1.19.217.357.145.65.332.88.564l-.37.59z"/></g><g fill="#EF4438"><path d="M421.817 138.435h-1.387c-.154 0-.28-.037-.378-.11-.098-.074-.17-.17-.217-.286l-.584-1.662h-3.438l-.583 1.66c-.04.102-.11.192-.21.274-.1.082-.224.123-.375.123h-1.398l3.375-8.706h1.827l3.367 8.705zm-5.57-3.306h2.57l-.934-2.665c-.056-.14-.114-.305-.176-.492-.062-.188-.122-.39-.182-.606-.056.22-.113.426-.173.615-.06.19-.117.355-.172.495l-.933 2.652zM424.043 129.488v8.946H422.4v-8.946h1.643zM427.066 129.488v8.946h-1.643v-8.946h1.643zM436.165 131.396c-.056.092-.112.16-.17.2-.057.043-.13.064-.223.064-.087 0-.182-.03-.282-.093-.102-.062-.22-.13-.354-.2-.135-.072-.29-.14-.464-.2-.175-.064-.38-.095-.613-.095-.414 0-.723.094-.93.28-.206.185-.31.428-.31.728 0 .19.057.35.17.477s.262.235.446.327.394.174.628.246c.234.07.475.15.72.236.246.087.486.188.72.304s.444.262.63.438.332.392.445.646.17.563.17.927c0 .397-.07.768-.207 1.114-.137.346-.334.647-.592.905-.257.258-.575.46-.954.608-.38.147-.81.222-1.29.222-.272 0-.545-.027-.817-.084-.272-.056-.534-.134-.786-.233-.252-.1-.49-.22-.71-.36-.224-.14-.418-.296-.584-.468l.523-.853c.044-.063.1-.116.173-.158.07-.042.146-.063.226-.063.107 0 .22.04.34.12.118.08.256.17.41.265.154.097.334.185.54.265.203.08.448.12.733.12.417 0 .74-.097.967-.288.23-.192.343-.48.343-.858 0-.22-.057-.398-.17-.534s-.26-.25-.443-.342-.39-.17-.625-.237c-.233-.064-.474-.138-.72-.218s-.486-.176-.72-.288c-.234-.112-.443-.26-.625-.444-.183-.184-.33-.41-.443-.684-.114-.27-.17-.61-.17-1.014 0-.324.062-.64.19-.942s.312-.574.56-.81c.245-.236.547-.427.906-.57.36-.145.77-.216 1.235-.216.52 0 1 .08 1.444.243.442.16.815.387 1.12.675l-.44.844zM439.938 138.53c-.277 0-.523-.04-.737-.123-.214-.082-.395-.198-.54-.35s-.26-.337-.334-.553c-.075-.217-.113-.46-.113-.732v-3.336h-.577c-.088 0-.162-.028-.224-.084s-.092-.14-.092-.252v-.648l.98-.18.335-1.602c.043-.18.164-.27.362-.27h.857v1.883h1.583v1.152h-1.583v3.23c0 .17.04.307.122.406.08.102.197.15.348.15.08 0 .147-.008.203-.026.055-.018.103-.038.143-.06l.11-.06c.033-.02.068-.027.104-.027.048 0 .088.01.12.033.03.02.062.06.095.11l.492.792c-.226.18-.48.316-.768.408-.284.094-.58.14-.886.14zM446.372 138.435c-.154 0-.272-.02-.354-.066-.08-.045-.147-.137-.2-.276l-.13-.39c-.154.136-.305.255-.45.356s-.295.188-.45.258c-.158.07-.324.123-.5.16s-.373.053-.587.053c-.27 0-.516-.035-.737-.106-.223-.072-.414-.18-.574-.32-.162-.143-.286-.32-.373-.532s-.13-.456-.13-.73c0-.23.057-.456.172-.683.113-.227.312-.433.59-.618.28-.187.653-.342 1.12-.466.466-.124 1.05-.193 1.752-.21v-.317c0-.39-.08-.674-.243-.856-.164-.182-.398-.272-.703-.272-.227 0-.415.026-.565.08-.15.055-.283.112-.396.175l-.318.174c-.1.055-.214.082-.345.082-.115 0-.212-.03-.29-.087-.076-.06-.14-.127-.192-.207l-.29-.528c.36-.328.76-.573 1.195-.735.437-.16.91-.242 1.417-.242.365 0 .69.06.98.18.287.12.53.287.73.5s.355.47.462.766c.107.296.16.62.16.972v3.888h-.752zm-2.16-1.02c.27 0 .506-.05.708-.147s.402-.25.6-.453v-.96c-.4.016-.732.05-.998.103-.267.052-.478.116-.634.194-.157.078-.27.168-.334.27-.065.103-.098.214-.098.334 0 .24.066.41.2.51s.318.15.556.15zM450.525 138.53c-.277 0-.523-.04-.737-.123-.215-.082-.396-.198-.542-.35s-.258-.337-.333-.553c-.075-.217-.113-.46-.113-.732v-3.336h-.577c-.088 0-.162-.028-.224-.084s-.093-.14-.093-.252v-.648l.98-.18.335-1.602c.043-.18.164-.27.362-.27h.857v1.883h1.584v1.152h-1.583v3.23c0 .17.042.307.123.406.08.102.197.15.348.15.08 0 .148-.008.204-.026.055-.018.103-.038.143-.06l.11-.06c.033-.02.068-.027.104-.027.05 0 .09.01.12.033.032.02.063.06.096.11l.493.792c-.227.18-.482.316-.77.408-.283.094-.58.14-.885.14zM455.56 132.152c.394 0 .756.063 1.087.19s.617.308.857.548c.24.24.426.535.56.885.133.35.2.75.2 1.197 0 .124-.008.226-.02.306s-.03.145-.06.192c-.027.048-.065.08-.112.1-.048.018-.11.026-.185.026h-3.685c.052.58.216 1.004.49 1.27.276.27.64.403 1.087.403.226 0 .42-.028.586-.082.164-.054.31-.114.434-.18l.34-.18c.1-.055.2-.08.3-.08.128 0 .227.047.298.143l.477.6c-.175.205-.367.374-.577.51-.21.133-.43.238-.655.316-.226.078-.454.132-.684.162-.23.03-.454.045-.668.045-.43 0-.828-.07-1.2-.213s-.693-.352-.97-.63c-.275-.278-.492-.623-.65-1.035-.16-.412-.238-.89-.238-1.434 0-.42.068-.815.205-1.187s.333-.696.59-.972c.26-.275.572-.494.94-.656s.786-.242 1.25-.242zm.03 1.164c-.393 0-.7.113-.922.34-.223.226-.367.544-.435.956h2.56c0-.172-.023-.336-.07-.492-.045-.155-.117-.294-.216-.413-.1-.12-.225-.216-.375-.285-.152-.07-.33-.106-.542-.106zM463.095 133.52c-.044.07-.088.118-.134.148-.045.03-.107.045-.187.045s-.16-.02-.244-.06-.178-.084-.28-.13c-.104-.046-.222-.09-.354-.13s-.286-.06-.46-.06c-.267 0-.474.056-.62.166-.146.108-.22.254-.22.434 0 .124.04.228.125.312.084.085.194.157.33.22.138.062.293.12.468.174s.354.113.54.177c.184.064.362.138.537.222.175.084.33.188.468.314.137.126.246.278.33.456.083.178.125.393.125.645 0 .3-.055.577-.164.83-.11.256-.27.475-.48.658-.21.185-.472.328-.785.433-.314.104-.676.155-1.084.155-.21 0-.42-.018-.625-.056s-.4-.092-.588-.162-.36-.15-.523-.243c-.164-.093-.305-.192-.424-.3l.38-.62c.045-.07.1-.127.164-.167.066-.04.15-.06.253-.06.1 0 .19.024.274.075.083.05.177.104.28.16.103.06.225.113.365.163.14.052.316.076.526.076.16 0 .296-.018.41-.054s.21-.085.28-.147c.07-.062.124-.132.158-.21.033-.078.05-.16.05-.243 0-.136-.042-.246-.127-.333-.087-.087-.198-.16-.335-.226-.137-.063-.294-.122-.473-.174s-.36-.11-.545-.174c-.185-.064-.365-.14-.54-.23-.178-.087-.335-.198-.472-.332s-.248-.3-.333-.495c-.086-.196-.128-.435-.128-.715 0-.256.05-.5.148-.73.1-.23.248-.433.446-.608s.445-.315.74-.42c.297-.104.64-.156 1.027-.156.437 0 .833.073 1.19.217.357.145.65.332.88.564l-.37.59z"/></g><path fill-rule="evenodd" clip-rule="evenodd" fill="#007BC3" d="M401.344 91.324c0 .81.696 1.467 1.555 1.467.858 0 1.554-.656 1.554-1.466 0-.81-.695-1.467-1.555-1.467s-1.556.657-1.556 1.467z"/></svg>