<svg xmlns="http://www.w3.org/2000/svg" width="375" height="367" viewBox="0 0 375 367"><g fill="#4DAF4E"><path d="M263.482 322.91v1.285h-3.853v2.404h3.035v1.24h-3.036v2.456h3.852v1.29h-5.473v-8.677h5.472zM265.108 331.586v-5.04l-.534-.083c-.116-.025-.21-.066-.28-.123-.068-.06-.103-.14-.103-.25v-.605h.92v-.348c0-.352.052-.668.158-.95.105-.278.258-.517.456-.712.197-.195.438-.346.723-.45.284-.104.604-.155.96-.155.284 0 .548.037.792.113l-.03.738c-.005.058-.02.103-.05.14-.026.035-.063.063-.11.08-.046.018-.1.03-.158.035-.06.006-.124.01-.192.01-.176 0-.333.02-.47.057-.14.04-.256.104-.353.2-.096.093-.17.216-.22.37s-.074.346-.074.572v.3h2.454v-.546c0-.352.053-.668.16-.947s.257-.517.455-.712c.198-.197.438-.348.723-.45s.604-.157.96-.157c.14 0 .275.01.405.028s.26.045.387.082l-.035.742c-.01.117-.062.19-.16.22s-.212.046-.345.046c-.176 0-.333.018-.47.057-.14.037-.256.104-.352.197-.097.094-.17.22-.22.373-.05.154-.074.344-.074.572v.498h1.597v1.057h-1.548v5.045h-1.483v-5.045h-2.405v5.045h-1.484zM275.487 325.334c.39 0 .746.063 1.074.186.33.125.61.307.848.543.235.238.42.53.555.877s.2.74.2 1.186c0 .223-.023.375-.07.453s-.14.116-.277.116h-3.81c.024.314.08.588.168.818s.204.42.348.57c.145.15.315.262.514.336.197.074.417.11.656.11.24 0 .447-.028.62-.083.175-.057.327-.12.457-.188.13-.067.243-.13.34-.187.1-.057.194-.084.286-.084.124 0 .216.046.276.138l.426.54c-.164.192-.348.353-.552.483-.204.13-.417.233-.64.312-.222.078-.447.133-.678.166-.23.03-.453.047-.67.047-.427 0-.825-.07-1.192-.213-.368-.14-.688-.352-.96-.63s-.486-.622-.643-1.032-.233-.885-.233-1.424c0-.42.067-.816.203-1.186.137-.37.33-.69.585-.967.255-.273.564-.49.93-.65s.78-.24 1.24-.24zm.03 1.062c-.43 0-.77.12-1.013.365s-.4.59-.468 1.04h2.796c0-.19-.027-.373-.08-.543s-.136-.318-.244-.447-.245-.23-.41-.303-.36-.11-.58-.11zM283.684 326.732c-.044.057-.087.1-.13.133-.04.03-.102.047-.182.047-.076 0-.15-.023-.222-.068-.072-.047-.158-.098-.26-.156-.1-.06-.218-.11-.355-.156-.138-.045-.31-.068-.513-.068-.26 0-.488.047-.685.14s-.36.23-.49.405-.226.39-.29.638c-.063.25-.096.533-.096.85 0 .328.036.62.106.877.07.256.17.47.303.645s.29.307.478.396c.188.09.4.135.637.135.235 0 .427-.028.572-.087.146-.057.27-.12.37-.19.1-.07.187-.136.26-.192.074-.058.157-.087.25-.087.12 0 .21.047.27.14l.426.538c-.164.194-.342.355-.534.485s-.392.232-.598.31-.418.134-.636.167c-.218.03-.436.047-.65.047-.38 0-.74-.07-1.075-.214-.335-.14-.63-.348-.88-.62-.253-.272-.452-.605-.598-1-.146-.394-.22-.843-.22-1.347 0-.452.065-.872.195-1.257.13-.387.32-.72.573-1.002.252-.282.564-.503.937-.663.37-.16.8-.24 1.283-.24.46 0 .863.074 1.21.223.346.148.656.36.933.637l-.39.535zM287.11 331.682c-.536 0-.947-.15-1.233-.453-.286-.302-.43-.72-.43-1.25v-3.44h-.63c-.08 0-.147-.026-.203-.077-.056-.053-.084-.13-.084-.234v-.59l.99-.16.312-1.68c.02-.08.058-.144.114-.187.056-.045.128-.066.216-.066h.768v1.938h4.34v6.102h-1.483v-5.045h-2.856v3.336c0 .19.05.342.143.45s.223.16.387.16c.092 0 .17-.01.23-.032.063-.02.116-.045.163-.068.046-.023.087-.047.123-.068.035-.023.07-.033.107-.033.044 0 .08.01.108.033.028.02.06.055.09.098l.445.72c-.217.18-.465.317-.744.41-.28.09-.57.134-.87.134zm4.416-8.07c0 .128-.026.25-.078.362-.052.115-.12.213-.207.297s-.187.153-.305.202c-.118.05-.243.076-.375.076-.13 0-.248-.025-.36-.076-.112-.05-.21-.117-.294-.2s-.15-.183-.2-.298c-.05-.113-.076-.234-.076-.36 0-.134.025-.257.075-.37.05-.115.117-.215.2-.3s.183-.155.295-.204c.112-.05.23-.076.36-.076.132 0 .257.025.375.076.117.05.22.117.306.203s.156.186.208.3c.052.114.078.237.078.37zM292.102 325.43h1.225c.11 0 .205.027.278.078.074.053.123.12.147.2l1.188 3.286c.064.19.12.38.165.564s.09.367.13.553c.04-.185.083-.368.132-.552.048-.184.105-.373.174-.564l1.213-3.287c.028-.08.078-.146.15-.2.07-.05.157-.077.258-.077h1.17l-2.44 6.156h-1.345l-2.443-6.156zM301.737 325.334c.39 0 .746.063 1.074.186.33.125.61.307.848.543.235.238.42.53.555.877s.2.74.2 1.186c0 .223-.023.375-.07.453s-.14.116-.277.116h-3.81c.024.314.08.588.168.818s.204.42.348.57c.145.15.315.262.514.336.197.074.417.11.656.11.24 0 .447-.028.62-.083.175-.057.327-.12.457-.188.13-.067.243-.13.34-.187.1-.057.194-.084.286-.084.124 0 .216.046.276.138l.426.54c-.164.192-.348.353-.552.483-.204.13-.417.233-.64.312-.222.078-.447.133-.678.166-.23.03-.453.047-.67.047-.427 0-.825-.07-1.192-.213-.368-.14-.688-.352-.96-.63s-.486-.622-.643-1.032-.233-.885-.233-1.424c0-.42.067-.816.203-1.186.137-.37.33-.69.585-.967.255-.273.564-.49.93-.65s.78-.24 1.24-.24zm.03 1.062c-.43 0-.77.12-1.013.365s-.4.59-.468 1.04h2.796c0-.19-.027-.373-.08-.543s-.136-.318-.244-.447-.245-.23-.41-.303-.36-.11-.58-.11zM314.734 322.91v1.326h-2.616v7.35h-1.614v-7.35h-2.616v-1.326h6.846zM319.666 331.586c-.14 0-.248-.02-.324-.063-.075-.043-.136-.127-.18-.256l-.132-.438c-.156.14-.31.263-.456.368-.148.105-.302.195-.462.268s-.33.125-.513.162c-.184.035-.385.053-.605.053-.26 0-.5-.034-.72-.103-.22-.07-.41-.176-.57-.316-.16-.138-.284-.312-.372-.52-.088-.207-.132-.45-.132-.727 0-.23.062-.46.184-.686.122-.227.325-.43.61-.613.283-.182.66-.332 1.133-.453.473-.118 1.06-.187 1.765-.202v-.36c0-.41-.09-.718-.265-.915s-.43-.297-.762-.297c-.24 0-.44.027-.597.084-.158.057-.297.12-.417.19l-.326.188c-.1.055-.207.084-.327.084-.104 0-.192-.027-.264-.082-.072-.055-.13-.117-.175-.19l-.264-.472c.708-.648 1.56-.973 2.556-.973.36 0 .683.06.967.178.283.117.523.28.72.492.196.21.345.46.447.752.102.293.152.61.152.96v3.888h-.67zm-2.214-.924c.304 0 .567-.055.79-.164.22-.11.437-.277.65-.502v-1.037c-.433.02-.793.056-1.083.11-.29.053-.524.123-.7.207s-.302.182-.378.293-.114.234-.114.365c0 .262.077.447.23.56.155.112.356.167.604.167zM323.14 328.412l-2.02-2.982h1.427c.108 0 .188.016.24.045.052.03.098.08.138.148l1.29 2.057c.02-.066.045-.135.075-.203s.067-.137.11-.205l1.04-1.62c.087-.147.2-.222.34-.222h1.362l-2.027 2.916 2.11 3.24H325.8c-.107 0-.194-.027-.26-.084-.067-.055-.122-.12-.166-.19l-1.308-2.144c-.036.145-.087.264-.15.36l-1.152 1.782c-.044.068-.098.13-.162.19-.063.056-.144.085-.24.085h-1.325l2.105-3.173zM332.758 328.197v3.39h-1.614v-8.677h2.646c.588 0 1.093.06 1.515.184.422.12.768.293 1.038.512.27.22.47.484.597.79.128.306.192.644.192 1.01 0 .294-.043.57-.13.83s-.21.495-.37.708c-.163.21-.363.396-.602.557-.237.16-.51.29-.813.386.204.115.38.28.528.498l2.172 3.203h-1.458c-.277 0-.478-.107-.602-.324l-1.823-2.777c-.068-.104-.144-.178-.226-.223-.083-.043-.204-.064-.364-.064h-.688zm0-1.158h1.008c.304 0 .57-.04.795-.116.228-.076.413-.18.56-.314.146-.135.255-.293.326-.477.072-.184.108-.387.108-.605 0-.44-.145-.78-.435-1.016-.29-.234-.734-.354-1.33-.354h-1.032v2.88zM342.65 331.586c-.14 0-.247-.02-.323-.063-.075-.043-.136-.127-.18-.256l-.132-.438c-.156.14-.31.263-.456.368-.15.105-.303.195-.463.268s-.33.125-.513.162c-.183.035-.384.053-.604.053-.26 0-.5-.034-.72-.103-.22-.07-.41-.176-.57-.316-.16-.138-.284-.312-.372-.52-.088-.207-.132-.45-.132-.727 0-.23.06-.46.183-.686.12-.227.324-.43.608-.613.284-.182.662-.332 1.134-.453.473-.118 1.06-.187 1.765-.202v-.36c0-.41-.09-.718-.265-.915s-.43-.297-.762-.297c-.24 0-.44.027-.597.084-.158.057-.297.12-.417.19l-.327.188c-.1.055-.208.084-.328.084-.104 0-.192-.027-.264-.082-.072-.055-.13-.117-.175-.19l-.264-.472c.707-.648 1.56-.973 2.555-.973.36 0 .683.06.967.178.283.117.523.28.72.492.196.21.345.46.447.752.1.293.15.61.15.96v3.888h-.67zm-2.212-.924c.304 0 .567-.055.79-.164.22-.11.437-.277.65-.502v-1.037c-.433.02-.793.056-1.083.11-.29.053-.523.123-.7.207s-.3.182-.377.293-.114.234-.114.365c0 .262.077.447.23.56.154.112.355.167.604.167zM346.768 331.682c-.536 0-.947-.15-1.233-.453-.286-.302-.43-.72-.43-1.25v-3.44h-.63c-.08 0-.147-.026-.203-.077-.056-.053-.084-.13-.084-.234v-.59l.99-.16.312-1.68c.02-.08.058-.144.114-.187.056-.045.128-.066.216-.066h.768v1.938h1.645v1.057h-1.645v3.336c0 .19.048.342.142.45s.223.16.387.16c.092 0 .17-.01.23-.032.063-.02.116-.045.163-.068.046-.023.087-.047.123-.068.035-.023.07-.033.107-.033.044 0 .08.01.108.033.027.02.058.055.09.098l.444.72c-.217.18-.465.317-.744.41-.28.09-.57.134-.87.134zM351.8 325.334c.39 0 .747.063 1.075.186.328.125.61.307.847.543.235.238.42.53.555.877s.2.74.2 1.186c0 .223-.023.375-.07.453s-.14.116-.277.116h-3.81c.024.314.08.588.168.818s.204.42.348.57c.145.15.315.262.514.336.197.074.417.11.656.11.24 0 .447-.028.62-.083.175-.057.327-.12.457-.188.13-.067.244-.13.342-.187.1-.057.193-.084.285-.084.124 0 .216.046.276.138l.426.54c-.164.192-.348.353-.552.483-.204.13-.417.233-.64.312-.222.078-.447.133-.678.166-.23.03-.453.047-.67.047-.427 0-.825-.07-1.192-.213-.368-.14-.688-.352-.96-.63s-.486-.622-.643-1.032-.233-.885-.233-1.424c0-.42.067-.816.203-1.186.137-.37.33-.69.585-.967.255-.273.564-.49.93-.65s.78-.24 1.24-.24zm.03 1.062c-.43 0-.77.12-1.013.365s-.4.59-.468 1.04h2.795c0-.19-.027-.373-.08-.543s-.136-.318-.244-.447-.244-.23-.41-.303-.36-.11-.58-.11z"/></g><g fill="#007BC3"><path d="M259.033 338.42c.05.006.094.018.132.035s.075.045.11.078c.036.035.076.08.12.135l4.55 5.81c-.014-.142-.023-.278-.03-.415s-.013-.262-.013-.38v-5.272h1.422v8.677h-.828c-.128 0-.235-.02-.32-.063-.087-.043-.17-.113-.25-.213l-4.53-5.776c.013.127.02.254.027.38.006.126.01.24.01.345v5.327h-1.423v-8.676h.846c.068 0 .126.004.177.01zM271.048 347.086c-.14 0-.248-.02-.324-.063-.075-.043-.136-.127-.18-.256l-.132-.438c-.156.14-.31.263-.456.368-.148.105-.302.195-.462.268s-.33.125-.513.162c-.182.035-.383.053-.603.053-.26 0-.5-.034-.72-.103-.22-.07-.41-.176-.57-.316-.16-.138-.284-.312-.372-.52-.088-.207-.132-.45-.132-.727 0-.23.06-.46.183-.686.122-.227.325-.43.61-.613.283-.182.66-.332 1.133-.453.472-.118 1.06-.187 1.764-.202v-.36c0-.41-.09-.718-.265-.915s-.43-.297-.763-.297c-.24 0-.44.027-.597.084-.158.057-.297.12-.417.19l-.327.188c-.1.055-.207.084-.327.084-.105 0-.193-.027-.265-.082-.072-.055-.13-.117-.175-.19l-.264-.472c.708-.648 1.56-.973 2.556-.973.36 0 .683.06.967.178.282.117.522.28.72.492.195.21.344.46.446.752.102.293.152.61.152.96v3.888h-.67zm-2.214-.924c.304 0 .567-.055.79-.164.22-.11.437-.277.65-.502v-1.037c-.433.02-.793.056-1.083.11-.29.053-.522.123-.698.207s-.302.182-.378.293-.114.235-.114.366c0 .262.077.447.23.56.155.11.356.166.604.166zM275.164 347.182c-.536 0-.947-.15-1.233-.453-.285-.302-.428-.72-.428-1.25v-3.44h-.63c-.08 0-.148-.026-.204-.077-.056-.053-.084-.13-.084-.234v-.59l.99-.16.312-1.68c.02-.08.058-.144.114-.187.056-.045.128-.066.216-.066h.768v1.938h4.34v6.102h-1.483v-5.045h-2.855v3.336c0 .19.048.342.142.45s.223.16.387.16c.092 0 .17-.01.23-.032.063-.02.116-.045.163-.068.046-.023.087-.047.123-.068.035-.023.07-.033.107-.033.044 0 .08.01.108.033.027.02.058.055.09.098l.444.72c-.218.18-.466.317-.745.41-.28.09-.57.134-.87.134zm4.416-8.07c0 .128-.026.25-.078.362-.052.115-.12.213-.207.297s-.188.153-.306.202c-.12.05-.244.076-.376.076-.13 0-.248-.025-.36-.076-.112-.05-.21-.117-.294-.2s-.15-.183-.2-.298c-.05-.113-.076-.234-.076-.36 0-.134.025-.257.075-.37.05-.115.116-.215.2-.3s.182-.155.294-.204c.112-.05.23-.076.36-.076.132 0 .257.025.375.076.116.05.22.117.305.203s.155.186.207.3c.052.114.078.237.078.37zM283.558 340.834c.456 0 .87.074 1.245.223s.693.357.96.63c.266.272.47.604.615.995.144.393.216.83.216 1.314 0 .488-.072.928-.216 1.32-.145.393-.35.727-.615 1.002-.267.275-.586.488-.96.637-.374.146-.79.22-1.245.22-.46 0-.878-.073-1.254-.22-.376-.148-.697-.36-.963-.637-.266-.275-.472-.61-.617-1.002-.146-.393-.22-.832-.22-1.32 0-.484.073-.922.22-1.314.146-.39.352-.723.618-.996.267-.27.588-.48.964-.63s.794-.222 1.254-.222zm0 5.203c.512 0 .89-.172 1.137-.518.246-.345.37-.85.37-1.513s-.124-1.17-.37-1.518-.625-.522-1.137-.522c-.52 0-.905.174-1.155.525-.25.35-.375.854-.375 1.514s.125 1.164.375 1.51.634.52 1.155.52zM287.728 347.086v-6.156h.905c.192 0 .318.09.378.27l.104.485c.124-.127.255-.242.393-.348.14-.104.284-.193.438-.27.153-.076.318-.135.495-.174.176-.04.367-.06.575-.06.337 0 .635.056.895.17.26.114.477.274.65.48.175.206.307.452.397.737.09.287.135.602.135.945v3.918h-1.48v-3.918c0-.375-.087-.666-.26-.873-.172-.205-.434-.31-.785-.31-.256 0-.496.06-.72.175-.225.117-.437.273-.637.475v4.45h-1.482zM298.52 347.086c-.14 0-.247-.02-.323-.063-.075-.043-.136-.127-.18-.256l-.132-.438c-.156.14-.31.263-.456.368-.15.105-.303.195-.463.268s-.33.125-.513.162c-.183.035-.384.053-.604.053-.26 0-.5-.034-.72-.103-.22-.07-.41-.176-.57-.316-.16-.138-.284-.312-.372-.52-.088-.207-.132-.45-.132-.727 0-.23.06-.46.183-.686.12-.227.324-.43.608-.613.284-.182.662-.332 1.134-.453.473-.118 1.06-.187 1.765-.202v-.36c0-.41-.09-.718-.265-.915s-.43-.297-.762-.297c-.24 0-.44.027-.597.084-.158.057-.297.12-.417.19l-.327.188c-.1.055-.208.084-.328.084-.104 0-.192-.027-.264-.082-.072-.055-.13-.117-.175-.19l-.264-.472c.707-.648 1.56-.973 2.555-.973.36 0 .683.06.967.178.283.117.523.28.72.492.196.21.345.46.447.752.1.293.15.61.15.96v3.888h-.67zm-2.213-.924c.304 0 .567-.055.79-.164.22-.11.437-.277.65-.502v-1.037c-.433.02-.793.056-1.083.11-.29.053-.523.123-.7.207s-.3.182-.377.293-.114.234-.114.365c0 .262.077.447.23.56.154.112.356.167.604.167zM302.085 338.17v8.916h-1.482v-8.916h1.482zM308.33 343.697v3.39h-1.614v-8.677h2.646c.588 0 1.093.06 1.515.184.422.12.768.293 1.038.512.27.22.47.484.597.79.128.306.192.644.192 1.01 0 .294-.043.57-.13.83s-.21.495-.37.708c-.163.21-.363.396-.602.557-.237.16-.51.29-.813.386.203.115.38.28.527.498l2.172 3.203h-1.46c-.275 0-.476-.107-.6-.324l-1.823-2.777c-.068-.104-.144-.178-.226-.223-.08-.043-.202-.064-.362-.064h-.688zm0-1.158h1.008c.304 0 .57-.04.795-.116.227-.076.412-.18.56-.314.145-.135.254-.293.325-.477.072-.184.108-.387.108-.605 0-.44-.145-.78-.435-1.016-.29-.234-.732-.354-1.328-.354h-1.032v2.88zM318.224 347.086c-.14 0-.248-.02-.324-.063-.075-.043-.136-.127-.18-.256l-.132-.438c-.156.14-.31.263-.456.368-.148.105-.302.195-.462.268s-.33.125-.513.162c-.183.035-.384.053-.604.053-.26 0-.5-.034-.72-.103-.22-.07-.41-.176-.57-.316-.16-.138-.284-.312-.372-.52-.087-.207-.13-.45-.13-.727 0-.23.06-.46.182-.686.122-.227.325-.43.61-.613.283-.182.66-.332 1.133-.453.473-.118 1.06-.187 1.765-.202v-.36c0-.41-.09-.718-.265-.915s-.43-.297-.762-.297c-.24 0-.44.027-.597.084-.158.057-.297.12-.417.19l-.328.188c-.1.055-.207.084-.327.084-.104 0-.192-.027-.264-.082-.07-.055-.13-.117-.174-.19l-.264-.472c.708-.648 1.56-.973 2.556-.973.36 0 .683.06.967.178.283.117.523.28.72.492.196.21.345.46.447.752.102.293.152.61.152.96v3.888h-.67zm-2.214-.924c.304 0 .567-.055.79-.164.22-.11.437-.277.65-.502v-1.037c-.433.02-.793.056-1.083.11-.29.053-.523.123-.7.207s-.3.182-.377.293-.114.234-.114.365c0 .262.077.447.23.56.155.112.356.167.604.167zM320.288 347.086v-6.156h.905c.192 0 .318.09.378.27l.104.485c.124-.127.255-.242.393-.348.14-.104.284-.193.438-.27.153-.076.318-.135.495-.174.176-.04.367-.06.575-.06.337 0 .635.056.895.17.26.114.477.274.65.48.175.206.307.452.397.737.09.287.135.602.135.945v3.918h-1.48v-3.918c0-.375-.087-.666-.26-.873-.172-.205-.434-.31-.785-.31-.256 0-.496.06-.72.175-.225.117-.437.273-.637.475v4.45h-1.482zM328.537 338.17v5.107h.276c.1 0 .18-.014.236-.04.058-.026.116-.08.177-.16l1.53-1.89c.063-.084.135-.146.213-.19.077-.044.18-.067.303-.067h1.355l-1.914 2.287c-.136.18-.283.318-.443.414.085.06.16.13.226.21.066.08.13.166.19.258l2.05 2.988H331.4c-.117 0-.217-.018-.3-.057-.085-.038-.155-.108-.21-.208l-1.573-2.334c-.057-.092-.114-.152-.174-.18-.06-.027-.15-.043-.27-.043h-.337v2.82h-1.48v-8.916h1.48z"/></g><g fill="#E6E7E8" stroke="#FFF" stroke-width=".75"><path d="M294.74 125.004l-3.882-9.898-2.718-10.87-2.91-3.88-3.105-2.136-1.94 1.358-4.66 2.135-2.327 6.016-3.3 4.463-1.358.776-1.747-.777s-3.106-1.747-2.91-2.523c.192-.777.58-6.017.58-6.017l4.077-1.552.97-4.075.776-3.105 2.912-1.94-.39-12.034-1.94-2.717-1.553-.972-.97-2.523.97-.97 1.94.388.195-1.94-2.91-2.718-1.555-3.105h-3.104l-5.434-1.747-6.6-4.076h-3.3l-.775.776-1.164-.583-3.688-2.717-3.492 2.135-3.494 2.717.388 4.27 1.165.39 2.522.58.583.972-3.105.97-3.105.39-1.746 2.133-.39 2.523.39 1.94.388 6.6-4.27 2.524-.776-.194v-5.046l1.552-2.91.776-2.913-.97-.97-2.33.97-1.164 5.047-3.3 1.36-2.134 2.328-.195 1.164.777.97-.776 3.106-2.715.582v1.36l.97 2.91-1.36 7.375-1.94 4.853.777 5.628.582 1.358-.97 2.91-.39.972-.387 3.3 4.27 7.18 3.494 7.764 1.748 5.823-.97 5.628-1.165 7.183-2.912 6.21-.388 3.3-3.912 3.705 5.293-.195 25.714-2.718 8.738-1.185.116 2 8.228-1.455 12.363-1.805 4.63-.553.164-.706.194-1.746 2.523-4.464 2.4-2.086-.265-6.065 1.917-1.918 1.31-.412.268-4.27 1.843-3.64 1.262.73.194.775.97.194 2.33-1.165-.39-11.45z"/><path d="M155.183 10.735l2.196-2.47 2.606-.96 6.45-4.668 2.746-.686.548.55-6.176 6.176-3.98 2.333-2.47 1.097-1.92-1.372zm103.46 38.573l.776 3.008 3.88.194 1.554-1.456s-.098-1.747-.485-1.94c-.39-.195-1.94-2.232-1.94-2.232l-2.62.292-1.942.193-.39 1.36 1.165.58zm-120.42-3.57l.858-.698 3.3-.97 4.27-2.717V40.19l.777-.777 7.18-1.165 2.912-2.33 5.24-2.522.194-1.553 2.328-3.493 2.135-.97 1.553-2.135 2.717-2.717 5.24-2.912 5.63-.582 1.358 1.36-.388 1.163-4.464 1.165-1.747 3.687-2.718.97-.582 2.91-2.91 3.883-.39 3.105.97.582 1.167-1.358 4.27-3.493 1.552 1.552h2.717l3.882 1.164 1.747 1.36 1.748 3.687 3.3 3.3 4.657-.195 1.747-1.165 1.94 1.553 1.942.583 1.552-.972h1.36l1.94-1.165 4.852-4.27 4.075-1.358 7.957-.388 5.435-2.33 3.106-1.552 1.747.194v6.79l.582.388 3.493.97 2.33-.582 7.374-1.94 1.358-1.36 1.747.583v8.345l3.882 3.688 1.553.776 1.553 1.164-1.553.388-.97-.388-4.465-.583-2.522.777-2.718-.194-3.882 1.747h-2.136l-6.986-1.553-6.21.194-2.33 3.106-8.346.776-2.91.97-1.36 3.688-1.552 1.358-.583-.194-1.747-1.94-5.434 2.91h-.776l-1.36-1.94-.97.194-2.328 5.24-1.164 4.852-3.82 8.405-1.413-1.242-1.646-1.238-2.332-12.352-4.255-1.645-2.464-2.745-14.552-3.294-3.428-1.237-9.88-2.608-9.475-1.373-4.463-6.175z"/></g><path fill="#E6E7E8" stroke="#FFF" stroke-width=".75" d="M200.745 272.357l.078-3.43.583-5.436 2.717-3.493 2.135-4.658 3.106-5.047-.583-6.987-2.134-3.3-.39-3.882.972-6.6-.582-8.345-1.553-19.216-1.553-18.438-1.165-14.07 3.688 1.067 1.746 1.165 1.357-.388 2.523-2.33 3.397-1.94 6.114-.195 26.397-2.717 6.694-.64 1.806 19.157 5.104 44.23.72 6.93-.446 2.717 1.474 2.156.116 1.647-3.027 1.92-4.25 1.863-3.844.66-.72 5.844-5.49 3.978-3.358 4.814.39 2.854-.7 1.842h-3.993l-1.903-1.94-2.993 1.515-3.223 1.805.195 3.668-1.436.31-.562-1.223-2.602-1.805-3.902 1.61-1.862 3.61-1.727-.972-1.748-1.92-5.358.582-6.715 1.164-3.495 1.863z"/><path fill="#A7D6F3" stroke="#FFF" stroke-width=".75" d="M200.71 272.803l.04-3.876.68-5.58 2.802-3.5 2.24-4.893 2.682-4.797-.446-6.306-2.408-4.253-.114-4.018.833-6.327-.99-8.618-1.28-18.942-1.554-18.03-1.107-13.974-.328-1.106-.97-3.106-1.554-4.463-1.94-2.135-1.747-3.106-.28-6.59-54.982 3.12.274 2.848 2.745.823 1.1 1.373.547 2.195 4.667 4.117.824 2.745-.823 4.117-2.195 4.392-.823 3.02-2.746 2.196-2.195.823-6.313 1.647-.823 2.196-.825 2.47.824 1.647 2.196 1.922-.275 4.94-2.195 1.92-.824 1.923v3.294l-2.196.548-1.92 1.373-.274 1.647.274 2.47-2.06 1.578-1.234 3.363.55 4.392 2.745 8.784 8.784 9.058 6.588 4.392-.274 5.215 1.097 1.648 7.686.55 3.294 1.645-.823 4.393-2.744 7.136-.823 3.843 2.745 4.666 7.685 6.314 5.49.824 2.47 6.038 2.47 3.843-1.098 3.567 1.92 4.94 2.196 2.47 1.7-1.057 1.09-2.49 2.656-2.1 2.56-.736 3.124 1.416 4.355 1.65 1.427-.357.24-2.71-1.545-2.897.364-2.854 2.21-1.618 3.628-.972 1.514-.55-.736-1.667-.95-2.826 1.72-1.18 1.385-3.857z"/><path fill="#E6E7E8" stroke="#FFF" stroke-width=".75" d="M195.34 149.175l-.082-3.79-1.415-5.436-.776-7.376-1.358-2.91 1.163-3.69.97-3.492 1.748-3.105-.776-4.076-.776-4.27.583-2.134 2.33-2.91.194-3.3-.97-1.553.774-3.105-.543-5.008 3.3-6.792 3.494-8.152.193-2.717-.388-1.166-.97.583-5.048 7.57-3.3 4.85-2.33 2.136-.97 2.717-2.346.97-1.358 2.33-1.747-.388-.195-2.135 1.554-2.91 2.523-5.63 2.135-1.94 1.188-2.83-3.074-2.284-2.37-12.446-4.26-1.612-2.335-2.77-14.562-3.27-3.453-1.214-9.86-2.6-9.506-1.392-4.522-6.16-.9.665-1.44-.194-.775-1.36-1.602.357-1.358.194-2.135 1.166-1.164-.776.776-2.33 2.328-3.687 1.36-1.36-2.33-1.746-2.522.97-3.494 2.33-8.928 3.88-3.494.777-3.493-.582-1.18-1.055-2.54 3.404-.275 3.294V59.87l-1.373 1.92-6.314 4.667-2.745 7.137.55.274 3.02 2.47.822 3.844-2.196 3.843v4.666l.55 7.96 3.568 3.57h4.118l2.196 3.842 4.116.55 4.667 6.86 8.51 4.94 2.47 3.295 1.098 8.92.823 3.98 2.746 1.922.274 1.645-2.47 4.117.275 3.843 3.02 4.666 3.018 1.374 3.568.55 1.613 1.656 54.386-3.205zM127.354 210.098l-3.026-3.706-1.372-2.745-77.267 2.882-2.746.136 1.51 3.02-.275 2.745 3.02 4.667 3.704 4.94 3.706 3.294 2.595.275 1.796 1.1v3.567l-2.195 1.92-.548 2.746 2.47 4.117 3.02 3.568 3.02 2.195 1.645 14 .377 43.308.273 5.625.548 6.466 26.935-1.04 27.86-.824 24.98-.962 13.99-.276 2.606 4.113-.82 3.97-3.707 2.886-.688 2.205 6.458.55 4.676-.824 2.062-6.595.782-7.032 2.518-3.068 3.117-1.785.06-3.662 1.222-2.324-2.035-3.055-1.598 1.18-2.393-2.675-1.543-5.712.962-3.025-2.334-4.114-2.198-5.495-5.76-.96-8.368-6.72-2.063-4.94.96-3.843 2.472-7.272.55-3.438-2.34-1.24-8.23-.956-1.234-2.056-.133-5.08-6.588-4.118-8.376-9.33-2.745-8.783-.277-5.074.96-2.748z"/><path fill="#E6E7E8" stroke="#FFF" stroke-width=".75" d="M328.518 266.715l-2.753 2.883-4.296 4.795-5.914 6.562-1.46 2.06-.074 2.523-5.26 2.598-6.792 4.077-8.682 2.16-62.272 5.88-18.92 2.136-5.55.614-4.644-.033-.272 5.067-9.82.174-8.345.778-9.59-.073 1.45-1.585 3-1.85.275-3.844 1.097-2.195-1.93-3.047.964-2.29 2.717-2.135 2.523-.776 3.3 1.553 4.27 1.554 1.358-.39.194-2.718-1.553-2.91.388-2.718 2.328-1.747 3.106-.775 1.94-.776-.972-2.136-.775-2.33 1.81-1.195c.003-.044 1.505-4.228 1.486-4.392l3.667-1.775 6.386-1.164 5.396-.582 1.67 1.954 1.835 1.046 1.91-3.732 3.826-1.54 2.648 1.782.493 1.2 1.41-.317-.194-3.546 3.76-2.1 2.577-1.29 1.836 1.994 3.983-.054.706-1.887-.443-2.717 3.122-4.8 5.734-4.128.847-5.806 3.514-.548 4.552-1.976 2.934-2.05-.238-1.88-1.372-1.747.68-3.594 5.024-.142 2.762-.896 4.02 1.716 2.465 5.24 6.163.013 2.463 2.65 1.938-.176 3.124-1.534 6.288.688 3.09.262 2.027-2.47 3.143-1.712 2.26-.85.776 3.407 2.453 1.272 3.173 2.5.14 6.812.972 1.888 3.11 1.868.925 2.755 4.995 4.127 2.168 4.35 2.95 1.993zM140.262 151.834l.318 3.345 2.67.692 1.145 1.47.6 2.23 4.554 4.032.822 2.87-.81 4.113-1.9 3.88-.958 3.292-2.61 1.922-2.06.687-6.697 2.233-1.67 4.62.874 1.646 2.21 2.02-.34 4.847-2.116 1.846-.926 1.974.152 3.332-2.264.55-1.952 1.325-.334 1.624.334 2.538-1.862 1.34-2.966-3.762-1.516-2.94-78.92 3.02-1.103.197-2.464-5.422-.274-7.958-1.923-4.94-.823-6.314-2.745-4.392-1.1-5.764-3.293-9.058-1.37-6.45-1.648-2.607-1.923-3.294 2.346-5.815 1.647-6.862-3.295-2.47-.548-3.294 1.097-3.02h2.06l99.233-1.523 1 5.02 2.706 1.875.307 1.708-2.436 4.07.23 3.848 3.018 4.56 3.034 1.555 3.697.604.79.994z"/><g fill="#58595B"><path d="M267.863 256.03h.44c.18 0 .325-.025.442-.074.117-.05.217-.128.3-.235l2.794-3.533c.116-.15.237-.254.366-.312.13-.06.29-.088.486-.088h1.625l-3.41 4.207c-.2.257-.408.438-.623.546.154.056.293.135.418.234.123.1.24.232.354.396l3.514 4.74h-1.66c-.223 0-.39-.032-.5-.096-.11-.063-.2-.155-.275-.276l-2.863-3.738c-.09-.126-.19-.214-.31-.266s-.284-.077-.503-.077h-.597v4.452h-1.883v-10.123h1.883v4.242zM279.924 257.99v3.92h-1.875v-3.92l-3.69-6.203h1.66c.162 0 .29.04.387.12s.178.18.242.3l1.847 3.38c.107.207.203.398.283.575.082.178.156.353.22.525.062-.178.132-.354.212-.532.078-.178.17-.366.273-.567l1.84-3.38c.053-.104.13-.2.232-.288.102-.088.232-.133.39-.133h1.667l-3.69 6.202z"/></g><g fill="#58595B"><path d="M226.288 202.014h-1.89v-10.122h1.89v10.122zM229.743 191.902c.06.007.11.02.154.042.044.02.087.05.13.09.042.04.088.093.14.158l5.306 6.776c-.014-.163-.025-.324-.035-.483-.01-.158-.014-.306-.014-.44v-6.153h1.66v10.122h-.967c-.15 0-.274-.024-.375-.073s-.197-.13-.29-.248l-5.285-6.74c.014.148.024.297.03.444.008.146.012.28.012.402v6.216h-1.66v-10.122h.987c.08 0 .148.004.206.01z"/></g><g fill="#58595B"><path d="M168.286 202.604h-1.89V192.48h1.89v10.124zM172.43 201.05h4.046v1.554h-5.93V192.48h1.884v8.57z"/></g><g fill="#58595B"><path d="M98.814 246.783c.067.16.134.322.2.486.064-.175.132-.34.202-.5.07-.163.145-.317.224-.468l2.99-5.607c.037-.068.076-.125.118-.168.042-.04.087-.072.136-.09.05-.02.104-.03.165-.035s.132-.008.216-.008h1.42v10.123h-1.658v-6.54c0-.12.003-.253.01-.397.008-.145.02-.29.032-.44l-3.06 5.74c-.144.274-.365.413-.664.413h-.266c-.3 0-.52-.14-.665-.414l-3.094-5.763c.015.154.027.305.036.453.01.146.014.283.014.408v6.54h-1.66v-10.124h1.422c.084 0 .156.004.217.008.06.004.114.016.164.035.05.018.093.05.133.09.04.043.078.1.116.168l3.03 5.62c.08.152.154.306.22.468zM116.395 245.457c0 .74-.122 1.428-.367 2.06s-.592 1.18-1.04 1.642c-.448.462-.987.823-1.617 1.08-.63.26-1.33.39-2.1.39-.764 0-1.462-.13-2.092-.39-.63-.257-1.17-.618-1.62-1.08-.45-.462-.8-1.01-1.047-1.642-.247-.633-.37-1.32-.37-2.06 0-.743.124-1.43.37-2.064.248-.633.597-1.18 1.047-1.64.45-.464.99-.825 1.62-1.083.63-.26 1.33-.388 2.094-.388.515 0 .998.06 1.45.178s.868.287 1.246.504.717.482 1.02.79c.3.312.555.66.766 1.042.21.383.37.797.48 1.246.108.448.163.92.163 1.415zm-1.925 0c0-.557-.075-1.055-.224-1.496-.15-.438-.36-.813-.637-1.122s-.61-.543-1.006-.707c-.394-.16-.84-.243-1.333-.243s-.938.082-1.332.244c-.394.165-.73.4-1.008.708s-.49.684-.64 1.123c-.15.442-.225.94-.225 1.497 0 .555.074 1.053.224 1.494.148.44.362.815.64 1.12.278.307.614.54 1.008.703.395.164.84.246 1.333.246s.94-.083 1.334-.247c.395-.162.73-.396 1.005-.703.274-.305.486-.68.636-1.12.15-.44.224-.938.224-1.493z"/></g><g fill="#58595B"><path d="M87.193 159.91h-1.89v-10.123h1.89v10.122zM98.127 159.91H96.67c-.163 0-.296-.042-.398-.124s-.18-.183-.23-.304l-.757-2.065h-4.193l-.756 2.065c-.037.107-.11.205-.217.294-.108.088-.24.133-.4.133h-1.47l3.983-10.123h1.918l3.977 10.122zm-6.552-3.823h3.227l-1.232-3.367c-.06-.15-.124-.326-.19-.528-.064-.203-.13-.424-.195-.662-.065.238-.13.46-.192.665-.063.205-.125.385-.186.54l-1.232 3.352z"/></g><g fill="#4DAF4E"><path d="M75.78 171.132h1.758v-5.058c0-.196.006-.402.018-.618l-1.248 1.044c-.072.056-.143.09-.213.105-.07.014-.136.015-.198.003s-.117-.033-.165-.063-.084-.063-.108-.1l-.468-.64 2.646-2.25h1.218v7.577h1.56v1.11h-4.8v-1.11zM81.846 171.426c0-.124.023-.242.07-.354s.108-.208.188-.288.176-.144.288-.192c.112-.048.232-.072.36-.072s.247.024.357.072c.11.048.205.112.287.192s.147.176.195.288c.048.112.072.23.072.354 0 .128-.024.247-.072.357-.048.11-.113.205-.195.285s-.178.143-.288.19c-.11.045-.23.068-.358.068s-.248-.023-.36-.07-.208-.108-.288-.188-.143-.175-.19-.285-.068-.23-.068-.357zM87.786 163.47c.4 0 .76.057 1.083.17.32.115.596.273.824.475s.403.44.525.71.182.567.182.883c0 .276-.03.52-.093.73s-.153.392-.27.548c-.12.156-.263.288-.433.396-.17.108-.363.198-.58.27.52.164.91.414 1.165.75.256.336.384.758.384 1.266 0 .432-.08.814-.24 1.146-.16.333-.376.61-.648.837s-.587.398-.945.514c-.358.116-.737.174-1.137.174-.436 0-.816-.05-1.14-.15-.324-.1-.606-.248-.846-.444s-.444-.436-.612-.72c-.168-.284-.312-.612-.432-.984l.654-.27c.172-.072.333-.09.483-.057.15.034.26.115.327.243.072.14.15.278.237.414.086.136.19.257.31.363.12.106.26.192.422.258s.354.1.578.1c.252 0 .472-.04.66-.123s.345-.19.47-.32c.127-.133.22-.28.283-.442s.094-.325.094-.49c0-.207-.022-.396-.066-.566-.044-.17-.136-.316-.276-.436s-.34-.214-.603-.282c-.263-.068-.614-.102-1.054-.102v-1.056c.364-.004.666-.038.906-.102s.43-.153.573-.267c.142-.114.24-.25.297-.41.056-.16.084-.337.084-.53 0-.407-.114-.717-.342-.93s-.532-.317-.912-.317c-.176 0-.338.025-.486.075-.148.05-.28.12-.4.21-.117.09-.216.195-.296.315-.08.12-.14.252-.18.396-.068.184-.157.306-.267.366-.11.06-.265.074-.465.042l-.78-.138c.06-.416.176-.78.348-1.095.172-.315.387-.577.645-.787.26-.21.555-.368.89-.474s.692-.16 1.076-.16zM95.088 168.876c.068-.084.132-.166.192-.246s.118-.16.174-.24c-.2.128-.42.225-.66.29-.24.067-.492.1-.756.1-.3 0-.594-.052-.882-.156s-.544-.26-.768-.47-.405-.47-.543-.78c-.138-.31-.207-.674-.207-1.09 0-.388.072-.752.216-1.092.144-.34.346-.638.606-.894s.572-.458.936-.606c.364-.148.766-.222 1.206-.222.444 0 .843.07 1.197.21s.655.336.905.588.442.554.576.906c.135.352.202.738.202 1.158 0 .268-.023.522-.07.762-.045.24-.11.47-.194.693-.084.222-.186.44-.306.65-.12.213-.254.423-.402.63l-1.986 2.833c-.068.096-.17.177-.306.243-.136.066-.29.1-.462.1h-1.362l2.694-3.367zm.977-2.694c0-.236-.036-.447-.108-.633-.072-.187-.174-.344-.306-.472-.13-.128-.288-.226-.47-.294s-.38-.102-.597-.102c-.224 0-.426.037-.606.11-.18.075-.334.178-.462.31s-.226.29-.294.47-.1.382-.1.598c0 .484.124.853.374 1.107s.605.38 1.065.38c.24 0 .453-.037.64-.113.19-.076.347-.18.475-.312s.225-.288.29-.468.1-.374.1-.582zM102.57 165.666c0 .328-.055.624-.165.888-.11.264-.257.49-.44.675-.185.185-.4.328-.643.428-.244.1-.498.15-.762.15-.288 0-.554-.05-.798-.15-.244-.1-.455-.243-.633-.43-.18-.185-.318-.41-.418-.674-.1-.264-.15-.56-.15-.888 0-.336.05-.64.15-.912.1-.272.24-.502.417-.69.177-.188.388-.333.632-.435.244-.103.51-.154.798-.154s.555.05.8.153c.247.1.46.246.64.434s.32.418.42.69.15.576.15.912zm2.886-1.866c.052-.06.113-.114.183-.162.07-.048.168-.072.296-.072h1.08l-6.444 8.454c-.052.064-.114.117-.186.16-.072.04-.16.062-.264.062h-1.104l6.438-8.442zm-4.026 1.866c0-.232-.023-.426-.07-.582-.045-.156-.107-.282-.185-.378-.078-.096-.17-.165-.276-.207s-.22-.064-.34-.064-.232.02-.336.063-.193.11-.267.206c-.074.096-.133.222-.177.378-.044.156-.066.35-.066.582 0 .224.022.41.066.56.044.15.103.272.177.364.074.092.163.158.267.198s.216.06.336.06.233-.02.34-.06.197-.106.275-.198c.078-.092.14-.213.186-.363.047-.15.07-.337.07-.56zm6.042 4.536c0 .328-.055.624-.165.888-.11.264-.257.49-.44.675-.185.186-.4.33-.643.432s-.498.153-.762.153c-.288 0-.554-.05-.798-.153s-.455-.246-.633-.432c-.177-.186-.316-.41-.416-.675-.1-.264-.15-.56-.15-.888 0-.336.05-.64.15-.912.1-.272.24-.502.417-.69.18-.188.39-.333.634-.435s.51-.153.798-.153c.288 0 .555.05.8.153s.46.247.637.435.317.418.42.69c.1.272.152.576.152.912zm-1.146 0c0-.232-.022-.426-.066-.582-.044-.156-.105-.282-.183-.378s-.17-.165-.276-.207c-.105-.042-.218-.063-.338-.063-.12 0-.232.02-.336.063s-.194.11-.27.207c-.076.096-.135.222-.177.378-.043.156-.064.35-.064.582 0 .224.02.412.063.564.04.152.1.274.176.366.076.092.166.158.27.198s.216.06.336.06c.12 0 .233-.02.34-.06.105-.04.197-.106.275-.198.078-.092.14-.214.183-.366.044-.152.066-.34.066-.564z"/></g><g fill="#4DAF4E"><path d="M89.284 263.125h1.758v-5.06c0-.194.006-.4.018-.617l-1.248 1.044c-.072.057-.143.092-.213.105-.07.014-.137.015-.2.003-.06-.013-.116-.033-.164-.063s-.084-.063-.108-.1l-.468-.64 2.646-2.25h1.218v7.577h1.56v1.11h-4.8v-1.11zM95.35 263.418c0-.123.023-.242.07-.354s.108-.208.188-.288.176-.144.288-.192c.112-.048.232-.072.36-.072s.247.024.357.072c.11.05.206.112.288.192s.148.177.196.288c.048.11.072.23.072.354 0 .13-.024.248-.072.357-.048.11-.113.205-.195.285s-.177.143-.287.19c-.11.044-.23.067-.357.067s-.248-.023-.36-.068c-.112-.048-.208-.11-.288-.19s-.143-.176-.19-.285-.068-.228-.068-.357zM104.344 259.896c0 .756-.08 1.413-.243 1.97-.16.56-.385 1.02-.67 1.384-.287.364-.625.635-1.015.813-.39.178-.81.267-1.263.267-.452 0-.87-.09-1.257-.267-.386-.18-.72-.45-1.005-.813-.284-.363-.506-.824-.666-1.383-.16-.558-.24-1.215-.24-1.97 0-.76.08-1.42.24-1.976.16-.555.382-1.015.666-1.378.284-.365.62-.636 1.005-.813.386-.18.805-.268 1.257-.268.452 0 .873.088 1.263.267.39.177.728.447 1.014.812.285.363.51.823.67 1.38.163.557.244 1.215.244 1.974zm-1.53 0c0-.628-.047-1.148-.14-1.56-.09-.413-.214-.74-.368-.984s-.33-.415-.53-.513c-.2-.1-.41-.148-.625-.148-.21 0-.416.05-.614.147-.198.097-.373.268-.525.512-.15.243-.272.57-.362.983-.09.412-.135.933-.135 1.56s.045 1.15.135 1.562c.09.41.21.74.363.983.153.244.328.415.526.513.198.098.403.147.615.147.217 0 .425-.05.625-.147.2-.098.377-.27.53-.513.155-.244.278-.572.37-.983.093-.412.138-.933.138-1.56zM108.208 255.463c.4 0 .766.06 1.098.176.332.118.616.284.852.5.236.217.42.477.552.78.132.305.198.643.198 1.015 0 .32-.047.616-.14.888-.095.27-.22.532-.38.78-.157.248-.342.487-.554.72s-.434.47-.666.708l-1.962 2c.192-.057.38-.1.567-.13s.363-.045.53-.045h2.227c.16 0 .287.045.38.135.095.09.142.21.142.356v.89H105.1v-.493c0-.1.02-.205.063-.314.042-.11.11-.21.2-.298l2.635-2.64c.22-.225.417-.44.59-.644.175-.203.32-.405.436-.605.116-.2.205-.402.267-.61.063-.204.094-.42.094-.65 0-.207-.03-.39-.09-.548s-.145-.29-.255-.4-.243-.187-.397-.242c-.154-.054-.327-.08-.52-.08-.175 0-.338.024-.488.074-.15.05-.283.12-.4.21-.115.09-.213.195-.293.315-.08.12-.14.252-.18.396-.068.184-.156.305-.264.365s-.264.074-.468.042l-.78-.138c.06-.416.176-.78.348-1.096.172-.312.387-.575.645-.784.258-.21.554-.368.888-.475.334-.104.694-.157 1.078-.157zM116.074 257.658c0 .328-.055.624-.165.89-.11.263-.258.487-.442.673-.184.188-.398.33-.642.43-.244.1-.498.15-.762.15-.288 0-.554-.05-.798-.15-.244-.1-.455-.242-.633-.43-.178-.185-.317-.41-.417-.673-.1-.265-.15-.56-.15-.89 0-.335.05-.64.15-.91.1-.272.24-.503.417-.69.178-.188.39-.334.633-.436.244-.1.51-.15.798-.15s.555.05.8.15c.247.103.46.248.64.437.18.188.32.418.42.69.1.272.15.575.15.91zm2.885-1.865c.05-.06.112-.115.182-.162.07-.048.17-.07.297-.07h1.08l-6.445 8.452c-.052.064-.114.117-.186.16-.073.04-.16.063-.265.063h-1.104l6.44-8.442zm-4.026 1.865c0-.232-.023-.426-.07-.582-.045-.156-.107-.28-.185-.378-.08-.096-.17-.165-.277-.207s-.22-.062-.34-.062-.23.02-.335.063-.193.112-.267.208c-.073.097-.132.222-.176.378-.044.156-.066.35-.066.582 0 .225.022.41.066.56.044.15.103.272.177.364s.164.158.268.198.216.06.336.06.233-.02.34-.06.197-.106.275-.198c.077-.092.14-.213.185-.363.046-.15.07-.337.07-.562zm6.042 4.536c0 .328-.055.624-.165.888s-.256.49-.44.676c-.184.186-.398.33-.642.432s-.498.152-.762.152c-.288 0-.554-.05-.798-.152s-.455-.246-.633-.432c-.178-.187-.317-.412-.417-.676-.1-.264-.15-.56-.15-.888 0-.336.05-.64.15-.912.1-.272.24-.502.417-.69.178-.188.39-.332.633-.435s.51-.153.798-.153c.288 0 .555.05.8.153s.46.247.637.435c.178.188.318.418.42.69.1.273.153.576.153.912zm-1.146 0c0-.23-.022-.426-.066-.582-.044-.155-.105-.282-.183-.378s-.17-.165-.275-.207c-.106-.042-.22-.063-.34-.063-.12 0-.23.02-.335.063s-.194.11-.27.207c-.076.096-.135.223-.177.378-.042.156-.063.35-.063.582 0 .224.02.412.063.563.042.152.1.274.177.367.076.092.166.157.27.197s.216.062.336.062c.12 0 .233-.02.34-.06.105-.04.197-.106.275-.198.08-.093.14-.215.184-.367.044-.15.066-.34.066-.563z"/></g><g fill="#4DAF4E"><path d="M155.5 215.787h1.76v-5.058c0-.197.005-.402.017-.62l-1.248 1.045c-.073.056-.144.09-.214.104-.07.014-.136.015-.198.003s-.117-.033-.165-.063-.084-.063-.108-.1l-.468-.643 2.646-2.25h1.218v7.578h1.56v1.11h-4.8v-1.108zM161.567 216.082c0-.125.023-.242.07-.354s.108-.208.188-.288.176-.145.288-.19c.112-.05.232-.073.36-.073s.247.023.357.072c.11.046.206.11.288.19s.147.176.195.288c.048.112.072.23.072.354 0 .127-.024.246-.072.356-.048.11-.113.205-.195.285s-.178.144-.288.188c-.11.048-.23.07-.357.07s-.248-.022-.36-.07c-.112-.044-.208-.107-.288-.187s-.143-.175-.19-.285-.068-.23-.068-.356zM167.85 213.53c.067-.083.13-.165.19-.245s.12-.16.175-.24c-.2.13-.42.226-.66.29-.24.067-.492.1-.756.1-.3 0-.595-.052-.883-.155s-.544-.26-.768-.47-.406-.472-.544-.78c-.138-.31-.207-.674-.207-1.09 0-.388.07-.752.215-1.092s.346-.64.606-.895c.26-.256.573-.457.937-.605.364-.148.766-.223 1.206-.223.444 0 .843.07 1.197.21.354.14.656.337.906.59s.442.553.576.905c.134.352.2.737.2 1.157 0 .27-.022.522-.068.763-.046.24-.11.47-.195.692s-.187.438-.307.65c-.12.213-.254.423-.402.63l-1.985 2.833c-.068.096-.17.177-.306.243-.137.065-.29.1-.463.1h-1.362l2.694-3.367zm.976-2.692c0-.236-.036-.447-.108-.633-.072-.187-.174-.344-.306-.472s-.29-.226-.47-.294-.382-.103-.598-.103c-.224 0-.426.037-.606.11-.18.074-.334.177-.462.31-.128.132-.226.29-.294.47s-.102.382-.102.6c0 .482.125.852.375 1.105s.605.38 1.065.38c.24 0 .454-.037.642-.113s.346-.18.474-.313c.128-.132.225-.288.29-.468.067-.18.1-.375.1-.582zM174.424 208.125c.4 0 .766.06 1.098.178.332.117.616.285.852.5.236.217.42.477.552.78.132.305.198.643.198 1.015 0 .32-.047.615-.14.888-.095.272-.22.532-.38.78-.157.248-.342.488-.554.72s-.434.468-.666.708l-1.962 1.998c.192-.057.38-.1.567-.13.185-.03.362-.044.53-.044h2.226c.16 0 .287.045.38.135.095.09.142.21.142.357v.888h-5.952v-.492c0-.1.02-.204.063-.315.04-.108.108-.208.2-.296l2.634-2.64c.22-.224.417-.438.59-.642.175-.204.32-.406.436-.606.116-.2.205-.403.267-.608.062-.207.093-.424.093-.65 0-.21-.03-.393-.09-.55-.06-.158-.145-.29-.255-.4-.11-.106-.242-.188-.396-.24-.155-.056-.328-.083-.52-.083-.176 0-.34.025-.49.075-.15.05-.282.12-.398.21-.116.09-.214.195-.294.315s-.14.252-.18.396c-.068.186-.156.308-.264.367s-.264.074-.468.042l-.78-.14c.06-.415.176-.78.348-1.094.172-.314.387-.576.645-.787.257-.21.553-.368.887-.474.334-.107.694-.16 1.077-.16zM182.29 210.32c0 .33-.054.625-.164.89-.11.264-.257.488-.44.675-.185.186-.4.328-.643.43-.244.1-.498.148-.762.148-.287 0-.553-.05-.797-.15-.244-.1-.455-.242-.633-.428-.178-.187-.317-.41-.417-.676-.1-.265-.15-.56-.15-.89 0-.335.05-.64.15-.91.1-.272.24-.502.417-.69.178-.19.39-.333.633-.435.244-.103.51-.154.798-.154s.556.053.802.155c.246.102.46.246.64.434s.32.418.42.69c.098.272.15.575.15.91zm2.886-1.865c.052-.06.113-.113.183-.162.07-.047.168-.07.296-.07h1.08l-6.444 8.453c-.052.063-.114.117-.186.158-.072.043-.16.063-.264.063h-1.104l6.438-8.442zm-4.026 1.866c0-.23-.023-.425-.07-.58-.045-.156-.107-.283-.185-.38-.078-.095-.17-.164-.276-.206s-.22-.063-.34-.063-.232.022-.336.064-.193.11-.267.207-.133.224-.177.38c-.044.155-.066.35-.066.58 0 .225.022.412.066.563.044.15.103.27.177.363.074.092.163.157.267.197s.216.06.336.06.233-.02.34-.06.197-.105.275-.197c.078-.093.14-.214.186-.363.047-.15.07-.338.07-.562zm6.042 4.537c0 .328-.055.624-.165.89-.11.263-.257.487-.44.673-.185.187-.4.33-.643.433s-.498.153-.762.153c-.288 0-.554-.05-.798-.153s-.455-.246-.633-.433c-.177-.186-.316-.41-.416-.674-.1-.265-.15-.56-.15-.89 0-.335.05-.64.15-.91.1-.272.24-.503.417-.69.18-.188.39-.334.634-.436s.51-.152.798-.152c.288 0 .555.05.8.152s.46.247.637.436c.177.188.317.418.42.69.1.27.152.575.152.91zm-1.146 0c0-.232-.022-.426-.066-.582-.044-.156-.105-.28-.183-.378s-.17-.165-.276-.207c-.105-.042-.218-.063-.338-.063-.12 0-.232.02-.336.063s-.194.11-.27.207c-.076.097-.135.222-.177.378s-.064.35-.064.582c0 .225.02.412.063.564s.1.274.176.366c.076.092.166.158.27.198s.216.06.336.06c.12 0 .233-.02.34-.06.105-.04.197-.106.275-.198s.14-.213.183-.365c.044-.15.066-.338.066-.563z"/></g><g fill="#4DAF4E"><path d="M220.62 211.61c0 .757-.082 1.413-.244 1.972-.162.558-.386 1.02-.672 1.383-.286.363-.624.635-1.015.813-.39.178-.812.268-1.264.268s-.87-.09-1.257-.268-.722-.45-1.006-.813c-.284-.364-.507-.825-.666-1.383-.16-.56-.24-1.215-.24-1.97 0-.762.08-1.42.24-1.976.16-.557.382-1.016.666-1.38s.618-.636 1.005-.813.804-.267 1.256-.267.873.09 1.263.267c.39.178.728.45 1.014.813s.51.823.672 1.38.243 1.215.243 1.975zm-1.53 0c0-.628-.047-1.147-.14-1.56s-.214-.74-.368-.984-.33-.414-.53-.513c-.2-.1-.41-.147-.625-.147-.212 0-.417.05-.614.147-.2.1-.373.27-.525.513s-.273.572-.363.984-.135.932-.135 1.56.045 1.148.135 1.56c.09.412.21.74.363.984s.326.416.525.514c.197.098.402.146.614.146.216 0 .425-.05.624-.146.2-.098.378-.27.532-.514s.277-.572.37-.983c.09-.41.137-.932.137-1.56zM221.436 215.133c0-.124.022-.242.068-.354.046-.113.11-.21.19-.29s.175-.144.286-.19c.112-.05.232-.073.36-.073s.247.023.356.072c.11.047.207.11.29.19s.145.177.194.29c.047.11.07.228.07.353 0 .128-.023.247-.07.357-.05.11-.113.205-.195.285s-.178.143-.29.188c-.108.046-.228.07-.355.07s-.248-.024-.36-.07c-.11-.046-.207-.108-.287-.188s-.144-.176-.19-.285c-.045-.11-.067-.23-.067-.357zM227.717 212.582c.068-.084.132-.165.19-.245.062-.08.12-.16.175-.24-.2.128-.42.226-.66.29-.24.066-.49.1-.756.1-.3 0-.594-.052-.88-.156-.29-.103-.546-.26-.77-.47-.224-.21-.405-.47-.543-.78-.138-.31-.207-.673-.207-1.09 0-.386.07-.75.216-1.09s.346-.64.605-.895c.26-.256.572-.458.937-.606.364-.148.767-.223 1.206-.223.443 0 .844.07 1.197.21s.656.336.906.588.44.555.576.906c.132.353.2.74.2 1.16 0 .267-.023.52-.07.76-.045.24-.11.472-.194.694-.084.222-.187.438-.306.65-.12.213-.254.422-.402.63l-1.986 2.833c-.068.096-.17.176-.306.242s-.29.1-.462.1h-1.362l2.695-3.368zm.977-2.693c0-.237-.036-.448-.108-.634-.07-.186-.174-.344-.305-.47-.132-.13-.288-.228-.47-.296-.184-.067-.382-.102-.598-.102-.225 0-.426.037-.606.11-.18.075-.334.178-.462.31-.128.133-.227.29-.294.47-.067.184-.103.382-.103.6 0 .483.125.853.375 1.106s.605.38 1.065.38c.24 0 .454-.038.642-.114.187-.075.345-.18.474-.31.128-.134.225-.29.29-.47s.1-.373.1-.58zM234.334 207.177c.4 0 .762.058 1.084.17.32.115.597.272.824.476.23.2.403.438.525.71.122.272.184.566.184.882 0 .277-.03.52-.093.73s-.152.393-.27.55c-.118.154-.262.286-.433.395-.17.108-.362.198-.58.27.522.165.91.415 1.165.75s.384.76.384 1.267c0 .432-.08.814-.24 1.146-.16.333-.377.61-.648.837-.27.227-.587.397-.945.514-.356.115-.735.174-1.136.174-.436 0-.816-.05-1.14-.15-.324-.1-.606-.248-.847-.443-.24-.196-.443-.437-.61-.72-.17-.284-.314-.612-.433-.985l.653-.27c.173-.072.333-.09.483-.057.15.033.26.115.326.242.072.14.15.28.238.414.086.136.188.257.31.362.118.106.26.192.422.258.162.066.354.1.58.1.25 0 .47-.04.66-.123.187-.082.344-.19.47-.32s.22-.28.28-.44c.064-.163.095-.326.095-.49 0-.208-.02-.397-.065-.567-.044-.17-.136-.314-.275-.435-.14-.12-.342-.214-.604-.282s-.613-.102-1.053-.102v-1.056c.363-.004.666-.037.906-.102s.43-.153.57-.268c.144-.113.242-.25.298-.41.057-.16.084-.336.084-.528 0-.408-.113-.718-.342-.93-.228-.212-.53-.318-.912-.318-.176 0-.338.024-.485.075-.147.05-.28.12-.4.21-.116.09-.216.194-.296.315-.08.12-.14.252-.18.396-.068.185-.157.306-.268.366-.11.06-.266.074-.466.04l-.78-.136c.06-.416.177-.78.35-1.096s.386-.576.644-.786.555-.368.89-.474.693-.16 1.076-.16zM242.158 209.373c0 .328-.055.623-.164.888-.11.266-.258.49-.44.676s-.4.33-.644.43c-.244.1-.498.15-.762.15-.288 0-.555-.05-.798-.15-.244-.1-.455-.244-.634-.43-.178-.186-.316-.41-.416-.675s-.15-.56-.15-.887c0-.336.05-.64.15-.912s.238-.5.416-.69c.18-.187.39-.332.634-.434.243-.102.51-.153.798-.153s.555.052.8.153.46.246.64.435c.18.19.32.42.42.69.1.272.15.577.15.913zm2.887-1.866c.05-.06.112-.114.183-.162.07-.048.17-.07.297-.07h1.08l-6.444 8.452c-.05.064-.112.117-.185.16s-.16.062-.264.062h-1.103l6.438-8.443zm-4.026 1.866c0-.232-.023-.426-.07-.582-.046-.155-.107-.28-.186-.378-.078-.096-.17-.164-.276-.207-.106-.04-.22-.063-.34-.063s-.23.02-.335.063c-.104.043-.193.11-.268.207-.074.097-.133.223-.176.38-.046.155-.067.35-.067.58 0 .225.02.41.066.562.042.15.1.27.175.363s.164.158.268.197c.104.04.216.06.336.06s.23-.02.338-.06c.106-.04.198-.105.276-.197s.14-.213.186-.363c.046-.15.07-.337.07-.56zm6.04 4.535c0 .328-.054.625-.164.89s-.257.487-.44.674c-.185.187-.398.33-.643.433-.244.102-.498.152-.762.152-.287 0-.554-.05-.798-.152-.244-.103-.455-.246-.633-.433s-.317-.41-.417-.675c-.1-.264-.15-.56-.15-.89 0-.335.05-.64.15-.91.1-.272.238-.503.416-.69s.388-.333.632-.436c.244-.1.51-.15.8-.15.286 0 .554.05.8.15.246.104.458.25.636.437.18.188.318.418.42.69.102.272.153.575.153.91zm-1.146 0c0-.23-.02-.426-.065-.582-.045-.155-.105-.28-.184-.377-.078-.098-.17-.167-.276-.208-.106-.043-.22-.063-.34-.063-.12 0-.23.02-.335.062-.104.04-.194.11-.27.207-.076.095-.136.22-.178.376-.042.156-.063.35-.063.582 0 .225.02.412.063.564s.102.273.177.366c.076.092.166.157.27.198.105.04.217.06.337.06.12 0 .233-.02.34-.06.106-.04.198-.106.276-.198.078-.093.14-.214.183-.366s.064-.34.064-.564z"/></g><g fill="#4DAF4E"><path d="M264.113 270.61c0 .757-.082 1.413-.244 1.972-.163.558-.387 1.02-.673 1.383-.285.363-.623.635-1.014.813s-.81.268-1.264.268c-.452 0-.87-.09-1.257-.268-.387-.178-.722-.45-1.006-.813-.283-.364-.506-.825-.666-1.383-.16-.56-.24-1.215-.24-1.97 0-.762.08-1.42.24-1.976s.384-1.016.667-1.38c.284-.364.62-.636 1.006-.813.386-.178.805-.267 1.256-.267.452 0 .872.09 1.263.267s.73.45 1.014.813c.286.364.51.823.672 1.38s.243 1.215.243 1.975zm-1.53 0c0-.628-.046-1.147-.138-1.56-.093-.412-.216-.74-.37-.984-.153-.244-.33-.414-.53-.513-.2-.1-.408-.147-.625-.147-.21 0-.416.05-.614.147s-.373.27-.524.513c-.152.244-.273.572-.363.984s-.136.932-.136 1.56.045 1.148.135 1.56c.09.412.21.74.362.984.15.244.326.416.524.514s.403.146.614.146c.217 0 .425-.05.625-.146.2-.098.377-.27.53-.514.154-.244.277-.572.37-.983.092-.41.137-.932.137-1.56zM264.93 274.133c0-.124.02-.242.068-.354.045-.113.108-.21.188-.29s.177-.144.288-.19c.11-.05.232-.073.36-.073.128 0 .247.023.356.072.11.047.206.11.288.19s.147.177.195.29c.048.11.07.228.07.353 0 .128-.022.247-.07.357-.048.11-.113.205-.195.285s-.178.143-.288.188c-.11.046-.23.07-.357.07-.127 0-.248-.024-.36-.07s-.207-.108-.287-.188-.144-.176-.188-.285c-.047-.11-.07-.23-.07-.357zM270.742 275.045c-.448 0-.857-.06-1.227-.18-.37-.12-.688-.29-.95-.51s-.47-.486-.616-.8-.22-.66-.22-1.043c0-.512.126-.944.378-1.3s.644-.616 1.176-.788c-.424-.177-.74-.427-.95-.75-.21-.324-.316-.714-.316-1.17 0-.328.067-.634.2-.918.136-.284.322-.53.563-.74.24-.21.527-.375.86-.493.335-.117.702-.177 1.103-.177s.768.06 1.102.177c.334.118.62.282.86.492.24.21.427.457.562.74.134.285.2.59.2.92 0 .455-.105.845-.317 1.17-.213.322-.528.572-.948.75.532.17.924.434 1.176.788.253.354.378.787.378 1.3 0 .383-.072.73-.22 1.043s-.35.578-.614.798-.58.39-.95.51c-.372.12-.783.18-1.23.18zm0-1.158c.244 0 .458-.035.643-.105.184-.07.338-.166.465-.29.125-.124.22-.272.285-.444.063-.172.096-.357.096-.56 0-.475-.132-.835-.395-1.08s-.628-.364-1.092-.364-.828.12-1.092.365-.395.603-.395 1.08c0 .2.032.386.096.558.065.172.16.32.286.443.127.126.28.223.465.292.184.07.398.105.642.105zm0-4.008c.24 0 .44-.04.605-.115.164-.075.297-.177.396-.303s.17-.27.213-.433.063-.33.063-.5c0-.165-.026-.32-.078-.47s-.13-.28-.234-.393c-.104-.114-.235-.205-.396-.273s-.35-.102-.57-.102c-.22 0-.41.033-.57.102s-.293.16-.398.273c-.106.113-.184.244-.234.393-.05.148-.074.305-.074.47 0 .17.02.337.063.5s.112.306.212.432.232.228.396.303c.163.076.364.114.604.114zM280.883 270.61c0 .757-.082 1.413-.244 1.972-.163.558-.387 1.02-.673 1.383-.285.363-.623.635-1.014.813s-.81.268-1.264.268c-.452 0-.87-.09-1.257-.268-.387-.178-.722-.45-1.006-.813-.283-.364-.506-.825-.666-1.383-.16-.56-.24-1.215-.24-1.97 0-.762.08-1.42.24-1.976s.384-1.016.667-1.38c.284-.364.62-.636 1.006-.813.386-.178.805-.267 1.256-.267.452 0 .872.09 1.263.267s.73.45 1.014.813c.286.364.51.823.672 1.38s.243 1.215.243 1.975zm-1.53 0c0-.628-.046-1.147-.138-1.56-.093-.412-.216-.74-.37-.984-.153-.244-.33-.414-.53-.513-.2-.1-.408-.147-.625-.147-.21 0-.416.05-.614.147s-.373.27-.524.513c-.152.244-.273.572-.363.984s-.136.932-.136 1.56.045 1.148.135 1.56c.09.412.21.74.362.984.15.244.326.416.524.514s.403.146.614.146c.217 0 .425-.05.625-.146.2-.098.377-.27.53-.514.154-.244.277-.572.37-.983.092-.41.137-.932.137-1.56zM285.652 268.373c0 .328-.055.623-.165.888s-.257.49-.44.676c-.185.186-.398.33-.643.43-.244.1-.498.15-.762.15-.29 0-.555-.05-.8-.15-.243-.1-.454-.244-.632-.43s-.316-.41-.417-.675c-.1-.264-.15-.56-.15-.887 0-.336.05-.64.15-.912.1-.27.24-.5.417-.69s.39-.332.633-.434.51-.153.8-.153c.286 0 .554.052.8.153s.46.246.64.435.32.42.42.69.15.577.15.913zm2.886-1.866c.052-.06.112-.114.183-.162s.17-.07.298-.07h1.08l-6.443 8.452c-.053.064-.114.117-.186.16-.073.04-.16.062-.266.062H282.1l6.438-8.443zm-4.026 1.866c0-.232-.022-.426-.068-.582-.047-.155-.108-.28-.186-.378-.078-.096-.17-.164-.277-.207-.104-.04-.218-.063-.337-.063-.12 0-.232.02-.336.063-.104.043-.193.11-.268.207-.075.097-.134.223-.178.38s-.066.35-.066.58c0 .225.022.41.066.562s.103.27.177.363.162.158.267.197c.104.04.215.06.336.06.12 0 .232-.02.338-.06.107-.04.2-.105.278-.197.077-.092.14-.213.186-.363.045-.15.068-.337.068-.56zm6.043 4.535c0 .328-.056.625-.166.89-.11.263-.258.487-.44.674-.186.187-.398.33-.643.433-.244.102-.498.152-.763.152-.288 0-.554-.05-.798-.152-.244-.103-.455-.246-.633-.433s-.317-.41-.417-.675c-.1-.264-.15-.56-.15-.89 0-.335.05-.64.15-.91.1-.272.24-.503.417-.69s.39-.333.633-.436c.244-.1.51-.15.798-.15s.556.05.802.15c.246.104.457.25.635.437.18.188.32.418.422.69.1.272.153.575.153.91zm-1.147 0c0-.23-.02-.426-.066-.582-.044-.155-.104-.28-.183-.377-.08-.098-.17-.167-.277-.208-.105-.043-.22-.063-.34-.063s-.23.02-.335.062c-.104.04-.194.11-.27.207-.076.095-.136.22-.177.376-.042.156-.062.35-.062.582 0 .225.02.412.063.564.042.152.102.273.177.366.076.092.166.157.27.198.105.04.217.06.337.06s.233-.02.34-.06c.105-.04.197-.106.275-.198.077-.093.138-.214.182-.366.045-.152.066-.34.066-.564z"/></g><g fill="#4DAF4E"><path d="M228.64 133.59h1.757v-5.06c0-.195.006-.4.018-.617l-1.248 1.044c-.072.056-.143.09-.213.105-.07.014-.137.015-.198.003-.062-.012-.116-.033-.165-.063-.047-.03-.083-.063-.106-.1l-.47-.64 2.647-2.25h1.22v7.577h1.56v1.11h-4.8v-1.11zM234.704 133.883c0-.124.022-.242.07-.354.044-.113.107-.21.187-.29s.178-.143.29-.19c.11-.05.23-.073.358-.073.13 0 .248.024.357.072.11.047.206.11.288.19s.147.177.195.29.07.23.07.353c0 .128-.022.247-.07.357s-.113.205-.195.285-.178.143-.288.19c-.11.045-.23.068-.357.068-.127 0-.248-.023-.36-.07s-.207-.108-.287-.188-.143-.175-.187-.285c-.046-.11-.07-.23-.07-.357zM240.17 129.173l-.16.192s-.098.122-.146.186c.168-.083.35-.15.543-.197.194-.048.405-.072.633-.072.328 0 .647.055.957.163.31.108.584.27.82.49.235.217.426.488.57.812.143.324.215.702.215 1.134 0 .403-.074.782-.223 1.136-.148.354-.356.663-.624.927s-.592.472-.97.624c-.378.152-.794.228-1.25.228-.464 0-.88-.074-1.25-.222-.366-.148-.68-.355-.94-.62s-.46-.587-.598-.96c-.137-.375-.207-.79-.207-1.246 0-.408.085-.827.25-1.257s.423-.877.772-1.34l2.07-2.78c.07-.095.177-.177.315-.245.137-.068.297-.102.477-.102h1.32l-2.574 3.15zm-1.207 2.802c0 .24.033.46.1.657.066.198.164.367.294.507s.29.248.483.326c.19.078.414.117.666.117.236 0 .453-.04.65-.12.198-.08.368-.192.51-.336.143-.144.254-.313.334-.507.08-.194.12-.405.12-.633 0-.248-.038-.47-.114-.67-.076-.197-.184-.365-.324-.503s-.31-.243-.504-.315c-.196-.073-.412-.11-.648-.11s-.45.04-.642.12-.356.192-.492.334-.242.31-.317.504c-.078.194-.117.403-.117.627zM247.604 125.927c.4 0 .762.057 1.083.17.32.115.597.273.825.475s.402.44.525.71c.12.273.183.567.183.883 0 .276-.03.52-.093.73-.063.21-.152.392-.27.548-.12.156-.263.288-.434.396-.17.107-.362.197-.578.27.52.163.908.413 1.164.75s.383.757.383 1.265c0 .432-.08.814-.24 1.146-.16.334-.376.612-.647.838-.272.226-.588.397-.945.513-.356.117-.735.175-1.136.175-.437 0-.816-.05-1.14-.15-.325-.1-.606-.248-.847-.444-.24-.195-.443-.435-.61-.72-.17-.283-.314-.61-.434-.983l.653-.27c.173-.072.334-.09.484-.057.15.034.258.115.326.243.072.14.15.278.237.414.086.136.188.257.31.363s.26.192.422.258.355.1.58.1c.252 0 .47-.042.66-.124s.344-.19.47-.32c.126-.133.22-.28.282-.442s.094-.325.094-.49c0-.207-.02-.396-.065-.566-.045-.17-.137-.315-.276-.435-.14-.12-.342-.213-.604-.28-.262-.07-.613-.103-1.053-.103v-1.056c.363-.003.666-.037.905-.1.24-.065.43-.154.573-.268.144-.114.24-.25.298-.41.057-.16.084-.337.084-.53 0-.407-.113-.717-.342-.93s-.532-.317-.912-.317c-.176 0-.338.025-.486.075-.147.05-.28.12-.398.21s-.217.195-.297.315c-.08.12-.14.252-.18.396-.068.185-.158.307-.268.367-.11.06-.267.074-.466.042l-.78-.14c.06-.415.176-.78.35-1.094.17-.314.386-.576.644-.786s.554-.368.888-.474.694-.16 1.078-.16zM255.428 128.123c0 .328-.055.624-.165.888s-.257.49-.44.676c-.185.186-.398.33-.643.43s-.498.15-.762.15c-.29 0-.555-.05-.8-.15s-.454-.244-.632-.43-.316-.41-.417-.675c-.1-.263-.15-.56-.15-.887 0-.336.05-.64.15-.912.1-.27.238-.5.416-.69.178-.187.39-.332.633-.434.243-.102.51-.153.798-.153.287 0 .555.05.8.153.247.102.46.247.64.435.18.19.32.42.42.69s.15.577.15.913zm2.885-1.866c.052-.06.112-.114.183-.162s.17-.072.297-.072h1.08l-6.443 8.454c-.053.064-.114.117-.186.16-.072.04-.16.062-.265.062h-1.105l6.438-8.443zm-4.026 1.866c0-.232-.022-.426-.068-.582-.048-.155-.11-.28-.187-.377-.078-.096-.17-.165-.277-.207-.105-.042-.22-.063-.338-.063-.12 0-.232.02-.336.063-.104.042-.193.11-.268.207-.074.096-.133.222-.177.378-.044.157-.066.35-.066.583 0 .224.023.41.067.56s.103.272.177.364c.074.092.163.158.268.198.104.04.215.06.336.06.12 0 .232-.02.338-.06.106-.04.2-.106.277-.198.077-.092.14-.213.186-.363.045-.15.067-.337.067-.56zm6.043 4.536c0 .327-.056.623-.166.887-.11.264-.257.49-.44.675-.185.186-.397.33-.642.432s-.498.153-.763.153c-.29 0-.555-.05-.8-.153s-.454-.246-.632-.432-.317-.41-.417-.675c-.1-.264-.15-.56-.15-.888 0-.337.05-.64.15-.913.1-.272.24-.502.418-.69s.39-.333.633-.435.51-.153.8-.153.555.05.8.152.458.247.636.435c.18.188.318.418.42.69.102.272.154.576.154.912zm-1.146 0c0-.233-.02-.427-.066-.583-.044-.156-.104-.282-.183-.378s-.17-.166-.276-.208c-.106-.042-.22-.063-.34-.063s-.23.02-.336.062-.194.11-.27.207c-.076.095-.136.22-.177.377-.043.156-.063.35-.063.582 0 .223.02.41.063.563.04.152.1.274.176.366.076.09.166.157.27.197s.217.06.337.06.233-.02.34-.06c.105-.04.197-.106.275-.198.078-.093.14-.215.183-.367.044-.152.066-.34.066-.564z"/></g><g fill="#4DAF4E"><path d="M139.632 113.255h1.758v-5.058c0-.196.006-.402.018-.618l-1.248 1.043c-.072.056-.143.09-.213.105-.07.014-.136.015-.198.003-.063-.01-.118-.032-.166-.062-.048-.03-.084-.063-.108-.1l-.468-.64 2.646-2.25h1.218v7.577h1.56v1.11h-4.8v-1.11zM145.698 113.55c0-.125.023-.243.07-.355s.108-.208.188-.288.176-.144.288-.192c.112-.048.232-.072.36-.072s.247.024.357.072c.11.048.207.112.29.192s.146.176.194.288c.048.112.072.23.072.354 0 .127-.024.246-.072.356-.048.11-.113.205-.195.285s-.18.144-.29.19c-.11.046-.228.07-.356.07s-.248-.024-.36-.07-.208-.11-.288-.19-.143-.174-.19-.284-.068-.23-.068-.357zM154.583 105.69v.64c0 .193-.02.348-.06.466-.04.118-.08.217-.12.297l-3.288 6.768c-.068.14-.164.26-.288.358s-.29.147-.498.147h-1.075l3.354-6.63c.07-.136.144-.26.218-.375.074-.114.157-.223.25-.327h-4.147c-.09 0-.17-.034-.24-.102-.067-.067-.1-.147-.1-.24v-1h5.993zM161.543 105.69v.64c0 .193-.02.348-.06.466-.04.118-.08.217-.12.297l-3.288 6.768c-.068.14-.164.26-.288.358s-.29.147-.498.147h-1.075l3.354-6.63c.07-.136.144-.26.218-.375.074-.114.157-.223.25-.327h-4.147c-.09 0-.17-.034-.24-.102-.067-.067-.1-.147-.1-.24v-1h5.993zM166.422 107.79c0 .327-.055.623-.165.887-.11.264-.257.49-.44.675-.185.186-.4.33-.643.43-.244.1-.498.15-.762.15-.288 0-.554-.05-.798-.15-.244-.1-.455-.244-.633-.43-.177-.186-.316-.41-.416-.675-.1-.264-.15-.56-.15-.888 0-.337.05-.64.15-.913.1-.272.24-.502.417-.69.18-.188.39-.333.634-.435.244-.102.51-.153.798-.153s.555.05.8.152c.247.102.46.247.64.435s.32.418.42.69.15.576.15.912zm2.886-1.867c.052-.06.113-.114.183-.162.07-.047.17-.07.298-.07h1.08l-6.444 8.453c-.052.064-.114.117-.186.16-.072.04-.16.062-.264.062h-1.104l6.438-8.442zm-4.026 1.866c0-.233-.023-.427-.07-.583-.045-.156-.107-.282-.185-.378-.078-.097-.17-.166-.276-.208s-.218-.063-.338-.063-.232.02-.336.062-.193.11-.267.207c-.075.095-.134.22-.178.377-.044.156-.066.35-.066.582 0 .223.022.41.066.56.044.15.103.27.177.363.073.092.162.158.266.198s.216.06.336.06.233-.02.34-.06.197-.105.275-.197c.078-.092.14-.213.186-.363.046-.15.07-.337.07-.56zm6.042 4.535c0 .328-.055.624-.165.888-.11.264-.258.49-.442.675-.184.186-.398.33-.642.432s-.498.153-.762.153c-.288 0-.554-.05-.798-.153s-.455-.246-.633-.432-.317-.41-.417-.675c-.1-.264-.15-.56-.15-.888 0-.336.05-.64.15-.912.1-.272.24-.502.417-.69.178-.188.39-.333.633-.435s.51-.153.798-.153c.288 0 .555.05.8.153s.46.247.637.435c.18.188.32.418.42.69.102.272.154.576.154.912zm-1.146 0c0-.232-.022-.426-.066-.582-.044-.156-.105-.282-.183-.378s-.17-.165-.277-.207c-.106-.042-.22-.063-.34-.063-.12 0-.23.02-.335.063s-.194.11-.27.207c-.076.096-.135.222-.177.378-.04.156-.062.35-.062.582 0 .224.02.412.063.564.043.15.102.273.178.365.076.092.166.158.27.198s.216.06.336.06c.12 0 .233-.02.34-.06.105-.04.197-.106.275-.198.077-.092.138-.214.182-.366.044-.153.066-.34.066-.565z"/></g><g fill="#007BC3"><path d="M270.88 279.677c.4 0 .76.058 1.083.17.322.115.598.272.825.476.228.2.403.438.524.71.123.272.184.566.184.882 0 .277-.03.52-.094.73-.062.21-.15.393-.27.55-.117.154-.262.286-.432.395s-.363.198-.58.27c.522.165.908.415 1.165.75.256.337.384.76.384 1.267 0 .432-.08.814-.24 1.146-.16.333-.377.61-.65.837-.27.227-.585.397-.943.514-.358.115-.737.174-1.138.174-.437 0-.816-.05-1.14-.15-.324-.1-.606-.248-.847-.443-.24-.196-.444-.437-.612-.72-.167-.284-.31-.612-.43-.985l.653-.27c.172-.072.332-.09.482-.057.15.033.26.115.327.242.072.14.15.28.237.414.085.136.188.257.308.362.12.106.262.192.424.258.162.066.354.1.578.1.252 0 .473-.04.66-.123s.346-.19.47-.32c.128-.133.222-.28.283-.44s.093-.326.093-.49c0-.208-.02-.397-.065-.567s-.135-.314-.275-.435c-.14-.12-.34-.214-.603-.282-.263-.068-.613-.102-1.054-.102v-1.056c.364-.004.666-.037.906-.102s.432-.153.573-.268c.142-.113.24-.25.297-.41s.084-.336.084-.528c0-.408-.114-.718-.342-.93-.228-.212-.532-.318-.912-.318-.177 0-.338.024-.485.075-.15.05-.282.12-.4.21-.118.09-.218.194-.298.315-.08.12-.14.252-.18.396-.068.185-.156.306-.267.366-.11.06-.265.074-.465.04l-.78-.136c.06-.416.176-.78.348-1.096s.387-.576.646-.786c.258-.21.554-.368.888-.474s.694-.16 1.078-.16zM279.796 285.18h1.092v.857c0 .08-.026.148-.077.207-.052.058-.126.086-.222.086h-.792v2.12h-1.29v-2.12h-3.66c-.1 0-.188-.03-.264-.092-.076-.063-.124-.14-.145-.23l-.156-.75 4.112-5.49h1.403v5.41zm-1.29-2.84c0-.268.018-.56.055-.88l-2.694 3.72h2.64v-2.84z"/></g><g fill="#007BC3"><path d="M227.346 221.057c.4 0 .766.06 1.098.178.332.117.615.285.852.5.236.217.42.477.553.78.13.305.196.643.196 1.015 0 .32-.047.615-.14.888s-.222.532-.38.78c-.157.248-.342.488-.555.72-.21.23-.433.468-.665.708l-1.96 1.998c.19-.057.38-.1.565-.13.186-.03.363-.044.53-.044h2.228c.16 0 .286.045.38.135.095.09.142.21.142.357v.888h-5.952v-.492c0-.1.02-.204.063-.315.042-.11.11-.21.202-.297l2.633-2.64c.22-.224.418-.438.592-.642.174-.204.318-.406.435-.606s.205-.403.267-.608c.062-.207.093-.424.093-.65 0-.21-.03-.393-.09-.55-.06-.158-.146-.29-.256-.4-.11-.106-.242-.188-.396-.24-.153-.056-.326-.083-.518-.083-.177 0-.34.025-.49.075-.15.05-.282.12-.398.21-.115.09-.214.195-.294.315s-.14.252-.18.396c-.068.185-.156.307-.265.366-.107.06-.264.073-.467.04l-.78-.137c.06-.416.175-.78.348-1.095.172-.314.387-.576.646-.787.258-.208.553-.366.887-.472.332-.108.69-.16 1.076-.16zM234.22 229.926c-.446 0-.855-.06-1.226-.18s-.688-.29-.95-.512c-.265-.22-.47-.485-.616-.797-.146-.313-.22-.66-.22-1.045 0-.512.128-.944.38-1.3.252-.353.643-.616 1.176-.788-.424-.176-.742-.426-.95-.75-.212-.324-.316-.713-.316-1.17 0-.328.067-.634.2-.918.135-.283.322-.53.563-.74.24-.21.527-.375.86-.492.335-.118.702-.178 1.102-.178.4 0 .768.06 1.102.178.334.117.62.28.86.492.24.21.428.457.562.74.135.284.2.59.2.918 0 .457-.104.846-.317 1.17-.213.324-.528.574-.948.75.53.172.924.436 1.176.79.252.353.378.786.378 1.298 0 .385-.073.732-.22 1.045-.146.312-.35.578-.614.797-.265.22-.58.39-.95.51s-.783.182-1.23.182zm0-1.158c.245 0 .46-.035.644-.105s.34-.167.465-.29.22-.272.284-.444.096-.36.096-.56c0-.477-.132-.836-.396-1.08-.264-.244-.627-.365-1.092-.365-.463 0-.828.12-1.092.365s-.396.604-.396 1.08c0 .2.032.387.096.56s.16.318.285.442.28.22.465.29.397.106.64.106zm0-4.008c.24 0 .443-.04.607-.115.164-.075.296-.176.396-.303.1-.125.172-.27.213-.432.043-.162.063-.33.063-.5 0-.165-.027-.32-.078-.47-.053-.147-.13-.278-.234-.392-.104-.115-.236-.205-.396-.273s-.35-.102-.57-.102c-.22 0-.41.033-.57.102-.16.068-.293.158-.398.273-.105.113-.184.244-.234.393-.05.15-.074.305-.074.47 0 .17.02.338.063.5.042.162.112.307.212.432.1.127.232.228.396.303.16.076.363.115.603.115z"/></g><path fill="#007BC3" d="M244.01 148.41c-.45 0-.857-.06-1.228-.18s-.687-.29-.95-.51c-.265-.22-.47-.485-.615-.797-.146-.312-.22-.66-.22-1.044 0-.513.126-.946.378-1.3s.645-.617 1.176-.79c-.423-.175-.74-.425-.95-.75-.21-.323-.314-.713-.314-1.17 0-.327.066-.633.2-.917.135-.284.32-.53.562-.74s.527-.375.86-.493c.335-.118.702-.177 1.103-.177.4 0 .768.06 1.102.177.334.118.62.282.86.492.24.21.428.457.562.74.134.285.2.59.2.92 0 .455-.105.845-.316 1.17-.213.323-.53.573-.95.75.533.17.925.434 1.177.788.253.354.38.787.38 1.3 0 .383-.074.73-.22 1.043-.146.312-.352.578-.615.798-.264.22-.58.39-.95.51s-.783.18-1.23.18zm0-1.158c.244 0 .457-.035.642-.105s.34-.167.465-.29.222-.273.285-.445.096-.358.096-.558c0-.476-.132-.836-.396-1.08s-.63-.366-1.092-.366c-.465 0-.828.122-1.092.366-.265.244-.396.604-.396 1.08 0 .2.03.386.096.558s.16.32.285.444.28.22.465.29.398.106.642.106zm0-4.007c.24 0 .44-.038.605-.114.164-.075.296-.176.396-.302.1-.126.17-.27.214-.432.04-.162.063-.33.063-.5 0-.165-.025-.32-.078-.47-.053-.147-.13-.278-.235-.392-.104-.114-.235-.205-.396-.273-.16-.067-.352-.1-.57-.1-.22 0-.41.033-.57.1-.16.07-.293.16-.398.274-.107.114-.185.245-.234.393-.05.148-.075.304-.075.468 0 .172.02.34.063.5.04.163.112.307.213.433.1.126.23.227.395.303.162.077.365.115.605.115zM157.518 118.185c0 .212-.066.384-.198.516-.132.133-.356.2-.672.2h-2.382l-.312 1.81c.392-.08.748-.12 1.068-.12.456 0 .858.07 1.206.205.348.136.64.324.876.564.236.24.414.52.534.842.12.322.18.67.18 1.04 0 .46-.08.88-.243 1.26-.162.38-.387.706-.675.976s-.63.48-1.023.627-.823.222-1.287.222c-.272 0-.53-.028-.774-.084-.244-.056-.473-.13-.687-.225-.215-.094-.413-.202-.595-.324s-.345-.25-.49-.387l.457-.63c.096-.136.222-.204.378-.204.1 0 .202.032.306.096s.223.133.357.21c.134.075.292.145.474.21.182.063.4.095.657.095.272 0 .512-.044.72-.132s.38-.21.52-.37c.137-.157.24-.345.31-.563.07-.218.106-.455.106-.71 0-.473-.137-.842-.41-1.108s-.68-.4-1.216-.4c-.412 0-.834.077-1.266.23l-.924-.265.72-4.212h4.284v.63zM171 220.522c.4 0 .76.058 1.082.17.322.115.597.272.825.476.228.2.403.438.525.71.122.272.183.566.183.882 0 .277-.03.52-.093.73s-.152.393-.27.55c-.118.154-.262.286-.432.395-.17.108-.363.198-.58.27.52.165.91.415 1.165.75.256.337.384.76.384 1.267 0 .432-.08.814-.24 1.146-.16.333-.377.61-.65.837-.27.227-.586.397-.944.514-.358.114-.737.173-1.137.173-.437 0-.817-.05-1.14-.15-.325-.1-.607-.248-.847-.443-.24-.196-.444-.437-.612-.72-.167-.284-.31-.612-.43-.985l.653-.27c.172-.072.333-.09.483-.057.15.033.26.115.327.242.072.14.15.28.237.414.086.137.19.258.31.363.12.106.26.192.422.258.162.066.355.1.58.1.25 0 .47-.04.66-.123s.344-.19.47-.32.22-.28.282-.44.093-.326.093-.49c0-.208-.022-.397-.066-.567-.043-.17-.135-.314-.275-.435-.14-.12-.34-.214-.603-.282-.262-.068-.613-.102-1.053-.102v-1.057c.363-.005.665-.038.905-.103.24-.064.43-.153.573-.268.142-.114.24-.25.297-.41s.084-.337.084-.53c0-.407-.115-.717-.343-.93-.228-.21-.532-.317-.912-.317-.176 0-.338.024-.486.075-.15.05-.282.12-.4.21-.118.09-.217.194-.297.315-.08.12-.14.252-.18.396-.068.184-.157.305-.267.365-.11.06-.265.074-.465.04l-.78-.136c.06-.417.177-.782.35-1.097.17-.314.386-.576.644-.786.258-.21.554-.368.888-.474s.693-.16 1.077-.16z"/><g fill="#007BC3"><path d="M85.602 183.625h1.758v-5.058c0-.196.006-.402.018-.618l-1.248 1.043c-.072.056-.143.09-.213.105-.07.014-.136.015-.198.003-.063-.01-.118-.032-.166-.062-.048-.03-.084-.063-.108-.1l-.468-.64 2.646-2.25h1.218v7.577h1.56v1.11h-4.8v-1.11zM96.713 181.465h1.092v.858c0 .08-.026.15-.078.207-.052.058-.126.087-.222.087h-.792v2.118h-1.29v-2.118h-3.66c-.1 0-.188-.03-.264-.093-.077-.062-.125-.14-.145-.23l-.156-.75 4.11-5.49h1.403v5.41zm-1.29-2.838c0-.268.018-.562.054-.882l-2.694 3.72h2.64v-2.838z"/></g><g fill="#007BC3"><path d="M101.26 269.195c.4 0 .766.06 1.098.176.332.12.616.286.852.503.236.216.42.476.552.78.132.304.198.642.198 1.014 0 .32-.047.616-.14.888-.095.27-.22.532-.38.78-.157.248-.342.487-.554.72s-.434.47-.666.708l-1.962 1.998c.192-.055.38-.098.567-.128s.363-.045.53-.045h2.227c.16 0 .287.045.38.135.095.09.142.21.142.356v.89h-5.952v-.493c0-.1.02-.205.063-.314.042-.11.11-.208.2-.296l2.635-2.64c.22-.225.417-.44.59-.644.175-.203.32-.405.436-.605.116-.2.205-.402.267-.61.062-.204.093-.42.093-.65 0-.207-.03-.39-.09-.548s-.145-.29-.255-.4-.24-.187-.395-.242c-.154-.054-.327-.08-.52-.08-.175 0-.338.024-.488.074-.15.05-.283.12-.4.21-.115.09-.213.194-.293.314-.08.12-.14.252-.18.396-.068.184-.156.305-.264.365s-.264.074-.468.042l-.78-.138c.06-.417.176-.782.348-1.097.172-.313.387-.576.645-.785.258-.21.554-.368.888-.475.334-.105.693-.158 1.077-.158zM108.262 269.195c.4 0 .76.057 1.083.17.322.115.597.272.825.475s.403.44.525.71.183.567.183.883c0 .276-.03.52-.093.73-.062.208-.152.392-.27.548-.118.157-.262.29-.432.397-.17.107-.363.197-.58.27.52.164.91.414 1.165.75.256.336.384.758.384 1.266 0 .432-.08.814-.24 1.146-.16.33-.376.61-.648.836s-.587.397-.945.513c-.36.115-.738.173-1.138.173-.436 0-.816-.05-1.14-.15-.324-.1-.606-.247-.846-.443-.24-.195-.444-.436-.612-.72s-.312-.612-.432-.984l.654-.27c.172-.072.333-.09.483-.058.15.034.258.115.326.243.072.14.15.28.237.415.086.136.19.257.31.363.12.106.26.192.422.258s.355.1.58.1c.25 0 .47-.042.66-.124s.344-.188.47-.32c.126-.133.22-.28.282-.44s.093-.325.093-.49c0-.208-.022-.396-.066-.566-.044-.17-.136-.315-.276-.435s-.34-.214-.603-.282c-.262-.067-.613-.102-1.053-.102V273c.364-.005.666-.038.906-.103.24-.063.43-.152.573-.267s.242-.25.298-.41.084-.337.084-.528c0-.408-.114-.72-.342-.93s-.532-.318-.912-.318c-.176 0-.338.024-.486.074-.148.05-.28.12-.4.21-.117.09-.216.195-.296.315-.08.12-.14.252-.18.396-.068.183-.157.304-.267.364-.11.06-.266.074-.466.042l-.78-.138c.06-.416.176-.78.348-1.096.172-.313.387-.576.645-.785.258-.21.554-.368.888-.475.334-.104.693-.157 1.077-.157z"/></g><g fill="#58595B"><path d="M145.69 90.544h1.576c.164 0 .3.04.41.116.11.077.183.18.22.312l1.723 6.055c.037.15.073.312.107.487.035.175.07.36.11.556.036-.196.077-.38.122-.556.043-.175.09-.337.142-.487l1.988-6.055c.037-.107.11-.206.22-.294.11-.09.244-.133.403-.133h.553c.164 0 .296.04.4.12.102.078.18.18.23.307l1.98 6.055c.1.29.188.623.267 1 .06-.368.128-.7.203-1l1.722-6.055c.028-.117.1-.217.213-.3s.252-.127.41-.127h1.478l-3.143 10.122h-1.7l-2.213-6.916c-.033-.087-.063-.183-.09-.286-.03-.103-.057-.21-.085-.322-.023.112-.05.22-.08.322-.03.103-.06.2-.088.287l-2.234 6.917h-1.708l-3.137-10.123zM163.303 100.667h-1.89V90.544h1.89v10.123z"/></g><g fill="#58595B"><path d="M241.748 118.57c.067.16.134.323.2.486.064-.172.132-.34.202-.5s.145-.316.224-.465l2.99-5.606c.036-.07.076-.126.118-.168s.088-.073.137-.09.103-.03.163-.036c.06-.004.133-.007.217-.007h1.42v10.122h-1.657v-6.538c0-.12.003-.254.01-.4.008-.144.018-.29.032-.44l-3.06 5.74c-.145.275-.366.413-.665.413h-.266c-.3 0-.52-.138-.665-.413l-3.095-5.76c.014.153.025.303.035.45.01.148.014.284.014.41v6.538h-1.66v-10.122h1.422c.084 0 .156.002.217.007.06.005.116.017.165.035s.093.05.133.09.08.1.116.17l3.03 5.62c.08.15.154.304.222.465zM251.564 122.305h-1.89v-10.122h1.89v10.122z"/></g></svg>