<svg xmlns="http://www.w3.org/2000/svg" width="540.775" height="243.078" viewBox="0 0 540.775 243.078"><style>text, tspan { font-family: &apos;Lato&apos;; } .heavy { font-weight: 700; }</style><path stroke="#E0E1E0" stroke-width=".75" stroke-linejoin="round" stroke-miterlimit="10" d="M23.007 8.567H538.66M23.007 44.835H538.66M23.007 81.105H538.66M23.007 117.372H538.66M23.007 189.91H538.66M23.007 225.74H538.66" fill="none"/><path fill="#21B573" d="M496.768 216.88h18.993v-63.238H496.77v63.238zm-47.482-22.32h18.993v-40.918h-18.994v40.92zm-46.426-21.39h18.992v-19.528H402.86v19.53zm-93.908-38.128h18.992v18.6h-18.992v-18.6zm-46.427-16.74h18.992v35.34h-18.992v-35.34zm-47.48-16.74h18.992v52.08h-18.993v-52.08zm-46.428-15.808h18.993v67.888h-18.993V85.754zm-46.426-13.95h17.94v81.838h-17.94V71.805zm-47.48-14.88H93.7v96.718H74.71V56.925zM28.282 42.977h18.993v110.666H28.283V42.976z"/><path fill="#065296" d="M515.76 175.03h17.94v-21.39h-17.94v21.39zm-47.48-9.3h18.99v-12.09h-18.99v12.09zm-46.427-7.44h17.938v-4.648h-17.937v4.65zm-93.91-8.368h18.994v3.72h-18.993v-3.72zm-46.425-1.86h17.938v5.58h-17.938v-5.58zm-47.48-.93h18.992v6.51h-18.993v-6.51zm-46.428.93h17.938v5.58H187.61v-5.58zm-47.482.93h18.993v4.65H140.13v-4.65zm-46.426 1.86h18.993v2.79H93.702v-2.79zm-46.427 1.86h17.938v.93H47.275v-.93z"/><path stroke="#E0E1E0" stroke-linejoin="round" stroke-miterlimit="10" fill="none" d="M23.344 153.467H538.66"/><text transform="translate(29.263 36.381)" fill="#808285" class="heavy" font-size="8">6.1%</text><text transform="translate(76.234 50.105)" fill="#808285" class="heavy" font-size="8">5.3%</text><text transform="translate(123.081 64.41)" fill="#808285" class="heavy" font-size="8">4.5%</text><text transform="translate(169.928 79.047)" fill="#808285" class="heavy" font-size="8">3.7%</text><text transform="translate(216.774 94.58)" fill="#808285" class="heavy" font-size="8">2.9%</text><text transform="translate(263.622 110.965)" fill="#808285" class="heavy" font-size="8">2.0%</text><text transform="translate(310.344 128.246)" fill="#808285" class="heavy" font-size="8">1.0%</text><text transform="translate(400.756 187.517)" fill="#808285" class="heavy" font-size="8">-1.1%</text><text transform="translate(447.603 208.586)" fill="#808285" class="heavy" font-size="8">-2.3%</text><text transform="translate(495.45 227.418)" fill="#808285" class="heavy" font-size="8">-3.5%</text><text transform="translate(48.002 146.244)" fill="#808285" class="heavy" font-size="8">0.0%</text><text transform="translate(94.848 143.862)" fill="#808285" class="heavy" font-size="8">0.1%</text><text transform="translate(141.695 142.21)" fill="#808285" class="heavy" font-size="8">0.2%</text><text transform="translate(188.542 140.828)" fill="#808285" class="heavy" font-size="8">0.3%</text><text transform="translate(235.389 140.466)" fill="#808285" class="heavy" font-size="8">0.3%</text><text transform="translate(282.236 141.407)" fill="#808285" class="heavy" font-size="8">0.3%</text><text transform="translate(329.083 143.344)" fill="#808285" class="heavy" font-size="8">0.2%</text><text transform="translate(420.69 150.694)" fill="#808285" class="heavy" font-size="8">-0.3%</text><text transform="translate(466.341 150.5)" fill="#808285" class="heavy" font-size="8">-0.7%</text><text transform="translate(513.188 150.236)" fill="#808285" class="heavy" font-size="8">-1.2%</text><text transform="translate(0 224.459)" fill="#4E4E4E" font-size="10">-4</text><text transform="translate(0 188.323)" fill="#4E4E4E" font-size="10">-2</text><text transform="translate(3.715 152.186)" fill="#4E4E4E" font-size="10">0</text><text transform="translate(3.715 116.05)" fill="#4E4E4E" font-size="10">2</text><text transform="translate(3.715 79.914)" fill="#4E4E4E" font-size="10">4</text><text transform="translate(3.715 43.778)" fill="#4E4E4E" font-size="10">6</text><text transform="translate(3.715 7.642)" fill="#4E4E4E" font-size="10">8%</text><text transform="translate(41.938 242.238)" fill="#4E4E4E" font-size="10">0%</text><text transform="translate(88.988 242.238)" fill="#4E4E4E" font-size="10">5%</text><text transform="translate(126.773 242.238)" fill="#4E4E4E" font-size="10">10%</text><text transform="translate(173.62 242.238)" fill="#4E4E4E" font-size="10">15%</text><text transform="translate(220.722 242.238)" fill="#4E4E4E" font-size="10">20%</text><text transform="translate(267.569 242.238)" fill="#4E4E4E" font-size="10">25%</text><text transform="translate(314.416 242.238)" fill="#4E4E4E" font-size="10">30%</text><text transform="translate(361.263 242.238)" fill="#4E4E4E" font-size="10">35%</text><text transform="translate(408.109 242.238)" fill="#4E4E4E" font-size="10">40%</text><text transform="translate(454.957 242.238)" fill="#4E4E4E" font-size="10">45%</text><text transform="translate(501.804 242.238)" fill="#4E4E4E" font-size="10">50%</text><text transform="translate(392.534 36.77)" fill="#21B573" class="heavy" font-size="12">Percent Change in GDP</text><text transform="translate(392.534 22.373)" fill="#065296" class="heavy" font-size="12">Percent Change in Revenue</text><text transform="translate(401.453 114.536)"><tspan x="0" y="0" fill="#808285" class="heavy" font-size="8">The current federal</tspan><tspan x="0" y="9.6" fill="#808285" class="heavy" font-size="8">corporate tax rate</tspan><tspan x="0" y="19.2" fill="#808285" class="heavy" font-size="8">is 35 percent.</tspan></text><path stroke="#999" stroke-width=".75" stroke-linejoin="round" d="M371.08 143.507c1.464-25.655 7.052-30.302 27.037-30.51" fill="none"/><path fill="#999" d="M374.38 142.778l-3.513 5.3-2.834-5.69z"/></svg>