<svg xmlns="http://www.w3.org/2000/svg" width="364.812" height="347.125" viewBox="0 0 364.812 347.125"><style>text, tspan { font-family: &apos;Lato&apos;; } .heavy { font-weight: 700; }</style><path stroke="#E6E6E6" stroke-width=".75" stroke-linejoin="round" stroke-miterlimit="10" d="M28.418 10.11h334.686M28.418 65.753h334.686m-334.686 55.64h334.686M28.418 232.676h334.686m-334.686 56.85h334.686M28.418 344.84h334.686" fill="none"/><path fill="#903750" d="M70.254 177.034h83.67V330.65h-83.67z"/><path fill="#034360" d="M237.597 80.267h83.67v96.767h-83.67z"/><path fill="#05AFBE" d="M237.597 34.303h83.67v45.964h-83.67z"/><path fill="#FFCB07" d="M237.597 31.884h83.67v2.42h-83.67z"/><path fill="#D94B51" d="M237.597 29.465h83.67v2.42h-83.67z"/><path fill="#36B885" d="M237.597 24.626h83.67v4.838h-83.67z"/><path stroke="#9B9B9B" stroke-linejoin="round" stroke-miterlimit="10" fill="none" d="M28.54 177.477h334.564"/><text transform="translate(1.573 343.679)" fill="#4E4E4E" font-size="10">-300</text><text transform="translate(1.573 287.891)" fill="#4E4E4E" font-size="10">-200</text><text transform="translate(1.573 232.102)" fill="#4E4E4E" font-size="10">-100</text><text transform="translate(16.888 177.314)" fill="#4E4E4E" font-size="10">0</text><text transform="translate(5.288 120.526)" fill="#4E4E4E" font-size="10">100</text><text transform="translate(5.288 64.738)" fill="#4E4E4E" font-size="10">200</text><text transform="translate(-.512 8.949)" fill="#4E4E4E" font-size="10">$300</text><text transform="translate(52.35 165.634)" fill="#4E4E4E" font-size="10">Corporate Tax Revenue Lost</text><text transform="translate(216.783 197.635)" fill="#4E4E4E" font-size="10">Total Federal Revenue Gained</text><text transform="translate(158.093 272.028)" fill="#903750" class="heavy" font-size="8">Corporate Taxes</text><text transform="translate(181.063 139.737)" fill="#183C4F" class="heavy" font-size="8">Income Taxes</text><text transform="translate(181.063 60.11)" fill="#35A7B2" class="heavy" font-size="8">Payroll Taxes</text><text transform="translate(181.063 38.605)" fill="#EDC950" class="heavy" font-size="8">Excise Taxes</text><text transform="translate(181.063 29.997)" fill="#CC333F" class="heavy" font-size="8">Estate Taxes</text><text transform="translate(181.063 21.388)" fill="#21B573" class="heavy" font-size="8">Other Taxes</text><text transform="translate(78.897 342.841)" fill="#808285" class="heavy" font-size="10">-$273.5 Billion</text><text transform="translate(248.46 19.388)" fill="#808285" class="heavy" font-size="10">$273.9 Billion</text></svg>