<svg xmlns="http://www.w3.org/2000/svg" width="538.498" height="236.5" viewBox="0 0 538.498 236.5"><style>text, tspan { font-family: &apos;Lato&apos;; } .heavy { font-weight: 700; }</style><text transform="translate(390.315 25.611)" fill="#CF7178" class="heavy" font-size="12">Percent Change in Revenue</text><text transform="translate(346.968 155.15)"><tspan x="0" y="0" fill="#808285" class="heavy" font-size="8">The current individual</tspan><tspan x="0" y="9.6" fill="#808285" class="heavy" font-size="8">tax rate is 39.6 percent.</tspan></text><path stroke="#E0E1E0" stroke-width=".75" stroke-linejoin="round" stroke-miterlimit="10" d="M45.525 13.657h491.723M45.525 39.397h491.723M45.525 66.206h491.723M45.525 118.762h491.723M45.525 145.574h491.723m-491.723 25.74h491.723M45.525 198.125h491.723m-491.723 25.74h491.723" fill="none"/><path fill="#6CACDE" d="M498.428 119.833h14.02V91.95h-14.02v27.883zm-48.526-7.507h14.02V91.95H449.9v20.376zM400.3 105.89h14.018V91.95h-14.02v13.94zm-48.527-6.434h14.02V91.95h-14.02v7.506zM302.17 91.95h14.02v1.07h-14.02v-1.07zm-49.604-5.364h15.097v5.363h-15.097v-5.364zm-48.525-8.58h14.02V91.95h-14.02V78.005zM154.44 67.28h14.02V91.95h-14.02V67.28zm-48.526-21.448h14.02V91.95h-14.02V45.83zM56.31 23.31h14.018v68.64h-14.02V23.31z"/><path fill="#CF7178" d="M512.446 65.136h14.02v26.812h-14.02V65.136zM463.92 71.57h14.02V91.95h-14.02V71.57zm-49.603 5.364h14.02V91.95h-14.02V76.933zm-48.525 7.507h14.02v7.51h-14.02v-7.51zm-49.604 6.436h14.02v1.072h-14.02v-1.072zm-48.525 8.58h14.02V91.95h-14.02v7.506zM218.06 110.18h14.02V91.95h-14.02v18.23zm-49.604 16.088h14.02v-34.32h-14.02v34.32zm-48.525 33.248h14.02V91.95h-14.02v67.566zM70.328 195.98h14.018V91.95H70.327v104.03z"/><path stroke="#999" stroke-linejoin="round" stroke-miterlimit="10" fill="none" d="M45.957 92.367H537.46"/><text transform="translate(55.362 15.526)" fill="#808285" class="heavy" font-size="8">5.2%</text><text transform="translate(104.513 37.94)" fill="#808285" class="heavy" font-size="8">3.5%</text><text transform="translate(153.664 59.181)" fill="#808285" class="heavy" font-size="8">1.9%</text><text transform="translate(202.814 70.208)" fill="#808285" class="heavy" font-size="8">1.1%</text><text transform="translate(251.964 78.452)" fill="#808285" class="heavy" font-size="8">0.4%</text><text transform="translate(348.54 115.835)" fill="#808285" class="heavy" font-size="8">-0.5%</text><text transform="translate(397.69 122.352)" fill="#808285" class="heavy" font-size="8">-1.0%</text><text transform="translate(446.841 129.258)" fill="#808285" class="heavy" font-size="8">-1.5%</text><text transform="translate(495.991 136.3)" fill="#808285" class="heavy" font-size="8">-2.1%</text><text transform="translate(67.68 212.799)" fill="#808285" class="heavy" font-size="8">-7.9%</text><text transform="translate(116.83 176.133)" fill="#808285" class="heavy" font-size="8">-5.1%</text><text transform="translate(165.981 142.663)" fill="#808285" class="heavy" font-size="8">-2.6%</text><text transform="translate(215.132 126.948)" fill="#808285" class="heavy" font-size="8">-1.4%</text><text transform="translate(266.645 117.713)" fill="#808285" class="heavy" font-size="8">-0.5%</text><text transform="translate(364.309 76.284)" fill="#808285" class="heavy" font-size="8">0.6%</text><text transform="translate(413.459 69.304)" fill="#808285" class="heavy" font-size="8">1.1%</text><text transform="translate(462.609 63.141)" fill="#808285" class="heavy" font-size="8">1.6%</text><text transform="translate(511.761 57.428)" fill="#808285" class="heavy" font-size="8">2.0%</text><text transform="translate(0 223.514)" fill="#4E4E4E" font-size="10">-10.0</text><text transform="translate(6.254 197.144)" fill="#4E4E4E" font-size="10">-8.0</text><text transform="translate(6.254 170.772)" fill="#4E4E4E" font-size="10">-6.0</text><text transform="translate(6.254 144.398)" fill="#4E4E4E" font-size="10">-4.0</text><text transform="translate(6.254 118.028)" fill="#4E4E4E" font-size="10">-2.0</text><text transform="translate(9.705 91.656)" fill="#4E4E4E" font-size="10">0.0</text><text transform="translate(9.705 65.286)" fill="#4E4E4E" font-size="10">2.0</text><text transform="translate(9.705 38.915)" fill="#4E4E4E" font-size="10">4.0</text><text transform="translate(9.705 12.543)" fill="#4E4E4E" font-size="10">6.0%</text><text transform="translate(59.787 235.098)" fill="#4E4E4E" font-size="10">15%</text><text transform="translate(108.978 235.098)" fill="#4E4E4E" font-size="10">20%</text><text transform="translate(158.128 235.098)" fill="#4E4E4E" font-size="10">25%</text><text transform="translate(207.279 235.098)" fill="#4E4E4E" font-size="10">30%</text><text transform="translate(256.429 235.098)" fill="#4E4E4E" font-size="10">35%</text><text transform="translate(305.58 235.098)" fill="#4E4E4E" font-size="10">40%</text><text transform="translate(354.731 235.098)" fill="#4E4E4E" font-size="10">45%</text><text transform="translate(403.881 235.098)" fill="#4E4E4E" font-size="10">50%</text><text transform="translate(453.031 235.098)" fill="#4E4E4E" font-size="10">55%</text><text transform="translate(502.142 235.098)" fill="#4E4E4E" font-size="10">60%</text><text transform="translate(390.315 9.441)" fill="#6CACDE" class="heavy" font-size="12">Percent Change in GDP</text><path stroke="#999" stroke-width=".75" stroke-linejoin="round" d="M311.693 99.324c.322 14.316 4.346 55.176 31.138 53.676" fill="none"/><path fill="#999" d="M308.57 100.255l3.177-5.505 3.18 5.504z"/></svg>