<svg xmlns="http://www.w3.org/2000/svg" width="554.652" height="225.418" viewBox="0 0 554.652 225.418"><style>text, tspan { font-family: &apos;Lato&apos;; } .heavy { font-weight: 700; }</style><path stroke="#E0E1E0" stroke-width=".75" stroke-linejoin="round" stroke-miterlimit="10" d="M32.6 4.27h520.824M32.6 38.442h520.824M32.6 73.43h520.824M32.6 107.604h520.824M32.6 176.766h520.824M32.6 211.398h520.824" fill="none"/><path fill="#01A0B0" d="M508.404 200.362h16.3v-57.77h-16.3v57.77zm-58.214-17.088h16.3V142.59h-16.3v40.684zm-58.214-17.9h17.077v-22.782h-17.077v22.782zm-57.438-18.714h16.3v-4.068h-16.3v4.068zm-58.215-17.9h16.3v13.832h-16.3V128.76zm-57.437-4.07h16.3v17.9h-16.3v-17.9zM160.67 95.4h16.3v47.19h-16.3V95.4zm-58.213-28.48h17.076v75.672h-17.076v-75.67zM45.02 40.07h16.3v102.52h-16.3V40.07z"/><path fill="#183C4F" d="M524.705 174.324h16.3v-31.732h-16.3v31.732zm-58.215-9.763h17.076v-21.968H466.49v21.97zm-57.437-10.577h16.3V142.59h-16.3v11.393zm-58.215-9.764h16.3v-1.628h-16.3v1.627zm-58.214-8.138H309.7v6.51h-17.076v-6.51zm-57.438-2.44h16.3v8.95h-16.3v-8.95zm-58.215-15.46h17.077v24.41H176.97v-24.41zm-57.437-14.646h16.3v39.056h-16.3v-39.056zM61.32 91.33h16.3v51.262h-16.3v-51.26z"/><path stroke="#999" stroke-width=".75" stroke-linejoin="round" d="M334.132 136.727c1.465-25.655 7.053-30.302 27.038-30.51" fill="none"/><path fill="#999" d="M337.432 135.998l-3.512 5.3-2.834-5.692z"/><path stroke="#999" stroke-linejoin="round" stroke-miterlimit="10" fill="none" d="M32.36 142.355h521.258"/><text transform="translate(42.209 34.069)" fill="#808285" class="heavy" font-size="8">5.92%</text><text transform="translate(100.127 60.823)" fill="#808285" class="heavy" font-size="8">4.37%</text><text transform="translate(158.044 89.131)" fill="#808285" class="heavy" font-size="8">2.73%</text><text transform="translate(215.803 118.302)" fill="#808285" class="heavy" font-size="8">1.04%</text><text transform="translate(273.721 122.617)" fill="#808285" class="heavy" font-size="8">0.79%</text><text transform="translate(322.896 162.241)" fill="#808285" class="heavy" font-size="8">-0.24%</text><text transform="translate(386.315 174.579)" fill="#808285" class="heavy" font-size="8">-1.31%</text><text transform="translate(443.565 194.048)" fill="#808285" class="heavy" font-size="8">-2.38%</text><text transform="translate(501.483 210.137)" fill="#808285" class="heavy" font-size="8">-3.37%</text><text transform="translate(63.757 85.506)" fill="#808285" class="heavy" font-size="8">2.94%</text><text transform="translate(121.675 97.589)" fill="#808285" class="heavy" font-size="8">2.24%</text><text transform="translate(179.433 111.742)" fill="#808285" class="heavy" font-size="8">1.42%</text><text transform="translate(237.351 127.45)" fill="#808285" class="heavy" font-size="8">0.51%</text><text transform="translate(295.269 129.693)" fill="#808285" class="heavy" font-size="8">0.38%</text><text transform="translate(351.277 158.237)" fill="#808285" class="heavy" font-size="8">-0.11%</text><text transform="translate(410.361 166.878)" fill="#808285" class="heavy" font-size="8">-0.69%</text><text transform="translate(467.279 174.324)" fill="#808285" class="heavy" font-size="8">-1.30%</text><text transform="translate(525.864 187.245)" fill="#808285" class="heavy" font-size="8">-1.87%</text><text transform="translate(0 214.653)" fill="#4E4E4E" font-size="10">-4</text><text transform="translate(0 180.132)" fill="#4E4E4E" font-size="10">-2</text><text transform="translate(2.484 145.61)" fill="#4E4E4E" font-size="10">0</text><text transform="translate(2.484 111.088)" fill="#4E4E4E" font-size="10">2</text><text transform="translate(2.484 76.566)" fill="#4E4E4E" font-size="10">4</text><text transform="translate(2.484 42.045)" fill="#4E4E4E" font-size="10">6</text><text transform="translate(2.484 7.523)" fill="#4E4E4E" font-size="10">8%</text><text transform="translate(55.835 224.96)" fill="#4E4E4E" font-size="10">0%</text><text transform="translate(113.945 224.96)" fill="#4E4E4E" font-size="10">5%</text><text transform="translate(169.419 224.96)" fill="#4E4E4E" font-size="10">10%</text><text transform="translate(227.337 224.96)" fill="#4E4E4E" font-size="10">15%</text><text transform="translate(285.255 224.96)" fill="#4E4E4E" font-size="10">20%</text><text transform="translate(343.172 224.96)" fill="#4E4E4E" font-size="10">25%</text><text transform="translate(401.09 224.96)" fill="#4E4E4E" font-size="10">30%</text><text transform="translate(459.008 224.96)" fill="#4E4E4E" font-size="10">35%</text><text transform="translate(516.925 224.96)" fill="#4E4E4E" font-size="10">40%</text><text transform="translate(403.753 17.017)" fill="#01A0B0" class="heavy" font-size="12">Percent Change in GDP</text><text transform="translate(403.753 30.261)" fill="#183C4F" class="heavy" font-size="12">Percent Change in Revenue</text><text transform="translate(364.344 86.84)"><tspan x="0" y="0" fill="#808285" class="heavy" font-size="8">The current top</tspan><tspan x="0" y="9.6" fill="#808285" class="heavy" font-size="8">capital gains and</tspan><tspan x="0" y="19.2" fill="#808285" class="heavy" font-size="8">dividend tax rate</tspan><tspan x="0" y="28.8" fill="#808285" class="heavy" font-size="8">is 23.8 percent.</tspan></text></svg>