<svg xmlns="http://www.w3.org/2000/svg" width="369.833" height="360.167" viewBox="0 0 369.833 360.167"><style>text, tspan { font-family: &apos;Lato&apos;; } .heavy { font-weight: 700; }</style><path stroke="#CDCCCC" stroke-width=".75" stroke-linejoin="round" stroke-miterlimit="10" d="M23.692 9.124h340.976M23.692 63.68h340.976M23.692 117.343h340.976M23.692 171.9h340.976M23.692 226.458h340.976M23.692 280.12h340.976" fill="none"/><path fill-rule="evenodd" clip-rule="evenodd" fill="#36699A" d="M55.17 45.246h50.324v289.4H55.17z"/><path fill-rule="evenodd" clip-rule="evenodd" fill="#58B78D" d="M168.903 92.312h50.325v242.335h-50.325z"/><path fill-rule="evenodd" clip-rule="evenodd" fill="#CC333F" d="M282.638 82.762h50.324v251.885h-50.324z"/><path stroke="#999" stroke-linejoin="round" stroke-miterlimit="10" fill="none" d="M23.463 334.647h341.204"/><text transform="translate(67.576 38.36)" fill="#808285" class="heavy" font-size="8">5.33%</text><text transform="translate(181.318 85.425)" fill="#808285" class="heavy" font-size="8">4.47%</text><text transform="translate(295.052 75.876)" fill="#808285" class="heavy" font-size="8">4.64%</text><text transform="translate(1.587 333.584)" fill="#4E4E4E" font-size="10">0</text><text transform="translate(1.587 279.33)" fill="#4E4E4E" font-size="10">1</text><text transform="translate(1.587 225.076)" fill="#4E4E4E" font-size="10">2</text><text transform="translate(1.587 170.821)" fill="#4E4E4E" font-size="10">3</text><text transform="translate(1.587 116.567)" fill="#4E4E4E" font-size="10">4</text><text transform="translate(1.587 62.313)" fill="#4E4E4E" font-size="10">5</text><text transform="translate(1.587 8.06)" fill="#4E4E4E" font-size="10">6%</text><text transform="translate(70.538 351.044)" fill="#4E4E4E" font-size="10">GDP</text><text transform="translate(171.81 351.044)" fill="#4E4E4E" font-size="10">Wage Rate</text><text transform="translate(273.436 351.044)" fill="#4E4E4E" font-size="10">Federal Revenue</text></svg>