<svg xmlns="http://www.w3.org/2000/svg" width="544.416" height="242.481" viewBox="0 0 544.416 242.481"><style>text, tspan { font-family: &apos;Lato&apos;; } .heavy { font-weight: 700; }</style><path fill="none" d="M376.38 78.943h140.78v14H376.38z"/><text transform="translate(376.379 85.662)" fill="#666766" class="heavy" font-size="9">Increase of $2.5 trillion</text><path stroke="#CDCCCC" stroke-width=".75" stroke-linejoin="round" stroke-miterlimit="10" d="M28.37 10.08h504.047M28.37 40.78h504.047M28.37 71.48h504.047M28.37 101.22h504.047M28.37 131.92h504.047M28.37 162.618h504.047m-504.047 30.7h504.047" fill="none"/><path stroke="#9B9B9B" stroke-linejoin="round" stroke-miterlimit="10" fill="none" d="M28.517 223.5h503.9M532.417 220.183v6.516m-34.033-6.517v6.516m-33.11-6.517v6.516m-34.034-6.517v6.516m-33.114-6.517v6.516m-34.03-6.517v6.516m-33.114-6.517v6.516m-34.033-6.517v6.516m-33.114-6.517v6.516m-34.032-6.517v6.516m-33.113-6.517v6.516m-34.03-6.517v6.516m-33.113-6.517v6.516m-34.033-6.517v6.516M62.4 220.182v6.516m-34.03-6.517v6.516"/><path stroke="#065296" stroke-width="2.25" stroke-linecap="round" stroke-linejoin="round" stroke-miterlimit="10" d="M498.384 85.87l34.032-7.675m-67.143 15.35l33.11-7.675m-67.143 14.39l34.033-6.715m-67.147 13.432l33.113-6.716m-67.145 13.43l34.03-6.714m-67.143 13.43l33.113-6.715m-67.146 13.432l34.032-6.715m-67.146 13.43l33.112-6.715m-67.144 13.432l34.032-6.716m-67.145 14.39l33.114-7.674m-67.145 14.39l34.032-6.716m-67.145 13.432l33.112-6.715m-67.146 15.35l34.033-8.635M62.4 179.887l33.113-9.593m-67.143 17.27l34.032-7.678" fill="none"/><path stroke="#26B463" stroke-width="2.25" stroke-linecap="square" stroke-linejoin="round" stroke-miterlimit="10" stroke-dasharray="1,4" d="M498.384 44.618l34.032-7.676m-67.143 16.31l33.11-8.634M431.24 60.926l34.033-7.675M398.126 68.6l33.113-7.674m-67.145 15.35l34.03-7.675m-67.143 19.19l33.113-11.514M296.95 98.342L330.98 87.79m-67.146 22.064l33.112-11.512m-67.144 22.065l34.032-10.553M196.69 130.96l33.114-10.553m-67.145 21.106l34.032-10.553m-67.145 21.107l33.112-10.555M95.513 163.58l34.033-11.513M62.4 177.01l33.113-13.43M28.37 187.562l34.032-10.554" fill="none"/><text transform="translate(7.331 223.388)" fill="#4E4E4E" font-size="12">15</text><text transform="translate(7.331 192.898)" fill="#4E4E4E" font-size="12">17</text><text transform="translate(7.331 162.409)" fill="#4E4E4E" font-size="12">19</text><text transform="translate(7.331 131.921)" fill="#4E4E4E" font-size="12">21</text><text transform="translate(7.331 101.433)" fill="#4E4E4E" font-size="12">23</text><text transform="translate(7.331 70.943)" fill="#4E4E4E" font-size="12">25</text><text transform="translate(7.331 40.454)" fill="#4E4E4E" font-size="12">27</text><text transform="translate(.371 9.966)" fill="#4E4E4E" font-size="12">$29</text><text transform="translate(15.605 241.465)" fill="#4E4E4E" font-size="11">2014</text><text transform="translate(49.199 241.465)" fill="#4E4E4E" font-size="11">2015</text><text transform="translate(82.79 241.465)" fill="#4E4E4E" font-size="11">2016</text><text transform="translate(116.679 241.465)" fill="#4E4E4E" font-size="11">2017</text><text transform="translate(149.519 241.465)" fill="#4E4E4E" font-size="11">2018</text><text transform="translate(183.112 241.465)" fill="#4E4E4E" font-size="11">2019</text><text transform="translate(217.165 241.465)" fill="#4E4E4E" font-size="11">2020</text><text transform="translate(251.052 241.465)" fill="#4E4E4E" font-size="11">2021</text><text transform="translate(284.645 241.465)" fill="#4E4E4E" font-size="11">2022</text><text transform="translate(317.946 241.465)" fill="#4E4E4E" font-size="11">2023</text><text transform="translate(351.538 241.465)" fill="#4E4E4E" font-size="11">2024</text><text transform="translate(385.131 241.465)" fill="#4E4E4E" font-size="11">2025</text><text transform="translate(418.725 241.465)" fill="#4E4E4E" font-size="11">2026</text><text transform="translate(452.614 241.465)" fill="#4E4E4E" font-size="11">2027</text><text transform="translate(485.452 241.465)" fill="#4E4E4E" font-size="11">2028</text><text transform="translate(519.043 241.465)" fill="#4E4E4E" font-size="11">2029</text><text transform="translate(139.763 88.353)" fill="#21B573" class="heavy" font-size="12">Real GDP after Tax Reform</text><text transform="translate(269.235 145.946)" fill="#065296" class="heavy" font-size="12">Projected Real GDP (2014 to 2029)</text><path stroke="#21B573" stroke-width="2.25" stroke-linecap="square" stroke-linejoin="round" fill="none" d="M366.174 108.77l.527-21.917"/><path fill="#21B573" d="M372.16 88.593l-5.27-9.65-5.723 9.386z"/></svg>