<svg xmlns="http://www.w3.org/2000/svg" width="599.333" height="362.667" viewBox="0 0 599.333 362.667"><path fill="#CC333F" d="M592.526 101.596H8.14L24.035 56.19 8.14 10.787h584.386L575.764 56.19"/><path fill="#183C4F" d="M578.133 110.873h-555.6L41.345 56.19 22.533 1.51h555.6l-19.408 54.68"/><path d="M58.653 46.486V14.85h8.572c3.45 0 6.015.69 7.695 2.07 1.68 1.38 2.52 3.34 2.52 5.874 0 .885-.166 1.74-.495 2.565-.33.823-.795 1.573-1.395 2.25-.6.673-1.324 1.25-2.17 1.73-.85.48-1.797.81-2.847.99 1.305.135 2.47.41 3.5.82 1.026.414 1.896.946 2.61 1.6.71.65 1.255 1.424 1.63 2.316.375.893.562 1.887.562 2.98 0 1.35-.233 2.547-.698 3.59-.465 1.043-1.144 1.924-2.036 2.644-.89.72-1.982 1.27-3.272 1.644s-2.76.562-4.41.562h-9.764zm1.237-16.493h7.493c1.59 0 2.943-.213 4.06-.64 1.118-.428 2.034-.983 2.746-1.666.71-.682 1.23-1.447 1.55-2.295.323-.847.484-1.684.484-2.51 0-2.264-.74-4.004-2.216-5.22-1.48-1.214-3.74-1.822-6.785-1.822H59.89v14.153zm0 .945v14.535h8.528c2.955 0 5.223-.633 6.806-1.9 1.582-1.27 2.374-3.117 2.374-5.547 0-1.095-.214-2.078-.64-2.948-.43-.87-1.036-1.612-1.824-2.227-.787-.613-1.748-1.085-2.88-1.416-1.133-.33-2.404-.495-3.813-.495h-8.55zm39.735 14.828c1.635 0 3.094-.29 4.376-.866 1.285-.577 2.37-1.37 3.265-2.374.892-1.005 1.575-2.186 2.047-3.544.474-1.357.71-2.816.71-4.376V14.85h1.26v19.756c0 1.71-.27 3.31-.81 4.804-.54 1.493-1.316 2.794-2.33 3.904-1.01 1.11-2.234 1.984-3.666 2.62-1.433.638-3.05.957-4.85.957s-3.42-.317-4.86-.954-2.662-1.51-3.666-2.62c-1.005-1.11-1.778-2.412-2.318-3.905-.54-1.492-.81-3.093-.81-4.803V14.85h1.238v19.71c0 1.56.236 3.023.708 4.388.473 1.365 1.155 2.554 2.048 3.566.892 1.012 1.983 1.808 3.273 2.385 1.29.576 2.752.865 4.387.865zm37.845-27.63c-.09.15-.218.225-.382.225-.166 0-.394-.144-.687-.437s-.7-.62-1.224-.98c-.525-.36-1.2-.685-2.025-.978-.824-.292-1.844-.438-3.06-.438-1.23 0-2.32.184-3.273.55-.953.368-1.75.867-2.396 1.497-.645.63-1.132 1.354-1.462 2.17-.33.82-.495 1.677-.495 2.577 0 1.156.232 2.12.697 2.89.464.775 1.08 1.423 1.844 1.948.765.525 1.63.968 2.6 1.328.966.36 1.96.71 2.98 1.046 1.02.338 2.014.698 2.98 1.08.97.383 1.835.867 2.6 1.452s1.38 1.31 1.845 2.17c.463.864.695 1.933.695 3.208 0 1.305-.22 2.53-.664 3.68s-1.087 2.144-1.934 2.992c-.848.847-1.882 1.515-3.105 2.002-1.222.487-2.613.73-4.173.73-1.065 0-2.03-.094-2.89-.28-.864-.188-1.66-.458-2.386-.81-.727-.353-1.394-.784-2-1.294-.608-.51-1.19-1.087-1.745-1.732l.292-.45c.075-.075.14-.13.19-.17.053-.036.132-.055.237-.055.104 0 .25.094.438.28.188.19.43.42.73.7.3.277.66.577 1.08.9.42.322.92.622 1.497.9.576.277 1.244.51 2 .697.758.188 1.617.28 2.577.28 1.365 0 2.588-.213 3.667-.64 1.08-.428 1.99-1.013 2.734-1.756s1.308-1.61 1.698-2.6c.39-.99.585-2.046.585-3.17 0-1.2-.23-2.19-.696-2.97-.465-.78-1.077-1.433-1.834-1.96-.757-.524-1.624-.962-2.6-1.315-.974-.352-1.968-.69-2.98-1.012-1.012-.322-2.006-.675-2.98-1.058-.977-.383-1.843-.87-2.6-1.463-.758-.592-1.37-1.328-1.834-2.205-.465-.877-.697-1.976-.697-3.296 0-1.035.194-2.025.585-2.97.39-.945.956-1.78 1.7-2.51.74-.727 1.656-1.308 2.744-1.743 1.087-.435 2.335-.653 3.746-.653 1.59 0 2.996.255 4.22.765 1.22.51 2.365 1.305 3.43 2.385l-.267.496zm11.834 28.35h-1.237V14.85h1.237v31.636zm12.51-31.58c.075.04.157.117.248.237l21.6 29.227c-.015-.135-.023-.27-.023-.405V14.85h1.08v31.636h-.52c-.195 0-.36-.09-.495-.27l-21.712-29.34c.015.15.026.292.034.427.007.135.01.263.01.383v28.8h-1.08V14.85h.563c.12 0 .22.02.294.057zm53.234-.056v1.058H197.61v14.018h14.692v1.035H197.61v14.47h17.482l-.045 1.058h-18.675V14.85h18.676zm24.052 3.286c-.09.15-.217.225-.38.225-.167 0-.395-.144-.688-.437-.293-.293-.7-.62-1.226-.98s-1.2-.685-2.025-.978c-.823-.292-1.843-.438-3.06-.438-1.23 0-2.32.184-3.272.55-.953.368-1.75.867-2.396 1.497-.645.63-1.132 1.354-1.462 2.17-.33.82-.495 1.677-.495 2.577 0 1.156.232 2.12.697 2.89.465.775 1.08 1.423 1.845 1.948.765.525 1.63.968 2.6 1.328.966.36 1.96.71 2.98 1.046 1.02.338 2.014.698 2.98 1.08.97.383 1.835.867 2.6 1.452.765.585 1.38 1.31 1.845 2.17.465.864.697 1.933.697 3.208 0 1.305-.22 2.53-.665 3.68-.443 1.147-1.088 2.144-1.935 2.992-.848.847-1.882 1.515-3.105 2.002-1.223.487-2.614.73-4.174.73-1.065 0-2.03-.094-2.89-.28-.864-.188-1.66-.458-2.386-.81-.728-.353-1.395-.784-2.002-1.294-.606-.51-1.188-1.087-1.743-1.732l.29-.45c.075-.075.14-.13.19-.17.053-.036.13-.055.237-.055.104 0 .25.094.438.28.188.19.43.42.73.7.3.277.66.577 1.08.9.42.322.92.622 1.497.9.578.277 1.246.51 2.003.697.757.188 1.616.28 2.576.28 1.365 0 2.588-.213 3.667-.64 1.08-.428 1.99-1.013 2.734-1.756.744-.743 1.31-1.61 1.7-2.6.39-.99.585-2.046.585-3.17 0-1.2-.232-2.19-.697-2.97-.465-.78-1.077-1.433-1.834-1.96-.757-.524-1.624-.962-2.6-1.315-.974-.352-1.968-.69-2.98-1.012-1.012-.322-2.006-.675-2.98-1.058-.977-.383-1.843-.87-2.6-1.463-.758-.592-1.37-1.328-1.834-2.205-.466-.877-.698-1.976-.698-3.296 0-1.035.194-2.025.585-2.97.39-.945.956-1.78 1.7-2.51.74-.727 1.656-1.308 2.744-1.743 1.09-.435 2.338-.653 3.75-.653 1.59 0 2.995.255 4.22.765 1.22.51 2.364 1.305 3.43 2.385l-.268.496zm25.538 0c-.09.15-.218.225-.382.225-.166 0-.394-.144-.687-.437s-.703-.62-1.228-.98-1.2-.685-2.025-.978c-.825-.292-1.845-.438-3.06-.438-1.23 0-2.32.184-3.274.55-.953.368-1.75.867-2.396 1.497-.646.63-1.133 1.354-1.463 2.17-.33.82-.495 1.677-.495 2.577 0 1.156.23 2.12.696 2.89.465.775 1.08 1.423 1.845 1.948.766.525 1.63.968 2.6 1.328.967.36 1.96.71 2.98 1.046 1.02.338 2.015.698 2.98 1.08.97.383 1.836.867 2.6 1.452s1.38 1.31 1.846 2.17c.465.864.697 1.933.697 3.208 0 1.305-.22 2.53-.664 3.68s-1.09 2.144-1.936 2.992c-.848.847-1.882 1.515-3.105 2.002-1.224.487-2.615.73-4.175.73-1.065 0-2.03-.094-2.89-.28-.864-.188-1.66-.458-2.386-.81-.73-.353-1.396-.784-2.003-1.294-.607-.51-1.19-1.087-1.744-1.732l.292-.45c.075-.075.14-.13.19-.17.053-.036.132-.055.237-.055.104 0 .25.094.438.28.19.19.432.42.732.7.3.277.66.577 1.08.9.42.322.918.622 1.496.9.577.277 1.245.51 2.002.697.757.188 1.616.28 2.576.28 1.365 0 2.588-.213 3.667-.64 1.08-.428 1.99-1.013 2.734-1.756s1.31-1.61 1.7-2.6c.39-.99.584-2.046.584-3.17 0-1.2-.23-2.19-.695-2.97-.465-.78-1.077-1.433-1.834-1.96-.756-.524-1.623-.962-2.6-1.315-.973-.352-1.967-.69-2.98-1.012-1.01-.322-2.005-.675-2.98-1.058-.976-.383-1.842-.87-2.6-1.463-.757-.592-1.37-1.328-1.833-2.205-.465-.877-.697-1.976-.697-3.296 0-1.035.193-2.025.584-2.97.39-.945.956-1.78 1.7-2.51.74-.727 1.656-1.308 2.744-1.743 1.088-.435 2.336-.653 3.747-.653 1.59 0 2.996.255 4.22.765 1.22.51 2.365 1.305 3.43 2.385l-.267.496zm26.032 28.35h-1.237V14.85h1.237v31.636zm12.51-31.58c.072.04.156.117.246.237l21.6 29.227c-.016-.135-.02-.27-.02-.405V14.85h1.08v31.636h-.52c-.194 0-.358-.09-.494-.27l-21.713-29.34c.015.15.022.292.03.427.01.135.013.263.013.383v28.8h-1.08V14.85h.562c.12 0 .217.02.293.057zm70.47 31.58h-.97c-.225 0-.39-.127-.493-.382L368.07 36.09h-16.245l-4.117 10.014c-.074.255-.246.382-.52.382h-.92l13.095-31.635h1.19l13.097 31.637zm-21.42-11.34h15.435l-7.244-17.618c-.072-.21-.152-.42-.234-.63s-.162-.442-.236-.698c-.075.255-.155.488-.237.698s-.16.42-.235.63l-7.248 17.618zm44.257 4.14c.06-.135.12-.273.18-.416s.127-.29.203-.44l13.32-23.286c.072-.12.15-.2.234-.236.082-.038.184-.056.303-.056h.742v31.635h-1.08V17.214s.01-.24.02-.36L397.138 40.12c-.148.254-.33.382-.54.382h-.226c-.223 0-.41-.127-.56-.383l-13.68-23.31c.016.12.024.242.032.37.01.13.013.25.013.37v28.936h-1.08V14.85h.742c.12 0 .224.02.306.057.083.037.16.116.236.236l13.726 23.31.384.833zM441.8 14.85v1.058h-17.44v14.018h14.694v1.035H424.36v14.47h17.483l-.045 1.058h-18.674V14.85H441.8zm10.35 16.74v14.896h-1.235V14.85h7.627c3.436 0 6.045.668 7.83 2.003s2.678 3.36 2.678 6.075c0 1.245-.232 2.378-.697 3.397-.465 1.02-1.12 1.9-1.96 2.644-.84.74-1.858 1.33-3.058 1.764-1.2.435-2.527.697-3.982.788.27.15.53.375.787.675l11.768 14.288h-1.014c-.164 0-.31-.022-.438-.067-.13-.046-.252-.15-.37-.316l-11.16-13.658c-.122-.165-.245-.3-.372-.405-.13-.105-.27-.19-.428-.26-.158-.067-.346-.115-.563-.145-.22-.03-.484-.045-.8-.045h-4.612zm0-.944h6.03c1.484 0 2.822-.176 4.018-.53 1.193-.352 2.205-.86 3.037-1.53.832-.666 1.47-1.473 1.91-2.417.443-.947.664-2.01.664-3.197 0-2.444-.797-4.245-2.387-5.4-1.59-1.155-3.885-1.732-6.885-1.732h-6.392v14.805h.003zm28.483 15.84H479.4V14.85h1.233v31.636zm34.81-4.703c.06 0 .142.038.247.113l.473.495c-.66.663-1.373 1.266-2.137 1.814-.768.548-1.605 1.016-2.52 1.406-.915.39-1.917.693-3.005.91-1.086.217-2.28.326-3.586.326-2.146 0-4.12-.378-5.93-1.136-1.81-.757-3.363-1.837-4.668-3.24-1.307-1.402-2.326-3.1-3.063-5.096-.734-1.995-1.102-4.23-1.102-6.705 0-2.417.368-4.618 1.103-6.606.734-1.987 1.773-3.69 3.117-5.107 1.34-1.417 2.946-2.516 4.813-3.296 1.867-.78 3.926-1.17 6.176-1.17 2.113 0 3.99.324 5.623.97s3.158 1.574 4.568 2.79l-.337.494c-.06.105-.18.158-.36.158-.09 0-.243-.083-.46-.248-.22-.165-.504-.37-.855-.62-.355-.247-.782-.517-1.284-.81s-1.092-.56-1.766-.81c-.676-.247-1.44-.453-2.295-.618s-1.8-.248-2.836-.248c-2.04 0-3.915.352-5.626 1.057-1.71.705-3.18 1.71-4.41 3.015-1.23 1.305-2.185 2.892-2.866 4.76-.684 1.867-1.025 3.963-1.025 6.288 0 2.37.343 4.49 1.024 6.356.682 1.868 1.63 3.45 2.846 4.748 1.215 1.298 2.646 2.292 4.297 2.98 1.652.69 3.443 1.036 5.377 1.036 1.22 0 2.305-.083 3.266-.248.96-.165 1.842-.413 2.643-.743.803-.33 1.545-.736 2.23-1.216.68-.48 1.36-1.026 2.036-1.642.1-.104.197-.157.29-.157zm32.24 4.703h-.968c-.225 0-.39-.127-.494-.382l-4.117-10.013H525.86l-4.117 10.015c-.076.255-.248.382-.52.382h-.924l13.096-31.635h1.19l13.095 31.636zm-21.42-11.34H541.7l-7.244-17.618c-.076-.21-.154-.42-.236-.63-.084-.21-.162-.442-.236-.698-.076.255-.154.488-.236.698-.084.21-.162.42-.236.63l-7.25 17.618zM226.728 73.667v20.22h-2.19v-20.22h2.19zm-1.38.81v18.57h.57v-18.57h-.57zm10.382-.81v18.03h4.59v2.19h-6.75v-20.22h2.16zm-.812.81h-.54v18.57h5.13v-.51h-4.59v-18.06zm14.25-.81v18.03h4.59v2.19h-6.75v-20.22h2.16zm-.81.81h-.54v18.57h5.13v-.51h-4.59v-18.06zm20.972 14.28c0 3.15-1.71 5.31-5.01 5.31-3.272 0-4.95-2.16-4.98-5.31v-15.12h2.22v14.97c0 1.86.87 3.27 2.76 3.27 1.92 0 2.79-1.41 2.79-3.27v-14.97h2.22v15.12zm-9.122 0c0 2.64 1.38 4.47 4.11 4.47 2.73 0 4.17-1.83 4.17-4.47v-14.28h-.54v14.13c0 2.34-1.14 4.11-3.63 4.11-2.46 0-3.6-1.77-3.6-4.11v-14.13h-.51v14.28zm20.55-5.76c1.95 1.74 3.9 3.54 3.9 6.03 0 3.18-1.56 5.04-4.8 5.04-3.75 0-4.71-2.46-4.71-7.08h2.19c0 2.79.3 4.89 2.52 4.89 1.74 0 2.61-1.08 2.61-2.82 0-1.59-1.592-3.09-2.852-4.14l.03.03c-2.01-1.44-4.32-3.78-4.32-6.54 0-2.79 1.77-4.95 4.68-4.95 4.05 0 4.47 3.03 4.47 6.81h-2.19c0-2.34-.148-4.62-2.278-4.62-1.65 0-2.49 1.32-2.49 2.91 0 1.65 1.62 3.03 3.24 4.47v-.03zm-4.8 4.83c0 3.3.87 5.4 3.9 5.4 2.7 0 3.99-1.53 3.99-4.2 0-4.38-7.17-6.39-7.17-10.47 0-2.04 1.14-3.75 3.33-3.75 2.908 0 3.09 2.58 3.118 4.65h.51c0-3.12-.63-5.19-3.63-5.19-2.4 0-3.84 1.83-3.84 4.14 0 2.43 2.13 4.53 3.99 5.88h-.03c1.41 1.17 3.18 3.09 3.18 4.77 0 2.28-1.14 3.66-3.45 3.66-2.97 0-3.33-2.85-3.33-4.89h-.568zm19.89 6.03h-2.19v-18.03h-3.36v-2.19h8.91v2.19h-3.36v18.03zm-1.38-18.84v18.03h.57v-18.03h3.36v-.54h-7.26v.54h3.33zm15.417-1.35c3.87 0 4.77 2.31 4.77 5.67 0 1.53-.27 3.33-1.38 4.44.932.87 1.262 2.37 1.262 3.72v6.39h-2.19v-6.3c0-1.86-.63-2.64-2.52-2.64h-2.07v8.938h-2.19V73.667h4.318zm3.84 13.83c0-1.59-.39-3.24-2.187-3.66 1.98-.6 2.28-2.7 2.28-4.5 0-2.85-.75-4.86-3.932-4.86h-3.51v18.57h.57v-8.94h2.88c2.52 0 3.33 1.05 3.33 3.48v5.46h.568l.002-5.55zm-3.958-12.45c2.938 0 3.51 1.74 3.51 4.29 0 2.85-.75 4.23-3.78 4.23h-2.55v-8.52h2.82zm-.27 7.68c2.37 0 2.94-1.11 2.94-3.39 0-2.07-.42-3.48-2.67-3.48h-2.01v6.87h1.74zm17.97-9.06l4.59 20.22h-2.25l-1.26-5.79h-3.84l-1.35 5.79h-2.25l4.62-20.22h1.74zm3.032 19.38h.537l-4.23-18.57h-.42l-4.26 18.57h.57l1.29-5.76h5.22l1.29 5.76zm-3.903-17.19l2.488 10.89h-4.98l2.492-10.89zm0 3.66l-1.44 6.42h2.88l-1.44-6.42zm14.13 14.34h-2.19v-18.03h-3.357v-2.19h8.91v2.19h-3.36l-.002 18.03zm-1.38-18.84v18.03h.57v-18.03h3.36v-.54h-7.26v.54h3.33zm17.49 7.71v2.19h-3.96v6.78h5.937v2.19h-8.1v-20.22h8.1v2.16h-5.94v6.9h3.962zm-5.28 10.32h6.42v-.51h-5.91v-8.46h3.96v-.51h-3.96v-8.55h5.91v-.54h-6.42v18.57zm17.88-19.38c3.66 0 5.01 2.52 5.01 5.76v8.7c0 3.27-1.32 5.76-5.01 5.76h-4.32v-20.22h4.32zm0 19.38c3.09 0 4.17-2.1 4.17-4.92v-8.7c0-2.76-1.11-4.95-4.17-4.95h-3.48v18.57h3.48zm-.21-18.03c2.85 0 3.87 1.98 3.87 4.56v8.4c0 2.58-1.02 4.56-3.87 4.56h-2.76v-17.52h2.76zm0 16.68c2.25 0 3.03-1.62 3.03-3.72v-8.4c0-2.1-.78-3.75-3.03-3.75h-1.92v15.87h1.92zM146.82 237.748l3.107-20.58h3.696l3.108 20.58h-2.94l-.56-4.2h-2.91l-.56 4.2h-2.94zm5.124-13.89l-.084-.53h-.168l-.084.53-.868 6.496h2.07l-.866-6.496zm22.54-6.69h2.94l-3.138 20.58h-3.024l-3.136-20.58h2.94l1.512 11.31.112.868h.168l.11-.868 1.515-11.313zm7.7 0h3.024v20.58h-3.023v-20.58zm13.524 5.515c0-.672-.028-1.428-.224-2.016-.196-.562-.504-.953-.98-.953-.784.03-1.036.84-1.036 2.045 0 .697.31 1.426.757 2.21s1.035 1.596 1.623 2.464c.7 1.036 1.4 2.1 1.933 3.137.534 1.036.898 2.1.898 3.22 0 1.373-.224 2.66-.867 3.61-.644.954-1.68 1.57-3.33 1.57-1.934 0-3.025-.73-3.64-1.85-.618-1.12-.758-2.603-.758-4.144l2.97-.28c0 .868.027 1.736.25 2.382.197.67.533 1.118 1.178 1.118.896 0 1.23-.95 1.23-2.27 0-.672-.335-1.455-.783-2.268-.252-.393-.504-.812-.783-1.23-.59-.842-1.232-1.793-1.904-2.83-.672-1.035-1.176-2.1-1.484-3.19-.168-.532-.252-1.092-.252-1.65 0-1.12.252-2.325.896-3.25.644-.895 1.624-1.54 3.052-1.567 1.82-.026 2.884.73 3.472 1.82.588 1.12.756 2.493.756 3.64l-2.97.28zm15.905-5.516v16.352c-.028.84-.196 1.594-.504 2.24-.254.56-.647 1.09-1.206 1.51-.56.447-1.316.7-2.324.7s-1.79-.253-2.35-.7c-.562-.42-.926-.95-1.178-1.51-.308-.647-.476-1.4-.504-2.24v-16.354h3.024v16.352c0 .587.14.98.42 1.287.14.14.336.224.588.224.532 0 .784-.336.896-.756.084-.195.112-.447.112-.756v-16.353h3.025zm4.507 20.58l3.108-20.58h3.696l3.108 20.58h-2.94l-.56-4.2h-2.912l-.56 4.2h-2.94zm5.125-13.89l-.084-.53h-.166l-.084.53-.87 6.497h2.072l-.867-6.496zm9.565-6.69h3.022v17.778h4.005v2.802h-7.028v-20.58zm23.966 7.393v-3.165c0-.56-.112-.952-.392-1.288-.14-.14-.364-.225-.616-.225-.532 0-.784.393-.896.757-.084.222-.11.474-.11.754v12.376c0 .59.14.98.42 1.29.14.14.335.223.587.223.53 0 .782-.336.894-.756.084-.195.112-.447.112-.756v-3.723h-1.204V227.5h4.23v10.248h-1.793l-.365-.98c-.56.7-1.372 1.204-2.353 1.204-.98 0-1.65-.253-2.155-.7-.504-.42-.84-.952-1.064-1.512-.252-.645-.364-1.4-.336-2.24v-12.124c.028-.812.196-1.567.504-2.212.253-.56.617-1.12 1.177-1.54.56-.42 1.345-.7 2.353-.7s1.765.28 2.325.7c.56.42.952.98 1.204 1.54.306.645.474 1.4.502 2.212v3.164h-3.027zm16.248-7.393v16.352c-.028.84-.196 1.594-.504 2.24-.252.56-.645 1.09-1.204 1.51-.56.447-1.316.7-2.324.7-1.008 0-1.792-.253-2.352-.7-.56-.42-.925-.95-1.177-1.51-.308-.647-.476-1.4-.504-2.24v-16.354h3.022v16.352c0 .587.14.98.42 1.287.14.14.336.224.588.224.533 0 .785-.336.897-.756.084-.195.112-.447.112-.756v-16.353h3.023zm5.208 0h3.023v20.58h-3.023v-20.58zm8.24 20.58v-20.58h2.38c2.8 0 4.312.56 5.124 2.128.784 1.567.896 4.145.896 8.177s-.11 6.58-.896 8.147c-.812 1.565-2.324 2.127-5.124 2.127h-2.38zm3.024-3.024c1.036 0 1.624-.112 1.933-1.12.14-.477.25-1.204.28-2.184.025-.98.025-2.3.025-3.98 0-1.68 0-2.996-.027-3.976-.03-.952-.142-1.682-.28-2.186-.31-.98-.897-1.093-1.934-1.093v14.536zm10.454-17.556h6.916v3.106h-3.894v5.404h2.8v3.304h-2.8v5.658h3.894v3.107h-6.917v-20.577zm18.392 3.107v-3.106h8.736v3.106h-2.855v17.474H319.2v-17.474h-2.858zm21.36 13.246c-.027.84-.195 1.595-.504 2.24-.252.56-.645 1.09-1.203 1.51-.562.448-1.316.7-2.324.7s-1.79-.252-2.352-.7c-.56-.42-.924-.95-1.176-1.51-.308-.646-.476-1.4-.503-2.24v-12.125c.026-.812.194-1.567.503-2.212.253-.56.616-1.12 1.177-1.54s1.346-.7 2.354-.7 1.765.28 2.325.7c.56.42.95.98 1.202 1.54.31.645.477 1.4.504 2.212v12.124zm-3.026-12.125c0-.56-.11-.952-.39-1.288-.143-.14-.366-.225-.618-.225-.53 0-.783.393-.896.757-.084.222-.11.474-.11.754v12.124c0 .587.14.98.42 1.287.14.14.336.224.588.224.53 0 .783-.336.896-.756.084-.195.112-.447.112-.756v-12.125h-.002zm15.934 16.353v-20.58h2.66c1.792 0 3.19.336 4.115 1.203.925.87 1.4 2.215 1.4 4.258 0 .98-.084 1.71-.393 2.38s-.784 1.232-1.484 1.876c.756.42 1.316 1.205 1.764 2.52.226.644.336 1.484.336 2.52 0 1.54-.278 2.913-.98 3.978-.698 1.065-1.903 1.767-3.694 1.85h-3.725v-.002zm3.023-12.098c.252 0 .84.027 1.345-.31s.896-1.007.896-2.435c0-1.43-.392-2.1-.896-2.438-.504-.336-1.093-.307-1.345-.307v5.49zm0 9.1c.252 0 .84.057 1.345-.31.504-.36.896-1.175.896-2.853 0-1.68-.392-2.492-.896-2.856s-1.093-.306-1.345-.306v6.328zm18.397-17.583v16.352c-.027.84-.195 1.594-.504 2.24-.252.56-.645 1.09-1.204 1.51-.562.447-1.315.7-2.323.7s-1.795-.253-2.355-.7c-.562-.42-.925-.95-1.177-1.51-.31-.647-.478-1.4-.505-2.24v-16.354h3.023v16.352c0 .587.14.98.42 1.287.14.14.336.224.588.224.532 0 .785-.336.896-.756.084-.195.11-.447.11-.756v-16.353h3.028zm10.5 5.516c0-.672-.027-1.428-.224-2.016-.196-.562-.505-.953-.98-.953-.784.03-1.036.84-1.036 2.045 0 .697.31 1.426.758 2.21.447.784 1.035 1.596 1.623 2.464.7 1.036 1.4 2.1 1.935 3.137.532 1.036.896 2.1.896 3.22 0 1.373-.223 2.66-.866 3.61-.645.954-1.68 1.57-3.332 1.57-1.93 0-3.022-.73-3.64-1.85-.615-1.12-.756-2.603-.756-4.144l2.97-.28c0 .868.026 1.736.25 2.382.196.67.532 1.118 1.177 1.118.897 0 1.232-.95 1.232-2.27 0-.672-.336-1.455-.784-2.268-.25-.393-.503-.812-.782-1.23-.588-.842-1.23-1.793-1.903-2.83s-1.177-2.1-1.483-3.19c-.17-.532-.254-1.092-.254-1.65 0-1.12.253-2.325.896-3.25.645-.895 1.625-1.54 3.053-1.567 1.82-.026 2.884.73 3.473 1.82.588 1.12.756 2.493.756 3.64l-2.974.28zm7.853-5.516h3.023v20.58h-3.023v-20.58zm11.432 9.855l-.252-.95h-.168v11.676h-2.77v-20.58h2.687l2.94 10.724.253.952h.168v-11.676h2.77v20.58h-2.687l-2.94-10.726zm10.863-9.855h6.916v3.106H415.7v5.404h2.802v3.304h-2.8v5.658h3.892v3.107h-6.916v-20.577zm17.086 5.516c0-.672-.027-1.428-.225-2.016-.197-.562-.506-.953-.98-.953-.785.03-1.037.84-1.037 2.045 0 .697.31 1.426.758 2.21.446.784 1.036 1.596 1.624 2.464.7 1.036 1.398 2.1 1.932 3.137.533 1.036.896 2.1.896 3.22 0 1.373-.225 2.66-.867 3.61-.645.954-1.682 1.57-3.332 1.57-1.934 0-3.023-.73-3.64-1.85-.616-1.12-.757-2.603-.757-4.144l2.967-.28c0 .868.03 1.736.254 2.382.195.67.53 1.118 1.176 1.118.896 0 1.23-.95 1.23-2.27 0-.672-.336-1.455-.783-2.268-.25-.393-.503-.812-.782-1.23-.588-.842-1.232-1.793-1.904-2.83s-1.176-2.1-1.484-3.19c-.168-.532-.252-1.092-.252-1.65 0-1.12.252-2.325.896-3.25.645-.895 1.625-1.54 3.053-1.567 1.82-.026 2.883.73 3.47 1.82.59 1.12.76 2.493.76 3.64l-2.973.28zm13.182 0c0-.672-.027-1.428-.225-2.016-.193-.562-.502-.953-.977-.953-.785.03-1.037.84-1.037 2.045 0 .697.31 1.426.758 2.21.447.784 1.035 1.596 1.623 2.464.7 1.036 1.4 2.1 1.932 3.137.532 1.036.895 2.1.895 3.22 0 1.373-.223 2.66-.867 3.61s-1.68 1.57-3.332 1.57c-1.932 0-3.023-.73-3.64-1.85-.616-1.12-.757-2.603-.757-4.144l2.97-.28c0 .868.025 1.736.25 2.382.195.67.53 1.118 1.176 1.118.896 0 1.232-.95 1.232-2.27 0-.672-.336-1.455-.785-2.268-.252-.393-.504-.812-.783-1.23-.59-.842-1.23-1.793-1.905-2.83-.672-1.035-1.176-2.1-1.482-3.19-.168-.532-.252-1.092-.252-1.65 0-1.12.254-2.325.897-3.25.645-.895 1.625-1.54 3.053-1.567 1.82-.026 2.884.73 3.472 1.82.588 1.12.756 2.493.756 3.64l-2.972.28zm10.508 15.065l-1.54 3.64h-1.4l.98-3.64h-.98v-3.108h2.94v3.108zm-285.888 11.526v-3.106h8.736v3.106h-2.856v17.474h-3.023v-17.474h-2.857zm11.674 17.474l3.107-20.58h3.696l3.108 20.58h-2.94l-.56-4.2h-2.91l-.56 4.2h-2.94zm5.124-13.89l-.084-.53h-.168l-.084.53-.868 6.496h2.07l-.866-6.496zm12.098 13.89h-2.97l3.333-10.81-3.275-9.77h2.968l1.652 5.206.084.252h.11l.085-.252 1.65-5.207h2.97l-3.277 9.77 3.33 10.81h-2.967l-1.735-6.132-.056-.253h-.11l-.058.253-1.735 6.133zm11.414-20.58h6.916v3.105H210.9v5.404h2.8v3.304h-2.8v5.658h3.893v3.107h-6.916v-20.577zm17.084 5.515c0-.672-.027-1.428-.223-2.016-.196-.562-.504-.953-.98-.953-.784.03-1.036.84-1.036 2.045 0 .697.31 1.426.76 2.21.446.784 1.034 1.596 1.623 2.464.7 1.036 1.4 2.1 1.932 3.137.532 1.036.896 2.1.896 3.22 0 1.373-.223 2.66-.866 3.61-.645.954-1.68 1.57-3.332 1.57-1.932 0-3.023-.73-3.64-1.85-.616-1.12-.756-2.603-.756-4.144l2.968-.28c0 .868.028 1.736.252 2.382.196.67.532 1.118 1.177 1.118.897 0 1.232-.95 1.232-2.27 0-.672-.336-1.455-.784-2.268-.25-.393-.503-.812-.782-1.23-.59-.842-1.232-1.793-1.904-2.83-.67-1.035-1.175-2.1-1.483-3.19-.167-.532-.25-1.092-.25-1.65 0-1.12.25-2.325.895-3.25.645-.895 1.625-1.54 3.053-1.567 1.82-.026 2.884.73 3.472 1.82.588 1.12.756 2.493.756 3.64l-2.97.28zm10.506 15.065l-1.54 3.64h-1.4l.98-3.64h-.98v-3.108h2.94v3.108zm11.816 0l3.107-20.58h3.694l3.108 20.58h-2.94l-.56-4.2h-2.912l-.56 4.2h-2.938zm5.124-13.89l-.084-.53h-.168l-.084.53-.868 6.496h2.072l-.868-6.496zm12.756 3.164l-.252-.95h-.168v11.676h-2.77v-20.58h2.687l2.94 10.724.25.952h.17v-11.676h2.77v20.58H268.1l-2.94-10.726zm10.864 10.726v-20.58h2.38c2.8 0 4.312.56 5.124 2.127.784 1.567.896 4.145.896 8.177s-.11 6.58-.896 8.147c-.812 1.565-2.324 2.127-5.124 2.127h-2.38zm3.023-3.025c1.034 0 1.622-.112 1.93-1.12.14-.477.253-1.204.28-2.184.028-.98.028-2.3.028-3.98 0-1.68 0-2.996-.028-3.976-.028-.952-.14-1.682-.28-2.186-.31-.98-.896-1.093-1.933-1.093v14.536zm17.19-14.45v-3.105h8.737v3.106h-2.855v17.474H299.1v-17.474h-2.86zm18.78 8.514h-2.352v8.96h-3.023v-20.58h3.023v8.513h2.353v-8.512h3.024v20.58h-3.022v-8.96zm8.262-11.62h6.915v3.106h-3.893v5.404h2.8v3.304h-2.8v5.658h3.893v3.107h-6.915v-20.577zm19.458 0h6.916v3.106h-3.893v5.404h2.8v3.304h-2.8v5.658h3.893v3.107h-6.915v-20.577zm19.784 13.523v2.828c-.027.84-.195 1.597-.504 2.24-.252.56-.645 1.092-1.204 1.512-.562.448-1.315.7-2.323.7-1.01 0-1.793-.252-2.354-.7-.563-.42-.926-.952-1.178-1.513-.31-.645-.477-1.4-.504-2.24v-12.123c.026-.813.194-1.566.503-2.212.253-.562.616-1.12 1.177-1.54s1.344-.7 2.353-.7c1.008 0 1.764.28 2.323.7s.952.98 1.204 1.54c.31.646.477 1.4.504 2.212v2.828h-2.827v-2.828c0-.56-.14-.952-.447-1.288-.142-.14-.394-.224-.702-.224-.53 0-.783.392-.924.756-.084.224-.11.477-.14.756v12.124c.026.588.194.98.476 1.288.142.14.336.224.588.224.646 0 .896-.336 1.037-.756.085-.194.11-.446.11-.756v-2.828h2.83zm12.95 2.83c-.028.84-.196 1.595-.504 2.24-.253.56-.646 1.09-1.204 1.51-.56.448-1.316.7-2.324.7s-1.792-.252-2.354-.7c-.56-.42-.924-.95-1.176-1.51-.308-.646-.476-1.4-.504-2.24v-12.125c.028-.812.196-1.567.504-2.212.252-.56.616-1.12 1.176-1.54.562-.42 1.346-.7 2.354-.7s1.764.28 2.324.7.95.98 1.204 1.54c.308.645.476 1.4.504 2.212v12.124zm-3.024-12.125c0-.56-.11-.952-.392-1.288-.142-.14-.364-.225-.616-.225-.53 0-.783.393-.896.757-.084.222-.11.474-.11.754v12.124c0 .587.14.98.42 1.287.14.14.336.224.588.224.532 0 .784-.336.896-.756.084-.195.113-.447.113-.756v-12.125h-.003zm11.334 5.627l-.252-.95h-.168v11.676h-2.77v-20.58h2.687l2.94 10.724.254.952h.168v-11.676h2.772v20.58h-2.688l-2.94-10.726zm18.81 6.498c-.027.84-.195 1.595-.504 2.24-.252.56-.645 1.09-1.205 1.51-.56.448-1.314.7-2.324.7-1.006 0-1.79-.252-2.35-.7-.56-.42-.924-.95-1.176-1.51-.31-.646-.477-1.4-.505-2.24v-12.125c.027-.812.195-1.567.504-2.212.252-.56.615-1.12 1.176-1.54s1.343-.7 2.35-.7c1.01 0 1.767.28 2.325.7.56.42.953.98 1.205 1.54.31.645.477 1.4.504 2.212v12.124zm-3.023-12.125c0-.56-.11-.952-.39-1.288-.14-.14-.364-.225-.616-.225-.533 0-.785.393-.896.757-.084.222-.11.474-.11.754v12.124c0 .587.14.98.42 1.287.14.14.335.224.587.224.53 0 .783-.336.896-.756.085-.195.11-.447.11-.756v-12.125zm13.153 16.353l-1.932-12.938-.11-.868h-.167v13.806h-2.8v-20.58h3.696l1.79 9.408.14 1.092h.058l.14-1.092 1.792-9.408h3.694v20.58h-2.8v-13.806h-.17l-.11.868-1.932 12.938h-1.29zm15.53-14l.085.194h.06l.083-.194 1.514-6.58h2.967l-3.08 11.814v8.766h-3.02v-8.766l-3.08-11.814h2.967l1.508 6.58zM266.342 342.806c-.285-.055-.704-.163-.933-.243-.555-.182-1.49-.803-1.913-1.265-.304-.475-.82-1.084-.98-1.578-.046-.143-.46-1.072-.556-1.788-.222-1.677.01-3.51.924-4.67 1.004-1.285 1.975-1.947 3.363-2.197.508-.088 1.367-.11 1.804-.046.133.017.37.05.53.07 1.405.18 2.873 1.31 3.59 2.764.5 1.013.69 1.85.69 3.04 0 1.646-.364 2.843-1.214 3.968-.716.95-1.688 1.6-2.766 1.846-.742.17-1.93.213-2.538.096zm2.266-1.76c.175-.076.217-.086.32-.137.1-.053.2-.108.294-.17.17-.117.358-.22.484-.385.537-.68.92-1.424 1.096-2.355.144-.76.055-2.144-.188-2.897-.57-1.766-1.786-2.62-3.546-2.496-1.87.13-3.027 1.57-3.17 3.935-.14 2.38.96 4.252 2.715 4.627.49.102 1.627.032 1.995-.125zm8.507 1.752c-1.11-.207-2.03-.715-2.566-1.418-.425-.554-.556-.828-.74-1.544-.142-.56-.154-.902-.154-4.605v-4.002h1.98l.025 4.035c-.004 1.54-.124 2.97.216 4.496.222.534.77 1.08 1.25 1.237.48.16 1.615.207 2.106.088.937-.22 1.402-.678 1.672-1.645.135-.49.148-.876.148-4.376v-3.838h1.988v3.994c-.064 2.422.38 5.166-1.38 6.688-1.018.835-2.876 1.2-4.542.888h-.003v.002zm54.41.03c-.728-.077-1.58-.362-2.185-.723-.554-.334-1.354-1.174-1.733-1.823-.685-1.17-1.012-2.804-.837-4.187.343-2.727 1.876-4.547 4.238-5.033.93-.19 1.498-.19 2.42.006 2.293.482 3.76 2.11 4.196 4.654.364 2.107-.27 4.297-1.642 5.674-1.102 1.104-2.716 1.625-4.457 1.436v-.003zm1.833-1.79c1.466-.486 2.318-2.03 2.318-4.2 0-1.983-.8-3.496-2.136-4.024-.62-.246-1.655-.3-2.283-.117-1.035.297-1.784 1.04-2.176 2.155-.55 1.574-.41 3.537.354 4.846.252.43.87 1 1.34 1.222.683.33 1.795.382 2.585.118zm-49.046-4.086v-5.726h2.108l.988 1.57c.544.863 1.225 1.948 1.516 2.405.29.46 1.007 1.615 1.595 2.566.585.952 1.093 1.73 1.126 1.73.032 0 .06-1.84.06-4.093v-4.096h1.91v11.375l-1.05-.02-1.05-.024-.574-.912c-.316-.502-.56-.928-.542-.946.02-.02-.014-.072-.072-.123-.057-.044-.482-.693-.945-1.437-.46-.743-.993-1.592-1.184-1.887-.19-.29-.69-1.087-1.103-1.762l-.756-1.23-.02 4.17-.02 4.17h-1.985v-5.725zm11.052.032v-5.69l3.002.03c2.85.025 3.028.037 3.53.204 1.013.338 2.023 1.186 2.51 2.108.495.93.79 2.62.694 3.95-.058.823-.344 2.083-.457 2.014-.045-.03-.055-.012-.024.04.072.122-.26.777-.664 1.304-.414.54-.823.873-1.494 1.213-.873.443-1.538.517-4.526.517h-2.574v-5.69zm5.605 3.832c.875-.29 1.547-.934 1.876-1.8.246-.646.35-1.923.237-2.864-.17-1.418-.558-2.186-1.36-2.702-.673-.43-1.33-.552-2.954-.552h-1.42v8.124l1.61-.04c1.204-.026 1.71-.07 2.008-.166zm4.053 1.72c.03-.076.355-.943.722-1.927.37-.987.702-1.863.74-1.95.072-.164.133-.328.554-1.43.13-.35.363-.96.515-1.355.623-1.615 1.116-2.91 1.43-3.756l.333-.895h2.146l.585 1.527c.324.842.852 2.21 1.175 3.042.324.83.862 2.206 1.194 3.06.33.854.795 2.037 1.03 2.63.234.595.426 1.105.426 1.134s-.48.054-1.065.054h-1.067l-.154-.46c-.085-.25-.325-.93-.53-1.51l-.383-1.054h-4.58l-.154.418c-.085.23-.326.91-.533 1.51l-.38 1.094H306c-.95 0-1.026-.012-.975-.14v.004zm7.038-4.502c0-.097-.246-.826-1.355-3.984l-.307-.873-.128.304c-.11.27-1.494 4.16-1.603 4.526-.042.127.073.137 1.673.137 1.41 0 1.72-.018 1.72-.108zm5.488-.21v-4.848h-3.58v-1.83h9.224v1.83h-3.576v9.7h-2.067v-4.85zm-63.613-.913v-5.683h7.873v1.75h-5.804v2.94h5.168v1.59l-2.565.02-2.565.023-.02 2.523-.02 2.526h-2.064l-.003-5.686zm69.893-.04v-5.723h1.987v11.45h-1.987v-5.726zm14.71-5.726l2.12.022 5.198 8.252.076-8.27h1.83v11.372h-2.065l-5.18-8.236-.07 8.315h-1.91V331.14zm-39.042-8.085l-.704-.165v6.752l-.364.016-.362-.022v-6.897l-.713-.13v6.96l-.632-.084.008-7.035-.76-.17v7.038c-.06 0-.222-.022-.36-.05l-.247-.05v-7.038l-.793-.154v6.984l-.18-.05c-.098-.028-.375-.118-.45-.138l-.008-6.59-1.71.625-.04 5.345c-.295-.125-.57-.226-.836-.35l-.04-4.888-2.385-.342-.057 3.756c-.255-.12-.425-.26-.663-.433v-3.363l-2.633 1.04-.55-.552 3.53-1.327 3.184.53 2.53-1.01 17.82 3.815c.035.057-1.306 1.135-1.515 1.223v-.824l-.738-.136-.007 1.427-.185.13c-.16.115-.51.29-.51.29l.008-2.03-.654-.15v2.534l-.3.152c-.164.084-.324.165-.358.18l-.005-3.045s-.288-.046-.432-.077l-.258-.058v3.494l-.32.126c-.176.072-.45.162-.492.162v-3.94l-.62-.15v4.352l-.307.09c-.166.052-.386.103-.415.103l.01-4.683-.633-.117.01 4.95c-.034.023-.267.09-.43.12l-.31.055v-5.25c-.032-.022-.24-.106-.405-.137l-.3-.055v5.566l-.248.048c-.137.03-.4.04-.458.04v-5.798l-.664-.162v6.02c-.08.017-.39.06-.495.06l-.203.005v-6.227l-.634-.15v6.385c-.077 0-.38.06-.498.077l-.224.014.005-6.63zm-43.035 1.75l-.02-4.83-3.54-.046v-1.664h9.146v1.663l-3.538.045-.02 4.83-.04 4.832h-2l.013-4.832zm14.66 4.804l3.846-5.858-3.748-5.504 1.213.007 1.214.007 1.273 1.982c.698 1.09 1.29 1.98 1.31 1.98l2.716-3.96h2.216l-3.756 5.484 4.07 5.887h-2.476l-2.843-4.224-2.878 4.213m-4.804-.015l-1.078-2.95h-4.585l-1.017 2.976h-2.145l4.306-11.37h1.974l4.733 11.345m-3.923-4.584l-1.68-4.727-1.66 4.733 3.34-.005zm45.44-.92c-.435-.106-1.025-.24-1.31-.305l-2.107-.48c-.875-.196-3.093-.7-4.93-1.117l-9.56-2.187-2.54 1.097-3.173-.602-4.33 1.57c-.054 0-.342-.48-.305-.503l4.64-1.696 3.168.693 2.523-1.046 10.35 2.47c.56.133 1.472.354 2.027.486l2.01.48c1.59.378 3.99.954 4.32 1.038.25.063.286.096.21.192-.055.063-.12.11-.147.106-.026-.006-.408-.092-.845-.196zm1.624-.7c-.03-.033-1.667-.42-4.962-1.177-.39-.092-.91-.21-1.15-.266-.24-.055-1.135-.263-1.99-.467-2.695-.636-5.18-1.218-5.982-1.4l-.776-.175v-.633c0-.522.037-.704.206-1.036.248-.492.37-1.154.25-1.38-.17-.32-.566-.752-1.022-1.12-.407-.326-.468-.41-.468-.648 0-.155.07-.364.16-.477.38-.482.106-1.26-.765-2.156-.37-.38-.515-.596-.583-.865-.25-.993-.917-2.18-1.683-3-.373-.453-.42-.507-.757-.744-.134-.117-.423-.334-.64-.482-.25-.17-.433-.365-.49-.524-.05-.138-.217-.397-.37-.577-.254-.297-.278-.368-.278-.832 0-.35.05-.603.16-.816.086-.175.157-.365.157-.426 0-.064-.156-.297-.345-.522-.556-.654-.588-.736-.644-1.598-.06-.953-.186-1.57-.312-1.53-.133.046-.272.803-.28 1.533-.01.71-.11.964-.568 1.45-.154.165-.328.393-.386.508-.096.19-.087.24.1.516.176.255.21.395.21.852 0 .474-.03.578-.212.794-.116.138-.27.38-.342.54-.09.198-.34.45-.764.766-.608.453-1.213 1.064-1.75 1.67-.155.176-.285.373-.42.563-.11.154-.226.306-.324.47-.134.225-.278.447-.364.7-.105.26-.165.496-.132.53.032.032.344-.05.69-.186 1.193-.46 2.148-.635 3.775-.684 2.043-.06 4.026.173 4.3.503.123.147.085.144-1.07-.062-1.244-.224-3.566-.244-4.78-.045-1.486.247-2.575.71-3.31 1.41-.59.56-.63.807-.086.528.5-.256 1.855-.65 3.078-.893.826-.163 3.635-.24 4.294-.118.262.05.53.092.595.094.59.02 2.35.545 2.644.79.26.22.046.202-.712-.052-1.16-.39-2.202-.527-3.997-.533-2.794-.006-4.79.47-6.375 1.518-.36.238-.377.384-.102.855.144.246.197.438.182.676-.016.28-.067.367-.342.58-.332.263-.605.55-.56.597.014.014.172-.067.35-.18.546-.344 1.945-.924 2.632-1.09 1.495-.36 2.368-.465 3.927-.465 2.31 0 4.42.384 5.698 1.036.298.153.416.317.227.317-.05 0-.398-.106-.78-.233-2.804-.94-6.403-1.05-9.087-.28-1.03.294-2.776 1.097-3.07 1.41-.19.205-.424.628-.373.68.02.02.5-.202 1.064-.495 1.95-1.002 3.518-1.395 5.852-1.457 1.617-.045 2.597.046 4.043.39.785.186.93.32.776.725-.11.29-.3.35-.583.188-.128-.072-.265-.13-.304-.13-.04 0-.074.504-.074 1.152 0 1.1-.008 1.152-.16 1.152-.087 0-.16-.044-.162-.1l-.02-1.128c-.015-.97-.028-1.038-.186-1.12-.095-.045-.227-.132-.295-.186-.068-.056-.206-.092-.307-.075-.18.024-.183.042-.222 1.3-.04 1.203-.05 1.27-.2 1.27-.15 0-.16-.06-.18-1.21-.02-1.13-.033-1.21-.18-1.258-.09-.027-.227-.123-.31-.21-.08-.088-.215-.147-.295-.133-.134.024-.15.15-.187 1.416-.038 1.325-.047 1.393-.2 1.393-.15 0-.16-.06-.18-1.214-.02-1.043-.04-1.213-.148-1.213-.07 0-.233-.093-.365-.202-.462-.39-.496-.31-.52 1.194-.023 1.347-.06 1.515-.31 1.42-.082-.034-.106-.302-.106-1.175v-1.13l-.315-.207c-.193-.126-.38-.19-.478-.165-.156.04-.163.1-.163 1.374 0 1.105-.02 1.35-.124 1.435-.24.2-.29-.027-.278-1.254.01-1.296 0-1.33-.455-1.42-.375-.075-.417.09-.417 1.632 0 1.304-.007 1.357-.16 1.357-.147 0-.16-.057-.17-.855-.024-1.574-.03-1.685-.127-1.783-.07-.068-.18-.074-.396-.022l-.3.074-.022 1.444c-.017 1.136-.046 1.46-.135 1.537-.238.197-.28 0-.28-1.307 0-1.383-.036-1.513-.382-1.424-.097.026-.182.05-.19.057-.01.007-.035.692-.06 1.522-.043 1.444-.05 1.512-.203 1.512-.15 0-.162-.066-.2-1.27-.04-1.236-.043-1.275-.212-1.3-.296-.04-.35.207-.34 1.583.007.704-.01 1.297-.032 1.32-.024.026-.098.024-.164 0-.097-.035-.125-.238-.143-1.023-.02-.916-.03-.976-.18-.976s-.16.06-.18 1.173l-.022 1.172-.287.12c-.16.068-.3.114-.31.1-.156-.16-1.545-2.607-1.545-2.724 0-.03-.172-.374-.242-.564-.48-1.312-1.11-2.615-1.222-4.005-.33-4.042-.23-8.363 1.61-12.062 1.133-2.07 2.774-4.55 4.865-6.262.197-.158.5-.4.673-.542 2.468-1.683 4.187-2.744 7.2-3.485 1.7-.404 2.943-.55 4.678-.55 2.458.003 4.58.397 7.075 1.31.403.15 2.29 1.063 2.757 1.336.796.465 1.236.787 1.183.87-.034.054-.02.066.04.03.164-.102 1.977 1.362 2.912 2.35 3.13 3.322 5.015 7.415 5.375 11.684.184 2.198.18 2.807-.043 4.168-.245 1.498-.38 2.135-.642 3.012-.973 2.54-2.205 5.135-3.74 6.967-.622.736-.624.738-.68.686v-.003h.002zm-7.227-5.318c.144-.098.338-.32.428-.497.155-.295.17-.447.17-2.107 0-1.654-.014-1.813-.166-2.102-.298-.57-.818-.797-1.607-.707-.33.04-.486.11-.738.335-.28.253-.335.36-.443.885-.15.724-.094 1.478.144 1.976.13.27.25.385.526.506.412.18.892.156 1.136-.065.15-.135.152-.127.152.268 0 .498-.128.8-.365.86-.365.093-.554-.068-.526-.446 0-.023-.227-.03-.508-.015-.468.025-.51.04-.51.207 0 .35.178.69.465.885.25.168.38.193.934.193.538 0 .69-.028.908-.177zm-1.202-2.575c-.07-.084-.12-.4-.136-.877-.033-.906.078-1.164.487-1.123.38.036.47.276.435 1.166-.024.62-.053.765-.178.857-.204.146-.475.136-.606-.022zm4.678 2.656c.327-.147.564-.446.698-.89.238-.773.066-1.618-.39-1.915l-.204-.135.192-.15c.265-.21.386-.633.345-1.194-.057-.835-.498-1.198-1.446-1.206-.474-.002-.638.032-.88.183-.346.21-.596.686-.597 1.133v.3h.933l.052-.316c.115-.72.925-.62.925.115 0 .43-.193.653-.623.722l-.33.053v.757l.336.052c.612.097.696.202.696.882 0 .498-.028.62-.168.762-.128.127-.225.156-.414.12-.346-.07-.393-.14-.434-.643l-.038-.44h-1.013v.423c0 .525.253 1.06.625 1.306.223.148.38.18.89.18.342 0 .722-.047.845-.1zm-6.814-5.466h-.38c-.356 0-.39.016-.535.288-.166.308-.574.544-1.093.626-.292.046-.298.054-.298.4v.357h1.27v3.895h1.016l.02-5.566zm9.976 4.95c.12-1.17.546-2.628 1.065-3.66.17-.335.25-.604.25-.85v-.36h-3.19v.832h2.182l-.454.925c-.37.807-.633 1.787-.88 2.7-.092.337-.274.916-.225 1.027h1.19l.063-.616zm-12.68-5.752c.793-.17 1.27-.893 1.164-1.77-.063-.53-.297-.87-.913-1.305l-.677-.498c-.252-.184-.608-.44-.652-.677-.093-.5.563-.802.918-.42.104.11.162.28.162.475v.303h1.053l-.036-.468c-.063-.857-.618-1.36-1.5-1.36-1.126.003-1.692.48-1.692 1.432 0 .24.047.527.104.635.104.202.475.564.747.81.398.36 1.172.806 1.286.97.304.434.024 1.036-.48 1.036-.408 0-.594-.252-.597-.81v-.415h-1.138l.047.552c.07.848.365 1.272 1.02 1.48.434.134.67.14 1.182.03zm9.785-.28c.254-.253.39-.65.39-1.164v-.3h-1.032v.393c0 .424-.155.67-.365.59-.21-.082-.27-.4-.27-1.402 0-1.112.037-1.302.25-1.37.233-.074.385.105.385.45v.31h1.057l-.04-.405c-.04-.424-.207-.712-.57-.982-.314-.237-1.213-.235-1.533 0-.44.322-.505.576-.505 2.023 0 1.457.06 1.68.518 1.992.198.135.342.156.853.137.565-.022.634-.045.86-.27zm3.342.104c.15-.1.32-.29.382-.417.19-.35.174-.63.18-.918l-1.05.008v.258c0 .358-.1.483-.39.483-.345 0-.425-.113-.465-.662l-.035-.475h1.918l-.02-.817c-.013-.448-.09-.888-.14-1-.32-.652-1.692-.843-2.285-.304-.345.316-.408.598-.408 1.866 0 1.08.016 1.215.18 1.526.25.472.587.638 1.298.638.46 0 .62-.035.838-.183h-.003zm-1.36-2.78c0-.358.196-.615.466-.615.305 0 .408.135.408.533v.342h-.872v-.262zm-8.746-1.253h-1.032l-.006 4.104c.03.03.32.03.576.03h.463v-4.133zm1.91 2.723c0-1.386-.027-1.236.118-1.754.035-.12.18-.21.287-.238.382-.092.428.108.456 1.826l.028 1.58h.943v-1.864c0-1.236.07-1.283-.085-1.915-.044-.18-.25-.314-.41-.382-.46-.206-.843-.145-1.172.183-.16.16-.162.16-.162.005 0-.14-.052-.16-.475-.16h-.476v4.135h.952v-1.42zm-1.905-4.168h-1.044v.968h1.04l.005-.97zm-13.82 13.457c.024-.136.49-.273.75-.22.103.015.184.003.184-.038 0-.037.27-.068.596-.068s.596.025.596.06c0 .033.13.067.29.074.25.014.42.12.424.268 0 .023-.645.04-1.432.04-1.202 0-1.43-.022-1.41-.117zm-3.882-4.396c-.04-.057-.055-.354-.033-.66.046-.645.172-.587.213.1.03.473-.056.737-.18.56zm.638-.324c-.022-.063-.03-.362-.02-.663.02-.406.055-.55.137-.55.15 0 .178 1.244.027 1.294-.054.018-.12-.017-.143-.08zm.794-.245c-.022-.058-.03-.406-.016-.773.02-.53.047-.67.143-.67.18 0 .22 1.43.04 1.5-.07.025-.142.002-.164-.057zm.84-.967c0-.6.026-.753.114-.753.16 0 .17.066.14.83-.02.525-.05.68-.14.68-.088 0-.112-.155-.112-.757zm1.083.538c-.09-.086-.05-1.44.04-1.498.158-.098.228.152.23.814 0 .483-.028.656-.11.69-.063.023-.134.02-.16-.006zm1.04-.153c-.09-.086-.062-1.442.032-1.5.142-.09.186.032.22.605.04.748-.057 1.093-.254.896zm1.057-.077c-.037-1.05-.02-1.49.06-1.517.115-.04.2.512.166 1.084-.015.257-.065.447-.125.466-.053.018-.1.004-.102-.033zm1.01.002c-.03-.03-.054-.392-.054-.804 0-.562.025-.74.1-.714.066.02.106.26.122.734.02.65-.036.916-.168.785zm.9-.703c0-.62.023-.758.12-.758s.12.137.12.758c0 .615-.023.754-.12.754-.1 0-.12-.137-.12-.755zm-5.804-3.143c0-.155.084-.208.18-.112.063.065-.02.272-.108.272-.04 0-.072-.073-.072-.16zm.65-.3c.034-.174.177-.17.21.007.017.08-.024.133-.104.133-.084 0-.123-.05-.106-.14zm.728-.144c-.066-.174.116-.348.21-.2.077.128.023.325-.087.325-.04 0-.094-.056-.12-.124zm.85-.224c0-.114.035-.207.078-.207.044 0 .08.054.08.12v.18c0 .032-.036.07-.08.084-.043.016-.08-.064-.08-.177zm.826-.082c-.025-.065-.022-.155.005-.2.093-.15.202-.087.202.117 0 .214-.137.267-.21.082h.003zm.882.035c-.063-.104.03-.397.126-.397.04 0 .074.108.074.238 0 .235-.103.315-.2.156v.003zm.915-.16c0-.13.036-.237.08-.237.043 0 .08.108.08.238s-.036.237-.08.237-.08-.106-.08-.237zM177.515 355.12v3.187h-1.236v-8.61h2.584c.548 0 1.025.065 1.43.192.407.127.743.31 1.01.54.265.235.464.52.596.85.133.33.2.694.2 1.1s-.07.772-.21 1.106c-.14.334-.347.623-.62.867s-.608.434-1.01.566c-.402.134-.867.2-1.395.2h-1.35zm0-.984h1.35c.324 0 .61-.043.86-.13s.46-.204.628-.358.295-.34.38-.555c.087-.217.13-.455.13-.715 0-.268-.042-.506-.123-.717-.082-.207-.206-.387-.372-.535s-.374-.26-.624-.338-.543-.117-.88-.117h-1.35v3.466zm13.877 4.17h-.96c-.108 0-.196-.025-.264-.08s-.12-.125-.156-.213l-.774-2.02h-3.822l-.774 2.02c-.024.076-.073.145-.147.203-.074.06-.163.09-.267.09h-.96l3.432-8.61h1.254l3.438 8.61zm-5.634-3.203h3.138l-1.302-3.39c-.044-.108-.09-.233-.135-.376-.048-.14-.093-.297-.137-.465-.044.168-.088.324-.132.47s-.087.27-.13.376l-1.303 3.385zm9.367-.348v3.55h-1.236v-8.608h2.464c.552 0 1.028.057 1.428.168.4.11.73.273.993.482.262.21.455.463.58.76s.185.627.185.99c0 .305-.046.588-.14.852-.094.262-.23.5-.408.71-.178.21-.396.392-.654.542-.258.152-.55.268-.88.342.157.094.29.223.403.39l2.456 3.374h-1.104c-.223 0-.387-.09-.49-.267l-2.16-3.017c-.07-.096-.143-.164-.223-.207-.08-.04-.2-.063-.36-.063h-.853zm0-.906h1.188c.332 0 .624-.043.876-.123.25-.078.46-.193.63-.342.166-.146.293-.322.38-.523.085-.203.13-.428.13-.676 0-.5-.166-.88-.494-1.135s-.822-.382-1.482-.382h-1.23v3.18zm13.295-4.153v1.04h-2.754v7.57h-1.236v-7.57h-2.76v-1.04h6.75zM223.156 354c0 .643-.103 1.236-.31 1.775s-.494 1.004-.866 1.393c-.372.387-.82.69-1.344.906-.524.215-1.104.322-1.74.322s-1.215-.107-1.737-.322c-.524-.217-.973-.52-1.35-.906-.375-.39-.666-.854-.872-1.393s-.31-1.133-.31-1.775c0-.64.103-1.23.31-1.77s.496-1.005.872-1.394.825-.69 1.347-.908c.52-.22 1.1-.328 1.736-.328s1.216.11 1.74.328c.524.217.972.52 1.344.908.372.39.66.852.867 1.393s.31 1.13.31 1.77zm-1.266 0c0-.518-.07-.98-.21-1.393-.14-.412-.34-.762-.603-1.05-.262-.282-.577-.503-.945-.653-.368-.152-.78-.23-1.236-.23s-.87.076-1.24.23c-.37.15-.686.37-.947.654-.264.287-.466.637-.608 1.05-.142.41-.213.874-.213 1.392 0 .52.07.986.212 1.396.142.412.344.762.606 1.045s.577.504.947.654c.37.152.783.23 1.24.23s.867-.076 1.235-.23c.368-.15.683-.37.945-.652.262-.282.463-.632.603-1.044.14-.41.21-.877.21-1.396zm9.618-4.303v1.008h-4.086v2.928h3.486v1.008h-3.486v3.668h-1.242v-8.61h5.328zm12.528 0v1.04h-2.754v7.57h-1.236v-7.57h-2.76v-1.04h6.75zm9.678 8.61h-1.242v-3.894h-4.542v3.893h-1.242v-8.61h1.242v3.817h4.542v-3.816h1.242v8.61zm8.886-8.61v1.008h-4.086v2.77h3.294v.974h-3.294v2.85h4.092l-.006 1.006h-5.328v-8.61h5.328zm8.514 5.413l-.39 3.196h-1.188l1.056-8.61h2.412c.46 0 .86.056 1.2.167.34.107.62.266.84.467.22.203.384.443.492.727.108.28.162.596.162.94 0 .45-.073.866-.22 1.247-.145.38-.36.707-.647.982s-.636.492-1.054.646c-.418.156-.897.234-1.437.234h-1.225v.003zm.552-4.472l-.432 3.523h1.224c.332 0 .625-.05.88-.152.253-.102.466-.244.638-.428.172-.187.302-.403.39-.653.088-.25.132-.523.132-.824 0-.225-.033-.428-.1-.61s-.164-.335-.296-.46c-.132-.127-.3-.225-.5-.29-.203-.07-.44-.105-.712-.105h-1.224zm9.27 6.722c.315 0 .605-.062.87-.183.263-.12.494-.287.692-.5.198-.215.36-.47.49-.77.127-.297.213-.625.257-.98l.642-5.23h1.194l-.64 5.23c-.064.496-.196.957-.396 1.38-.2.427-.457.792-.77 1.105s-.68.557-1.096.73c-.416.178-.872.266-1.368.266-.493 0-.926-.088-1.3-.266-.374-.176-.68-.42-.918-.73-.238-.313-.404-.68-.498-1.104-.094-.424-.11-.885-.05-1.38l.63-5.23h1.193l-.636 5.226c-.042.355-.037.684.017.98.054.3.154.555.3.77.146.217.335.385.567.504.232.12.506.18.822.18zm12.857-7.663l-.126 1.002h-2.508l-.938 7.605h-1.188l.924-7.607h-2.515l.12-1.003h6.228zm7.974 0l-.126 1.002h-2.506l-.936 7.605h-1.188l.923-7.607h-2.514l.12-1.003h6.226zm2.74 8.61h-1.204l1.056-8.61h1.2l-1.053 8.61zm5.335-8.575c.05.023.1.08.15.17l3.653 6.46c.01-.1.017-.192.024-.28.004-.088.014-.172.02-.252l.757-6.133h1.057l-1.063 8.61h-.6c-.095 0-.173-.02-.233-.052-.06-.035-.117-.092-.174-.172l-3.648-6.45-.035.44-.76 6.23h-1.058l1.063-8.608h.616c.11.002.184.013.233.037zm11.696 7.705c.205 0 .393-.012.563-.033.174-.02.337-.055.49-.096.153-.043.302-.092.44-.15.14-.06.28-.125.42-.2l.23-1.89h-1.16c-.075 0-.134-.02-.18-.064-.04-.04-.055-.096-.043-.164l.072-.684h2.507l-.414 3.316c-.215.156-.438.293-.668.408-.23.117-.474.213-.73.29-.255.08-.524.138-.81.175-.283.04-.59.06-.918.06-.523 0-1-.097-1.426-.284s-.79-.447-1.087-.783c-.3-.336-.533-.736-.697-1.2-.164-.464-.246-.972-.246-1.522 0-.736.114-1.412.346-2.027.23-.617.55-1.145.96-1.584.41-.44.896-.783 1.455-1.03s1.17-.368 1.83-.368c.338 0 .643.027.917.084.272.056.52.134.743.235.222.104.42.223.6.36.18.138.34.288.49.446l-.386.5c-.06.094-.135.146-.223.168s-.18 0-.273-.06c-.092-.062-.19-.132-.3-.212-.107-.08-.237-.154-.385-.227s-.324-.136-.53-.185c-.206-.05-.452-.076-.74-.076-.483 0-.927.093-1.328.28-.402.186-.747.45-1.035.79s-.514.755-.673 1.24c-.16.48-.24 1.022-.24 1.62 0 .44.06.842.175 1.195s.28.654.49.902.47.44.768.57c.296.135.63.2 1 .2zm16.3.87h-.918c-.104 0-.186-.026-.246-.08-.06-.05-.102-.12-.125-.202l-.45-2.053h-3.458l-.954 2.053c-.036.072-.096.137-.175.195-.08.06-.168.086-.265.086h-.93l4.205-8.61h1.22l2.093 8.61zm-4.795-3.198h2.87l-.757-3.457-.072-.393c-.027-.145-.055-.308-.078-.478-.063.172-.13.332-.19.48l-.17.395-1.603 3.452zm16.92-4.44h-3.72l-.366 2.98h3.176l-.127.978h-3.168l-.45 3.678h-1.205l1.062-8.61h4.92l-.122.973zm7.827 7.636h-.918c-.104 0-.187-.025-.246-.078-.06-.05-.103-.12-.125-.203l-.45-2.053h-3.454l-.955 2.053c-.034.072-.093.137-.173.195s-.168.086-.264.086h-.93l4.205-8.61h1.218l2.095 8.61zm-4.795-3.197h2.868l-.756-3.457-.07-.393c-.028-.145-.056-.308-.08-.478-.063.172-.128.332-.19.48-.064.147-.12.278-.168.395l-1.606 3.452zm10.488 2.26c.266 0 .496-.02.696-.062.196-.043.374-.096.524-.158.152-.064.283-.135.392-.207.106-.074.2-.145.28-.207l.2-.16c.056-.04.106-.063.154-.063.04 0 .074.008.1.02.026.015.045.032.06.052l.42.52c-.373.41-.808.728-1.304.954-.495.227-1.07.342-1.723.342-.516 0-.98-.094-1.39-.277s-.755-.44-1.037-.773-.498-.727-.647-1.186c-.15-.457-.228-.96-.228-1.508 0-.497.054-.968.16-1.41s.255-.855.45-1.23c.193-.373.427-.71.7-1.01.273-.3.58-.555.915-.762.336-.21.697-.37 1.084-.48.387-.11.79-.168 1.216-.168.308 0 .587.027.837.08.25.055.478.13.68.23.205.1.39.218.556.358.165.143.32.303.464.48l-.406.497c-.033.04-.07.074-.112.102-.042.03-.097.043-.164.043-.072 0-.148-.04-.23-.117-.082-.075-.19-.16-.324-.257-.135-.094-.31-.182-.525-.258-.216-.078-.494-.117-.834-.117-.455 0-.88.092-1.277.275s-.738.445-1.028.785-.52.752-.685 1.236-.25 1.025-.25 1.625c0 .44.06.83.17 1.18.112.346.27.64.472.883.2.242.44.428.72.555.274.126.58.19.91.19zm11.243-6.7h-3.72l-.348 2.82h2.993l-.12.938h-2.986l-.354 2.904h3.726l-.12.973h-4.933l1.063-8.61h4.92l-.12.974zm11.382.413c-.036.063-.074.11-.115.14-.043.03-.1.046-.166.046-.072 0-.154-.035-.246-.1-.09-.068-.205-.14-.344-.223-.138-.082-.303-.156-.494-.225-.19-.064-.422-.1-.688-.1-.256 0-.48.033-.676.1-.193.066-.355.158-.485.273s-.227.252-.293.41-.1.33-.1.514c0 .235.06.43.178.58.117.153.273.284.465.396.19.11.41.203.656.283s.497.163.753.25c.256.09.507.19.753.3.245.11.465.25.657.42.19.17.347.38.465.625.117.244.177.547.177.9 0 .38-.065.734-.194 1.064-.13.33-.32.62-.567.864s-.55.44-.91.582c-.36.14-.77.213-1.23.213-.276 0-.542-.028-.802-.083-.257-.055-.5-.13-.73-.23-.23-.097-.446-.214-.647-.353-.202-.14-.383-.293-.543-.465l.36-.59c.032-.05.073-.087.122-.116.05-.03.103-.045.165-.045.084 0 .18.044.29.132.11.088.247.186.408.29s.356.204.585.292.504.13.827.13c.27 0 .51-.034.722-.106.21-.07.39-.175.536-.308.146-.13.256-.29.332-.48.075-.187.113-.395.113-.624 0-.256-.06-.465-.177-.627-.118-.16-.273-.297-.466-.4-.19-.11-.41-.203-.653-.28s-.495-.153-.753-.235c-.26-.082-.51-.178-.752-.285-.244-.106-.464-.247-.654-.423-.19-.174-.348-.39-.465-.65-.12-.26-.18-.582-.18-.965 0-.305.062-.602.182-.89.12-.288.295-.542.522-.76.23-.222.508-.4.844-.532.333-.135.717-.2 1.148-.2.483 0 .926.075 1.328.228s.754.37 1.053.66l-.307.595zm8.82-1.386v1.008h-4.086v2.77h3.294v.974h-3.294v2.85h4.093l-.007 1.006H389.6v-8.61h5.328zm4.237 5.058v3.55h-1.236v-8.608h2.465c.553 0 1.027.057 1.428.168s.73.273.994.482c.262.21.455.463.578.76.125.297.186.627.186.99 0 .305-.046.588-.14.852s-.23.5-.41.71c-.176.21-.394.392-.652.542-.26.152-.552.268-.88.342.156.094.29.223.402.39l2.455 3.374h-1.105c-.223 0-.387-.09-.492-.267l-2.158-3.017c-.068-.096-.143-.164-.223-.207-.08-.04-.202-.063-.36-.063h-.855zm0-.906h1.188c.332 0 .623-.043.875-.123.254-.078.463-.193.63-.342.17-.146.296-.322.382-.523.088-.203.13-.428.13-.676 0-.5-.163-.88-.49-1.135s-.823-.382-1.483-.382h-1.23v3.18h-.002zm8.962 4.456h-1.242v-8.61h1.242v8.61zm8.885-8.61v1.01h-4.086v2.77h3.295v.973h-3.293v2.85h4.094l-.007 1.006h-5.326v-8.61h5.326zm7.436 1.387c-.035.063-.074.11-.117.14-.04.03-.094.046-.162.046-.072 0-.154-.035-.246-.1s-.206-.14-.345-.223-.305-.156-.494-.225c-.19-.066-.42-.1-.688-.1-.258 0-.482.033-.676.1-.194.068-.356.158-.487.273-.13.115-.23.252-.293.41-.066.158-.1.33-.1.514 0 .235.06.43.178.58.117.153.27.284.465.396.19.11.41.203.656.283s.495.163.753.25c.256.09.506.19.752.3s.465.25.656.42c.194.17.35.38.468.625.117.244.176.547.176.9 0 .38-.063.734-.192 1.064-.13.33-.32.62-.568.864s-.55.44-.912.582c-.357.14-.77.213-1.23.213-.274 0-.542-.028-.8-.083s-.502-.13-.732-.23c-.23-.097-.445-.214-.646-.353-.203-.14-.385-.293-.543-.465l.36-.59c.03-.05.07-.087.123-.116.048-.03.104-.045.163-.045.084 0 .182.044.29.132.112.088.247.186.41.29s.354.204.585.292c.23.088.505.13.83.13.267 0 .507-.034.72-.106.21-.07.39-.175.535-.308.146-.13.258-.29.334-.48s.112-.395.112-.624c0-.256-.062-.465-.18-.627-.116-.16-.27-.297-.464-.4-.19-.11-.41-.203-.652-.28-.244-.075-.496-.153-.754-.235-.26-.082-.51-.178-.754-.285-.242-.106-.463-.247-.652-.423-.193-.174-.35-.39-.465-.65-.12-.26-.18-.582-.18-.965 0-.305.063-.602.18-.89.123-.288.297-.542.523-.76.23-.222.508-.4.842-.532.334-.135.72-.2 1.15-.2.482 0 .926.075 1.328.228s.754.37 1.053.66l-.307.595zM206.6 62.898l-2.367-1.717-2.364 1.72.9-2.78-2.366-1.717h2.924l.9-2.782.905 2.78h2.923l-2.364 1.72m28.365 2.778l-2.366-1.717-2.362 1.72.9-2.78-2.364-1.717h2.923l.903-2.782.903 2.78h2.923l-2.364 1.72m28.362 2.778l-2.366-1.717-2.363 1.72.9-2.78-2.365-1.717h2.924l.902-2.782.904 2.78h2.923l-2.363 1.72m28.362 2.778l-2.366-1.717-2.364 1.72.902-2.78-2.366-1.717h2.923l.904-2.782.905 2.78h2.922l-2.363 1.72m28.36 2.778l-2.365-1.717-2.365 1.72.902-2.78-2.366-1.717h2.925l.9-2.782.906 2.78h2.925l-2.364 1.72m28.36 2.778l-2.364-1.717-2.365 1.72.902-2.78-2.368-1.717h2.925l.9-2.782.904 2.78h2.926l-2.365 1.72m28.365 2.778l-2.366-1.717-2.365 1.72.9-2.78-2.365-1.717h2.925l.902-2.782.904 2.78h2.925l-2.363 1.72m28.358 2.778l-2.362-1.717-2.365 1.72.902-2.78-2.366-1.717h2.92l.903-2.782.904 2.78h2.924l-2.362 1.72" fill="#FFF"/></svg>