<?xml version="1.0" encoding="utf-8"?>
<!-- Generator: Adobe Illustrator 16.0.3, SVG Export Plug-In . SVG Version: 6.00 Build 0)  -->
<!DOCTYPE svg PUBLIC "-//W3C//DTD SVG 1.1//EN" "http://www.w3.org/Graphics/SVG/1.1/DTD/svg11.dtd">
<svg version="1.1" id="Layer_1" xmlns="http://www.w3.org/2000/svg" xmlns:xlink="http://www.w3.org/1999/xlink" x="0px" y="0px"
	 width="599.333px" height="362.667px" viewBox="0 0 599.333 362.667" enable-background="new 0 0 599.333 362.667"
	 xml:space="preserve">
<g id="Layer_2">
</g>
<g id="Layer_3">
	<polygon fill="#CC333F" points="592.526,101.596 8.141,101.596 24.034,56.191 8.141,10.786 592.526,10.786 575.764,56.191 	"/>
	<polygon fill="#183C4F" points="578.133,110.873 22.533,110.873 41.345,56.191 22.533,1.51 578.133,1.51 558.725,56.191 	"/>
	<g>
		<path fill="#FFFFFF" d="M58.653,46.486V14.851h8.572c3.45,0,6.015,0.69,7.695,2.07c1.68,1.38,2.52,3.338,2.52,5.873
			c0,0.885-0.166,1.74-0.495,2.565c-0.33,0.825-0.795,1.575-1.395,2.25c-0.6,0.675-1.324,1.252-2.171,1.732
			c-0.848,0.48-1.796,0.81-2.846,0.99c1.305,0.135,2.471,0.409,3.499,0.821c1.027,0.413,1.897,0.945,2.61,1.598
			c0.712,0.652,1.256,1.425,1.631,2.317c0.375,0.893,0.562,1.887,0.562,2.981c0,1.35-0.233,2.546-0.698,3.589
			c-0.465,1.043-1.144,1.924-2.036,2.644c-0.893,0.72-1.984,1.268-3.274,1.643s-2.76,0.562-4.41,0.562H58.653z M59.89,29.993h7.493
			c1.59,0,2.943-0.213,4.061-0.641c1.117-0.427,2.033-0.982,2.745-1.665c0.712-0.682,1.23-1.447,1.553-2.295
			c0.322-0.847,0.483-1.684,0.483-2.509c0-2.265-0.739-4.005-2.216-5.22c-1.478-1.215-3.739-1.823-6.784-1.823H59.89V29.993z
			 M59.89,30.938v14.535h8.528c2.955,0,5.223-0.633,6.806-1.901c1.582-1.268,2.374-3.116,2.374-5.546
			c0-1.095-0.214-2.078-0.641-2.948c-0.428-0.87-1.035-1.612-1.823-2.227c-0.787-0.615-1.748-1.087-2.88-1.418
			c-1.133-0.33-2.404-0.495-3.813-0.495H59.89z"/>
		<path fill="#FFFFFF" d="M99.625,45.766c1.635,0,3.094-0.289,4.376-0.866c1.283-0.577,2.37-1.369,3.263-2.374
			c0.892-1.005,1.575-2.186,2.047-3.544c0.473-1.357,0.709-2.816,0.709-4.376V14.851h1.26v19.755c0,1.71-0.27,3.311-0.81,4.804
			c-0.54,1.493-1.316,2.794-2.329,3.904c-1.012,1.11-2.235,1.984-3.667,2.621c-1.433,0.637-3.049,0.956-4.849,0.956
			s-3.42-0.319-4.86-0.956s-2.663-1.511-3.667-2.621c-1.005-1.11-1.778-2.411-2.318-3.904c-0.54-1.493-0.81-3.094-0.81-4.804V14.851
			h1.238v19.71c0,1.56,0.236,3.022,0.708,4.387c0.473,1.365,1.155,2.554,2.048,3.566c0.892,1.012,1.983,1.808,3.273,2.385
			C96.528,45.477,97.99,45.766,99.625,45.766z"/>
		<path fill="#FFFFFF" d="M137.47,18.136c-0.09,0.15-0.218,0.225-0.382,0.225c-0.166,0-0.394-0.146-0.687-0.439
			s-0.701-0.619-1.226-0.979c-0.525-0.36-1.2-0.686-2.025-0.979c-0.825-0.292-1.845-0.438-3.06-0.438
			c-1.23,0-2.321,0.184-3.274,0.551c-0.953,0.367-1.751,0.866-2.396,1.496c-0.646,0.63-1.133,1.354-1.463,2.171
			c-0.33,0.818-0.495,1.676-0.495,2.576c0,1.155,0.232,2.119,0.697,2.891c0.465,0.773,1.08,1.421,1.845,1.946
			c0.765,0.525,1.631,0.968,2.599,1.328c0.967,0.36,1.961,0.709,2.981,1.046c1.02,0.337,2.014,0.697,2.981,1.08
			c0.968,0.382,1.834,0.866,2.599,1.451s1.38,1.309,1.845,2.171c0.465,0.863,0.697,1.932,0.697,3.207
			c0,1.305-0.221,2.531-0.664,3.679s-1.088,2.145-1.935,2.993c-0.848,0.847-1.882,1.515-3.105,2.002
			c-1.223,0.487-2.614,0.73-4.174,0.73c-1.065,0-2.029-0.094-2.891-0.281c-0.863-0.187-1.658-0.457-2.385-0.81
			c-0.728-0.352-1.395-0.783-2.002-1.293c-0.607-0.51-1.189-1.087-1.744-1.732l0.292-0.45c0.075-0.075,0.139-0.131,0.191-0.169
			c0.052-0.037,0.131-0.056,0.236-0.056c0.104,0,0.251,0.094,0.438,0.281c0.188,0.188,0.431,0.42,0.731,0.698
			c0.3,0.278,0.66,0.578,1.08,0.9c0.419,0.323,0.918,0.623,1.496,0.9c0.577,0.278,1.245,0.51,2.002,0.698
			c0.757,0.188,1.616,0.281,2.576,0.281c1.365,0,2.588-0.214,3.667-0.642c1.08-0.427,1.991-1.012,2.734-1.755
			s1.309-1.609,1.699-2.599c0.39-0.99,0.585-2.047,0.585-3.172c0-1.2-0.232-2.19-0.697-2.97c-0.465-0.78-1.077-1.432-1.834-1.958
			c-0.757-0.525-1.624-0.963-2.599-1.316c-0.975-0.352-1.969-0.689-2.981-1.012c-1.012-0.322-2.006-0.675-2.981-1.058
			c-0.976-0.382-1.842-0.87-2.599-1.462c-0.758-0.592-1.369-1.328-1.834-2.205c-0.465-0.877-0.697-1.976-0.697-3.296
			c0-1.035,0.194-2.025,0.585-2.97c0.39-0.945,0.956-1.781,1.699-2.509c0.742-0.728,1.657-1.309,2.745-1.744
			c1.088-0.435,2.336-0.653,3.747-0.653c1.59,0,2.996,0.255,4.219,0.765c1.222,0.51,2.366,1.305,3.431,2.385L137.47,18.136z"/>
		<path fill="#FFFFFF" d="M149.304,46.486h-1.237V14.851h1.237V46.486z"/>
		<path fill="#FFFFFF" d="M161.814,14.907c0.075,0.038,0.157,0.116,0.248,0.236l21.6,29.227c-0.015-0.135-0.023-0.27-0.023-0.405
			c0-0.135,0-0.262,0-0.382V14.851h1.08v31.635h-0.518c-0.195,0-0.36-0.09-0.495-0.27l-21.712-29.34
			c0.015,0.15,0.026,0.292,0.034,0.427c0.007,0.135,0.011,0.263,0.011,0.383v28.8h-1.08V14.851h0.562
			C161.641,14.851,161.739,14.87,161.814,14.907z"/>
		<path fill="#FFFFFF" d="M215.048,14.851v1.057H197.61v14.018h14.692v1.035H197.61v14.467h17.482l-0.045,1.058h-18.675V14.851
			H215.048z"/>
		<path fill="#FFFFFF" d="M239.101,18.136c-0.09,0.15-0.218,0.225-0.382,0.225c-0.166,0-0.394-0.146-0.687-0.439
			c-0.293-0.293-0.701-0.619-1.226-0.979s-1.2-0.686-2.025-0.979c-0.825-0.292-1.845-0.438-3.06-0.438
			c-1.23,0-2.321,0.184-3.274,0.551c-0.953,0.367-1.751,0.866-2.396,1.496c-0.646,0.63-1.133,1.354-1.463,2.171
			c-0.33,0.818-0.495,1.676-0.495,2.576c0,1.155,0.232,2.119,0.697,2.891c0.465,0.773,1.08,1.421,1.845,1.946
			c0.765,0.525,1.631,0.968,2.599,1.328c0.967,0.36,1.961,0.709,2.981,1.046c1.02,0.337,2.014,0.697,2.981,1.08
			c0.968,0.382,1.834,0.866,2.599,1.451c0.765,0.585,1.38,1.309,1.845,2.171c0.465,0.863,0.697,1.932,0.697,3.207
			c0,1.305-0.221,2.531-0.664,3.679c-0.443,1.148-1.088,2.145-1.935,2.993c-0.848,0.847-1.882,1.515-3.105,2.002
			c-1.223,0.487-2.614,0.73-4.174,0.73c-1.065,0-2.029-0.094-2.891-0.281c-0.863-0.187-1.658-0.457-2.385-0.81
			c-0.728-0.352-1.395-0.783-2.002-1.293c-0.607-0.51-1.189-1.087-1.744-1.732l0.292-0.45c0.075-0.075,0.139-0.131,0.191-0.169
			c0.052-0.037,0.131-0.056,0.236-0.056c0.104,0,0.251,0.094,0.438,0.281c0.188,0.188,0.431,0.42,0.731,0.698
			c0.3,0.278,0.66,0.578,1.08,0.9c0.419,0.323,0.918,0.623,1.496,0.9c0.577,0.278,1.245,0.51,2.002,0.698
			c0.757,0.188,1.616,0.281,2.576,0.281c1.365,0,2.588-0.214,3.667-0.642c1.08-0.427,1.991-1.012,2.734-1.755
			c0.743-0.743,1.309-1.609,1.699-2.599c0.39-0.99,0.585-2.047,0.585-3.172c0-1.2-0.232-2.19-0.697-2.97
			c-0.465-0.78-1.077-1.432-1.834-1.958c-0.757-0.525-1.624-0.963-2.599-1.316c-0.975-0.352-1.969-0.689-2.981-1.012
			c-1.012-0.322-2.006-0.675-2.981-1.058c-0.976-0.382-1.842-0.87-2.599-1.462c-0.758-0.592-1.369-1.328-1.834-2.205
			c-0.465-0.877-0.697-1.976-0.697-3.296c0-1.035,0.194-2.025,0.585-2.97c0.39-0.945,0.956-1.781,1.699-2.509
			c0.742-0.728,1.657-1.309,2.745-1.744c1.088-0.435,2.336-0.653,3.747-0.653c1.59,0,2.996,0.255,4.219,0.765
			c1.222,0.51,2.366,1.305,3.431,2.385L239.101,18.136z"/>
		<path fill="#FFFFFF" d="M264.638,18.136c-0.09,0.15-0.218,0.225-0.382,0.225c-0.166,0-0.394-0.146-0.687-0.439
			s-0.701-0.619-1.226-0.979c-0.525-0.36-1.2-0.686-2.025-0.979c-0.825-0.292-1.845-0.438-3.06-0.438
			c-1.23,0-2.321,0.184-3.274,0.551c-0.953,0.367-1.751,0.866-2.396,1.496c-0.646,0.63-1.133,1.354-1.463,2.171
			c-0.33,0.818-0.495,1.676-0.495,2.576c0,1.155,0.232,2.119,0.697,2.891c0.465,0.773,1.08,1.421,1.845,1.946
			c0.765,0.525,1.631,0.968,2.599,1.328c0.967,0.36,1.961,0.709,2.981,1.046c1.02,0.337,2.014,0.697,2.981,1.08
			c0.968,0.382,1.834,0.866,2.599,1.451s1.38,1.309,1.845,2.171c0.465,0.863,0.697,1.932,0.697,3.207
			c0,1.305-0.221,2.531-0.664,3.679s-1.088,2.145-1.935,2.993c-0.848,0.847-1.882,1.515-3.105,2.002
			c-1.223,0.487-2.614,0.73-4.174,0.73c-1.065,0-2.029-0.094-2.891-0.281c-0.863-0.187-1.658-0.457-2.385-0.81
			c-0.728-0.352-1.395-0.783-2.002-1.293c-0.607-0.51-1.189-1.087-1.744-1.732l0.292-0.45c0.075-0.075,0.139-0.131,0.191-0.169
			c0.052-0.037,0.131-0.056,0.236-0.056c0.104,0,0.251,0.094,0.438,0.281c0.188,0.188,0.431,0.42,0.731,0.698
			c0.3,0.278,0.66,0.578,1.08,0.9c0.419,0.323,0.918,0.623,1.496,0.9c0.577,0.278,1.245,0.51,2.002,0.698
			c0.757,0.188,1.616,0.281,2.576,0.281c1.365,0,2.588-0.214,3.667-0.642c1.08-0.427,1.991-1.012,2.734-1.755
			s1.309-1.609,1.699-2.599c0.39-0.99,0.585-2.047,0.585-3.172c0-1.2-0.232-2.19-0.697-2.97c-0.465-0.78-1.077-1.432-1.834-1.958
			c-0.757-0.525-1.624-0.963-2.599-1.316c-0.975-0.352-1.969-0.689-2.981-1.012c-1.012-0.322-2.006-0.675-2.981-1.058
			c-0.976-0.382-1.842-0.87-2.599-1.462c-0.758-0.592-1.369-1.328-1.834-2.205c-0.465-0.877-0.697-1.976-0.697-3.296
			c0-1.035,0.194-2.025,0.585-2.97c0.39-0.945,0.956-1.781,1.699-2.509c0.742-0.728,1.657-1.309,2.745-1.744
			c1.088-0.435,2.336-0.653,3.747-0.653c1.59,0,2.996,0.255,4.219,0.765c1.222,0.51,2.366,1.305,3.431,2.385L264.638,18.136z"/>
		<path fill="#FFFFFF" d="M290.67,46.486h-1.237V14.851h1.237V46.486z"/>
		<path fill="#FFFFFF" d="M303.179,14.907c0.073,0.038,0.157,0.116,0.247,0.236l21.601,29.227c-0.017-0.135-0.022-0.27-0.022-0.405
			c0-0.135,0-0.262,0-0.382V14.851h1.08v31.635h-0.519c-0.194,0-0.358-0.09-0.494-0.27l-21.713-29.34
			c0.017,0.15,0.024,0.292,0.033,0.427c0.008,0.135,0.012,0.263,0.012,0.383v28.8h-1.08V14.851h0.562
			C303.006,14.851,303.103,14.87,303.179,14.907z"/>
		<path fill="#FFFFFF" d="M373.65,46.486h-0.969c-0.226,0-0.39-0.127-0.494-0.382l-4.117-10.013h-16.245l-4.117,10.013
			c-0.074,0.255-0.246,0.382-0.519,0.382h-0.922l13.096-31.635h1.191L373.65,46.486z M352.23,35.146h15.435l-7.244-17.618
			c-0.074-0.21-0.154-0.42-0.236-0.63s-0.162-0.442-0.236-0.698c-0.074,0.255-0.154,0.488-0.236,0.698s-0.159,0.42-0.235,0.63
			L352.23,35.146z"/>
		<path fill="#FFFFFF" d="M396.487,39.286c0.059-0.135,0.119-0.273,0.18-0.416s0.127-0.289,0.203-0.439l13.32-23.287
			c0.072-0.12,0.15-0.199,0.234-0.236c0.082-0.038,0.184-0.056,0.303-0.056h0.742v31.635h-1.08V17.551c0-0.104,0-0.217,0-0.337
			s0.01-0.24,0.023-0.36l-13.275,23.265c-0.148,0.255-0.33,0.383-0.541,0.383h-0.225c-0.225,0-0.412-0.127-0.562-0.383
			l-13.681-23.31c0.017,0.121,0.025,0.244,0.033,0.372c0.008,0.128,0.012,0.251,0.012,0.371v28.935h-1.079V14.851h0.741
			c0.121,0,0.224,0.019,0.306,0.056c0.082,0.037,0.16,0.116,0.235,0.236l13.727,23.31L396.487,39.286z"/>
		<path fill="#FFFFFF" d="M441.799,14.851v1.057h-17.438v14.018h14.693v1.035h-14.693v14.467h17.482l-0.045,1.058h-18.674V14.851
			H441.799z"/>
		<path fill="#FFFFFF" d="M452.151,31.591v14.895h-1.236V14.851h7.627c3.436,0,6.045,0.667,7.83,2.002s2.678,3.36,2.678,6.075
			c0,1.245-0.232,2.378-0.697,3.397c-0.465,1.021-1.119,1.901-1.959,2.644c-0.84,0.742-1.859,1.331-3.059,1.766
			c-1.201,0.435-2.527,0.697-3.982,0.788c0.27,0.15,0.531,0.375,0.787,0.675l11.768,14.288h-1.014c-0.164,0-0.311-0.022-0.438-0.067
			c-0.129-0.045-0.252-0.15-0.371-0.315l-11.16-13.658c-0.121-0.165-0.244-0.3-0.371-0.405c-0.129-0.105-0.27-0.191-0.428-0.259
			c-0.158-0.068-0.346-0.116-0.563-0.146c-0.219-0.03-0.484-0.045-0.799-0.045H452.151z M452.151,30.646h6.029
			c1.484,0,2.822-0.176,4.018-0.529c1.193-0.353,2.205-0.862,3.037-1.53c0.832-0.667,1.471-1.474,1.91-2.418
			c0.443-0.945,0.664-2.01,0.664-3.195c0-2.444-0.795-4.245-2.385-5.4c-1.59-1.155-3.885-1.732-6.885-1.732h-6.391v14.804H452.151z"
			/>
		<path fill="#FFFFFF" d="M480.633,46.486h-1.234V14.851h1.234V46.486z"/>
		<path fill="#FFFFFF" d="M515.442,41.783c0.061,0,0.143,0.038,0.248,0.113l0.473,0.495c-0.66,0.661-1.373,1.264-2.137,1.812
			c-0.768,0.548-1.605,1.016-2.521,1.406c-0.914,0.39-1.916,0.694-3.004,0.911c-1.088,0.217-2.283,0.326-3.588,0.326
			c-2.146,0-4.121-0.378-5.93-1.136c-1.809-0.757-3.363-1.837-4.668-3.24c-1.307-1.402-2.326-3.101-3.063-5.096
			c-0.734-1.995-1.102-4.23-1.102-6.705c0-2.415,0.367-4.616,1.102-6.604c0.734-1.987,1.773-3.69,3.117-5.107
			c1.342-1.417,2.947-2.516,4.814-3.296c1.867-0.78,3.926-1.17,6.176-1.17c2.115,0,3.99,0.323,5.625,0.968s3.158,1.575,4.568,2.79
			l-0.338,0.495c-0.061,0.105-0.18,0.158-0.359,0.158c-0.09,0-0.244-0.083-0.461-0.248c-0.219-0.165-0.504-0.371-0.855-0.619
			c-0.354-0.248-0.781-0.518-1.283-0.81s-1.092-0.562-1.766-0.81c-0.676-0.248-1.439-0.454-2.295-0.619s-1.801-0.248-2.836-0.248
			c-2.039,0-3.914,0.353-5.625,1.058c-1.709,0.705-3.18,1.71-4.41,3.015c-1.229,1.305-2.186,2.892-2.867,4.759
			c-0.684,1.868-1.025,3.964-1.025,6.289c0,2.37,0.344,4.489,1.025,6.356c0.682,1.868,1.631,3.45,2.846,4.748
			c1.215,1.298,2.646,2.292,4.297,2.981c1.652,0.689,3.443,1.035,5.377,1.035c1.219,0,2.305-0.083,3.266-0.248
			c0.959-0.165,1.842-0.413,2.643-0.743c0.803-0.33,1.545-0.735,2.229-1.215c0.682-0.48,1.361-1.027,2.037-1.643
			C515.252,41.836,515.35,41.783,515.442,41.783z"/>
		<path fill="#FFFFFF" d="M547.682,46.486h-0.967c-0.225,0-0.391-0.127-0.494-0.382l-4.119-10.013H525.86l-4.117,10.013
			c-0.076,0.255-0.248,0.382-0.52,0.382h-0.924l13.098-31.635h1.191L547.682,46.486z M526.262,35.146H541.7l-7.244-17.618
			c-0.076-0.21-0.154-0.42-0.236-0.63c-0.084-0.21-0.162-0.442-0.236-0.698c-0.076,0.255-0.154,0.488-0.236,0.698
			c-0.084,0.21-0.162,0.42-0.236,0.63L526.262,35.146z"/>
	</g>
	<g>
		<path fill="#FFFFFF" d="M226.728,73.667v20.219h-2.189V73.667H226.728z M225.348,74.478v18.569h0.57V74.478H225.348z"/>
		<path fill="#FFFFFF" d="M235.729,73.667v18.029h4.59v2.19h-6.75V73.667H235.729z M234.918,74.478h-0.54v18.569h5.13v-0.51h-4.59
			V74.478L234.918,74.478z"/>
		<path fill="#FFFFFF" d="M249.168,73.667v18.029h4.59v2.19h-6.75V73.667H249.168z M248.358,74.478h-0.54v18.569h5.13v-0.51h-4.59
			V74.478L248.358,74.478z"/>
		<path fill="#FFFFFF" d="M269.329,88.757c0,3.15-1.71,5.31-5.01,5.31c-3.271,0-4.95-2.16-4.98-5.31V73.638h2.22v14.969
			c0,1.86,0.87,3.27,2.761,3.27c1.92,0,2.789-1.41,2.789-3.27V73.638h2.221L269.329,88.757L269.329,88.757z M260.208,88.757
			c0,2.64,1.38,4.47,4.11,4.47c2.729,0,4.169-1.83,4.169-4.47V74.478h-0.539v14.129c0,2.34-1.141,4.11-3.63,4.11
			c-2.46,0-3.601-1.77-3.601-4.11V74.478h-0.51L260.208,88.757L260.208,88.757z"/>
		<path fill="#FFFFFF" d="M280.758,82.997c1.949,1.74,3.899,3.54,3.899,6.03c0,3.18-1.56,5.04-4.8,5.04c-3.75,0-4.71-2.46-4.71-7.08
			h2.19c0,2.79,0.3,4.89,2.52,4.89c1.74,0,2.61-1.08,2.61-2.82c0-1.59-1.591-3.09-2.851-4.14l0.03,0.03
			c-2.01-1.44-4.32-3.78-4.32-6.54c0-2.79,1.771-4.95,4.681-4.95c4.05,0,4.47,3.03,4.47,6.81h-2.19c0-2.34-0.149-4.62-2.279-4.62
			c-1.65,0-2.49,1.32-2.49,2.91c0,1.65,1.62,3.03,3.24,4.47V82.997L280.758,82.997z M275.958,87.827c0,3.3,0.869,5.399,3.899,5.399
			c2.7,0,3.99-1.53,3.99-4.2c0-4.38-7.17-6.39-7.17-10.47c0-2.04,1.14-3.75,3.33-3.75c2.909,0,3.09,2.58,3.119,4.65h0.511
			c0-3.12-0.631-5.19-3.63-5.19c-2.4,0-3.84,1.83-3.84,4.14c0,2.43,2.13,4.53,3.989,5.88h-0.03c1.41,1.17,3.181,3.09,3.181,4.77
			c0,2.28-1.141,3.66-3.45,3.66c-2.97,0-3.33-2.85-3.33-4.89L275.958,87.827L275.958,87.827z"/>
		<path fill="#FFFFFF" d="M295.848,93.857h-2.19V75.828h-3.359v-2.19h8.909v2.19h-3.359L295.848,93.857L295.848,93.857z
			 M294.467,75.018v18.029h0.57V75.018h3.36v-0.54h-7.26v0.54H294.467z"/>
		<path fill="#FFFFFF" d="M309.885,73.667c3.871,0,4.771,2.31,4.771,5.67c0,1.53-0.271,3.33-1.38,4.44
			c0.931,0.87,1.261,2.37,1.261,3.72v6.39h-2.19v-6.3c0-1.86-0.63-2.64-2.521-2.64h-2.07v8.938h-2.188V73.667H309.885z
			 M313.726,87.497c0-1.59-0.39-3.24-2.188-3.66c1.979-0.6,2.279-2.7,2.279-4.5c0-2.85-0.75-4.86-3.931-4.86h-3.511v18.569h0.57
			v-8.94h2.881c2.52,0,3.33,1.05,3.33,3.48v5.46h0.568L313.726,87.497L313.726,87.497z M309.767,75.047c2.938,0,3.51,1.74,3.51,4.29
			c0,2.85-0.75,4.23-3.78,4.23h-2.549v-8.52H309.767z M309.497,82.727c2.371,0,2.94-1.11,2.94-3.39c0-2.07-0.42-3.48-2.67-3.48
			h-2.011v6.87H309.497z"/>
		<path fill="#FFFFFF" d="M327.467,73.667l4.591,20.219h-2.25l-1.261-5.79h-3.84l-1.351,5.79h-2.25l4.62-20.219H327.467z
			 M330.499,93.047h0.539l-4.229-18.569h-0.42l-4.26,18.569h0.568l1.29-5.76h5.22L330.499,93.047z M326.598,75.857l2.488,10.89
			h-4.979L326.598,75.857z M326.598,79.517l-1.439,6.42h2.879L326.598,79.517z"/>
		<path fill="#FFFFFF" d="M340.728,93.857h-2.19V75.828h-3.358v-2.19h8.909v2.19h-3.359L340.728,93.857L340.728,93.857z
			 M339.347,75.018v18.029h0.569V75.018h3.36v-0.54h-7.26v0.54H339.347z"/>
		<path fill="#FFFFFF" d="M356.836,82.727v2.19h-3.961v6.78h5.939v2.19h-8.1v-20.22h8.1v2.16h-5.939v6.899L356.836,82.727
			L356.836,82.727z M351.557,93.047h6.419v-0.51h-5.909v-8.459h3.96v-0.51h-3.96v-8.55h5.909v-0.54h-6.419V93.047z"/>
		<path fill="#FFFFFF" d="M369.436,73.667c3.66,0,5.01,2.52,5.01,5.76v8.7c0,3.27-1.318,5.76-5.01,5.76h-4.318v-20.22H369.436z
			 M369.436,93.047c3.09,0,4.17-2.1,4.17-4.92v-8.7c0-2.76-1.109-4.95-4.17-4.95h-3.479v18.569L369.436,93.047L369.436,93.047z
			 M369.226,75.018c2.851,0,3.87,1.98,3.87,4.56v8.4c0,2.58-1.02,4.56-3.87,4.56h-2.761v-17.52H369.226z M369.226,91.697
			c2.25,0,3.03-1.62,3.03-3.72v-8.4c0-2.1-0.78-3.75-3.03-3.75h-1.92v15.869h1.92V91.697z"/>
	</g>
	<g>
		<path fill="#FFFFFF" d="M146.82,237.748l3.107-20.58h3.696l3.108,20.58h-2.94l-0.56-4.201h-2.912l-0.561,4.201H146.82z
			 M151.944,223.858l-0.084-0.53h-0.168l-0.084,0.53l-0.868,6.496h2.071L151.944,223.858z"/>
		<path fill="#FFFFFF" d="M174.483,217.167h2.939l-3.136,20.58h-3.024l-3.136-20.58h2.94l1.512,11.312l0.112,0.868h0.168
			l0.111-0.868L174.483,217.167z"/>
		<path fill="#FFFFFF" d="M182.185,217.167h3.023v20.58h-3.023V217.167z"/>
		<path fill="#FFFFFF" d="M195.708,222.683c0-0.672-0.028-1.428-0.224-2.016c-0.196-0.562-0.504-0.953-0.98-0.953
			c-0.784,0.029-1.036,0.841-1.036,2.045c0,0.699,0.309,1.428,0.757,2.212c0.447,0.784,1.035,1.596,1.623,2.464
			c0.7,1.036,1.4,2.1,1.933,3.137c0.532,1.035,0.896,2.1,0.896,3.219c0,1.373-0.224,2.66-0.867,3.612
			c-0.645,0.952-1.681,1.568-3.332,1.568c-1.933,0-3.024-0.728-3.641-1.849c-0.616-1.119-0.756-2.604-0.756-4.145l2.968-0.279
			c0,0.867,0.028,1.735,0.252,2.381c0.196,0.672,0.532,1.119,1.177,1.119c0.896,0,1.231-0.951,1.231-2.269
			c0-0.673-0.336-1.456-0.784-2.269c-0.252-0.393-0.504-0.812-0.783-1.231c-0.589-0.841-1.232-1.792-1.904-2.828
			c-0.672-1.036-1.176-2.101-1.484-3.19c-0.168-0.533-0.252-1.093-0.252-1.652c0-1.12,0.252-2.324,0.896-3.248
			c0.644-0.896,1.624-1.54,3.052-1.568c1.82-0.027,2.884,0.729,3.472,1.82c0.588,1.119,0.756,2.492,0.756,3.641L195.708,222.683z"/>
		<path fill="#FFFFFF" d="M211.613,217.167v16.352c-0.028,0.84-0.196,1.596-0.504,2.24c-0.252,0.56-0.645,1.092-1.204,1.512
			c-0.561,0.447-1.316,0.7-2.324,0.7s-1.792-0.253-2.352-0.7c-0.561-0.42-0.925-0.952-1.177-1.512
			c-0.308-0.645-0.476-1.4-0.504-2.24v-16.352h3.024v16.352c0,0.588,0.14,0.98,0.42,1.288c0.14,0.14,0.336,0.224,0.588,0.224
			c0.532,0,0.784-0.336,0.896-0.756c0.084-0.195,0.112-0.447,0.112-0.756v-16.352H211.613z"/>
		<path fill="#FFFFFF" d="M216.121,237.748l3.107-20.58h3.696l3.108,20.58h-2.94l-0.56-4.201h-2.912l-0.561,4.201H216.121z
			 M221.245,223.858l-0.084-0.53h-0.168l-0.084,0.53l-0.868,6.496h2.071L221.245,223.858z"/>
		<path fill="#FFFFFF" d="M230.809,217.167h3.023v17.778h4.005v2.802h-7.028V217.167z"/>
		<path fill="#FFFFFF" d="M254.776,224.559v-3.164c0-0.56-0.112-0.952-0.392-1.288c-0.141-0.141-0.364-0.225-0.616-0.225
			c-0.532,0-0.784,0.393-0.896,0.757c-0.084,0.224-0.111,0.476-0.111,0.756v12.376c0,0.588,0.14,0.98,0.42,1.288
			c0.14,0.14,0.336,0.224,0.588,0.224c0.532,0,0.784-0.336,0.896-0.756c0.084-0.195,0.112-0.447,0.112-0.756v-3.725h-1.204V227.5
			h4.229v10.248h-1.792l-0.364-0.98c-0.56,0.699-1.372,1.204-2.353,1.204c-0.979,0-1.651-0.253-2.155-0.7
			c-0.504-0.42-0.84-0.952-1.064-1.512c-0.252-0.645-0.364-1.4-0.336-2.24v-12.124c0.028-0.812,0.196-1.567,0.504-2.212
			c0.252-0.561,0.616-1.12,1.176-1.54c0.561-0.42,1.345-0.7,2.353-0.7s1.764,0.28,2.324,0.7c0.56,0.42,0.952,0.979,1.204,1.54
			c0.308,0.645,0.476,1.4,0.504,2.212v3.164H254.776z"/>
		<path fill="#FFFFFF" d="M271.024,217.167v16.352c-0.028,0.84-0.196,1.596-0.504,2.24c-0.252,0.56-0.645,1.092-1.204,1.512
			c-0.561,0.447-1.316,0.7-2.324,0.7c-1.008,0-1.792-0.253-2.352-0.7c-0.561-0.42-0.925-0.952-1.177-1.512
			c-0.308-0.645-0.476-1.4-0.504-2.24v-16.352h3.024v16.352c0,0.588,0.14,0.98,0.42,1.288c0.14,0.14,0.336,0.224,0.588,0.224
			c0.532,0,0.784-0.336,0.896-0.756c0.084-0.195,0.112-0.447,0.112-0.756v-16.352H271.024z"/>
		<path fill="#FFFFFF" d="M276.232,217.167h3.023v20.58h-3.023V217.167z"/>
		<path fill="#FFFFFF" d="M284.472,237.748v-20.58h2.38c2.8,0,4.312,0.56,5.124,2.127c0.784,1.567,0.896,4.145,0.896,8.177
			s-0.111,6.579-0.896,8.147c-0.812,1.567-2.324,2.129-5.124,2.129H284.472z M287.496,234.723c1.036,0,1.624-0.112,1.933-1.12
			c0.14-0.477,0.252-1.204,0.28-2.184c0.027-0.98,0.027-2.297,0.027-3.978c0-1.68,0-2.996-0.027-3.976
			c-0.028-0.952-0.141-1.682-0.28-2.186c-0.309-0.979-0.896-1.092-1.933-1.092V234.723z"/>
		<path fill="#FFFFFF" d="M297.949,217.167h6.917v3.106h-3.894v5.404h2.801v3.304h-2.801v5.656h3.894v3.107h-6.917V217.167z"/>
		<path fill="#FFFFFF" d="M316.342,220.274v-3.106h8.736v3.106h-2.855v17.474H319.2v-17.474H316.342L316.342,220.274z"/>
		<path fill="#FFFFFF" d="M337.702,233.519c-0.027,0.84-0.195,1.596-0.504,2.24c-0.252,0.56-0.645,1.092-1.203,1.512
			c-0.562,0.447-1.316,0.7-2.324,0.7s-1.793-0.253-2.354-0.7c-0.561-0.42-0.924-0.952-1.176-1.512
			c-0.309-0.645-0.477-1.4-0.504-2.24v-12.124c0.027-0.812,0.195-1.567,0.504-2.212c0.252-0.561,0.615-1.12,1.176-1.54
			s1.346-0.7,2.354-0.7s1.764,0.28,2.324,0.7c0.56,0.42,0.951,0.979,1.203,1.54c0.309,0.645,0.477,1.4,0.504,2.212V233.519z
			 M334.676,221.395c0-0.56-0.111-0.952-0.391-1.288c-0.142-0.141-0.365-0.225-0.617-0.225c-0.531,0-0.783,0.393-0.896,0.757
			c-0.084,0.224-0.11,0.476-0.11,0.756v12.124c0,0.588,0.14,0.98,0.42,1.288c0.14,0.14,0.336,0.224,0.588,0.224
			c0.531,0,0.783-0.336,0.896-0.756c0.084-0.195,0.112-0.447,0.112-0.756v-12.124H334.676z"/>
		<path fill="#FFFFFF" d="M350.61,237.748v-20.58h2.66c1.792,0,3.191,0.336,4.115,1.203c0.925,0.869,1.4,2.213,1.4,4.256
			c0,0.979-0.084,1.709-0.393,2.381s-0.784,1.231-1.484,1.875c0.756,0.42,1.316,1.205,1.764,2.521
			c0.226,0.643,0.336,1.483,0.336,2.52c0,1.539-0.278,2.912-0.979,3.977c-0.699,1.064-1.904,1.766-3.695,1.85h-3.725V237.748z
			 M353.633,225.65c0.252,0,0.841,0.027,1.345-0.309s0.896-1.008,0.896-2.436c0-1.429-0.392-2.101-0.896-2.438
			c-0.504-0.336-1.093-0.307-1.345-0.307V225.65z M353.633,234.751c0.252,0,0.841,0.056,1.345-0.31
			c0.504-0.362,0.896-1.176,0.896-2.854c0-1.68-0.392-2.492-0.896-2.856s-1.093-0.308-1.345-0.308V234.751z"/>
		<path fill="#FFFFFF" d="M372.03,217.167v16.352c-0.027,0.84-0.195,1.596-0.504,2.24c-0.252,0.56-0.645,1.092-1.204,1.512
			c-0.562,0.447-1.315,0.7-2.323,0.7s-1.793-0.253-2.353-0.7c-0.562-0.42-0.925-0.952-1.177-1.512
			c-0.309-0.645-0.477-1.4-0.504-2.24v-16.352h3.023v16.352c0,0.588,0.141,0.98,0.42,1.288c0.141,0.14,0.336,0.224,0.588,0.224
			c0.532,0,0.785-0.336,0.896-0.756c0.084-0.195,0.111-0.447,0.111-0.756v-16.352H372.03z"/>
		<path fill="#FFFFFF" d="M382.53,222.683c0-0.672-0.027-1.428-0.224-2.016c-0.196-0.562-0.505-0.953-0.979-0.953
			c-0.785,0.029-1.037,0.841-1.037,2.045c0,0.699,0.31,1.428,0.758,2.212c0.447,0.784,1.035,1.596,1.623,2.464
			c0.699,1.036,1.399,2.1,1.933,3.137c0.532,1.035,0.896,2.1,0.896,3.219c0,1.373-0.224,2.66-0.867,3.612
			c-0.645,0.952-1.68,1.568-3.332,1.568c-1.932,0-3.023-0.728-3.641-1.849c-0.615-1.119-0.756-2.604-0.756-4.145l2.969-0.279
			c0,0.867,0.027,1.735,0.252,2.381c0.195,0.672,0.531,1.119,1.176,1.119c0.896,0,1.231-0.951,1.231-2.269
			c0-0.673-0.336-1.456-0.784-2.269c-0.252-0.393-0.504-0.812-0.783-1.231c-0.588-0.841-1.231-1.792-1.903-2.828
			s-1.177-2.101-1.483-3.19c-0.168-0.533-0.253-1.093-0.253-1.652c0-1.12,0.253-2.324,0.896-3.248
			c0.645-0.896,1.625-1.54,3.053-1.568c1.82-0.027,2.884,0.729,3.473,1.82c0.588,1.119,0.756,2.492,0.756,3.641L382.53,222.683z"/>
		<path fill="#FFFFFF" d="M390.383,217.167h3.023v20.58h-3.023V217.167z"/>
		<path fill="#FFFFFF" d="M401.815,227.022l-0.252-0.951h-0.168v11.677h-2.771v-20.58h2.688l2.941,10.724l0.252,0.952h0.168v-11.676
			h2.771v20.58h-2.688L401.815,227.022z"/>
		<path fill="#FFFFFF" d="M412.678,217.167h6.916v3.106h-3.893v5.404h2.801v3.304h-2.801v5.656h3.893v3.107h-6.916V217.167z"/>
		<path fill="#FFFFFF" d="M429.764,222.683c0-0.672-0.027-1.428-0.225-2.016c-0.195-0.562-0.504-0.953-0.98-0.953
			c-0.783,0.029-1.035,0.841-1.035,2.045c0,0.699,0.309,1.428,0.758,2.212c0.445,0.784,1.035,1.596,1.623,2.464
			c0.699,1.036,1.398,2.1,1.932,3.137c0.533,1.035,0.896,2.1,0.896,3.219c0,1.373-0.225,2.66-0.867,3.612
			c-0.645,0.952-1.682,1.568-3.332,1.568c-1.934,0-3.023-0.728-3.641-1.849c-0.615-1.119-0.756-2.604-0.756-4.145l2.967-0.279
			c0,0.867,0.029,1.735,0.254,2.381c0.195,0.672,0.531,1.119,1.176,1.119c0.896,0,1.23-0.951,1.23-2.269
			c0-0.673-0.336-1.456-0.783-2.269c-0.252-0.393-0.504-0.812-0.783-1.231c-0.588-0.841-1.232-1.792-1.904-2.828
			s-1.176-2.101-1.484-3.19c-0.168-0.533-0.252-1.093-0.252-1.652c0-1.12,0.252-2.324,0.896-3.248
			c0.645-0.896,1.625-1.54,3.053-1.568c1.82-0.027,2.883,0.729,3.471,1.82c0.59,1.119,0.758,2.492,0.758,3.641L429.764,222.683z"/>
		<path fill="#FFFFFF" d="M442.946,222.683c0-0.672-0.027-1.428-0.225-2.016c-0.195-0.562-0.504-0.953-0.979-0.953
			c-0.785,0.029-1.037,0.841-1.037,2.045c0,0.699,0.309,1.428,0.758,2.212c0.447,0.784,1.035,1.596,1.623,2.464
			c0.699,1.036,1.4,2.1,1.932,3.137c0.533,1.035,0.896,2.1,0.896,3.219c0,1.373-0.223,2.66-0.867,3.612s-1.68,1.568-3.332,1.568
			c-1.932,0-3.023-0.728-3.641-1.849c-0.615-1.119-0.756-2.604-0.756-4.145l2.969-0.279c0,0.867,0.027,1.735,0.252,2.381
			c0.195,0.672,0.531,1.119,1.176,1.119c0.896,0,1.232-0.951,1.232-2.269c0-0.673-0.336-1.456-0.785-2.269
			c-0.252-0.393-0.504-0.812-0.783-1.231c-0.588-0.841-1.23-1.792-1.904-2.828c-0.672-1.036-1.176-2.101-1.482-3.19
			c-0.168-0.533-0.252-1.093-0.252-1.652c0-1.12,0.252-2.324,0.895-3.248c0.645-0.896,1.625-1.54,3.053-1.568
			c1.82-0.027,2.885,0.729,3.473,1.82c0.588,1.119,0.756,2.492,0.756,3.641L442.946,222.683z"/>
		<path fill="#FFFFFF" d="M453.454,237.748l-1.539,3.64h-1.4l0.98-3.64h-0.98v-3.108h2.939V237.748z"/>
		<path fill="#FFFFFF" d="M167.566,249.274v-3.106h8.736v3.106h-2.856v17.474h-3.023v-17.474H167.566L167.566,249.274z"/>
		<path fill="#FFFFFF" d="M179.24,266.748l3.107-20.58h3.696l3.108,20.58h-2.94l-0.56-4.201h-2.912l-0.561,4.201H179.24z
			 M184.364,252.858l-0.084-0.53h-0.168l-0.084,0.53l-0.868,6.496h2.071L184.364,252.858z"/>
		<path fill="#FFFFFF" d="M196.462,266.748h-2.969l3.332-10.81l-3.275-9.771h2.968l1.652,5.207l0.084,0.252h0.111l0.084-0.252
			l1.652-5.207h2.968l-3.275,9.771l3.331,10.81h-2.968l-1.735-6.133l-0.057-0.253h-0.111l-0.057,0.253L196.462,266.748z"/>
		<path fill="#FFFFFF" d="M207.876,246.167h6.916v3.106H210.9v5.404h2.801v3.304H210.9v5.656h3.893v3.107h-6.916L207.876,246.167
			L207.876,246.167z"/>
		<path fill="#FFFFFF" d="M224.961,251.683c0-0.672-0.028-1.428-0.224-2.016c-0.196-0.562-0.504-0.953-0.98-0.953
			c-0.784,0.029-1.036,0.841-1.036,2.045c0,0.699,0.309,1.428,0.757,2.212c0.447,0.784,1.035,1.596,1.624,2.464
			c0.699,1.036,1.399,2.1,1.932,3.137c0.532,1.035,0.896,2.1,0.896,3.219c0,1.373-0.224,2.66-0.867,3.612
			c-0.645,0.952-1.681,1.568-3.332,1.568c-1.933,0-3.024-0.728-3.641-1.849c-0.616-1.119-0.756-2.604-0.756-4.145l2.968-0.279
			c0,0.867,0.028,1.735,0.252,2.381c0.196,0.672,0.532,1.119,1.177,1.119c0.896,0,1.231-0.951,1.231-2.269
			c0-0.673-0.336-1.456-0.784-2.269c-0.252-0.393-0.504-0.812-0.783-1.231c-0.589-0.841-1.232-1.792-1.904-2.828
			c-0.672-1.036-1.176-2.101-1.484-3.19c-0.168-0.533-0.252-1.093-0.252-1.652c0-1.12,0.252-2.324,0.896-3.248
			c0.644-0.896,1.624-1.54,3.052-1.568c1.82-0.027,2.884,0.729,3.472,1.82c0.588,1.119,0.756,2.492,0.756,3.641L224.961,251.683z"/>
		<path fill="#FFFFFF" d="M235.466,266.748l-1.54,3.64h-1.399l0.979-3.64h-0.979v-3.108h2.939V266.748z"/>
		<path fill="#FFFFFF" d="M247.282,266.748l3.107-20.58h3.696l3.108,20.58h-2.94l-0.56-4.201h-2.912l-0.561,4.201H247.282z
			 M252.406,252.858l-0.084-0.53h-0.168l-0.084,0.53l-0.868,6.496h2.072L252.406,252.858z"/>
		<path fill="#FFFFFF" d="M265.162,256.022l-0.252-0.951h-0.168v11.677h-2.771v-20.58h2.688l2.94,10.724l0.252,0.952h0.168v-11.676
			h2.772v20.58h-2.688L265.162,256.022z"/>
		<path fill="#FFFFFF" d="M276.026,266.748v-20.58h2.38c2.8,0,4.312,0.56,5.124,2.127c0.784,1.567,0.896,4.145,0.896,8.177
			s-0.111,6.579-0.896,8.147c-0.812,1.567-2.324,2.129-5.124,2.129H276.026z M279.049,263.723c1.036,0,1.624-0.112,1.933-1.12
			c0.14-0.477,0.252-1.204,0.28-2.184c0.027-0.98,0.027-2.297,0.027-3.978c0-1.68,0-2.996-0.027-3.976
			c-0.028-0.952-0.141-1.682-0.28-2.186c-0.309-0.979-0.896-1.092-1.933-1.092V263.723z"/>
		<path fill="#FFFFFF" d="M296.241,249.274v-3.106h8.736v3.106h-2.855v17.474h-3.023v-17.474H296.241L296.241,249.274z"/>
		<path fill="#FFFFFF" d="M315.021,257.787h-2.353v8.961h-3.023v-20.58h3.023v8.512h2.353v-8.512h3.022v20.58h-3.022V257.787z"/>
		<path fill="#FFFFFF" d="M323.282,246.167h6.915v3.106h-3.893v5.404h2.801v3.304h-2.801v5.656h3.893v3.107h-6.915V246.167z"/>
		<path fill="#FFFFFF" d="M342.741,246.167h6.915v3.106h-3.893v5.404h2.801v3.304h-2.801v5.656h3.893v3.107h-6.915V246.167z"/>
		<path fill="#FFFFFF" d="M362.524,259.69v2.828c-0.027,0.84-0.195,1.597-0.504,2.239c-0.252,0.561-0.645,1.093-1.204,1.513
			c-0.562,0.448-1.315,0.7-2.323,0.7c-1.009,0-1.793-0.252-2.354-0.7c-0.561-0.42-0.924-0.952-1.176-1.513
			c-0.309-0.645-0.477-1.399-0.504-2.239v-12.124c0.027-0.813,0.195-1.566,0.504-2.212c0.252-0.562,0.615-1.12,1.176-1.54
			s1.345-0.7,2.354-0.7c1.008,0,1.764,0.28,2.323,0.7s0.952,0.979,1.204,1.54c0.309,0.646,0.477,1.399,0.504,2.212v2.828h-2.828
			v-2.828c0-0.561-0.141-0.952-0.447-1.288c-0.141-0.14-0.393-0.224-0.701-0.224c-0.53,0-0.783,0.392-0.924,0.756
			c-0.084,0.224-0.111,0.477-0.14,0.756v12.124c0.026,0.588,0.194,0.979,0.476,1.288c0.142,0.14,0.336,0.224,0.588,0.224
			c0.646,0,0.896-0.336,1.037-0.756c0.084-0.194,0.111-0.446,0.111-0.756v-2.828H362.524L362.524,259.69z"/>
		<path fill="#FFFFFF" d="M375.474,262.519c-0.028,0.84-0.196,1.596-0.504,2.24c-0.253,0.56-0.646,1.092-1.204,1.512
			c-0.561,0.447-1.316,0.7-2.324,0.7s-1.792-0.253-2.354-0.7c-0.56-0.42-0.924-0.952-1.176-1.512c-0.308-0.645-0.476-1.4-0.504-2.24
			v-12.124c0.028-0.812,0.196-1.567,0.504-2.212c0.252-0.561,0.616-1.12,1.176-1.54c0.562-0.42,1.346-0.7,2.354-0.7
			s1.764,0.28,2.324,0.7s0.951,0.979,1.204,1.54c0.308,0.645,0.476,1.4,0.504,2.212V262.519z M372.45,250.395
			c0-0.56-0.111-0.952-0.392-1.288c-0.142-0.141-0.364-0.225-0.616-0.225c-0.531,0-0.783,0.393-0.896,0.757
			c-0.084,0.224-0.11,0.476-0.11,0.756v12.124c0,0.588,0.14,0.98,0.42,1.288c0.14,0.14,0.336,0.224,0.588,0.224
			c0.532,0,0.784-0.336,0.896-0.756c0.084-0.195,0.113-0.447,0.113-0.756v-12.124H372.45z"/>
		<path fill="#FFFFFF" d="M383.784,256.022l-0.252-0.951h-0.168v11.677h-2.771v-20.58h2.688l2.94,10.724l0.252,0.952h0.168v-11.676
			h2.771v20.58h-2.688L383.784,256.022z"/>
		<path fill="#FFFFFF" d="M402.594,262.519c-0.027,0.84-0.195,1.596-0.504,2.24c-0.252,0.56-0.645,1.092-1.205,1.512
			c-0.561,0.447-1.314,0.7-2.324,0.7c-1.008,0-1.791-0.253-2.352-0.7c-0.561-0.42-0.924-0.952-1.176-1.512
			c-0.309-0.645-0.477-1.4-0.505-2.24v-12.124c0.028-0.812,0.196-1.567,0.505-2.212c0.252-0.561,0.615-1.12,1.176-1.54
			s1.344-0.7,2.352-0.7c1.01,0,1.766,0.28,2.324,0.7c0.561,0.42,0.953,0.979,1.205,1.54c0.309,0.645,0.477,1.4,0.504,2.212V262.519z
			 M399.571,250.395c0-0.56-0.113-0.952-0.393-1.288c-0.141-0.141-0.363-0.225-0.615-0.225c-0.533,0-0.785,0.393-0.896,0.757
			c-0.084,0.224-0.111,0.476-0.111,0.756v12.124c0,0.588,0.141,0.98,0.42,1.288c0.141,0.14,0.336,0.224,0.588,0.224
			c0.531,0,0.783-0.336,0.896-0.756c0.084-0.195,0.111-0.447,0.111-0.756V250.395L399.571,250.395z"/>
		<path fill="#FFFFFF" d="M412.723,266.748l-1.932-12.938l-0.111-0.868h-0.168v13.806h-2.801v-20.58h3.697l1.791,9.408l0.141,1.092
			h0.057l0.141-1.092l1.791-9.408h3.695v20.58h-2.801v-13.806h-0.168l-0.111,0.868l-1.932,12.938H412.723z"/>
		<path fill="#FFFFFF" d="M428.254,252.748l0.084,0.194h0.059l0.084-0.194l1.512-6.58h2.967l-3.08,11.814v8.766h-3.021v-8.766
			l-3.08-11.814h2.967L428.254,252.748z"/>
	</g>
	<g>
		<g id="layer1" transform="translate(0,-772.36218)">
			<g id="layer1-1" transform="matrix(0.62181165,0,0,0.62181165,-5.5714286e-4,442.63865)">
				<path id="path4190-2" fill="#FFFFFF" d="M428.333,1081.564c-0.458-0.088-1.132-0.261-1.501-0.39
					c-0.888-0.292-2.395-1.291-3.072-2.035c-0.49-0.763-1.319-1.743-1.576-2.538c-0.075-0.229-0.74-1.724-0.894-2.874
					c-0.36-2.698,0.013-5.644,1.483-7.513c1.616-2.064,3.177-3.129,5.409-3.531c0.817-0.141,2.199-0.176,2.901-0.075
					c0.212,0.031,0.597,0.082,0.854,0.116c2.256,0.292,4.617,2.108,5.768,4.445c0.806,1.63,1.113,2.978,1.113,4.891
					c0,2.645-0.587,4.57-1.953,6.38c-1.151,1.53-2.715,2.572-4.448,2.968C431.221,1081.684,429.313,1081.753,428.333,1081.564
					L428.333,1081.564z M431.977,1078.734c0.281-0.122,0.349-0.138,0.517-0.22c0.161-0.082,0.319-0.17,0.47-0.27
					c0.274-0.188,0.576-0.355,0.779-0.619c0.864-1.093,1.479-2.29,1.762-3.788c0.232-1.225,0.09-3.449-0.302-4.661
					c-0.917-2.839-2.872-4.215-5.702-4.014c-3.008,0.21-4.869,2.525-5.096,6.329c-0.228,3.826,1.54,6.838,4.364,7.441
					C429.558,1079.099,431.386,1078.986,431.977,1078.734L431.977,1078.734z M445.659,1081.552c-1.786-0.333-3.266-1.15-4.127-2.28
					c-0.68-0.892-0.891-1.332-1.185-2.484c-0.23-0.898-0.25-1.451-0.25-7.406v-6.439h1.591h1.592l0.042,6.489
					c-0.009,2.475-0.201,4.778,0.346,7.231c0.356,0.861,1.24,1.74,2.009,1.991c0.771,0.255,2.598,0.333,3.387,0.141
					c1.508-0.352,2.256-1.09,2.689-2.645c0.217-0.785,0.239-1.407,0.239-7.036v-6.172h1.597h1.599v6.423
					c-0.104,3.895,0.609,8.308-2.221,10.755c-1.637,1.344-4.624,1.929-7.304,1.429h-0.004V1081.552z M533.162,1081.602
					c-1.172-0.126-2.544-0.584-3.515-1.165c-0.891-0.537-2.177-1.888-2.788-2.931c-1.101-1.881-1.627-4.51-1.346-6.734
					c0.553-4.385,3.017-7.312,6.816-8.094c1.495-0.308,2.409-0.308,3.892,0.009c3.688,0.776,6.046,3.396,6.748,7.485
					c0.586,3.389-0.432,6.91-2.64,9.125c-1.772,1.775-4.369,2.613-7.168,2.309V1081.602L533.162,1081.602z M536.108,1078.722
					c2.359-0.782,3.728-3.267,3.728-6.756c0-3.188-1.288-5.622-3.435-6.47c-0.997-0.396-2.662-0.481-3.672-0.188
					c-1.663,0.477-2.869,1.674-3.499,3.465c-0.889,2.532-0.661,5.688,0.567,7.793c0.404,0.694,1.398,1.608,2.152,1.966
					C533.049,1079.064,534.838,1079.146,536.108,1078.722z M457.232,1072.151v-9.209h1.696h1.695l1.589,2.525
					c0.875,1.388,1.97,3.132,2.437,3.867c0.465,0.738,1.62,2.594,2.565,4.124c0.945,1.53,1.761,2.78,1.814,2.783
					c0.052,0,0.097-2.962,0.097-6.584v-6.587h1.534h1.535v9.147v9.147l-1.688-0.035l-1.688-0.038l-0.924-1.467
					c-0.511-0.807-0.903-1.492-0.874-1.52c0.03-0.031-0.022-0.116-0.116-0.198c-0.092-0.072-0.775-1.115-1.519-2.312
					c-0.74-1.194-1.599-2.56-1.906-3.034c-0.307-0.468-1.106-1.75-1.772-2.836l-1.216-1.979l-0.033,6.706l-0.033,6.706h-1.596
					h-1.597L457.232,1072.151L457.232,1072.151z M475.007,1072.201v-9.15l4.828,0.047c4.582,0.041,4.869,0.06,5.678,0.33
					c1.627,0.543,3.251,1.907,4.036,3.389c0.795,1.498,1.269,4.212,1.115,6.354c-0.094,1.322-0.553,3.348-0.735,3.238
					c-0.072-0.047-0.088-0.019-0.038,0.066c0.119,0.195-0.415,1.247-1.065,2.095c-0.666,0.87-1.324,1.404-2.403,1.951
					c-1.404,0.713-2.474,0.832-7.279,0.832h-4.139L475.007,1072.201L475.007,1072.201z M484.021,1078.364
					c1.41-0.465,2.491-1.501,3.019-2.893c0.396-1.04,0.565-3.094,0.382-4.608c-0.275-2.28-0.897-3.515-2.186-4.344
					c-1.084-0.694-2.138-0.889-4.752-0.889h-2.28v6.53v6.536l2.591-0.063C482.728,1078.59,483.545,1078.521,484.021,1078.364
					L484.021,1078.364z M490.541,1081.131c0.047-0.122,0.572-1.517,1.162-3.1c0.594-1.583,1.128-2.993,1.19-3.135
					c0.116-0.261,0.214-0.525,0.891-2.299c0.212-0.562,0.586-1.542,0.829-2.177c1.002-2.598,1.795-4.68,2.299-6.04l0.537-1.438
					h1.723h1.729l0.941,2.456c0.521,1.354,1.371,3.552,1.891,4.891c0.521,1.335,1.385,3.549,1.919,4.922
					c0.534,1.373,1.28,3.276,1.658,4.231c0.377,0.955,0.685,1.775,0.685,1.822s-0.77,0.088-1.712,0.088h-1.718l-0.248-0.738
					c-0.135-0.405-0.521-1.498-0.854-2.431l-0.612-1.693h-3.684h-3.681l-0.248,0.672c-0.137,0.368-0.525,1.461-0.857,2.428
					l-0.612,1.759h-1.657c-1.53,0-1.651-0.019-1.569-0.226V1081.131L490.541,1081.131z M501.86,1073.891
					c0-0.157-0.397-1.329-2.181-6.408l-0.493-1.404l-0.204,0.49c-0.179,0.43-2.403,6.69-2.579,7.275
					c-0.066,0.204,0.119,0.22,2.692,0.22C501.362,1074.064,501.86,1074.035,501.86,1073.891z M510.685,1073.555v-7.799h-2.879
					h-2.877v-1.47v-1.473h7.417h7.416v1.473v1.47h-2.877h-2.877v7.799v7.799h-1.662h-1.662V1073.555z M408.384,1072.085v-9.143
					h6.332h6.329v1.407v1.407h-4.667h-4.668v2.365v2.365h4.156h4.156v1.278v1.275l-4.125,0.034l-4.123,0.035l-0.033,4.058
					l-0.033,4.061h-1.662h-1.66L408.384,1072.085L408.384,1072.085L408.384,1072.085z M520.786,1072.019v-9.206h1.596h1.599v9.206
					v9.206h-1.599h-1.596V1072.019z M544.443,1062.809l3.411,0.035l8.357,13.271l0.122-13.299h2.942v18.287h-3.32l-8.328-13.243
					l-0.115,13.371h-3.069V1062.809z M481.655,1049.806l-1.132-0.264v10.859l-0.585,0.025l-0.583-0.035v-11.094l-1.146-0.207v11.191
					l-1.017-0.135l0.011-11.311l-1.221-0.273l-0.002,11.317c-0.096,0-0.356-0.035-0.576-0.079l-0.399-0.082v-11.317l-1.277-0.248
					v11.229l-0.287-0.078c-0.158-0.047-0.604-0.192-0.726-0.223l-0.011-10.601l-2.75,1.008l-0.067,8.594
					c-0.47-0.201-0.916-0.364-1.34-0.565l-0.066-7.859l-3.834-0.55l-0.09,6.04c-0.41-0.195-0.684-0.418-1.067-0.697v-5.409
					l-4.234,1.671l-0.883-0.886l5.677-2.136l5.118,0.854l4.067-1.624l28.661,6.134c0.055,0.091-2.103,1.825-2.439,1.966v-1.326
					l-1.186-0.217l-0.011,2.293l-0.298,0.21c-0.259,0.182-0.82,0.465-0.82,0.465l0.013-3.264l-1.052-0.242v4.074l-0.481,0.245
					c-0.264,0.135-0.521,0.264-0.575,0.289l-0.009-4.897c0,0-0.463-0.075-0.694-0.126l-0.415-0.091v5.619l-0.515,0.204
					c-0.283,0.116-0.722,0.261-0.792,0.261v-6.335l-0.994-0.242v6.998l-0.496,0.144c-0.269,0.085-0.623,0.167-0.669,0.167
					l0.017-7.532l-1.019-0.188l0.014,7.962c-0.053,0.035-0.427,0.145-0.691,0.192l-0.496,0.088v-8.443
					c-0.053-0.035-0.389-0.17-0.653-0.22l-0.481-0.091v4.476v4.476l-0.399,0.075c-0.22,0.047-0.641,0.066-0.735,0.066v-9.326
					l-1.066-0.261v9.684c-0.13,0.025-0.627,0.094-0.796,0.094l-0.327,0.009v-10.014l-1.022-0.242v10.268
					c-0.123,0-0.609,0.097-0.801,0.123l-0.359,0.022L481.655,1049.806z M412.445,1052.62l-0.031-7.768l-5.692-0.072v-2.676h14.706
					v2.676l-5.69,0.072l-0.032,7.768l-0.063,7.771h-3.217L412.445,1052.62L412.445,1052.62z M436.021,1060.347l6.185-9.42
					l-6.028-8.851l1.95,0.009l1.952,0.013l2.046,3.188c1.125,1.75,2.075,3.185,2.109,3.185l4.368-6.367h3.564l-6.039,8.82
					l6.547,9.467h-3.984l-4.573-6.794l-4.628,6.775 M431.765,1060.35l-1.734-4.746h-7.373l-1.636,4.787h-3.45l6.924-18.287h3.175
					l7.611,18.246 M428.972,1052.978l-2.699-7.604l-2.671,7.611L428.972,1052.978z M502.052,1051.495
					c-0.702-0.17-1.651-0.386-2.109-0.49c-0.457-0.104-1.982-0.449-3.388-0.77c-1.407-0.317-4.975-1.128-7.93-1.797l-15.375-3.518
					l-4.083,1.762l-5.102-0.967l-6.966,2.525c-0.085,0-0.548-0.773-0.488-0.81l7.463-2.729l5.093,1.115l4.057-1.681l16.647,3.973
					c0.897,0.214,2.365,0.569,3.259,0.782c0.898,0.214,2.353,0.562,3.231,0.77c2.56,0.609,6.416,1.536,6.946,1.671
					c0.405,0.1,0.462,0.154,0.338,0.308c-0.086,0.101-0.19,0.179-0.234,0.17C503.368,1051.8,502.754,1051.662,502.052,1051.495
					L502.052,1051.495z M504.662,1050.368c-0.05-0.05-2.682-0.675-7.981-1.891c-0.63-0.148-1.467-0.339-1.852-0.427
					c-0.386-0.088-1.825-0.424-3.199-0.751c-4.335-1.021-8.332-1.957-9.622-2.249l-1.247-0.283v-1.018
					c0-0.839,0.059-1.131,0.331-1.665c0.399-0.792,0.594-1.856,0.402-2.221c-0.272-0.515-0.91-1.209-1.644-1.8
					c-0.654-0.525-0.752-0.66-0.752-1.043c0-0.248,0.112-0.584,0.258-0.766c0.612-0.779,0.17-2.029-1.231-3.471
					c-0.594-0.609-0.83-0.958-0.939-1.391c-0.401-1.596-1.474-3.502-2.706-4.822c-0.6-0.729-0.675-0.817-1.217-1.197
					c-0.215-0.188-0.68-0.537-1.029-0.776c-0.4-0.273-0.697-0.587-0.788-0.842c-0.082-0.22-0.349-0.638-0.594-0.927
					c-0.41-0.477-0.448-0.591-0.448-1.338c0-0.562,0.079-0.972,0.256-1.316c0.141-0.28,0.255-0.587,0.255-0.685
					c0-0.102-0.25-0.477-0.554-0.839c-0.894-1.052-0.947-1.184-1.037-2.569c-0.097-1.533-0.3-2.525-0.503-2.459
					c-0.214,0.072-0.437,1.289-0.452,2.463c-0.013,1.139-0.174,1.549-0.912,2.331c-0.247,0.264-0.527,0.631-0.62,0.817
					c-0.155,0.305-0.14,0.383,0.163,0.829c0.28,0.411,0.335,0.635,0.335,1.37c0,0.763-0.046,0.93-0.34,1.278
					c-0.187,0.223-0.435,0.612-0.55,0.87c-0.144,0.317-0.547,0.723-1.229,1.231c-0.978,0.729-1.951,1.712-2.814,2.686
					c-0.25,0.283-0.459,0.6-0.677,0.905c-0.177,0.251-0.362,0.496-0.52,0.76c-0.215,0.361-0.448,0.719-0.585,1.125
					c-0.17,0.415-0.266,0.798-0.213,0.851c0.052,0.053,0.553-0.082,1.111-0.298c1.917-0.741,3.453-1.021,6.07-1.099
					c3.286-0.097,6.474,0.276,6.917,0.807c0.196,0.236,0.135,0.232-1.725-0.1c-1.998-0.364-5.732-0.396-7.685-0.075
					c-2.39,0.396-4.141,1.143-5.326,2.268c-0.946,0.901-1.009,1.297-0.135,0.848c0.803-0.411,2.983-1.046,4.949-1.436
					c1.329-0.261,5.847-0.383,6.906-0.188c0.422,0.079,0.852,0.148,0.958,0.151c0.945,0.031,3.776,0.876,4.25,1.272
					c0.42,0.352,0.073,0.323-1.146-0.085c-1.866-0.625-3.541-0.848-6.428-0.857c-4.493-0.013-7.705,0.751-10.251,2.437
					c-0.58,0.383-0.609,0.619-0.167,1.376c0.232,0.396,0.317,0.704,0.294,1.087c-0.027,0.452-0.109,0.591-0.55,0.936
					c-0.534,0.421-0.974,0.886-0.901,0.958c0.023,0.022,0.276-0.107,0.565-0.289c0.875-0.553,3.125-1.486,4.23-1.753
					c2.404-0.581,3.809-0.748,6.316-0.748c3.716,0,7.107,0.616,9.163,1.665c0.48,0.245,0.669,0.509,0.365,0.509
					c-0.078,0-0.64-0.17-1.253-0.374c-4.51-1.511-10.299-1.69-14.614-0.452c-1.659,0.474-4.465,1.765-4.939,2.271
					c-0.306,0.327-0.681,1.008-0.598,1.093c0.031,0.031,0.802-0.327,1.711-0.798c3.134-1.611,5.657-2.243,9.411-2.343
					c2.6-0.072,4.176,0.075,6.501,0.628c1.26,0.298,1.492,0.515,1.245,1.165c-0.177,0.465-0.481,0.562-0.937,0.302
					c-0.206-0.116-0.426-0.21-0.489-0.21c-0.066,0-0.118,0.81-0.118,1.853c0,1.768-0.012,1.853-0.256,1.853
					c-0.141,0-0.258-0.072-0.262-0.16c0-0.085-0.016-0.905-0.031-1.816c-0.024-1.558-0.045-1.668-0.3-1.797
					c-0.152-0.075-0.364-0.214-0.474-0.302c-0.109-0.091-0.331-0.148-0.494-0.122c-0.29,0.041-0.294,0.069-0.357,2.089
					c-0.062,1.938-0.079,2.045-0.32,2.045c-0.243,0-0.257-0.097-0.291-1.944c-0.031-1.816-0.053-1.948-0.291-2.023
					c-0.141-0.044-0.364-0.198-0.496-0.339c-0.132-0.141-0.346-0.236-0.475-0.214c-0.214,0.041-0.24,0.242-0.3,2.28
					c-0.06,2.13-0.075,2.24-0.319,2.24c-0.243,0-0.258-0.097-0.292-1.951c-0.031-1.677-0.064-1.951-0.237-1.951
					c-0.111,0-0.375-0.148-0.587-0.323c-0.742-0.625-0.797-0.499-0.837,1.919c-0.035,2.164-0.093,2.434-0.496,2.28
					c-0.132-0.053-0.172-0.484-0.172-1.888v-1.816l-0.506-0.333c-0.307-0.201-0.609-0.305-0.766-0.264
					c-0.25,0.066-0.261,0.163-0.261,2.211c0,1.778-0.035,2.17-0.198,2.309c-0.386,0.32-0.466-0.044-0.448-2.017
					c0.017-2.086,0-2.139-0.729-2.287c-0.603-0.119-0.671,0.148-0.671,2.626c0,2.098-0.012,2.183-0.256,2.183
					c-0.238,0-0.258-0.091-0.275-1.373c-0.038-2.532-0.049-2.711-0.204-2.868c-0.112-0.11-0.293-0.119-0.637-0.035l-0.483,0.119
					l-0.034,2.321c-0.028,1.828-0.075,2.349-0.218,2.472c-0.382,0.317-0.451,0-0.451-2.101c0-2.224-0.057-2.434-0.614-2.29
					c-0.155,0.041-0.293,0.082-0.305,0.091c-0.014,0.009-0.057,1.112-0.097,2.447c-0.068,2.321-0.08,2.431-0.326,2.431
					c-0.243,0-0.26-0.107-0.32-2.045c-0.064-1.985-0.071-2.048-0.342-2.086c-0.478-0.069-0.565,0.33-0.547,2.544
					c0.01,1.131-0.016,2.086-0.053,2.123c-0.039,0.041-0.158,0.038-0.264,0c-0.156-0.057-0.201-0.383-0.23-1.646
					c-0.033-1.473-0.05-1.57-0.291-1.57c-0.243,0-0.257,0.097-0.291,1.885l-0.035,1.885l-0.463,0.195
					c-0.257,0.107-0.481,0.182-0.498,0.16c-0.253-0.258-2.486-4.193-2.486-4.382c0-0.05-0.276-0.603-0.39-0.908
					c-0.772-2.111-1.783-4.206-1.965-6.442c-0.534-6.502-0.371-13.45,2.589-19.399c1.821-3.33,4.46-7.315,7.823-10.07
					c0.316-0.254,0.804-0.644,1.082-0.873c3.969-2.708,6.734-4.413,11.579-5.605c2.736-0.649,4.734-0.881,7.524-0.881
					c3.953,0.003,7.366,0.636,11.377,2.108c0.647,0.236,3.684,1.706,4.432,2.145c1.281,0.748,1.988,1.266,1.903,1.401
					c-0.053,0.085-0.028,0.104,0.066,0.046c0.264-0.163,3.18,2.191,4.683,3.782c5.035,5.34,8.065,11.922,8.644,18.788
					c0.297,3.534,0.289,4.514-0.069,6.703c-0.393,2.409-0.612,3.433-1.033,4.844c-1.564,4.083-3.545,8.258-6.012,11.204
					c-1.002,1.184-1.005,1.187-1.096,1.103v-0.003H504.662z M493.038,1041.818c0.232-0.16,0.543-0.518,0.688-0.801
					c0.248-0.474,0.27-0.719,0.27-3.389c0-2.66-0.02-2.915-0.265-3.38c-0.479-0.917-1.315-1.281-2.585-1.137
					c-0.532,0.063-0.781,0.176-1.186,0.54c-0.449,0.408-0.537,0.578-0.711,1.423c-0.24,1.165-0.151,2.378,0.231,3.179
					c0.207,0.433,0.399,0.619,0.845,0.813c0.664,0.292,1.435,0.251,1.828-0.104c0.24-0.217,0.245-0.204,0.245,0.43
					c0,0.801-0.206,1.288-0.587,1.382c-0.586,0.151-0.89-0.107-0.845-0.716c0-0.035-0.364-0.044-0.817-0.022
					c-0.752,0.041-0.82,0.066-0.82,0.333c0,0.562,0.286,1.112,0.748,1.423c0.399,0.27,0.609,0.311,1.501,0.311
					C492.442,1042.104,492.685,1042.057,493.038,1041.818L493.038,1041.818z M491.104,1037.675c-0.113-0.135-0.192-0.641-0.22-1.41
					c-0.053-1.457,0.126-1.872,0.784-1.806c0.608,0.057,0.752,0.443,0.697,1.875c-0.038,0.996-0.085,1.228-0.286,1.376
					C491.751,1037.945,491.316,1037.929,491.104,1037.675L491.104,1037.675z M498.626,1041.947c0.525-0.239,0.905-0.719,1.121-1.432
					c0.383-1.244,0.107-2.604-0.625-3.081l-0.33-0.217l0.308-0.242c0.427-0.336,0.622-1.018,0.556-1.919
					c-0.093-1.341-0.801-1.926-2.326-1.938c-0.763-0.006-1.026,0.05-1.417,0.292c-0.554,0.339-0.956,1.103-0.958,1.822v0.481h0.749
					h0.751l0.082-0.506c0.185-1.159,1.487-0.996,1.487,0.185c0,0.691-0.309,1.052-1.002,1.162l-0.531,0.085v0.606v0.609l0.542,0.085
					c0.983,0.157,1.118,0.327,1.118,1.42c0,0.801-0.044,0.999-0.269,1.225c-0.206,0.204-0.363,0.251-0.667,0.192
					c-0.556-0.11-0.631-0.226-0.697-1.033l-0.061-0.707h-0.815h-0.814v0.678c0,0.845,0.41,1.706,1.008,2.101
					c0.358,0.239,0.613,0.289,1.432,0.289C497.818,1042.104,498.428,1042.031,498.626,1041.947L498.626,1041.947L498.626,1041.947z
					 M487.667,1033.155h-0.612c-0.572,0-0.625,0.025-0.861,0.462c-0.267,0.496-0.923,0.876-1.757,1.008
					c-0.47,0.072-0.479,0.085-0.479,0.644v0.572h1.024h1.021v6.263h1.633L487.667,1033.155z M503.71,1041.114
					c0.195-1.881,0.878-4.225,1.713-5.883c0.273-0.54,0.402-0.974,0.402-1.369v-0.581h-5.129v1.341h3.508l-0.729,1.489
					c-0.594,1.297-1.018,2.874-1.413,4.341c-0.151,0.543-0.443,1.473-0.364,1.652h1.913l0.101-0.989H503.71z M483.319,1031.864
					c1.274-0.273,2.039-1.435,1.87-2.846c-0.1-0.854-0.477-1.398-1.467-2.098l-1.091-0.801c-0.406-0.295-0.978-0.707-1.049-1.087
					c-0.151-0.804,0.904-1.291,1.475-0.678c0.167,0.179,0.261,0.452,0.261,0.766v0.487h1.693l-0.057-0.754
					c-0.101-1.379-0.993-2.186-2.413-2.186c-1.809,0.003-2.719,0.773-2.719,2.302c0,0.386,0.075,0.848,0.166,1.021
					c0.17,0.327,0.766,0.908,1.203,1.304c0.64,0.578,1.885,1.297,2.069,1.561c0.488,0.697,0.039,1.665-0.772,1.665
					c-0.656,0-0.956-0.405-0.96-1.3v-0.669h-0.914h-0.914l0.075,0.886c0.113,1.363,0.588,2.045,1.642,2.378
					c0.697,0.217,1.077,0.229,1.9,0.05H483.319L483.319,1031.864z M499.054,1031.415c0.408-0.408,0.625-1.046,0.628-1.872v-0.484
					h-0.829h-0.832v0.631c0,0.682-0.248,1.077-0.587,0.949c-0.336-0.132-0.433-0.641-0.432-2.255c0-1.79,0.057-2.095,0.401-2.205
					c0.374-0.119,0.619,0.17,0.619,0.726v0.496h0.851h0.848l-0.064-0.65c-0.066-0.682-0.333-1.146-0.916-1.58
					c-0.506-0.38-1.951-0.377-2.466,0c-0.707,0.518-0.81,0.927-0.81,3.254c0,2.343,0.094,2.704,0.832,3.204
					c0.319,0.217,0.55,0.251,1.373,0.22C498.578,1031.814,498.689,1031.776,499.054,1031.415L499.054,1031.415L499.054,1031.415z
					 M504.428,1031.581c0.242-0.16,0.515-0.462,0.617-0.669c0.309-0.562,0.281-1.011,0.291-1.476l-1.687,0.013v0.415
					c0,0.575-0.163,0.776-0.628,0.776c-0.556,0-0.685-0.182-0.749-1.065l-0.057-0.766h3.086l-0.036-1.313
					c-0.02-0.722-0.141-1.429-0.226-1.608c-0.512-1.049-2.719-1.357-3.672-0.49c-0.556,0.506-0.656,0.961-0.656,3
					c0,1.734,0.025,1.954,0.291,2.453c0.402,0.76,0.942,1.027,2.086,1.027c0.738,0,0.994-0.057,1.347-0.295H504.428
					L504.428,1031.581z M502.245,1027.109c0-0.572,0.314-0.986,0.748-0.986c0.49,0,0.656,0.217,0.656,0.857v0.55h-0.702h-0.702
					V1027.109z M488.178,1025.098h-1.662l-0.011,6.599c0.047,0.047,0.515,0.05,0.927,0.05h0.744L488.178,1025.098z M491.25,1029.477
					c0-2.23-0.046-1.988,0.187-2.821c0.055-0.195,0.289-0.339,0.46-0.383c0.614-0.148,0.689,0.173,0.733,2.937l0.044,2.538h0.757
					h0.759v-2.996c0-1.988,0.115-2.064-0.138-3.081c-0.071-0.292-0.402-0.506-0.658-0.616c-0.743-0.33-1.357-0.232-1.885,0.295
					c-0.259,0.258-0.262,0.258-0.262,0.006c0-0.226-0.085-0.258-0.765-0.258h-0.766v3.326v3.323h0.766h0.765v-2.268L491.25,1029.477
					z M488.184,1022.774h-1.679v1.558h1.673L488.184,1022.774z M465.957,1044.416c0.041-0.217,0.79-0.437,1.21-0.355
					c0.163,0.028,0.294,0.009,0.294-0.057c0-0.06,0.433-0.11,0.96-0.11s0.96,0.041,0.96,0.097c0,0.053,0.21,0.107,0.466,0.119
					c0.404,0.022,0.675,0.192,0.682,0.43c0,0.038-1.037,0.066-2.303,0.063C466.293,1044.604,465.926,1044.57,465.957,1044.416
					L465.957,1044.416z M459.716,1037.348c-0.064-0.091-0.089-0.568-0.053-1.062c0.073-1.036,0.276-0.942,0.342,0.163
					c0.048,0.76-0.09,1.184-0.291,0.898l0,0H459.716z M460.742,1036.827c-0.037-0.101-0.052-0.581-0.031-1.065
					c0.027-0.653,0.085-0.883,0.218-0.883c0.242,0,0.285,1.998,0.042,2.079C460.885,1036.987,460.781,1036.931,460.742,1036.827
					L460.742,1036.827z M462.017,1036.434c-0.035-0.094-0.047-0.653-0.026-1.244c0.029-0.854,0.075-1.077,0.229-1.077
					c0.291,0,0.352,2.299,0.064,2.412c-0.112,0.041-0.23,0.003-0.265-0.091H462.017z M463.37,1034.879
					c0-0.964,0.039-1.212,0.182-1.212c0.253,0,0.272,0.107,0.225,1.335c-0.032,0.845-0.083,1.093-0.225,1.093
					C463.408,1036.095,463.37,1035.847,463.37,1034.879L463.37,1034.879z M465.109,1035.743c-0.142-0.138-0.082-2.315,0.065-2.409
					c0.254-0.157,0.367,0.245,0.368,1.31c0,0.776-0.044,1.055-0.177,1.109C465.266,1035.79,465.151,1035.787,465.109,1035.743
					L465.109,1035.743z M466.78,1035.498c-0.142-0.141-0.097-2.321,0.053-2.412c0.23-0.145,0.302,0.05,0.353,0.971
					C467.254,1035.26,467.098,1035.815,466.78,1035.498L466.78,1035.498z M468.482,1035.373c-0.059-1.69-0.031-2.396,0.095-2.441
					c0.186-0.063,0.323,0.826,0.268,1.746c-0.024,0.411-0.104,0.716-0.2,0.748c-0.086,0.028-0.161,0.006-0.164-0.053H468.482z
					 M470.107,1035.376c-0.049-0.05-0.088-0.631-0.088-1.294c0-0.905,0.04-1.19,0.159-1.15c0.108,0.035,0.172,0.418,0.198,1.181
					C470.411,1035.159,470.319,1035.586,470.107,1035.376L470.107,1035.376z M471.555,1034.245c0-0.999,0.035-1.219,0.192-1.219
					c0.155,0,0.192,0.22,0.192,1.219c0,0.989-0.036,1.212-0.192,1.212C471.588,1035.457,471.555,1035.238,471.555,1034.245z
					 M462.22,1029.191c0-0.248,0.135-0.333,0.289-0.179c0.102,0.104-0.031,0.437-0.174,0.437
					C462.271,1029.449,462.22,1029.332,462.22,1029.191L462.22,1029.191z M463.267,1028.71c0.053-0.28,0.283-0.276,0.337,0.01
					c0.026,0.132-0.04,0.217-0.169,0.217C463.302,1028.937,463.239,1028.852,463.267,1028.71L463.267,1028.71z M464.436,1028.478
					c-0.108-0.28,0.185-0.559,0.335-0.32c0.125,0.204,0.038,0.521-0.139,0.521C464.567,1028.679,464.479,1028.588,464.436,1028.478
					L464.436,1028.478z M465.799,1028.117c0-0.182,0.058-0.333,0.128-0.333c0.071,0,0.128,0.088,0.128,0.195s0,0.232,0,0.289
					c0,0.05-0.057,0.113-0.128,0.135C465.858,1028.428,465.799,1028.299,465.799,1028.117z M467.129,1027.985
					c-0.04-0.104-0.035-0.248,0.009-0.32c0.149-0.242,0.324-0.141,0.324,0.188c0,0.345-0.22,0.43-0.335,0.132H467.129z
					 M468.548,1028.042c-0.102-0.167,0.047-0.638,0.203-0.638c0.066,0,0.119,0.173,0.119,0.383c0,0.377-0.166,0.506-0.32,0.251
					h-0.002V1028.042z M470.019,1027.787c0-0.21,0.057-0.383,0.128-0.383c0.069,0,0.126,0.173,0.126,0.383
					c0,0.207-0.057,0.38-0.126,0.38C470.078,1028.167,470.019,1027.997,470.019,1027.787z"/>
			</g>
		</g>
	</g>
	<g>
		<path fill="#FFFFFF" d="M177.515,355.121v3.186h-1.236v-8.609h2.586c0.548,0,1.025,0.064,1.431,0.191
			c0.406,0.129,0.742,0.311,1.008,0.543c0.266,0.234,0.465,0.518,0.597,0.848c0.132,0.33,0.198,0.695,0.198,1.1
			s-0.07,0.773-0.21,1.107c-0.14,0.334-0.346,0.623-0.618,0.867s-0.609,0.434-1.011,0.566c-0.402,0.135-0.867,0.201-1.395,0.201
			H177.515z M177.515,354.136h1.35c0.324,0,0.611-0.043,0.861-0.129s0.459-0.205,0.627-0.359s0.295-0.34,0.381-0.555
			c0.086-0.217,0.129-0.455,0.129-0.715c0-0.268-0.042-0.506-0.123-0.717c-0.082-0.209-0.206-0.389-0.372-0.537
			s-0.374-0.26-0.624-0.338s-0.543-0.117-0.879-0.117h-1.35V354.136z"/>
		<path fill="#FFFFFF" d="M191.392,358.306h-0.96c-0.108,0-0.196-0.025-0.264-0.08s-0.12-0.125-0.156-0.213l-0.774-2.021h-3.822
			l-0.774,2.021c-0.024,0.076-0.073,0.145-0.147,0.203c-0.074,0.061-0.163,0.09-0.267,0.09h-0.96l3.432-8.609h1.254L191.392,358.306
			z M185.758,355.103h3.138l-1.302-3.391c-0.044-0.107-0.089-0.232-0.135-0.375c-0.046-0.141-0.091-0.297-0.135-0.465
			c-0.044,0.168-0.088,0.324-0.132,0.469s-0.088,0.27-0.132,0.377L185.758,355.103z"/>
		<path fill="#FFFFFF" d="M195.125,354.755v3.551h-1.236v-8.609h2.466c0.552,0,1.028,0.057,1.428,0.168
			c0.4,0.111,0.731,0.273,0.993,0.482c0.262,0.211,0.455,0.463,0.579,0.76s0.186,0.627,0.186,0.99c0,0.305-0.047,0.588-0.141,0.852
			c-0.094,0.264-0.23,0.502-0.408,0.711c-0.178,0.211-0.396,0.393-0.654,0.543c-0.258,0.152-0.551,0.268-0.879,0.342
			c0.156,0.094,0.29,0.223,0.402,0.391l2.454,3.373h-1.104c-0.224,0-0.388-0.088-0.492-0.266l-2.16-3.018
			c-0.068-0.096-0.142-0.164-0.222-0.207c-0.08-0.041-0.2-0.063-0.36-0.063H195.125L195.125,354.755z M195.125,353.849h1.188
			c0.332,0,0.624-0.041,0.876-0.121c0.252-0.078,0.462-0.193,0.63-0.342c0.168-0.146,0.295-0.322,0.381-0.523
			c0.086-0.203,0.129-0.428,0.129-0.676c0-0.5-0.164-0.879-0.492-1.135s-0.822-0.383-1.482-0.383h-1.23V353.849L195.125,353.849z"/>
		<path fill="#FFFFFF" d="M208.42,349.697v1.039h-2.754v7.57h-1.236v-7.57h-2.76v-1.039H208.42z"/>
		<path fill="#FFFFFF" d="M223.156,354c0,0.643-0.103,1.236-0.309,1.775s-0.495,1.004-0.867,1.393
			c-0.372,0.387-0.82,0.689-1.344,0.906c-0.524,0.215-1.104,0.322-1.74,0.322s-1.215-0.107-1.737-0.322
			c-0.522-0.217-0.971-0.52-1.347-0.906c-0.376-0.389-0.667-0.854-0.873-1.393s-0.309-1.133-0.309-1.775
			c0-0.641,0.103-1.23,0.309-1.771s0.497-1.004,0.873-1.393s0.825-0.691,1.347-0.908c0.522-0.219,1.101-0.328,1.737-0.328
			s1.216,0.109,1.74,0.328c0.524,0.217,0.972,0.521,1.344,0.908c0.372,0.389,0.661,0.852,0.867,1.393S223.156,353.359,223.156,354z
			 M221.89,354c0-0.518-0.07-0.98-0.21-1.393c-0.14-0.412-0.341-0.762-0.603-1.049c-0.262-0.283-0.577-0.504-0.945-0.654
			c-0.368-0.152-0.78-0.23-1.236-0.23s-0.869,0.076-1.239,0.23c-0.37,0.15-0.687,0.371-0.948,0.654
			c-0.262,0.287-0.464,0.637-0.606,1.049c-0.142,0.41-0.213,0.875-0.213,1.393c0,0.52,0.071,0.986,0.213,1.396
			c0.142,0.412,0.344,0.762,0.606,1.045s0.578,0.502,0.948,0.652c0.37,0.152,0.783,0.23,1.239,0.23s0.868-0.076,1.236-0.23
			c0.368-0.15,0.683-0.369,0.945-0.652c0.262-0.283,0.463-0.633,0.603-1.045C221.82,354.986,221.89,354.519,221.89,354z"/>
		<path fill="#FFFFFF" d="M231.508,349.697v1.008h-4.086v2.928h3.486v1.008h-3.486v3.666h-1.242v-8.609H231.508L231.508,349.697z"/>
		<path fill="#FFFFFF" d="M244.036,349.697v1.039h-2.754v7.57h-1.236v-7.57h-2.76v-1.039H244.036z"/>
		<path fill="#FFFFFF" d="M253.714,358.306h-1.242v-3.893h-4.542v3.893h-1.242v-8.609h1.242v3.816h4.542v-3.816h1.242V358.306z"/>
		<path fill="#FFFFFF" d="M262.6,349.697v1.008h-4.086v2.771h3.294v0.973h-3.294v2.85h4.092l-0.006,1.008h-5.328v-8.609H262.6
			L262.6,349.697z"/>
		<path fill="#FFFFFF" d="M271.114,355.109l-0.39,3.197h-1.188l1.056-8.609h2.412c0.459,0,0.86,0.055,1.2,0.166
			c0.34,0.107,0.62,0.266,0.84,0.467c0.22,0.203,0.384,0.443,0.492,0.727c0.108,0.281,0.162,0.596,0.162,0.939
			c0,0.451-0.073,0.867-0.219,1.248c-0.146,0.379-0.362,0.707-0.648,0.982s-0.638,0.492-1.056,0.646
			c-0.418,0.156-0.897,0.234-1.437,0.234h-1.224V355.109z M271.666,350.638l-0.432,3.523h1.224c0.332,0,0.625-0.051,0.879-0.154
			c0.254-0.102,0.467-0.244,0.639-0.428c0.172-0.186,0.302-0.402,0.39-0.652c0.088-0.25,0.132-0.523,0.132-0.824
			c0-0.225-0.033-0.428-0.099-0.609s-0.165-0.336-0.297-0.461c-0.132-0.127-0.299-0.225-0.501-0.291
			c-0.202-0.068-0.439-0.104-0.711-0.104H271.666z"/>
		<path fill="#FFFFFF" d="M280.935,357.359c0.316,0,0.606-0.061,0.87-0.182c0.264-0.119,0.495-0.287,0.693-0.5
			c0.198-0.215,0.361-0.471,0.489-0.77c0.128-0.297,0.214-0.625,0.258-0.98l0.642-5.23h1.194l-0.642,5.23
			c-0.064,0.496-0.196,0.957-0.396,1.381c-0.2,0.426-0.457,0.791-0.771,1.104s-0.679,0.557-1.095,0.73
			c-0.416,0.178-0.872,0.266-1.368,0.266c-0.492,0-0.925-0.088-1.299-0.266c-0.374-0.176-0.68-0.42-0.918-0.73
			c-0.238-0.313-0.404-0.68-0.498-1.104c-0.094-0.424-0.111-0.885-0.051-1.381l0.63-5.23h1.194l-0.636,5.227
			c-0.044,0.355-0.039,0.684,0.015,0.98c0.054,0.299,0.154,0.555,0.3,0.77c0.146,0.217,0.335,0.385,0.567,0.504
			C280.345,357.298,280.619,357.359,280.935,357.359z"/>
		<path fill="#FFFFFF" d="M293.793,349.697l-0.126,1.002h-2.508l-0.936,7.607h-1.188l0.924-7.607h-2.514l0.12-1.002H293.793z"/>
		<path fill="#FFFFFF" d="M301.767,349.697l-0.126,1.002h-2.508l-0.936,7.607h-1.188l0.924-7.607h-2.514l0.12-1.002H301.767z"/>
		<path fill="#FFFFFF" d="M304.508,358.306h-1.205l1.056-8.609h1.2L304.508,358.306z"/>
		<path fill="#FFFFFF" d="M309.842,349.732c0.049,0.023,0.099,0.08,0.15,0.17l3.653,6.461c0.009-0.102,0.017-0.193,0.024-0.281
			c0.006-0.088,0.016-0.172,0.022-0.252l0.757-6.133h1.057l-1.063,8.609h-0.6c-0.096,0-0.174-0.018-0.234-0.051
			c-0.061-0.035-0.117-0.092-0.174-0.172l-3.648-6.449l-0.035,0.438l-0.762,6.232h-1.057l1.063-8.609h0.616
			C309.719,349.697,309.793,349.708,309.842,349.732z"/>
		<path fill="#FFFFFF" d="M321.538,357.437c0.205,0,0.393-0.012,0.563-0.033c0.172-0.021,0.335-0.055,0.487-0.096
			c0.154-0.043,0.303-0.092,0.441-0.15c0.141-0.059,0.28-0.125,0.42-0.201l0.229-1.889h-1.158c-0.076,0-0.135-0.021-0.179-0.064
			c-0.04-0.041-0.057-0.096-0.045-0.164l0.072-0.684h2.508l-0.414,3.316c-0.215,0.156-0.438,0.293-0.668,0.408
			c-0.229,0.117-0.474,0.213-0.729,0.291c-0.256,0.078-0.525,0.137-0.811,0.174c-0.283,0.039-0.59,0.059-0.918,0.059
			c-0.523,0-1-0.096-1.426-0.283s-0.789-0.449-1.088-0.785c-0.301-0.336-0.533-0.736-0.697-1.199
			c-0.164-0.465-0.246-0.973-0.246-1.523c0-0.736,0.115-1.412,0.347-2.027c0.229-0.617,0.55-1.145,0.96-1.584
			c0.41-0.441,0.896-0.783,1.455-1.029s1.17-0.369,1.83-0.369c0.336,0,0.641,0.027,0.915,0.084c0.272,0.057,0.521,0.135,0.743,0.236
			c0.223,0.104,0.422,0.223,0.601,0.361c0.179,0.137,0.341,0.287,0.489,0.445l-0.385,0.498c-0.061,0.094-0.135,0.146-0.223,0.168
			s-0.18,0-0.275-0.061c-0.092-0.061-0.191-0.131-0.301-0.211c-0.106-0.08-0.236-0.154-0.384-0.227s-0.325-0.135-0.53-0.184
			c-0.207-0.051-0.453-0.076-0.742-0.076c-0.482,0-0.926,0.094-1.327,0.279c-0.402,0.188-0.747,0.451-1.035,0.793
			s-0.513,0.754-0.672,1.238c-0.16,0.482-0.24,1.023-0.24,1.621c0,0.441,0.06,0.842,0.175,1.195s0.279,0.654,0.491,0.902
			s0.468,0.439,0.767,0.57C320.834,357.371,321.168,357.437,321.538,357.437z"/>
		<path fill="#FFFFFF" d="M337.838,358.306h-0.918c-0.104,0-0.186-0.025-0.246-0.078c-0.059-0.051-0.102-0.119-0.125-0.203
			l-0.45-2.053h-3.456l-0.954,2.053c-0.035,0.072-0.095,0.137-0.174,0.195c-0.08,0.059-0.168,0.086-0.265,0.086h-0.93l4.205-8.609
			h1.219L337.838,358.306z M333.043,355.109h2.869l-0.756-3.455c-0.021-0.113-0.045-0.242-0.072-0.393
			c-0.027-0.146-0.055-0.309-0.078-0.479c-0.063,0.172-0.129,0.332-0.191,0.479c-0.063,0.148-0.12,0.279-0.168,0.396
			L333.043,355.109z"/>
		<path fill="#FFFFFF" d="M349.963,350.669h-3.719l-0.367,2.982h3.176l-0.127,0.977h-3.168l-0.449,3.678h-1.206l1.062-8.609h4.92
			L349.963,350.669z"/>
		<path fill="#FFFFFF" d="M357.79,358.306h-0.918c-0.104,0-0.187-0.025-0.246-0.078c-0.061-0.051-0.103-0.119-0.125-0.203
			l-0.451-2.053h-3.455l-0.955,2.053c-0.035,0.072-0.094,0.137-0.174,0.195s-0.168,0.086-0.264,0.086h-0.931l4.206-8.609h1.218
			L357.79,358.306z M352.995,355.109h2.868l-0.756-3.455c-0.021-0.113-0.044-0.242-0.071-0.393
			c-0.027-0.146-0.055-0.309-0.078-0.479c-0.064,0.172-0.129,0.332-0.191,0.479c-0.064,0.148-0.12,0.279-0.168,0.396
			L352.995,355.109z"/>
		<path fill="#FFFFFF" d="M363.483,357.371c0.266,0,0.496-0.021,0.696-0.063c0.198-0.043,0.376-0.096,0.526-0.158
			c0.152-0.064,0.283-0.135,0.392-0.207c0.106-0.074,0.2-0.145,0.28-0.207c0.08-0.064,0.147-0.117,0.201-0.16
			c0.055-0.041,0.105-0.063,0.153-0.063c0.04,0,0.073,0.008,0.099,0.021c0.026,0.014,0.045,0.031,0.059,0.051l0.42,0.521
			c-0.372,0.408-0.807,0.727-1.303,0.953c-0.495,0.229-1.069,0.344-1.723,0.344c-0.516,0-0.979-0.094-1.389-0.277
			s-0.756-0.441-1.038-0.773s-0.498-0.727-0.647-1.186c-0.149-0.457-0.226-0.961-0.226-1.508c0-0.496,0.054-0.967,0.159-1.41
			s0.256-0.854,0.45-1.229c0.194-0.373,0.428-0.711,0.702-1.01c0.272-0.301,0.578-0.555,0.914-0.762
			c0.336-0.209,0.697-0.369,1.084-0.48c0.386-0.111,0.791-0.168,1.215-0.168c0.308,0,0.587,0.027,0.837,0.08
			c0.25,0.055,0.478,0.131,0.681,0.229c0.204,0.1,0.389,0.219,0.555,0.359c0.166,0.143,0.321,0.303,0.465,0.479l-0.406,0.498
			c-0.032,0.039-0.069,0.074-0.111,0.102c-0.042,0.029-0.097,0.043-0.164,0.043c-0.072,0-0.148-0.039-0.23-0.117
			c-0.082-0.076-0.19-0.162-0.324-0.258c-0.135-0.094-0.309-0.182-0.525-0.258c-0.216-0.078-0.494-0.117-0.834-0.117
			c-0.455,0-0.882,0.092-1.277,0.275s-0.738,0.445-1.028,0.785s-0.519,0.752-0.685,1.236s-0.25,1.025-0.25,1.625
			c0,0.438,0.058,0.828,0.168,1.178c0.113,0.348,0.271,0.643,0.473,0.885c0.201,0.242,0.441,0.428,0.72,0.555
			C362.846,357.306,363.151,357.371,363.483,357.371z"/>
		<path fill="#FFFFFF" d="M374.726,350.669h-3.72l-0.348,2.82h2.993l-0.12,0.939h-2.988l-0.354,2.904h3.727l-0.121,0.973h-4.932
			l1.063-8.609h4.92L374.726,350.669z"/>
		<path fill="#FFFFFF" d="M386.108,351.083c-0.036,0.063-0.074,0.111-0.115,0.141c-0.043,0.029-0.099,0.045-0.166,0.045
			c-0.072,0-0.154-0.033-0.246-0.1c-0.093-0.066-0.207-0.139-0.346-0.221c-0.138-0.082-0.303-0.156-0.494-0.225
			c-0.191-0.064-0.423-0.1-0.689-0.1c-0.256,0-0.481,0.033-0.676,0.1c-0.193,0.066-0.355,0.158-0.485,0.273s-0.228,0.252-0.294,0.41
			s-0.1,0.33-0.1,0.514c0,0.236,0.06,0.43,0.178,0.582c0.117,0.152,0.273,0.283,0.465,0.395c0.191,0.109,0.41,0.203,0.656,0.283
			s0.498,0.164,0.754,0.252c0.256,0.09,0.507,0.189,0.753,0.299c0.245,0.109,0.465,0.25,0.657,0.42
			c0.19,0.17,0.347,0.379,0.465,0.625c0.117,0.244,0.177,0.547,0.177,0.9c0,0.381-0.065,0.734-0.194,1.064
			c-0.131,0.33-0.32,0.619-0.568,0.865s-0.551,0.439-0.91,0.582c-0.36,0.141-0.771,0.213-1.229,0.213
			c-0.277,0-0.543-0.027-0.803-0.082c-0.258-0.055-0.502-0.129-0.73-0.229c-0.23-0.098-0.447-0.215-0.648-0.354
			c-0.202-0.139-0.383-0.293-0.543-0.465l0.359-0.588c0.033-0.049,0.074-0.088,0.123-0.117c0.051-0.029,0.104-0.045,0.166-0.045
			c0.084,0,0.181,0.045,0.291,0.133c0.108,0.088,0.246,0.186,0.407,0.291s0.356,0.203,0.585,0.291s0.504,0.131,0.827,0.131
			c0.269,0,0.509-0.035,0.722-0.107c0.211-0.07,0.391-0.174,0.537-0.307c0.146-0.131,0.256-0.291,0.332-0.479
			c0.075-0.188,0.113-0.396,0.113-0.625c0-0.256-0.061-0.465-0.177-0.627c-0.118-0.16-0.273-0.297-0.466-0.402
			c-0.191-0.109-0.409-0.201-0.653-0.277s-0.495-0.154-0.753-0.236c-0.26-0.082-0.51-0.178-0.753-0.285
			c-0.244-0.107-0.464-0.248-0.654-0.424c-0.19-0.174-0.348-0.391-0.465-0.65c-0.118-0.26-0.179-0.582-0.179-0.965
			c0-0.305,0.062-0.602,0.182-0.889c0.12-0.289,0.294-0.543,0.521-0.762c0.229-0.221,0.508-0.398,0.844-0.531
			c0.333-0.135,0.717-0.201,1.148-0.201c0.483,0,0.926,0.076,1.328,0.229s0.754,0.371,1.053,0.66L386.108,351.083z"/>
		<path fill="#FFFFFF" d="M394.928,349.697v1.008h-4.086v2.771h3.294v0.973h-3.294v2.85h4.093l-0.007,1.008h-5.327v-8.609H394.928
			L394.928,349.697z"/>
		<path fill="#FFFFFF" d="M399.165,354.755v3.551h-1.236v-8.609h2.467c0.553,0,1.027,0.057,1.428,0.168s0.73,0.273,0.994,0.482
			c0.262,0.211,0.455,0.463,0.578,0.76c0.125,0.297,0.186,0.627,0.186,0.99c0,0.305-0.047,0.588-0.141,0.852
			s-0.23,0.502-0.408,0.711c-0.178,0.211-0.396,0.393-0.654,0.543c-0.258,0.152-0.551,0.268-0.879,0.342
			c0.156,0.094,0.291,0.223,0.402,0.391l2.455,3.373h-1.105c-0.223,0-0.387-0.088-0.492-0.266l-2.158-3.018
			c-0.068-0.096-0.143-0.164-0.223-0.207c-0.08-0.041-0.201-0.063-0.359-0.063H399.165L399.165,354.755z M399.165,353.849h1.188
			c0.332,0,0.623-0.041,0.875-0.121c0.254-0.078,0.463-0.193,0.631-0.342c0.168-0.146,0.295-0.322,0.381-0.523
			c0.088-0.203,0.131-0.428,0.131-0.676c0-0.5-0.164-0.879-0.492-1.135s-0.822-0.383-1.482-0.383h-1.23V353.849L399.165,353.849z"/>
		<path fill="#FFFFFF" d="M408.127,358.306h-1.242v-8.609h1.242V358.306z"/>
		<path fill="#FFFFFF" d="M417.012,349.697v1.008h-4.086v2.771h3.295v0.973h-3.295v2.85h4.094l-0.008,1.008h-5.326v-8.609H417.012
			L417.012,349.697z"/>
		<path fill="#FFFFFF" d="M424.448,351.083c-0.035,0.063-0.074,0.111-0.117,0.141c-0.041,0.029-0.096,0.045-0.164,0.045
			c-0.072,0-0.154-0.033-0.246-0.1s-0.207-0.139-0.346-0.221s-0.305-0.156-0.494-0.225c-0.191-0.066-0.422-0.1-0.689-0.1
			c-0.258,0-0.482,0.033-0.676,0.1c-0.193,0.068-0.355,0.158-0.486,0.273c-0.129,0.115-0.229,0.252-0.293,0.41
			c-0.066,0.158-0.1,0.33-0.1,0.514c0,0.236,0.059,0.43,0.178,0.582c0.117,0.152,0.271,0.283,0.465,0.395
			c0.191,0.109,0.41,0.203,0.656,0.283s0.496,0.164,0.754,0.252c0.256,0.09,0.506,0.189,0.752,0.299s0.465,0.25,0.656,0.42
			c0.193,0.17,0.348,0.379,0.467,0.625c0.117,0.244,0.176,0.547,0.176,0.9c0,0.381-0.064,0.734-0.193,1.064
			c-0.131,0.33-0.32,0.619-0.568,0.865s-0.551,0.439-0.912,0.582c-0.357,0.141-0.77,0.213-1.229,0.213
			c-0.275,0-0.543-0.027-0.801-0.082s-0.502-0.129-0.732-0.229c-0.229-0.098-0.445-0.215-0.646-0.354
			c-0.203-0.139-0.385-0.293-0.543-0.465l0.359-0.588c0.031-0.049,0.072-0.088,0.123-0.117c0.049-0.029,0.105-0.045,0.164-0.045
			c0.084,0,0.182,0.045,0.291,0.133c0.111,0.088,0.246,0.186,0.408,0.291s0.355,0.203,0.586,0.291
			c0.229,0.088,0.504,0.131,0.828,0.131c0.268,0,0.508-0.035,0.719-0.107c0.213-0.07,0.393-0.174,0.537-0.307
			c0.146-0.131,0.258-0.291,0.334-0.479s0.113-0.396,0.113-0.625c0-0.256-0.061-0.465-0.178-0.627
			c-0.117-0.16-0.271-0.297-0.465-0.402c-0.191-0.109-0.41-0.201-0.652-0.277c-0.244-0.076-0.496-0.154-0.754-0.236
			c-0.26-0.082-0.51-0.178-0.754-0.285c-0.242-0.107-0.463-0.248-0.652-0.424c-0.193-0.174-0.35-0.391-0.465-0.65
			c-0.119-0.26-0.18-0.582-0.18-0.965c0-0.305,0.063-0.602,0.182-0.889c0.121-0.289,0.295-0.543,0.521-0.762
			c0.229-0.221,0.508-0.398,0.842-0.531c0.334-0.135,0.719-0.201,1.15-0.201c0.482,0,0.926,0.076,1.328,0.229
			s0.754,0.371,1.053,0.66L424.448,351.083z"/>
	</g>
</g>
<g id="Layer_1_1_">
	<path fill="none" d="M882.667-52.333"/>
	<g>
		<polygon fill="#FFFFFF" points="206.599,62.898 204.233,61.181 201.869,62.9 202.771,60.119 200.405,58.402 203.329,58.401 
			204.23,55.62 205.135,58.399 208.058,58.399 205.694,60.118 		"/>
		<polygon fill="#FFFFFF" points="234.057,62.898 231.691,61.181 229.327,62.9 230.228,60.119 227.863,58.402 230.786,58.401 
			231.689,55.62 232.593,58.399 235.516,58.399 233.152,60.118 		"/>
		<polygon fill="#FFFFFF" points="261.514,62.898 259.148,61.181 256.785,62.9 257.686,60.119 255.32,58.402 258.244,58.401 
			259.146,55.62 260.05,58.399 262.973,58.399 260.61,60.118 		"/>
		<polygon fill="#FFFFFF" points="288.972,62.898 286.606,61.181 284.242,62.9 285.144,60.119 282.778,58.402 285.701,58.401 
			286.603,55.62 287.508,58.399 290.431,58.399 288.067,60.118 		"/>
		<polygon fill="#FFFFFF" points="316.43,62.898 314.065,61.181 311.7,62.9 312.602,60.119 310.236,58.402 313.161,58.401 
			314.061,55.62 314.965,58.399 317.89,58.399 315.525,60.118 		"/>
		<polygon fill="#FFFFFF" points="343.887,62.898 341.522,61.181 339.157,62.9 340.059,60.119 337.693,58.402 340.618,58.401 
			341.519,55.62 342.422,58.399 345.347,58.399 342.982,60.118 		"/>
		<polygon fill="#FFFFFF" points="371.345,62.898 368.979,61.181 366.616,62.9 367.517,60.119 365.151,58.402 368.075,58.401 
			368.977,55.62 369.881,58.399 372.804,58.399 370.441,60.118 		"/>
		<polygon fill="#FFFFFF" points="398.801,62.898 396.438,61.181 394.073,62.9 394.975,60.119 392.609,58.402 395.532,58.401 
			396.434,55.62 397.338,58.399 400.262,58.399 397.899,60.118 		"/>
	</g>
</g>
</svg>
