<?xml version="1.0" encoding="utf-8"?>
<!-- Generator: Adobe Illustrator 16.0.3, SVG Export Plug-In . SVG Version: 6.00 Build 0)  -->
<!DOCTYPE svg PUBLIC "-//W3C//DTD SVG 1.1//EN" "http://www.w3.org/Graphics/SVG/1.1/DTD/svg11.dtd">
<svg version="1.1" id="Layer_1" xmlns="http://www.w3.org/2000/svg" xmlns:xlink="http://www.w3.org/1999/xlink" x="0px" y="0px"
	 width="388.168px" height="323.392px" viewBox="0 0 388.168 323.392" enable-background="new 0 0 388.168 323.392"
	 xml:space="preserve">
<g>
	<g>
		<rect y="6.619" fill="#FFFFFF" width="7.326" height="66.032"/>
	</g>
	<g>
		<polygon fill="#FFFFFF" points="39.104,6.619 39.104,65.722 57.319,65.722 57.319,72.651 31.777,72.651 31.777,6.619 		"/>
	</g>
	<g>
		<polygon fill="#FFFFFF" points="81.969,6.619 81.969,65.722 100.185,65.722 100.185,72.651 74.643,72.651 74.643,6.619 		"/>
	</g>
	<g>
		<rect x="117.508" y="6.619" fill="#FFFFFF" width="7.326" height="66.032"/>
	</g>
	<g>
		<polygon fill="#FFFFFF" points="149.287,72.651 149.287,3.847 200.765,57.801 200.765,6.619 208.09,6.619 208.09,75.621 
			156.613,21.667 156.613,72.651 		"/>
	</g>
	<g>
		<path fill="#FFFFFF" d="M228.98,39.684c0-19.701,15.345-34.154,34.353-34.154s34.354,14.453,34.354,34.154
			c0,19.602-15.245,34.155-34.354,34.155C244.226,73.839,228.98,59.286,228.98,39.684 M236.504,39.684
			c0,15.147,11.979,27.225,26.828,27.225c14.849,0,26.828-12.078,26.828-27.225c0-15.146-11.979-27.225-26.828-27.225
			C248.482,12.459,236.504,24.538,236.504,39.684"/>
	</g>
	<g>
		<rect x="318.575" y="6.619" fill="#FFFFFF" width="7.325" height="66.032"/>
	</g>
	<g>
		<path fill="#FFFFFF" d="M379.853,19.687c-0.892-1.782-2.376-3.762-3.86-4.95c-1.287-0.99-3.662-2.277-7.425-2.277
			c-6.534,0-11.088,4.059-11.088,10.197c0,2.574,0.692,4.059,2.476,5.742c1.979,1.98,4.455,3.069,6.93,4.158l6.336,2.772
			c3.861,1.683,7.425,3.465,10.195,6.236c3.367,3.367,4.754,7.227,4.754,11.979c0,12.178-9.01,20.295-20.889,20.295
			c-4.357,0-9.802-0.891-14.355-5.346c-3.268-3.168-5.247-7.722-6.139-11.681l7.129-1.98c0.494,3.464,2.078,6.435,3.959,8.415
			c2.871,2.87,6.139,3.662,9.504,3.662c9.01,0,13.267-6.434,13.267-13.067c0-2.97-0.892-5.544-3.267-7.722
			c-1.881-1.782-4.455-2.971-7.922-4.555l-5.938-2.771c-2.573-1.189-5.841-2.574-8.812-5.445c-2.871-2.772-4.554-5.841-4.554-10.791
			c0-10.197,7.82-17.028,18.513-17.028c4.06,0,7.326,0.792,10.594,2.97c2.673,1.782,4.949,4.455,6.435,7.326L379.853,19.687z"/>
	</g>
	<g>
		<path fill="#FFFFFF" d="M69.039,105.979v35.049h-4.524v-35.049H69.039z"/>
		<path fill="#FFFFFF" d="M85.47,104.108h4.576v36.92H85.47V104.108z"/>
		<path fill="#FFFFFF" d="M106.425,104.108h4.576v36.92h-4.576V104.108z"/>
		<path fill="#FFFFFF" d="M146.414,134.165c0,2.6,0.052,4.889,0.208,6.863h-4.056l-0.26-4.107h-0.104
			c-1.196,2.027-3.848,4.68-8.32,4.68c-3.952,0-8.684-2.184-8.684-11.022V115.86h4.576v13.936c0,4.785,1.456,8.01,5.616,8.01
			c3.068,0,5.2-2.133,6.032-4.16c0.26-0.678,0.416-1.51,0.416-2.342V115.86h4.576V134.165L146.414,134.165z"/>
		<path fill="#FFFFFF" d="M160.453,136.349c1.353,0.885,3.744,1.82,6.032,1.82c3.328,0,4.889-1.664,4.889-3.744
			c0-2.184-1.3-3.381-4.681-4.629c-4.524-1.611-6.656-4.107-6.656-7.123c0-4.057,3.276-7.385,8.685-7.385
			c2.548,0,4.784,0.729,6.188,1.561l-1.145,3.328c-0.988-0.625-2.808-1.457-5.148-1.457c-2.704,0-4.212,1.562-4.212,3.432
			c0,2.08,1.508,3.019,4.784,4.267c4.368,1.664,6.604,3.849,6.604,7.592c0,4.421-3.432,7.541-9.412,7.541
			c-2.756,0-5.305-0.678-7.072-1.717L160.453,136.349z"/>
		<path fill="#FFFFFF" d="M194.825,108.632v7.229h6.553v3.484h-6.553v13.572c0,3.119,0.885,4.889,3.434,4.889
			c1.195,0,2.08-0.156,2.65-0.313l0.209,3.432c-0.885,0.363-2.289,0.625-4.057,0.625c-2.132,0-3.848-0.678-4.94-1.926
			c-1.3-1.352-1.768-3.588-1.768-6.551v-13.729h-3.9v-3.483h3.9v-6.033L194.825,108.632z"/>
		<path fill="#FFFFFF" d="M215.208,123.712c0-2.963-0.051-5.512-0.207-7.852h4.004l0.156,4.938h0.207
			c1.146-3.379,3.9-5.512,6.969-5.512c0.521,0,0.885,0.053,1.301,0.155v4.316c-0.469-0.105-0.936-0.156-1.561-0.156
			c-3.225,0-5.513,2.443-6.137,5.875c-0.104,0.625-0.208,1.354-0.208,2.133v13.416h-4.524V123.712z"/>
		<path fill="#FFFFFF" d="M254.157,141.028l-0.363-3.172h-0.155c-1.404,1.977-4.108,3.744-7.696,3.744
			c-5.098,0-7.695-3.588-7.695-7.229c0-6.084,5.407-9.412,15.133-9.358v-0.521c0-2.08-0.572-5.824-5.721-5.824
			c-2.341,0-4.785,0.728-6.554,1.871l-1.039-3.017c2.08-1.352,5.097-2.235,8.269-2.235c7.695,0,9.567,5.252,9.567,10.297v9.412
			c0,2.185,0.104,4.315,0.416,6.03h-4.161V141.028z M253.481,128.185c-4.992-0.104-10.66,0.779-10.66,5.668
			c0,2.965,1.977,4.369,4.316,4.369c3.275,0,5.355-2.08,6.084-4.213c0.156-0.469,0.26-0.988,0.26-1.457V128.185L253.481,128.185z"/>
		<path fill="#FFFFFF" d="M273.188,108.632v7.229h6.553v3.484h-6.553v13.572c0,3.119,0.884,4.889,3.432,4.889
			c1.196,0,2.08-0.156,2.652-0.313l0.208,3.432c-0.884,0.363-2.288,0.625-4.056,0.625c-2.133,0-3.85-0.678-4.94-1.926
			c-1.3-1.352-1.769-3.588-1.769-6.551v-13.729h-3.9v-3.483h3.9v-6.033L273.188,108.632z"/>
		<path fill="#FFFFFF" d="M296.12,129.276c0.104,6.188,4.057,8.736,8.633,8.736c3.276,0,5.252-0.572,6.97-1.302l0.778,3.276
			c-1.61,0.729-4.367,1.562-8.371,1.562c-7.748,0-12.377-5.098-12.377-12.688c0-7.592,4.473-13.572,11.805-13.572
			c8.217,0,10.4,7.229,10.4,11.855c0,0.938-0.104,1.664-0.156,2.133H296.12z M309.538,126.001c0.051-2.912-1.197-7.438-6.346-7.438
			c-4.628,0-6.656,4.266-7.02,7.438H309.538z"/>
		<path fill="#FFFFFF" d="M349.42,104.108v30.42c0,2.236,0.052,4.785,0.207,6.5h-4.107l-0.208-4.367h-0.104
			c-1.402,2.809-4.472,4.939-8.58,4.939c-6.084,0-10.764-5.148-10.764-12.793c-0.053-8.371,5.147-13.521,11.284-13.521
			c3.849,0,6.448,1.819,7.593,3.848h0.104v-15.026H349.42L349.42,104.108z M344.844,126.104c0-0.572-0.053-1.353-0.209-1.924
			c-0.676-2.912-3.172-5.306-6.604-5.306c-4.732,0-7.539,4.16-7.539,9.726c0,5.096,2.495,9.309,7.437,9.309
			c3.067,0,5.876-2.029,6.708-5.461c0.154-0.623,0.208-1.248,0.208-1.977L344.844,126.104L344.844,126.104z"/>
	</g>
</g>
<g>
	<path fill="#FFFFFF" d="M105.688,312.944c-0.255-0.049-0.631-0.145-0.836-0.215c-0.495-0.164-1.334-0.721-1.711-1.135
		c-0.272-0.424-0.734-0.971-0.877-1.414c-0.042-0.127-0.412-0.959-0.498-1.6c-0.2-1.502,0.007-3.141,0.825-4.184
		c0.9-1.148,1.769-1.742,3.012-1.965c0.455-0.078,1.224-0.098,1.615-0.043c0.118,0.018,0.332,0.047,0.475,0.064
		c1.257,0.164,2.571,1.176,3.213,2.477c0.448,0.906,0.619,1.658,0.62,2.721c0,1.473-0.327,2.545-1.088,3.553
		c-0.641,0.854-1.512,1.434-2.476,1.654C107.295,313.011,106.233,313.05,105.688,312.944 M107.717,311.368
		c0.156-0.068,0.194-0.076,0.287-0.123c0.09-0.045,0.178-0.094,0.262-0.148c0.152-0.105,0.32-0.199,0.434-0.344
		c0.48-0.609,0.823-1.275,0.981-2.109c0.129-0.682,0.049-1.922-0.169-2.596c-0.51-1.582-1.599-2.35-3.174-2.238
		c-1.675,0.119-2.711,1.408-2.838,3.527c-0.127,2.129,0.857,3.807,2.43,4.143C106.37,311.571,107.387,311.509,107.717,311.368
		 M115.334,312.937c-0.995-0.184-1.819-0.639-2.298-1.268c-0.379-0.496-0.496-0.742-0.66-1.383
		c-0.128-0.502-0.139-0.809-0.139-4.125v-3.584h0.886h0.886l0.023,3.613c-0.005,1.377-0.112,2.66,0.193,4.025
		c0.198,0.479,0.69,0.969,1.119,1.109c0.429,0.141,1.446,0.184,1.885,0.078c0.839-0.197,1.256-0.607,1.497-1.473
		c0.121-0.438,0.133-0.783,0.133-3.918v-3.436h0.889h0.89v3.576c-0.057,2.168,0.339,4.625-1.236,5.988
		c-0.912,0.748-2.575,1.072-4.066,0.795H115.334z M164.057,312.968c-0.653-0.072-1.418-0.326-1.957-0.65
		c-0.496-0.299-1.212-1.051-1.552-1.633c-0.613-1.045-0.906-2.51-0.75-3.748c0.308-2.443,1.68-4.072,3.795-4.508
		c0.832-0.172,1.342-0.17,2.167,0.006c2.053,0.432,3.366,1.891,3.758,4.168c0.326,1.889-0.241,3.848-1.47,5.08
		c-0.986,0.988-2.433,1.455-3.991,1.287V312.968z M165.697,311.362c1.314-0.436,2.076-1.818,2.076-3.764
		c0-1.775-0.718-3.129-1.913-3.602c-0.554-0.221-1.482-0.268-2.044-0.105c-0.926,0.266-1.597,0.932-1.949,1.93
		c-0.495,1.408-0.367,3.166,0.316,4.34c0.225,0.387,0.779,0.895,1.198,1.096C163.994,311.554,164.989,311.599,165.697,311.362
		 M121.778,307.702v-5.127h0.944h0.944l0.885,1.406c0.487,0.775,1.097,1.744,1.356,2.154c0.259,0.412,0.902,1.443,1.429,2.295
		c0.526,0.852,0.981,1.549,1.01,1.551c0.029,0,0.054-1.65,0.054-3.668v-3.666h0.854h0.855v5.092v5.092l-0.94-0.018l-0.94-0.02
		l-0.514-0.818c-0.285-0.449-0.503-0.83-0.487-0.846c0.017-0.018-0.012-0.064-0.064-0.109c-0.052-0.043-0.432-0.621-0.846-1.289
		c-0.412-0.664-0.89-1.424-1.061-1.688c-0.171-0.264-0.615-0.975-0.987-1.58l-0.677-1.102l-0.018,3.734l-0.019,3.732h-0.889h-0.889
		V307.702z M131.676,307.731v-5.094l2.688,0.025c2.551,0.023,2.711,0.033,3.161,0.184c0.906,0.303,1.811,1.061,2.248,1.887
		c0.442,0.834,0.707,2.346,0.621,3.537c-0.053,0.738-0.308,1.865-0.409,1.803c-0.04-0.023-0.05-0.008-0.021,0.037
		c0.066,0.109-0.232,0.695-0.593,1.166c-0.372,0.486-0.737,0.783-1.338,1.086c-0.782,0.398-1.377,0.465-4.053,0.465h-2.304V307.731z
		 M136.694,311.163c0.785-0.26,1.386-0.836,1.68-1.611c0.22-0.58,0.315-1.723,0.213-2.564c-0.154-1.271-0.5-1.959-1.218-2.418
		c-0.603-0.389-1.19-0.498-2.646-0.498h-1.269v3.639v3.639l1.443-0.035C135.975,311.288,136.429,311.251,136.694,311.163
		 M140.325,312.704c0.026-0.068,0.318-0.846,0.648-1.727s0.627-1.666,0.662-1.746c0.065-0.145,0.12-0.291,0.496-1.281
		c0.118-0.313,0.326-0.857,0.462-1.209c0.557-1.447,0.998-2.607,1.28-3.363l0.299-0.801h0.96h0.962l0.525,1.367
		c0.289,0.754,0.762,1.977,1.052,2.723c0.29,0.744,0.771,1.977,1.068,2.74c0.297,0.764,0.713,1.824,0.924,2.355
		c0.209,0.533,0.382,0.99,0.382,1.016s-0.43,0.047-0.954,0.047h-0.956l-0.138-0.408c-0.076-0.227-0.292-0.836-0.477-1.354
		l-0.341-0.943h-2.051h-2.05l-0.137,0.375c-0.076,0.203-0.292,0.813-0.478,1.352l-0.341,0.979H141.2c-0.852,0-0.92-0.01-0.875-0.125
		V312.704z M146.626,308.673c0-0.088-0.221-0.74-1.214-3.568l-0.275-0.781l-0.113,0.273c-0.099,0.238-1.338,3.723-1.436,4.049
		c-0.037,0.115,0.067,0.123,1.499,0.123C146.35,308.769,146.626,308.753,146.626,308.673 M151.541,308.485v-4.344h-1.603h-1.602
		v-0.818v-0.818h4.13h4.129v0.818v0.818h-1.602h-1.602v4.344v4.342h-0.925h-0.925V308.485z M94.58,307.667v-5.092h3.525h3.525v0.783
		v0.783h-2.599h-2.599v1.318v1.316h2.314h2.315v0.711v0.711l-2.297,0.02l-2.296,0.02l-0.019,2.26l-0.018,2.26h-0.926h-0.924
		L94.58,307.667L94.58,307.667z M157.165,307.632v-5.127h0.89h0.89v5.127v5.125h-0.89h-0.89V307.632z M170.336,302.501l1.9,0.02
		l4.653,7.391l0.068-7.404h1.638v10.182h-1.849l-4.637-7.373l-0.064,7.445h-1.709V302.501z M135.377,295.263l-0.631-0.148v6.047
		l-0.325,0.014l-0.325-0.02v-6.178l-0.638-0.115v6.232l-0.566-0.074l0.006-6.299l-0.68-0.154l-0.001,6.303
		c-0.053,0-0.198-0.02-0.32-0.045l-0.222-0.045v-6.301l-0.711-0.139v6.252l-0.16-0.043c-0.088-0.027-0.336-0.105-0.405-0.125
		l-0.006-5.902l-1.531,0.563l-0.037,4.785c-0.262-0.111-0.509-0.201-0.746-0.316l-0.037-4.373l-2.135-0.307l-0.049,3.363
		c-0.229-0.107-0.381-0.232-0.595-0.389v-3.012l-2.357,0.93l-0.492-0.492l3.161-1.188l2.849,0.475l2.265-0.906l15.958,3.418
		c0.031,0.049-1.171,1.016-1.358,1.096v-0.738l-0.66-0.121l-0.006,1.277l-0.166,0.117c-0.145,0.1-0.457,0.258-0.457,0.258
		l0.007-1.818l-0.586-0.133v2.268l-0.267,0.137c-0.147,0.074-0.29,0.146-0.321,0.16l-0.005-2.725c0,0-0.258-0.043-0.386-0.07
		l-0.231-0.051v3.129l-0.287,0.113c-0.157,0.064-0.402,0.145-0.441,0.145v-3.527l-0.553-0.135v3.896l-0.276,0.082
		c-0.151,0.047-0.348,0.092-0.373,0.092l0.009-4.195l-0.567-0.104l0.007,4.434c-0.029,0.02-0.238,0.08-0.384,0.107l-0.277,0.049
		v-4.701c-0.029-0.02-0.217-0.094-0.364-0.123l-0.267-0.049v2.49v2.494l-0.222,0.041c-0.123,0.025-0.356,0.037-0.409,0.037v-5.191
		l-0.594-0.146v5.393c-0.073,0.014-0.349,0.053-0.444,0.053l-0.181,0.004v-5.574l-0.569-0.135v5.717
		c-0.069,0-0.339,0.055-0.446,0.068l-0.2,0.012L135.377,295.263z M96.841,296.829l-0.017-4.324l-3.169-0.041v-1.49h8.188v1.49
		l-3.168,0.041l-0.018,4.324l-0.035,4.326h-1.791L96.841,296.829z M109.968,301.13l3.444-5.242l-3.356-4.932l1.085,0.008
		l1.087,0.006l1.14,1.773c0.626,0.977,1.155,1.775,1.174,1.775l2.433-3.545h1.984l-3.363,4.91l3.646,5.271h-2.219l-2.546-3.783
		l-2.577,3.773 M107.599,301.132l-0.966-2.641h-4.105l-0.911,2.664h-1.921l3.854-10.182h1.768l4.238,10.158 M106.042,297.026
		l-1.502-4.232l-1.487,4.238L106.042,297.026z M146.733,296.202c-0.391-0.094-0.919-0.215-1.174-0.273s-1.104-0.248-1.887-0.428
		c-0.783-0.178-2.77-0.629-4.415-1l-8.56-1.959l-2.273,0.98l-2.841-0.537l-3.879,1.404c-0.047,0-0.305-0.43-0.272-0.451l4.156-1.52
		l2.836,0.619l2.258-0.934l9.27,2.211c0.499,0.119,1.316,0.316,1.815,0.438c0.499,0.119,1.309,0.313,1.798,0.428
		c1.425,0.34,3.572,0.855,3.868,0.93c0.226,0.059,0.258,0.086,0.188,0.172c-0.048,0.057-0.106,0.1-0.131,0.096
		C147.467,296.372,147.125,296.294,146.733,296.202 M148.187,295.573c-0.028-0.027-1.493-0.375-4.444-1.053
		c-0.351-0.08-0.816-0.188-1.031-0.238c-0.216-0.047-1.017-0.234-1.781-0.416c-2.413-0.568-4.639-1.09-5.357-1.252l-0.695-0.158
		v-0.564c0-0.467,0.033-0.631,0.185-0.928c0.222-0.441,0.331-1.035,0.224-1.236c-0.152-0.287-0.507-0.676-0.915-1.004
		c-0.365-0.291-0.419-0.367-0.419-0.58c0-0.137,0.062-0.324,0.143-0.426c0.341-0.436,0.094-1.131-0.685-1.934
		c-0.331-0.34-0.463-0.533-0.523-0.775c-0.224-0.887-0.821-1.949-1.507-2.684c-0.334-0.406-0.376-0.455-0.678-0.666
		c-0.119-0.104-0.378-0.299-0.573-0.434c-0.222-0.15-0.388-0.326-0.438-0.467c-0.046-0.123-0.195-0.357-0.331-0.518
		c-0.229-0.266-0.25-0.328-0.25-0.746c0-0.313,0.045-0.539,0.143-0.732c0.078-0.154,0.142-0.326,0.142-0.381
		c0-0.057-0.139-0.266-0.309-0.465c-0.497-0.588-0.527-0.66-0.576-1.432c-0.055-0.854-0.167-1.406-0.28-1.369
		c-0.119,0.039-0.244,0.719-0.252,1.369c-0.007,0.635-0.097,0.863-0.507,1.299c-0.138,0.148-0.294,0.352-0.345,0.455
		c-0.087,0.17-0.078,0.213,0.09,0.461c0.156,0.23,0.186,0.354,0.186,0.764c0,0.426-0.026,0.518-0.189,0.713
		c-0.104,0.123-0.242,0.342-0.306,0.484c-0.08,0.178-0.304,0.4-0.684,0.686c-0.545,0.406-1.087,0.953-1.567,1.494
		c-0.139,0.156-0.255,0.334-0.377,0.504c-0.099,0.139-0.201,0.275-0.289,0.422c-0.12,0.203-0.249,0.402-0.326,0.627
		c-0.094,0.232-0.148,0.445-0.118,0.473c0.029,0.031,0.308-0.045,0.618-0.164c1.068-0.414,1.923-0.568,3.38-0.611
		c1.83-0.055,3.606,0.152,3.852,0.447c0.109,0.131,0.075,0.131-0.961-0.057c-1.113-0.201-3.191-0.219-4.279-0.041
		c-1.331,0.221-2.306,0.637-2.966,1.264c-0.527,0.5-0.562,0.723-0.075,0.471c0.447-0.229,1.661-0.58,2.756-0.797
		c0.74-0.146,3.256-0.215,3.845-0.105c0.235,0.045,0.475,0.082,0.534,0.084c0.526,0.016,2.102,0.488,2.366,0.707
		c0.234,0.197,0.041,0.182-0.638-0.045c-1.039-0.35-1.972-0.473-3.579-0.479c-2.502-0.008-4.291,0.418-5.708,1.355
		c-0.323,0.215-0.339,0.344-0.092,0.766c0.129,0.221,0.176,0.395,0.164,0.607c-0.016,0.25-0.061,0.33-0.306,0.52
		c-0.298,0.234-0.543,0.494-0.503,0.535c0.013,0.014,0.154-0.059,0.315-0.162c0.487-0.307,1.74-0.826,2.355-0.975
		c1.339-0.324,2.121-0.416,3.517-0.416c2.069,0,3.957,0.342,5.102,0.926c0.267,0.137,0.373,0.283,0.203,0.283
		c-0.043,0-0.356-0.092-0.697-0.207c-2.511-0.842-5.734-0.941-8.137-0.252c-0.924,0.264-2.486,0.982-2.75,1.264
		c-0.171,0.182-0.38,0.563-0.333,0.609c0.017,0.018,0.446-0.182,0.953-0.443c1.745-0.898,3.149-1.248,5.24-1.307
		c1.447-0.039,2.325,0.045,3.62,0.352c0.701,0.164,0.83,0.285,0.693,0.646c-0.099,0.26-0.268,0.314-0.522,0.168
		c-0.114-0.064-0.237-0.117-0.272-0.117c-0.037,0-0.066,0.451-0.066,1.031c0,0.986-0.006,1.033-0.142,1.033
		c-0.078,0-0.144-0.039-0.146-0.09c0-0.047-0.009-0.504-0.018-1.012c-0.013-0.867-0.025-0.928-0.167-1
		c-0.084-0.041-0.203-0.117-0.263-0.166c-0.061-0.051-0.184-0.084-0.275-0.068c-0.162,0.021-0.164,0.039-0.199,1.162
		c-0.035,1.078-0.045,1.139-0.179,1.139c-0.135,0-0.143-0.055-0.162-1.082c-0.017-1.012-0.029-1.086-0.162-1.127
		c-0.078-0.025-0.203-0.111-0.276-0.189c-0.074-0.078-0.193-0.131-0.265-0.119c-0.12,0.023-0.134,0.135-0.167,1.271
		c-0.034,1.186-0.042,1.246-0.177,1.246c-0.136,0-0.144-0.055-0.163-1.086c-0.017-0.934-0.036-1.086-0.132-1.086
		c-0.062,0-0.21-0.082-0.328-0.182c-0.413-0.348-0.444-0.277-0.466,1.068c-0.019,1.205-0.052,1.357-0.276,1.27
		c-0.074-0.027-0.096-0.268-0.096-1.049v-1.01l-0.281-0.186c-0.171-0.111-0.339-0.17-0.427-0.146
		c-0.139,0.035-0.145,0.09-0.145,1.23c0,0.988-0.02,1.209-0.111,1.283c-0.215,0.18-0.259-0.023-0.249-1.121
		c0.01-1.162,0-1.191-0.406-1.273c-0.336-0.066-0.374,0.082-0.374,1.463c0,1.168-0.006,1.215-0.142,1.215
		c-0.133,0-0.144-0.051-0.153-0.764c-0.021-1.412-0.028-1.51-0.114-1.596c-0.063-0.063-0.163-0.068-0.355-0.021l-0.268,0.066
		l-0.019,1.293c-0.016,1.018-0.042,1.309-0.122,1.377c-0.212,0.178-0.251,0-0.251-1.17c0-1.238-0.031-1.355-0.342-1.275
		c-0.086,0.023-0.163,0.045-0.169,0.051c-0.008,0.004-0.032,0.619-0.055,1.363c-0.037,1.291-0.044,1.352-0.181,1.352
		c-0.135,0-0.145-0.059-0.178-1.139c-0.035-1.104-0.04-1.139-0.191-1.16c-0.266-0.039-0.314,0.184-0.304,1.416
		c0.006,0.629-0.009,1.162-0.029,1.184c-0.022,0.021-0.088,0.02-0.147,0c-0.087-0.033-0.112-0.213-0.128-0.918
		c-0.019-0.82-0.028-0.875-0.162-0.875c-0.136,0-0.143,0.055-0.163,1.049l-0.019,1.051l-0.258,0.109
		c-0.143,0.059-0.267,0.1-0.277,0.088c-0.141-0.145-1.384-2.334-1.384-2.439c0-0.027-0.154-0.334-0.218-0.506
		c-0.429-1.176-0.992-2.342-1.094-3.588c-0.297-3.619-0.206-7.488,1.442-10.801c1.013-1.854,2.483-4.072,4.356-5.607
		c0.176-0.141,0.447-0.357,0.602-0.484c2.21-1.51,3.749-2.457,6.447-3.121c1.523-0.361,2.636-0.492,4.19-0.49
		c2.201,0.002,4.102,0.352,6.335,1.172c0.36,0.131,2.051,0.949,2.468,1.195c0.712,0.416,1.106,0.705,1.06,0.779
		c-0.031,0.049-0.016,0.059,0.036,0.025c0.147-0.09,1.771,1.221,2.607,2.105c2.804,2.975,4.49,6.639,4.813,10.461
		c0.166,1.969,0.161,2.516-0.038,3.732c-0.219,1.34-0.341,1.912-0.575,2.697c-0.871,2.273-1.974,4.596-3.348,6.238
		c-0.558,0.66-0.56,0.662-0.61,0.615V295.573z M141.714,290.813c0.131-0.088,0.304-0.289,0.384-0.445
		c0.139-0.264,0.15-0.4,0.15-1.887c0-1.48-0.011-1.623-0.148-1.883c-0.267-0.51-0.732-0.713-1.439-0.633
		c-0.297,0.035-0.435,0.098-0.66,0.301c-0.251,0.227-0.299,0.322-0.397,0.793c-0.133,0.646-0.084,1.324,0.13,1.77
		c0.115,0.242,0.222,0.344,0.47,0.453c0.369,0.162,0.799,0.139,1.017-0.059c0.134-0.119,0.137-0.113,0.137,0.24
		c0,0.445-0.115,0.717-0.327,0.77c-0.327,0.082-0.496-0.061-0.471-0.398c0-0.02-0.203-0.025-0.455-0.012
		c-0.418,0.021-0.456,0.035-0.456,0.186c0,0.311,0.16,0.617,0.416,0.791c0.222,0.15,0.339,0.174,0.836,0.174
		C141.384,290.974,141.519,290.946,141.714,290.813 M140.638,288.507c-0.063-0.076-0.107-0.355-0.123-0.785
		c-0.03-0.813,0.071-1.041,0.437-1.006c0.339,0.031,0.418,0.246,0.388,1.045c-0.021,0.553-0.047,0.684-0.159,0.766
		C140.999,288.659,140.755,288.649,140.638,288.507 M144.827,290.886c0.293-0.131,0.503-0.4,0.625-0.797
		c0.212-0.693,0.059-1.449-0.349-1.717l-0.184-0.119l0.173-0.137c0.237-0.186,0.347-0.564,0.31-1.066
		c-0.052-0.748-0.446-1.074-1.296-1.08c-0.425-0.004-0.571,0.027-0.789,0.162c-0.307,0.189-0.531,0.613-0.533,1.014v0.268h0.417
		h0.419l0.045-0.281c0.104-0.645,0.828-0.555,0.828,0.104c0,0.385-0.173,0.586-0.558,0.646l-0.296,0.049v0.338v0.338l0.303,0.047
		c0.547,0.088,0.622,0.184,0.622,0.791c0,0.447-0.024,0.557-0.149,0.684c-0.115,0.113-0.202,0.139-0.372,0.105
		c-0.309-0.063-0.352-0.125-0.389-0.576l-0.033-0.393h-0.454h-0.454v0.377c0,0.471,0.229,0.951,0.563,1.172
		c0.199,0.131,0.34,0.16,0.797,0.16c0.305,0,0.645-0.041,0.756-0.088H144.827z M138.725,285.989h-0.34
		c-0.319,0-0.349,0.018-0.48,0.258c-0.148,0.277-0.515,0.488-0.979,0.561c-0.261,0.043-0.266,0.049-0.266,0.361v0.316h0.57h0.568
		v3.488h0.909L138.725,285.989z M147.657,290.423c0.109-1.047,0.489-2.354,0.954-3.275c0.153-0.301,0.224-0.543,0.224-0.764v-0.322
		h-2.856v0.746h1.955l-0.406,0.83c-0.331,0.721-0.567,1.598-0.788,2.416c-0.083,0.303-0.247,0.818-0.202,0.92h1.065l0.056-0.551
		H147.657z M136.304,285.271c0.71-0.152,1.134-0.797,1.042-1.582c-0.056-0.477-0.267-0.779-0.817-1.168l-0.608-0.447
		c-0.226-0.166-0.544-0.393-0.584-0.604c-0.084-0.449,0.503-0.719,0.822-0.379c0.092,0.1,0.144,0.252,0.144,0.428v0.27h0.943
		l-0.031-0.42c-0.055-0.768-0.553-1.217-1.343-1.217c-1.008,0.002-1.514,0.43-1.515,1.283c0,0.215,0.042,0.471,0.093,0.568
		c0.095,0.18,0.426,0.504,0.67,0.725c0.356,0.322,1.05,0.723,1.152,0.869c0.272,0.389,0.022,0.926-0.43,0.926
		c-0.365,0-0.532-0.225-0.534-0.723v-0.371h-0.509h-0.509l0.042,0.492c0.063,0.758,0.327,1.139,0.914,1.322
		C135.634,285.364,135.846,285.37,136.304,285.271L136.304,285.271z M145.064,285.022c0.228-0.229,0.348-0.584,0.35-1.043v-0.268
		h-0.462h-0.464v0.35c0,0.379-0.137,0.6-0.327,0.527c-0.187-0.072-0.241-0.355-0.24-1.256c0-0.996,0.031-1.166,0.223-1.227
		c0.208-0.066,0.344,0.094,0.344,0.404v0.275h0.473h0.473l-0.036-0.361c-0.037-0.381-0.186-0.639-0.51-0.879
		c-0.281-0.213-1.086-0.211-1.373,0c-0.393,0.289-0.45,0.516-0.45,1.811c0,1.305,0.052,1.506,0.462,1.783
		c0.179,0.121,0.306,0.141,0.765,0.123C144.8,285.243,144.861,285.224,145.064,285.022L145.064,285.022z M148.058,285.114
		c0.134-0.09,0.287-0.258,0.343-0.373c0.172-0.313,0.156-0.563,0.162-0.82l-0.94,0.006v0.23c0,0.32-0.091,0.434-0.349,0.434
		c-0.311,0-0.383-0.102-0.418-0.594l-0.031-0.428h1.718l-0.02-0.73c-0.011-0.402-0.079-0.795-0.126-0.895
		c-0.285-0.584-1.514-0.756-2.044-0.273c-0.31,0.281-0.366,0.535-0.366,1.67c0,0.967,0.014,1.088,0.162,1.365
		c0.224,0.424,0.524,0.572,1.161,0.572c0.411,0,0.553-0.031,0.75-0.164H148.058z M146.842,282.622c0-0.316,0.174-0.549,0.416-0.549
		c0.273,0,0.365,0.123,0.365,0.479v0.307h-0.391h-0.39V282.622z M139.009,281.505h-0.925l-0.006,3.674
		c0.026,0.025,0.287,0.027,0.516,0.027h0.414L139.009,281.505z M140.719,283.942c0-1.242-0.025-1.107,0.105-1.572
		c0.03-0.105,0.16-0.188,0.256-0.211c0.342-0.084,0.384,0.096,0.408,1.635l0.025,1.412h0.421h0.422v-1.668
		c0-1.107,0.064-1.148-0.077-1.717c-0.04-0.162-0.223-0.279-0.366-0.342c-0.413-0.184-0.755-0.129-1.049,0.164
		c-0.145,0.145-0.146,0.145-0.146,0.004c0-0.127-0.047-0.143-0.427-0.143h-0.427v1.852v1.85h0.427h0.427v-1.262L140.719,283.942z
		 M139.012,280.212h-0.934v0.865h0.931L139.012,280.212z M126.637,292.261c0.022-0.121,0.44-0.242,0.674-0.199
		c0.09,0.018,0.164,0.006,0.164-0.029s0.241-0.063,0.534-0.063s0.535,0.023,0.535,0.055c0,0.029,0.116,0.059,0.259,0.066
		c0.225,0.012,0.376,0.105,0.38,0.238c0,0.023-0.577,0.037-1.283,0.035C126.824,292.364,126.619,292.345,126.637,292.261
		 M123.162,288.325c-0.036-0.051-0.05-0.316-0.03-0.592c0.041-0.576,0.154-0.523,0.191,0.09
		C123.35,288.249,123.273,288.485,123.162,288.325z M123.732,288.034c-0.02-0.055-0.029-0.322-0.017-0.592
		c0.015-0.363,0.047-0.492,0.121-0.492c0.135,0,0.159,1.113,0.024,1.158C123.812,288.124,123.754,288.093,123.732,288.034
		 M124.442,287.817c-0.019-0.053-0.026-0.365-0.015-0.693c0.017-0.477,0.043-0.602,0.128-0.602c0.162,0,0.196,1.283,0.035,1.344
		C124.53,287.89,124.462,287.868,124.442,287.817L124.442,287.817z M125.196,286.95c0-0.535,0.022-0.676,0.102-0.676
		c0.14,0,0.151,0.061,0.125,0.746c-0.018,0.469-0.047,0.607-0.125,0.607C125.217,287.628,125.196,287.489,125.196,286.95
		 M126.165,287.433c-0.08-0.078-0.046-1.289,0.036-1.342c0.141-0.086,0.204,0.137,0.205,0.729c0,0.434-0.025,0.588-0.099,0.617
		C126.251,287.46,126.188,287.456,126.165,287.433L126.165,287.433z M127.095,287.296c-0.079-0.08-0.054-1.293,0.029-1.346
		c0.128-0.078,0.168,0.029,0.197,0.541C127.358,287.163,127.271,287.472,127.095,287.296z M128.042,287.226
		c-0.032-0.941-0.017-1.336,0.053-1.359c0.104-0.035,0.18,0.461,0.149,0.973c-0.013,0.229-0.058,0.398-0.111,0.416
		C128.084,287.271,128.042,287.259,128.042,287.226z M128.948,287.226c-0.027-0.027-0.049-0.35-0.049-0.719
		c0-0.504,0.022-0.662,0.089-0.641c0.06,0.02,0.095,0.232,0.11,0.656C129.116,287.106,129.065,287.345,128.948,287.226
		 M129.752,286.597c0-0.555,0.02-0.676,0.107-0.676c0.087,0,0.108,0.121,0.108,0.676c0,0.553-0.021,0.676-0.108,0.676
		C129.772,287.272,129.752,287.149,129.752,286.597 M124.556,283.784c0-0.139,0.075-0.186,0.161-0.1
		c0.057,0.057-0.017,0.242-0.098,0.242C124.583,283.927,124.556,283.862,124.556,283.784 M125.139,283.517
		c0.03-0.156,0.157-0.154,0.187,0.004c0.015,0.074-0.022,0.121-0.094,0.121c-0.074,0-0.108-0.047-0.093-0.127V283.517z
		 M125.79,283.388c-0.06-0.156,0.103-0.313,0.186-0.18c0.07,0.113,0.022,0.291-0.077,0.291
		C125.863,283.499,125.813,283.448,125.79,283.388 M126.549,283.187c0-0.102,0.032-0.186,0.071-0.186s0.071,0.049,0.071,0.107v0.16
		c0,0.029-0.032,0.063-0.071,0.076S126.549,283.286,126.549,283.187 M127.289,283.11c-0.022-0.057-0.019-0.137,0.005-0.176
		c0.083-0.135,0.181-0.08,0.181,0.104C127.475,283.229,127.352,283.278,127.289,283.11L127.289,283.11z M128.079,283.144
		c-0.057-0.094,0.026-0.355,0.113-0.355c0.037,0,0.066,0.096,0.066,0.213C128.258,283.212,128.166,283.282,128.079,283.144
		L128.079,283.144z M128.898,283.001c0-0.117,0.032-0.213,0.071-0.213s0.071,0.096,0.071,0.213s-0.032,0.213-0.071,0.213
		C128.932,283.214,128.898,283.118,128.898,283.001"/>
	<g>
		<path fill="#FFFFFF" d="M118.653,214.993l2.442-16.172H124l2.442,16.172h-2.311l-0.44-3.301h-2.289l-0.44,3.301H118.653z
			 M122.679,204.079l-0.066-0.418h-0.132l-0.066,0.418l-0.682,5.105h1.628L122.679,204.079z"/>
		<path fill="#FFFFFF" d="M140.389,198.821h2.31l-2.464,16.172h-2.376l-2.464-16.172h2.31l1.188,8.889l0.088,0.684h0.132
			l0.088-0.684L140.389,198.821z"/>
		<path fill="#FFFFFF" d="M146.46,198.821h2.376v16.172h-2.376V198.821z"/>
		<path fill="#FFFFFF" d="M157.109,203.155c0-0.527-0.022-1.121-0.176-1.584c-0.154-0.439-0.396-0.748-0.77-0.748
			c-0.616,0.021-0.814,0.66-0.814,1.607c0,0.549,0.242,1.121,0.594,1.738c0.352,0.615,0.814,1.254,1.276,1.936
			c0.55,0.814,1.1,1.65,1.518,2.465c0.418,0.814,0.704,1.65,0.704,2.529c0,1.078-0.176,2.09-0.682,2.838
			c-0.506,0.75-1.32,1.232-2.618,1.232c-1.518,0-2.376-0.572-2.86-1.451c-0.484-0.881-0.594-2.047-0.594-3.256l2.333-0.221
			c0,0.682,0.022,1.363,0.198,1.869c0.154,0.529,0.418,0.881,0.924,0.881c0.704,0,0.968-0.748,0.968-1.781
			c0-0.529-0.264-1.145-0.616-1.783c-0.198-0.309-0.396-0.639-0.616-0.969c-0.462-0.66-0.968-1.408-1.496-2.221
			c-0.528-0.814-0.924-1.65-1.166-2.51c-0.132-0.418-0.198-0.857-0.198-1.297c0-0.881,0.198-1.826,0.704-2.553
			c0.506-0.705,1.276-1.211,2.398-1.232c1.43-0.021,2.266,0.572,2.729,1.43c0.462,0.881,0.594,1.959,0.594,2.861L157.109,203.155z"
			/>
		<path fill="#FFFFFF" d="M169.626,198.821v12.85c-0.022,0.66-0.154,1.254-0.396,1.76c-0.198,0.441-0.506,0.859-0.946,1.189
			c-0.44,0.352-1.034,0.549-1.827,0.549c-0.792,0-1.408-0.197-1.848-0.549c-0.44-0.33-0.726-0.748-0.924-1.189
			c-0.242-0.506-0.375-1.1-0.396-1.76v-12.85h2.376v12.85c0,0.463,0.11,0.77,0.33,1.012c0.11,0.111,0.264,0.176,0.462,0.176
			c0.418,0,0.616-0.264,0.704-0.594c0.066-0.154,0.088-0.352,0.088-0.594v-12.85H169.626z"/>
		<path fill="#FFFFFF" d="M173.189,214.993l2.442-16.172h2.904l2.442,16.172h-2.311l-0.44-3.301h-2.289l-0.44,3.301H173.189z
			 M177.216,204.079l-0.066-0.418h-0.132l-0.066,0.418l-0.682,5.105h1.628L177.216,204.079z"/>
		<path fill="#FFFFFF" d="M184.762,198.821h2.376v13.973h3.146v2.199h-5.522V198.821z"/>
		<path fill="#FFFFFF" d="M203.571,204.63v-2.486c0-0.439-0.088-0.748-0.307-1.012c-0.111-0.109-0.287-0.176-0.484-0.176
			c-0.418,0-0.617,0.307-0.705,0.594c-0.066,0.176-0.088,0.373-0.088,0.594v9.727c0,0.461,0.111,0.77,0.33,1.012
			c0.111,0.109,0.264,0.176,0.463,0.176c0.418,0,0.615-0.264,0.703-0.594c0.066-0.154,0.088-0.354,0.088-0.594v-2.928h-0.945v-2.002
			h3.322v8.053h-1.408l-0.285-0.77c-0.441,0.551-1.078,0.945-1.85,0.945c-0.77,0-1.297-0.197-1.693-0.549
			c-0.396-0.33-0.66-0.748-0.836-1.189c-0.199-0.506-0.287-1.1-0.264-1.76v-9.527c0.021-0.639,0.152-1.232,0.395-1.738
			c0.199-0.439,0.484-0.879,0.924-1.209c0.441-0.33,1.057-0.551,1.85-0.551c0.791,0,1.387,0.221,1.826,0.551s0.748,0.77,0.945,1.209
			c0.242,0.506,0.375,1.1,0.396,1.738v2.486H203.571z"/>
		<path fill="#FFFFFF" d="M216.375,198.821v12.85c-0.021,0.66-0.154,1.254-0.396,1.76c-0.197,0.441-0.506,0.859-0.945,1.189
			c-0.439,0.352-1.035,0.549-1.826,0.549c-0.793,0-1.408-0.197-1.848-0.549c-0.441-0.33-0.727-0.748-0.926-1.189
			c-0.242-0.506-0.373-1.1-0.395-1.76v-12.85h2.375v12.85c0,0.463,0.111,0.77,0.33,1.012c0.111,0.111,0.264,0.176,0.463,0.176
			c0.418,0,0.615-0.264,0.703-0.594c0.066-0.154,0.088-0.352,0.088-0.594v-12.85H216.375z"/>
		<path fill="#FFFFFF" d="M220.489,198.821h2.377v16.172h-2.377V198.821z"/>
		<path fill="#FFFFFF" d="M226.979,214.993v-16.172h1.869c2.201,0,3.389,0.439,4.027,1.672c0.617,1.232,0.705,3.258,0.705,6.426
			s-0.088,5.17-0.705,6.402c-0.639,1.232-1.826,1.672-4.027,1.672H226.979z M229.356,212.618c0.813,0,1.275-0.09,1.518-0.881
			c0.109-0.375,0.197-0.945,0.221-1.717c0.021-0.77,0.021-1.805,0.021-3.125c0-1.318,0-2.354-0.021-3.123
			c-0.023-0.748-0.111-1.32-0.221-1.717c-0.242-0.77-0.705-0.857-1.518-0.857V212.618z"/>
		<path fill="#FFFFFF" d="M237.604,198.821h5.436v2.441h-3.059v4.248h2.201v2.596h-2.201v4.445h3.059v2.441h-5.436V198.821z"/>
		<path fill="#FFFFFF" d="M252.057,201.263v-2.441h6.865v2.441h-2.244v13.73h-2.377v-13.73H252.057z"/>
		<path fill="#FFFFFF" d="M268.868,211.671c-0.023,0.66-0.154,1.254-0.396,1.76c-0.199,0.441-0.506,0.859-0.947,1.189
			c-0.439,0.352-1.033,0.549-1.826,0.549c-0.791,0-1.408-0.197-1.848-0.549c-0.439-0.33-0.727-0.748-0.924-1.189
			c-0.242-0.506-0.375-1.1-0.396-1.76v-9.527c0.021-0.639,0.154-1.232,0.396-1.738c0.197-0.439,0.484-0.879,0.924-1.209
			s1.057-0.551,1.848-0.551c0.793,0,1.387,0.221,1.826,0.551c0.441,0.33,0.748,0.77,0.947,1.209c0.242,0.506,0.373,1.1,0.396,1.738
			V211.671z M266.491,202.144c0-0.439-0.088-0.748-0.309-1.012c-0.109-0.109-0.285-0.176-0.484-0.176
			c-0.418,0-0.615,0.307-0.703,0.594c-0.066,0.176-0.088,0.373-0.088,0.594v9.527c0,0.463,0.109,0.77,0.33,1.012
			c0.109,0.111,0.264,0.176,0.461,0.176c0.418,0,0.617-0.264,0.705-0.594c0.066-0.154,0.088-0.352,0.088-0.594V202.144z"/>
	</g>
	<g>
		<path fill="#FFFFFF" d="M103.033,230.259v-2.441h6.865v2.441h-2.245v13.73h-2.376v-13.73H103.033z"/>
		<path fill="#FFFFFF" d="M112.229,243.989l2.442-16.172h2.904l2.442,16.172h-2.311l-0.44-3.301h-2.289l-0.44,3.301H112.229z
			 M116.255,233.075l-0.066-0.418h-0.132l-0.066,0.418l-0.682,5.105h1.628L116.255,233.075z"/>
		<path fill="#FFFFFF" d="M125.781,243.989h-2.333l2.619-8.492l-2.574-7.68h2.332l1.298,4.092l0.066,0.199h0.088l0.066-0.199
			l1.298-4.092h2.333l-2.574,7.68l2.618,8.492h-2.333l-1.364-4.818l-0.044-0.197h-0.088l-0.044,0.197L125.781,243.989z"/>
		<path fill="#FFFFFF" d="M134.778,227.817h5.435v2.441h-3.059v4.248h2.2v2.596h-2.2v4.445h3.059v2.441h-5.435V227.817z"/>
		<path fill="#FFFFFF" d="M148.221,232.151c0-0.527-0.022-1.121-0.176-1.584c-0.154-0.439-0.396-0.748-0.77-0.748
			c-0.616,0.021-0.814,0.66-0.814,1.607c0,0.549,0.242,1.121,0.594,1.738c0.352,0.615,0.814,1.254,1.276,1.936
			c0.55,0.814,1.1,1.65,1.518,2.465s0.704,1.65,0.704,2.529c0,1.078-0.176,2.09-0.682,2.838c-0.506,0.75-1.32,1.232-2.618,1.232
			c-1.518,0-2.376-0.572-2.86-1.451c-0.484-0.881-0.594-2.047-0.594-3.256l2.333-0.221c0,0.682,0.022,1.363,0.198,1.869
			c0.154,0.529,0.418,0.881,0.924,0.881c0.704,0,0.968-0.748,0.968-1.781c0-0.529-0.264-1.145-0.616-1.783
			c-0.198-0.309-0.396-0.639-0.616-0.969c-0.462-0.66-0.968-1.408-1.496-2.221c-0.528-0.814-0.924-1.65-1.166-2.51
			c-0.132-0.418-0.198-0.857-0.198-1.297c0-0.881,0.198-1.826,0.704-2.553c0.506-0.705,1.276-1.211,2.398-1.232
			c1.43-0.021,2.266,0.572,2.729,1.43c0.462,0.881,0.594,1.959,0.594,2.861L148.221,232.151z"/>
		<path fill="#FFFFFF" d="M168.219,236.972c-0.022,0.285-0.088,0.924-0.242,1.627c-0.154,0.705-0.396,1.518-0.748,2.223
			c0.242,0.264,0.44,0.463,0.616,0.572c0.176,0.131,0.308,0.221,0.374,0.242v2.529c-0.066,0-0.154-0.021-0.308-0.088
			c-0.286-0.109-0.704-0.373-1.21-0.748c-0.242-0.176-0.484-0.396-0.726-0.66c-0.792,0.902-1.716,1.496-2.706,1.496
			c-0.946,0-1.76-0.418-2.333-1.078s-0.924-1.518-0.924-2.486c0-1.826,0.924-3.301,1.826-4.686
			c-0.771-1.584-1.145-3.059-1.145-4.754c0.022-1.32,0.396-2.244,1.188-2.969c0.396-0.375,0.968-0.551,1.716-0.551
			c1.496,0,2.2,0.881,2.53,1.76c0.374,1.035,0.528,2.42-0.308,3.982c-0.418,0.793-0.946,1.607-1.584,2.443
			c0.704,1.605,1.166,2.441,1.584,3.059c0.286-0.814,0.44-1.893,0.506-2.268L168.219,236.972z M164.72,241.173
			c-0.594-0.945-1.188-1.914-1.87-3.168c-0.242,0.375-0.375,0.814-0.484,1.43c-0.11,0.639-0.132,1.607,0.264,2.201
			c0.198,0.309,0.44,0.461,0.748,0.461C163.972,242.097,164.302,241.702,164.72,241.173z M164.434,231.097
			c0.022-0.551-0.066-0.99-0.308-1.32c-0.11-0.154-0.286-0.242-0.528-0.242c-0.462,0-0.682,0.396-0.77,0.814
			c-0.11,0.506-0.11,1.297,0.088,2.111c0.088,0.418,0.242,0.857,0.44,1.342C163.884,232.987,164.434,231.954,164.434,231.097z"/>
		<path fill="#FFFFFF" d="M177.237,230.259v-2.441h6.865v2.441h-2.245v13.73h-2.376v-13.73H177.237z"/>
		<path fill="#FFFFFF" d="M192.021,236.948h-1.848v7.041h-2.376v-16.172h2.376v6.689h1.848v-6.689h2.377v16.172h-2.377V236.948z"/>
		<path fill="#FFFFFF" d="M198.532,227.817h5.436v2.441h-3.059v4.248h2.201v2.596h-2.201v4.445h3.059v2.441h-5.436V227.817z"/>
		<path fill="#FFFFFF" d="M213.823,227.817h5.434v2.441H216.2v4.248h2.199v2.596H216.2v4.445h3.057v2.441h-5.434V227.817z"/>
		<path fill="#FFFFFF" d="M229.399,238.444v2.223c-0.021,0.66-0.154,1.254-0.396,1.76c-0.197,0.441-0.506,0.859-0.945,1.189
			c-0.439,0.352-1.035,0.549-1.826,0.549c-0.793,0-1.408-0.197-1.85-0.549c-0.439-0.33-0.725-0.748-0.924-1.189
			c-0.242-0.506-0.373-1.1-0.395-1.76v-9.527c0.021-0.639,0.152-1.232,0.395-1.738c0.199-0.439,0.484-0.879,0.924-1.209
			c0.441-0.33,1.057-0.551,1.85-0.551c0.791,0,1.387,0.221,1.826,0.551s0.748,0.77,0.945,1.209c0.242,0.506,0.375,1.1,0.396,1.738
			v2.223h-2.223v-2.223c0-0.439-0.109-0.748-0.352-1.012c-0.109-0.109-0.309-0.176-0.551-0.176c-0.418,0-0.615,0.307-0.725,0.594
			c-0.066,0.176-0.09,0.373-0.111,0.594v9.527c0.021,0.463,0.154,0.77,0.375,1.012c0.109,0.111,0.264,0.176,0.461,0.176
			c0.506,0,0.705-0.264,0.814-0.594c0.066-0.154,0.088-0.352,0.088-0.594v-2.223H229.399z"/>
		<path fill="#FFFFFF" d="M239.608,240.667c-0.023,0.66-0.154,1.254-0.396,1.76c-0.199,0.441-0.506,0.859-0.947,1.189
			c-0.439,0.352-1.033,0.549-1.826,0.549c-0.791,0-1.408-0.197-1.848-0.549c-0.439-0.33-0.727-0.748-0.924-1.189
			c-0.242-0.506-0.375-1.1-0.396-1.76v-9.527c0.021-0.639,0.154-1.232,0.396-1.738c0.197-0.439,0.484-0.879,0.924-1.209
			s1.057-0.551,1.848-0.551c0.793,0,1.387,0.221,1.826,0.551c0.441,0.33,0.748,0.77,0.947,1.209c0.242,0.506,0.373,1.1,0.396,1.738
			V240.667z M237.231,231.14c0-0.439-0.088-0.748-0.309-1.012c-0.109-0.109-0.285-0.176-0.484-0.176
			c-0.418,0-0.615,0.307-0.703,0.594c-0.066,0.176-0.088,0.373-0.088,0.594v9.527c0,0.463,0.109,0.77,0.33,1.012
			c0.109,0.111,0.264,0.176,0.461,0.176c0.418,0,0.617-0.264,0.705-0.594c0.066-0.154,0.088-0.352,0.088-0.594V231.14z"/>
		<path fill="#FFFFFF" d="M246.184,235.563l-0.197-0.75h-0.133v9.176h-2.178v-16.172h2.111l2.311,8.428l0.199,0.748h0.131v-9.176
			h2.18v16.172h-2.113L246.184,235.563z"/>
		<path fill="#FFFFFF" d="M261.012,240.667c-0.021,0.66-0.154,1.254-0.396,1.76c-0.197,0.441-0.506,0.859-0.945,1.189
			c-0.439,0.352-1.035,0.549-1.826,0.549c-0.793,0-1.408-0.197-1.85-0.549c-0.439-0.33-0.725-0.748-0.924-1.189
			c-0.242-0.506-0.373-1.1-0.395-1.76v-9.527c0.021-0.639,0.152-1.232,0.395-1.738c0.199-0.439,0.484-0.879,0.924-1.209
			c0.441-0.33,1.057-0.551,1.85-0.551c0.791,0,1.387,0.221,1.826,0.551s0.748,0.77,0.945,1.209c0.242,0.506,0.375,1.1,0.396,1.738
			V240.667z M258.635,231.14c0-0.439-0.088-0.748-0.307-1.012c-0.111-0.109-0.287-0.176-0.484-0.176
			c-0.418,0-0.617,0.307-0.705,0.594c-0.066,0.176-0.088,0.373-0.088,0.594v9.527c0,0.463,0.111,0.77,0.33,1.012
			c0.111,0.111,0.264,0.176,0.463,0.176c0.418,0,0.615-0.264,0.703-0.594c0.066-0.154,0.088-0.352,0.088-0.594V231.14z"/>
		<path fill="#FFFFFF" d="M269.02,243.989l-1.518-10.164l-0.088-0.684h-0.133v10.848h-2.201v-16.172h2.904l1.408,7.393l0.111,0.859
			h0.043l0.111-0.859l1.408-7.393h2.904v16.172h-2.201v-10.848h-0.131l-0.09,0.684l-1.518,10.164H269.02z"/>
		<path fill="#FFFFFF" d="M281.252,232.987l0.064,0.154h0.045l0.066-0.154l1.188-5.17h2.332l-2.42,9.285v6.887h-2.377v-6.887
			l-2.42-9.285h2.332L281.252,232.987z"/>
	</g>
	<polygon fill="#FFFFFF" points="224.143,304.589 224.231,303.431 224.545,301.772 225.452,300.78 226.219,299.358 227.116,297.976 
		227.106,296.079 226.469,294.757 226.512,293.552 226.887,291.675 226.758,289.075 226.747,283.378 226.637,277.95 
		226.579,273.745 226.502,273.407 226.272,272.458 225.895,271.091 225.356,270.415 224.895,269.45 224.94,267.472 208.418,267.327 
		208.444,268.185 209.249,268.485 209.551,268.917 209.672,269.585 210.989,270.909 211.182,271.749 210.854,272.964 
		210.11,274.237 209.805,275.124 208.94,275.728 208.266,275.933 206.344,276.3 206.053,276.942 205.758,277.665 205.973,278.175 
		206.592,278.792 206.413,280.267 205.719,280.798 205.434,281.358 205.37,282.343 204.702,282.464 204.1,282.839 203.985,283.325 
		204.018,284.071 203.372,284.503 202.936,285.485 203.014,286.812 203.663,289.495 206.114,292.378 208.002,293.823 
		207.817,295.378 208.112,295.894 210.403,296.208 211.356,296.767 211.024,298.065 210.063,300.147 209.741,301.282 
		210.471,302.733 212.647,304.774 214.276,305.128 214.897,306.985 215.561,308.185 215.161,309.231 215.639,310.747 
		216.249,311.53 216.778,311.247 217.153,310.522 217.989,309.946 218.77,309.776 219.678,310.263 220.95,310.841 221.383,310.763 
		221.508,309.956 221.104,309.058 221.268,308.21 221.961,307.771 223.067,307.55 223.53,307.415 223.342,306.901 223.114,306.036 
		223.651,305.718 	"/>
	<g>
		<path fill="#FFFFFF" d="M233.426,276.487h-0.994v-7.561h-2.723v-0.934h6.439v0.934h-2.723V276.487z"/>
		<path fill="#FFFFFF" d="M240.096,275.819h-0.025c-0.076,0.102-0.174,0.203-0.291,0.303c-0.119,0.1-0.254,0.188-0.408,0.266
			s-0.324,0.141-0.506,0.188c-0.184,0.047-0.379,0.07-0.586,0.07c-0.279,0-0.537-0.043-0.77-0.131
			c-0.234-0.086-0.436-0.213-0.604-0.381c-0.17-0.166-0.301-0.371-0.395-0.611c-0.092-0.242-0.139-0.516-0.139-0.82
			c0-0.299,0.051-0.568,0.154-0.805c0.104-0.238,0.25-0.439,0.436-0.604c0.188-0.166,0.412-0.293,0.674-0.381
			c0.262-0.09,0.551-0.133,0.869-0.133c0.301,0.004,0.578,0.031,0.834,0.082s0.484,0.113,0.684,0.189h0.023v-0.418
			c0-0.166-0.01-0.311-0.031-0.438c-0.02-0.127-0.055-0.24-0.104-0.338c-0.105-0.203-0.273-0.371-0.506-0.504
			c-0.23-0.133-0.543-0.199-0.938-0.199c-0.293,0-0.568,0.027-0.826,0.086c-0.258,0.057-0.514,0.135-0.771,0.236v-0.824
			c0.098-0.051,0.213-0.098,0.346-0.143c0.131-0.045,0.271-0.082,0.416-0.115c0.146-0.031,0.301-0.055,0.465-0.072
			c0.162-0.018,0.324-0.025,0.486-0.025c0.586,0,1.064,0.107,1.436,0.324c0.371,0.215,0.639,0.5,0.801,0.855
			c0.061,0.137,0.105,0.285,0.131,0.449c0.027,0.162,0.041,0.342,0.041,0.535v4.025H240.2L240.096,275.819z M240.047,273.839
			c-0.174-0.051-0.381-0.098-0.619-0.145s-0.502-0.072-0.789-0.076c-0.4,0-0.713,0.088-0.939,0.266s-0.34,0.451-0.34,0.818
			c0,0.188,0.029,0.35,0.086,0.49c0.057,0.139,0.133,0.254,0.232,0.346c0.1,0.09,0.217,0.158,0.352,0.203
			c0.137,0.045,0.281,0.066,0.434,0.066c0.203,0,0.391-0.031,0.564-0.092c0.174-0.063,0.328-0.135,0.465-0.219
			c0.135-0.086,0.25-0.17,0.346-0.254c0.096-0.086,0.164-0.15,0.209-0.197V273.839z"/>
		<path fill="#FFFFFF" d="M245.083,272.78l1.572-2.324h1.043l-2.115,2.984l2.193,3.047h-1.023l-1.693-2.412h-0.025l-1.67,2.412
			h-1.023l2.193-3.072l-2.113-2.959h1.041l1.598,2.324H245.083z"/>
		<path fill="#FFFFFF" d="M254.243,273.401c0,0.42-0.041,0.791-0.119,1.115c-0.08,0.322-0.186,0.605-0.316,0.846
			c-0.131,0.242-0.283,0.443-0.459,0.607c-0.176,0.162-0.357,0.293-0.545,0.393s-0.377,0.172-0.572,0.217
			c-0.193,0.045-0.375,0.066-0.547,0.066c-0.355,0-0.664-0.061-0.924-0.182c-0.262-0.119-0.496-0.299-0.705-0.535h-0.018v3.51
			h-0.926v-8.982h0.713l0.201,0.686h0.018c0.053-0.084,0.121-0.166,0.205-0.248c0.082-0.08,0.193-0.166,0.334-0.256
			c0.141-0.092,0.309-0.17,0.506-0.238s0.412-0.102,0.643-0.102c0.326,0,0.639,0.057,0.941,0.172
			c0.303,0.113,0.57,0.295,0.803,0.545c0.23,0.25,0.416,0.57,0.557,0.963C254.172,272.368,254.243,272.843,254.243,273.401z
			 M253.254,273.415c0-0.352-0.035-0.668-0.107-0.947c-0.07-0.279-0.178-0.516-0.32-0.713c-0.145-0.197-0.318-0.348-0.527-0.455
			c-0.209-0.105-0.449-0.158-0.723-0.158c-0.197,0-0.375,0.027-0.537,0.082c-0.162,0.057-0.307,0.125-0.438,0.211
			c-0.131,0.084-0.244,0.176-0.338,0.271c-0.094,0.098-0.17,0.186-0.227,0.262v3.154c0.199,0.211,0.428,0.379,0.684,0.502
			s0.529,0.184,0.824,0.184c0.18,0,0.369-0.035,0.57-0.105c0.199-0.068,0.385-0.193,0.555-0.373c0.168-0.18,0.309-0.426,0.42-0.734
			C253.2,274.286,253.254,273.894,253.254,273.415z"/>
		<path fill="#FFFFFF" d="M259.434,275.819h-0.023c-0.078,0.102-0.174,0.203-0.293,0.303c-0.117,0.1-0.254,0.188-0.408,0.266
			s-0.322,0.141-0.506,0.188c-0.182,0.047-0.377,0.07-0.584,0.07c-0.281,0-0.537-0.043-0.771-0.131
			c-0.234-0.086-0.436-0.213-0.604-0.381c-0.168-0.166-0.299-0.371-0.393-0.611c-0.094-0.242-0.141-0.516-0.141-0.82
			c0-0.299,0.053-0.568,0.156-0.805c0.104-0.238,0.248-0.439,0.436-0.604c0.186-0.166,0.41-0.293,0.674-0.381
			c0.262-0.09,0.551-0.133,0.867-0.133c0.301,0.004,0.58,0.031,0.836,0.082s0.482,0.113,0.682,0.189h0.025v-0.418
			c0-0.166-0.012-0.311-0.031-0.438c-0.021-0.127-0.055-0.24-0.104-0.338c-0.105-0.203-0.275-0.371-0.506-0.504
			c-0.232-0.133-0.545-0.199-0.939-0.199c-0.291,0-0.566,0.027-0.824,0.086c-0.258,0.057-0.516,0.135-0.771,0.236v-0.824
			c0.098-0.051,0.213-0.098,0.344-0.143c0.133-0.045,0.271-0.082,0.418-0.115c0.146-0.031,0.301-0.055,0.463-0.072
			s0.324-0.025,0.488-0.025c0.584,0,1.063,0.107,1.434,0.324c0.373,0.215,0.641,0.5,0.803,0.855
			c0.061,0.137,0.104,0.285,0.131,0.449c0.025,0.162,0.039,0.342,0.039,0.535v4.025h-0.791L259.434,275.819z M259.387,273.839
			c-0.176-0.051-0.381-0.098-0.619-0.145s-0.502-0.072-0.789-0.076c-0.4,0-0.715,0.088-0.939,0.266
			c-0.227,0.178-0.34,0.451-0.34,0.818c0,0.188,0.027,0.35,0.084,0.49c0.057,0.139,0.135,0.254,0.234,0.346
			c0.098,0.09,0.215,0.158,0.352,0.203c0.135,0.045,0.279,0.066,0.434,0.066c0.201,0,0.391-0.031,0.564-0.092
			c0.174-0.063,0.328-0.135,0.463-0.219c0.137-0.086,0.252-0.17,0.346-0.254c0.096-0.086,0.166-0.15,0.211-0.197V273.839z"/>
		<path fill="#FFFFFF" d="M261.741,270.456h0.943l1.799,4.729h0.037l1.846-4.729h0.945l-3.586,8.982h-0.938l1.236-3.072
			L261.741,270.456z"/>
		<path fill="#FFFFFF" d="M271.502,275.788c0.314,0,0.6-0.025,0.857-0.078s0.514-0.129,0.77-0.227v0.818
			c-0.207,0.107-0.463,0.189-0.768,0.252c-0.305,0.061-0.631,0.092-0.98,0.092c-0.414,0-0.803-0.055-1.168-0.166
			c-0.363-0.109-0.678-0.287-0.943-0.533c-0.266-0.244-0.475-0.564-0.625-0.961c-0.15-0.395-0.225-0.873-0.225-1.432
			c0-0.549,0.072-1.027,0.219-1.432c0.145-0.404,0.34-0.74,0.582-1.012c0.244-0.271,0.523-0.475,0.84-0.609s0.646-0.203,0.99-0.203
			c0.324,0,0.627,0.057,0.91,0.168c0.281,0.113,0.525,0.289,0.732,0.529c0.205,0.242,0.369,0.553,0.488,0.934s0.18,0.838,0.18,1.371
			c0,0.051,0,0.094,0,0.131c0,0.035-0.002,0.117-0.006,0.244h-3.998c0,0.385,0.057,0.713,0.168,0.98
			c0.111,0.27,0.264,0.486,0.457,0.654c0.193,0.166,0.42,0.289,0.68,0.365S271.202,275.788,271.502,275.788z M271.004,271.142
			c-0.217,0-0.42,0.045-0.607,0.133c-0.188,0.09-0.35,0.211-0.49,0.363s-0.254,0.33-0.34,0.535s-0.139,0.426-0.16,0.658h2.961
			c0-0.238-0.029-0.459-0.088-0.664c-0.061-0.205-0.148-0.385-0.264-0.537s-0.256-0.271-0.426-0.357
			C271.422,271.185,271.227,271.142,271.004,271.142z"/>
		<path fill="#FFFFFF" d="M278.452,271.257h-0.074c-0.223,0-0.441,0.021-0.658,0.063c-0.215,0.043-0.416,0.107-0.605,0.193
			c-0.189,0.088-0.359,0.193-0.512,0.32s-0.279,0.277-0.381,0.451v4.203h-0.945v-6.031h0.732l0.182,0.959h0.02
			c0.092-0.156,0.207-0.303,0.344-0.438c0.137-0.137,0.289-0.254,0.459-0.355c0.172-0.102,0.357-0.182,0.561-0.238
			s0.418-0.086,0.641-0.086c0.041,0,0.082,0.002,0.125,0.004s0.08,0.004,0.113,0.008V271.257z"/>
		<path fill="#FFFFFF" d="M280.446,272.062c0,0.166,0.033,0.301,0.1,0.406c0.068,0.107,0.158,0.193,0.271,0.258
			c0.113,0.066,0.244,0.119,0.395,0.162c0.148,0.043,0.303,0.08,0.461,0.113c0.219,0.051,0.426,0.107,0.619,0.17
			c0.195,0.061,0.375,0.152,0.539,0.275c0.166,0.123,0.299,0.289,0.4,0.498c0.1,0.209,0.15,0.482,0.15,0.816
			c0,0.305-0.057,0.574-0.17,0.809s-0.273,0.432-0.48,0.59c-0.209,0.16-0.455,0.279-0.744,0.363
			c-0.289,0.082-0.605,0.123-0.951,0.123c-0.211,0-0.402-0.012-0.576-0.035c-0.172-0.023-0.324-0.053-0.457-0.088
			c-0.131-0.037-0.244-0.074-0.338-0.111c-0.094-0.039-0.17-0.074-0.23-0.109v-0.824c0.238,0.102,0.477,0.182,0.711,0.24
			c0.236,0.061,0.494,0.09,0.777,0.09c0.225,0,0.426-0.021,0.605-0.064c0.18-0.041,0.334-0.104,0.463-0.186
			c0.131-0.084,0.23-0.188,0.299-0.313c0.07-0.125,0.105-0.27,0.105-0.434c0-0.17-0.031-0.309-0.096-0.42
			c-0.064-0.109-0.15-0.201-0.258-0.273c-0.107-0.07-0.232-0.131-0.373-0.178c-0.143-0.045-0.291-0.088-0.445-0.127
			c-0.203-0.045-0.41-0.102-0.619-0.164c-0.211-0.064-0.4-0.152-0.572-0.268c-0.172-0.113-0.311-0.27-0.416-0.465
			c-0.105-0.197-0.158-0.451-0.158-0.76c0-0.316,0.055-0.592,0.164-0.824c0.111-0.232,0.258-0.426,0.445-0.578
			s0.404-0.268,0.652-0.344s0.51-0.113,0.785-0.113c0.322,0,0.619,0.031,0.895,0.096c0.273,0.063,0.521,0.143,0.746,0.24v0.838
			c-0.238-0.098-0.479-0.176-0.723-0.238c-0.244-0.061-0.494-0.094-0.752-0.098c-0.219,0-0.404,0.023-0.559,0.07
			c-0.156,0.047-0.283,0.111-0.381,0.193c-0.1,0.082-0.172,0.18-0.217,0.291C280.467,271.804,280.446,271.927,280.446,272.062z"/>
	</g>
	<g>
		<path fill="#FFFFFF" d="M285.895,266.552l-0.572,3.123h-0.549l0.227-3.123H285.895z"/>
	</g>
	<g>
		<path fill="#FFFFFF" d="M231.495,289.487H230.5v-8.494h4.863v0.934h-3.869v2.742h3.43v0.934h-3.43V289.487z"/>
		<path fill="#FFFFFF" d="M239.721,288.788c0.314,0,0.6-0.025,0.857-0.078s0.514-0.129,0.77-0.227v0.818
			c-0.207,0.107-0.463,0.189-0.768,0.252c-0.305,0.061-0.631,0.092-0.98,0.092c-0.414,0-0.803-0.055-1.168-0.166
			c-0.363-0.109-0.678-0.287-0.943-0.533c-0.266-0.244-0.475-0.564-0.625-0.961c-0.15-0.395-0.225-0.873-0.225-1.432
			c0-0.549,0.072-1.027,0.219-1.432c0.145-0.404,0.34-0.74,0.582-1.012c0.244-0.271,0.523-0.475,0.84-0.609s0.646-0.203,0.99-0.203
			c0.324,0,0.627,0.057,0.91,0.168c0.281,0.113,0.525,0.289,0.732,0.529c0.205,0.242,0.369,0.553,0.488,0.934s0.18,0.838,0.18,1.371
			c0,0.051,0,0.094,0,0.131c0,0.035-0.002,0.117-0.006,0.244h-3.998c0,0.385,0.057,0.713,0.168,0.98
			c0.111,0.27,0.264,0.486,0.457,0.654c0.193,0.166,0.42,0.289,0.68,0.365S239.42,288.788,239.721,288.788z M239.223,284.142
			c-0.217,0-0.42,0.045-0.607,0.133c-0.188,0.09-0.35,0.211-0.49,0.363s-0.254,0.33-0.34,0.535s-0.139,0.426-0.16,0.658h2.961
			c0-0.238-0.029-0.459-0.088-0.664c-0.061-0.205-0.148-0.385-0.264-0.537s-0.256-0.271-0.426-0.357
			C239.641,284.185,239.446,284.142,239.223,284.142z"/>
		<path fill="#FFFFFF" d="M243.161,286.548c0-0.42,0.039-0.791,0.117-1.113c0.08-0.324,0.186-0.607,0.314-0.848
			c0.131-0.242,0.283-0.443,0.457-0.607c0.176-0.162,0.355-0.295,0.543-0.396c0.186-0.102,0.377-0.174,0.57-0.219
			c0.191-0.045,0.373-0.066,0.545-0.066c0.354,0,0.66,0.061,0.92,0.184s0.494,0.303,0.701,0.539h0.018v-3.725h0.945v9.191h-0.713
			l-0.195-0.674h-0.025c-0.072,0.098-0.158,0.195-0.256,0.295s-0.211,0.189-0.344,0.27c-0.133,0.082-0.285,0.146-0.457,0.195
			s-0.373,0.072-0.6,0.072c-0.318,0-0.629-0.057-0.934-0.168c-0.305-0.113-0.576-0.293-0.813-0.539
			c-0.238-0.248-0.43-0.568-0.576-0.959C243.233,287.587,243.161,287.11,243.161,286.548z M244.147,286.534
			c0,0.348,0.037,0.662,0.113,0.943c0.074,0.281,0.184,0.521,0.326,0.717c0.143,0.197,0.316,0.35,0.523,0.455
			s0.445,0.158,0.713,0.158c0.199,0,0.381-0.027,0.543-0.082s0.307-0.125,0.436-0.211c0.127-0.084,0.238-0.174,0.328-0.27
			c0.092-0.094,0.164-0.182,0.217-0.264v-3.154c-0.195-0.207-0.42-0.373-0.676-0.498s-0.533-0.188-0.83-0.188
			c-0.178,0-0.365,0.035-0.563,0.105s-0.381,0.195-0.549,0.377s-0.309,0.428-0.418,0.734S244.147,286.058,244.147,286.534z"/>
		<path fill="#FFFFFF" d="M253.239,288.788c0.314,0,0.6-0.025,0.857-0.078s0.514-0.129,0.77-0.227v0.818
			c-0.207,0.107-0.463,0.189-0.768,0.252c-0.305,0.061-0.631,0.092-0.98,0.092c-0.414,0-0.803-0.055-1.168-0.166
			c-0.363-0.109-0.678-0.287-0.943-0.533c-0.266-0.244-0.475-0.564-0.625-0.961c-0.15-0.395-0.225-0.873-0.225-1.432
			c0-0.549,0.072-1.027,0.219-1.432c0.145-0.404,0.34-0.74,0.582-1.012c0.244-0.271,0.523-0.475,0.84-0.609s0.646-0.203,0.99-0.203
			c0.324,0,0.627,0.057,0.91,0.168c0.281,0.113,0.525,0.289,0.732,0.529c0.205,0.242,0.369,0.553,0.488,0.934s0.18,0.838,0.18,1.371
			c0,0.051,0,0.094,0,0.131c0,0.035-0.002,0.117-0.006,0.244h-3.998c0,0.385,0.057,0.713,0.168,0.98
			c0.111,0.27,0.264,0.486,0.457,0.654c0.193,0.166,0.42,0.289,0.68,0.365S252.938,288.788,253.239,288.788z M252.741,284.142
			c-0.217,0-0.42,0.045-0.607,0.133c-0.188,0.09-0.35,0.211-0.49,0.363s-0.254,0.33-0.34,0.535s-0.139,0.426-0.16,0.658h2.961
			c0-0.238-0.029-0.459-0.088-0.664c-0.061-0.205-0.148-0.385-0.264-0.537s-0.256-0.271-0.426-0.357
			C253.159,284.185,252.963,284.142,252.741,284.142z"/>
		<path fill="#FFFFFF" d="M260.188,284.257h-0.074c-0.223,0-0.441,0.021-0.658,0.063c-0.215,0.043-0.416,0.107-0.605,0.193
			c-0.189,0.088-0.359,0.193-0.512,0.32s-0.279,0.277-0.381,0.451v4.203h-0.945v-6.031h0.732l0.182,0.959h0.02
			c0.092-0.156,0.207-0.303,0.344-0.438c0.137-0.137,0.289-0.254,0.459-0.355c0.172-0.102,0.357-0.182,0.561-0.238
			s0.418-0.086,0.641-0.086c0.041,0,0.082,0.002,0.125,0.004s0.08,0.004,0.113,0.008V284.257z"/>
		<path fill="#FFFFFF" d="M264.893,288.819h-0.023c-0.078,0.102-0.174,0.203-0.293,0.303c-0.117,0.1-0.254,0.188-0.408,0.266
			s-0.322,0.141-0.506,0.188c-0.182,0.047-0.377,0.07-0.584,0.07c-0.281,0-0.537-0.043-0.771-0.131
			c-0.234-0.086-0.436-0.213-0.604-0.381c-0.168-0.166-0.299-0.371-0.393-0.611c-0.094-0.242-0.141-0.516-0.141-0.82
			c0-0.299,0.053-0.568,0.156-0.805c0.104-0.238,0.248-0.439,0.436-0.604c0.186-0.166,0.41-0.293,0.674-0.381
			c0.262-0.09,0.551-0.133,0.867-0.133c0.301,0.004,0.58,0.031,0.836,0.082s0.482,0.113,0.682,0.189h0.025v-0.418
			c0-0.166-0.012-0.311-0.031-0.438c-0.021-0.127-0.055-0.24-0.104-0.338c-0.105-0.203-0.275-0.371-0.506-0.504
			c-0.232-0.133-0.545-0.199-0.939-0.199c-0.291,0-0.566,0.027-0.824,0.086c-0.258,0.057-0.516,0.135-0.771,0.236v-0.824
			c0.098-0.051,0.213-0.098,0.344-0.143c0.133-0.045,0.271-0.082,0.418-0.115c0.146-0.031,0.301-0.055,0.463-0.072
			s0.324-0.025,0.488-0.025c0.584,0,1.063,0.107,1.434,0.324c0.373,0.215,0.641,0.5,0.803,0.855
			c0.061,0.137,0.104,0.285,0.131,0.449c0.025,0.162,0.039,0.342,0.039,0.535v4.025h-0.791L264.893,288.819z M264.846,286.839
			c-0.176-0.051-0.381-0.098-0.619-0.145s-0.502-0.072-0.789-0.076c-0.4,0-0.715,0.088-0.939,0.266
			c-0.227,0.178-0.34,0.451-0.34,0.818c0,0.188,0.027,0.35,0.084,0.49c0.057,0.139,0.135,0.254,0.234,0.346
			c0.098,0.09,0.215,0.158,0.352,0.203c0.135,0.045,0.279,0.066,0.434,0.066c0.201,0,0.391-0.031,0.564-0.092
			c0.174-0.063,0.328-0.135,0.463-0.219c0.137-0.086,0.252-0.17,0.346-0.254c0.096-0.086,0.166-0.15,0.211-0.197V286.839z"/>
		<path fill="#FFFFFF" d="M270.983,289.499c-0.082,0.035-0.205,0.066-0.371,0.096c-0.168,0.029-0.367,0.047-0.598,0.051
			c-0.305,0-0.568-0.039-0.793-0.117c-0.223-0.078-0.408-0.191-0.557-0.336c-0.148-0.146-0.26-0.324-0.332-0.531
			c-0.074-0.207-0.109-0.438-0.109-0.691v-3.67h-1.115v-0.844h1.115v-1.65h0.943v1.65h1.73v0.844h-1.73v3.518
			c0,0.139,0.02,0.27,0.059,0.387c0.037,0.119,0.1,0.221,0.182,0.309c0.084,0.086,0.191,0.154,0.32,0.203
			c0.131,0.049,0.287,0.072,0.469,0.072c0.127,0,0.26-0.01,0.4-0.031s0.27-0.049,0.387-0.082V289.499z"/>
		<path fill="#FFFFFF" d="M272.598,282.054v-1.098h0.945v1.098H272.598z M272.622,289.487v-6.031h0.945v6.031H272.622z"/>
		<path fill="#FFFFFF" d="M280.93,286.478c0,0.475-0.064,0.906-0.195,1.295c-0.131,0.391-0.314,0.723-0.551,1
			c-0.238,0.277-0.525,0.492-0.863,0.645c-0.336,0.152-0.715,0.229-1.133,0.229c-0.432,0-0.816-0.076-1.154-0.229
			c-0.34-0.152-0.629-0.367-0.865-0.645c-0.238-0.277-0.42-0.609-0.547-1c-0.125-0.389-0.188-0.82-0.188-1.295
			c0-0.479,0.064-0.912,0.193-1.301c0.131-0.389,0.314-0.725,0.553-1.004s0.525-0.494,0.865-0.646s0.719-0.229,1.137-0.229
			c0.426,0,0.811,0.076,1.15,0.229c0.342,0.152,0.631,0.367,0.865,0.646c0.236,0.279,0.418,0.615,0.543,1.004
			C280.868,285.565,280.93,285.999,280.93,286.478z M279.942,286.478c0-0.371-0.043-0.703-0.131-0.992
			c-0.086-0.291-0.209-0.535-0.365-0.736s-0.342-0.354-0.557-0.457c-0.217-0.104-0.451-0.156-0.707-0.156s-0.492,0.053-0.707,0.156
			s-0.402,0.256-0.559,0.457s-0.277,0.445-0.365,0.736c-0.088,0.289-0.131,0.621-0.131,0.992c0,0.369,0.043,0.697,0.131,0.988
			c0.088,0.289,0.211,0.533,0.369,0.732s0.346,0.35,0.561,0.453s0.451,0.156,0.707,0.156s0.49-0.053,0.703-0.156
			s0.398-0.254,0.555-0.453s0.279-0.443,0.365-0.732C279.899,287.175,279.942,286.847,279.942,286.478z"/>
		<path fill="#FFFFFF" d="M283.635,284.294h0.02c0.105-0.139,0.221-0.27,0.35-0.391c0.129-0.119,0.271-0.227,0.43-0.316
			c0.158-0.092,0.332-0.162,0.521-0.213c0.188-0.051,0.395-0.076,0.617-0.076c0.266,0,0.512,0.037,0.744,0.113
			s0.434,0.199,0.604,0.369s0.305,0.391,0.404,0.664c0.1,0.271,0.15,0.607,0.15,1.006v4.037h-0.945v-3.879
			c0-0.521-0.096-0.895-0.289-1.123s-0.475-0.344-0.844-0.344c-0.326,0-0.641,0.094-0.945,0.283
			c-0.305,0.188-0.566,0.447-0.785,0.777v4.285h-0.945v-6.031h0.732L283.635,284.294z"/>
	</g>
	<g>
	</g>
	<g>
	</g>
	<g>
		<path fill="#FFFFFF" d="M235.54,298.433c0,0.475-0.064,0.906-0.193,1.295c-0.131,0.391-0.314,0.723-0.553,1
			c-0.236,0.277-0.525,0.492-0.861,0.645c-0.338,0.152-0.715,0.229-1.135,0.229c-0.43,0-0.814-0.076-1.154-0.229
			s-0.627-0.367-0.865-0.645s-0.42-0.609-0.545-1c-0.127-0.389-0.189-0.82-0.189-1.295c0-0.479,0.064-0.912,0.195-1.301
			s0.314-0.725,0.551-1.004c0.238-0.279,0.527-0.494,0.865-0.646c0.34-0.152,0.719-0.229,1.137-0.229
			c0.428,0,0.811,0.076,1.152,0.229s0.629,0.367,0.865,0.646s0.416,0.615,0.543,1.004
			C235.477,297.521,235.54,297.954,235.54,298.433z M234.553,298.433c0-0.371-0.043-0.703-0.131-0.992
			c-0.088-0.291-0.209-0.535-0.365-0.736s-0.344-0.354-0.559-0.457s-0.451-0.156-0.707-0.156s-0.49,0.053-0.707,0.156
			c-0.215,0.104-0.4,0.256-0.557,0.457s-0.279,0.445-0.365,0.736c-0.088,0.289-0.131,0.621-0.131,0.992
			c0,0.369,0.043,0.697,0.131,0.988c0.086,0.289,0.209,0.533,0.367,0.732c0.16,0.199,0.346,0.35,0.561,0.453
			c0.217,0.104,0.451,0.156,0.707,0.156s0.492-0.053,0.705-0.156s0.398-0.254,0.555-0.453s0.277-0.443,0.365-0.732
			C234.51,299.13,234.553,298.802,234.553,298.433z"/>
		<path fill="#FFFFFF" d="M240.69,293.024c-0.121-0.025-0.256-0.045-0.402-0.057c-0.145-0.014-0.271-0.02-0.377-0.02
			c-0.211,0-0.4,0.027-0.57,0.082c-0.168,0.057-0.309,0.145-0.424,0.264c-0.113,0.121-0.201,0.279-0.262,0.477
			s-0.092,0.436-0.092,0.715v0.926h1.725v0.844h-1.725v5.188h-0.943v-5.188h-1.018v-0.844h1.018v-0.92
			c0-0.436,0.055-0.803,0.168-1.102c0.111-0.299,0.264-0.543,0.459-0.736c0.195-0.191,0.426-0.334,0.689-0.426
			c0.264-0.09,0.549-0.137,0.854-0.137c0.193,0,0.373,0.012,0.539,0.033c0.164,0.021,0.285,0.043,0.361,0.068V293.024z"/>
		<path fill="#FFFFFF" d="M244.532,301.442v-8.494h0.994v8.494H244.532z"/>
		<path fill="#FFFFFF" d="M247.848,301.442v-9.191h0.945v9.191H247.848z"/>
		<path fill="#FFFFFF" d="M251.053,301.442v-9.191h0.945v9.191H251.053z"/>
		<path fill="#FFFFFF" d="M254.237,294.009v-1.098h0.945v1.098H254.237z M254.26,301.442v-6.031h0.945v6.031H254.26z"/>
		<path fill="#FFFFFF" d="M258.321,296.249h0.018c0.105-0.139,0.223-0.27,0.352-0.391c0.127-0.119,0.27-0.227,0.428-0.316
			c0.16-0.092,0.334-0.162,0.521-0.213c0.189-0.051,0.395-0.076,0.619-0.076c0.264,0,0.512,0.037,0.744,0.113
			c0.23,0.076,0.432,0.199,0.602,0.369c0.172,0.17,0.307,0.391,0.406,0.664c0.1,0.271,0.148,0.607,0.148,1.006v4.037h-0.943v-3.879
			c0-0.521-0.098-0.895-0.289-1.123c-0.193-0.229-0.475-0.344-0.846-0.344c-0.324,0-0.639,0.094-0.943,0.283
			c-0.305,0.188-0.566,0.447-0.787,0.777v4.285h-0.943v-6.031h0.73L258.321,296.249z"/>
		<path fill="#FFFFFF" d="M269.448,298.433c0,0.475-0.064,0.906-0.193,1.295c-0.131,0.391-0.314,0.723-0.553,1
			c-0.236,0.277-0.525,0.492-0.861,0.645c-0.338,0.152-0.715,0.229-1.135,0.229c-0.43,0-0.814-0.076-1.154-0.229
			s-0.627-0.367-0.865-0.645s-0.42-0.609-0.545-1c-0.127-0.389-0.189-0.82-0.189-1.295c0-0.479,0.064-0.912,0.195-1.301
			s0.314-0.725,0.551-1.004c0.238-0.279,0.527-0.494,0.865-0.646c0.34-0.152,0.719-0.229,1.137-0.229
			c0.428,0,0.811,0.076,1.152,0.229s0.629,0.367,0.865,0.646s0.416,0.615,0.543,1.004
			C269.385,297.521,269.448,297.954,269.448,298.433z M268.461,298.433c0-0.371-0.043-0.703-0.131-0.992
			c-0.088-0.291-0.209-0.535-0.365-0.736s-0.344-0.354-0.559-0.457s-0.451-0.156-0.707-0.156s-0.49,0.053-0.707,0.156
			c-0.215,0.104-0.4,0.256-0.557,0.457s-0.279,0.445-0.365,0.736c-0.088,0.289-0.131,0.621-0.131,0.992
			c0,0.369,0.043,0.697,0.131,0.988c0.086,0.289,0.209,0.533,0.367,0.732c0.16,0.199,0.346,0.35,0.561,0.453
			c0.217,0.104,0.451,0.156,0.707,0.156s0.492-0.053,0.705-0.156s0.398-0.254,0.555-0.453s0.277-0.443,0.365-0.732
			C268.418,299.13,268.461,298.802,268.461,298.433z"/>
		<path fill="#FFFFFF" d="M271.278,294.009v-1.098h0.945v1.098H271.278z M271.301,301.442v-6.031h0.945v6.031H271.301z"/>
		<path fill="#FFFFFF" d="M275.124,297.017c0,0.166,0.033,0.301,0.102,0.406c0.066,0.107,0.158,0.193,0.271,0.258
			c0.113,0.066,0.244,0.119,0.393,0.162s0.303,0.08,0.461,0.113c0.219,0.051,0.426,0.107,0.621,0.17
			c0.193,0.061,0.373,0.152,0.539,0.275c0.164,0.123,0.297,0.289,0.398,0.498s0.152,0.482,0.152,0.816
			c0,0.305-0.057,0.574-0.17,0.809c-0.115,0.234-0.275,0.432-0.482,0.59c-0.207,0.16-0.455,0.279-0.744,0.363
			c-0.287,0.082-0.605,0.123-0.949,0.123c-0.211,0-0.404-0.012-0.576-0.035c-0.174-0.023-0.326-0.053-0.457-0.088
			c-0.133-0.037-0.244-0.074-0.338-0.111c-0.094-0.039-0.172-0.074-0.232-0.109v-0.824c0.24,0.102,0.477,0.182,0.713,0.24
			c0.234,0.061,0.494,0.09,0.777,0.09c0.223,0,0.424-0.021,0.604-0.064c0.18-0.041,0.334-0.104,0.465-0.186
			c0.129-0.084,0.229-0.188,0.299-0.313s0.104-0.27,0.104-0.434c0-0.17-0.031-0.309-0.096-0.42
			c-0.063-0.109-0.148-0.201-0.256-0.273c-0.107-0.07-0.232-0.131-0.375-0.178c-0.141-0.045-0.289-0.088-0.445-0.127
			c-0.203-0.045-0.41-0.102-0.619-0.164c-0.209-0.064-0.4-0.152-0.57-0.268c-0.172-0.113-0.311-0.27-0.416-0.465
			c-0.105-0.197-0.158-0.451-0.158-0.76c0-0.316,0.055-0.592,0.164-0.824s0.258-0.426,0.445-0.578
			c0.186-0.152,0.404-0.268,0.65-0.344c0.248-0.076,0.51-0.113,0.787-0.113c0.32,0,0.619,0.031,0.893,0.096
			c0.273,0.063,0.523,0.143,0.746,0.24v0.838c-0.238-0.098-0.479-0.176-0.723-0.238c-0.242-0.061-0.494-0.094-0.752-0.098
			c-0.217,0-0.404,0.023-0.559,0.07s-0.281,0.111-0.381,0.193s-0.172,0.18-0.217,0.291
			C275.147,296.759,275.124,296.882,275.124,297.017z"/>
	</g>
	<g>
	</g>
	<g>
	</g>
	<g>
	</g>
</g>
</svg>
