<?xml version="1.0" encoding="utf-8"?>
<!-- Generator: Adobe Illustrator 16.0.3, SVG Export Plug-In . SVG Version: 6.00 Build 0)  -->
<!DOCTYPE svg PUBLIC "-//W3C//DTD SVG 1.1//EN" "http://www.w3.org/Graphics/SVG/1.1/DTD/svg11.dtd">
<svg version="1.1" id="Layer_2" xmlns="http://www.w3.org/2000/svg" xmlns:xlink="http://www.w3.org/1999/xlink" x="0px" y="0px"
	 width="700px" height="385px" viewBox="0 0 700 385" enable-background="new 0 0 700 385" xml:space="preserve">
<path fill="#FFFFFF" d="M444.659,114.107c-3.171,0-4.098,3.288-4.098,6.174v1.211h8.137
	C448.524,116.76,447.947,114.107,444.659,114.107z"/>
<path fill="#FFFFFF" d="M388.351,169.38c3.285,0,4.556-2.192,4.556-7.73c-0.056-4.675-0.692-8.077-4.556-8.077
	c-4.041,0-4.505,3.462-4.505,8.077C383.846,167.188,385.119,169.38,388.351,169.38z"/>
<path fill="#FFFFFF" d="M312.695,231.067v52.292c1.77,0.403,3.555,0.769,5.349,1.105v-52.238l4.952,1.118v51.97
	c1.667,0.252,3.347,0.468,5.033,0.662v-51.594l5.113,1.117v50.98c1.695,0.136,3.4,0.237,5.111,0.312v-50.171l5.11,1.115v49.189
	c0.426,0.003,0.851,0.016,1.278,0.016c1.283,0,2.561-0.019,3.835-0.053v-48.032l5.113,1.122v46.677
	c1.712-0.105,3.416-0.237,5.111-0.401v-45.165l5.11,1.044v43.527c1.741-0.233,3.473-0.498,5.195-0.793v-41.621l5.106,1.12v39.532
	c1.69-0.354,3.369-0.741,5.036-1.153v-37.261l5.109,1.044v34.855c1.69-0.485,3.365-1.007,5.029-1.552v-32.189l5.117,1.115v29.292
	c1.773-0.657,3.529-1.351,5.268-2.074v-26.101l5.118,1.127v22.718c1.691-0.785,3.371-1.592,5.026-2.439v-19.168l5.113,1.044v15.362
	c1.727-0.977,3.432-1.986,5.113-3.031V254.27l5.109,1.12v6.778c4.167-2.839,8.174-5.896,12.01-9.147l-132.137-28.504l-18.529,7.35
	l-23.643-3.75l-26.03,9.847c1.218,1.393,2.461,2.762,3.731,4.105l19.821-7.723v25.171c1.651,1.204,3.328,2.375,5.032,3.51v-28.681
	l17.891,2.795v36.022c2.103,0.998,4.234,1.947,6.392,2.845v-39.669l12.78-4.708v48.994c1.69,0.521,3.397,1.005,5.113,1.464v-52.134
	L312.695,231.067z"/>
<path fill="#FFFFFF" d="M286.498,223.081l18.529-7.749l138.781,31.697c0.53-0.509,1.054-1.021,1.576-1.538l-140.317-33.949
	c-0.963,0.965-18.569,7.305-18.569,7.305l-23.643-4.555L228.22,227.11c0.896,1.249,1.814,2.479,2.748,3.698l31.968-11.72
	L286.498,223.081z"/>
<polygon fill="#FFFFFF" points="26.737,286.91 41.523,286.91 41.523,215.096 68.375,215.096 68.375,202.399 0,202.399 0,215.096 
	26.737,215.096 "/>
<path fill="#FFFFFF" d="M98.528,202.399H82.796L50.391,286.91h15.255l7.925-22.331h33.707l7.926,22.331h14.484l0.874-1.279
	L98.528,202.399z M77.591,253.408l12.771-36.421h0.236h0.118l12.658,36.421H77.591z"/>
<polygon fill="#FFFFFF" points="146.599,286.91 168.007,254.598 189.063,286.91 207.046,286.91 177.119,243.114 205.034,202.399 
	188.473,202.399 168.485,232.227 149.319,202.399 131.693,202.399 159.611,243.114 130.562,285.631 131.054,286.91 "/>
<polygon fill="#FFFFFF" points="131.054,286.91 130.562,285.631 129.688,286.91 "/>
<polygon fill="#FFFFFF" points="8.06,383.016 22.849,383.016 22.849,345.46 61.055,345.46 61.055,333.363 22.849,333.363 
	22.849,311.202 66.378,311.202 66.378,298.505 8.06,298.505 "/>
<path fill="#FFFFFF" d="M106.992,296.594c-25.364,0-40.504,20.109-40.504,44.164c0,24.057,15.14,44.169,40.504,44.169
	c25.366,0,40.508-20.112,40.508-44.169C147.5,316.703,132.357,296.594,106.992,296.594z M106.992,372.833
	c-18.132,0-25.718-15.919-25.718-32.075c0-16.153,7.586-32.072,25.718-32.072c18.135,0,25.72,15.919,25.72,32.072
	C132.711,356.914,125.127,372.833,106.992,372.833z"/>
<path fill="#FFFFFF" d="M207.425,347.74c0,11.36-0.708,24.501-19.845,24.501c-19.142,0-19.846-13.141-19.846-24.501v-49.235h-14.792
	v54.082c0,21.646,13.841,32.355,34.638,32.355c20.795,0,34.636-10.709,34.636-32.355v-54.082h-14.791V347.74z"/>
<polygon fill="#FFFFFF" points="285.904,360.764 285.667,360.764 247.203,298.505 231.61,298.505 231.61,383.016 245.669,383.016 
	245.669,320.875 246.023,320.875 284.37,383.016 299.956,383.016 299.956,298.505 285.904,298.505 "/>
<path fill="#FFFFFF" d="M347.838,298.522h-34.958v84.479l34.958,0.001c25.958,0,37.205-18.953,37.205-42.245
	C385.043,317.471,373.797,298.522,347.838,298.522z M342.175,370.912h-14.509v-60.3h14.509c23.121,0,28.077,13.239,28.077,30.146
	C370.252,357.669,365.296,370.912,342.175,370.912z"/>
<path fill="#FFFFFF" d="M416.12,298.505l-32.406,84.511h15.256l7.923-22.331h33.712l7.924,22.331h15.853l-32.528-84.511H416.12z
	 M410.917,349.521l12.773-36.425h0.234h0.115l12.66,36.425H410.917z"/>
<polygon fill="#FFFFFF" points="450.196,311.202 476.923,311.202 476.923,383.016 491.714,383.016 491.714,311.202 518.563,311.202 
	518.563,298.505 450.196,298.505 "/>
<rect x="523.663" y="298.505" fill="#FFFFFF" width="14.783" height="84.511"/>
<path fill="#FFFFFF" d="M585.329,296.594c-25.361,0-40.506,20.109-40.506,44.164c0,24.057,15.145,44.169,40.506,44.169
	c25.372,0,40.511-20.112,40.511-44.169C625.84,316.703,610.701,296.594,585.329,296.594z M585.329,372.833
	c-18.133,0-25.713-15.919-25.713-32.075c0-16.153,7.58-32.072,25.713-32.072c18.145,0,25.72,15.919,25.72,32.072
	C611.049,356.914,603.474,372.833,585.329,372.833z"/>
<polygon fill="#FFFFFF" points="685.942,298.505 685.942,360.764 685.714,360.764 647.237,298.505 631.65,298.505 631.65,383.016 
	645.709,383.016 645.709,320.875 646.061,320.875 684.408,383.016 700,383.016 700,298.505 "/>
<path fill="#FFFFFF" d="M260.938,163.616c-0.578,0-1.043,0.461-1.043,1.035v9.385c0,0.573,0.465,1.042,1.043,1.042
	c0.571,0,1.037-0.469,1.037-1.042v-9.385C261.976,164.077,261.51,163.616,260.938,163.616z"/>
<path fill="#FFFFFF" d="M268.602,162.081c-0.571,0-1.037,0.461-1.037,1.035v9.386c0,0.568,0.466,1.035,1.037,1.035
	c0.577,0,1.04-0.467,1.04-1.035v-9.386C269.641,162.542,269.178,162.081,268.602,162.081z"/>
<path fill="#FFFFFF" d="M276.195,160.961c-0.577,0-1.042,0.461-1.042,1.036v9.384c0,0.574,0.465,1.042,1.042,1.042
	c0.572,0,1.038-0.468,1.038-1.042v-9.384C277.232,161.422,276.767,160.961,276.195,160.961z"/>
<path fill="#FFFFFF" d="M283.938,160.319c-0.571,0-1.037,0.466-1.037,1.039v9.387c0,0.573,0.466,1.041,1.037,1.041
	c0.576,0,1.037-0.468,1.037-1.041v-9.387C284.976,160.785,284.514,160.319,283.938,160.319z"/>
<path fill="#FFFFFF" d="M291.208,160.244c-0.575,0-1.037,0.461-1.037,1.036v9.381c0,0.573,0.462,1.04,1.037,1.04
	c0.574,0,1.04-0.467,1.04-1.04v-9.381C292.247,160.705,291.781,160.244,291.208,160.244z"/>
<path fill="#FFFFFF" d="M298.317,160.802c-0.574,0-1.04,0.463-1.04,1.035v9.386c0,0.573,0.466,1.041,1.04,1.041
	s1.04-0.468,1.04-1.041v-9.386C299.356,161.265,298.891,160.802,298.317,160.802z"/>
<path fill="#FFFFFF" d="M254.624,165.436c-0.568,0-1.037,0.457-1.037,1.035v9.383c0,0.571,0.469,1.04,1.037,1.04
	c0.575,0,1.043-0.469,1.043-1.04v-9.383C255.667,165.893,255.198,165.436,254.624,165.436z"/>
<path fill="#FFFFFF" d="M248.718,168.844c-0.508,0-0.918,0.414-0.918,0.924v8.224c0,0.504,0.41,0.919,0.918,0.919
	c0.504,0,0.913-0.415,0.913-0.919v-8.224C249.631,169.258,249.222,168.844,248.718,168.844z"/>
<path fill="#FFFFFF" d="M243.565,172.162c-0.51,0-0.92,0.41-0.92,0.918v7.111c0,0.504,0.411,0.919,0.92,0.919
	c0.509,0,0.918-0.415,0.918-0.919v-7.111C244.483,172.572,244.074,172.162,243.565,172.162z"/>
<path fill="#FFFFFF" d="M281.822,213.51c7.792,0.015,10.993,2.065,11.034-0.134c0.03-1.633-3.726-2.509-11.19-2.365
	c-9.389,0.169-10.425,0.893-10.394,2.844C271.29,215.258,273.395,213.495,281.822,213.51z"/>
<path fill="#FFFFFF" d="M290.968,134.981c-0.485,0-0.875,0.39-0.875,0.878v1.677c0,0.485,0.391,0.878,0.875,0.878
	c0.487,0,0.878-0.393,0.878-0.878v-1.677C291.846,135.371,291.455,134.981,290.968,134.981z"/>
<path fill="#FFFFFF" d="M284.579,134.94c-0.485,0-0.879,0.393-0.879,0.879v1.676c0,0.488,0.394,0.881,0.879,0.881
	c0.483,0,0.881-0.393,0.881-0.881v-1.676C285.46,135.333,285.063,134.94,284.579,134.94z"/>
<path fill="#FFFFFF" d="M278.107,135.341c-0.484,0-0.875,0.394-0.875,0.881v1.673c0,0.486,0.391,0.879,0.875,0.879
	c0.485,0,0.882-0.393,0.882-0.879v-1.673C278.99,135.734,278.592,135.341,278.107,135.341z"/>
<path fill="#FFFFFF" d="M271.8,136.301c-0.484,0-0.876,0.393-0.876,0.877v1.678c0,0.484,0.392,0.877,0.876,0.877
	c0.483,0,0.878-0.393,0.878-0.877v-1.678C272.678,136.693,272.283,136.301,271.8,136.301z"/>
<path fill="#FFFFFF" d="M265.729,137.977c-0.487,0-0.878,0.395-0.878,0.879v1.198c0,0.484,0.391,0.879,0.878,0.879
	c0.484,0,0.879-0.395,0.879-0.879v-1.198C266.608,138.371,266.213,137.977,265.729,137.977z"/>
<path fill="#FFFFFF" d="M260.218,139.812c-0.485,0-0.882,0.395-0.882,0.883v0.636c0,0.485,0.397,0.879,0.882,0.879
	c0.484,0,0.879-0.394,0.879-0.879v-0.636C261.098,140.206,260.703,139.812,260.218,139.812z"/>
<path fill="#FFFFFF" d="M255.263,141.93c-0.484,0-0.876,0.395-0.876,0.879v0.641c0,0.484,0.392,0.879,0.876,0.879
	c0.487,0,0.882-0.395,0.882-0.879v-0.641C256.145,142.324,255.75,141.93,255.263,141.93z"/>
<path fill="#FFFFFF" d="M344.642,0.593c-79.07,0-143.175,64.103-143.175,143.174c0,29.834,9.129,57.535,24.742,80.468l4.135-1.872
	v-15.579c0-2.632,2.875-2.951,2.875-1.275c0,0,0,10.388,0,12.301c0,2.876,2.795,3.596,2.795,0.639c0-1.836,0-17.654,0-17.732
	c0-2.872,3.838-3.275,3.838-1.514c0,3.675,0,15.012,0,17.094c0,2.074,2.951,1.755,2.951,0c0-1.76,0-19.971,0-19.812
	c0-2.313,4.636-2.877,4.636-1.119c0,0,0,15.497,0,18.131c0,2.313,2.713,2.239,2.713,0c0-1.997,0-19.803,0-19.889
	c0-1.838,6.39-2.952,6.39-0.796c0,0.159,0,14.774,0,17.414c0,2.633,2.875,2.155,2.875,0.158c0-1.995,0-16.531,0-18.533
	c0-2.075,1.698-3.054,3.036-2.295c2.075,1.175,2.876-0.1,3.034,1.975c0.208,2.71,0,15.183,0,16.934c0,1.995,2.877,1.835,2.877-0.16
	c0-1.114,0-18.052,0-18.929c0-0.481,3.755-1.836,4.067-0.132c0.268,1.455,3.279,0.452,3.279,2.128c0,2.162,0,15.021,0,15.978
	c0,1.756,2.796,1.756,2.796,0c0-1.043,0-17.49,0-18.774c0-1.434,4.155-0.956,4.151,0.902c0,1.535,3.558,0.435,3.596,1.496
	c0.081,2.235,0,14.935,0,16.456c0,1.835,2.797,1.754,2.797,0c0-1.441,0-17.894,0-18.935c0-0.955,3.272-1.757,3.664,0.09
	c0.351,1.663,3.604,0.994,3.604,2.867c0,3.596,0,13.582,0,16.216c0,2.076,2.794,1.516,2.794-0.478c0-1.997,0-14.538,0-16.938
	c0-1.201,3.149-1.715,3.993-0.308c1.198,1.985,3.276,0.907,3.276,2.304c0,2.799,0.08,13.024,0,14.781
	c0,2.553,2.797,2.878,2.797,0.239c0-2.076-0.03-15.266,0-15.339c0.876-2.076,4.31,3.675,5.911,1.278c0,0,4.072-5.032-1.116-6.386
	c-37.32-9.763-63.103,0.074-74.608,6.068c-0.79,0.409-3.41,1.656-5.81,3.063c-2.235,1.319-4.088,2.757-4.012,2.448
	c1.293-5.175,1.116-5.272,7.294-8.819c22.519-12.932,52.476-14.291,80.569-6.996c6.15,1.597,11.26,4.471,11.26,3.117
	c0-1.36-3.082-2.811-9.421-5.033c-9.111-3.191-53.121-13.099-87.065,8.944c-1.478,0.957,4.074-5.432,7.588-6.87v-5.51l-2.477-4.153
	v-2.957c20.529-15.253,56.711-14.537,74.285-9.901c5.936,1.563,10.301,3.992,10.419,2.548c0.121-1.443-10.618-4.877-13.059-5.426
	c-19.247-4.309-43.915-3.271-64.107,4.705c-2.664,1.05-4.855,2.518-5.058,2.124c-0.345-0.68,2.025-3.876,3.27-5.069
	c16.374-15.654,53.435-11.103,55.432-10.864c5.098,0.61,13.183,2.876,13.264,1.787c0.083-1.09-5.204-2.849-12.861-3.782
	c-26.837-3.276-42.336,2.314-49.748,5.563c-1.506,0.659-2.261,1.131-2.865,0.833c-0.612-0.285,0.254-2.707,0.769-3.924
	c0,0,6.631-16.851,25.982-29.057c-0.05,0.033,1.576-5.207,5.171-8.004c0,0,0-5.75,0-7.268c0-1.52-2.533-4.844-2.533-4.844
	s-0.621-1.275-0.022-2.106c3.912-5.429,7.029-7.906,7.029-9.982c0-2.638,0.637-16.614,2.555-16.614
	c1.919,0,2.553,14.455,2.553,17.252c0,2.638,3.998,5.114,6.955,9.428c0.54,0.792-0.162,2.156-0.162,2.156s-2.155,2.556-2.239,4.711
	c-0.109,2.955-0.04,7.2,0.037,7.259c3.878,2.885,5.272,8.072,5.158,7.998c24.602,15.976,26.048,36.415,26.756,36.903
	c6.632,4.549,10.227,12.857,10.227,12.857s0.237,1.754,0.032,3.681c-0.199,1.926-2.708,4.14-2.708,4.14l0.038,3.765
	c4.794,2.715,10.146,8.861,11.426,11.095c0.756,1.34-0.563,6.635-0.563,6.635s-1.518,3.513-3.113,6.227
	c-0.348,0.594,0,9.588,0,9.588l110.548,25.993c23.379-25.482,37.652-59.453,37.652-96.762
	C487.813,64.695,423.715,0.593,344.642,0.593z M444.948,108.684c9.289,0,11.365,6.23,11.365,15.75v1.789h-15.752v2.482
	c0,3.635,0.981,7.212,3.924,7.212c2.656,0,3.752-2.02,4.213-5.828h7.156c-0.292,7.212-3.752,11.252-11.253,11.252
	c-11.539,0-12.002-8.886-12.002-16.619C432.6,116.415,434.216,108.684,444.948,108.684z M333.017,129.339v-1.673h8.309v1.212
	c0,3.865,1.097,6.346,5.479,6.346c2.539,0,4.963-1.615,4.963-5.078c0-3.749-1.903-5.135-7.385-7.037
	c-7.384-2.538-10.788-5.597-10.788-12.462c0-8.022,4.904-12.117,12.75-12.117c7.385,0,12.753,3.174,12.753,11.078v1.153h-7.966
	c0-3.865-1.325-6.117-4.499-6.117c-3.75,0-4.732,2.367-4.732,4.79c0,2.539,0.751,4.096,4.27,5.597l6.405,2.769
	c6.231,2.714,7.847,5.887,7.847,10.906c0,8.712-5.31,12.636-14.31,12.636C336.711,141.341,333.017,136.955,333.017,129.339z
	 M365.847,188.998h-8.307v-28.849h-8.137v-5.424h0.749c5.424,0,8.771-2.077,9.579-6.577h6.115V188.998z M372.598,140.532h-7.964
	V109.49h7.964V140.532z M372.598,105.684h-7.964v-6.808h7.964V105.684z M387.886,189.804c-5.885,0-11.25-2.479-11.366-10.327h7.964
	c0,3.061,0.979,4.904,3.75,4.904c4.384,0,5.077-4.385,5.077-10.384v-1.963h-0.115c-1.384,2.077-4.099,3.463-7.676,3.463
	c-7.269,0-9.979-5.426-9.979-12.752c0-9.347,4.096-14.597,13.21-14.597c11.426,0,12.868,9.115,12.868,19.097
	C401.618,178.844,401.388,189.804,387.886,189.804z M401.732,140.532h-7.962v-21.404c0-3.118-1.038-4.328-3.402-4.328
	c-2.714,0-4.214,1.671-4.214,5.135v20.598h-7.962V109.49h7.615v3.636h0.116c1.673-3.059,4.558-4.442,7.905-4.442
	c4.963,0,7.903,2.712,7.903,8.828V140.532z M415.407,189.804c-7.903,0-11.829-4.788-11.829-12.577v-0.172h7.964
	c0.115,4.73,0.925,7.326,4.558,7.326c4.039,0,4.56-3,4.56-6.578c0-3.634-0.81-6.981-5.367-6.981h-2.771v-5.422h2.715
	c3.46,0,4.728-3.115,4.728-6.463c0-3.808-1.268-5.364-3.979-5.364c-3.578,0-4.212,2.769-4.212,6.635h-7.615
	c0-8.021,4.269-12.059,11.999-12.059c7.386,0,11.772,3.289,11.772,10.5c0,4.905-2.367,8.136-6.231,9.001v0.115
	c5.246,0.809,7.268,4.501,7.268,9.637C428.965,182.881,426.715,189.804,415.407,189.804z M418.119,135.917
	c2.655,0,3.864-2.252,3.864-7.27h7.618c0,8.134-3.404,12.693-11.828,12.693c-7.962,0-11.886-3.867-11.886-16.33
	c0-12.749,5.251-16.327,12.577-16.327c7.328,0,11.137,4.673,11.137,12.001h-7.618c0-3.001-0.575-6.232-3.575-6.232
	c-3.924,0-4.56,3.462-4.56,10.617C413.849,132.743,414.543,135.917,418.119,135.917z M444.544,188.998h-8.712
	c1.271-9.867,4.729-22.041,12.75-32.888h-17.193v-7.155h25.156v6.346C449.794,164.822,445.871,177.457,444.544,188.998z"/>
</svg>
