<svg xmlns="http://www.w3.org/2000/svg" width="700" height="385" viewBox="0 0 700 385"><path fill="#FFF" d="M444.66 114.107c-3.172 0-4.1 3.288-4.1 6.174v1.213h8.138c-.174-4.732-.75-7.385-4.04-7.385zm-56.31 55.273c3.286 0 4.557-2.192 4.557-7.73-.056-4.675-.692-8.077-4.556-8.077-4.04 0-4.503 3.462-4.503 8.077 0 5.538 1.273 7.73 4.505 7.73zm-75.655 61.687v52.292c1.77.4 3.555.767 5.35 1.103v-52.238l4.95 1.118v51.97c1.668.252 3.348.468 5.034.662V234.38l5.11 1.118v50.98c1.696.135 3.4.236 5.11.31v-50.17l5.11 1.115v49.19c.428.002.853.015 1.28.015 1.283 0 2.56-.02 3.835-.053v-48.032l5.113 1.122v46.677c1.71-.105 3.415-.237 5.11-.4v-45.166l5.11 1.044v43.527c1.74-.234 3.473-.5 5.195-.794v-41.62l5.106 1.12v39.53c1.69-.353 3.37-.74 5.036-1.152v-37.26l5.11 1.044v34.855c1.69-.486 3.364-1.008 5.028-1.553v-32.19l5.117 1.116v29.292c1.774-.657 3.53-1.35 5.27-2.074v-26.1l5.117 1.127v22.718c1.69-.785 3.37-1.592 5.026-2.44v-19.167l5.113 1.045v15.362c1.727-.977 3.432-1.986 5.113-3.03V254.27l5.11 1.12v6.778c4.165-2.84 8.172-5.896 12.01-9.147L305.02 224.52l-18.53 7.35-23.642-3.75-26.03 9.847c1.218 1.393 2.46 2.762 3.73 4.105l19.822-7.724v25.17c1.65 1.205 3.328 2.376 5.032 3.51v-28.68l17.89 2.795v36.024c2.104.998 4.235 1.947 6.393 2.845v-39.67l12.78-4.708v48.995c1.69.52 3.397 1.005 5.113 1.464v-52.134l5.115 1.112z"/><path fill="#FFF" d="M286.498 223.08l18.53-7.748 138.78 31.697c.53-.51 1.054-1.023 1.576-1.54l-140.317-33.95c-.963.966-18.57 7.306-18.57 7.306l-23.642-4.555-34.635 12.82c.896 1.25 1.814 2.48 2.748 3.697l31.968-11.72 23.562 3.993zm-259.76 63.83h14.785v-71.814h26.852V202.4H0v12.696h26.737m71.79-12.696h-15.73L50.39 286.91h15.256l7.925-22.33h33.71l7.925 22.33h14.484l.873-1.28L98.53 202.4zM77.59 253.407l12.772-36.42h.354l12.658 36.42H77.59zm69.01 33.503l21.407-32.312 21.056 32.312h17.983l-29.927-43.796 27.913-40.715h-16.56l-19.99 29.826L149.32 202.4h-17.627l27.918 40.714-29.047 42.517.492 1.28"/><path fill="#FFF" d="M131.054 286.91l-.492-1.28-.874 1.28M8.06 383.016h14.79V345.46h38.205v-12.097H22.85v-22.16h43.528v-12.698H8.06m98.932-1.91c-25.364 0-40.504 20.11-40.504 44.163 0 24.057 15.14 44.17 40.504 44.17 25.366 0 40.508-20.113 40.508-44.17 0-24.055-15.143-44.164-40.508-44.164zm0 76.24c-18.132 0-25.718-15.92-25.718-32.077 0-16.153 7.586-32.072 25.718-32.072 18.135 0 25.72 15.92 25.72 32.072 0 16.156-7.585 32.075-25.72 32.075zm100.433-25.095c0 11.36-.708 24.5-19.845 24.5-19.142 0-19.846-13.14-19.846-24.5v-49.235h-14.792v54.082c0 21.646 13.84 32.355 34.638 32.355 20.795 0 34.636-10.71 34.636-32.355v-54.082h-14.79v49.235zm78.48 13.024h-.238l-38.464-62.26H231.61v84.512h14.06v-62.14h.353l38.347 62.14h15.586v-84.51h-14.052m61.934.016H312.88v84.48h34.958c25.958 0 37.205-18.953 37.205-42.245 0-23.286-11.246-42.235-37.205-42.235zm-5.663 72.39h-14.51v-60.3h14.51c23.12 0 28.077 13.24 28.077 30.146 0 16.91-4.956 30.154-28.077 30.154zm73.945-72.407l-32.406 84.51h15.256l7.923-22.33h33.712l7.924 22.33h15.85l-32.527-84.51H416.12zm-5.203 51.016l12.773-36.423h.35l12.66 36.425h-25.783zm39.28-38.318h26.726v71.814h14.79v-71.814h26.85v-12.697h-68.367m73.467 0h14.783v84.51h-14.783zm61.667-1.91c-25.362 0-40.507 20.11-40.507 44.163 0 24.057 15.145 44.17 40.506 44.17 25.37 0 40.51-20.113 40.51-44.17 0-24.055-15.14-44.164-40.51-44.164zm0 76.24c-18.134 0-25.714-15.92-25.714-32.077 0-16.153 7.58-32.072 25.713-32.072 18.143 0 25.72 15.92 25.72 32.072 0 16.156-7.577 32.075-25.72 32.075zm100.612-74.33v62.26h-.228l-38.477-62.26H631.65v84.51h14.06v-62.14h.35l38.348 62.14H700v-84.51m-439.062-134.89c-.578 0-1.043.46-1.043 1.036v9.387c0 .573.465 1.042 1.043 1.042.57 0 1.037-.47 1.037-1.043v-9.385c0-.573-.465-1.034-1.037-1.034zm7.664-1.535c-.57 0-1.037.462-1.037 1.036v9.386c0 .568.466 1.035 1.037 1.035.577 0 1.04-.467 1.04-1.035v-9.386c0-.574-.464-1.035-1.04-1.035zm7.593-1.12c-.577 0-1.042.462-1.042 1.037v9.384c0 .576.465 1.044 1.042 1.044.572 0 1.038-.468 1.038-1.042V162c0-.576-.466-1.037-1.038-1.037zm7.743-.64c-.57 0-1.037.465-1.037 1.038v9.387c0 .573.468 1.04 1.04 1.04.575 0 1.036-.467 1.036-1.04v-9.387c0-.573-.46-1.04-1.037-1.04zm7.27-.076c-.575 0-1.037.46-1.037 1.036v9.38c0 .574.464 1.04 1.04 1.04.573 0 1.04-.466 1.04-1.04v-9.38c0-.575-.468-1.036-1.04-1.036zm7.11.558c-.575 0-1.04.463-1.04 1.035v9.386c0 .573.465 1.04 1.04 1.04s1.04-.467 1.04-1.04v-9.386c0-.572-.467-1.035-1.04-1.035zm-43.694 4.634c-.568 0-1.037.457-1.037 1.035v9.385c0 .57.47 1.04 1.037 1.04.575 0 1.043-.47 1.043-1.04v-9.383c0-.577-.47-1.034-1.043-1.034zm-5.906 3.408c-.508 0-.918.414-.918.924v8.224c0 .504.41.92.918.92.504 0 .913-.416.913-.92v-8.224c0-.51-.407-.924-.91-.924zm-5.153 3.318c-.51 0-.92.41-.92.918v7.11c0 .505.41.92.92.92s.918-.415.918-.92v-7.11c0-.508-.41-.918-.918-.918zm38.257 41.348c7.792.015 10.993 2.065 11.034-.134.03-1.633-3.726-2.51-11.19-2.365-9.39.17-10.425.895-10.394 2.846.018 1.403 2.123-.36 10.55-.345zm9.146-78.53c-.485 0-.875.39-.875.88v1.676c0 .485.39.878.875.878.487 0 .878-.393.878-.878v-1.677c0-.49-.39-.88-.878-.88zm-6.388-.04c-.486 0-.88.393-.88.88v1.675c0 .488.394.88.88.88.482 0 .88-.392.88-.88v-1.676c0-.488-.397-.88-.88-.88zm-6.473.4c-.484 0-.875.395-.875.882v1.673c0 .486.39.88.875.88s.882-.394.882-.88v-1.673c0-.488-.4-.88-.884-.88zm-6.307.96c-.484 0-.876.394-.876.878v1.678c0 .484.392.877.876.877.483 0 .878-.393.878-.877v-1.678c0-.485-.395-.877-.878-.877zm-6.07 1.677c-.488 0-.88.395-.88.88v1.197c0 .484.392.88.88.88.483 0 .878-.396.878-.88v-1.198c0-.485-.395-.88-.88-.88zm-5.512 1.835c-.485 0-.882.395-.882.883v.636c0 .487.397.88.882.88.484 0 .88-.393.88-.88v-.634c0-.49-.395-.883-.88-.883zm-4.955 2.118c-.484 0-.876.395-.876.88v.64c0 .484.392.88.876.88.487 0 .882-.396.882-.88v-.64c0-.486-.395-.88-.882-.88z"/><path fill="#FFF" d="M344.642.593c-79.07 0-143.175 64.103-143.175 143.174 0 29.834 9.13 57.535 24.742 80.468l4.133-1.872v-15.58c0-2.63 2.875-2.95 2.875-1.274v12.3c0 2.875 2.794 3.595 2.794.64v-17.734c0-2.872 3.838-3.275 3.838-1.514v17.094c0 2.074 2.95 1.755 2.95 0v-19.812c0-2.313 4.637-2.877 4.637-1.12v18.132c0 2.313 2.712 2.24 2.712 0v-19.89c0-1.837 6.39-2.95 6.39-.795v17.415c0 2.633 2.874 2.155 2.874.158V191.85c0-2.074 1.698-3.053 3.036-2.294 2.075 1.175 2.876-.1 3.034 1.975.208 2.71 0 15.185 0 16.936 0 1.995 2.877 1.835 2.877-.16v-18.93c0-.48 3.756-1.835 4.068-.13.27 1.454 3.28.45 3.28 2.127v15.978c0 1.757 2.796 1.757 2.796 0v-18.773c0-1.434 4.155-.956 4.15.902 0 1.534 3.56.434 3.597 1.495.08 2.235 0 14.935 0 16.456 0 1.836 2.798 1.755 2.798 0v-18.934c0-.955 3.272-1.757 3.664.09.35 1.663 3.604.994 3.604 2.867v16.216c0 2.075 2.794 1.515 2.794-.48v-16.937c0-1.2 3.15-1.715 3.993-.308 1.198 1.985 3.276.907 3.276 2.304 0 2.8.08 13.023 0 14.78 0 2.553 2.797 2.88 2.797.24 0-2.077-.03-15.267 0-15.34.876-2.076 4.31 3.675 5.91 1.28 0 0 4.073-5.034-1.115-6.388-37.32-9.762-63.103.075-74.608 6.07-.79.408-3.41 1.655-5.81 3.062-2.235 1.32-4.088 2.757-4.012 2.448 1.293-5.175 1.116-5.272 7.294-8.82 22.52-12.93 52.476-14.29 80.57-6.995 6.15 1.597 11.26 4.47 11.26 3.117 0-1.36-3.083-2.81-9.422-5.033-9.11-3.19-53.12-13.1-87.065 8.944-1.48.957 4.073-5.432 7.587-6.87v-5.51l-2.477-4.153v-2.956c20.53-15.253 56.712-14.537 74.286-9.9 5.936 1.562 10.3 3.99 10.42 2.547.12-1.442-10.62-4.876-13.06-5.425-19.247-4.31-43.915-3.27-64.107 4.705-2.666 1.05-4.857 2.517-5.06 2.123-.345-.68 2.025-3.876 3.27-5.07C259.413 143.45 296.474 148 298.47 148.24c5.098.61 13.183 2.876 13.264 1.787.083-1.09-5.204-2.85-12.86-3.782-26.838-3.276-42.337 2.314-49.75 5.563-1.505.66-2.26 1.13-2.864.833-.612-.283.254-2.705.77-3.922 0 0 6.63-16.85 25.98-29.057-.05.034 1.577-5.206 5.172-8.003v-7.268c0-1.52-2.533-4.845-2.533-4.845s-.62-1.275-.02-2.106c3.91-5.43 7.03-7.907 7.03-9.983 0-2.638.635-16.614 2.553-16.614 1.92 0 2.553 14.455 2.553 17.252 0 2.638 3.998 5.114 6.955 9.428.54.792-.16 2.156-.16 2.156s-2.156 2.555-2.24 4.71c-.11 2.955-.04 7.2.037 7.26 3.878 2.884 5.272 8.07 5.158 7.997 24.602 15.976 26.048 36.415 26.756 36.903 6.633 4.548 10.228 12.856 10.228 12.856s.236 1.754.03 3.68c-.198 1.927-2.707 4.14-2.707 4.14l.04 3.766c4.794 2.715 10.146 8.86 11.426 11.095.756 1.34-.563 6.635-.563 6.635s-1.518 3.513-3.113 6.227c-.347.592 0 9.586 0 9.586l110.55 25.993c23.378-25.483 37.65-59.454 37.65-96.763C487.814 64.695 423.716.593 344.643.593zm100.306 108.09c9.29 0 11.365 6.23 11.365 15.75v1.79H440.56v2.482c0 3.635.982 7.212 3.925 7.212 2.656 0 3.752-2.02 4.213-5.828h7.156c-.292 7.21-3.752 11.25-11.253 11.25-11.537 0-12-8.886-12-16.62 0-8.306 1.617-16.037 12.35-16.037zm-111.93 20.656v-1.675h8.308v1.212c0 3.865 1.097 6.346 5.48 6.346 2.538 0 4.962-1.615 4.962-5.078 0-3.75-1.903-5.135-7.385-7.037-7.384-2.54-10.788-5.598-10.788-12.463 0-8.022 4.904-12.117 12.75-12.117 7.385 0 12.753 3.174 12.753 11.078v1.153h-7.966c0-3.865-1.325-6.117-4.5-6.117-3.75 0-4.73 2.367-4.73 4.79 0 2.54.75 4.096 4.27 5.597l6.404 2.77c6.23 2.714 7.847 5.887 7.847 10.906 0 8.712-5.31 12.636-14.31 12.636-9.402 0-13.096-4.387-13.096-12.003zm32.83 59.657h-8.308v-28.85h-8.137v-5.423h.75c5.423 0 8.77-2.077 9.578-6.577h6.117v40.85zm6.75-48.466h-7.964v-31.04h7.964v31.042zm0-34.847h-7.964v-6.808h7.964v6.808zm15.288 84.12c-5.885 0-11.25-2.48-11.366-10.327h7.964c0 3.06.98 4.904 3.75 4.904 4.384 0 5.077-4.384 5.077-10.383v-1.963h-.113c-1.384 2.077-4.1 3.463-7.676 3.463-7.27 0-9.98-5.426-9.98-12.752 0-9.347 4.098-14.597 13.21-14.597 11.428 0 12.87 9.115 12.87 19.097 0 11.6-.23 22.56-13.733 22.56zm13.846-49.272h-7.962v-21.403c0-3.118-1.038-4.328-3.402-4.328-2.714 0-4.214 1.67-4.214 5.134v20.598h-7.962V109.49h7.615v3.636h.116c1.673-3.06 4.558-4.442 7.905-4.442 4.963 0 7.903 2.712 7.903 8.828v23.02zm13.675 49.273c-7.903 0-11.83-4.788-11.83-12.577v-.172h7.965c.115 4.73.925 7.326 4.558 7.326 4.04 0 4.56-3 4.56-6.577 0-3.634-.81-6.98-5.367-6.98h-2.77V165.4h2.714c3.46 0 4.728-3.115 4.728-6.463 0-3.808-1.268-5.364-3.98-5.364-3.577 0-4.21 2.77-4.21 6.635h-7.616c0-8.02 4.267-12.06 11.997-12.06 7.386 0 11.772 3.29 11.772 10.5 0 4.906-2.368 8.137-6.23 9.002v.115c5.244.81 7.266 4.5 7.266 9.637-.002 5.48-2.252 12.402-13.56 12.402zm2.712-53.887c2.653 0 3.862-2.252 3.862-7.27h7.618c0 8.134-3.403 12.693-11.827 12.693-7.962 0-11.886-3.868-11.886-16.33 0-12.75 5.25-16.328 12.577-16.328 7.328 0 11.137 4.673 11.137 12h-7.616c0-3-.575-6.23-3.575-6.23-3.925 0-4.56 3.46-4.56 10.616 0 7.673.694 10.847 4.27 10.847zm26.423 53.08h-8.712c1.27-9.866 4.73-22.04 12.75-32.887h-17.19v-7.156h25.155v6.346c-6.75 9.522-10.674 22.157-12 33.698z"/></svg>